<?xml version="1.0" encoding="utf-8" standalone="no"?>
<!DOCTYPE svg PUBLIC "-//W3C//DTD SVG 1.1//EN"
  "http://www.w3.org/Graphics/SVG/1.1/DTD/svg11.dtd">
<svg xmlns:xlink="http://www.w3.org/1999/xlink" width="720pt" height="360pt" viewBox="0 0 720 360" xmlns="http://www.w3.org/2000/svg" version="1.1">
 <metadata>
  <rdf:RDF xmlns:dc="http://purl.org/dc/elements/1.1/" xmlns:cc="http://creativecommons.org/ns#" xmlns:rdf="http://www.w3.org/1999/02/22-rdf-syntax-ns#">
   <cc:Work>
    <dc:type rdf:resource="http://purl.org/dc/dcmitype/StillImage"/>
    <dc:date>2025-12-19T08:22:30.020425</dc:date>
    <dc:format>image/svg+xml</dc:format>
    <dc:creator>
     <cc:Agent>
      <dc:title>Matplotlib v3.8.4, https://matplotlib.org/</dc:title>
     </cc:Agent>
    </dc:creator>
   </cc:Work>
  </rdf:RDF>
 </metadata>
 <defs>
  <style type="text/css">*{stroke-linejoin: round; stroke-linecap: butt}</style>
 </defs>
 <g id="figure_1">
  <g id="patch_1">
   <path d="M 0 360 
L 720 360 
L 720 0 
L 0 0 
z
" style="fill: #ffffff"/>
  </g>
  <g id="axes_1">
   <g id="patch_2">
    <path d="M 62.03 278.567883 
L 352.395 278.567883 
L 352.395 20.52 
L 62.03 20.52 
z
" style="fill: #ffffff"/>
   </g>
   <g id="matplotlib.axis_1">
    <g id="xtick_1">
     <g id="line2d_1">
      <defs>
       <path id="mae767f29d8" d="M 0 0 
L 0 3.5 
" style="stroke: #000000; stroke-width: 0.8"/>
      </defs>
      <g>
       <use xlink:href="#mae767f29d8" x="75.228409" y="278.567883" style="stroke: #000000; stroke-width: 0.8"/>
      </g>
     </g>
     <g id="text_1">
      <!-- 0.0 -->
      <g transform="translate(64.096222 296.205696) scale(0.14 -0.14)">
       <defs>
        <path id="DejaVuSans-30" d="M 2034 4250 
Q 1547 4250 1301 3770 
Q 1056 3291 1056 2328 
Q 1056 1369 1301 889 
Q 1547 409 2034 409 
Q 2525 409 2770 889 
Q 3016 1369 3016 2328 
Q 3016 3291 2770 3770 
Q 2525 4250 2034 4250 
z
M 2034 4750 
Q 2819 4750 3233 4129 
Q 3647 3509 3647 2328 
Q 3647 1150 3233 529 
Q 2819 -91 2034 -91 
Q 1250 -91 836 529 
Q 422 1150 422 2328 
Q 422 3509 836 4129 
Q 1250 4750 2034 4750 
z
" transform="scale(0.015625)"/>
        <path id="DejaVuSans-2e" d="M 684 794 
L 1344 794 
L 1344 0 
L 684 0 
L 684 794 
z
" transform="scale(0.015625)"/>
       </defs>
       <use xlink:href="#DejaVuSans-30"/>
       <use xlink:href="#DejaVuSans-2e" x="63.623047"/>
       <use xlink:href="#DejaVuSans-30" x="95.410156"/>
      </g>
     </g>
    </g>
    <g id="xtick_2">
     <g id="line2d_2">
      <g>
       <use xlink:href="#mae767f29d8" x="128.022045" y="278.567883" style="stroke: #000000; stroke-width: 0.8"/>
      </g>
     </g>
     <g id="text_2">
      <!-- 0.2 -->
      <g transform="translate(116.889858 296.205696) scale(0.14 -0.14)">
       <defs>
        <path id="DejaVuSans-32" d="M 1228 531 
L 3431 531 
L 3431 0 
L 469 0 
L 469 531 
Q 828 903 1448 1529 
Q 2069 2156 2228 2338 
Q 2531 2678 2651 2914 
Q 2772 3150 2772 3378 
Q 2772 3750 2511 3984 
Q 2250 4219 1831 4219 
Q 1534 4219 1204 4116 
Q 875 4013 500 3803 
L 500 4441 
Q 881 4594 1212 4672 
Q 1544 4750 1819 4750 
Q 2544 4750 2975 4387 
Q 3406 4025 3406 3419 
Q 3406 3131 3298 2873 
Q 3191 2616 2906 2266 
Q 2828 2175 2409 1742 
Q 1991 1309 1228 531 
z
" transform="scale(0.015625)"/>
       </defs>
       <use xlink:href="#DejaVuSans-30"/>
       <use xlink:href="#DejaVuSans-2e" x="63.623047"/>
       <use xlink:href="#DejaVuSans-32" x="95.410156"/>
      </g>
     </g>
    </g>
    <g id="xtick_3">
     <g id="line2d_3">
      <g>
       <use xlink:href="#mae767f29d8" x="180.815682" y="278.567883" style="stroke: #000000; stroke-width: 0.8"/>
      </g>
     </g>
     <g id="text_3">
      <!-- 0.4 -->
      <g transform="translate(169.683494 296.205696) scale(0.14 -0.14)">
       <defs>
        <path id="DejaVuSans-34" d="M 2419 4116 
L 825 1625 
L 2419 1625 
L 2419 4116 
z
M 2253 4666 
L 3047 4666 
L 3047 1625 
L 3713 1625 
L 3713 1100 
L 3047 1100 
L 3047 0 
L 2419 0 
L 2419 1100 
L 313 1100 
L 313 1709 
L 2253 4666 
z
" transform="scale(0.015625)"/>
       </defs>
       <use xlink:href="#DejaVuSans-30"/>
       <use xlink:href="#DejaVuSans-2e" x="63.623047"/>
       <use xlink:href="#DejaVuSans-34" x="95.410156"/>
      </g>
     </g>
    </g>
    <g id="xtick_4">
     <g id="line2d_4">
      <g>
       <use xlink:href="#mae767f29d8" x="233.609318" y="278.567883" style="stroke: #000000; stroke-width: 0.8"/>
      </g>
     </g>
     <g id="text_4">
      <!-- 0.6 -->
      <g transform="translate(222.477131 296.205696) scale(0.14 -0.14)">
       <defs>
        <path id="DejaVuSans-36" d="M 2113 2584 
Q 1688 2584 1439 2293 
Q 1191 2003 1191 1497 
Q 1191 994 1439 701 
Q 1688 409 2113 409 
Q 2538 409 2786 701 
Q 3034 994 3034 1497 
Q 3034 2003 2786 2293 
Q 2538 2584 2113 2584 
z
M 3366 4563 
L 3366 3988 
Q 3128 4100 2886 4159 
Q 2644 4219 2406 4219 
Q 1781 4219 1451 3797 
Q 1122 3375 1075 2522 
Q 1259 2794 1537 2939 
Q 1816 3084 2150 3084 
Q 2853 3084 3261 2657 
Q 3669 2231 3669 1497 
Q 3669 778 3244 343 
Q 2819 -91 2113 -91 
Q 1303 -91 875 529 
Q 447 1150 447 2328 
Q 447 3434 972 4092 
Q 1497 4750 2381 4750 
Q 2619 4750 2861 4703 
Q 3103 4656 3366 4563 
z
" transform="scale(0.015625)"/>
       </defs>
       <use xlink:href="#DejaVuSans-30"/>
       <use xlink:href="#DejaVuSans-2e" x="63.623047"/>
       <use xlink:href="#DejaVuSans-36" x="95.410156"/>
      </g>
     </g>
    </g>
    <g id="xtick_5">
     <g id="line2d_5">
      <g>
       <use xlink:href="#mae767f29d8" x="286.402955" y="278.567883" style="stroke: #000000; stroke-width: 0.8"/>
      </g>
     </g>
     <g id="text_5">
      <!-- 0.8 -->
      <g transform="translate(275.270767 296.205696) scale(0.14 -0.14)">
       <defs>
        <path id="DejaVuSans-38" d="M 2034 2216 
Q 1584 2216 1326 1975 
Q 1069 1734 1069 1313 
Q 1069 891 1326 650 
Q 1584 409 2034 409 
Q 2484 409 2743 651 
Q 3003 894 3003 1313 
Q 3003 1734 2745 1975 
Q 2488 2216 2034 2216 
z
M 1403 2484 
Q 997 2584 770 2862 
Q 544 3141 544 3541 
Q 544 4100 942 4425 
Q 1341 4750 2034 4750 
Q 2731 4750 3128 4425 
Q 3525 4100 3525 3541 
Q 3525 3141 3298 2862 
Q 3072 2584 2669 2484 
Q 3125 2378 3379 2068 
Q 3634 1759 3634 1313 
Q 3634 634 3220 271 
Q 2806 -91 2034 -91 
Q 1263 -91 848 271 
Q 434 634 434 1313 
Q 434 1759 690 2068 
Q 947 2378 1403 2484 
z
M 1172 3481 
Q 1172 3119 1398 2916 
Q 1625 2713 2034 2713 
Q 2441 2713 2670 2916 
Q 2900 3119 2900 3481 
Q 2900 3844 2670 4047 
Q 2441 4250 2034 4250 
Q 1625 4250 1398 4047 
Q 1172 3844 1172 3481 
z
" transform="scale(0.015625)"/>
       </defs>
       <use xlink:href="#DejaVuSans-30"/>
       <use xlink:href="#DejaVuSans-2e" x="63.623047"/>
       <use xlink:href="#DejaVuSans-38" x="95.410156"/>
      </g>
     </g>
    </g>
    <g id="xtick_6">
     <g id="line2d_6">
      <g>
       <use xlink:href="#mae767f29d8" x="339.196591" y="278.567883" style="stroke: #000000; stroke-width: 0.8"/>
      </g>
     </g>
     <g id="text_6">
      <!-- 1.0 -->
      <g transform="translate(328.064403 296.205696) scale(0.14 -0.14)">
       <defs>
        <path id="DejaVuSans-31" d="M 794 531 
L 1825 531 
L 1825 4091 
L 703 3866 
L 703 4441 
L 1819 4666 
L 2450 4666 
L 2450 531 
L 3481 531 
L 3481 0 
L 794 0 
L 794 531 
z
" transform="scale(0.015625)"/>
       </defs>
       <use xlink:href="#DejaVuSans-31"/>
       <use xlink:href="#DejaVuSans-2e" x="63.623047"/>
       <use xlink:href="#DejaVuSans-30" x="95.410156"/>
      </g>
     </g>
    </g>
    <g id="text_7">
     <!-- False positive rate -->
     <g transform="translate(143.511406 313.755071) scale(0.14 -0.14)">
      <defs>
       <path id="DejaVuSans-46" d="M 628 4666 
L 3309 4666 
L 3309 4134 
L 1259 4134 
L 1259 2759 
L 3109 2759 
L 3109 2228 
L 1259 2228 
L 1259 0 
L 628 0 
L 628 4666 
z
" transform="scale(0.015625)"/>
       <path id="DejaVuSans-61" d="M 2194 1759 
Q 1497 1759 1228 1600 
Q 959 1441 959 1056 
Q 959 750 1161 570 
Q 1363 391 1709 391 
Q 2188 391 2477 730 
Q 2766 1069 2766 1631 
L 2766 1759 
L 2194 1759 
z
M 3341 1997 
L 3341 0 
L 2766 0 
L 2766 531 
Q 2569 213 2275 61 
Q 1981 -91 1556 -91 
Q 1019 -91 701 211 
Q 384 513 384 1019 
Q 384 1609 779 1909 
Q 1175 2209 1959 2209 
L 2766 2209 
L 2766 2266 
Q 2766 2663 2505 2880 
Q 2244 3097 1772 3097 
Q 1472 3097 1187 3025 
Q 903 2953 641 2809 
L 641 3341 
Q 956 3463 1253 3523 
Q 1550 3584 1831 3584 
Q 2591 3584 2966 3190 
Q 3341 2797 3341 1997 
z
" transform="scale(0.015625)"/>
       <path id="DejaVuSans-6c" d="M 603 4863 
L 1178 4863 
L 1178 0 
L 603 0 
L 603 4863 
z
" transform="scale(0.015625)"/>
       <path id="DejaVuSans-73" d="M 2834 3397 
L 2834 2853 
Q 2591 2978 2328 3040 
Q 2066 3103 1784 3103 
Q 1356 3103 1142 2972 
Q 928 2841 928 2578 
Q 928 2378 1081 2264 
Q 1234 2150 1697 2047 
L 1894 2003 
Q 2506 1872 2764 1633 
Q 3022 1394 3022 966 
Q 3022 478 2636 193 
Q 2250 -91 1575 -91 
Q 1294 -91 989 -36 
Q 684 19 347 128 
L 347 722 
Q 666 556 975 473 
Q 1284 391 1588 391 
Q 1994 391 2212 530 
Q 2431 669 2431 922 
Q 2431 1156 2273 1281 
Q 2116 1406 1581 1522 
L 1381 1569 
Q 847 1681 609 1914 
Q 372 2147 372 2553 
Q 372 3047 722 3315 
Q 1072 3584 1716 3584 
Q 2034 3584 2315 3537 
Q 2597 3491 2834 3397 
z
" transform="scale(0.015625)"/>
       <path id="DejaVuSans-65" d="M 3597 1894 
L 3597 1613 
L 953 1613 
Q 991 1019 1311 708 
Q 1631 397 2203 397 
Q 2534 397 2845 478 
Q 3156 559 3463 722 
L 3463 178 
Q 3153 47 2828 -22 
Q 2503 -91 2169 -91 
Q 1331 -91 842 396 
Q 353 884 353 1716 
Q 353 2575 817 3079 
Q 1281 3584 2069 3584 
Q 2775 3584 3186 3129 
Q 3597 2675 3597 1894 
z
M 3022 2063 
Q 3016 2534 2758 2815 
Q 2500 3097 2075 3097 
Q 1594 3097 1305 2825 
Q 1016 2553 972 2059 
L 3022 2063 
z
" transform="scale(0.015625)"/>
       <path id="DejaVuSans-20" transform="scale(0.015625)"/>
       <path id="DejaVuSans-70" d="M 1159 525 
L 1159 -1331 
L 581 -1331 
L 581 3500 
L 1159 3500 
L 1159 2969 
Q 1341 3281 1617 3432 
Q 1894 3584 2278 3584 
Q 2916 3584 3314 3078 
Q 3713 2572 3713 1747 
Q 3713 922 3314 415 
Q 2916 -91 2278 -91 
Q 1894 -91 1617 61 
Q 1341 213 1159 525 
z
M 3116 1747 
Q 3116 2381 2855 2742 
Q 2594 3103 2138 3103 
Q 1681 3103 1420 2742 
Q 1159 2381 1159 1747 
Q 1159 1113 1420 752 
Q 1681 391 2138 391 
Q 2594 391 2855 752 
Q 3116 1113 3116 1747 
z
" transform="scale(0.015625)"/>
       <path id="DejaVuSans-6f" d="M 1959 3097 
Q 1497 3097 1228 2736 
Q 959 2375 959 1747 
Q 959 1119 1226 758 
Q 1494 397 1959 397 
Q 2419 397 2687 759 
Q 2956 1122 2956 1747 
Q 2956 2369 2687 2733 
Q 2419 3097 1959 3097 
z
M 1959 3584 
Q 2709 3584 3137 3096 
Q 3566 2609 3566 1747 
Q 3566 888 3137 398 
Q 2709 -91 1959 -91 
Q 1206 -91 779 398 
Q 353 888 353 1747 
Q 353 2609 779 3096 
Q 1206 3584 1959 3584 
z
" transform="scale(0.015625)"/>
       <path id="DejaVuSans-69" d="M 603 3500 
L 1178 3500 
L 1178 0 
L 603 0 
L 603 3500 
z
M 603 4863 
L 1178 4863 
L 1178 4134 
L 603 4134 
L 603 4863 
z
" transform="scale(0.015625)"/>
       <path id="DejaVuSans-74" d="M 1172 4494 
L 1172 3500 
L 2356 3500 
L 2356 3053 
L 1172 3053 
L 1172 1153 
Q 1172 725 1289 603 
Q 1406 481 1766 481 
L 2356 481 
L 2356 0 
L 1766 0 
Q 1100 0 847 248 
Q 594 497 594 1153 
L 594 3053 
L 172 3053 
L 172 3500 
L 594 3500 
L 594 4494 
L 1172 4494 
z
" transform="scale(0.015625)"/>
       <path id="DejaVuSans-76" d="M 191 3500 
L 800 3500 
L 1894 563 
L 2988 3500 
L 3597 3500 
L 2284 0 
L 1503 0 
L 191 3500 
z
" transform="scale(0.015625)"/>
       <path id="DejaVuSans-72" d="M 2631 2963 
Q 2534 3019 2420 3045 
Q 2306 3072 2169 3072 
Q 1681 3072 1420 2755 
Q 1159 2438 1159 1844 
L 1159 0 
L 581 0 
L 581 3500 
L 1159 3500 
L 1159 2956 
Q 1341 3275 1631 3429 
Q 1922 3584 2338 3584 
Q 2397 3584 2469 3576 
Q 2541 3569 2628 3553 
L 2631 2963 
z
" transform="scale(0.015625)"/>
      </defs>
      <use xlink:href="#DejaVuSans-46"/>
      <use xlink:href="#DejaVuSans-61" x="48.394531"/>
      <use xlink:href="#DejaVuSans-6c" x="109.673828"/>
      <use xlink:href="#DejaVuSans-73" x="137.457031"/>
      <use xlink:href="#DejaVuSans-65" x="189.556641"/>
      <use xlink:href="#DejaVuSans-20" x="251.080078"/>
      <use xlink:href="#DejaVuSans-70" x="282.867188"/>
      <use xlink:href="#DejaVuSans-6f" x="346.34375"/>
      <use xlink:href="#DejaVuSans-73" x="407.525391"/>
      <use xlink:href="#DejaVuSans-69" x="459.625"/>
      <use xlink:href="#DejaVuSans-74" x="487.408203"/>
      <use xlink:href="#DejaVuSans-69" x="526.617188"/>
      <use xlink:href="#DejaVuSans-76" x="554.400391"/>
      <use xlink:href="#DejaVuSans-65" x="613.580078"/>
      <use xlink:href="#DejaVuSans-20" x="675.103516"/>
      <use xlink:href="#DejaVuSans-72" x="706.890625"/>
      <use xlink:href="#DejaVuSans-61" x="748.003906"/>
      <use xlink:href="#DejaVuSans-74" x="809.283203"/>
      <use xlink:href="#DejaVuSans-65" x="848.492188"/>
     </g>
    </g>
   </g>
   <g id="matplotlib.axis_2">
    <g id="ytick_1">
     <g id="line2d_7">
      <defs>
       <path id="m08f565ec9e" d="M 0 0 
L -3.5 0 
" style="stroke: #000000; stroke-width: 0.8"/>
      </defs>
      <g>
       <use xlink:href="#m08f565ec9e" x="62.03" y="266.838434" style="stroke: #000000; stroke-width: 0.8"/>
      </g>
     </g>
     <g id="text_8">
      <!-- 0.0 -->
      <g transform="translate(32.765625 272.15734) scale(0.14 -0.14)">
       <use xlink:href="#DejaVuSans-30"/>
       <use xlink:href="#DejaVuSans-2e" x="63.623047"/>
       <use xlink:href="#DejaVuSans-30" x="95.410156"/>
      </g>
     </g>
    </g>
    <g id="ytick_2">
     <g id="line2d_8">
      <g>
       <use xlink:href="#m08f565ec9e" x="62.03" y="219.920637" style="stroke: #000000; stroke-width: 0.8"/>
      </g>
     </g>
     <g id="text_9">
      <!-- 0.2 -->
      <g transform="translate(32.765625 225.239543) scale(0.14 -0.14)">
       <use xlink:href="#DejaVuSans-30"/>
       <use xlink:href="#DejaVuSans-2e" x="63.623047"/>
       <use xlink:href="#DejaVuSans-32" x="95.410156"/>
      </g>
     </g>
    </g>
    <g id="ytick_3">
     <g id="line2d_9">
      <g>
       <use xlink:href="#m08f565ec9e" x="62.03" y="173.00284" style="stroke: #000000; stroke-width: 0.8"/>
      </g>
     </g>
     <g id="text_10">
      <!-- 0.4 -->
      <g transform="translate(32.765625 178.321746) scale(0.14 -0.14)">
       <use xlink:href="#DejaVuSans-30"/>
       <use xlink:href="#DejaVuSans-2e" x="63.623047"/>
       <use xlink:href="#DejaVuSans-34" x="95.410156"/>
      </g>
     </g>
    </g>
    <g id="ytick_4">
     <g id="line2d_10">
      <g>
       <use xlink:href="#m08f565ec9e" x="62.03" y="126.085043" style="stroke: #000000; stroke-width: 0.8"/>
      </g>
     </g>
     <g id="text_11">
      <!-- 0.6 -->
      <g transform="translate(32.765625 131.403949) scale(0.14 -0.14)">
       <use xlink:href="#DejaVuSans-30"/>
       <use xlink:href="#DejaVuSans-2e" x="63.623047"/>
       <use xlink:href="#DejaVuSans-36" x="95.410156"/>
      </g>
     </g>
    </g>
    <g id="ytick_5">
     <g id="line2d_11">
      <g>
       <use xlink:href="#m08f565ec9e" x="62.03" y="79.167246" style="stroke: #000000; stroke-width: 0.8"/>
      </g>
     </g>
     <g id="text_12">
      <!-- 0.8 -->
      <g transform="translate(32.765625 84.486152) scale(0.14 -0.14)">
       <use xlink:href="#DejaVuSans-30"/>
       <use xlink:href="#DejaVuSans-2e" x="63.623047"/>
       <use xlink:href="#DejaVuSans-38" x="95.410156"/>
      </g>
     </g>
    </g>
    <g id="ytick_6">
     <g id="line2d_12">
      <g>
       <use xlink:href="#m08f565ec9e" x="62.03" y="32.249449" style="stroke: #000000; stroke-width: 0.8"/>
      </g>
     </g>
     <g id="text_13">
      <!-- 1.0 -->
      <g transform="translate(32.765625 37.568355) scale(0.14 -0.14)">
       <use xlink:href="#DejaVuSans-31"/>
       <use xlink:href="#DejaVuSans-2e" x="63.623047"/>
       <use xlink:href="#DejaVuSans-30" x="95.410156"/>
      </g>
     </g>
    </g>
    <g id="text_14">
     <!-- True positive rate -->
     <g transform="translate(25.854063 210.533629) rotate(-90) scale(0.14 -0.14)">
      <defs>
       <path id="DejaVuSans-54" d="M -19 4666 
L 3928 4666 
L 3928 4134 
L 2272 4134 
L 2272 0 
L 1638 0 
L 1638 4134 
L -19 4134 
L -19 4666 
z
" transform="scale(0.015625)"/>
       <path id="DejaVuSans-75" d="M 544 1381 
L 544 3500 
L 1119 3500 
L 1119 1403 
Q 1119 906 1312 657 
Q 1506 409 1894 409 
Q 2359 409 2629 706 
Q 2900 1003 2900 1516 
L 2900 3500 
L 3475 3500 
L 3475 0 
L 2900 0 
L 2900 538 
Q 2691 219 2414 64 
Q 2138 -91 1772 -91 
Q 1169 -91 856 284 
Q 544 659 544 1381 
z
M 1991 3584 
L 1991 3584 
z
" transform="scale(0.015625)"/>
      </defs>
      <use xlink:href="#DejaVuSans-54"/>
      <use xlink:href="#DejaVuSans-72" x="46.333984"/>
      <use xlink:href="#DejaVuSans-75" x="87.447266"/>
      <use xlink:href="#DejaVuSans-65" x="150.826172"/>
      <use xlink:href="#DejaVuSans-20" x="212.349609"/>
      <use xlink:href="#DejaVuSans-70" x="244.136719"/>
      <use xlink:href="#DejaVuSans-6f" x="307.613281"/>
      <use xlink:href="#DejaVuSans-73" x="368.794922"/>
      <use xlink:href="#DejaVuSans-69" x="420.894531"/>
      <use xlink:href="#DejaVuSans-74" x="448.677734"/>
      <use xlink:href="#DejaVuSans-69" x="487.886719"/>
      <use xlink:href="#DejaVuSans-76" x="515.669922"/>
      <use xlink:href="#DejaVuSans-65" x="574.849609"/>
      <use xlink:href="#DejaVuSans-20" x="636.373047"/>
      <use xlink:href="#DejaVuSans-72" x="668.160156"/>
      <use xlink:href="#DejaVuSans-61" x="709.273438"/>
      <use xlink:href="#DejaVuSans-74" x="770.552734"/>
      <use xlink:href="#DejaVuSans-65" x="809.761719"/>
     </g>
    </g>
   </g>
   <g id="line2d_13">
    <path d="M 75.228409 266.838434 
L 75.981578 231.441954 
L 76.344085 209.371536 
L 76.393358 206.829247 
L 76.502462 201.130051 
L 76.534137 200.012561 
L 76.643241 195.794039 
L 76.65028 195.794039 
L 76.65028 195.766101 
L 76.759384 190.737399 
L 76.791059 189.619909 
L 76.900163 185.541072 
L 76.907202 185.541072 
L 77.016306 181.546047 
L 77.05854 180.372683 
L 77.167644 175.176357 
L 77.19228 174.114742 
L 77.301384 170.538776 
L 77.333059 169.421286 
L 77.442163 164.811642 
L 77.449202 164.811642 
L 77.554787 160.593119 
L 77.558306 160.593119 
L 77.611098 159.335943 
L 77.720202 155.73204 
L 77.727241 155.73204 
L 77.727241 155.676165 
L 77.829306 152.519257 
L 77.843384 152.435446 
L 77.952488 149.110914 
L 77.959527 149.05504 
L 78.068631 145.674634 
L 78.079189 145.590822 
L 78.188293 141.986919 
L 78.195332 141.986919 
L 78.304436 138.103643 
L 78.307956 138.103643 
L 78.41706 134.834986 
L 78.420579 134.834986 
L 78.526164 132.627944 
L 78.533203 132.627944 
L 78.642307 129.247538 
L 78.649346 129.191664 
L 78.695099 127.990363 
L 78.804203 124.833455 
L 78.88867 123.743903 
L 78.997774 121.397175 
L 79.008333 121.3413 
L 79.113917 118.631388 
L 79.117437 118.631388 
L 79.127995 118.603451 
L 79.237099 116.871342 
L 79.258216 116.815468 
L 79.36732 114.021744 
L 79.374359 113.965869 
L 79.479943 112.0382 
L 79.483463 112.0382 
L 79.560891 110.72515 
L 79.669995 107.847614 
L 79.677034 107.819677 
L 79.786138 105.947882 
L 79.807255 105.86407 
L 79.90932 104.439271 
L 79.923398 104.439271 
L 80.032502 103.182096 
L 80.057138 103.154158 
L 80.162723 101.477924 
L 80.18032 101.477924 
L 80.289424 99.829627 
L 80.296463 99.745815 
L 80.405567 98.013707 
L 80.419645 97.957832 
L 80.51819 96.756531 
L 80.535788 96.756531 
L 80.634333 95.164108 
L 80.648411 95.164108 
L 80.746957 93.487874 
L 80.771593 93.432 
L 80.880697 92.007201 
L 80.884217 92.007201 
L 80.99332 90.722088 
L 81.007398 90.69415 
L 81.116502 89.492849 
L 81.151697 89.409038 
L 81.250243 88.598858 
L 81.274879 88.542983 
L 81.376944 87.313745 
L 81.391022 87.313745 
L 81.500126 86.503565 
L 81.531801 86.419753 
L 81.633866 85.525761 
L 81.658503 85.44195 
L 81.760568 84.352397 
L 81.802801 84.268586 
L 81.911905 83.234908 
L 81.918944 83.206971 
L 82.021009 82.424728 
L 82.059723 82.396791 
L 82.168827 81.39105 
L 82.214581 81.335176 
L 82.316646 80.301498 
L 82.358879 80.217686 
L 82.460944 79.686879 
L 82.520776 79.603067 
L 82.612282 78.904636 
L 82.643957 78.848762 
L 82.742503 78.038582 
L 82.777698 77.95477 
L 82.883282 77.396025 
L 82.89736 77.340151 
L 83.006464 76.697594 
L 83.009984 76.697594 
L 83.10149 75.943289 
L 83.249308 75.859477 
L 83.358412 75.077235 
L 83.390088 74.993423 
L 83.495672 74.127369 
L 83.506231 74.071494 
L 83.604776 73.540687 
L 83.668127 73.456875 
L 83.777231 73.121628 
L 83.808906 73.037816 
L 83.91801 72.646695 
L 83.970802 72.562883 
L 84.062309 72.171762 
L 84.11862 72.08795 
L 84.227724 71.501268 
L 84.273478 71.417456 
L 84.375543 70.830774 
L 84.421296 70.746963 
L 84.5304 70.104406 
L 84.576153 70.048532 
L 84.678218 69.573599 
L 84.709893 69.489787 
L 84.808439 69.014854 
L 84.861231 68.931042 
L 84.970335 68.484046 
L 84.984413 68.400235 
L 85.086478 67.925302 
L 85.104075 67.84149 
L 85.202621 67.590055 
L 85.269491 67.506243 
L 85.353959 67.310683 
L 85.41027 67.254808 
L 85.512335 66.919561 
L 85.554569 66.835749 
L 85.660153 66.52844 
L 85.695348 66.444628 
L 85.797413 65.857946 
L 85.88892 65.802072 
L 85.990985 65.355076 
L 86.061374 65.271264 
L 86.170478 64.852206 
L 86.223271 64.768394 
L 86.314777 64.433147 
L 86.378128 64.377273 
L 86.466115 63.986151 
L 86.504829 63.958214 
L 86.603375 63.399469 
L 86.663206 63.315658 
L 86.754712 62.756913 
L 86.811024 62.673101 
L 86.913089 62.449603 
L 86.948284 62.365791 
L 87.050349 61.779109 
L 87.106661 61.695298 
L 87.215764 61.304176 
L 87.250959 61.276239 
L 87.356544 60.717494 
L 87.398778 60.633683 
L 87.507881 60.382248 
L 87.564193 60.298436 
L 87.659219 60.047001 
L 87.701453 59.963189 
L 87.810557 59.600005 
L 87.85983 59.572068 
L 87.958375 59.153009 
L 88.021726 59.069197 
L 88.13083 58.761888 
L 88.173064 58.678076 
L 88.282167 58.482515 
L 88.310323 58.398704 
L 88.419427 58.119331 
L 88.465181 58.03552 
L 88.560207 57.839959 
L 88.609479 57.756147 
L 88.718583 57.504712 
L 88.81009 57.4209 
L 88.87344 57.169465 
L 89.007181 57.085654 
L 89.088129 56.806281 
L 89.193713 56.722469 
L 89.299298 56.526909 
L 89.366168 56.443097 
L 89.468233 56.163725 
L 89.499908 56.079913 
L 89.601973 55.772603 
L 89.630129 55.688792 
L 89.739233 55.437357 
L 89.770908 55.353545 
L 89.876493 54.962423 
L 89.946882 54.878612 
L 90.027831 54.655114 
L 90.087662 54.571302 
L 90.175649 54.375741 
L 90.267155 54.29193 
L 90.376259 53.98462 
L 90.429051 53.928746 
L 90.527597 53.677311 
L 90.569831 53.593499 
L 90.650779 53.258252 
L 90.703571 53.202377 
L 90.795078 52.97888 
L 90.84787 52.895068 
L 90.928818 52.727444 
L 91.041441 52.643633 
L 91.150545 52.36426 
L 91.25613 52.280449 
L 91.351156 52.112825 
L 91.446182 52.029014 
L 91.52361 51.86139 
L 91.66087 51.777578 
L 91.766455 51.609955 
L 91.805169 51.55408 
L 91.836844 51.442332 
L 91.960026 51.35852 
L 92.065611 51.246771 
L 92.104325 51.162959 
L 92.20287 50.967398 
L 92.290857 50.883587 
L 92.392922 50.632152 
L 92.452754 50.54834 
L 92.558338 50.324842 
L 92.635767 50.24103 
L 92.737832 50.073407 
L 92.801182 49.989595 
L 92.906767 49.766097 
L 92.959559 49.710223 
L 93.058104 49.347039 
L 93.174247 49.291164 
L 93.265754 49.039729 
L 93.410053 48.955917 
L 93.519157 48.900043 
L 93.578988 48.816231 
L 93.688092 48.592733 
L 93.744403 48.508922 
L 93.842949 48.369235 
L 93.923897 48.285424 
L 93.948533 48.145737 
L 94.078754 48.061926 
L 94.170261 47.950177 
L 94.314559 47.866365 
L 94.363832 47.726679 
L 94.560923 47.642867 
L 94.641871 47.475244 
L 94.796728 47.419369 
L 94.863599 47.30762 
L 95.05717 47.223809 
L 95.166274 47.084122 
L 95.229625 47.000311 
L 95.310573 46.860625 
L 95.377443 46.776813 
L 95.475988 46.49744 
L 95.549898 46.469503 
L 95.648443 46.273943 
L 95.817378 46.190131 
L 95.908885 45.99457 
L 96.060222 45.910758 
L 96.155248 45.826947 
L 96.366417 45.743135 
L 96.475521 45.603449 
L 96.514236 45.547574 
L 96.574067 45.463763 
L 96.771158 45.379951 
L 96.841547 45.268202 
L 96.985846 45.18439 
L 97.091431 45.044704 
L 97.306119 44.960892 
L 97.404665 44.849143 
L 97.492652 44.765332 
L 97.587678 44.541834 
L 97.791808 44.458022 
L 97.897392 44.346273 
L 98.017054 44.262461 
L 98.080405 44.122775 
L 98.196548 44.066901 
L 98.25286 43.927215 
L 98.425314 43.843403 
L 98.52386 43.731654 
L 98.58721 43.647842 
L 98.58721 43.619905 
L 98.914522 43.536093 
L 98.921561 43.480219 
L 99.333341 43.396407 
L 99.438925 43.312595 
L 99.741601 43.256721 
L 99.741601 43.200846 
L 100.040757 43.117035 
L 100.040757 43.089097 
L 100.308237 43.005286 
L 100.399744 42.809725 
L 100.6989 42.725913 
L 100.800965 42.670039 
L 101.10364 42.586227 
L 101.131796 42.530353 
L 101.346484 42.446541 
L 101.423913 42.390667 
L 101.899043 42.306855 
L 101.948316 42.25098 
L 102.25803 42.195106 
L 102.321381 42.111294 
L 102.757797 42.027482 
L 102.757797 41.999545 
L 103.289238 41.915733 
L 103.34555 41.831922 
L 103.996654 41.74811 
L 104.042407 41.692236 
L 104.179667 41.608424 
L 104.274693 41.524612 
L 104.57033 41.4408 
L 104.63368 41.301114 
L 104.982109 41.217303 
L 105.04546 41.133491 
L 105.407966 41.049679 
L 105.502992 40.854118 
L 105.911252 40.770307 
L 105.911252 40.742369 
L 106.175213 40.658558 
L 106.280798 40.574746 
L 106.865032 40.490934 
L 106.956538 40.407123 
L 107.667474 40.323311 
L 107.667474 40.295374 
L 108.040539 40.211562 
L 108.128526 40.071876 
L 108.659968 39.988064 
L 108.744435 39.904252 
L 109.152695 39.820441 
L 109.152695 39.792503 
L 109.476488 39.708692 
L 109.476488 39.680754 
L 109.891786 39.596943 
L 109.891786 39.569006 
L 110.74702 39.485194 
L 110.775176 39.429319 
L 111.239748 39.345508 
L 111.239748 39.31757 
L 111.299579 39.31757 
L 111.897891 39.233759 
L 111.964761 39.177884 
L 112.190008 39.094072 
L 112.190008 39.066135 
L 112.65106 38.982324 
L 112.65106 38.954386 
L 113.189541 38.870575 
L 113.288086 38.786763 
L 113.650593 38.702951 
L 113.650593 38.675014 
L 114.157398 38.591202 
L 114.220749 38.535328 
L 114.516386 38.451516 
L 114.614931 38.283893 
L 115.033749 38.200081 
L 115.033749 38.172144 
L 115.554633 38.088332 
L 115.554633 38.060395 
L 115.948815 37.976583 
L 115.994568 37.920708 
L 116.642153 37.836897 
L 116.642153 37.80896 
L 116.923711 37.725148 
L 116.923711 37.697211 
L 117.275659 37.613399 
L 117.328452 37.529587 
L 117.968997 37.445775 
L 117.968997 37.417838 
L 118.979089 37.334026 
L 119.070595 37.278152 
L 119.85544 37.19434 
L 119.883595 37.138466 
L 120.288336 37.054654 
L 120.348167 36.99878 
L 120.594531 36.914968 
L 120.594531 36.887031 
L 121.034466 36.803219 
L 121.034466 36.775282 
L 121.815791 36.69147 
L 121.907298 36.635596 
L 124.103454 36.551784 
L 124.103454 36.523847 
L 124.648974 36.440035 
L 124.684169 36.38416 
L 125.426779 36.300349 
L 125.426779 36.272411 
L 125.845598 36.1886 
L 125.852637 36.132725 
L 126.524858 36.048914 
L 126.524858 36.020976 
L 127.911534 35.937165 
L 127.911534 35.909227 
L 129.410833 35.825416 
L 129.410833 35.797478 
L 130.491314 35.713667 
L 130.540587 35.657792 
L 130.917171 35.573981 
L 130.92773 35.518106 
L 132.328484 35.434294 
L 132.328484 35.406357 
L 132.870484 35.322545 
L 132.947912 35.266671 
L 134.468329 35.182859 
L 134.468329 35.154922 
L 136.048576 35.07111 
L 136.111927 35.015236 
L 137.224083 34.931424 
L 137.224083 34.903487 
L 137.259278 34.903487 
L 139.314655 34.819675 
L 139.314655 34.791738 
L 140.286032 34.707926 
L 140.286032 34.679989 
L 141.070877 34.596177 
L 141.070877 34.56824 
L 141.366513 34.484428 
L 141.366513 34.456491 
L 141.985942 34.372679 
L 142.031695 34.316805 
L 143.189605 34.232993 
L 143.189605 34.205056 
L 144.893034 34.121244 
L 144.893034 34.093307 
L 151.196426 34.009495 
L 151.270335 33.953621 
L 153.019518 33.869809 
L 153.019518 33.841872 
L 154.825012 33.75806 
L 154.825012 33.730123 
L 156.355986 33.646311 
L 156.355986 33.618374 
L 159.854351 33.534562 
L 159.854351 33.506625 
L 161.951963 33.422813 
L 161.951963 33.394876 
L 163.986223 33.311064 
L 163.986223 33.283127 
L 167.379004 33.199315 
L 167.379004 33.171378 
L 173.376201 33.087566 
L 173.376201 33.059629 
L 178.514645 32.975817 
L 178.514645 32.94788 
L 183.452478 32.864068 
L 183.452478 32.836131 
L 194.591638 32.75232 
L 194.591638 32.724382 
L 199.899017 32.640571 
L 199.899017 32.612633 
L 207.7545 32.528822 
L 207.7545 32.500884 
L 250.343751 32.417073 
L 250.343751 32.389135 
L 282.578686 32.305324 
L 282.578686 32.277386 
L 339.196591 32.249449 
L 339.196591 32.249449 
" clip-path="url(#p72a32d4ba2)" style="fill: none; stroke: #800000; stroke-width: 1.5; stroke-linecap: square"/>
   </g>
   <g id="patch_3">
    <path d="M 62.03 278.567883 
L 62.03 20.52 
" style="fill: none; stroke: #000000; stroke-width: 0.8; stroke-linejoin: miter; stroke-linecap: square"/>
   </g>
   <g id="patch_4">
    <path d="M 352.395 278.567883 
L 352.395 20.52 
" style="fill: none; stroke: #000000; stroke-width: 0.8; stroke-linejoin: miter; stroke-linecap: square"/>
   </g>
   <g id="patch_5">
    <path d="M 62.03 278.567883 
L 352.395 278.567883 
" style="fill: none; stroke: #000000; stroke-width: 0.8; stroke-linejoin: miter; stroke-linecap: square"/>
   </g>
   <g id="patch_6">
    <path d="M 62.03 20.52 
L 352.395 20.52 
" style="fill: none; stroke: #000000; stroke-width: 0.8; stroke-linejoin: miter; stroke-linecap: square"/>
   </g>
   <g id="legend_1">
    <g id="patch_7">
     <path d="M 245.35875 272.567883 
L 343.995 272.567883 
Q 346.395 272.567883 346.395 270.167883 
L 346.395 253.754133 
Q 346.395 251.354133 343.995 251.354133 
L 245.35875 251.354133 
Q 242.95875 251.354133 242.95875 253.754133 
L 242.95875 270.167883 
Q 242.95875 272.567883 245.35875 272.567883 
z
" style="fill: #ffffff; opacity: 0.8; stroke: #cccccc; stroke-linejoin: miter"/>
    </g>
    <g id="line2d_14">
     <path d="M 247.75875 261.072258 
L 259.75875 261.072258 
L 271.75875 261.072258 
" style="fill: none; stroke: #800000; stroke-width: 1.5; stroke-linecap: square"/>
    </g>
    <g id="text_15">
     <!-- CLIPZyme -->
     <g transform="translate(281.35875 265.272258) scale(0.12 -0.12)">
      <defs>
       <path id="DejaVuSans-43" d="M 4122 4306 
L 4122 3641 
Q 3803 3938 3442 4084 
Q 3081 4231 2675 4231 
Q 1875 4231 1450 3742 
Q 1025 3253 1025 2328 
Q 1025 1406 1450 917 
Q 1875 428 2675 428 
Q 3081 428 3442 575 
Q 3803 722 4122 1019 
L 4122 359 
Q 3791 134 3420 21 
Q 3050 -91 2638 -91 
Q 1578 -91 968 557 
Q 359 1206 359 2328 
Q 359 3453 968 4101 
Q 1578 4750 2638 4750 
Q 3056 4750 3426 4639 
Q 3797 4528 4122 4306 
z
" transform="scale(0.015625)"/>
       <path id="DejaVuSans-4c" d="M 628 4666 
L 1259 4666 
L 1259 531 
L 3531 531 
L 3531 0 
L 628 0 
L 628 4666 
z
" transform="scale(0.015625)"/>
       <path id="DejaVuSans-49" d="M 628 4666 
L 1259 4666 
L 1259 0 
L 628 0 
L 628 4666 
z
" transform="scale(0.015625)"/>
       <path id="DejaVuSans-50" d="M 1259 4147 
L 1259 2394 
L 2053 2394 
Q 2494 2394 2734 2622 
Q 2975 2850 2975 3272 
Q 2975 3691 2734 3919 
Q 2494 4147 2053 4147 
L 1259 4147 
z
M 628 4666 
L 2053 4666 
Q 2838 4666 3239 4311 
Q 3641 3956 3641 3272 
Q 3641 2581 3239 2228 
Q 2838 1875 2053 1875 
L 1259 1875 
L 1259 0 
L 628 0 
L 628 4666 
z
" transform="scale(0.015625)"/>
       <path id="DejaVuSans-5a" d="M 359 4666 
L 4025 4666 
L 4025 4184 
L 1075 531 
L 4097 531 
L 4097 0 
L 288 0 
L 288 481 
L 3238 4134 
L 359 4134 
L 359 4666 
z
" transform="scale(0.015625)"/>
       <path id="DejaVuSans-79" d="M 2059 -325 
Q 1816 -950 1584 -1140 
Q 1353 -1331 966 -1331 
L 506 -1331 
L 506 -850 
L 844 -850 
Q 1081 -850 1212 -737 
Q 1344 -625 1503 -206 
L 1606 56 
L 191 3500 
L 800 3500 
L 1894 763 
L 2988 3500 
L 3597 3500 
L 2059 -325 
z
" transform="scale(0.015625)"/>
       <path id="DejaVuSans-6d" d="M 3328 2828 
Q 3544 3216 3844 3400 
Q 4144 3584 4550 3584 
Q 5097 3584 5394 3201 
Q 5691 2819 5691 2113 
L 5691 0 
L 5113 0 
L 5113 2094 
Q 5113 2597 4934 2840 
Q 4756 3084 4391 3084 
Q 3944 3084 3684 2787 
Q 3425 2491 3425 1978 
L 3425 0 
L 2847 0 
L 2847 2094 
Q 2847 2600 2669 2842 
Q 2491 3084 2119 3084 
Q 1678 3084 1418 2786 
Q 1159 2488 1159 1978 
L 1159 0 
L 581 0 
L 581 3500 
L 1159 3500 
L 1159 2956 
Q 1356 3278 1631 3431 
Q 1906 3584 2284 3584 
Q 2666 3584 2933 3390 
Q 3200 3197 3328 2828 
z
" transform="scale(0.015625)"/>
      </defs>
      <use xlink:href="#DejaVuSans-43"/>
      <use xlink:href="#DejaVuSans-4c" x="69.824219"/>
      <use xlink:href="#DejaVuSans-49" x="125.537109"/>
      <use xlink:href="#DejaVuSans-50" x="155.029297"/>
      <use xlink:href="#DejaVuSans-5a" x="215.332031"/>
      <use xlink:href="#DejaVuSans-79" x="283.837891"/>
      <use xlink:href="#DejaVuSans-6d" x="343.017578"/>
      <use xlink:href="#DejaVuSans-65" x="440.429688"/>
     </g>
    </g>
   </g>
  </g>
  <g id="axes_2">
   <g id="patch_8">
    <path d="M 414.515 278.567883 
L 704.88 278.567883 
L 704.88 20.52 
L 414.515 20.52 
z
" style="fill: #ffffff"/>
   </g>
   <g id="patch_9">
    <path d="M 427.713409 536.615766 
L 691.681591 536.615766 
L 691.681591 32.802871 
L 427.713409 32.802871 
z
" clip-path="url(#pcdb6fd7333)" style="fill: #800000"/>
   </g>
   <g id="matplotlib.axis_3">
    <g id="xtick_7">
     <g id="line2d_15">
      <g>
       <use xlink:href="#mae767f29d8" x="559.6975" y="278.567883" style="stroke: #000000; stroke-width: 0.8"/>
      </g>
     </g>
     <g id="text_16">
      <!-- CLIPZyme -->
      <g transform="translate(507.946343 342.782324) rotate(-45) scale(0.14 -0.14)">
       <use xlink:href="#DejaVuSans-43"/>
       <use xlink:href="#DejaVuSans-4c" x="69.824219"/>
       <use xlink:href="#DejaVuSans-49" x="125.537109"/>
       <use xlink:href="#DejaVuSans-50" x="155.029297"/>
       <use xlink:href="#DejaVuSans-5a" x="215.332031"/>
       <use xlink:href="#DejaVuSans-79" x="283.837891"/>
       <use xlink:href="#DejaVuSans-6d" x="343.017578"/>
       <use xlink:href="#DejaVuSans-65" x="440.429688"/>
      </g>
     </g>
    </g>
   </g>
   <g id="matplotlib.axis_4">
    <g id="ytick_7">
     <g id="line2d_16">
      <g>
       <use xlink:href="#m08f565ec9e" x="414.515" y="278.567883" style="stroke: #000000; stroke-width: 0.8"/>
      </g>
     </g>
     <g id="text_17">
      <!-- 0.5 -->
      <g transform="translate(385.250625 283.886789) scale(0.14 -0.14)">
       <defs>
        <path id="DejaVuSans-35" d="M 691 4666 
L 3169 4666 
L 3169 4134 
L 1269 4134 
L 1269 2991 
Q 1406 3038 1543 3061 
Q 1681 3084 1819 3084 
Q 2600 3084 3056 2656 
Q 3513 2228 3513 1497 
Q 3513 744 3044 326 
Q 2575 -91 1722 -91 
Q 1428 -91 1123 -41 
Q 819 9 494 109 
L 494 744 
Q 775 591 1075 516 
Q 1375 441 1709 441 
Q 2250 441 2565 725 
Q 2881 1009 2881 1497 
Q 2881 1984 2565 2268 
Q 2250 2553 1709 2553 
Q 1456 2553 1204 2497 
Q 953 2441 691 2322 
L 691 4666 
z
" transform="scale(0.015625)"/>
       </defs>
       <use xlink:href="#DejaVuSans-30"/>
       <use xlink:href="#DejaVuSans-2e" x="63.623047"/>
       <use xlink:href="#DejaVuSans-35" x="95.410156"/>
      </g>
     </g>
    </g>
    <g id="ytick_8">
     <g id="line2d_17">
      <g>
       <use xlink:href="#m08f565ec9e" x="414.515" y="226.958307" style="stroke: #000000; stroke-width: 0.8"/>
      </g>
     </g>
     <g id="text_18">
      <!-- 0.6 -->
      <g transform="translate(385.250625 232.277213) scale(0.14 -0.14)">
       <use xlink:href="#DejaVuSans-30"/>
       <use xlink:href="#DejaVuSans-2e" x="63.623047"/>
       <use xlink:href="#DejaVuSans-36" x="95.410156"/>
      </g>
     </g>
    </g>
    <g id="ytick_9">
     <g id="line2d_18">
      <g>
       <use xlink:href="#m08f565ec9e" x="414.515" y="175.34873" style="stroke: #000000; stroke-width: 0.8"/>
      </g>
     </g>
     <g id="text_19">
      <!-- 0.7 -->
      <g transform="translate(385.250625 180.667636) scale(0.14 -0.14)">
       <defs>
        <path id="DejaVuSans-37" d="M 525 4666 
L 3525 4666 
L 3525 4397 
L 1831 0 
L 1172 0 
L 2766 4134 
L 525 4134 
L 525 4666 
z
" transform="scale(0.015625)"/>
       </defs>
       <use xlink:href="#DejaVuSans-30"/>
       <use xlink:href="#DejaVuSans-2e" x="63.623047"/>
       <use xlink:href="#DejaVuSans-37" x="95.410156"/>
      </g>
     </g>
    </g>
    <g id="ytick_10">
     <g id="line2d_19">
      <g>
       <use xlink:href="#m08f565ec9e" x="414.515" y="123.739153" style="stroke: #000000; stroke-width: 0.8"/>
      </g>
     </g>
     <g id="text_20">
      <!-- 0.8 -->
      <g transform="translate(385.250625 129.05806) scale(0.14 -0.14)">
       <use xlink:href="#DejaVuSans-30"/>
       <use xlink:href="#DejaVuSans-2e" x="63.623047"/>
       <use xlink:href="#DejaVuSans-38" x="95.410156"/>
      </g>
     </g>
    </g>
    <g id="ytick_11">
     <g id="line2d_20">
      <g>
       <use xlink:href="#m08f565ec9e" x="414.515" y="72.129577" style="stroke: #000000; stroke-width: 0.8"/>
      </g>
     </g>
     <g id="text_21">
      <!-- 0.9 -->
      <g transform="translate(385.250625 77.448483) scale(0.14 -0.14)">
       <defs>
        <path id="DejaVuSans-39" d="M 703 97 
L 703 672 
Q 941 559 1184 500 
Q 1428 441 1663 441 
Q 2288 441 2617 861 
Q 2947 1281 2994 2138 
Q 2813 1869 2534 1725 
Q 2256 1581 1919 1581 
Q 1219 1581 811 2004 
Q 403 2428 403 3163 
Q 403 3881 828 4315 
Q 1253 4750 1959 4750 
Q 2769 4750 3195 4129 
Q 3622 3509 3622 2328 
Q 3622 1225 3098 567 
Q 2575 -91 1691 -91 
Q 1453 -91 1209 -44 
Q 966 3 703 97 
z
M 1959 2075 
Q 2384 2075 2632 2365 
Q 2881 2656 2881 3163 
Q 2881 3666 2632 3958 
Q 2384 4250 1959 4250 
Q 1534 4250 1286 3958 
Q 1038 3666 1038 3163 
Q 1038 2656 1286 2365 
Q 1534 2075 1959 2075 
z
" transform="scale(0.015625)"/>
       </defs>
       <use xlink:href="#DejaVuSans-30"/>
       <use xlink:href="#DejaVuSans-2e" x="63.623047"/>
       <use xlink:href="#DejaVuSans-39" x="95.410156"/>
      </g>
     </g>
    </g>
    <g id="ytick_12">
     <g id="line2d_21">
      <g>
       <use xlink:href="#m08f565ec9e" x="414.515" y="20.52" style="stroke: #000000; stroke-width: 0.8"/>
      </g>
     </g>
     <g id="text_22">
      <!-- 1.0 -->
      <g transform="translate(385.250625 25.838906) scale(0.14 -0.14)">
       <use xlink:href="#DejaVuSans-31"/>
       <use xlink:href="#DejaVuSans-2e" x="63.623047"/>
       <use xlink:href="#DejaVuSans-30" x="95.410156"/>
      </g>
     </g>
    </g>
    <g id="text_23">
     <!-- ROC-AUC -->
     <g transform="translate(378.339063 181.973629) rotate(-90) scale(0.14 -0.14)">
      <defs>
       <path id="DejaVuSans-52" d="M 2841 2188 
Q 3044 2119 3236 1894 
Q 3428 1669 3622 1275 
L 4263 0 
L 3584 0 
L 2988 1197 
Q 2756 1666 2539 1819 
Q 2322 1972 1947 1972 
L 1259 1972 
L 1259 0 
L 628 0 
L 628 4666 
L 2053 4666 
Q 2853 4666 3247 4331 
Q 3641 3997 3641 3322 
Q 3641 2881 3436 2590 
Q 3231 2300 2841 2188 
z
M 1259 4147 
L 1259 2491 
L 2053 2491 
Q 2509 2491 2742 2702 
Q 2975 2913 2975 3322 
Q 2975 3731 2742 3939 
Q 2509 4147 2053 4147 
L 1259 4147 
z
" transform="scale(0.015625)"/>
       <path id="DejaVuSans-4f" d="M 2522 4238 
Q 1834 4238 1429 3725 
Q 1025 3213 1025 2328 
Q 1025 1447 1429 934 
Q 1834 422 2522 422 
Q 3209 422 3611 934 
Q 4013 1447 4013 2328 
Q 4013 3213 3611 3725 
Q 3209 4238 2522 4238 
z
M 2522 4750 
Q 3503 4750 4090 4092 
Q 4678 3434 4678 2328 
Q 4678 1225 4090 567 
Q 3503 -91 2522 -91 
Q 1538 -91 948 565 
Q 359 1222 359 2328 
Q 359 3434 948 4092 
Q 1538 4750 2522 4750 
z
" transform="scale(0.015625)"/>
       <path id="DejaVuSans-2d" d="M 313 2009 
L 1997 2009 
L 1997 1497 
L 313 1497 
L 313 2009 
z
" transform="scale(0.015625)"/>
       <path id="DejaVuSans-41" d="M 2188 4044 
L 1331 1722 
L 3047 1722 
L 2188 4044 
z
M 1831 4666 
L 2547 4666 
L 4325 0 
L 3669 0 
L 3244 1197 
L 1141 1197 
L 716 0 
L 50 0 
L 1831 4666 
z
" transform="scale(0.015625)"/>
       <path id="DejaVuSans-55" d="M 556 4666 
L 1191 4666 
L 1191 1831 
Q 1191 1081 1462 751 
Q 1734 422 2344 422 
Q 2950 422 3222 751 
Q 3494 1081 3494 1831 
L 3494 4666 
L 4128 4666 
L 4128 1753 
Q 4128 841 3676 375 
Q 3225 -91 2344 -91 
Q 1459 -91 1007 375 
Q 556 841 556 1753 
L 556 4666 
z
" transform="scale(0.015625)"/>
      </defs>
      <use xlink:href="#DejaVuSans-52"/>
      <use xlink:href="#DejaVuSans-4f" x="69.482422"/>
      <use xlink:href="#DejaVuSans-43" x="148.193359"/>
      <use xlink:href="#DejaVuSans-2d" x="218.017578"/>
      <use xlink:href="#DejaVuSans-41" x="251.851562"/>
      <use xlink:href="#DejaVuSans-55" x="320.259766"/>
      <use xlink:href="#DejaVuSans-43" x="393.453125"/>
     </g>
    </g>
   </g>
   <g id="LineCollection_1">
    <path d="M 559.6975 33.214292 
L 559.6975 32.352415 
" clip-path="url(#pcdb6fd7333)" style="fill: none; stroke: #000000; stroke-width: 1.5"/>
   </g>
   <g id="patch_10">
    <path d="M 414.515 278.567883 
L 414.515 20.52 
" style="fill: none; stroke: #000000; stroke-width: 0.8; stroke-linejoin: miter; stroke-linecap: square"/>
   </g>
   <g id="patch_11">
    <path d="M 704.88 278.567883 
L 704.88 20.52 
" style="fill: none; stroke: #000000; stroke-width: 0.8; stroke-linejoin: miter; stroke-linecap: square"/>
   </g>
   <g id="patch_12">
    <path d="M 414.515 278.567883 
L 704.88 278.567883 
" style="fill: none; stroke: #000000; stroke-width: 0.8; stroke-linejoin: miter; stroke-linecap: square"/>
   </g>
   <g id="patch_13">
    <path d="M 414.515 20.52 
L 704.88 20.52 
" style="fill: none; stroke: #000000; stroke-width: 0.8; stroke-linejoin: miter; stroke-linecap: square"/>
   </g>
  </g>
 </g>
 <defs>
  <clipPath id="p72a32d4ba2">
   <rect x="62.03" y="20.52" width="290.365" height="258.047883"/>
  </clipPath>
  <clipPath id="pcdb6fd7333">
   <rect x="414.515" y="20.52" width="290.365" height="258.047883"/>
  </clipPath>
 </defs>
</svg>
