<?xml version="1.0" encoding="utf-8" standalone="no"?>
<!DOCTYPE svg PUBLIC "-//W3C//DTD SVG 1.1//EN"
  "http://www.w3.org/Graphics/SVG/1.1/DTD/svg11.dtd">
<svg xmlns:xlink="http://www.w3.org/1999/xlink" width="720pt" height="360pt" viewBox="0 0 720 360" xmlns="http://www.w3.org/2000/svg" version="1.1">
 <metadata>
  <rdf:RDF xmlns:dc="http://purl.org/dc/elements/1.1/" xmlns:cc="http://creativecommons.org/ns#" xmlns:rdf="http://www.w3.org/1999/02/22-rdf-syntax-ns#">
   <cc:Work>
    <dc:type rdf:resource="http://purl.org/dc/dcmitype/StillImage"/>
    <dc:date>2025-12-22T08:42:17.428191</dc:date>
    <dc:format>image/svg+xml</dc:format>
    <dc:creator>
     <cc:Agent>
      <dc:title>Matplotlib v3.8.4, https://matplotlib.org/</dc:title>
     </cc:Agent>
    </dc:creator>
   </cc:Work>
  </rdf:RDF>
 </metadata>
 <defs>
  <style type="text/css">*{stroke-linejoin: round; stroke-linecap: butt}</style>
 </defs>
 <g id="figure_1">
  <g id="patch_1">
   <path d="M 0 360 
L 720 360 
L 720 0 
L 0 0 
z
" style="fill: #ffffff"/>
  </g>
  <g id="axes_1">
   <g id="patch_2">
    <path d="M 62.03 278.567883 
L 352.395 278.567883 
L 352.395 20.52 
L 62.03 20.52 
z
" style="fill: #ffffff"/>
   </g>
   <g id="matplotlib.axis_1">
    <g id="xtick_1">
     <g id="line2d_1">
      <defs>
       <path id="ma79c63abc0" d="M 0 0 
L 0 3.5 
" style="stroke: #000000; stroke-width: 0.8"/>
      </defs>
      <g>
       <use xlink:href="#ma79c63abc0" x="75.228409" y="278.567883" style="stroke: #000000; stroke-width: 0.8"/>
      </g>
     </g>
     <g id="text_1">
      <!-- 0.0 -->
      <g transform="translate(64.096222 296.205696) scale(0.14 -0.14)">
       <defs>
        <path id="DejaVuSans-30" d="M 2034 4250 
Q 1547 4250 1301 3770 
Q 1056 3291 1056 2328 
Q 1056 1369 1301 889 
Q 1547 409 2034 409 
Q 2525 409 2770 889 
Q 3016 1369 3016 2328 
Q 3016 3291 2770 3770 
Q 2525 4250 2034 4250 
z
M 2034 4750 
Q 2819 4750 3233 4129 
Q 3647 3509 3647 2328 
Q 3647 1150 3233 529 
Q 2819 -91 2034 -91 
Q 1250 -91 836 529 
Q 422 1150 422 2328 
Q 422 3509 836 4129 
Q 1250 4750 2034 4750 
z
" transform="scale(0.015625)"/>
        <path id="DejaVuSans-2e" d="M 684 794 
L 1344 794 
L 1344 0 
L 684 0 
L 684 794 
z
" transform="scale(0.015625)"/>
       </defs>
       <use xlink:href="#DejaVuSans-30"/>
       <use xlink:href="#DejaVuSans-2e" x="63.623047"/>
       <use xlink:href="#DejaVuSans-30" x="95.410156"/>
      </g>
     </g>
    </g>
    <g id="xtick_2">
     <g id="line2d_2">
      <g>
       <use xlink:href="#ma79c63abc0" x="128.022045" y="278.567883" style="stroke: #000000; stroke-width: 0.8"/>
      </g>
     </g>
     <g id="text_2">
      <!-- 0.2 -->
      <g transform="translate(116.889858 296.205696) scale(0.14 -0.14)">
       <defs>
        <path id="DejaVuSans-32" d="M 1228 531 
L 3431 531 
L 3431 0 
L 469 0 
L 469 531 
Q 828 903 1448 1529 
Q 2069 2156 2228 2338 
Q 2531 2678 2651 2914 
Q 2772 3150 2772 3378 
Q 2772 3750 2511 3984 
Q 2250 4219 1831 4219 
Q 1534 4219 1204 4116 
Q 875 4013 500 3803 
L 500 4441 
Q 881 4594 1212 4672 
Q 1544 4750 1819 4750 
Q 2544 4750 2975 4387 
Q 3406 4025 3406 3419 
Q 3406 3131 3298 2873 
Q 3191 2616 2906 2266 
Q 2828 2175 2409 1742 
Q 1991 1309 1228 531 
z
" transform="scale(0.015625)"/>
       </defs>
       <use xlink:href="#DejaVuSans-30"/>
       <use xlink:href="#DejaVuSans-2e" x="63.623047"/>
       <use xlink:href="#DejaVuSans-32" x="95.410156"/>
      </g>
     </g>
    </g>
    <g id="xtick_3">
     <g id="line2d_3">
      <g>
       <use xlink:href="#ma79c63abc0" x="180.815682" y="278.567883" style="stroke: #000000; stroke-width: 0.8"/>
      </g>
     </g>
     <g id="text_3">
      <!-- 0.4 -->
      <g transform="translate(169.683494 296.205696) scale(0.14 -0.14)">
       <defs>
        <path id="DejaVuSans-34" d="M 2419 4116 
L 825 1625 
L 2419 1625 
L 2419 4116 
z
M 2253 4666 
L 3047 4666 
L 3047 1625 
L 3713 1625 
L 3713 1100 
L 3047 1100 
L 3047 0 
L 2419 0 
L 2419 1100 
L 313 1100 
L 313 1709 
L 2253 4666 
z
" transform="scale(0.015625)"/>
       </defs>
       <use xlink:href="#DejaVuSans-30"/>
       <use xlink:href="#DejaVuSans-2e" x="63.623047"/>
       <use xlink:href="#DejaVuSans-34" x="95.410156"/>
      </g>
     </g>
    </g>
    <g id="xtick_4">
     <g id="line2d_4">
      <g>
       <use xlink:href="#ma79c63abc0" x="233.609318" y="278.567883" style="stroke: #000000; stroke-width: 0.8"/>
      </g>
     </g>
     <g id="text_4">
      <!-- 0.6 -->
      <g transform="translate(222.477131 296.205696) scale(0.14 -0.14)">
       <defs>
        <path id="DejaVuSans-36" d="M 2113 2584 
Q 1688 2584 1439 2293 
Q 1191 2003 1191 1497 
Q 1191 994 1439 701 
Q 1688 409 2113 409 
Q 2538 409 2786 701 
Q 3034 994 3034 1497 
Q 3034 2003 2786 2293 
Q 2538 2584 2113 2584 
z
M 3366 4563 
L 3366 3988 
Q 3128 4100 2886 4159 
Q 2644 4219 2406 4219 
Q 1781 4219 1451 3797 
Q 1122 3375 1075 2522 
Q 1259 2794 1537 2939 
Q 1816 3084 2150 3084 
Q 2853 3084 3261 2657 
Q 3669 2231 3669 1497 
Q 3669 778 3244 343 
Q 2819 -91 2113 -91 
Q 1303 -91 875 529 
Q 447 1150 447 2328 
Q 447 3434 972 4092 
Q 1497 4750 2381 4750 
Q 2619 4750 2861 4703 
Q 3103 4656 3366 4563 
z
" transform="scale(0.015625)"/>
       </defs>
       <use xlink:href="#DejaVuSans-30"/>
       <use xlink:href="#DejaVuSans-2e" x="63.623047"/>
       <use xlink:href="#DejaVuSans-36" x="95.410156"/>
      </g>
     </g>
    </g>
    <g id="xtick_5">
     <g id="line2d_5">
      <g>
       <use xlink:href="#ma79c63abc0" x="286.402955" y="278.567883" style="stroke: #000000; stroke-width: 0.8"/>
      </g>
     </g>
     <g id="text_5">
      <!-- 0.8 -->
      <g transform="translate(275.270767 296.205696) scale(0.14 -0.14)">
       <defs>
        <path id="DejaVuSans-38" d="M 2034 2216 
Q 1584 2216 1326 1975 
Q 1069 1734 1069 1313 
Q 1069 891 1326 650 
Q 1584 409 2034 409 
Q 2484 409 2743 651 
Q 3003 894 3003 1313 
Q 3003 1734 2745 1975 
Q 2488 2216 2034 2216 
z
M 1403 2484 
Q 997 2584 770 2862 
Q 544 3141 544 3541 
Q 544 4100 942 4425 
Q 1341 4750 2034 4750 
Q 2731 4750 3128 4425 
Q 3525 4100 3525 3541 
Q 3525 3141 3298 2862 
Q 3072 2584 2669 2484 
Q 3125 2378 3379 2068 
Q 3634 1759 3634 1313 
Q 3634 634 3220 271 
Q 2806 -91 2034 -91 
Q 1263 -91 848 271 
Q 434 634 434 1313 
Q 434 1759 690 2068 
Q 947 2378 1403 2484 
z
M 1172 3481 
Q 1172 3119 1398 2916 
Q 1625 2713 2034 2713 
Q 2441 2713 2670 2916 
Q 2900 3119 2900 3481 
Q 2900 3844 2670 4047 
Q 2441 4250 2034 4250 
Q 1625 4250 1398 4047 
Q 1172 3844 1172 3481 
z
" transform="scale(0.015625)"/>
       </defs>
       <use xlink:href="#DejaVuSans-30"/>
       <use xlink:href="#DejaVuSans-2e" x="63.623047"/>
       <use xlink:href="#DejaVuSans-38" x="95.410156"/>
      </g>
     </g>
    </g>
    <g id="xtick_6">
     <g id="line2d_6">
      <g>
       <use xlink:href="#ma79c63abc0" x="339.196591" y="278.567883" style="stroke: #000000; stroke-width: 0.8"/>
      </g>
     </g>
     <g id="text_6">
      <!-- 1.0 -->
      <g transform="translate(328.064403 296.205696) scale(0.14 -0.14)">
       <defs>
        <path id="DejaVuSans-31" d="M 794 531 
L 1825 531 
L 1825 4091 
L 703 3866 
L 703 4441 
L 1819 4666 
L 2450 4666 
L 2450 531 
L 3481 531 
L 3481 0 
L 794 0 
L 794 531 
z
" transform="scale(0.015625)"/>
       </defs>
       <use xlink:href="#DejaVuSans-31"/>
       <use xlink:href="#DejaVuSans-2e" x="63.623047"/>
       <use xlink:href="#DejaVuSans-30" x="95.410156"/>
      </g>
     </g>
    </g>
    <g id="text_7">
     <!-- False positive rate -->
     <g transform="translate(143.511406 313.755071) scale(0.14 -0.14)">
      <defs>
       <path id="DejaVuSans-46" d="M 628 4666 
L 3309 4666 
L 3309 4134 
L 1259 4134 
L 1259 2759 
L 3109 2759 
L 3109 2228 
L 1259 2228 
L 1259 0 
L 628 0 
L 628 4666 
z
" transform="scale(0.015625)"/>
       <path id="DejaVuSans-61" d="M 2194 1759 
Q 1497 1759 1228 1600 
Q 959 1441 959 1056 
Q 959 750 1161 570 
Q 1363 391 1709 391 
Q 2188 391 2477 730 
Q 2766 1069 2766 1631 
L 2766 1759 
L 2194 1759 
z
M 3341 1997 
L 3341 0 
L 2766 0 
L 2766 531 
Q 2569 213 2275 61 
Q 1981 -91 1556 -91 
Q 1019 -91 701 211 
Q 384 513 384 1019 
Q 384 1609 779 1909 
Q 1175 2209 1959 2209 
L 2766 2209 
L 2766 2266 
Q 2766 2663 2505 2880 
Q 2244 3097 1772 3097 
Q 1472 3097 1187 3025 
Q 903 2953 641 2809 
L 641 3341 
Q 956 3463 1253 3523 
Q 1550 3584 1831 3584 
Q 2591 3584 2966 3190 
Q 3341 2797 3341 1997 
z
" transform="scale(0.015625)"/>
       <path id="DejaVuSans-6c" d="M 603 4863 
L 1178 4863 
L 1178 0 
L 603 0 
L 603 4863 
z
" transform="scale(0.015625)"/>
       <path id="DejaVuSans-73" d="M 2834 3397 
L 2834 2853 
Q 2591 2978 2328 3040 
Q 2066 3103 1784 3103 
Q 1356 3103 1142 2972 
Q 928 2841 928 2578 
Q 928 2378 1081 2264 
Q 1234 2150 1697 2047 
L 1894 2003 
Q 2506 1872 2764 1633 
Q 3022 1394 3022 966 
Q 3022 478 2636 193 
Q 2250 -91 1575 -91 
Q 1294 -91 989 -36 
Q 684 19 347 128 
L 347 722 
Q 666 556 975 473 
Q 1284 391 1588 391 
Q 1994 391 2212 530 
Q 2431 669 2431 922 
Q 2431 1156 2273 1281 
Q 2116 1406 1581 1522 
L 1381 1569 
Q 847 1681 609 1914 
Q 372 2147 372 2553 
Q 372 3047 722 3315 
Q 1072 3584 1716 3584 
Q 2034 3584 2315 3537 
Q 2597 3491 2834 3397 
z
" transform="scale(0.015625)"/>
       <path id="DejaVuSans-65" d="M 3597 1894 
L 3597 1613 
L 953 1613 
Q 991 1019 1311 708 
Q 1631 397 2203 397 
Q 2534 397 2845 478 
Q 3156 559 3463 722 
L 3463 178 
Q 3153 47 2828 -22 
Q 2503 -91 2169 -91 
Q 1331 -91 842 396 
Q 353 884 353 1716 
Q 353 2575 817 3079 
Q 1281 3584 2069 3584 
Q 2775 3584 3186 3129 
Q 3597 2675 3597 1894 
z
M 3022 2063 
Q 3016 2534 2758 2815 
Q 2500 3097 2075 3097 
Q 1594 3097 1305 2825 
Q 1016 2553 972 2059 
L 3022 2063 
z
" transform="scale(0.015625)"/>
       <path id="DejaVuSans-20" transform="scale(0.015625)"/>
       <path id="DejaVuSans-70" d="M 1159 525 
L 1159 -1331 
L 581 -1331 
L 581 3500 
L 1159 3500 
L 1159 2969 
Q 1341 3281 1617 3432 
Q 1894 3584 2278 3584 
Q 2916 3584 3314 3078 
Q 3713 2572 3713 1747 
Q 3713 922 3314 415 
Q 2916 -91 2278 -91 
Q 1894 -91 1617 61 
Q 1341 213 1159 525 
z
M 3116 1747 
Q 3116 2381 2855 2742 
Q 2594 3103 2138 3103 
Q 1681 3103 1420 2742 
Q 1159 2381 1159 1747 
Q 1159 1113 1420 752 
Q 1681 391 2138 391 
Q 2594 391 2855 752 
Q 3116 1113 3116 1747 
z
" transform="scale(0.015625)"/>
       <path id="DejaVuSans-6f" d="M 1959 3097 
Q 1497 3097 1228 2736 
Q 959 2375 959 1747 
Q 959 1119 1226 758 
Q 1494 397 1959 397 
Q 2419 397 2687 759 
Q 2956 1122 2956 1747 
Q 2956 2369 2687 2733 
Q 2419 3097 1959 3097 
z
M 1959 3584 
Q 2709 3584 3137 3096 
Q 3566 2609 3566 1747 
Q 3566 888 3137 398 
Q 2709 -91 1959 -91 
Q 1206 -91 779 398 
Q 353 888 353 1747 
Q 353 2609 779 3096 
Q 1206 3584 1959 3584 
z
" transform="scale(0.015625)"/>
       <path id="DejaVuSans-69" d="M 603 3500 
L 1178 3500 
L 1178 0 
L 603 0 
L 603 3500 
z
M 603 4863 
L 1178 4863 
L 1178 4134 
L 603 4134 
L 603 4863 
z
" transform="scale(0.015625)"/>
       <path id="DejaVuSans-74" d="M 1172 4494 
L 1172 3500 
L 2356 3500 
L 2356 3053 
L 1172 3053 
L 1172 1153 
Q 1172 725 1289 603 
Q 1406 481 1766 481 
L 2356 481 
L 2356 0 
L 1766 0 
Q 1100 0 847 248 
Q 594 497 594 1153 
L 594 3053 
L 172 3053 
L 172 3500 
L 594 3500 
L 594 4494 
L 1172 4494 
z
" transform="scale(0.015625)"/>
       <path id="DejaVuSans-76" d="M 191 3500 
L 800 3500 
L 1894 563 
L 2988 3500 
L 3597 3500 
L 2284 0 
L 1503 0 
L 191 3500 
z
" transform="scale(0.015625)"/>
       <path id="DejaVuSans-72" d="M 2631 2963 
Q 2534 3019 2420 3045 
Q 2306 3072 2169 3072 
Q 1681 3072 1420 2755 
Q 1159 2438 1159 1844 
L 1159 0 
L 581 0 
L 581 3500 
L 1159 3500 
L 1159 2956 
Q 1341 3275 1631 3429 
Q 1922 3584 2338 3584 
Q 2397 3584 2469 3576 
Q 2541 3569 2628 3553 
L 2631 2963 
z
" transform="scale(0.015625)"/>
      </defs>
      <use xlink:href="#DejaVuSans-46"/>
      <use xlink:href="#DejaVuSans-61" x="48.394531"/>
      <use xlink:href="#DejaVuSans-6c" x="109.673828"/>
      <use xlink:href="#DejaVuSans-73" x="137.457031"/>
      <use xlink:href="#DejaVuSans-65" x="189.556641"/>
      <use xlink:href="#DejaVuSans-20" x="251.080078"/>
      <use xlink:href="#DejaVuSans-70" x="282.867188"/>
      <use xlink:href="#DejaVuSans-6f" x="346.34375"/>
      <use xlink:href="#DejaVuSans-73" x="407.525391"/>
      <use xlink:href="#DejaVuSans-69" x="459.625"/>
      <use xlink:href="#DejaVuSans-74" x="487.408203"/>
      <use xlink:href="#DejaVuSans-69" x="526.617188"/>
      <use xlink:href="#DejaVuSans-76" x="554.400391"/>
      <use xlink:href="#DejaVuSans-65" x="613.580078"/>
      <use xlink:href="#DejaVuSans-20" x="675.103516"/>
      <use xlink:href="#DejaVuSans-72" x="706.890625"/>
      <use xlink:href="#DejaVuSans-61" x="748.003906"/>
      <use xlink:href="#DejaVuSans-74" x="809.283203"/>
      <use xlink:href="#DejaVuSans-65" x="848.492188"/>
     </g>
    </g>
   </g>
   <g id="matplotlib.axis_2">
    <g id="ytick_1">
     <g id="line2d_7">
      <defs>
       <path id="mdd8e79e349" d="M 0 0 
L -3.5 0 
" style="stroke: #000000; stroke-width: 0.8"/>
      </defs>
      <g>
       <use xlink:href="#mdd8e79e349" x="62.03" y="266.838434" style="stroke: #000000; stroke-width: 0.8"/>
      </g>
     </g>
     <g id="text_8">
      <!-- 0.0 -->
      <g transform="translate(32.765625 272.15734) scale(0.14 -0.14)">
       <use xlink:href="#DejaVuSans-30"/>
       <use xlink:href="#DejaVuSans-2e" x="63.623047"/>
       <use xlink:href="#DejaVuSans-30" x="95.410156"/>
      </g>
     </g>
    </g>
    <g id="ytick_2">
     <g id="line2d_8">
      <g>
       <use xlink:href="#mdd8e79e349" x="62.03" y="219.920637" style="stroke: #000000; stroke-width: 0.8"/>
      </g>
     </g>
     <g id="text_9">
      <!-- 0.2 -->
      <g transform="translate(32.765625 225.239543) scale(0.14 -0.14)">
       <use xlink:href="#DejaVuSans-30"/>
       <use xlink:href="#DejaVuSans-2e" x="63.623047"/>
       <use xlink:href="#DejaVuSans-32" x="95.410156"/>
      </g>
     </g>
    </g>
    <g id="ytick_3">
     <g id="line2d_9">
      <g>
       <use xlink:href="#mdd8e79e349" x="62.03" y="173.00284" style="stroke: #000000; stroke-width: 0.8"/>
      </g>
     </g>
     <g id="text_10">
      <!-- 0.4 -->
      <g transform="translate(32.765625 178.321746) scale(0.14 -0.14)">
       <use xlink:href="#DejaVuSans-30"/>
       <use xlink:href="#DejaVuSans-2e" x="63.623047"/>
       <use xlink:href="#DejaVuSans-34" x="95.410156"/>
      </g>
     </g>
    </g>
    <g id="ytick_4">
     <g id="line2d_10">
      <g>
       <use xlink:href="#mdd8e79e349" x="62.03" y="126.085043" style="stroke: #000000; stroke-width: 0.8"/>
      </g>
     </g>
     <g id="text_11">
      <!-- 0.6 -->
      <g transform="translate(32.765625 131.403949) scale(0.14 -0.14)">
       <use xlink:href="#DejaVuSans-30"/>
       <use xlink:href="#DejaVuSans-2e" x="63.623047"/>
       <use xlink:href="#DejaVuSans-36" x="95.410156"/>
      </g>
     </g>
    </g>
    <g id="ytick_5">
     <g id="line2d_11">
      <g>
       <use xlink:href="#mdd8e79e349" x="62.03" y="79.167246" style="stroke: #000000; stroke-width: 0.8"/>
      </g>
     </g>
     <g id="text_12">
      <!-- 0.8 -->
      <g transform="translate(32.765625 84.486152) scale(0.14 -0.14)">
       <use xlink:href="#DejaVuSans-30"/>
       <use xlink:href="#DejaVuSans-2e" x="63.623047"/>
       <use xlink:href="#DejaVuSans-38" x="95.410156"/>
      </g>
     </g>
    </g>
    <g id="ytick_6">
     <g id="line2d_12">
      <g>
       <use xlink:href="#mdd8e79e349" x="62.03" y="32.249449" style="stroke: #000000; stroke-width: 0.8"/>
      </g>
     </g>
     <g id="text_13">
      <!-- 1.0 -->
      <g transform="translate(32.765625 37.568355) scale(0.14 -0.14)">
       <use xlink:href="#DejaVuSans-31"/>
       <use xlink:href="#DejaVuSans-2e" x="63.623047"/>
       <use xlink:href="#DejaVuSans-30" x="95.410156"/>
      </g>
     </g>
    </g>
    <g id="text_14">
     <!-- True positive rate -->
     <g transform="translate(25.854063 210.533629) rotate(-90) scale(0.14 -0.14)">
      <defs>
       <path id="DejaVuSans-54" d="M -19 4666 
L 3928 4666 
L 3928 4134 
L 2272 4134 
L 2272 0 
L 1638 0 
L 1638 4134 
L -19 4134 
L -19 4666 
z
" transform="scale(0.015625)"/>
       <path id="DejaVuSans-75" d="M 544 1381 
L 544 3500 
L 1119 3500 
L 1119 1403 
Q 1119 906 1312 657 
Q 1506 409 1894 409 
Q 2359 409 2629 706 
Q 2900 1003 2900 1516 
L 2900 3500 
L 3475 3500 
L 3475 0 
L 2900 0 
L 2900 538 
Q 2691 219 2414 64 
Q 2138 -91 1772 -91 
Q 1169 -91 856 284 
Q 544 659 544 1381 
z
M 1991 3584 
L 1991 3584 
z
" transform="scale(0.015625)"/>
      </defs>
      <use xlink:href="#DejaVuSans-54"/>
      <use xlink:href="#DejaVuSans-72" x="46.333984"/>
      <use xlink:href="#DejaVuSans-75" x="87.447266"/>
      <use xlink:href="#DejaVuSans-65" x="150.826172"/>
      <use xlink:href="#DejaVuSans-20" x="212.349609"/>
      <use xlink:href="#DejaVuSans-70" x="244.136719"/>
      <use xlink:href="#DejaVuSans-6f" x="307.613281"/>
      <use xlink:href="#DejaVuSans-73" x="368.794922"/>
      <use xlink:href="#DejaVuSans-69" x="420.894531"/>
      <use xlink:href="#DejaVuSans-74" x="448.677734"/>
      <use xlink:href="#DejaVuSans-69" x="487.886719"/>
      <use xlink:href="#DejaVuSans-76" x="515.669922"/>
      <use xlink:href="#DejaVuSans-65" x="574.849609"/>
      <use xlink:href="#DejaVuSans-20" x="636.373047"/>
      <use xlink:href="#DejaVuSans-72" x="668.160156"/>
      <use xlink:href="#DejaVuSans-61" x="709.273438"/>
      <use xlink:href="#DejaVuSans-74" x="770.552734"/>
      <use xlink:href="#DejaVuSans-65" x="809.761719"/>
     </g>
    </g>
   </g>
   <g id="line2d_13">
    <path d="M 75.228409 266.838434 
L 75.932576 233.900431 
L 76.039458 224.122398 
L 76.152628 215.378042 
L 76.253223 211.159519 
L 76.297233 209.930281 
L 76.397829 205.208888 
L 76.410403 204.929515 
L 76.517286 200.459557 
L 76.586445 198.112829 
L 76.693327 193.503185 
L 76.863082 188.558294 
L 76.969964 184.563269 
L 77.013974 183.864838 
L 77.120857 179.590441 
L 77.127144 179.590441 
L 77.234027 174.924922 
L 77.240314 174.924922 
L 77.347196 169.672721 
L 77.353483 169.616847 
L 77.460366 164.951328 
L 77.47294 164.923391 
L 77.579823 161.542985 
L 77.58611 161.542985 
L 77.692992 158.777199 
L 77.705567 158.749261 
L 77.705567 158.693387 
L 77.812449 155.536479 
L 77.818736 155.536479 
L 77.919332 152.519257 
L 77.931906 152.519257 
L 78.038788 149.110914 
L 78.045076 149.110914 
L 78.151958 146.373065 
L 78.158245 146.289253 
L 78.208543 145.562885 
L 78.315425 142.852973 
L 78.321713 142.797099 
L 78.428595 138.187454 
L 78.441169 138.103643 
L 78.548052 134.443865 
L 78.573201 134.443865 
L 78.680083 132.125074 
L 78.68637 132.125074 
L 78.793253 128.772605 
L 78.805827 128.744668 
L 78.805827 128.688794 
L 78.91271 125.252513 
L 78.918997 125.252513 
L 79.019592 123.101346 
L 79.044741 123.017534 
L 79.151623 121.3413 
L 79.164198 121.285426 
L 79.27108 118.519639 
L 79.289942 118.519639 
L 79.396824 116.675781 
L 79.421973 116.619907 
L 79.528855 114.021744 
L 79.54143 113.965869 
L 79.648312 112.010263 
L 79.654599 112.010263 
L 79.761482 109.970844 
L 79.767769 109.970844 
L 79.862077 107.093309 
L 79.893513 107.009497 
L 80.000396 104.85833 
L 80.01297 104.830393 
L 80.119852 103.684966 
L 80.138714 103.629091 
L 80.239309 102.23223 
L 80.258171 102.148418 
L 80.358766 100.583933 
L 80.37134 100.583933 
L 80.478223 98.768012 
L 80.48451 98.768012 
L 80.585105 97.650523 
L 80.59768 97.650523 
L 80.704562 95.834602 
L 80.723424 95.834602 
L 80.824019 94.102493 
L 80.836593 94.102493 
L 80.943476 92.426259 
L 80.949763 92.426259 
L 81.056645 91.141146 
L 81.06922 91.113209 
L 81.176102 90.135406 
L 81.201251 90.051594 
L 81.308134 89.464912 
L 81.333282 89.3811 
L 81.42759 88.598858 
L 81.459026 88.542983 
L 81.565909 87.537243 
L 81.572196 87.537243 
L 81.672791 86.531502 
L 81.723089 86.503565 
L 81.829971 85.609573 
L 81.85512 85.525761 
L 81.962003 84.268586 
L 81.993439 84.212711 
L 82.081459 83.095222 
L 82.12547 83.01141 
L 82.213491 82.396791 
L 82.238639 82.396791 
L 82.345522 81.474862 
L 82.389532 81.39105 
L 82.48384 80.748494 
L 82.508989 80.692619 
L 82.615872 80.078 
L 82.64102 80.050063 
L 82.747903 79.407506 
L 82.773052 79.351632 
L 82.873647 78.848762 
L 82.886221 78.848762 
L 82.967955 78.038582 
L 83.005678 77.982707 
L 83.112561 77.423963 
L 83.143997 77.340151 
L 83.250879 76.725532 
L 83.263453 76.725532 
L 83.370336 75.943289 
L 83.514942 75.859477 
L 83.621824 75.105172 
L 83.672122 75.02136 
L 83.76643 73.624498 
L 83.867025 73.540687 
L 83.973907 73.20544 
L 84.024205 73.121628 
L 84.131087 72.814318 
L 84.149949 72.730507 
L 84.250544 72.367323 
L 84.269406 72.339385 
L 84.376288 72.032076 
L 84.426586 71.948264 
L 84.520894 71.361582 
L 84.571191 71.305707 
L 84.678074 70.719026 
L 84.696936 70.635214 
L 84.778669 70.076469 
L 84.841541 69.992657 
L 84.935849 69.573599 
L 84.973572 69.489787 
L 85.080455 69.070728 
L 85.143327 68.986917 
L 85.243922 68.484046 
L 85.262784 68.400235 
L 85.369666 67.785616 
L 85.432538 67.701804 
L 85.514272 67.450369 
L 85.564569 67.422431 
L 85.646303 67.03131 
L 85.734324 66.947498 
L 85.816057 66.556377 
L 85.872642 66.472565 
L 85.954376 65.857946 
L 86.054971 65.802072 
L 86.155566 65.383013 
L 86.256162 65.299201 
L 86.356757 64.796331 
L 86.419629 64.712519 
L 86.50765 64.433147 
L 86.557947 64.377273 
L 86.658543 63.986151 
L 86.696266 63.958214 
L 86.796861 63.399469 
L 86.853446 63.315658 
L 86.954041 62.756913 
L 87.004339 62.673101 
L 87.104934 62.421666 
L 87.142657 62.337854 
L 87.243252 61.918796 
L 87.255827 61.918796 
L 87.362709 61.360051 
L 87.438156 61.276239 
L 87.545038 60.745432 
L 87.595336 60.66162 
L 87.645633 60.493997 
L 87.746229 60.410185 
L 87.846824 60.15875 
L 87.897121 60.074938 
L 87.997717 59.711754 
L 88.029153 59.683817 
L 88.110886 59.34857 
L 88.173758 59.264758 
L 88.255492 59.125072 
L 88.30579 59.04126 
L 88.400098 58.789825 
L 88.456682 58.706013 
L 88.563565 58.454578 
L 88.601288 58.370766 
L 88.70817 58.147269 
L 88.745894 58.063457 
L 88.846489 57.839959 
L 88.903074 57.756147 
L 88.972233 57.560587 
L 89.066541 57.504712 
L 89.173423 57.197402 
L 89.330603 57.113591 
L 89.399763 56.806281 
L 89.51922 56.722469 
L 89.626102 56.554846 
L 89.670112 56.471034 
L 89.776995 56.191662 
L 89.846154 56.135787 
L 89.934175 55.772603 
L 89.978185 55.688792 
L 90.085068 55.437357 
L 90.103929 55.381482 
L 90.198237 54.962423 
L 90.298833 54.878612 
L 90.386853 54.655114 
L 90.456013 54.571302 
L 90.562895 54.375741 
L 90.657203 54.29193 
L 90.751511 54.040495 
L 90.826958 53.956683 
L 90.927553 53.677311 
L 90.965276 53.593499 
L 91.04701 53.258252 
L 91.09102 53.258252 
L 91.185328 52.97888 
L 91.260775 52.895068 
L 91.348795 52.727444 
L 91.455678 52.643633 
L 91.556273 52.392198 
L 91.669443 52.308386 
L 91.738602 52.196637 
L 91.839197 52.112825 
L 91.927218 51.86139 
L 92.071824 51.777578 
L 92.134696 51.665829 
L 92.235291 51.582018 
L 92.26044 51.442332 
L 92.405045 51.35852 
L 92.511928 51.274708 
L 92.549651 51.218834 
L 92.612523 51.079147 
L 92.675395 50.995336 
L 92.73198 50.883587 
L 92.794852 50.799775 
L 92.901734 50.632152 
L 92.970894 50.54834 
L 93.065202 50.324842 
L 93.15951 50.24103 
L 93.260105 50.073407 
L 93.31669 49.989595 
L 93.417285 49.877846 
L 93.442434 49.794034 
L 93.524167 49.598474 
L 93.587039 49.514662 
L 93.656199 49.319101 
L 93.756794 49.23529 
L 93.863676 49.011792 
L 94.046005 48.92798 
L 94.140313 48.760357 
L 94.228334 48.676545 
L 94.322642 48.480984 
L 94.435812 48.397173 
L 94.511258 48.145737 
L 94.637002 48.089863 
L 94.737597 47.92224 
L 94.850767 47.866365 
L 94.907352 47.726679 
L 95.102255 47.642867 
L 95.171414 47.475244 
L 95.341169 47.419369 
L 95.404041 47.30762 
L 95.592657 47.223809 
L 95.680678 47.084122 
L 95.74355 47.000311 
L 95.844145 46.776813 
L 95.913304 46.693001 
L 95.982463 46.469503 
L 96.045335 46.385691 
L 96.139643 46.273943 
L 96.315685 46.190131 
L 96.41628 46.050445 
L 96.523163 45.966633 
L 96.604896 45.882821 
L 96.824948 45.79901 
L 96.925544 45.743135 
L 97.051288 45.687261 
L 97.145596 45.463763 
L 97.346786 45.379951 
L 97.403371 45.268202 
L 97.547977 45.212328 
L 97.648572 45.044704 
L 97.85605 44.960892 
L 97.925209 44.849143 
L 98.000655 44.765332 
L 98.10125 44.541834 
L 98.315015 44.458022 
L 98.396749 44.402148 
L 98.516206 44.318336 
L 98.610514 44.17865 
L 98.729971 44.094838 
L 98.786556 43.927215 
L 98.962597 43.843403 
L 99.06948 43.675779 
L 99.295819 43.591968 
L 99.327255 43.536093 
L 99.6982 43.452282 
L 99.761072 43.396407 
L 100.037709 43.312595 
L 100.12573 43.256721 
L 100.534398 43.172909 
L 100.628706 43.089097 
L 100.867619 43.005286 
L 100.961927 42.837662 
L 101.175692 42.753851 
L 101.244852 42.697976 
L 101.609509 42.614164 
L 101.678668 42.530353 
L 101.917582 42.446541 
L 101.986741 42.390667 
L 102.401697 42.306855 
L 102.43942 42.25098 
L 102.785216 42.195106 
L 102.835514 42.111294 
L 103.237895 42.027482 
L 103.237895 41.999545 
L 103.753445 41.915733 
L 103.81003 41.831922 
L 104.413601 41.74811 
L 104.451325 41.692236 
L 104.589643 41.636361 
L 104.690238 41.496675 
L 104.97945 41.412863 
L 105.048609 41.301114 
L 105.388118 41.217303 
L 105.419554 41.133491 
L 105.784211 41.049679 
L 105.884807 40.854118 
L 106.318624 40.770307 
L 106.318624 40.742369 
L 106.576399 40.658558 
L 106.683281 40.574746 
L 107.274278 40.490934 
L 107.374874 40.407123 
L 108.053891 40.323311 
L 108.053891 40.295374 
L 108.468847 40.211562 
L 108.481421 40.099813 
L 109.185588 40.016001 
L 109.279896 39.904252 
L 109.644554 39.820441 
L 109.745149 39.764566 
L 110.059509 39.680754 
L 110.122381 39.596943 
L 110.851696 39.513131 
L 110.851696 39.485194 
L 111.51814 39.401382 
L 111.574725 39.31757 
L 112.234881 39.233759 
L 112.329189 39.177884 
L 112.555528 39.094072 
L 112.555528 39.066135 
L 112.989345 38.982324 
L 112.989345 38.954386 
L 113.643214 38.870575 
L 113.743809 38.786763 
L 114.089606 38.702951 
L 114.089606 38.675014 
L 114.674315 38.591202 
L 114.718326 38.535328 
L 114.957239 38.451516 
L 115.057835 38.283893 
L 115.422492 38.200081 
L 115.422492 38.172144 
L 115.925469 38.088332 
L 115.925469 38.060395 
L 116.346711 37.976583 
L 116.384434 37.920708 
L 117.006867 37.836897 
L 117.107463 37.753085 
L 117.553854 37.669273 
L 117.635588 37.585462 
L 118.050543 37.50165 
L 118.050543 37.473713 
L 118.893028 37.389901 
L 118.99991 37.334026 
L 119.792098 37.250215 
L 119.792098 37.222278 
L 120.502552 37.138466 
L 120.502552 37.110529 
L 120.728891 37.026717 
L 120.785476 36.942905 
L 121.18157 36.859093 
L 121.18157 36.803219 
L 121.986331 36.719407 
L 121.986331 36.69147 
L 122.954561 36.607658 
L 122.954561 36.579721 
L 124.777849 36.523847 
L 124.859583 36.412098 
L 125.104784 36.328286 
L 125.104784 36.300349 
L 126.03529 36.216537 
L 126.041577 36.132725 
L 126.670297 36.048914 
L 126.670297 36.020976 
L 128.07863 35.937165 
L 128.07863 35.909227 
L 129.593846 35.825416 
L 129.593846 35.797478 
L 130.668958 35.713667 
L 130.725542 35.657792 
L 131.039902 35.573981 
L 131.052477 35.518106 
L 132.504821 35.434294 
L 132.504821 35.406357 
L 133.04552 35.322545 
L 133.108392 35.266671 
L 134.5293 35.182859 
L 134.5293 35.154922 
L 136.05709 35.07111 
L 136.132536 35.015236 
L 137.264233 34.931424 
L 137.264233 34.903487 
L 139.301286 34.819675 
L 139.301286 34.791738 
L 140.275802 34.707926 
L 140.275802 34.679989 
L 141.061703 34.596177 
L 141.061703 34.56824 
L 141.325765 34.484428 
L 141.325765 34.456491 
L 141.885326 34.372679 
L 141.929337 34.316805 
L 143.035884 34.232993 
L 143.035884 34.205056 
L 144.82145 34.121244 
L 144.82145 34.093307 
L 151.228109 34.009495 
L 151.284693 33.953621 
L 153.070259 33.869809 
L 153.070259 33.841872 
L 154.937558 33.75806 
L 154.937558 33.730123 
L 156.459061 33.646311 
L 156.459061 33.618374 
L 159.822714 33.534562 
L 159.822714 33.506625 
L 161.922639 33.422813 
L 161.922639 33.394876 
L 163.984842 33.311064 
L 163.984842 33.283127 
L 167.329633 33.199315 
L 167.329633 33.171378 
L 173.409358 33.087566 
L 173.409358 33.059629 
L 178.646597 32.975817 
L 178.646597 32.94788 
L 183.431158 32.864068 
L 183.431158 32.836131 
L 194.37089 32.75232 
L 194.37089 32.724382 
L 199.608129 32.640571 
L 199.608129 32.612633 
L 207.643173 32.528822 
L 207.643173 32.500884 
L 250.238968 32.417073 
L 250.238968 32.389135 
L 282.486028 32.305324 
L 282.486028 32.277386 
L 339.196591 32.249449 
L 339.196591 32.249449 
" clip-path="url(#pf68ed881b1)" style="fill: none; stroke: #800000; stroke-width: 1.5; stroke-linecap: square"/>
   </g>
   <g id="patch_3">
    <path d="M 62.03 278.567883 
L 62.03 20.52 
" style="fill: none; stroke: #000000; stroke-width: 0.8; stroke-linejoin: miter; stroke-linecap: square"/>
   </g>
   <g id="patch_4">
    <path d="M 352.395 278.567883 
L 352.395 20.52 
" style="fill: none; stroke: #000000; stroke-width: 0.8; stroke-linejoin: miter; stroke-linecap: square"/>
   </g>
   <g id="patch_5">
    <path d="M 62.03 278.567883 
L 352.395 278.567883 
" style="fill: none; stroke: #000000; stroke-width: 0.8; stroke-linejoin: miter; stroke-linecap: square"/>
   </g>
   <g id="patch_6">
    <path d="M 62.03 20.52 
L 352.395 20.52 
" style="fill: none; stroke: #000000; stroke-width: 0.8; stroke-linejoin: miter; stroke-linecap: square"/>
   </g>
   <g id="legend_1">
    <g id="patch_7">
     <path d="M 245.35875 272.567883 
L 343.995 272.567883 
Q 346.395 272.567883 346.395 270.167883 
L 346.395 253.754133 
Q 346.395 251.354133 343.995 251.354133 
L 245.35875 251.354133 
Q 242.95875 251.354133 242.95875 253.754133 
L 242.95875 270.167883 
Q 242.95875 272.567883 245.35875 272.567883 
z
" style="fill: #ffffff; opacity: 0.8; stroke: #cccccc; stroke-linejoin: miter"/>
    </g>
    <g id="line2d_14">
     <path d="M 247.75875 261.072258 
L 259.75875 261.072258 
L 271.75875 261.072258 
" style="fill: none; stroke: #800000; stroke-width: 1.5; stroke-linecap: square"/>
    </g>
    <g id="text_15">
     <!-- CLIPZyme -->
     <g transform="translate(281.35875 265.272258) scale(0.12 -0.12)">
      <defs>
       <path id="DejaVuSans-43" d="M 4122 4306 
L 4122 3641 
Q 3803 3938 3442 4084 
Q 3081 4231 2675 4231 
Q 1875 4231 1450 3742 
Q 1025 3253 1025 2328 
Q 1025 1406 1450 917 
Q 1875 428 2675 428 
Q 3081 428 3442 575 
Q 3803 722 4122 1019 
L 4122 359 
Q 3791 134 3420 21 
Q 3050 -91 2638 -91 
Q 1578 -91 968 557 
Q 359 1206 359 2328 
Q 359 3453 968 4101 
Q 1578 4750 2638 4750 
Q 3056 4750 3426 4639 
Q 3797 4528 4122 4306 
z
" transform="scale(0.015625)"/>
       <path id="DejaVuSans-4c" d="M 628 4666 
L 1259 4666 
L 1259 531 
L 3531 531 
L 3531 0 
L 628 0 
L 628 4666 
z
" transform="scale(0.015625)"/>
       <path id="DejaVuSans-49" d="M 628 4666 
L 1259 4666 
L 1259 0 
L 628 0 
L 628 4666 
z
" transform="scale(0.015625)"/>
       <path id="DejaVuSans-50" d="M 1259 4147 
L 1259 2394 
L 2053 2394 
Q 2494 2394 2734 2622 
Q 2975 2850 2975 3272 
Q 2975 3691 2734 3919 
Q 2494 4147 2053 4147 
L 1259 4147 
z
M 628 4666 
L 2053 4666 
Q 2838 4666 3239 4311 
Q 3641 3956 3641 3272 
Q 3641 2581 3239 2228 
Q 2838 1875 2053 1875 
L 1259 1875 
L 1259 0 
L 628 0 
L 628 4666 
z
" transform="scale(0.015625)"/>
       <path id="DejaVuSans-5a" d="M 359 4666 
L 4025 4666 
L 4025 4184 
L 1075 531 
L 4097 531 
L 4097 0 
L 288 0 
L 288 481 
L 3238 4134 
L 359 4134 
L 359 4666 
z
" transform="scale(0.015625)"/>
       <path id="DejaVuSans-79" d="M 2059 -325 
Q 1816 -950 1584 -1140 
Q 1353 -1331 966 -1331 
L 506 -1331 
L 506 -850 
L 844 -850 
Q 1081 -850 1212 -737 
Q 1344 -625 1503 -206 
L 1606 56 
L 191 3500 
L 800 3500 
L 1894 763 
L 2988 3500 
L 3597 3500 
L 2059 -325 
z
" transform="scale(0.015625)"/>
       <path id="DejaVuSans-6d" d="M 3328 2828 
Q 3544 3216 3844 3400 
Q 4144 3584 4550 3584 
Q 5097 3584 5394 3201 
Q 5691 2819 5691 2113 
L 5691 0 
L 5113 0 
L 5113 2094 
Q 5113 2597 4934 2840 
Q 4756 3084 4391 3084 
Q 3944 3084 3684 2787 
Q 3425 2491 3425 1978 
L 3425 0 
L 2847 0 
L 2847 2094 
Q 2847 2600 2669 2842 
Q 2491 3084 2119 3084 
Q 1678 3084 1418 2786 
Q 1159 2488 1159 1978 
L 1159 0 
L 581 0 
L 581 3500 
L 1159 3500 
L 1159 2956 
Q 1356 3278 1631 3431 
Q 1906 3584 2284 3584 
Q 2666 3584 2933 3390 
Q 3200 3197 3328 2828 
z
" transform="scale(0.015625)"/>
      </defs>
      <use xlink:href="#DejaVuSans-43"/>
      <use xlink:href="#DejaVuSans-4c" x="69.824219"/>
      <use xlink:href="#DejaVuSans-49" x="125.537109"/>
      <use xlink:href="#DejaVuSans-50" x="155.029297"/>
      <use xlink:href="#DejaVuSans-5a" x="215.332031"/>
      <use xlink:href="#DejaVuSans-79" x="283.837891"/>
      <use xlink:href="#DejaVuSans-6d" x="343.017578"/>
      <use xlink:href="#DejaVuSans-65" x="440.429688"/>
     </g>
    </g>
   </g>
  </g>
  <g id="axes_2">
   <g id="patch_8">
    <path d="M 414.515 278.567883 
L 704.88 278.567883 
L 704.88 20.52 
L 414.515 20.52 
z
" style="fill: #ffffff"/>
   </g>
   <g id="patch_9">
    <path d="M 427.713409 536.615766 
L 691.681591 536.615766 
L 691.681591 33.14933 
L 427.713409 33.14933 
z
" clip-path="url(#pe145b330b1)" style="fill: #800000"/>
   </g>
   <g id="matplotlib.axis_3">
    <g id="xtick_7">
     <g id="line2d_15">
      <g>
       <use xlink:href="#ma79c63abc0" x="559.6975" y="278.567883" style="stroke: #000000; stroke-width: 0.8"/>
      </g>
     </g>
     <g id="text_16">
      <!-- CLIPZyme -->
      <g transform="translate(507.946343 342.782324) rotate(-45) scale(0.14 -0.14)">
       <use xlink:href="#DejaVuSans-43"/>
       <use xlink:href="#DejaVuSans-4c" x="69.824219"/>
       <use xlink:href="#DejaVuSans-49" x="125.537109"/>
       <use xlink:href="#DejaVuSans-50" x="155.029297"/>
       <use xlink:href="#DejaVuSans-5a" x="215.332031"/>
       <use xlink:href="#DejaVuSans-79" x="283.837891"/>
       <use xlink:href="#DejaVuSans-6d" x="343.017578"/>
       <use xlink:href="#DejaVuSans-65" x="440.429688"/>
      </g>
     </g>
    </g>
   </g>
   <g id="matplotlib.axis_4">
    <g id="ytick_7">
     <g id="line2d_16">
      <g>
       <use xlink:href="#mdd8e79e349" x="414.515" y="278.567883" style="stroke: #000000; stroke-width: 0.8"/>
      </g>
     </g>
     <g id="text_17">
      <!-- 0.5 -->
      <g transform="translate(385.250625 283.886789) scale(0.14 -0.14)">
       <defs>
        <path id="DejaVuSans-35" d="M 691 4666 
L 3169 4666 
L 3169 4134 
L 1269 4134 
L 1269 2991 
Q 1406 3038 1543 3061 
Q 1681 3084 1819 3084 
Q 2600 3084 3056 2656 
Q 3513 2228 3513 1497 
Q 3513 744 3044 326 
Q 2575 -91 1722 -91 
Q 1428 -91 1123 -41 
Q 819 9 494 109 
L 494 744 
Q 775 591 1075 516 
Q 1375 441 1709 441 
Q 2250 441 2565 725 
Q 2881 1009 2881 1497 
Q 2881 1984 2565 2268 
Q 2250 2553 1709 2553 
Q 1456 2553 1204 2497 
Q 953 2441 691 2322 
L 691 4666 
z
" transform="scale(0.015625)"/>
       </defs>
       <use xlink:href="#DejaVuSans-30"/>
       <use xlink:href="#DejaVuSans-2e" x="63.623047"/>
       <use xlink:href="#DejaVuSans-35" x="95.410156"/>
      </g>
     </g>
    </g>
    <g id="ytick_8">
     <g id="line2d_17">
      <g>
       <use xlink:href="#mdd8e79e349" x="414.515" y="226.958307" style="stroke: #000000; stroke-width: 0.8"/>
      </g>
     </g>
     <g id="text_18">
      <!-- 0.6 -->
      <g transform="translate(385.250625 232.277213) scale(0.14 -0.14)">
       <use xlink:href="#DejaVuSans-30"/>
       <use xlink:href="#DejaVuSans-2e" x="63.623047"/>
       <use xlink:href="#DejaVuSans-36" x="95.410156"/>
      </g>
     </g>
    </g>
    <g id="ytick_9">
     <g id="line2d_18">
      <g>
       <use xlink:href="#mdd8e79e349" x="414.515" y="175.34873" style="stroke: #000000; stroke-width: 0.8"/>
      </g>
     </g>
     <g id="text_19">
      <!-- 0.7 -->
      <g transform="translate(385.250625 180.667636) scale(0.14 -0.14)">
       <defs>
        <path id="DejaVuSans-37" d="M 525 4666 
L 3525 4666 
L 3525 4397 
L 1831 0 
L 1172 0 
L 2766 4134 
L 525 4134 
L 525 4666 
z
" transform="scale(0.015625)"/>
       </defs>
       <use xlink:href="#DejaVuSans-30"/>
       <use xlink:href="#DejaVuSans-2e" x="63.623047"/>
       <use xlink:href="#DejaVuSans-37" x="95.410156"/>
      </g>
     </g>
    </g>
    <g id="ytick_10">
     <g id="line2d_19">
      <g>
       <use xlink:href="#mdd8e79e349" x="414.515" y="123.739153" style="stroke: #000000; stroke-width: 0.8"/>
      </g>
     </g>
     <g id="text_20">
      <!-- 0.8 -->
      <g transform="translate(385.250625 129.05806) scale(0.14 -0.14)">
       <use xlink:href="#DejaVuSans-30"/>
       <use xlink:href="#DejaVuSans-2e" x="63.623047"/>
       <use xlink:href="#DejaVuSans-38" x="95.410156"/>
      </g>
     </g>
    </g>
    <g id="ytick_11">
     <g id="line2d_20">
      <g>
       <use xlink:href="#mdd8e79e349" x="414.515" y="72.129577" style="stroke: #000000; stroke-width: 0.8"/>
      </g>
     </g>
     <g id="text_21">
      <!-- 0.9 -->
      <g transform="translate(385.250625 77.448483) scale(0.14 -0.14)">
       <defs>
        <path id="DejaVuSans-39" d="M 703 97 
L 703 672 
Q 941 559 1184 500 
Q 1428 441 1663 441 
Q 2288 441 2617 861 
Q 2947 1281 2994 2138 
Q 2813 1869 2534 1725 
Q 2256 1581 1919 1581 
Q 1219 1581 811 2004 
Q 403 2428 403 3163 
Q 403 3881 828 4315 
Q 1253 4750 1959 4750 
Q 2769 4750 3195 4129 
Q 3622 3509 3622 2328 
Q 3622 1225 3098 567 
Q 2575 -91 1691 -91 
Q 1453 -91 1209 -44 
Q 966 3 703 97 
z
M 1959 2075 
Q 2384 2075 2632 2365 
Q 2881 2656 2881 3163 
Q 2881 3666 2632 3958 
Q 2384 4250 1959 4250 
Q 1534 4250 1286 3958 
Q 1038 3666 1038 3163 
Q 1038 2656 1286 2365 
Q 1534 2075 1959 2075 
z
" transform="scale(0.015625)"/>
       </defs>
       <use xlink:href="#DejaVuSans-30"/>
       <use xlink:href="#DejaVuSans-2e" x="63.623047"/>
       <use xlink:href="#DejaVuSans-39" x="95.410156"/>
      </g>
     </g>
    </g>
    <g id="ytick_12">
     <g id="line2d_21">
      <g>
       <use xlink:href="#mdd8e79e349" x="414.515" y="20.52" style="stroke: #000000; stroke-width: 0.8"/>
      </g>
     </g>
     <g id="text_22">
      <!-- 1.0 -->
      <g transform="translate(385.250625 25.838906) scale(0.14 -0.14)">
       <use xlink:href="#DejaVuSans-31"/>
       <use xlink:href="#DejaVuSans-2e" x="63.623047"/>
       <use xlink:href="#DejaVuSans-30" x="95.410156"/>
      </g>
     </g>
    </g>
    <g id="text_23">
     <!-- ROC-AUC -->
     <g transform="translate(378.339063 181.973629) rotate(-90) scale(0.14 -0.14)">
      <defs>
       <path id="DejaVuSans-52" d="M 2841 2188 
Q 3044 2119 3236 1894 
Q 3428 1669 3622 1275 
L 4263 0 
L 3584 0 
L 2988 1197 
Q 2756 1666 2539 1819 
Q 2322 1972 1947 1972 
L 1259 1972 
L 1259 0 
L 628 0 
L 628 4666 
L 2053 4666 
Q 2853 4666 3247 4331 
Q 3641 3997 3641 3322 
Q 3641 2881 3436 2590 
Q 3231 2300 2841 2188 
z
M 1259 4147 
L 1259 2491 
L 2053 2491 
Q 2509 2491 2742 2702 
Q 2975 2913 2975 3322 
Q 2975 3731 2742 3939 
Q 2509 4147 2053 4147 
L 1259 4147 
z
" transform="scale(0.015625)"/>
       <path id="DejaVuSans-4f" d="M 2522 4238 
Q 1834 4238 1429 3725 
Q 1025 3213 1025 2328 
Q 1025 1447 1429 934 
Q 1834 422 2522 422 
Q 3209 422 3611 934 
Q 4013 1447 4013 2328 
Q 4013 3213 3611 3725 
Q 3209 4238 2522 4238 
z
M 2522 4750 
Q 3503 4750 4090 4092 
Q 4678 3434 4678 2328 
Q 4678 1225 4090 567 
Q 3503 -91 2522 -91 
Q 1538 -91 948 565 
Q 359 1222 359 2328 
Q 359 3434 948 4092 
Q 1538 4750 2522 4750 
z
" transform="scale(0.015625)"/>
       <path id="DejaVuSans-2d" d="M 313 2009 
L 1997 2009 
L 1997 1497 
L 313 1497 
L 313 2009 
z
" transform="scale(0.015625)"/>
       <path id="DejaVuSans-41" d="M 2188 4044 
L 1331 1722 
L 3047 1722 
L 2188 4044 
z
M 1831 4666 
L 2547 4666 
L 4325 0 
L 3669 0 
L 3244 1197 
L 1141 1197 
L 716 0 
L 50 0 
L 1831 4666 
z
" transform="scale(0.015625)"/>
       <path id="DejaVuSans-55" d="M 556 4666 
L 1191 4666 
L 1191 1831 
Q 1191 1081 1462 751 
Q 1734 422 2344 422 
Q 2950 422 3222 751 
Q 3494 1081 3494 1831 
L 3494 4666 
L 4128 4666 
L 4128 1753 
Q 4128 841 3676 375 
Q 3225 -91 2344 -91 
Q 1459 -91 1007 375 
Q 556 841 556 1753 
L 556 4666 
z
" transform="scale(0.015625)"/>
      </defs>
      <use xlink:href="#DejaVuSans-52"/>
      <use xlink:href="#DejaVuSans-4f" x="69.482422"/>
      <use xlink:href="#DejaVuSans-43" x="148.193359"/>
      <use xlink:href="#DejaVuSans-2d" x="218.017578"/>
      <use xlink:href="#DejaVuSans-41" x="251.851562"/>
      <use xlink:href="#DejaVuSans-55" x="320.259766"/>
      <use xlink:href="#DejaVuSans-43" x="393.453125"/>
     </g>
    </g>
   </g>
   <g id="LineCollection_1">
    <path d="M 559.6975 33.638773 
L 559.6975 32.555948 
" clip-path="url(#pe145b330b1)" style="fill: none; stroke: #000000; stroke-width: 1.5"/>
   </g>
   <g id="patch_10">
    <path d="M 414.515 278.567883 
L 414.515 20.52 
" style="fill: none; stroke: #000000; stroke-width: 0.8; stroke-linejoin: miter; stroke-linecap: square"/>
   </g>
   <g id="patch_11">
    <path d="M 704.88 278.567883 
L 704.88 20.52 
" style="fill: none; stroke: #000000; stroke-width: 0.8; stroke-linejoin: miter; stroke-linecap: square"/>
   </g>
   <g id="patch_12">
    <path d="M 414.515 278.567883 
L 704.88 278.567883 
" style="fill: none; stroke: #000000; stroke-width: 0.8; stroke-linejoin: miter; stroke-linecap: square"/>
   </g>
   <g id="patch_13">
    <path d="M 414.515 20.52 
L 704.88 20.52 
" style="fill: none; stroke: #000000; stroke-width: 0.8; stroke-linejoin: miter; stroke-linecap: square"/>
   </g>
  </g>
 </g>
 <defs>
  <clipPath id="pf68ed881b1">
   <rect x="62.03" y="20.52" width="290.365" height="258.047883"/>
  </clipPath>
  <clipPath id="pe145b330b1">
   <rect x="414.515" y="20.52" width="290.365" height="258.047883"/>
  </clipPath>
 </defs>
</svg>
