<?xml version="1.0" encoding="utf-8" standalone="no"?>
<!DOCTYPE svg PUBLIC "-//W3C//DTD SVG 1.1//EN"
  "http://www.w3.org/Graphics/SVG/1.1/DTD/svg11.dtd">
<svg xmlns:xlink="http://www.w3.org/1999/xlink" width="720pt" height="360pt" viewBox="0 0 720 360" xmlns="http://www.w3.org/2000/svg" version="1.1">
 <metadata>
  <rdf:RDF xmlns:dc="http://purl.org/dc/elements/1.1/" xmlns:cc="http://creativecommons.org/ns#" xmlns:rdf="http://www.w3.org/1999/02/22-rdf-syntax-ns#">
   <cc:Work>
    <dc:type rdf:resource="http://purl.org/dc/dcmitype/StillImage"/>
    <dc:date>2025-12-17T12:22:32.083881</dc:date>
    <dc:format>image/svg+xml</dc:format>
    <dc:creator>
     <cc:Agent>
      <dc:title>Matplotlib v3.8.4, https://matplotlib.org/</dc:title>
     </cc:Agent>
    </dc:creator>
   </cc:Work>
  </rdf:RDF>
 </metadata>
 <defs>
  <style type="text/css">*{stroke-linejoin: round; stroke-linecap: butt}</style>
 </defs>
 <g id="figure_1">
  <g id="patch_1">
   <path d="M 0 360 
L 720 360 
L 720 0 
L 0 0 
z
" style="fill: #ffffff"/>
  </g>
  <g id="axes_1">
   <g id="patch_2">
    <path d="M 62.03 278.567883 
L 352.395 278.567883 
L 352.395 20.52 
L 62.03 20.52 
z
" style="fill: #ffffff"/>
   </g>
   <g id="matplotlib.axis_1">
    <g id="xtick_1">
     <g id="line2d_1">
      <defs>
       <path id="m6a2b3de8f6" d="M 0 0 
L 0 3.5 
" style="stroke: #000000; stroke-width: 0.8"/>
      </defs>
      <g>
       <use xlink:href="#m6a2b3de8f6" x="75.228409" y="278.567883" style="stroke: #000000; stroke-width: 0.8"/>
      </g>
     </g>
     <g id="text_1">
      <!-- 0.0 -->
      <g transform="translate(64.096222 296.205696) scale(0.14 -0.14)">
       <defs>
        <path id="DejaVuSans-30" d="M 2034 4250 
Q 1547 4250 1301 3770 
Q 1056 3291 1056 2328 
Q 1056 1369 1301 889 
Q 1547 409 2034 409 
Q 2525 409 2770 889 
Q 3016 1369 3016 2328 
Q 3016 3291 2770 3770 
Q 2525 4250 2034 4250 
z
M 2034 4750 
Q 2819 4750 3233 4129 
Q 3647 3509 3647 2328 
Q 3647 1150 3233 529 
Q 2819 -91 2034 -91 
Q 1250 -91 836 529 
Q 422 1150 422 2328 
Q 422 3509 836 4129 
Q 1250 4750 2034 4750 
z
" transform="scale(0.015625)"/>
        <path id="DejaVuSans-2e" d="M 684 794 
L 1344 794 
L 1344 0 
L 684 0 
L 684 794 
z
" transform="scale(0.015625)"/>
       </defs>
       <use xlink:href="#DejaVuSans-30"/>
       <use xlink:href="#DejaVuSans-2e" x="63.623047"/>
       <use xlink:href="#DejaVuSans-30" x="95.410156"/>
      </g>
     </g>
    </g>
    <g id="xtick_2">
     <g id="line2d_2">
      <g>
       <use xlink:href="#m6a2b3de8f6" x="128.022045" y="278.567883" style="stroke: #000000; stroke-width: 0.8"/>
      </g>
     </g>
     <g id="text_2">
      <!-- 0.2 -->
      <g transform="translate(116.889858 296.205696) scale(0.14 -0.14)">
       <defs>
        <path id="DejaVuSans-32" d="M 1228 531 
L 3431 531 
L 3431 0 
L 469 0 
L 469 531 
Q 828 903 1448 1529 
Q 2069 2156 2228 2338 
Q 2531 2678 2651 2914 
Q 2772 3150 2772 3378 
Q 2772 3750 2511 3984 
Q 2250 4219 1831 4219 
Q 1534 4219 1204 4116 
Q 875 4013 500 3803 
L 500 4441 
Q 881 4594 1212 4672 
Q 1544 4750 1819 4750 
Q 2544 4750 2975 4387 
Q 3406 4025 3406 3419 
Q 3406 3131 3298 2873 
Q 3191 2616 2906 2266 
Q 2828 2175 2409 1742 
Q 1991 1309 1228 531 
z
" transform="scale(0.015625)"/>
       </defs>
       <use xlink:href="#DejaVuSans-30"/>
       <use xlink:href="#DejaVuSans-2e" x="63.623047"/>
       <use xlink:href="#DejaVuSans-32" x="95.410156"/>
      </g>
     </g>
    </g>
    <g id="xtick_3">
     <g id="line2d_3">
      <g>
       <use xlink:href="#m6a2b3de8f6" x="180.815682" y="278.567883" style="stroke: #000000; stroke-width: 0.8"/>
      </g>
     </g>
     <g id="text_3">
      <!-- 0.4 -->
      <g transform="translate(169.683494 296.205696) scale(0.14 -0.14)">
       <defs>
        <path id="DejaVuSans-34" d="M 2419 4116 
L 825 1625 
L 2419 1625 
L 2419 4116 
z
M 2253 4666 
L 3047 4666 
L 3047 1625 
L 3713 1625 
L 3713 1100 
L 3047 1100 
L 3047 0 
L 2419 0 
L 2419 1100 
L 313 1100 
L 313 1709 
L 2253 4666 
z
" transform="scale(0.015625)"/>
       </defs>
       <use xlink:href="#DejaVuSans-30"/>
       <use xlink:href="#DejaVuSans-2e" x="63.623047"/>
       <use xlink:href="#DejaVuSans-34" x="95.410156"/>
      </g>
     </g>
    </g>
    <g id="xtick_4">
     <g id="line2d_4">
      <g>
       <use xlink:href="#m6a2b3de8f6" x="233.609318" y="278.567883" style="stroke: #000000; stroke-width: 0.8"/>
      </g>
     </g>
     <g id="text_4">
      <!-- 0.6 -->
      <g transform="translate(222.477131 296.205696) scale(0.14 -0.14)">
       <defs>
        <path id="DejaVuSans-36" d="M 2113 2584 
Q 1688 2584 1439 2293 
Q 1191 2003 1191 1497 
Q 1191 994 1439 701 
Q 1688 409 2113 409 
Q 2538 409 2786 701 
Q 3034 994 3034 1497 
Q 3034 2003 2786 2293 
Q 2538 2584 2113 2584 
z
M 3366 4563 
L 3366 3988 
Q 3128 4100 2886 4159 
Q 2644 4219 2406 4219 
Q 1781 4219 1451 3797 
Q 1122 3375 1075 2522 
Q 1259 2794 1537 2939 
Q 1816 3084 2150 3084 
Q 2853 3084 3261 2657 
Q 3669 2231 3669 1497 
Q 3669 778 3244 343 
Q 2819 -91 2113 -91 
Q 1303 -91 875 529 
Q 447 1150 447 2328 
Q 447 3434 972 4092 
Q 1497 4750 2381 4750 
Q 2619 4750 2861 4703 
Q 3103 4656 3366 4563 
z
" transform="scale(0.015625)"/>
       </defs>
       <use xlink:href="#DejaVuSans-30"/>
       <use xlink:href="#DejaVuSans-2e" x="63.623047"/>
       <use xlink:href="#DejaVuSans-36" x="95.410156"/>
      </g>
     </g>
    </g>
    <g id="xtick_5">
     <g id="line2d_5">
      <g>
       <use xlink:href="#m6a2b3de8f6" x="286.402955" y="278.567883" style="stroke: #000000; stroke-width: 0.8"/>
      </g>
     </g>
     <g id="text_5">
      <!-- 0.8 -->
      <g transform="translate(275.270767 296.205696) scale(0.14 -0.14)">
       <defs>
        <path id="DejaVuSans-38" d="M 2034 2216 
Q 1584 2216 1326 1975 
Q 1069 1734 1069 1313 
Q 1069 891 1326 650 
Q 1584 409 2034 409 
Q 2484 409 2743 651 
Q 3003 894 3003 1313 
Q 3003 1734 2745 1975 
Q 2488 2216 2034 2216 
z
M 1403 2484 
Q 997 2584 770 2862 
Q 544 3141 544 3541 
Q 544 4100 942 4425 
Q 1341 4750 2034 4750 
Q 2731 4750 3128 4425 
Q 3525 4100 3525 3541 
Q 3525 3141 3298 2862 
Q 3072 2584 2669 2484 
Q 3125 2378 3379 2068 
Q 3634 1759 3634 1313 
Q 3634 634 3220 271 
Q 2806 -91 2034 -91 
Q 1263 -91 848 271 
Q 434 634 434 1313 
Q 434 1759 690 2068 
Q 947 2378 1403 2484 
z
M 1172 3481 
Q 1172 3119 1398 2916 
Q 1625 2713 2034 2713 
Q 2441 2713 2670 2916 
Q 2900 3119 2900 3481 
Q 2900 3844 2670 4047 
Q 2441 4250 2034 4250 
Q 1625 4250 1398 4047 
Q 1172 3844 1172 3481 
z
" transform="scale(0.015625)"/>
       </defs>
       <use xlink:href="#DejaVuSans-30"/>
       <use xlink:href="#DejaVuSans-2e" x="63.623047"/>
       <use xlink:href="#DejaVuSans-38" x="95.410156"/>
      </g>
     </g>
    </g>
    <g id="xtick_6">
     <g id="line2d_6">
      <g>
       <use xlink:href="#m6a2b3de8f6" x="339.196591" y="278.567883" style="stroke: #000000; stroke-width: 0.8"/>
      </g>
     </g>
     <g id="text_6">
      <!-- 1.0 -->
      <g transform="translate(328.064403 296.205696) scale(0.14 -0.14)">
       <defs>
        <path id="DejaVuSans-31" d="M 794 531 
L 1825 531 
L 1825 4091 
L 703 3866 
L 703 4441 
L 1819 4666 
L 2450 4666 
L 2450 531 
L 3481 531 
L 3481 0 
L 794 0 
L 794 531 
z
" transform="scale(0.015625)"/>
       </defs>
       <use xlink:href="#DejaVuSans-31"/>
       <use xlink:href="#DejaVuSans-2e" x="63.623047"/>
       <use xlink:href="#DejaVuSans-30" x="95.410156"/>
      </g>
     </g>
    </g>
    <g id="text_7">
     <!-- False positive rate -->
     <g transform="translate(143.511406 313.755071) scale(0.14 -0.14)">
      <defs>
       <path id="DejaVuSans-46" d="M 628 4666 
L 3309 4666 
L 3309 4134 
L 1259 4134 
L 1259 2759 
L 3109 2759 
L 3109 2228 
L 1259 2228 
L 1259 0 
L 628 0 
L 628 4666 
z
" transform="scale(0.015625)"/>
       <path id="DejaVuSans-61" d="M 2194 1759 
Q 1497 1759 1228 1600 
Q 959 1441 959 1056 
Q 959 750 1161 570 
Q 1363 391 1709 391 
Q 2188 391 2477 730 
Q 2766 1069 2766 1631 
L 2766 1759 
L 2194 1759 
z
M 3341 1997 
L 3341 0 
L 2766 0 
L 2766 531 
Q 2569 213 2275 61 
Q 1981 -91 1556 -91 
Q 1019 -91 701 211 
Q 384 513 384 1019 
Q 384 1609 779 1909 
Q 1175 2209 1959 2209 
L 2766 2209 
L 2766 2266 
Q 2766 2663 2505 2880 
Q 2244 3097 1772 3097 
Q 1472 3097 1187 3025 
Q 903 2953 641 2809 
L 641 3341 
Q 956 3463 1253 3523 
Q 1550 3584 1831 3584 
Q 2591 3584 2966 3190 
Q 3341 2797 3341 1997 
z
" transform="scale(0.015625)"/>
       <path id="DejaVuSans-6c" d="M 603 4863 
L 1178 4863 
L 1178 0 
L 603 0 
L 603 4863 
z
" transform="scale(0.015625)"/>
       <path id="DejaVuSans-73" d="M 2834 3397 
L 2834 2853 
Q 2591 2978 2328 3040 
Q 2066 3103 1784 3103 
Q 1356 3103 1142 2972 
Q 928 2841 928 2578 
Q 928 2378 1081 2264 
Q 1234 2150 1697 2047 
L 1894 2003 
Q 2506 1872 2764 1633 
Q 3022 1394 3022 966 
Q 3022 478 2636 193 
Q 2250 -91 1575 -91 
Q 1294 -91 989 -36 
Q 684 19 347 128 
L 347 722 
Q 666 556 975 473 
Q 1284 391 1588 391 
Q 1994 391 2212 530 
Q 2431 669 2431 922 
Q 2431 1156 2273 1281 
Q 2116 1406 1581 1522 
L 1381 1569 
Q 847 1681 609 1914 
Q 372 2147 372 2553 
Q 372 3047 722 3315 
Q 1072 3584 1716 3584 
Q 2034 3584 2315 3537 
Q 2597 3491 2834 3397 
z
" transform="scale(0.015625)"/>
       <path id="DejaVuSans-65" d="M 3597 1894 
L 3597 1613 
L 953 1613 
Q 991 1019 1311 708 
Q 1631 397 2203 397 
Q 2534 397 2845 478 
Q 3156 559 3463 722 
L 3463 178 
Q 3153 47 2828 -22 
Q 2503 -91 2169 -91 
Q 1331 -91 842 396 
Q 353 884 353 1716 
Q 353 2575 817 3079 
Q 1281 3584 2069 3584 
Q 2775 3584 3186 3129 
Q 3597 2675 3597 1894 
z
M 3022 2063 
Q 3016 2534 2758 2815 
Q 2500 3097 2075 3097 
Q 1594 3097 1305 2825 
Q 1016 2553 972 2059 
L 3022 2063 
z
" transform="scale(0.015625)"/>
       <path id="DejaVuSans-20" transform="scale(0.015625)"/>
       <path id="DejaVuSans-70" d="M 1159 525 
L 1159 -1331 
L 581 -1331 
L 581 3500 
L 1159 3500 
L 1159 2969 
Q 1341 3281 1617 3432 
Q 1894 3584 2278 3584 
Q 2916 3584 3314 3078 
Q 3713 2572 3713 1747 
Q 3713 922 3314 415 
Q 2916 -91 2278 -91 
Q 1894 -91 1617 61 
Q 1341 213 1159 525 
z
M 3116 1747 
Q 3116 2381 2855 2742 
Q 2594 3103 2138 3103 
Q 1681 3103 1420 2742 
Q 1159 2381 1159 1747 
Q 1159 1113 1420 752 
Q 1681 391 2138 391 
Q 2594 391 2855 752 
Q 3116 1113 3116 1747 
z
" transform="scale(0.015625)"/>
       <path id="DejaVuSans-6f" d="M 1959 3097 
Q 1497 3097 1228 2736 
Q 959 2375 959 1747 
Q 959 1119 1226 758 
Q 1494 397 1959 397 
Q 2419 397 2687 759 
Q 2956 1122 2956 1747 
Q 2956 2369 2687 2733 
Q 2419 3097 1959 3097 
z
M 1959 3584 
Q 2709 3584 3137 3096 
Q 3566 2609 3566 1747 
Q 3566 888 3137 398 
Q 2709 -91 1959 -91 
Q 1206 -91 779 398 
Q 353 888 353 1747 
Q 353 2609 779 3096 
Q 1206 3584 1959 3584 
z
" transform="scale(0.015625)"/>
       <path id="DejaVuSans-69" d="M 603 3500 
L 1178 3500 
L 1178 0 
L 603 0 
L 603 3500 
z
M 603 4863 
L 1178 4863 
L 1178 4134 
L 603 4134 
L 603 4863 
z
" transform="scale(0.015625)"/>
       <path id="DejaVuSans-74" d="M 1172 4494 
L 1172 3500 
L 2356 3500 
L 2356 3053 
L 1172 3053 
L 1172 1153 
Q 1172 725 1289 603 
Q 1406 481 1766 481 
L 2356 481 
L 2356 0 
L 1766 0 
Q 1100 0 847 248 
Q 594 497 594 1153 
L 594 3053 
L 172 3053 
L 172 3500 
L 594 3500 
L 594 4494 
L 1172 4494 
z
" transform="scale(0.015625)"/>
       <path id="DejaVuSans-76" d="M 191 3500 
L 800 3500 
L 1894 563 
L 2988 3500 
L 3597 3500 
L 2284 0 
L 1503 0 
L 191 3500 
z
" transform="scale(0.015625)"/>
       <path id="DejaVuSans-72" d="M 2631 2963 
Q 2534 3019 2420 3045 
Q 2306 3072 2169 3072 
Q 1681 3072 1420 2755 
Q 1159 2438 1159 1844 
L 1159 0 
L 581 0 
L 581 3500 
L 1159 3500 
L 1159 2956 
Q 1341 3275 1631 3429 
Q 1922 3584 2338 3584 
Q 2397 3584 2469 3576 
Q 2541 3569 2628 3553 
L 2631 2963 
z
" transform="scale(0.015625)"/>
      </defs>
      <use xlink:href="#DejaVuSans-46"/>
      <use xlink:href="#DejaVuSans-61" x="48.394531"/>
      <use xlink:href="#DejaVuSans-6c" x="109.673828"/>
      <use xlink:href="#DejaVuSans-73" x="137.457031"/>
      <use xlink:href="#DejaVuSans-65" x="189.556641"/>
      <use xlink:href="#DejaVuSans-20" x="251.080078"/>
      <use xlink:href="#DejaVuSans-70" x="282.867188"/>
      <use xlink:href="#DejaVuSans-6f" x="346.34375"/>
      <use xlink:href="#DejaVuSans-73" x="407.525391"/>
      <use xlink:href="#DejaVuSans-69" x="459.625"/>
      <use xlink:href="#DejaVuSans-74" x="487.408203"/>
      <use xlink:href="#DejaVuSans-69" x="526.617188"/>
      <use xlink:href="#DejaVuSans-76" x="554.400391"/>
      <use xlink:href="#DejaVuSans-65" x="613.580078"/>
      <use xlink:href="#DejaVuSans-20" x="675.103516"/>
      <use xlink:href="#DejaVuSans-72" x="706.890625"/>
      <use xlink:href="#DejaVuSans-61" x="748.003906"/>
      <use xlink:href="#DejaVuSans-74" x="809.283203"/>
      <use xlink:href="#DejaVuSans-65" x="848.492188"/>
     </g>
    </g>
   </g>
   <g id="matplotlib.axis_2">
    <g id="ytick_1">
     <g id="line2d_7">
      <defs>
       <path id="m8036a187b9" d="M 0 0 
L -3.5 0 
" style="stroke: #000000; stroke-width: 0.8"/>
      </defs>
      <g>
       <use xlink:href="#m8036a187b9" x="62.03" y="266.838434" style="stroke: #000000; stroke-width: 0.8"/>
      </g>
     </g>
     <g id="text_8">
      <!-- 0.0 -->
      <g transform="translate(32.765625 272.15734) scale(0.14 -0.14)">
       <use xlink:href="#DejaVuSans-30"/>
       <use xlink:href="#DejaVuSans-2e" x="63.623047"/>
       <use xlink:href="#DejaVuSans-30" x="95.410156"/>
      </g>
     </g>
    </g>
    <g id="ytick_2">
     <g id="line2d_8">
      <g>
       <use xlink:href="#m8036a187b9" x="62.03" y="219.920637" style="stroke: #000000; stroke-width: 0.8"/>
      </g>
     </g>
     <g id="text_9">
      <!-- 0.2 -->
      <g transform="translate(32.765625 225.239543) scale(0.14 -0.14)">
       <use xlink:href="#DejaVuSans-30"/>
       <use xlink:href="#DejaVuSans-2e" x="63.623047"/>
       <use xlink:href="#DejaVuSans-32" x="95.410156"/>
      </g>
     </g>
    </g>
    <g id="ytick_3">
     <g id="line2d_9">
      <g>
       <use xlink:href="#m8036a187b9" x="62.03" y="173.00284" style="stroke: #000000; stroke-width: 0.8"/>
      </g>
     </g>
     <g id="text_10">
      <!-- 0.4 -->
      <g transform="translate(32.765625 178.321746) scale(0.14 -0.14)">
       <use xlink:href="#DejaVuSans-30"/>
       <use xlink:href="#DejaVuSans-2e" x="63.623047"/>
       <use xlink:href="#DejaVuSans-34" x="95.410156"/>
      </g>
     </g>
    </g>
    <g id="ytick_4">
     <g id="line2d_10">
      <g>
       <use xlink:href="#m8036a187b9" x="62.03" y="126.085043" style="stroke: #000000; stroke-width: 0.8"/>
      </g>
     </g>
     <g id="text_11">
      <!-- 0.6 -->
      <g transform="translate(32.765625 131.403949) scale(0.14 -0.14)">
       <use xlink:href="#DejaVuSans-30"/>
       <use xlink:href="#DejaVuSans-2e" x="63.623047"/>
       <use xlink:href="#DejaVuSans-36" x="95.410156"/>
      </g>
     </g>
    </g>
    <g id="ytick_5">
     <g id="line2d_11">
      <g>
       <use xlink:href="#m8036a187b9" x="62.03" y="79.167246" style="stroke: #000000; stroke-width: 0.8"/>
      </g>
     </g>
     <g id="text_12">
      <!-- 0.8 -->
      <g transform="translate(32.765625 84.486152) scale(0.14 -0.14)">
       <use xlink:href="#DejaVuSans-30"/>
       <use xlink:href="#DejaVuSans-2e" x="63.623047"/>
       <use xlink:href="#DejaVuSans-38" x="95.410156"/>
      </g>
     </g>
    </g>
    <g id="ytick_6">
     <g id="line2d_12">
      <g>
       <use xlink:href="#m8036a187b9" x="62.03" y="32.249449" style="stroke: #000000; stroke-width: 0.8"/>
      </g>
     </g>
     <g id="text_13">
      <!-- 1.0 -->
      <g transform="translate(32.765625 37.568355) scale(0.14 -0.14)">
       <use xlink:href="#DejaVuSans-31"/>
       <use xlink:href="#DejaVuSans-2e" x="63.623047"/>
       <use xlink:href="#DejaVuSans-30" x="95.410156"/>
      </g>
     </g>
    </g>
    <g id="text_14">
     <!-- True positive rate -->
     <g transform="translate(25.854063 210.533629) rotate(-90) scale(0.14 -0.14)">
      <defs>
       <path id="DejaVuSans-54" d="M -19 4666 
L 3928 4666 
L 3928 4134 
L 2272 4134 
L 2272 0 
L 1638 0 
L 1638 4134 
L -19 4134 
L -19 4666 
z
" transform="scale(0.015625)"/>
       <path id="DejaVuSans-75" d="M 544 1381 
L 544 3500 
L 1119 3500 
L 1119 1403 
Q 1119 906 1312 657 
Q 1506 409 1894 409 
Q 2359 409 2629 706 
Q 2900 1003 2900 1516 
L 2900 3500 
L 3475 3500 
L 3475 0 
L 2900 0 
L 2900 538 
Q 2691 219 2414 64 
Q 2138 -91 1772 -91 
Q 1169 -91 856 284 
Q 544 659 544 1381 
z
M 1991 3584 
L 1991 3584 
z
" transform="scale(0.015625)"/>
      </defs>
      <use xlink:href="#DejaVuSans-54"/>
      <use xlink:href="#DejaVuSans-72" x="46.333984"/>
      <use xlink:href="#DejaVuSans-75" x="87.447266"/>
      <use xlink:href="#DejaVuSans-65" x="150.826172"/>
      <use xlink:href="#DejaVuSans-20" x="212.349609"/>
      <use xlink:href="#DejaVuSans-70" x="244.136719"/>
      <use xlink:href="#DejaVuSans-6f" x="307.613281"/>
      <use xlink:href="#DejaVuSans-73" x="368.794922"/>
      <use xlink:href="#DejaVuSans-69" x="420.894531"/>
      <use xlink:href="#DejaVuSans-74" x="448.677734"/>
      <use xlink:href="#DejaVuSans-69" x="487.886719"/>
      <use xlink:href="#DejaVuSans-76" x="515.669922"/>
      <use xlink:href="#DejaVuSans-65" x="574.849609"/>
      <use xlink:href="#DejaVuSans-20" x="636.373047"/>
      <use xlink:href="#DejaVuSans-72" x="668.160156"/>
      <use xlink:href="#DejaVuSans-61" x="709.273438"/>
      <use xlink:href="#DejaVuSans-74" x="770.552734"/>
      <use xlink:href="#DejaVuSans-65" x="809.761719"/>
     </g>
    </g>
   </g>
   <g id="line2d_13">
    <path d="M 75.228409 266.838434 
L 75.993352 232.69913 
L 76.08766 224.513519 
L 76.108617 223.619527 
L 76.213404 212.556381 
L 76.318191 209.678846 
L 76.339148 207.220369 
L 76.443935 203.029783 
L 76.464892 202.359289 
L 76.569679 199.146507 
L 76.580158 199.146507 
L 76.580158 199.11857 
L 76.684944 195.179419 
L 76.71638 194.06193 
L 76.810688 190.681524 
L 76.842124 190.681524 
L 76.946911 187.664302 
L 76.95739 187.356993 
L 77.062176 183.808964 
L 77.072655 183.194344 
L 77.177442 177.57896 
L 77.18792 177.243713 
L 77.292707 173.192813 
L 77.303186 173.02519 
L 77.397494 167.549491 
L 77.418451 167.549491 
L 77.418451 167.493617 
L 77.523238 164.923391 
L 77.533717 164.923391 
L 77.638503 162.269353 
L 77.648982 162.269353 
L 77.648982 162.185542 
L 77.753769 158.637512 
L 77.764247 158.637512 
L 77.869034 155.536479 
L 77.879513 155.536479 
L 77.984299 152.156073 
L 78.005257 152.072262 
L 78.110043 149.585847 
L 78.120522 149.585847 
L 78.225309 145.981944 
L 78.246266 145.926069 
L 78.351053 143.244095 
L 78.361531 143.244095 
L 78.466318 138.187454 
L 78.487276 138.103643 
L 78.592062 134.443865 
L 78.61302 134.443865 
L 78.717806 132.125074 
L 78.728285 132.125074 
L 78.822593 128.772605 
L 78.84355 128.772605 
L 78.84355 128.688794 
L 78.948337 125.3922 
L 78.958816 125.3922 
L 79.063602 123.129283 
L 79.095038 123.045472 
L 79.199825 121.397175 
L 79.210304 121.397175 
L 79.304612 118.519639 
L 79.336048 118.519639 
L 79.440835 116.033225 
L 79.451313 116.033225 
L 79.5561 113.714434 
L 79.566579 113.714434 
L 79.671365 111.563267 
L 79.681844 111.563267 
L 79.786631 110.082593 
L 79.797109 110.082593 
L 79.901896 107.093309 
L 79.943811 107.009497 
L 80.048597 104.746581 
L 80.069555 104.662769 
L 80.174341 103.629091 
L 80.195299 103.629091 
L 80.300085 101.477924 
L 80.321043 101.477924 
L 80.42583 99.689941 
L 80.446787 99.606129 
L 80.551574 97.482899 
L 80.562052 97.482899 
L 80.666839 96.030163 
L 80.677318 96.030163 
L 80.782104 94.214242 
L 80.792583 94.214242 
L 80.89737 92.202761 
L 80.907848 92.202761 
L 81.002156 91.029397 
L 81.044071 90.945586 
L 81.148858 90.023657 
L 81.180294 89.99572 
L 81.28508 89.464912 
L 81.316516 89.3811 
L 81.410825 88.598858 
L 81.452739 88.542983 
L 81.557526 87.537243 
L 81.568005 87.537243 
L 81.662313 86.503565 
L 81.693749 86.503565 
L 81.788057 85.693385 
L 81.819493 85.609573 
L 81.913801 84.380335 
L 81.955715 84.352397 
L 82.060502 83.067285 
L 82.081459 83.01141 
L 82.186246 82.257105 
L 82.196725 82.257105 
L 82.301511 81.39105 
L 82.364384 81.335176 
L 82.458692 80.273561 
L 82.490128 80.189749 
L 82.594914 79.519255 
L 82.605393 79.519255 
L 82.699701 78.904636 
L 82.752094 78.848762 
L 82.846402 78.038582 
L 82.898796 77.982707 
L 83.003582 77.4519 
L 83.035018 77.423963 
L 83.129326 76.753469 
L 83.18172 76.725532 
L 83.286506 75.859477 
L 83.401772 75.859477 
L 83.49608 75.384544 
L 83.548473 75.300732 
L 83.65326 74.322929 
L 83.674217 74.322929 
L 83.747568 73.568624 
L 83.862833 73.512749 
L 83.957141 73.177502 
L 83.999056 73.093691 
L 84.103843 72.618758 
L 84.145757 72.562883 
L 84.229587 72.171762 
L 84.292459 72.08795 
L 84.397246 71.417456 
L 84.428682 71.361582 
L 84.512511 70.746963 
L 84.554426 70.719026 
L 84.638255 70.076469 
L 84.68017 70.048532 
L 84.784956 69.489787 
L 84.816392 69.433913 
L 84.921179 68.986917 
L 84.942136 68.931042 
L 85.046923 68.1488 
L 85.057402 68.1488 
L 85.15171 67.590055 
L 85.204103 67.562118 
L 85.30889 67.087185 
L 85.361283 67.03131 
L 85.455591 66.556377 
L 85.549899 66.472565 
L 85.644207 65.857946 
L 85.717558 65.830009 
L 85.811866 65.327139 
L 85.853781 65.299201 
L 85.958567 64.768394 
L 86.000482 64.684582 
L 86.09479 64.433147 
L 86.157662 64.40521 
L 86.262449 63.958214 
L 86.293885 63.874402 
L 86.377714 63.399469 
L 86.430108 63.315658 
L 86.534894 62.756913 
L 86.576809 62.673101 
L 86.681596 62.47754 
L 86.702553 62.421666 
L 86.754946 62.170231 
L 86.838776 62.114356 
L 86.933084 61.555612 
L 86.985477 61.4718 
L 87.090264 61.276239 
L 87.111221 61.192427 
L 87.216008 60.745432 
L 87.27888 60.66162 
L 87.383667 60.410185 
L 87.457017 60.326373 
L 87.561804 59.963189 
L 87.572283 59.963189 
L 87.656112 59.600005 
L 87.729463 59.572068 
L 87.834249 59.180946 
L 87.959993 59.097135 
L 88.054301 58.733951 
L 88.127652 58.650139 
L 88.232439 58.426641 
L 88.263875 58.370766 
L 88.368662 58.03552 
L 88.431534 58.007582 
L 88.525842 57.700273 
L 88.599192 57.616461 
L 88.683022 57.504712 
L 88.77733 57.4209 
L 88.882116 57.141528 
L 88.976424 57.113591 
L 89.049775 56.806281 
L 89.16504 56.750407 
L 89.269827 56.526909 
L 89.353657 56.443097 
L 89.447965 56.191662 
L 89.542273 56.135787 
L 89.647059 55.744666 
L 89.688974 55.660854 
L 89.793761 55.437357 
L 89.814718 55.437357 
L 89.888069 54.934486 
L 89.971898 54.850675 
L 90.055727 54.655114 
L 90.129078 54.655114 
L 90.233865 54.375741 
L 90.296737 54.29193 
L 90.34913 54.096369 
L 90.464396 54.040495 
L 90.548225 53.816997 
L 90.600618 53.789059 
L 90.694926 53.370001 
L 90.726362 53.286189 
L 90.778756 53.118566 
L 90.862585 53.034754 
L 90.967372 52.867131 
L 91.051201 52.811256 
L 91.124552 52.643633 
L 91.197903 52.559821 
L 91.302689 52.36426 
L 91.396997 52.280449 
L 91.459869 52.196637 
L 91.585613 52.112825 
L 91.679921 51.833453 
L 91.795187 51.749641 
L 91.899973 51.637892 
L 91.941888 51.55408 
L 91.962845 51.442332 
L 92.120026 51.35852 
L 92.214334 51.246771 
L 92.256248 51.218834 
L 92.31912 51.079147 
L 92.413428 50.995336 
L 92.4763 50.883587 
L 92.528694 50.883587 
L 92.63348 50.632152 
L 92.696352 50.54834 
L 92.780182 50.380716 
L 92.853532 50.324842 
L 92.916404 50.185156 
L 93.042148 50.101344 
L 93.136457 49.905783 
L 93.178371 49.877846 
L 93.283158 49.598474 
L 93.34603 49.514662 
L 93.429859 49.319101 
L 93.513689 49.23529 
L 93.618475 49.011792 
L 93.807091 48.92798 
L 93.869963 48.788294 
L 94.006186 48.704482 
L 94.079537 48.536859 
L 94.184324 48.480984 
L 94.28911 48.285424 
L 94.299589 48.285424 
L 94.299589 48.145737 
L 94.435812 48.089863 
L 94.540598 47.894302 
L 94.60347 47.810491 
L 94.708257 47.698742 
L 94.84448 47.670804 
L 94.907352 47.475244 
L 95.054053 47.419369 
L 95.106447 47.30762 
L 95.347456 47.223809 
L 95.441764 47.084122 
L 95.483679 47.084122 
L 95.588465 46.748876 
L 95.640859 46.665064 
L 95.735167 46.385691 
L 95.839953 46.30188 
L 95.892347 46.246005 
L 95.986655 46.190131 
L 96.080963 46.050445 
L 96.18575 45.966633 
L 96.280058 45.882821 
L 96.468674 45.79901 
L 96.468674 45.771072 
L 96.688726 45.687261 
L 96.783034 45.463763 
L 97.024043 45.379951 
L 97.107873 45.268202 
L 97.254574 45.212328 
L 97.359361 45.044704 
L 97.579413 44.960892 
L 97.631806 44.849143 
L 97.736593 44.765332 
L 97.830901 44.569771 
L 98.040474 44.485959 
L 98.082389 44.430085 
L 98.250048 44.346273 
L 98.333877 44.206587 
L 98.480578 44.122775 
L 98.553929 43.927215 
L 98.732066 43.843403 
L 98.836853 43.675779 
L 99.140735 43.591968 
L 99.193128 43.536093 
L 99.538924 43.452282 
L 99.591317 43.396407 
L 99.832327 43.312595 
L 99.916156 43.256721 
L 100.240995 43.172909 
L 100.324824 43.089097 
L 100.576312 43.005286 
L 100.628706 42.809725 
L 100.901151 42.725913 
L 100.901151 42.697976 
L 101.215511 42.614164 
L 101.299341 42.530353 
L 101.477478 42.446541 
L 101.550829 42.390667 
L 102.01189 42.306855 
L 102.053805 42.25098 
L 102.420558 42.195106 
L 102.48343 42.111294 
L 102.871141 42.027482 
L 102.871141 41.999545 
L 103.405553 41.915733 
L 103.468425 41.831922 
L 104.118103 41.74811 
L 104.22289 41.636361 
L 104.317198 41.580487 
L 104.338155 41.496675 
L 104.631558 41.412863 
L 104.69443 41.301114 
L 105.00879 41.217303 
L 105.113577 41.105554 
L 105.365065 41.049679 
L 105.417458 40.909993 
L 105.658467 40.826181 
L 105.658467 40.798244 
L 106.140486 40.714432 
L 106.19288 40.630621 
L 106.570112 40.546809 
L 106.653941 40.490934 
L 107.041652 40.407123 
L 107.041652 40.379185 
L 107.838031 40.295374 
L 107.838031 40.267436 
L 108.110476 40.183625 
L 108.215263 40.071876 
L 108.833505 39.988064 
L 108.864941 39.904252 
L 109.221215 39.820441 
L 109.221215 39.792503 
L 109.556533 39.708692 
L 109.640362 39.652817 
L 110.153817 39.569006 
L 110.153817 39.541068 
L 110.740623 39.457257 
L 110.740623 39.429319 
L 111.191205 39.345508 
L 111.191205 39.31757 
L 111.275035 39.31757 
L 111.872319 39.233759 
L 111.872319 39.205821 
L 112.218115 39.12201 
L 112.26003 39.066135 
L 112.689655 38.982324 
L 112.689655 38.954386 
L 113.381247 38.870575 
L 113.444119 38.786763 
L 113.75848 38.702951 
L 113.75848 38.675014 
L 114.355764 38.591202 
L 114.418636 38.535328 
L 114.638688 38.451516 
L 114.712039 38.31183 
L 115.057835 38.228018 
L 115.141664 38.172144 
L 115.665598 38.088332 
L 115.665598 38.060395 
L 116.084744 37.976583 
L 116.105702 37.920708 
L 116.629635 37.836897 
L 116.713465 37.753085 
L 117.14309 37.669273 
L 117.247877 37.557524 
L 117.918512 37.473713 
L 117.981384 37.417838 
L 118.934943 37.334026 
L 119.039729 37.278152 
L 119.940895 37.19434 
L 119.972331 37.138466 
L 120.318127 37.054654 
L 120.412435 36.970842 
L 120.726795 36.887031 
L 120.779189 36.803219 
L 121.544132 36.719407 
L 121.544132 36.69147 
L 122.508169 36.607658 
L 122.508169 36.579721 
L 124.39433 36.523847 
L 124.488638 36.38416 
L 125.243102 36.300349 
L 125.243102 36.272411 
L 125.65177 36.1886 
L 125.65177 36.132725 
L 126.36432 36.048914 
L 126.36432 36.020976 
L 127.799898 35.937165 
L 127.799898 35.909227 
L 129.12021 35.825416 
L 129.12021 35.797478 
L 130.272864 35.713667 
L 130.283342 35.657792 
L 130.597703 35.573981 
L 130.608181 35.518106 
L 131.980887 35.434294 
L 131.980887 35.406357 
L 132.557214 35.322545 
L 132.620086 35.266671 
L 134.013749 35.182859 
L 134.013749 35.154922 
L 135.543635 35.07111 
L 135.616986 35.015236 
L 136.790597 34.931424 
L 136.790597 34.903487 
L 138.928245 34.819675 
L 138.928245 34.791738 
L 139.777018 34.707926 
L 139.777018 34.679989 
L 140.604833 34.596177 
L 140.604833 34.56824 
L 140.898235 34.484428 
L 140.898235 34.456491 
L 141.41169 34.372679 
L 141.453605 34.316805 
L 142.773917 34.232993 
L 142.773917 34.205056 
L 144.492419 34.121244 
L 144.492419 34.093307 
L 150.706271 34.009495 
L 150.758664 33.953621 
L 152.466687 33.869809 
L 152.466687 33.841872 
L 154.331891 33.75806 
L 154.331891 33.730123 
L 155.798905 33.646311 
L 155.798905 33.618374 
L 159.152079 33.534562 
L 159.152079 33.506625 
L 161.363078 33.422813 
L 161.363078 33.394876 
L 163.39594 33.339002 
L 163.39594 33.283127 
L 166.717679 33.199315 
L 166.717679 33.171378 
L 172.627649 33.087566 
L 172.627649 33.059629 
L 177.992728 32.975817 
L 177.992728 32.94788 
L 183.001532 32.864068 
L 183.001532 32.836131 
L 194.140359 32.75232 
L 194.140359 32.724382 
L 199.306343 32.640571 
L 199.306343 32.612633 
L 207.353962 32.528822 
L 207.353962 32.500884 
L 250.075501 32.417073 
L 250.075501 32.389135 
L 282.978525 32.305324 
L 282.978525 32.277386 
L 339.196591 32.249449 
L 339.196591 32.249449 
" clip-path="url(#p4f46366568)" style="fill: none; stroke: #800000; stroke-width: 1.5; stroke-linecap: square"/>
   </g>
   <g id="patch_3">
    <path d="M 62.03 278.567883 
L 62.03 20.52 
" style="fill: none; stroke: #000000; stroke-width: 0.8; stroke-linejoin: miter; stroke-linecap: square"/>
   </g>
   <g id="patch_4">
    <path d="M 352.395 278.567883 
L 352.395 20.52 
" style="fill: none; stroke: #000000; stroke-width: 0.8; stroke-linejoin: miter; stroke-linecap: square"/>
   </g>
   <g id="patch_5">
    <path d="M 62.03 278.567883 
L 352.395 278.567883 
" style="fill: none; stroke: #000000; stroke-width: 0.8; stroke-linejoin: miter; stroke-linecap: square"/>
   </g>
   <g id="patch_6">
    <path d="M 62.03 20.52 
L 352.395 20.52 
" style="fill: none; stroke: #000000; stroke-width: 0.8; stroke-linejoin: miter; stroke-linecap: square"/>
   </g>
   <g id="legend_1">
    <g id="patch_7">
     <path d="M 245.35875 272.567883 
L 343.995 272.567883 
Q 346.395 272.567883 346.395 270.167883 
L 346.395 253.754133 
Q 346.395 251.354133 343.995 251.354133 
L 245.35875 251.354133 
Q 242.95875 251.354133 242.95875 253.754133 
L 242.95875 270.167883 
Q 242.95875 272.567883 245.35875 272.567883 
z
" style="fill: #ffffff; opacity: 0.8; stroke: #cccccc; stroke-linejoin: miter"/>
    </g>
    <g id="line2d_14">
     <path d="M 247.75875 261.072258 
L 259.75875 261.072258 
L 271.75875 261.072258 
" style="fill: none; stroke: #800000; stroke-width: 1.5; stroke-linecap: square"/>
    </g>
    <g id="text_15">
     <!-- CLIPZyme -->
     <g transform="translate(281.35875 265.272258) scale(0.12 -0.12)">
      <defs>
       <path id="DejaVuSans-43" d="M 4122 4306 
L 4122 3641 
Q 3803 3938 3442 4084 
Q 3081 4231 2675 4231 
Q 1875 4231 1450 3742 
Q 1025 3253 1025 2328 
Q 1025 1406 1450 917 
Q 1875 428 2675 428 
Q 3081 428 3442 575 
Q 3803 722 4122 1019 
L 4122 359 
Q 3791 134 3420 21 
Q 3050 -91 2638 -91 
Q 1578 -91 968 557 
Q 359 1206 359 2328 
Q 359 3453 968 4101 
Q 1578 4750 2638 4750 
Q 3056 4750 3426 4639 
Q 3797 4528 4122 4306 
z
" transform="scale(0.015625)"/>
       <path id="DejaVuSans-4c" d="M 628 4666 
L 1259 4666 
L 1259 531 
L 3531 531 
L 3531 0 
L 628 0 
L 628 4666 
z
" transform="scale(0.015625)"/>
       <path id="DejaVuSans-49" d="M 628 4666 
L 1259 4666 
L 1259 0 
L 628 0 
L 628 4666 
z
" transform="scale(0.015625)"/>
       <path id="DejaVuSans-50" d="M 1259 4147 
L 1259 2394 
L 2053 2394 
Q 2494 2394 2734 2622 
Q 2975 2850 2975 3272 
Q 2975 3691 2734 3919 
Q 2494 4147 2053 4147 
L 1259 4147 
z
M 628 4666 
L 2053 4666 
Q 2838 4666 3239 4311 
Q 3641 3956 3641 3272 
Q 3641 2581 3239 2228 
Q 2838 1875 2053 1875 
L 1259 1875 
L 1259 0 
L 628 0 
L 628 4666 
z
" transform="scale(0.015625)"/>
       <path id="DejaVuSans-5a" d="M 359 4666 
L 4025 4666 
L 4025 4184 
L 1075 531 
L 4097 531 
L 4097 0 
L 288 0 
L 288 481 
L 3238 4134 
L 359 4134 
L 359 4666 
z
" transform="scale(0.015625)"/>
       <path id="DejaVuSans-79" d="M 2059 -325 
Q 1816 -950 1584 -1140 
Q 1353 -1331 966 -1331 
L 506 -1331 
L 506 -850 
L 844 -850 
Q 1081 -850 1212 -737 
Q 1344 -625 1503 -206 
L 1606 56 
L 191 3500 
L 800 3500 
L 1894 763 
L 2988 3500 
L 3597 3500 
L 2059 -325 
z
" transform="scale(0.015625)"/>
       <path id="DejaVuSans-6d" d="M 3328 2828 
Q 3544 3216 3844 3400 
Q 4144 3584 4550 3584 
Q 5097 3584 5394 3201 
Q 5691 2819 5691 2113 
L 5691 0 
L 5113 0 
L 5113 2094 
Q 5113 2597 4934 2840 
Q 4756 3084 4391 3084 
Q 3944 3084 3684 2787 
Q 3425 2491 3425 1978 
L 3425 0 
L 2847 0 
L 2847 2094 
Q 2847 2600 2669 2842 
Q 2491 3084 2119 3084 
Q 1678 3084 1418 2786 
Q 1159 2488 1159 1978 
L 1159 0 
L 581 0 
L 581 3500 
L 1159 3500 
L 1159 2956 
Q 1356 3278 1631 3431 
Q 1906 3584 2284 3584 
Q 2666 3584 2933 3390 
Q 3200 3197 3328 2828 
z
" transform="scale(0.015625)"/>
      </defs>
      <use xlink:href="#DejaVuSans-43"/>
      <use xlink:href="#DejaVuSans-4c" x="69.824219"/>
      <use xlink:href="#DejaVuSans-49" x="125.537109"/>
      <use xlink:href="#DejaVuSans-50" x="155.029297"/>
      <use xlink:href="#DejaVuSans-5a" x="215.332031"/>
      <use xlink:href="#DejaVuSans-79" x="283.837891"/>
      <use xlink:href="#DejaVuSans-6d" x="343.017578"/>
      <use xlink:href="#DejaVuSans-65" x="440.429688"/>
     </g>
    </g>
   </g>
  </g>
  <g id="axes_2">
   <g id="patch_8">
    <path d="M 414.515 278.567883 
L 704.88 278.567883 
L 704.88 20.52 
L 414.515 20.52 
z
" style="fill: #ffffff"/>
   </g>
   <g id="patch_9">
    <path d="M 427.713409 536.615766 
L 691.681591 536.615766 
L 691.681591 33.145365 
L 427.713409 33.145365 
z
" clip-path="url(#pdea1338dab)" style="fill: #800000"/>
   </g>
   <g id="matplotlib.axis_3">
    <g id="xtick_7">
     <g id="line2d_15">
      <g>
       <use xlink:href="#m6a2b3de8f6" x="559.6975" y="278.567883" style="stroke: #000000; stroke-width: 0.8"/>
      </g>
     </g>
     <g id="text_16">
      <!-- CLIPZyme -->
      <g transform="translate(507.946343 342.782324) rotate(-45) scale(0.14 -0.14)">
       <use xlink:href="#DejaVuSans-43"/>
       <use xlink:href="#DejaVuSans-4c" x="69.824219"/>
       <use xlink:href="#DejaVuSans-49" x="125.537109"/>
       <use xlink:href="#DejaVuSans-50" x="155.029297"/>
       <use xlink:href="#DejaVuSans-5a" x="215.332031"/>
       <use xlink:href="#DejaVuSans-79" x="283.837891"/>
       <use xlink:href="#DejaVuSans-6d" x="343.017578"/>
       <use xlink:href="#DejaVuSans-65" x="440.429688"/>
      </g>
     </g>
    </g>
   </g>
   <g id="matplotlib.axis_4">
    <g id="ytick_7">
     <g id="line2d_16">
      <g>
       <use xlink:href="#m8036a187b9" x="414.515" y="278.567883" style="stroke: #000000; stroke-width: 0.8"/>
      </g>
     </g>
     <g id="text_17">
      <!-- 0.5 -->
      <g transform="translate(385.250625 283.886789) scale(0.14 -0.14)">
       <defs>
        <path id="DejaVuSans-35" d="M 691 4666 
L 3169 4666 
L 3169 4134 
L 1269 4134 
L 1269 2991 
Q 1406 3038 1543 3061 
Q 1681 3084 1819 3084 
Q 2600 3084 3056 2656 
Q 3513 2228 3513 1497 
Q 3513 744 3044 326 
Q 2575 -91 1722 -91 
Q 1428 -91 1123 -41 
Q 819 9 494 109 
L 494 744 
Q 775 591 1075 516 
Q 1375 441 1709 441 
Q 2250 441 2565 725 
Q 2881 1009 2881 1497 
Q 2881 1984 2565 2268 
Q 2250 2553 1709 2553 
Q 1456 2553 1204 2497 
Q 953 2441 691 2322 
L 691 4666 
z
" transform="scale(0.015625)"/>
       </defs>
       <use xlink:href="#DejaVuSans-30"/>
       <use xlink:href="#DejaVuSans-2e" x="63.623047"/>
       <use xlink:href="#DejaVuSans-35" x="95.410156"/>
      </g>
     </g>
    </g>
    <g id="ytick_8">
     <g id="line2d_17">
      <g>
       <use xlink:href="#m8036a187b9" x="414.515" y="226.958307" style="stroke: #000000; stroke-width: 0.8"/>
      </g>
     </g>
     <g id="text_18">
      <!-- 0.6 -->
      <g transform="translate(385.250625 232.277213) scale(0.14 -0.14)">
       <use xlink:href="#DejaVuSans-30"/>
       <use xlink:href="#DejaVuSans-2e" x="63.623047"/>
       <use xlink:href="#DejaVuSans-36" x="95.410156"/>
      </g>
     </g>
    </g>
    <g id="ytick_9">
     <g id="line2d_18">
      <g>
       <use xlink:href="#m8036a187b9" x="414.515" y="175.34873" style="stroke: #000000; stroke-width: 0.8"/>
      </g>
     </g>
     <g id="text_19">
      <!-- 0.7 -->
      <g transform="translate(385.250625 180.667636) scale(0.14 -0.14)">
       <defs>
        <path id="DejaVuSans-37" d="M 525 4666 
L 3525 4666 
L 3525 4397 
L 1831 0 
L 1172 0 
L 2766 4134 
L 525 4134 
L 525 4666 
z
" transform="scale(0.015625)"/>
       </defs>
       <use xlink:href="#DejaVuSans-30"/>
       <use xlink:href="#DejaVuSans-2e" x="63.623047"/>
       <use xlink:href="#DejaVuSans-37" x="95.410156"/>
      </g>
     </g>
    </g>
    <g id="ytick_10">
     <g id="line2d_19">
      <g>
       <use xlink:href="#m8036a187b9" x="414.515" y="123.739153" style="stroke: #000000; stroke-width: 0.8"/>
      </g>
     </g>
     <g id="text_20">
      <!-- 0.8 -->
      <g transform="translate(385.250625 129.05806) scale(0.14 -0.14)">
       <use xlink:href="#DejaVuSans-30"/>
       <use xlink:href="#DejaVuSans-2e" x="63.623047"/>
       <use xlink:href="#DejaVuSans-38" x="95.410156"/>
      </g>
     </g>
    </g>
    <g id="ytick_11">
     <g id="line2d_20">
      <g>
       <use xlink:href="#m8036a187b9" x="414.515" y="72.129577" style="stroke: #000000; stroke-width: 0.8"/>
      </g>
     </g>
     <g id="text_21">
      <!-- 0.9 -->
      <g transform="translate(385.250625 77.448483) scale(0.14 -0.14)">
       <defs>
        <path id="DejaVuSans-39" d="M 703 97 
L 703 672 
Q 941 559 1184 500 
Q 1428 441 1663 441 
Q 2288 441 2617 861 
Q 2947 1281 2994 2138 
Q 2813 1869 2534 1725 
Q 2256 1581 1919 1581 
Q 1219 1581 811 2004 
Q 403 2428 403 3163 
Q 403 3881 828 4315 
Q 1253 4750 1959 4750 
Q 2769 4750 3195 4129 
Q 3622 3509 3622 2328 
Q 3622 1225 3098 567 
Q 2575 -91 1691 -91 
Q 1453 -91 1209 -44 
Q 966 3 703 97 
z
M 1959 2075 
Q 2384 2075 2632 2365 
Q 2881 2656 2881 3163 
Q 2881 3666 2632 3958 
Q 2384 4250 1959 4250 
Q 1534 4250 1286 3958 
Q 1038 3666 1038 3163 
Q 1038 2656 1286 2365 
Q 1534 2075 1959 2075 
z
" transform="scale(0.015625)"/>
       </defs>
       <use xlink:href="#DejaVuSans-30"/>
       <use xlink:href="#DejaVuSans-2e" x="63.623047"/>
       <use xlink:href="#DejaVuSans-39" x="95.410156"/>
      </g>
     </g>
    </g>
    <g id="ytick_12">
     <g id="line2d_21">
      <g>
       <use xlink:href="#m8036a187b9" x="414.515" y="20.52" style="stroke: #000000; stroke-width: 0.8"/>
      </g>
     </g>
     <g id="text_22">
      <!-- 1.0 -->
      <g transform="translate(385.250625 25.838906) scale(0.14 -0.14)">
       <use xlink:href="#DejaVuSans-31"/>
       <use xlink:href="#DejaVuSans-2e" x="63.623047"/>
       <use xlink:href="#DejaVuSans-30" x="95.410156"/>
      </g>
     </g>
    </g>
    <g id="text_23">
     <!-- ROC-AUC -->
     <g transform="translate(378.339063 181.973629) rotate(-90) scale(0.14 -0.14)">
      <defs>
       <path id="DejaVuSans-52" d="M 2841 2188 
Q 3044 2119 3236 1894 
Q 3428 1669 3622 1275 
L 4263 0 
L 3584 0 
L 2988 1197 
Q 2756 1666 2539 1819 
Q 2322 1972 1947 1972 
L 1259 1972 
L 1259 0 
L 628 0 
L 628 4666 
L 2053 4666 
Q 2853 4666 3247 4331 
Q 3641 3997 3641 3322 
Q 3641 2881 3436 2590 
Q 3231 2300 2841 2188 
z
M 1259 4147 
L 1259 2491 
L 2053 2491 
Q 2509 2491 2742 2702 
Q 2975 2913 2975 3322 
Q 2975 3731 2742 3939 
Q 2509 4147 2053 4147 
L 1259 4147 
z
" transform="scale(0.015625)"/>
       <path id="DejaVuSans-4f" d="M 2522 4238 
Q 1834 4238 1429 3725 
Q 1025 3213 1025 2328 
Q 1025 1447 1429 934 
Q 1834 422 2522 422 
Q 3209 422 3611 934 
Q 4013 1447 4013 2328 
Q 4013 3213 3611 3725 
Q 3209 4238 2522 4238 
z
M 2522 4750 
Q 3503 4750 4090 4092 
Q 4678 3434 4678 2328 
Q 4678 1225 4090 567 
Q 3503 -91 2522 -91 
Q 1538 -91 948 565 
Q 359 1222 359 2328 
Q 359 3434 948 4092 
Q 1538 4750 2522 4750 
z
" transform="scale(0.015625)"/>
       <path id="DejaVuSans-2d" d="M 313 2009 
L 1997 2009 
L 1997 1497 
L 313 1497 
L 313 2009 
z
" transform="scale(0.015625)"/>
       <path id="DejaVuSans-41" d="M 2188 4044 
L 1331 1722 
L 3047 1722 
L 2188 4044 
z
M 1831 4666 
L 2547 4666 
L 4325 0 
L 3669 0 
L 3244 1197 
L 1141 1197 
L 716 0 
L 50 0 
L 1831 4666 
z
" transform="scale(0.015625)"/>
       <path id="DejaVuSans-55" d="M 556 4666 
L 1191 4666 
L 1191 1831 
Q 1191 1081 1462 751 
Q 1734 422 2344 422 
Q 2950 422 3222 751 
Q 3494 1081 3494 1831 
L 3494 4666 
L 4128 4666 
L 4128 1753 
Q 4128 841 3676 375 
Q 3225 -91 2344 -91 
Q 1459 -91 1007 375 
Q 556 841 556 1753 
L 556 4666 
z
" transform="scale(0.015625)"/>
      </defs>
      <use xlink:href="#DejaVuSans-52"/>
      <use xlink:href="#DejaVuSans-4f" x="69.482422"/>
      <use xlink:href="#DejaVuSans-43" x="148.193359"/>
      <use xlink:href="#DejaVuSans-2d" x="218.017578"/>
      <use xlink:href="#DejaVuSans-41" x="251.851562"/>
      <use xlink:href="#DejaVuSans-55" x="320.259766"/>
      <use xlink:href="#DejaVuSans-43" x="393.453125"/>
     </g>
    </g>
   </g>
   <g id="LineCollection_1">
    <path d="M 559.6975 33.813818 
L 559.6975 32.54347 
" clip-path="url(#pdea1338dab)" style="fill: none; stroke: #000000; stroke-width: 1.5"/>
   </g>
   <g id="patch_10">
    <path d="M 414.515 278.567883 
L 414.515 20.52 
" style="fill: none; stroke: #000000; stroke-width: 0.8; stroke-linejoin: miter; stroke-linecap: square"/>
   </g>
   <g id="patch_11">
    <path d="M 704.88 278.567883 
L 704.88 20.52 
" style="fill: none; stroke: #000000; stroke-width: 0.8; stroke-linejoin: miter; stroke-linecap: square"/>
   </g>
   <g id="patch_12">
    <path d="M 414.515 278.567883 
L 704.88 278.567883 
" style="fill: none; stroke: #000000; stroke-width: 0.8; stroke-linejoin: miter; stroke-linecap: square"/>
   </g>
   <g id="patch_13">
    <path d="M 414.515 20.52 
L 704.88 20.52 
" style="fill: none; stroke: #000000; stroke-width: 0.8; stroke-linejoin: miter; stroke-linecap: square"/>
   </g>
  </g>
 </g>
 <defs>
  <clipPath id="p4f46366568">
   <rect x="62.03" y="20.52" width="290.365" height="258.047883"/>
  </clipPath>
  <clipPath id="pdea1338dab">
   <rect x="414.515" y="20.52" width="290.365" height="258.047883"/>
  </clipPath>
 </defs>
</svg>
