<?xml version="1.0" encoding="utf-8" standalone="no"?>
<!DOCTYPE svg PUBLIC "-//W3C//DTD SVG 1.1//EN"
  "http://www.w3.org/Graphics/SVG/1.1/DTD/svg11.dtd">
<svg xmlns:xlink="http://www.w3.org/1999/xlink" width="720pt" height="360pt" viewBox="0 0 720 360" xmlns="http://www.w3.org/2000/svg" version="1.1">
 <metadata>
  <rdf:RDF xmlns:dc="http://purl.org/dc/elements/1.1/" xmlns:cc="http://creativecommons.org/ns#" xmlns:rdf="http://www.w3.org/1999/02/22-rdf-syntax-ns#">
   <cc:Work>
    <dc:type rdf:resource="http://purl.org/dc/dcmitype/StillImage"/>
    <dc:date>2025-10-23T13:43:13.351197</dc:date>
    <dc:format>image/svg+xml</dc:format>
    <dc:creator>
     <cc:Agent>
      <dc:title>Matplotlib v3.8.4, https://matplotlib.org/</dc:title>
     </cc:Agent>
    </dc:creator>
   </cc:Work>
  </rdf:RDF>
 </metadata>
 <defs>
  <style type="text/css">*{stroke-linejoin: round; stroke-linecap: butt}</style>
 </defs>
 <g id="figure_1">
  <g id="patch_1">
   <path d="M 0 360 
L 720 360 
L 720 0 
L 0 0 
z
" style="fill: #ffffff"/>
  </g>
  <g id="axes_1">
   <g id="patch_2">
    <path d="M 62.03 235.356588 
L 349.013662 235.356588 
L 349.013662 20.52 
L 62.03 20.52 
z
" style="fill: #ffffff"/>
   </g>
   <g id="matplotlib.axis_1">
    <g id="xtick_1">
     <g id="line2d_1">
      <defs>
       <path id="mce45825e41" d="M 0 0 
L 0 3.5 
" style="stroke: #000000; stroke-width: 0.8"/>
      </defs>
      <g>
       <use xlink:href="#mce45825e41" x="75.074712" y="235.356588" style="stroke: #000000; stroke-width: 0.8"/>
      </g>
     </g>
     <g id="text_1">
      <!-- 0.0 -->
      <g transform="translate(63.942524 252.9944) scale(0.14 -0.14)">
       <defs>
        <path id="DejaVuSans-30" d="M 2034 4250 
Q 1547 4250 1301 3770 
Q 1056 3291 1056 2328 
Q 1056 1369 1301 889 
Q 1547 409 2034 409 
Q 2525 409 2770 889 
Q 3016 1369 3016 2328 
Q 3016 3291 2770 3770 
Q 2525 4250 2034 4250 
z
M 2034 4750 
Q 2819 4750 3233 4129 
Q 3647 3509 3647 2328 
Q 3647 1150 3233 529 
Q 2819 -91 2034 -91 
Q 1250 -91 836 529 
Q 422 1150 422 2328 
Q 422 3509 836 4129 
Q 1250 4750 2034 4750 
z
" transform="scale(0.015625)"/>
        <path id="DejaVuSans-2e" d="M 684 794 
L 1344 794 
L 1344 0 
L 684 0 
L 684 794 
z
" transform="scale(0.015625)"/>
       </defs>
       <use xlink:href="#DejaVuSans-30"/>
       <use xlink:href="#DejaVuSans-2e" x="63.623047"/>
       <use xlink:href="#DejaVuSans-30" x="95.410156"/>
      </g>
     </g>
    </g>
    <g id="xtick_2">
     <g id="line2d_2">
      <g>
       <use xlink:href="#mce45825e41" x="127.25356" y="235.356588" style="stroke: #000000; stroke-width: 0.8"/>
      </g>
     </g>
     <g id="text_2">
      <!-- 0.2 -->
      <g transform="translate(116.121372 252.9944) scale(0.14 -0.14)">
       <defs>
        <path id="DejaVuSans-32" d="M 1228 531 
L 3431 531 
L 3431 0 
L 469 0 
L 469 531 
Q 828 903 1448 1529 
Q 2069 2156 2228 2338 
Q 2531 2678 2651 2914 
Q 2772 3150 2772 3378 
Q 2772 3750 2511 3984 
Q 2250 4219 1831 4219 
Q 1534 4219 1204 4116 
Q 875 4013 500 3803 
L 500 4441 
Q 881 4594 1212 4672 
Q 1544 4750 1819 4750 
Q 2544 4750 2975 4387 
Q 3406 4025 3406 3419 
Q 3406 3131 3298 2873 
Q 3191 2616 2906 2266 
Q 2828 2175 2409 1742 
Q 1991 1309 1228 531 
z
" transform="scale(0.015625)"/>
       </defs>
       <use xlink:href="#DejaVuSans-30"/>
       <use xlink:href="#DejaVuSans-2e" x="63.623047"/>
       <use xlink:href="#DejaVuSans-32" x="95.410156"/>
      </g>
     </g>
    </g>
    <g id="xtick_3">
     <g id="line2d_3">
      <g>
       <use xlink:href="#mce45825e41" x="179.432407" y="235.356588" style="stroke: #000000; stroke-width: 0.8"/>
      </g>
     </g>
     <g id="text_3">
      <!-- 0.4 -->
      <g transform="translate(168.30022 252.9944) scale(0.14 -0.14)">
       <defs>
        <path id="DejaVuSans-34" d="M 2419 4116 
L 825 1625 
L 2419 1625 
L 2419 4116 
z
M 2253 4666 
L 3047 4666 
L 3047 1625 
L 3713 1625 
L 3713 1100 
L 3047 1100 
L 3047 0 
L 2419 0 
L 2419 1100 
L 313 1100 
L 313 1709 
L 2253 4666 
z
" transform="scale(0.015625)"/>
       </defs>
       <use xlink:href="#DejaVuSans-30"/>
       <use xlink:href="#DejaVuSans-2e" x="63.623047"/>
       <use xlink:href="#DejaVuSans-34" x="95.410156"/>
      </g>
     </g>
    </g>
    <g id="xtick_4">
     <g id="line2d_4">
      <g>
       <use xlink:href="#mce45825e41" x="231.611255" y="235.356588" style="stroke: #000000; stroke-width: 0.8"/>
      </g>
     </g>
     <g id="text_4">
      <!-- 0.6 -->
      <g transform="translate(220.479067 252.9944) scale(0.14 -0.14)">
       <defs>
        <path id="DejaVuSans-36" d="M 2113 2584 
Q 1688 2584 1439 2293 
Q 1191 2003 1191 1497 
Q 1191 994 1439 701 
Q 1688 409 2113 409 
Q 2538 409 2786 701 
Q 3034 994 3034 1497 
Q 3034 2003 2786 2293 
Q 2538 2584 2113 2584 
z
M 3366 4563 
L 3366 3988 
Q 3128 4100 2886 4159 
Q 2644 4219 2406 4219 
Q 1781 4219 1451 3797 
Q 1122 3375 1075 2522 
Q 1259 2794 1537 2939 
Q 1816 3084 2150 3084 
Q 2853 3084 3261 2657 
Q 3669 2231 3669 1497 
Q 3669 778 3244 343 
Q 2819 -91 2113 -91 
Q 1303 -91 875 529 
Q 447 1150 447 2328 
Q 447 3434 972 4092 
Q 1497 4750 2381 4750 
Q 2619 4750 2861 4703 
Q 3103 4656 3366 4563 
z
" transform="scale(0.015625)"/>
       </defs>
       <use xlink:href="#DejaVuSans-30"/>
       <use xlink:href="#DejaVuSans-2e" x="63.623047"/>
       <use xlink:href="#DejaVuSans-36" x="95.410156"/>
      </g>
     </g>
    </g>
    <g id="xtick_5">
     <g id="line2d_5">
      <g>
       <use xlink:href="#mce45825e41" x="283.790102" y="235.356588" style="stroke: #000000; stroke-width: 0.8"/>
      </g>
     </g>
     <g id="text_5">
      <!-- 0.8 -->
      <g transform="translate(272.657915 252.9944) scale(0.14 -0.14)">
       <defs>
        <path id="DejaVuSans-38" d="M 2034 2216 
Q 1584 2216 1326 1975 
Q 1069 1734 1069 1313 
Q 1069 891 1326 650 
Q 1584 409 2034 409 
Q 2484 409 2743 651 
Q 3003 894 3003 1313 
Q 3003 1734 2745 1975 
Q 2488 2216 2034 2216 
z
M 1403 2484 
Q 997 2584 770 2862 
Q 544 3141 544 3541 
Q 544 4100 942 4425 
Q 1341 4750 2034 4750 
Q 2731 4750 3128 4425 
Q 3525 4100 3525 3541 
Q 3525 3141 3298 2862 
Q 3072 2584 2669 2484 
Q 3125 2378 3379 2068 
Q 3634 1759 3634 1313 
Q 3634 634 3220 271 
Q 2806 -91 2034 -91 
Q 1263 -91 848 271 
Q 434 634 434 1313 
Q 434 1759 690 2068 
Q 947 2378 1403 2484 
z
M 1172 3481 
Q 1172 3119 1398 2916 
Q 1625 2713 2034 2713 
Q 2441 2713 2670 2916 
Q 2900 3119 2900 3481 
Q 2900 3844 2670 4047 
Q 2441 4250 2034 4250 
Q 1625 4250 1398 4047 
Q 1172 3844 1172 3481 
z
" transform="scale(0.015625)"/>
       </defs>
       <use xlink:href="#DejaVuSans-30"/>
       <use xlink:href="#DejaVuSans-2e" x="63.623047"/>
       <use xlink:href="#DejaVuSans-38" x="95.410156"/>
      </g>
     </g>
    </g>
    <g id="xtick_6">
     <g id="line2d_6">
      <g>
       <use xlink:href="#mce45825e41" x="335.96895" y="235.356588" style="stroke: #000000; stroke-width: 0.8"/>
      </g>
     </g>
     <g id="text_6">
      <!-- 1.0 -->
      <g transform="translate(324.836762 252.9944) scale(0.14 -0.14)">
       <defs>
        <path id="DejaVuSans-31" d="M 794 531 
L 1825 531 
L 1825 4091 
L 703 3866 
L 703 4441 
L 1819 4666 
L 2450 4666 
L 2450 531 
L 3481 531 
L 3481 0 
L 794 0 
L 794 531 
z
" transform="scale(0.015625)"/>
       </defs>
       <use xlink:href="#DejaVuSans-31"/>
       <use xlink:href="#DejaVuSans-2e" x="63.623047"/>
       <use xlink:href="#DejaVuSans-30" x="95.410156"/>
      </g>
     </g>
    </g>
    <g id="text_7">
     <!-- False positive rate -->
     <g transform="translate(141.820737 270.543775) scale(0.14 -0.14)">
      <defs>
       <path id="DejaVuSans-46" d="M 628 4666 
L 3309 4666 
L 3309 4134 
L 1259 4134 
L 1259 2759 
L 3109 2759 
L 3109 2228 
L 1259 2228 
L 1259 0 
L 628 0 
L 628 4666 
z
" transform="scale(0.015625)"/>
       <path id="DejaVuSans-61" d="M 2194 1759 
Q 1497 1759 1228 1600 
Q 959 1441 959 1056 
Q 959 750 1161 570 
Q 1363 391 1709 391 
Q 2188 391 2477 730 
Q 2766 1069 2766 1631 
L 2766 1759 
L 2194 1759 
z
M 3341 1997 
L 3341 0 
L 2766 0 
L 2766 531 
Q 2569 213 2275 61 
Q 1981 -91 1556 -91 
Q 1019 -91 701 211 
Q 384 513 384 1019 
Q 384 1609 779 1909 
Q 1175 2209 1959 2209 
L 2766 2209 
L 2766 2266 
Q 2766 2663 2505 2880 
Q 2244 3097 1772 3097 
Q 1472 3097 1187 3025 
Q 903 2953 641 2809 
L 641 3341 
Q 956 3463 1253 3523 
Q 1550 3584 1831 3584 
Q 2591 3584 2966 3190 
Q 3341 2797 3341 1997 
z
" transform="scale(0.015625)"/>
       <path id="DejaVuSans-6c" d="M 603 4863 
L 1178 4863 
L 1178 0 
L 603 0 
L 603 4863 
z
" transform="scale(0.015625)"/>
       <path id="DejaVuSans-73" d="M 2834 3397 
L 2834 2853 
Q 2591 2978 2328 3040 
Q 2066 3103 1784 3103 
Q 1356 3103 1142 2972 
Q 928 2841 928 2578 
Q 928 2378 1081 2264 
Q 1234 2150 1697 2047 
L 1894 2003 
Q 2506 1872 2764 1633 
Q 3022 1394 3022 966 
Q 3022 478 2636 193 
Q 2250 -91 1575 -91 
Q 1294 -91 989 -36 
Q 684 19 347 128 
L 347 722 
Q 666 556 975 473 
Q 1284 391 1588 391 
Q 1994 391 2212 530 
Q 2431 669 2431 922 
Q 2431 1156 2273 1281 
Q 2116 1406 1581 1522 
L 1381 1569 
Q 847 1681 609 1914 
Q 372 2147 372 2553 
Q 372 3047 722 3315 
Q 1072 3584 1716 3584 
Q 2034 3584 2315 3537 
Q 2597 3491 2834 3397 
z
" transform="scale(0.015625)"/>
       <path id="DejaVuSans-65" d="M 3597 1894 
L 3597 1613 
L 953 1613 
Q 991 1019 1311 708 
Q 1631 397 2203 397 
Q 2534 397 2845 478 
Q 3156 559 3463 722 
L 3463 178 
Q 3153 47 2828 -22 
Q 2503 -91 2169 -91 
Q 1331 -91 842 396 
Q 353 884 353 1716 
Q 353 2575 817 3079 
Q 1281 3584 2069 3584 
Q 2775 3584 3186 3129 
Q 3597 2675 3597 1894 
z
M 3022 2063 
Q 3016 2534 2758 2815 
Q 2500 3097 2075 3097 
Q 1594 3097 1305 2825 
Q 1016 2553 972 2059 
L 3022 2063 
z
" transform="scale(0.015625)"/>
       <path id="DejaVuSans-20" transform="scale(0.015625)"/>
       <path id="DejaVuSans-70" d="M 1159 525 
L 1159 -1331 
L 581 -1331 
L 581 3500 
L 1159 3500 
L 1159 2969 
Q 1341 3281 1617 3432 
Q 1894 3584 2278 3584 
Q 2916 3584 3314 3078 
Q 3713 2572 3713 1747 
Q 3713 922 3314 415 
Q 2916 -91 2278 -91 
Q 1894 -91 1617 61 
Q 1341 213 1159 525 
z
M 3116 1747 
Q 3116 2381 2855 2742 
Q 2594 3103 2138 3103 
Q 1681 3103 1420 2742 
Q 1159 2381 1159 1747 
Q 1159 1113 1420 752 
Q 1681 391 2138 391 
Q 2594 391 2855 752 
Q 3116 1113 3116 1747 
z
" transform="scale(0.015625)"/>
       <path id="DejaVuSans-6f" d="M 1959 3097 
Q 1497 3097 1228 2736 
Q 959 2375 959 1747 
Q 959 1119 1226 758 
Q 1494 397 1959 397 
Q 2419 397 2687 759 
Q 2956 1122 2956 1747 
Q 2956 2369 2687 2733 
Q 2419 3097 1959 3097 
z
M 1959 3584 
Q 2709 3584 3137 3096 
Q 3566 2609 3566 1747 
Q 3566 888 3137 398 
Q 2709 -91 1959 -91 
Q 1206 -91 779 398 
Q 353 888 353 1747 
Q 353 2609 779 3096 
Q 1206 3584 1959 3584 
z
" transform="scale(0.015625)"/>
       <path id="DejaVuSans-69" d="M 603 3500 
L 1178 3500 
L 1178 0 
L 603 0 
L 603 3500 
z
M 603 4863 
L 1178 4863 
L 1178 4134 
L 603 4134 
L 603 4863 
z
" transform="scale(0.015625)"/>
       <path id="DejaVuSans-74" d="M 1172 4494 
L 1172 3500 
L 2356 3500 
L 2356 3053 
L 1172 3053 
L 1172 1153 
Q 1172 725 1289 603 
Q 1406 481 1766 481 
L 2356 481 
L 2356 0 
L 1766 0 
Q 1100 0 847 248 
Q 594 497 594 1153 
L 594 3053 
L 172 3053 
L 172 3500 
L 594 3500 
L 594 4494 
L 1172 4494 
z
" transform="scale(0.015625)"/>
       <path id="DejaVuSans-76" d="M 191 3500 
L 800 3500 
L 1894 563 
L 2988 3500 
L 3597 3500 
L 2284 0 
L 1503 0 
L 191 3500 
z
" transform="scale(0.015625)"/>
       <path id="DejaVuSans-72" d="M 2631 2963 
Q 2534 3019 2420 3045 
Q 2306 3072 2169 3072 
Q 1681 3072 1420 2755 
Q 1159 2438 1159 1844 
L 1159 0 
L 581 0 
L 581 3500 
L 1159 3500 
L 1159 2956 
Q 1341 3275 1631 3429 
Q 1922 3584 2338 3584 
Q 2397 3584 2469 3576 
Q 2541 3569 2628 3553 
L 2631 2963 
z
" transform="scale(0.015625)"/>
      </defs>
      <use xlink:href="#DejaVuSans-46"/>
      <use xlink:href="#DejaVuSans-61" x="48.394531"/>
      <use xlink:href="#DejaVuSans-6c" x="109.673828"/>
      <use xlink:href="#DejaVuSans-73" x="137.457031"/>
      <use xlink:href="#DejaVuSans-65" x="189.556641"/>
      <use xlink:href="#DejaVuSans-20" x="251.080078"/>
      <use xlink:href="#DejaVuSans-70" x="282.867188"/>
      <use xlink:href="#DejaVuSans-6f" x="346.34375"/>
      <use xlink:href="#DejaVuSans-73" x="407.525391"/>
      <use xlink:href="#DejaVuSans-69" x="459.625"/>
      <use xlink:href="#DejaVuSans-74" x="487.408203"/>
      <use xlink:href="#DejaVuSans-69" x="526.617188"/>
      <use xlink:href="#DejaVuSans-76" x="554.400391"/>
      <use xlink:href="#DejaVuSans-65" x="613.580078"/>
      <use xlink:href="#DejaVuSans-20" x="675.103516"/>
      <use xlink:href="#DejaVuSans-72" x="706.890625"/>
      <use xlink:href="#DejaVuSans-61" x="748.003906"/>
      <use xlink:href="#DejaVuSans-74" x="809.283203"/>
      <use xlink:href="#DejaVuSans-65" x="848.492188"/>
     </g>
    </g>
   </g>
   <g id="matplotlib.axis_2">
    <g id="ytick_1">
     <g id="line2d_7">
      <defs>
       <path id="mff0175e0ec" d="M 0 0 
L -3.5 0 
" style="stroke: #000000; stroke-width: 0.8"/>
      </defs>
      <g>
       <use xlink:href="#mff0175e0ec" x="62.03" y="225.591288" style="stroke: #000000; stroke-width: 0.8"/>
      </g>
     </g>
     <g id="text_8">
      <!-- 0.0 -->
      <g transform="translate(32.765625 230.910195) scale(0.14 -0.14)">
       <use xlink:href="#DejaVuSans-30"/>
       <use xlink:href="#DejaVuSans-2e" x="63.623047"/>
       <use xlink:href="#DejaVuSans-30" x="95.410156"/>
      </g>
     </g>
    </g>
    <g id="ytick_2">
     <g id="line2d_8">
      <g>
       <use xlink:href="#mff0175e0ec" x="62.03" y="186.530091" style="stroke: #000000; stroke-width: 0.8"/>
      </g>
     </g>
     <g id="text_9">
      <!-- 0.2 -->
      <g transform="translate(32.765625 191.848997) scale(0.14 -0.14)">
       <use xlink:href="#DejaVuSans-30"/>
       <use xlink:href="#DejaVuSans-2e" x="63.623047"/>
       <use xlink:href="#DejaVuSans-32" x="95.410156"/>
      </g>
     </g>
    </g>
    <g id="ytick_3">
     <g id="line2d_9">
      <g>
       <use xlink:href="#mff0175e0ec" x="62.03" y="147.468893" style="stroke: #000000; stroke-width: 0.8"/>
      </g>
     </g>
     <g id="text_10">
      <!-- 0.4 -->
      <g transform="translate(32.765625 152.787799) scale(0.14 -0.14)">
       <use xlink:href="#DejaVuSans-30"/>
       <use xlink:href="#DejaVuSans-2e" x="63.623047"/>
       <use xlink:href="#DejaVuSans-34" x="95.410156"/>
      </g>
     </g>
    </g>
    <g id="ytick_4">
     <g id="line2d_10">
      <g>
       <use xlink:href="#mff0175e0ec" x="62.03" y="108.407695" style="stroke: #000000; stroke-width: 0.8"/>
      </g>
     </g>
     <g id="text_11">
      <!-- 0.6 -->
      <g transform="translate(32.765625 113.726601) scale(0.14 -0.14)">
       <use xlink:href="#DejaVuSans-30"/>
       <use xlink:href="#DejaVuSans-2e" x="63.623047"/>
       <use xlink:href="#DejaVuSans-36" x="95.410156"/>
      </g>
     </g>
    </g>
    <g id="ytick_5">
     <g id="line2d_11">
      <g>
       <use xlink:href="#mff0175e0ec" x="62.03" y="69.346497" style="stroke: #000000; stroke-width: 0.8"/>
      </g>
     </g>
     <g id="text_12">
      <!-- 0.8 -->
      <g transform="translate(32.765625 74.665403) scale(0.14 -0.14)">
       <use xlink:href="#DejaVuSans-30"/>
       <use xlink:href="#DejaVuSans-2e" x="63.623047"/>
       <use xlink:href="#DejaVuSans-38" x="95.410156"/>
      </g>
     </g>
    </g>
    <g id="ytick_6">
     <g id="line2d_12">
      <g>
       <use xlink:href="#mff0175e0ec" x="62.03" y="30.285299" style="stroke: #000000; stroke-width: 0.8"/>
      </g>
     </g>
     <g id="text_13">
      <!-- 1.0 -->
      <g transform="translate(32.765625 35.604206) scale(0.14 -0.14)">
       <use xlink:href="#DejaVuSans-31"/>
       <use xlink:href="#DejaVuSans-2e" x="63.623047"/>
       <use xlink:href="#DejaVuSans-30" x="95.410156"/>
      </g>
     </g>
    </g>
    <g id="text_14">
     <!-- True positive rate -->
     <g transform="translate(25.854063 188.927981) rotate(-90) scale(0.14 -0.14)">
      <defs>
       <path id="DejaVuSans-54" d="M -19 4666 
L 3928 4666 
L 3928 4134 
L 2272 4134 
L 2272 0 
L 1638 0 
L 1638 4134 
L -19 4134 
L -19 4666 
z
" transform="scale(0.015625)"/>
       <path id="DejaVuSans-75" d="M 544 1381 
L 544 3500 
L 1119 3500 
L 1119 1403 
Q 1119 906 1312 657 
Q 1506 409 1894 409 
Q 2359 409 2629 706 
Q 2900 1003 2900 1516 
L 2900 3500 
L 3475 3500 
L 3475 0 
L 2900 0 
L 2900 538 
Q 2691 219 2414 64 
Q 2138 -91 1772 -91 
Q 1169 -91 856 284 
Q 544 659 544 1381 
z
M 1991 3584 
L 1991 3584 
z
" transform="scale(0.015625)"/>
      </defs>
      <use xlink:href="#DejaVuSans-54"/>
      <use xlink:href="#DejaVuSans-72" x="46.333984"/>
      <use xlink:href="#DejaVuSans-75" x="87.447266"/>
      <use xlink:href="#DejaVuSans-65" x="150.826172"/>
      <use xlink:href="#DejaVuSans-20" x="212.349609"/>
      <use xlink:href="#DejaVuSans-70" x="244.136719"/>
      <use xlink:href="#DejaVuSans-6f" x="307.613281"/>
      <use xlink:href="#DejaVuSans-73" x="368.794922"/>
      <use xlink:href="#DejaVuSans-69" x="420.894531"/>
      <use xlink:href="#DejaVuSans-74" x="448.677734"/>
      <use xlink:href="#DejaVuSans-69" x="487.886719"/>
      <use xlink:href="#DejaVuSans-76" x="515.669922"/>
      <use xlink:href="#DejaVuSans-65" x="574.849609"/>
      <use xlink:href="#DejaVuSans-20" x="636.373047"/>
      <use xlink:href="#DejaVuSans-72" x="668.160156"/>
      <use xlink:href="#DejaVuSans-61" x="709.273438"/>
      <use xlink:href="#DejaVuSans-74" x="770.552734"/>
      <use xlink:href="#DejaVuSans-65" x="809.761719"/>
     </g>
    </g>
   </g>
   <g id="line2d_13">
    <path d="M 75.074712 225.591288 
L 75.247322 223.043879 
L 75.358286 201.293988 
L 75.364451 199.189607 
L 75.475414 172.524878 
L 75.481579 171.500376 
L 75.592543 157.877275 
L 75.598707 157.351179 
L 75.709671 138.550192 
L 75.715836 138.328678 
L 75.826799 130.32649 
L 75.845293 130.104976 
L 75.956257 122.725796 
L 75.962422 122.725796 
L 75.962422 122.615039 
L 76.073386 112.425402 
L 76.07955 112.425402 
L 76.07955 112.314645 
L 76.190514 104.160167 
L 76.202843 104.063255 
L 76.313807 98.013158 
L 76.319972 98.013158 
L 76.430935 94.787362 
L 76.443265 94.787362 
L 76.554228 88.944935 
L 76.560393 88.944935 
L 76.560393 88.889556 
L 76.671357 83.268642 
L 76.677521 83.268642 
L 76.677521 83.17173 
L 76.788485 80.139759 
L 76.79465 80.139759 
L 76.79465 80.029002 
L 76.813144 79.765955 
L 76.924108 77.426215 
L 76.930272 77.426215 
L 76.930272 77.356992 
L 77.041236 74.518846 
L 77.047401 74.518846 
L 77.047401 74.449622 
L 77.158364 71.389962 
L 77.183023 71.099226 
L 77.293987 68.731796 
L 77.318645 68.648729 
L 77.318645 68.634884 
L 77.429609 66.239766 
L 77.441938 66.198232 
L 77.441938 66.129009 
L 77.552902 64.052316 
L 77.559067 64.052316 
L 77.559067 63.983093 
L 77.657701 62.792456 
L 77.68236 62.792456 
L 77.793323 61.643353 
L 77.824147 61.532596 
L 77.93511 60.328115 
L 77.959769 60.245047 
L 77.959769 60.231202 
L 78.070733 58.376024 
L 78.089227 58.348335 
L 78.089227 58.33449 
L 78.194026 57.79455 
L 78.231014 57.725327 
L 78.335813 56.479312 
L 78.360471 56.437778 
L 78.471435 54.859492 
L 78.483764 54.831802 
L 78.483764 54.804113 
L 78.588564 53.738078 
L 78.631716 53.668855 
L 78.631716 53.641166 
L 78.730351 53.004313 
L 78.785832 52.907401 
L 78.890632 52.145947 
L 78.927619 52.049035 
L 79.038583 51.550629 
L 79.050912 51.536784 
L 79.050912 51.439872 
L 79.161876 50.996844 
L 79.192699 50.913776 
L 79.192699 50.886087 
L 79.297499 50.290769 
L 79.346816 50.180012 
L 79.451615 49.640072 
L 79.544085 49.543159 
L 79.655048 48.850929 
L 79.747518 48.740172 
L 79.858482 48.504813 
L 79.89547 48.421746 
L 79.89547 48.407901 
L 80.000269 48.144853 
L 80.055751 48.061786 
L 80.055751 48.047941 
L 80.166714 47.743359 
L 80.216032 47.646447 
L 80.314666 47.217264 
L 80.382477 47.134196 
L 80.487276 46.788081 
L 80.635228 46.677324 
L 80.746192 46.372742 
L 80.789344 46.27583 
L 80.887979 46.123539 
L 81.017436 46.012782 
L 81.085248 45.777424 
L 81.239364 45.666667 
L 81.350328 45.306707 
L 81.473621 45.209795 
L 81.57842 44.988281 
L 81.633902 44.877524 
L 81.720207 44.752922 
L 81.837335 44.642166 
L 81.948299 44.434496 
L 81.991451 44.379118 
L 81.991451 44.337584 
L 82.102415 44.157604 
L 82.170226 44.088381 
L 82.268861 43.769955 
L 82.379825 43.659198 
L 82.46613 43.451529 
L 82.601752 43.340772 
L 82.706551 43.119258 
L 82.817515 43.008501 
L 82.928479 42.925433 
L 83.131912 42.85621 
L 83.131912 42.828521 
L 83.224382 42.731609 
L 83.34151 42.620852 
L 83.403157 42.537784 
L 83.631249 42.427027 
L 83.717554 42.330115 
L 84.001128 42.219358 
L 84.093598 42.163979 
L 84.22922 42.053223 
L 84.303196 41.997844 
L 84.531288 41.887087 
L 84.611429 41.748641 
L 84.870344 41.651729 
L 84.975143 41.513283 
L 85.227894 41.402526 
L 85.332693 41.319458 
L 85.437492 41.222546 
L 85.449821 41.167167 
L 85.758054 41.05641 
L 85.862853 40.987187 
L 86.109439 40.87643 
L 86.214238 40.834896 
L 86.503977 40.724139 
L 86.61494 40.599538 
L 86.793715 40.544159 
L 86.904679 40.405713 
L 87.108113 40.294956 
L 87.219076 40.184199 
L 87.619779 40.101132 
L 87.619779 40.073443 
L 87.699919 39.990375 
L 88.39036 39.879618 
L 88.501324 39.851929 
L 89.204094 39.741172 
L 89.259576 39.699638 
L 90.159615 39.588881 
L 90.208933 39.561192 
L 90.517165 39.450435 
L 90.6158 39.422746 
L 91.078149 39.311989 
L 91.078149 39.298144 
L 91.861059 39.187387 
L 91.972023 39.090475 
L 92.292585 39.035096 
L 92.292585 39.007407 
L 92.348067 38.633603 
L 92.434372 38.633603 
L 92.434372 38.53669 
L 92.539171 38.425933 
L 92.902886 38.315176 
L 92.970697 38.259798 
L 93.087825 38.245953 
L 93.087825 38.190575 
L 93.192624 38.010595 
L 94.006358 37.899838 
L 94.092663 37.858304 
L 94.727623 37.747547 
L 94.758446 37.539878 
L 95.12216 37.429121 
L 95.233124 37.387587 
L 95.633826 37.304519 
L 95.732461 37.124539 
L 96.262621 37.027627 
L 96.373585 36.986093 
L 97.039367 36.875336 
L 97.039367 36.861492 
L 97.16266 36.847647 
L 97.16266 36.819958 
L 97.174989 36.681512 
L 97.273624 36.681512 
L 97.78529 36.598444 
L 97.890089 36.432309 
L 98.728482 36.321552 
L 98.728482 36.307707 
L 98.870269 36.293863 
L 98.870269 36.266173 
L 98.944245 36.113883 
L 99.412758 36.01697 
L 99.517557 35.947747 
L 100.923098 35.83699 
L 100.923098 35.823146 
L 102.704682 35.712389 
L 102.760164 35.670855 
L 103.450605 35.601632 
L 103.475264 35.200138 
L 103.703356 35.186293 
L 103.703356 35.158604 
L 103.703356 34.992469 
L 104.473937 34.978624 
L 104.473937 34.895556 
L 104.473937 34.784799 
L 105.719197 34.729421 
L 105.719197 34.674043 
L 105.719197 34.535596 
L 106.964457 34.424839 
L 106.982951 34.39715 
L 108.591925 34.286393 
L 108.591925 34.272549 
L 109.615257 34.161792 
L 109.615257 34.147947 
L 111.575616 34.03719 
L 111.624934 33.926433 
L 113.751739 33.829521 
L 113.751739 33.67723 
L 116.64296 33.566473 
L 116.64296 33.552629 
L 118.849906 33.441872 
L 118.917717 33.414183 
L 120.859582 33.400338 
L 120.939723 33.234203 
L 121.913738 33.123446 
L 121.913738 33.109601 
L 124.502892 32.998844 
L 124.564538 32.971155 
L 127.326302 32.860398 
L 127.326302 32.832709 
L 129.681199 32.721952 
L 129.767505 32.694263 
L 133.349167 32.583506 
L 133.349167 32.569661 
L 135.235551 32.472749 
L 135.235551 32.445059 
L 137.966492 32.334303 
L 137.966492 32.320458 
L 141.381709 32.209701 
L 141.381709 32.195856 
L 144.260601 32.085099 
L 144.260601 32.071255 
L 145.351745 31.974343 
L 145.351745 31.946653 
L 152.286978 31.835896 
L 152.286978 31.822052 
L 158.001611 31.711295 
L 158.001611 31.69745 
L 158.10641 31.69745 
L 170.50969 31.586693 
L 170.50969 31.572849 
L 170.571336 31.572849 
L 180.212852 31.462092 
L 180.212852 31.448247 
L 197.78211 31.33749 
L 197.78211 31.323646 
L 210.777197 31.212889 
L 210.777197 31.199044 
L 230.226674 31.088287 
L 230.226674 31.060598 
L 235.213877 30.949841 
L 235.213877 30.935996 
L 250.952234 30.825239 
L 250.952234 30.811395 
L 265.340532 30.700638 
L 265.340532 30.686793 
L 275.388915 30.589881 
L 275.388915 30.562192 
L 295.57815 30.451435 
L 295.57815 30.43759 
L 295.602809 30.43759 
L 335.790175 30.326833 
L 335.790175 30.312989 
L 335.827163 30.312989 
L 335.96895 30.285299 
L 335.96895 30.285299 
" clip-path="url(#p99f429e700)" style="fill: none; stroke: #800080; stroke-width: 1.5; stroke-linecap: square"/>
   </g>
   <g id="line2d_14">
    <path d="M 75.074712 225.591288 
L 75.364451 168.883744 
L 75.37678 167.776175 
L 75.487744 151.328772 
L 75.500073 150.830365 
L 75.611037 138.550192 
L 75.617201 138.550192 
L 75.728165 128.775893 
L 75.73433 128.623602 
L 75.845293 120.136853 
L 75.851458 119.873805 
L 75.962422 114.84821 
L 75.968586 114.84821 
L 75.968586 114.737453 
L 76.07955 106.444529 
L 76.085715 106.444529 
L 76.196679 99.979093 
L 76.202843 99.979093 
L 76.313807 93.735172 
L 76.319972 93.735172 
L 76.430935 87.809676 
L 76.4371 87.809676 
L 76.548064 82.008782 
L 76.554228 82.008782 
L 76.665192 78.035378 
L 76.671357 78.035378 
L 76.671357 77.966155 
L 76.782321 73.923527 
L 76.79465 73.895838 
L 76.905614 71.182293 
L 76.917943 71.11307 
L 77.028907 69.064067 
L 77.035071 69.064067 
L 77.146035 66.475124 
L 77.1522 66.475124 
L 77.263163 63.803113 
L 77.281657 63.692356 
L 77.392621 62.141759 
L 77.398786 62.141759 
L 77.509749 61.241859 
L 77.528243 61.228015 
L 77.639207 59.815864 
L 77.645372 59.815864 
L 77.756336 58.69445 
L 77.787159 58.611382 
L 77.879629 57.545347 
L 77.904287 57.545347 
L 78.015251 56.17473 
L 78.03991 56.105507 
L 78.150873 55.260986 
L 78.163203 55.233296 
L 78.274166 54.319552 
L 78.30499 54.222639 
L 78.415953 53.558098 
L 78.440612 53.488875 
L 78.551576 52.838178 
L 78.55774 52.838178 
L 78.662539 52.104413 
L 78.681033 52.03519 
L 78.791997 51.342959 
L 78.82282 51.232202 
L 78.933784 50.678418 
L 78.958443 50.59535 
L 79.069406 50.110789 
L 79.081736 50.05541 
L 79.192699 49.487781 
L 79.217358 49.377024 
L 79.328322 48.79555 
L 79.383804 48.712482 
L 79.494767 48.172542 
L 79.550249 48.089475 
L 79.642719 47.771049 
L 79.741353 47.674136 
L 79.833823 47.466467 
L 79.907799 47.35571 
L 80.018763 47.051129 
L 80.123562 46.940372 
L 80.234526 46.538878 
L 80.314666 46.428121 
L 80.42563 46.206607 
L 80.50577 46.09585 
L 80.616734 45.846647 
L 80.666051 45.73589 
L 80.77085 45.500532 
L 80.875649 45.389775 
L 80.986613 45.237484 
L 81.097577 45.126727 
L 81.171553 45.029815 
L 81.307175 44.932902 
L 81.418139 44.725233 
L 81.467456 44.628321 
L 81.559926 44.531409 
L 81.701713 44.420652 
L 81.800347 44.282206 
L 81.917476 44.171449 
L 82.028439 44.074536 
L 82.120909 43.963779 
L 82.231873 43.728421 
L 82.324343 43.617664 
L 82.435306 43.493063 
L 82.54627 43.382306 
L 82.657234 43.285393 
L 82.792856 43.174636 
L 82.885326 43.008501 
L 83.002454 42.897744 
L 83.101089 42.648541 
L 83.224382 42.537784 
L 83.316852 42.302426 
L 83.477133 42.191669 
L 83.588096 42.067067 
L 83.859341 41.95631 
L 83.933317 41.873243 
L 84.05661 41.762486 
L 84.13675 41.679418 
L 84.303196 41.568661 
L 84.40183 41.444059 
L 84.58677 41.333303 
L 84.67924 41.250235 
L 84.962814 41.139478 
L 85.061448 41.028721 
L 85.2094 40.931809 
L 85.308034 40.751829 
L 85.523797 40.641072 
L 85.628596 40.585693 
L 85.83203 40.474936 
L 85.918335 40.378024 
L 86.251226 40.267267 
L 86.356025 40.101132 
L 86.448495 39.990375 
L 86.559459 39.921152 
L 86.732069 39.810395 
L 86.812209 39.727327 
L 87.441004 39.61657 
L 87.527309 39.478124 
L 87.693755 39.367367 
L 87.786224 39.270455 
L 88.174597 39.159698 
L 88.285561 39.090475 
L 88.421184 38.979718 
L 88.525983 38.813583 
L 88.692428 38.702826 
L 88.74791 38.661292 
L 89.173271 38.550535 
L 89.27807 38.481312 
L 89.592467 38.398244 
L 89.63562 38.315176 
L 89.99317 38.204419 
L 90.060981 38.149041 
L 90.344555 38.038284 
L 90.424695 37.982906 
L 90.985679 37.872149 
L 91.096642 37.81677 
L 91.645297 37.719858 
L 91.713108 37.664479 
L 92.02134 37.553723 
L 92.052164 37.526033 
L 92.656299 37.415276 
L 92.687123 37.387587 
L 93.112484 37.27683 
L 93.18646 37.249141 
L 93.617985 37.138384 
L 93.648808 37.110695 
L 94.277603 36.999938 
L 94.370073 36.958404 
L 94.986538 36.847647 
L 95.097502 36.792269 
L 95.498204 36.681512 
L 95.609168 36.612289 
L 96.361255 36.501532 
L 96.361255 36.487687 
L 98.112016 36.37693 
L 98.112016 36.363086 
L 99.221654 36.252329 
L 99.314124 36.224639 
L 100.368279 36.113883 
L 100.368279 36.100038 
L 101.200507 35.989281 
L 101.200507 35.975436 
L 102.026571 35.864679 
L 102.137534 35.795456 
L 104.812993 35.684699 
L 104.812993 35.670855 
L 106.132229 35.560098 
L 106.206205 35.532409 
L 107.032268 35.449341 
L 107.124738 35.380118 
L 108.154235 35.269361 
L 108.154235 35.255516 
L 109.085097 35.144759 
L 109.11592 35.11707 
L 110.404333 35.006313 
L 110.404333 34.992469 
L 110.89134 34.881712 
L 110.89134 34.867867 
L 111.4215 34.75711 
L 111.464653 34.715576 
L 112.22907 34.604819 
L 112.22907 34.590975 
L 113.092121 34.480218 
L 113.092121 34.452529 
L 113.782562 34.341772 
L 113.782562 34.327927 
L 114.61479 34.21717 
L 114.657943 34.189481 
L 115.67511 34.078724 
L 115.67511 34.051035 
L 116.143624 33.940278 
L 116.248423 33.912589 
L 117.055992 33.801832 
L 117.068321 33.774143 
L 117.832738 33.663386 
L 117.838903 33.635696 
L 119.404725 33.524939 
L 119.404725 33.49725 
L 120.686972 33.386493 
L 120.760948 33.344959 
L 121.630164 33.248047 
L 121.630164 33.220358 
L 123.269961 33.109601 
L 123.269961 33.095756 
L 124.428916 32.984999 
L 124.441245 32.95731 
L 126.155019 32.846553 
L 126.155019 32.832709 
L 127.492748 32.721952 
L 127.492748 32.708107 
L 129.132545 32.59735 
L 129.132545 32.583506 
L 129.237345 32.583506 
L 130.420958 32.472749 
L 130.420958 32.458904 
L 134.236877 32.348147 
L 134.236877 32.334303 
L 137.189746 32.223546 
L 137.189746 32.209701 
L 142.935201 32.098944 
L 142.935201 32.085099 
L 146.597005 31.974343 
L 146.597005 31.960498 
L 151.448586 31.849741 
L 151.448586 31.835896 
L 156.793339 31.725139 
L 156.793339 31.711295 
L 163.76556 31.600538 
L 163.76556 31.586693 
L 174.418079 31.475936 
L 174.529043 31.448247 
L 182.567749 31.33749 
L 182.567749 31.323646 
L 195.248438 31.212889 
L 195.248438 31.199044 
L 201.320621 31.088287 
L 201.320621 31.074443 
L 218.606305 30.963686 
L 218.606305 30.949841 
L 247.074668 30.839084 
L 247.074668 30.825239 
L 271.215445 30.714483 
L 271.215445 30.700638 
L 279.100035 30.589881 
L 279.100035 30.576036 
L 290.07928 30.465279 
L 290.07928 30.451435 
L 314.078271 30.340678 
L 314.078271 30.326833 
L 335.96895 30.285299 
L 335.96895 30.285299 
" clip-path="url(#p99f429e700)" style="fill: none; stroke: #228b22; stroke-width: 1.5; stroke-linecap: square"/>
   </g>
   <g id="line2d_15">
    <path d="M 75.074712 225.591288 
L 75.740494 148.006064 
L 75.752824 147.466124 
L 75.863787 135.504376 
L 75.869952 135.504376 
L 75.869952 135.421309 
L 75.980916 129.011252 
L 75.98708 129.011252 
L 75.98708 128.955873 
L 76.098044 118.98775 
L 76.104209 118.98775 
L 76.104209 118.932372 
L 76.215173 113.422215 
L 76.221337 113.422215 
L 76.332301 106.250704 
L 76.338466 106.250704 
L 76.449429 96.753298 
L 76.455594 96.753298 
L 76.560393 92.267642 
L 76.572722 92.267642 
L 76.683686 88.543441 
L 76.689851 88.543441 
L 76.800814 85.137666 
L 76.813144 85.082287 
L 76.924108 79.75211 
L 76.930272 79.75211 
L 77.041236 76.927809 
L 77.047401 76.927809 
L 77.158364 74.17273 
L 77.164529 74.17273 
L 77.275493 72.01297 
L 77.300151 71.971436 
L 77.411115 70.448529 
L 77.41728 70.448529 
L 77.522079 69.022533 
L 77.546737 68.980999 
L 77.657701 67.582693 
L 77.68236 67.485781 
L 77.793323 65.672136 
L 77.817982 65.616758 
L 77.928946 63.803113 
L 77.93511 63.803113 
L 78.046074 62.723233 
L 78.064568 62.681699 
L 78.175532 61.615664 
L 78.187861 61.532596 
L 78.298825 60.757298 
L 78.311154 60.729609 
L 78.415953 59.871242 
L 78.440612 59.843553 
L 78.551576 59.109789 
L 78.588564 59.012876 
L 78.699527 57.988375 
L 78.711857 57.988375 
L 78.82282 57.365367 
L 78.884467 57.296144 
L 78.995431 56.756204 
L 79.020089 56.659292 
L 79.131053 55.773236 
L 79.18037 55.662479 
L 79.291334 54.970249 
L 79.322157 54.859492 
L 79.389968 54.610289 
L 79.451615 54.513376 
L 79.562579 53.973436 
L 79.593402 53.904213 
L 79.704366 53.198138 
L 79.729024 53.087381 
L 79.827659 52.602819 
L 79.852317 52.519752 
L 79.963281 52.03519 
L 79.994104 51.965967 
L 80.105068 51.647541 
L 80.185208 51.536784 
L 80.296172 51.259892 
L 80.326995 51.149135 
L 80.437959 50.706107 
L 80.450288 50.650729 
L 80.555088 50.249235 
L 80.59824 50.152322 
L 80.696875 49.778518 
L 80.801674 49.667761 
L 80.912637 49.15551 
L 80.937296 49.058598 
L 81.04826 48.754016 
L 81.097577 48.657104 
L 81.165388 48.283299 
L 81.276352 48.186387 
L 81.387316 47.854116 
L 81.442797 47.743359 
L 81.535267 47.438778 
L 81.596914 47.35571 
L 81.695548 47.134196 
L 81.732536 47.023439 
L 81.837335 46.760392 
L 81.929805 46.649635 
L 82.034604 46.317364 
L 82.102415 46.206607 
L 82.207214 45.957404 
L 82.293519 45.860492 
L 82.398318 45.625133 
L 82.478459 45.514376 
L 82.589423 45.292862 
L 82.73121 45.182106 
L 82.842173 44.960592 
L 82.922314 44.849835 
L 83.027113 44.65601 
L 83.144241 44.559098 
L 83.242876 44.448341 
L 83.35384 44.337584 
L 83.458639 44.157604 
L 83.507956 44.074536 
L 83.61892 43.922246 
L 83.736048 43.839178 
L 83.847012 43.714576 
L 84.093598 43.603819 
L 84.192232 43.506907 
L 84.303196 43.39615 
L 84.407995 43.313083 
L 84.592935 43.21617 
L 84.685404 43.105413 
L 84.913497 42.994656 
L 84.968978 42.897744 
L 85.123095 42.786987 
L 85.227894 42.607007 
L 85.443657 42.49625 
L 85.529962 42.413183 
L 85.764218 42.302426 
L 85.875182 42.191669 
L 86.023134 42.080912 
L 86.109439 42.039378 
L 86.325202 41.928621 
L 86.337531 41.900932 
L 86.664258 41.790175 
L 86.769057 41.707107 
L 86.886185 41.59635 
L 86.98482 41.527127 
L 87.188253 41.41637 
L 87.225241 41.374836 
L 87.564297 41.291769 
L 87.632108 41.194856 
L 87.928011 41.084099 
L 88.020481 40.987187 
L 88.39036 40.87643 
L 88.48283 40.710295 
L 88.846545 40.599538 
L 88.945179 40.51647 
L 89.062307 40.405713 
L 89.142448 40.350335 
L 89.426022 40.253423 
L 89.536986 40.15651 
L 90.011664 40.045753 
L 90.08564 39.97653 
L 90.652788 39.865773 
L 90.745257 39.838084 
L 91.102807 39.741172 
L 91.164454 39.685793 
L 91.552827 39.575036 
L 91.552827 39.547347 
L 92.255597 39.43659 
L 92.29875 39.395056 
L 92.995355 39.284299 
L 93.106319 39.228921 
L 93.685796 39.118164 
L 93.735114 39.090475 
L 94.203627 38.979718 
L 94.283768 38.952029 
L 94.518024 38.841272 
L 94.616659 38.785893 
L 95.362582 38.675136 
L 95.430393 38.633603 
L 95.942059 38.522846 
L 95.942059 38.509001 
L 96.663323 38.398244 
L 96.743464 38.370555 
L 97.3476 38.259798 
L 97.440069 38.190575 
L 98.22298 38.079818 
L 98.253803 38.052129 
L 99.166172 37.941372 
L 99.172337 37.913683 
L 99.671673 37.81677 
L 99.751814 37.733703 
L 100.503901 37.622946 
L 100.596371 37.581412 
L 101.052556 37.470655 
L 101.077214 37.429121 
L 101.983418 37.318364 
L 102.088217 37.27683 
L 102.747835 37.166073 
L 102.821811 37.124539 
L 104.023918 37.013783 
L 104.128717 36.986093 
L 104.886969 36.889181 
L 104.979439 36.819958 
L 105.737691 36.709201 
L 105.836325 36.612289 
L 106.409638 36.501532 
L 106.409638 36.487687 
L 107.365159 36.37693 
L 107.365159 36.349241 
L 108.363833 36.238484 
L 108.363833 36.224639 
L 109.263872 36.113883 
L 109.270037 36.086193 
L 110.657083 35.975436 
L 110.71873 35.920058 
L 112.179752 35.809301 
L 112.179752 35.795456 
L 113.91202 35.684699 
L 113.91202 35.670855 
L 116.051154 35.560098 
L 116.051154 35.546253 
L 117.518341 35.435496 
L 117.629305 35.380118 
L 118.32591 35.269361 
L 118.412216 35.213983 
L 119.022516 35.103226 
L 119.114986 35.020158 
L 119.873238 34.909401 
L 119.879403 34.867867 
L 120.243117 34.75711 
L 120.261611 34.729421 
L 121.334261 34.618664 
L 121.408236 34.563286 
L 122.104842 34.452529 
L 122.135665 34.424839 
L 123.313114 34.314083 
L 123.350102 34.286393 
L 124.336446 34.175636 
L 124.336446 34.161792 
L 124.811124 34.051035 
L 124.922088 34.009501 
L 125.883774 33.898744 
L 125.896103 33.85721 
L 126.537227 33.746453 
L 126.555721 33.718764 
L 127.431101 33.608007 
L 127.535901 33.566473 
L 129.132545 33.455716 
L 129.151039 33.428027 
L 130.192866 33.31727 
L 130.192866 33.289581 
L 134.051938 33.178824 
L 134.051938 33.164979 
L 138.071291 33.054223 
L 138.151431 33.026533 
L 142.331065 32.915776 
L 142.331065 32.901932 
L 145.475038 32.791175 
L 145.475038 32.77733 
L 148.014875 32.666573 
L 148.076521 32.625039 
L 150.456077 32.514283 
L 150.456077 32.500438 
L 150.536217 32.500438 
L 153.643202 32.389681 
L 153.643202 32.375836 
L 156.349484 32.265079 
L 156.349484 32.251235 
L 160.874339 32.140478 
L 160.874339 32.126633 
L 165.664273 32.015876 
L 165.664273 32.002032 
L 170.503525 31.891275 
L 170.503525 31.87743 
L 180.958775 31.766673 
L 180.958775 31.752829 
L 185.952143 31.642072 
L 185.952143 31.628227 
L 197.381408 31.51747 
L 197.381408 31.503626 
L 209.248363 31.392869 
L 209.248363 31.379024 
L 223.9264 31.268267 
L 223.9264 31.254423 
L 246.593825 31.143666 
L 246.593825 31.129821 
L 262.332182 31.019064 
L 262.332182 31.005219 
L 278.859614 30.894463 
L 278.859614 30.880618 
L 324.804765 30.769861 
L 324.804765 30.756016 
L 332.035902 30.645259 
L 332.116042 30.61757 
L 333.022246 30.506813 
L 333.108551 30.479124 
L 334.316823 30.368367 
L 334.396964 30.326833 
L 335.96895 30.285299 
L 335.96895 30.285299 
" clip-path="url(#p99f429e700)" style="fill: none; stroke: #0000cd; stroke-width: 1.5; stroke-linecap: square"/>
   </g>
   <g id="line2d_16">
    <path d="M 75.074712 225.591288 
L 75.308969 182.534535 
L 75.382945 178.879556 
L 75.493908 161.269205 
L 75.500073 160.535441 
L 75.611037 148.656761 
L 75.617201 148.14451 
L 75.728165 136.708858 
L 75.73433 136.431965 
L 75.845293 124.124102 
L 75.851458 123.84721 
L 75.962422 115.761955 
L 75.968586 115.761955 
L 75.968586 115.651198 
L 76.07955 107.496719 
L 76.085715 107.496719 
L 76.085715 107.413652 
L 76.196679 101.778893 
L 76.202843 101.778893 
L 76.313807 96.033378 
L 76.326136 95.922621 
L 76.4371 90.537065 
L 76.449429 90.523221 
L 76.560393 85.276112 
L 76.578887 85.179199 
L 76.671357 81.344241 
L 76.696015 81.344241 
L 76.806979 77.841553 
L 76.825473 77.730796 
L 76.936437 75.598726 
L 76.942601 75.598726 
L 77.053565 73.605101 
L 77.078224 73.522033 
L 77.189188 70.766955 
L 77.195352 70.766955 
L 77.306316 68.108789 
L 77.32481 68.039566 
L 77.435774 65.519846 
L 77.460432 65.409089 
L 77.571396 63.318552 
L 77.58989 63.221639 
L 77.700854 61.712576 
L 77.707018 61.712576 
L 77.817982 60.563473 
L 77.824147 60.563473 
L 77.93511 59.455904 
L 77.94744 59.455904 
L 78.03991 58.583693 
L 78.095391 58.542159 
L 78.206355 57.476124 
L 78.237178 57.365367 
L 78.335813 56.728515 
L 78.366636 56.645447 
L 78.459106 55.63479 
L 78.514588 55.607101 
L 78.625551 54.485687 
L 78.644045 54.416464 
L 78.748845 53.876524 
L 78.761174 53.876524 
L 78.872138 53.087381 
L 78.896796 53.045847 
L 79.00776 52.39515 
L 79.069406 52.284393 
L 79.18037 51.785987 
L 79.205029 51.67523 
L 79.315992 50.886087 
L 79.36531 50.77533 
L 79.476273 50.484593 
L 79.531755 50.373836 
L 79.642719 49.986187 
L 79.692036 49.87543 
L 79.784506 49.529315 
L 79.839988 49.446247 
L 79.932458 48.892462 
L 79.97561 48.837084 
L 80.086574 48.477124 
L 80.123562 48.394056 
L 80.228361 47.923339 
L 80.265349 47.812582 
L 80.363983 47.646447 
L 80.400971 47.53569 
L 80.511935 47.397244 
L 80.585911 47.300332 
L 80.696875 46.691169 
L 80.752356 46.580412 
L 80.850991 46.386587 
L 80.937296 46.289675 
L 81.03593 46.040472 
L 81.103742 45.943559 
L 81.214705 45.652822 
L 81.257858 45.569755 
L 81.368822 45.182106 
L 81.492115 45.071349 
L 81.590749 44.808301 
L 81.677054 44.697544 
L 81.763359 44.420652 
L 81.861994 44.309895 
L 81.972958 44.102226 
L 82.059263 44.005313 
L 82.170226 43.783799 
L 82.28119 43.686887 
L 82.392154 43.465373 
L 82.509282 43.354616 
L 82.614081 43.160792 
L 82.755868 43.050035 
L 82.836009 42.897744 
L 82.940808 42.814676 
L 83.014784 42.703919 
L 83.199723 42.593163 
L 83.286028 42.427027 
L 83.409321 42.343959 
L 83.514121 42.191669 
L 83.643578 42.080912 
L 83.717554 42.011689 
L 83.914823 41.900932 
L 84.019622 41.790175 
L 84.087433 41.679418 
L 84.179903 41.527127 
L 84.327855 41.41637 
L 84.426489 41.208701 
L 84.568276 41.097944 
L 84.660746 40.959498 
L 84.876509 40.848741 
L 84.962814 40.751829 
L 85.252552 40.641072 
L 85.351187 40.571849 
L 85.455986 40.461092 
L 85.455986 40.447247 
L 85.653255 40.378024 
L 85.73956 40.253423 
L 86.047792 40.15651 
L 86.066286 40.114976 
L 86.306708 40.004219 
L 86.411507 39.879618 
L 86.639599 39.768861 
L 86.738234 39.713483 
L 86.97249 39.602726 
L 87.052631 39.491969 
L 87.268394 39.395056 
L 87.379357 39.311989 
L 87.625943 39.201232 
L 87.736907 39.118164 
L 87.897188 39.007407 
L 87.946505 38.965873 
L 88.21775 38.855116 
L 88.21775 38.841272 
L 88.562971 38.730515 
L 88.643111 38.688981 
L 89.006825 38.578224 
L 89.086966 38.522846 
L 89.376705 38.412089 
L 89.487668 38.259798 
L 89.876041 38.149041 
L 89.968511 38.107507 
L 90.492507 37.99675 
L 90.591141 37.913683 
L 90.862386 37.802926 
L 90.911703 37.747547 
L 91.244594 37.63679 
L 91.337064 37.609101 
L 91.577485 37.512189 
L 91.626803 37.442966 
L 92.29875 37.332209 
L 92.403549 37.27683 
L 92.853568 37.166073 
L 92.946038 37.138384 
L 93.278929 37.027627 
L 93.377564 36.999938 
L 93.722784 36.889181 
L 93.79676 36.833803 
L 94.598165 36.723046 
L 94.702964 36.612289 
L 95.017361 36.501532 
L 95.017361 36.487687 
L 95.47971 36.37693 
L 95.57218 36.335396 
L 96.065352 36.238484 
L 96.120834 36.19695 
L 97.242801 36.086193 
L 97.3476 35.975436 
L 97.846936 35.864679 
L 97.846936 35.850835 
L 98.685329 35.740078 
L 98.777799 35.712389 
L 99.659344 35.601632 
L 99.659344 35.587787 
L 100.466914 35.47703 
L 100.522395 35.407807 
L 101.305306 35.310895 
L 101.305306 35.283206 
L 102.723176 35.172449 
L 102.723176 35.158604 
L 103.962271 35.047847 
L 104.073235 34.992469 
L 104.621889 34.881712 
L 104.621889 34.867867 
L 105.250684 34.75711 
L 105.275342 34.715576 
L 105.965783 34.604819 
L 105.965783 34.590975 
L 107.081585 34.480218 
L 107.081585 34.466373 
L 108.185058 34.355616 
L 108.185058 34.341772 
L 109.041945 34.231015 
L 109.146744 34.203326 
L 110.650919 34.092569 
L 110.650919 34.078724 
L 112.568125 33.967967 
L 112.629772 33.926433 
L 113.36953 33.815676 
L 113.480494 33.787987 
L 115.14495 33.67723 
L 115.14495 33.663386 
L 115.897038 33.552629 
L 115.921696 33.524939 
L 117.136133 33.414183 
L 117.136133 33.400338 
L 118.751271 33.289581 
L 118.751271 33.275736 
L 119.879403 33.164979 
L 119.879403 33.151135 
L 121.42673 33.040378 
L 121.457554 33.012689 
L 124.052872 32.901932 
L 124.052872 32.888087 
L 126.050219 32.77733 
L 126.111866 32.749641 
L 128.916783 32.638884 
L 128.916783 32.625039 
L 131.302503 32.514283 
L 131.302503 32.500438 
L 133.016276 32.389681 
L 133.016276 32.375836 
L 138.311712 32.265079 
L 138.311712 32.251235 
L 144.809256 32.140478 
L 144.809256 32.126633 
L 150.622522 32.015876 
L 150.622522 32.002032 
L 156.096733 31.891275 
L 156.096733 31.87743 
L 160.448978 31.766673 
L 160.448978 31.752829 
L 164.073793 31.642072 
L 164.160098 31.614383 
L 169.825413 31.503626 
L 169.825413 31.489781 
L 171.717962 31.379024 
L 171.74262 31.351335 
L 177.013398 31.240578 
L 177.025727 31.212889 
L 186.211058 31.102132 
L 186.217223 31.074443 
L 199.02737 30.963686 
L 199.052029 30.935996 
L 214.605446 30.825239 
L 214.605446 30.811395 
L 231.897295 30.700638 
L 231.897295 30.686793 
L 251.241973 30.576036 
L 251.241973 30.562192 
L 314.343351 30.451435 
L 314.343351 30.43759 
L 334.10106 30.326833 
L 334.138048 30.299144 
L 335.96895 30.285299 
L 335.96895 30.285299 
" clip-path="url(#p99f429e700)" style="fill: none; stroke: #8b4513; stroke-width: 1.5; stroke-linecap: square"/>
   </g>
   <g id="line2d_17">
    <path d="M 75.074712 225.591288 
L 79.833823 68.607195 
L 80.924967 56.451622 
L 80.968119 56.091662 
L 81.079083 55.510189 
L 81.103742 55.427121 
L 81.208541 54.485687 
L 81.245529 54.388775 
L 81.356492 53.765767 
L 81.40581 53.65501 
L 81.510609 53.308895 
L 81.535267 53.29505 
L 81.535267 53.198138 
L 81.646231 52.699732 
L 81.67089 52.602819 
L 81.769524 52.242859 
L 81.8435 52.132102 
L 81.954464 51.799832 
L 82.046933 51.744453 
L 82.046933 51.689075 
L 82.157897 51.342959 
L 82.225708 51.232202 
L 82.336672 50.927621 
L 82.385989 50.816864 
L 82.478459 50.443059 
L 82.527776 50.332302 
L 82.63874 50.166167 
L 82.644905 50.166167 
L 82.644905 50.083099 
L 82.743539 49.792362 
L 82.805186 49.69545 
L 82.805186 49.681606 
L 82.916149 49.307801 
L 82.959302 49.210889 
L 83.070266 48.850929 
L 83.101089 48.740172 
L 83.212053 48.407901 
L 83.273699 48.394056 
L 83.273699 48.380212 
L 83.378498 48.061786 
L 83.396992 48.061786 
L 83.520285 47.521846 
L 83.594261 47.411089 
L 83.686731 47.258798 
L 83.773036 47.148041 
L 83.877835 46.981906 
L 84.019622 46.898838 
L 84.019622 46.871149 
L 84.130586 46.649635 
L 84.223055 46.538878 
L 84.32169 46.358898 
L 84.500465 46.248141 
L 84.580605 46.054316 
L 84.833356 45.957404 
L 84.938155 45.708201 
L 85.018296 45.597444 
L 85.110765 45.514376 
L 85.234058 45.403619 
L 85.314199 45.292862 
L 85.486809 45.182106 
L 85.591608 44.946747 
L 85.73956 44.83599 
L 85.838194 44.752922 
L 85.955323 44.642166 
L 86.060122 44.531409 
L 86.201909 44.434496 
L 86.300543 44.365273 
L 86.430001 44.268361 
L 86.540965 44.143759 
L 86.645764 44.033002 
L 86.744398 43.880712 
L 86.966326 43.811489 
L 87.077289 43.673042 
L 87.219076 43.589975 
L 87.33004 43.423839 
L 87.496486 43.313083 
L 87.607449 43.243859 
L 87.743072 43.133103 
L 87.847871 42.994656 
L 88.063634 42.883899 
L 88.156103 42.814676 
L 88.267067 42.703919 
L 88.322549 42.607007 
L 88.445842 42.537784 
L 88.544477 42.440872 
L 88.772569 42.343959 
L 88.883532 42.205513 
L 89.117789 42.108601 
L 89.191765 42.053223 
L 89.506162 41.942466 
L 89.580138 41.887087 
L 89.943853 41.77633 
L 89.987005 41.734796 
L 90.43086 41.624039 
L 90.486342 41.568661 
L 90.843892 41.457904 
L 90.893209 41.388681 
L 91.05349 41.277924 
L 91.102807 41.167167 
L 92.03367 41.05641 
L 92.119975 41.001032 
L 92.292585 40.904119 
L 92.292585 40.890275 
L 92.323408 40.807207 
L 92.785757 40.69645 
L 92.878227 40.654916 
L 93.297423 40.544159 
L 93.408387 40.447247 
L 93.710455 40.33649 
L 93.821419 40.267267 
L 94.074169 40.15651 
L 94.098828 40.128821 
L 94.641317 40.018064 
L 94.715293 39.990375 
L 95.350252 39.879618 
L 95.448887 39.768861 
L 95.726296 39.671949 
L 95.824931 39.575036 
L 96.318103 39.464279 
L 96.373585 39.43659 
L 96.940733 39.325833 
L 96.940733 39.311989 
L 97.631174 39.201232 
L 97.686656 39.173543 
L 98.14284 39.062786 
L 98.155169 39.035096 
L 98.777799 38.924339 
L 98.851775 38.868961 
L 99.431252 38.758204 
L 99.542216 38.702826 
L 100.510066 38.592069 
L 100.602536 38.522846 
L 101.262154 38.412089 
L 101.360788 38.342866 
L 102.710847 38.232109 
L 102.790987 38.204419 
L 103.795826 38.093663 
L 103.857472 38.052129 
L 104.591066 37.941372 
L 104.591066 37.927527 
L 105.398635 37.81677 
L 105.503434 37.775236 
L 106.323333 37.678324 
L 106.37265 37.63679 
L 107.192549 37.539878 
L 107.272689 37.498344 
L 108.215881 37.387587 
L 108.215881 37.373743 
L 109.689233 37.262986 
L 109.689233 37.249141 
L 111.100938 37.138384 
L 111.144091 37.110695 
L 112.346198 36.999938 
L 112.438668 36.944559 
L 113.597622 36.833803 
L 113.64694 36.792269 
L 115.175773 36.681512 
L 115.175773 36.667667 
L 117.01284 36.55691 
L 117.086815 36.529221 
L 118.350569 36.418464 
L 118.350569 36.404619 
L 120.828759 36.293863 
L 120.859582 36.266173 
L 122.530203 36.155416 
L 122.635002 36.100038 
L 123.37476 35.989281 
L 123.37476 35.975436 
L 125.131686 35.864679 
L 125.168674 35.83699 
L 127.770157 35.726233 
L 127.819475 35.698544 
L 129.348308 35.587787 
L 129.348308 35.573943 
L 132.344329 35.463186 
L 132.344329 35.449341 
L 134.113584 35.338584 
L 134.113584 35.324739 
L 136.579445 35.213983 
L 136.684244 35.158604 
L 138.564463 35.047847 
L 138.564463 35.034003 
L 140.709762 34.923246 
L 140.709762 34.909401 
L 140.728256 34.909401 
L 142.762591 34.812489 
L 142.78725 34.770955 
L 144.729115 34.660198 
L 144.729115 34.646353 
L 147.096341 34.535596 
L 147.182647 34.507907 
L 149.143006 34.39715 
L 149.143006 34.383306 
L 150.209491 34.272549 
L 150.209491 34.258704 
L 153.452098 34.161792 
L 153.470592 34.023346 
L 156.947455 33.912589 
L 156.947455 33.898744 
L 157.958458 33.787987 
L 157.958458 33.774143 
L 162.039458 33.67723 
L 162.150422 33.566473 
L 164.092287 33.455716 
L 164.092287 33.441872 
L 168.678788 33.331115 
L 168.678788 33.303426 
L 172.19264 33.192669 
L 172.19264 33.178824 
L 174.775629 33.068067 
L 174.775629 33.040378 
L 179.682692 32.929621 
L 179.750503 32.818864 
L 184.984293 32.708107 
L 184.984293 32.666573 
L 187.117262 32.638884 
L 187.160415 32.500438 
L 188.639931 32.389681 
L 188.639931 32.375836 
L 190.211918 32.265079 
L 190.211918 32.223546 
L 195.026511 32.112789 
L 195.026511 32.098944 
L 197.036187 31.988187 
L 197.060846 31.960498 
L 202.269977 31.849741 
L 202.269977 31.835896 
L 206.11672 31.725139 
L 206.11672 31.711295 
L 214.506811 31.669761 
L 214.506811 31.586693 
L 217.72476 31.475936 
L 217.72476 31.462092 
L 218.766586 31.420558 
L 218.766586 31.33749 
L 219.259758 31.254423 
L 335.96895 30.285299 
L 335.96895 30.285299 
" clip-path="url(#p99f429e700)" style="fill: none; stroke: #000000; stroke-width: 1.5; stroke-linecap: square"/>
   </g>
   <g id="patch_3">
    <path d="M 62.03 235.356588 
L 62.03 20.52 
" style="fill: none; stroke: #000000; stroke-width: 0.8; stroke-linejoin: miter; stroke-linecap: square"/>
   </g>
   <g id="patch_4">
    <path d="M 349.013662 235.356588 
L 349.013662 20.52 
" style="fill: none; stroke: #000000; stroke-width: 0.8; stroke-linejoin: miter; stroke-linecap: square"/>
   </g>
   <g id="patch_5">
    <path d="M 62.03 235.356588 
L 349.013662 235.356588 
" style="fill: none; stroke: #000000; stroke-width: 0.8; stroke-linejoin: miter; stroke-linecap: square"/>
   </g>
   <g id="patch_6">
    <path d="M 62.03 20.52 
L 349.013662 20.52 
" style="fill: none; stroke: #000000; stroke-width: 0.8; stroke-linejoin: miter; stroke-linecap: square"/>
   </g>
   <g id="legend_1">
    <g id="patch_7">
     <path d="M 190.111162 229.356588 
L 340.613662 229.356588 
Q 343.013662 229.356588 343.013662 226.956588 
L 343.013662 140.087838 
Q 343.013662 137.687838 340.613662 137.687838 
L 190.111162 137.687838 
Q 187.711162 137.687838 187.711162 140.087838 
L 187.711162 226.956588 
Q 187.711162 229.356588 190.111162 229.356588 
z
" style="fill: #ffffff; opacity: 0.8; stroke: #cccccc; stroke-linejoin: miter"/>
    </g>
    <g id="line2d_18">
     <path d="M 192.511162 147.405963 
L 204.511162 147.405963 
L 216.511162 147.405963 
" style="fill: none; stroke: #800080; stroke-width: 1.5; stroke-linecap: square"/>
    </g>
    <g id="text_15">
     <!-- RC aggregated -->
     <g transform="translate(226.111162 151.605963) scale(0.12 -0.12)">
      <defs>
       <path id="DejaVuSans-52" d="M 2841 2188 
Q 3044 2119 3236 1894 
Q 3428 1669 3622 1275 
L 4263 0 
L 3584 0 
L 2988 1197 
Q 2756 1666 2539 1819 
Q 2322 1972 1947 1972 
L 1259 1972 
L 1259 0 
L 628 0 
L 628 4666 
L 2053 4666 
Q 2853 4666 3247 4331 
Q 3641 3997 3641 3322 
Q 3641 2881 3436 2590 
Q 3231 2300 2841 2188 
z
M 1259 4147 
L 1259 2491 
L 2053 2491 
Q 2509 2491 2742 2702 
Q 2975 2913 2975 3322 
Q 2975 3731 2742 3939 
Q 2509 4147 2053 4147 
L 1259 4147 
z
" transform="scale(0.015625)"/>
       <path id="DejaVuSans-43" d="M 4122 4306 
L 4122 3641 
Q 3803 3938 3442 4084 
Q 3081 4231 2675 4231 
Q 1875 4231 1450 3742 
Q 1025 3253 1025 2328 
Q 1025 1406 1450 917 
Q 1875 428 2675 428 
Q 3081 428 3442 575 
Q 3803 722 4122 1019 
L 4122 359 
Q 3791 134 3420 21 
Q 3050 -91 2638 -91 
Q 1578 -91 968 557 
Q 359 1206 359 2328 
Q 359 3453 968 4101 
Q 1578 4750 2638 4750 
Q 3056 4750 3426 4639 
Q 3797 4528 4122 4306 
z
" transform="scale(0.015625)"/>
       <path id="DejaVuSans-67" d="M 2906 1791 
Q 2906 2416 2648 2759 
Q 2391 3103 1925 3103 
Q 1463 3103 1205 2759 
Q 947 2416 947 1791 
Q 947 1169 1205 825 
Q 1463 481 1925 481 
Q 2391 481 2648 825 
Q 2906 1169 2906 1791 
z
M 3481 434 
Q 3481 -459 3084 -895 
Q 2688 -1331 1869 -1331 
Q 1566 -1331 1297 -1286 
Q 1028 -1241 775 -1147 
L 775 -588 
Q 1028 -725 1275 -790 
Q 1522 -856 1778 -856 
Q 2344 -856 2625 -561 
Q 2906 -266 2906 331 
L 2906 616 
Q 2728 306 2450 153 
Q 2172 0 1784 0 
Q 1141 0 747 490 
Q 353 981 353 1791 
Q 353 2603 747 3093 
Q 1141 3584 1784 3584 
Q 2172 3584 2450 3431 
Q 2728 3278 2906 2969 
L 2906 3500 
L 3481 3500 
L 3481 434 
z
" transform="scale(0.015625)"/>
       <path id="DejaVuSans-64" d="M 2906 2969 
L 2906 4863 
L 3481 4863 
L 3481 0 
L 2906 0 
L 2906 525 
Q 2725 213 2448 61 
Q 2172 -91 1784 -91 
Q 1150 -91 751 415 
Q 353 922 353 1747 
Q 353 2572 751 3078 
Q 1150 3584 1784 3584 
Q 2172 3584 2448 3432 
Q 2725 3281 2906 2969 
z
M 947 1747 
Q 947 1113 1208 752 
Q 1469 391 1925 391 
Q 2381 391 2643 752 
Q 2906 1113 2906 1747 
Q 2906 2381 2643 2742 
Q 2381 3103 1925 3103 
Q 1469 3103 1208 2742 
Q 947 2381 947 1747 
z
" transform="scale(0.015625)"/>
      </defs>
      <use xlink:href="#DejaVuSans-52"/>
      <use xlink:href="#DejaVuSans-43" x="64.482422"/>
      <use xlink:href="#DejaVuSans-20" x="134.306641"/>
      <use xlink:href="#DejaVuSans-61" x="166.09375"/>
      <use xlink:href="#DejaVuSans-67" x="227.373047"/>
      <use xlink:href="#DejaVuSans-67" x="290.849609"/>
      <use xlink:href="#DejaVuSans-72" x="354.326172"/>
      <use xlink:href="#DejaVuSans-65" x="393.189453"/>
      <use xlink:href="#DejaVuSans-67" x="454.712891"/>
      <use xlink:href="#DejaVuSans-61" x="518.189453"/>
      <use xlink:href="#DejaVuSans-74" x="579.46875"/>
      <use xlink:href="#DejaVuSans-65" x="618.677734"/>
      <use xlink:href="#DejaVuSans-64" x="680.201172"/>
     </g>
    </g>
    <g id="line2d_19">
     <path d="M 192.511162 165.019713 
L 204.511162 165.019713 
L 216.511162 165.019713 
" style="fill: none; stroke: #228b22; stroke-width: 1.5; stroke-linecap: square"/>
    </g>
    <g id="text_16">
     <!-- RC connected -->
     <g transform="translate(226.111162 169.219713) scale(0.12 -0.12)">
      <defs>
       <path id="DejaVuSans-63" d="M 3122 3366 
L 3122 2828 
Q 2878 2963 2633 3030 
Q 2388 3097 2138 3097 
Q 1578 3097 1268 2742 
Q 959 2388 959 1747 
Q 959 1106 1268 751 
Q 1578 397 2138 397 
Q 2388 397 2633 464 
Q 2878 531 3122 666 
L 3122 134 
Q 2881 22 2623 -34 
Q 2366 -91 2075 -91 
Q 1284 -91 818 406 
Q 353 903 353 1747 
Q 353 2603 823 3093 
Q 1294 3584 2113 3584 
Q 2378 3584 2631 3529 
Q 2884 3475 3122 3366 
z
" transform="scale(0.015625)"/>
       <path id="DejaVuSans-6e" d="M 3513 2113 
L 3513 0 
L 2938 0 
L 2938 2094 
Q 2938 2591 2744 2837 
Q 2550 3084 2163 3084 
Q 1697 3084 1428 2787 
Q 1159 2491 1159 1978 
L 1159 0 
L 581 0 
L 581 3500 
L 1159 3500 
L 1159 2956 
Q 1366 3272 1645 3428 
Q 1925 3584 2291 3584 
Q 2894 3584 3203 3211 
Q 3513 2838 3513 2113 
z
" transform="scale(0.015625)"/>
      </defs>
      <use xlink:href="#DejaVuSans-52"/>
      <use xlink:href="#DejaVuSans-43" x="64.482422"/>
      <use xlink:href="#DejaVuSans-20" x="134.306641"/>
      <use xlink:href="#DejaVuSans-63" x="166.09375"/>
      <use xlink:href="#DejaVuSans-6f" x="221.074219"/>
      <use xlink:href="#DejaVuSans-6e" x="282.255859"/>
      <use xlink:href="#DejaVuSans-6e" x="345.634766"/>
      <use xlink:href="#DejaVuSans-65" x="409.013672"/>
      <use xlink:href="#DejaVuSans-63" x="470.537109"/>
      <use xlink:href="#DejaVuSans-74" x="525.517578"/>
      <use xlink:href="#DejaVuSans-65" x="564.726562"/>
      <use xlink:href="#DejaVuSans-64" x="626.25"/>
     </g>
    </g>
    <g id="line2d_20">
     <path d="M 192.511162 182.633463 
L 204.511162 182.633463 
L 216.511162 182.633463 
" style="fill: none; stroke: #0000cd; stroke-width: 1.5; stroke-linecap: square"/>
    </g>
    <g id="text_17">
     <!-- Bag of molecules -->
     <g transform="translate(226.111162 186.833463) scale(0.12 -0.12)">
      <defs>
       <path id="DejaVuSans-42" d="M 1259 2228 
L 1259 519 
L 2272 519 
Q 2781 519 3026 730 
Q 3272 941 3272 1375 
Q 3272 1813 3026 2020 
Q 2781 2228 2272 2228 
L 1259 2228 
z
M 1259 4147 
L 1259 2741 
L 2194 2741 
Q 2656 2741 2882 2914 
Q 3109 3088 3109 3444 
Q 3109 3797 2882 3972 
Q 2656 4147 2194 4147 
L 1259 4147 
z
M 628 4666 
L 2241 4666 
Q 2963 4666 3353 4366 
Q 3744 4066 3744 3513 
Q 3744 3084 3544 2831 
Q 3344 2578 2956 2516 
Q 3422 2416 3680 2098 
Q 3938 1781 3938 1306 
Q 3938 681 3513 340 
Q 3088 0 2303 0 
L 628 0 
L 628 4666 
z
" transform="scale(0.015625)"/>
       <path id="DejaVuSans-66" d="M 2375 4863 
L 2375 4384 
L 1825 4384 
Q 1516 4384 1395 4259 
Q 1275 4134 1275 3809 
L 1275 3500 
L 2222 3500 
L 2222 3053 
L 1275 3053 
L 1275 0 
L 697 0 
L 697 3053 
L 147 3053 
L 147 3500 
L 697 3500 
L 697 3744 
Q 697 4328 969 4595 
Q 1241 4863 1831 4863 
L 2375 4863 
z
" transform="scale(0.015625)"/>
       <path id="DejaVuSans-6d" d="M 3328 2828 
Q 3544 3216 3844 3400 
Q 4144 3584 4550 3584 
Q 5097 3584 5394 3201 
Q 5691 2819 5691 2113 
L 5691 0 
L 5113 0 
L 5113 2094 
Q 5113 2597 4934 2840 
Q 4756 3084 4391 3084 
Q 3944 3084 3684 2787 
Q 3425 2491 3425 1978 
L 3425 0 
L 2847 0 
L 2847 2094 
Q 2847 2600 2669 2842 
Q 2491 3084 2119 3084 
Q 1678 3084 1418 2786 
Q 1159 2488 1159 1978 
L 1159 0 
L 581 0 
L 581 3500 
L 1159 3500 
L 1159 2956 
Q 1356 3278 1631 3431 
Q 1906 3584 2284 3584 
Q 2666 3584 2933 3390 
Q 3200 3197 3328 2828 
z
" transform="scale(0.015625)"/>
      </defs>
      <use xlink:href="#DejaVuSans-42"/>
      <use xlink:href="#DejaVuSans-61" x="68.603516"/>
      <use xlink:href="#DejaVuSans-67" x="129.882812"/>
      <use xlink:href="#DejaVuSans-20" x="193.359375"/>
      <use xlink:href="#DejaVuSans-6f" x="225.146484"/>
      <use xlink:href="#DejaVuSans-66" x="286.328125"/>
      <use xlink:href="#DejaVuSans-20" x="321.533203"/>
      <use xlink:href="#DejaVuSans-6d" x="353.320312"/>
      <use xlink:href="#DejaVuSans-6f" x="450.732422"/>
      <use xlink:href="#DejaVuSans-6c" x="511.914062"/>
      <use xlink:href="#DejaVuSans-65" x="539.697266"/>
      <use xlink:href="#DejaVuSans-63" x="601.220703"/>
      <use xlink:href="#DejaVuSans-75" x="656.201172"/>
      <use xlink:href="#DejaVuSans-6c" x="719.580078"/>
      <use xlink:href="#DejaVuSans-65" x="747.363281"/>
      <use xlink:href="#DejaVuSans-73" x="808.886719"/>
     </g>
    </g>
    <g id="line2d_21">
     <path d="M 192.511162 200.247213 
L 204.511162 200.247213 
L 216.511162 200.247213 
" style="fill: none; stroke: #8b4513; stroke-width: 1.5; stroke-linecap: square"/>
    </g>
    <g id="text_18">
     <!-- CGR -->
     <g transform="translate(226.111162 204.447213) scale(0.12 -0.12)">
      <defs>
       <path id="DejaVuSans-47" d="M 3809 666 
L 3809 1919 
L 2778 1919 
L 2778 2438 
L 4434 2438 
L 4434 434 
Q 4069 175 3628 42 
Q 3188 -91 2688 -91 
Q 1594 -91 976 548 
Q 359 1188 359 2328 
Q 359 3472 976 4111 
Q 1594 4750 2688 4750 
Q 3144 4750 3555 4637 
Q 3966 4525 4313 4306 
L 4313 3634 
Q 3963 3931 3569 4081 
Q 3175 4231 2741 4231 
Q 1884 4231 1454 3753 
Q 1025 3275 1025 2328 
Q 1025 1384 1454 906 
Q 1884 428 2741 428 
Q 3075 428 3337 486 
Q 3600 544 3809 666 
z
" transform="scale(0.015625)"/>
      </defs>
      <use xlink:href="#DejaVuSans-43"/>
      <use xlink:href="#DejaVuSans-47" x="69.824219"/>
      <use xlink:href="#DejaVuSans-52" x="147.314453"/>
     </g>
    </g>
    <g id="line2d_22">
     <path d="M 192.511162 217.860963 
L 204.511162 217.860963 
L 216.511162 217.860963 
" style="fill: none; stroke: #000000; stroke-width: 1.5; stroke-linecap: square"/>
    </g>
    <g id="text_19">
     <!-- Morgan fingerprint -->
     <g transform="translate(226.111162 222.060963) scale(0.12 -0.12)">
      <defs>
       <path id="DejaVuSans-4d" d="M 628 4666 
L 1569 4666 
L 2759 1491 
L 3956 4666 
L 4897 4666 
L 4897 0 
L 4281 0 
L 4281 4097 
L 3078 897 
L 2444 897 
L 1241 4097 
L 1241 0 
L 628 0 
L 628 4666 
z
" transform="scale(0.015625)"/>
      </defs>
      <use xlink:href="#DejaVuSans-4d"/>
      <use xlink:href="#DejaVuSans-6f" x="86.279297"/>
      <use xlink:href="#DejaVuSans-72" x="147.460938"/>
      <use xlink:href="#DejaVuSans-67" x="186.824219"/>
      <use xlink:href="#DejaVuSans-61" x="250.300781"/>
      <use xlink:href="#DejaVuSans-6e" x="311.580078"/>
      <use xlink:href="#DejaVuSans-20" x="374.958984"/>
      <use xlink:href="#DejaVuSans-66" x="406.746094"/>
      <use xlink:href="#DejaVuSans-69" x="441.951172"/>
      <use xlink:href="#DejaVuSans-6e" x="469.734375"/>
      <use xlink:href="#DejaVuSans-67" x="533.113281"/>
      <use xlink:href="#DejaVuSans-65" x="596.589844"/>
      <use xlink:href="#DejaVuSans-72" x="658.113281"/>
      <use xlink:href="#DejaVuSans-70" x="699.226562"/>
      <use xlink:href="#DejaVuSans-72" x="762.703125"/>
      <use xlink:href="#DejaVuSans-69" x="803.816406"/>
      <use xlink:href="#DejaVuSans-6e" x="831.599609"/>
      <use xlink:href="#DejaVuSans-74" x="894.978516"/>
     </g>
    </g>
   </g>
  </g>
  <g id="axes_2">
   <g id="patch_8">
    <path d="M 417.896338 235.356588 
L 704.88 235.356588 
L 704.88 20.52 
L 417.896338 20.52 
z
" style="fill: #ffffff"/>
   </g>
   <g id="patch_9">
    <path d="M 430.94105 450.193176 
L 472.134877 450.193176 
L 472.134877 26.853977 
L 430.94105 26.853977 
z
" clip-path="url(#p1396468c4a)" style="fill: #800080"/>
   </g>
   <g id="patch_10">
    <path d="M 485.866153 450.193176 
L 527.05998 450.193176 
L 527.05998 26.215662 
L 485.866153 26.215662 
z
" clip-path="url(#p1396468c4a)" style="fill: #228b22"/>
   </g>
   <g id="patch_11">
    <path d="M 540.791256 450.193176 
L 581.985083 450.193176 
L 581.985083 28.094581 
L 540.791256 28.094581 
z
" clip-path="url(#p1396468c4a)" style="fill: #0000cd"/>
   </g>
   <g id="patch_12">
    <path d="M 595.716358 450.193176 
L 636.910185 450.193176 
L 636.910185 26.214858 
L 595.716358 26.214858 
z
" clip-path="url(#p1396468c4a)" style="fill: #8b4513"/>
   </g>
   <g id="patch_13">
    <path d="M 650.641461 450.193176 
L 691.835288 450.193176 
L 691.835288 31.783276 
L 650.641461 31.783276 
z
" clip-path="url(#p1396468c4a)"/>
   </g>
   <g id="matplotlib.axis_3">
    <g id="xtick_7">
     <g id="line2d_23">
      <g>
       <use xlink:href="#mce45825e41" x="451.537964" y="235.356588" style="stroke: #000000; stroke-width: 0.8"/>
      </g>
     </g>
     <g id="text_20">
      <!-- RC aggregated -->
      <g transform="translate(375.854778 323.503057) rotate(-45) scale(0.14 -0.14)">
       <use xlink:href="#DejaVuSans-52"/>
       <use xlink:href="#DejaVuSans-43" x="64.482422"/>
       <use xlink:href="#DejaVuSans-20" x="134.306641"/>
       <use xlink:href="#DejaVuSans-61" x="166.09375"/>
       <use xlink:href="#DejaVuSans-67" x="227.373047"/>
       <use xlink:href="#DejaVuSans-67" x="290.849609"/>
       <use xlink:href="#DejaVuSans-72" x="354.326172"/>
       <use xlink:href="#DejaVuSans-65" x="393.189453"/>
       <use xlink:href="#DejaVuSans-67" x="454.712891"/>
       <use xlink:href="#DejaVuSans-61" x="518.189453"/>
       <use xlink:href="#DejaVuSans-74" x="579.46875"/>
       <use xlink:href="#DejaVuSans-65" x="618.677734"/>
       <use xlink:href="#DejaVuSans-64" x="680.201172"/>
      </g>
     </g>
    </g>
    <g id="xtick_8">
     <g id="line2d_24">
      <g>
       <use xlink:href="#mce45825e41" x="506.463066" y="235.356588" style="stroke: #000000; stroke-width: 0.8"/>
      </g>
     </g>
     <g id="text_21">
      <!-- RC connected -->
      <g transform="translate(436.122514 318.160423) rotate(-45) scale(0.14 -0.14)">
       <use xlink:href="#DejaVuSans-52"/>
       <use xlink:href="#DejaVuSans-43" x="64.482422"/>
       <use xlink:href="#DejaVuSans-20" x="134.306641"/>
       <use xlink:href="#DejaVuSans-63" x="166.09375"/>
       <use xlink:href="#DejaVuSans-6f" x="221.074219"/>
       <use xlink:href="#DejaVuSans-6e" x="282.255859"/>
       <use xlink:href="#DejaVuSans-6e" x="345.634766"/>
       <use xlink:href="#DejaVuSans-65" x="409.013672"/>
       <use xlink:href="#DejaVuSans-63" x="470.537109"/>
       <use xlink:href="#DejaVuSans-74" x="525.517578"/>
       <use xlink:href="#DejaVuSans-65" x="564.726562"/>
       <use xlink:href="#DejaVuSans-64" x="626.25"/>
      </g>
     </g>
    </g>
    <g id="xtick_9">
     <g id="line2d_25">
      <g>
       <use xlink:href="#mce45825e41" x="561.388169" y="235.356588" style="stroke: #000000; stroke-width: 0.8"/>
      </g>
     </g>
     <g id="text_22">
      <!-- Bag of molecules -->
      <g transform="translate(474.094732 335.113309) rotate(-45) scale(0.14 -0.14)">
       <use xlink:href="#DejaVuSans-42"/>
       <use xlink:href="#DejaVuSans-61" x="68.603516"/>
       <use xlink:href="#DejaVuSans-67" x="129.882812"/>
       <use xlink:href="#DejaVuSans-20" x="193.359375"/>
       <use xlink:href="#DejaVuSans-6f" x="225.146484"/>
       <use xlink:href="#DejaVuSans-66" x="286.328125"/>
       <use xlink:href="#DejaVuSans-20" x="321.533203"/>
       <use xlink:href="#DejaVuSans-6d" x="353.320312"/>
       <use xlink:href="#DejaVuSans-6f" x="450.732422"/>
       <use xlink:href="#DejaVuSans-6c" x="511.914062"/>
       <use xlink:href="#DejaVuSans-65" x="539.697266"/>
       <use xlink:href="#DejaVuSans-63" x="601.220703"/>
       <use xlink:href="#DejaVuSans-75" x="656.201172"/>
       <use xlink:href="#DejaVuSans-6c" x="719.580078"/>
       <use xlink:href="#DejaVuSans-65" x="747.363281"/>
       <use xlink:href="#DejaVuSans-73" x="808.886719"/>
      </g>
     </g>
    </g>
    <g id="xtick_10">
     <g id="line2d_26">
      <g>
       <use xlink:href="#mce45825e41" x="616.313272" y="235.356588" style="stroke: #000000; stroke-width: 0.8"/>
      </g>
     </g>
     <g id="text_23">
      <!-- CGR -->
      <g transform="translate(592.792691 271.340453) rotate(-45) scale(0.14 -0.14)">
       <use xlink:href="#DejaVuSans-43"/>
       <use xlink:href="#DejaVuSans-47" x="69.824219"/>
       <use xlink:href="#DejaVuSans-52" x="147.314453"/>
      </g>
     </g>
    </g>
    <g id="xtick_11">
     <g id="line2d_27">
      <g>
       <use xlink:href="#mce45825e41" x="671.238375" y="235.356588" style="stroke: #000000; stroke-width: 0.8"/>
      </g>
     </g>
     <g id="text_24">
      <!-- Morgan fingerprint -->
      <g transform="translate(576.699745 342.358501) rotate(-45) scale(0.14 -0.14)">
       <use xlink:href="#DejaVuSans-4d"/>
       <use xlink:href="#DejaVuSans-6f" x="86.279297"/>
       <use xlink:href="#DejaVuSans-72" x="147.460938"/>
       <use xlink:href="#DejaVuSans-67" x="186.824219"/>
       <use xlink:href="#DejaVuSans-61" x="250.300781"/>
       <use xlink:href="#DejaVuSans-6e" x="311.580078"/>
       <use xlink:href="#DejaVuSans-20" x="374.958984"/>
       <use xlink:href="#DejaVuSans-66" x="406.746094"/>
       <use xlink:href="#DejaVuSans-69" x="441.951172"/>
       <use xlink:href="#DejaVuSans-6e" x="469.734375"/>
       <use xlink:href="#DejaVuSans-67" x="533.113281"/>
       <use xlink:href="#DejaVuSans-65" x="596.589844"/>
       <use xlink:href="#DejaVuSans-72" x="658.113281"/>
       <use xlink:href="#DejaVuSans-70" x="699.226562"/>
       <use xlink:href="#DejaVuSans-72" x="762.703125"/>
       <use xlink:href="#DejaVuSans-69" x="803.816406"/>
       <use xlink:href="#DejaVuSans-6e" x="831.599609"/>
       <use xlink:href="#DejaVuSans-74" x="894.978516"/>
      </g>
     </g>
    </g>
   </g>
   <g id="matplotlib.axis_4">
    <g id="ytick_7">
     <g id="line2d_28">
      <g>
       <use xlink:href="#mff0175e0ec" x="417.896338" y="235.356588" style="stroke: #000000; stroke-width: 0.8"/>
      </g>
     </g>
     <g id="text_25">
      <!-- 0.5 -->
      <g transform="translate(388.631963 240.675494) scale(0.14 -0.14)">
       <defs>
        <path id="DejaVuSans-35" d="M 691 4666 
L 3169 4666 
L 3169 4134 
L 1269 4134 
L 1269 2991 
Q 1406 3038 1543 3061 
Q 1681 3084 1819 3084 
Q 2600 3084 3056 2656 
Q 3513 2228 3513 1497 
Q 3513 744 3044 326 
Q 2575 -91 1722 -91 
Q 1428 -91 1123 -41 
Q 819 9 494 109 
L 494 744 
Q 775 591 1075 516 
Q 1375 441 1709 441 
Q 2250 441 2565 725 
Q 2881 1009 2881 1497 
Q 2881 1984 2565 2268 
Q 2250 2553 1709 2553 
Q 1456 2553 1204 2497 
Q 953 2441 691 2322 
L 691 4666 
z
" transform="scale(0.015625)"/>
       </defs>
       <use xlink:href="#DejaVuSans-30"/>
       <use xlink:href="#DejaVuSans-2e" x="63.623047"/>
       <use xlink:href="#DejaVuSans-35" x="95.410156"/>
      </g>
     </g>
    </g>
    <g id="ytick_8">
     <g id="line2d_29">
      <g>
       <use xlink:href="#mff0175e0ec" x="417.896338" y="192.38927" style="stroke: #000000; stroke-width: 0.8"/>
      </g>
     </g>
     <g id="text_26">
      <!-- 0.6 -->
      <g transform="translate(388.631963 197.708176) scale(0.14 -0.14)">
       <use xlink:href="#DejaVuSans-30"/>
       <use xlink:href="#DejaVuSans-2e" x="63.623047"/>
       <use xlink:href="#DejaVuSans-36" x="95.410156"/>
      </g>
     </g>
    </g>
    <g id="ytick_9">
     <g id="line2d_30">
      <g>
       <use xlink:href="#mff0175e0ec" x="417.896338" y="149.421953" style="stroke: #000000; stroke-width: 0.8"/>
      </g>
     </g>
     <g id="text_27">
      <!-- 0.7 -->
      <g transform="translate(388.631963 154.740859) scale(0.14 -0.14)">
       <defs>
        <path id="DejaVuSans-37" d="M 525 4666 
L 3525 4666 
L 3525 4397 
L 1831 0 
L 1172 0 
L 2766 4134 
L 525 4134 
L 525 4666 
z
" transform="scale(0.015625)"/>
       </defs>
       <use xlink:href="#DejaVuSans-30"/>
       <use xlink:href="#DejaVuSans-2e" x="63.623047"/>
       <use xlink:href="#DejaVuSans-37" x="95.410156"/>
      </g>
     </g>
    </g>
    <g id="ytick_10">
     <g id="line2d_31">
      <g>
       <use xlink:href="#mff0175e0ec" x="417.896338" y="106.454635" style="stroke: #000000; stroke-width: 0.8"/>
      </g>
     </g>
     <g id="text_28">
      <!-- 0.8 -->
      <g transform="translate(388.631963 111.773541) scale(0.14 -0.14)">
       <use xlink:href="#DejaVuSans-30"/>
       <use xlink:href="#DejaVuSans-2e" x="63.623047"/>
       <use xlink:href="#DejaVuSans-38" x="95.410156"/>
      </g>
     </g>
    </g>
    <g id="ytick_11">
     <g id="line2d_32">
      <g>
       <use xlink:href="#mff0175e0ec" x="417.896338" y="63.487318" style="stroke: #000000; stroke-width: 0.8"/>
      </g>
     </g>
     <g id="text_29">
      <!-- 0.9 -->
      <g transform="translate(388.631963 68.806224) scale(0.14 -0.14)">
       <defs>
        <path id="DejaVuSans-39" d="M 703 97 
L 703 672 
Q 941 559 1184 500 
Q 1428 441 1663 441 
Q 2288 441 2617 861 
Q 2947 1281 2994 2138 
Q 2813 1869 2534 1725 
Q 2256 1581 1919 1581 
Q 1219 1581 811 2004 
Q 403 2428 403 3163 
Q 403 3881 828 4315 
Q 1253 4750 1959 4750 
Q 2769 4750 3195 4129 
Q 3622 3509 3622 2328 
Q 3622 1225 3098 567 
Q 2575 -91 1691 -91 
Q 1453 -91 1209 -44 
Q 966 3 703 97 
z
M 1959 2075 
Q 2384 2075 2632 2365 
Q 2881 2656 2881 3163 
Q 2881 3666 2632 3958 
Q 2384 4250 1959 4250 
Q 1534 4250 1286 3958 
Q 1038 3666 1038 3163 
Q 1038 2656 1286 2365 
Q 1534 2075 1959 2075 
z
" transform="scale(0.015625)"/>
       </defs>
       <use xlink:href="#DejaVuSans-30"/>
       <use xlink:href="#DejaVuSans-2e" x="63.623047"/>
       <use xlink:href="#DejaVuSans-39" x="95.410156"/>
      </g>
     </g>
    </g>
    <g id="ytick_12">
     <g id="line2d_33">
      <g>
       <use xlink:href="#mff0175e0ec" x="417.896338" y="20.52" style="stroke: #000000; stroke-width: 0.8"/>
      </g>
     </g>
     <g id="text_30">
      <!-- 1.0 -->
      <g transform="translate(388.631963 25.838906) scale(0.14 -0.14)">
       <use xlink:href="#DejaVuSans-31"/>
       <use xlink:href="#DejaVuSans-2e" x="63.623047"/>
       <use xlink:href="#DejaVuSans-30" x="95.410156"/>
      </g>
     </g>
    </g>
    <g id="text_31">
     <!-- ROC-AUC -->
     <g transform="translate(381.720401 160.367981) rotate(-90) scale(0.14 -0.14)">
      <defs>
       <path id="DejaVuSans-4f" d="M 2522 4238 
Q 1834 4238 1429 3725 
Q 1025 3213 1025 2328 
Q 1025 1447 1429 934 
Q 1834 422 2522 422 
Q 3209 422 3611 934 
Q 4013 1447 4013 2328 
Q 4013 3213 3611 3725 
Q 3209 4238 2522 4238 
z
M 2522 4750 
Q 3503 4750 4090 4092 
Q 4678 3434 4678 2328 
Q 4678 1225 4090 567 
Q 3503 -91 2522 -91 
Q 1538 -91 948 565 
Q 359 1222 359 2328 
Q 359 3434 948 4092 
Q 1538 4750 2522 4750 
z
" transform="scale(0.015625)"/>
       <path id="DejaVuSans-2d" d="M 313 2009 
L 1997 2009 
L 1997 1497 
L 313 1497 
L 313 2009 
z
" transform="scale(0.015625)"/>
       <path id="DejaVuSans-41" d="M 2188 4044 
L 1331 1722 
L 3047 1722 
L 2188 4044 
z
M 1831 4666 
L 2547 4666 
L 4325 0 
L 3669 0 
L 3244 1197 
L 1141 1197 
L 716 0 
L 50 0 
L 1831 4666 
z
" transform="scale(0.015625)"/>
       <path id="DejaVuSans-55" d="M 556 4666 
L 1191 4666 
L 1191 1831 
Q 1191 1081 1462 751 
Q 1734 422 2344 422 
Q 2950 422 3222 751 
Q 3494 1081 3494 1831 
L 3494 4666 
L 4128 4666 
L 4128 1753 
Q 4128 841 3676 375 
Q 3225 -91 2344 -91 
Q 1459 -91 1007 375 
Q 556 841 556 1753 
L 556 4666 
z
" transform="scale(0.015625)"/>
      </defs>
      <use xlink:href="#DejaVuSans-52"/>
      <use xlink:href="#DejaVuSans-4f" x="69.482422"/>
      <use xlink:href="#DejaVuSans-43" x="148.193359"/>
      <use xlink:href="#DejaVuSans-2d" x="218.017578"/>
      <use xlink:href="#DejaVuSans-41" x="251.851562"/>
      <use xlink:href="#DejaVuSans-55" x="320.259766"/>
      <use xlink:href="#DejaVuSans-43" x="393.453125"/>
     </g>
    </g>
   </g>
   <g id="LineCollection_1">
    <path d="M 451.537964 27.175038 
L 451.537964 26.355982 
" clip-path="url(#p1396468c4a)" style="fill: none; stroke: #000000; stroke-width: 1.5"/>
   </g>
   <g id="LineCollection_2">
    <path d="M 506.463066 26.553203 
L 506.463066 25.93518 
" clip-path="url(#p1396468c4a)" style="fill: none; stroke: #000000; stroke-width: 1.5"/>
   </g>
   <g id="LineCollection_3">
    <path d="M 561.388169 28.610514 
L 561.388169 27.802718 
" clip-path="url(#p1396468c4a)" style="fill: none; stroke: #000000; stroke-width: 1.5"/>
   </g>
   <g id="LineCollection_4">
    <path d="M 616.313272 26.670197 
L 616.313272 25.807444 
" clip-path="url(#p1396468c4a)" style="fill: none; stroke: #000000; stroke-width: 1.5"/>
   </g>
   <g id="LineCollection_5">
    <path d="M 671.238375 32.263106 
L 671.238375 31.21589 
" clip-path="url(#p1396468c4a)" style="fill: none; stroke: #000000; stroke-width: 1.5"/>
   </g>
   <g id="patch_14">
    <path d="M 417.896338 235.356588 
L 417.896338 20.52 
" style="fill: none; stroke: #000000; stroke-width: 0.8; stroke-linejoin: miter; stroke-linecap: square"/>
   </g>
   <g id="patch_15">
    <path d="M 704.88 235.356588 
L 704.88 20.52 
" style="fill: none; stroke: #000000; stroke-width: 0.8; stroke-linejoin: miter; stroke-linecap: square"/>
   </g>
   <g id="patch_16">
    <path d="M 417.896338 235.356588 
L 704.88 235.356588 
" style="fill: none; stroke: #000000; stroke-width: 0.8; stroke-linejoin: miter; stroke-linecap: square"/>
   </g>
   <g id="patch_17">
    <path d="M 417.896338 20.52 
L 704.88 20.52 
" style="fill: none; stroke: #000000; stroke-width: 0.8; stroke-linejoin: miter; stroke-linecap: square"/>
   </g>
  </g>
 </g>
 <defs>
  <clipPath id="p99f429e700">
   <rect x="62.03" y="20.52" width="286.983662" height="214.836588"/>
  </clipPath>
  <clipPath id="p1396468c4a">
   <rect x="417.896338" y="20.52" width="286.983662" height="214.836588"/>
  </clipPath>
 </defs>
</svg>
