<?xml version="1.0" encoding="utf-8" standalone="no"?>
<!DOCTYPE svg PUBLIC "-//W3C//DTD SVG 1.1//EN"
  "http://www.w3.org/Graphics/SVG/1.1/DTD/svg11.dtd">
<svg xmlns:xlink="http://www.w3.org/1999/xlink" width="720pt" height="360pt" viewBox="0 0 720 360" xmlns="http://www.w3.org/2000/svg" version="1.1">
 <metadata>
  <rdf:RDF xmlns:dc="http://purl.org/dc/elements/1.1/" xmlns:cc="http://creativecommons.org/ns#" xmlns:rdf="http://www.w3.org/1999/02/22-rdf-syntax-ns#">
   <cc:Work>
    <dc:type rdf:resource="http://purl.org/dc/dcmitype/StillImage"/>
    <dc:date>2025-10-24T16:30:35.250363</dc:date>
    <dc:format>image/svg+xml</dc:format>
    <dc:creator>
     <cc:Agent>
      <dc:title>Matplotlib v3.8.4, https://matplotlib.org/</dc:title>
     </cc:Agent>
    </dc:creator>
   </cc:Work>
  </rdf:RDF>
 </metadata>
 <defs>
  <style type="text/css">*{stroke-linejoin: round; stroke-linecap: butt}</style>
 </defs>
 <g id="figure_1">
  <g id="patch_1">
   <path d="M 0 360 
L 720 360 
L 720 0 
L 0 0 
z
" style="fill: #ffffff"/>
  </g>
  <g id="axes_1">
   <g id="patch_2">
    <path d="M 62.03 235.356588 
L 349.013662 235.356588 
L 349.013662 20.52 
L 62.03 20.52 
z
" style="fill: #ffffff"/>
   </g>
   <g id="matplotlib.axis_1">
    <g id="xtick_1">
     <g id="line2d_1">
      <defs>
       <path id="m592a9d1174" d="M 0 0 
L 0 3.5 
" style="stroke: #000000; stroke-width: 0.8"/>
      </defs>
      <g>
       <use xlink:href="#m592a9d1174" x="75.074712" y="235.356588" style="stroke: #000000; stroke-width: 0.8"/>
      </g>
     </g>
     <g id="text_1">
      <!-- 0.0 -->
      <g transform="translate(63.942524 252.9944) scale(0.14 -0.14)">
       <defs>
        <path id="DejaVuSans-30" d="M 2034 4250 
Q 1547 4250 1301 3770 
Q 1056 3291 1056 2328 
Q 1056 1369 1301 889 
Q 1547 409 2034 409 
Q 2525 409 2770 889 
Q 3016 1369 3016 2328 
Q 3016 3291 2770 3770 
Q 2525 4250 2034 4250 
z
M 2034 4750 
Q 2819 4750 3233 4129 
Q 3647 3509 3647 2328 
Q 3647 1150 3233 529 
Q 2819 -91 2034 -91 
Q 1250 -91 836 529 
Q 422 1150 422 2328 
Q 422 3509 836 4129 
Q 1250 4750 2034 4750 
z
" transform="scale(0.015625)"/>
        <path id="DejaVuSans-2e" d="M 684 794 
L 1344 794 
L 1344 0 
L 684 0 
L 684 794 
z
" transform="scale(0.015625)"/>
       </defs>
       <use xlink:href="#DejaVuSans-30"/>
       <use xlink:href="#DejaVuSans-2e" x="63.623047"/>
       <use xlink:href="#DejaVuSans-30" x="95.410156"/>
      </g>
     </g>
    </g>
    <g id="xtick_2">
     <g id="line2d_2">
      <g>
       <use xlink:href="#m592a9d1174" x="127.25356" y="235.356588" style="stroke: #000000; stroke-width: 0.8"/>
      </g>
     </g>
     <g id="text_2">
      <!-- 0.2 -->
      <g transform="translate(116.121372 252.9944) scale(0.14 -0.14)">
       <defs>
        <path id="DejaVuSans-32" d="M 1228 531 
L 3431 531 
L 3431 0 
L 469 0 
L 469 531 
Q 828 903 1448 1529 
Q 2069 2156 2228 2338 
Q 2531 2678 2651 2914 
Q 2772 3150 2772 3378 
Q 2772 3750 2511 3984 
Q 2250 4219 1831 4219 
Q 1534 4219 1204 4116 
Q 875 4013 500 3803 
L 500 4441 
Q 881 4594 1212 4672 
Q 1544 4750 1819 4750 
Q 2544 4750 2975 4387 
Q 3406 4025 3406 3419 
Q 3406 3131 3298 2873 
Q 3191 2616 2906 2266 
Q 2828 2175 2409 1742 
Q 1991 1309 1228 531 
z
" transform="scale(0.015625)"/>
       </defs>
       <use xlink:href="#DejaVuSans-30"/>
       <use xlink:href="#DejaVuSans-2e" x="63.623047"/>
       <use xlink:href="#DejaVuSans-32" x="95.410156"/>
      </g>
     </g>
    </g>
    <g id="xtick_3">
     <g id="line2d_3">
      <g>
       <use xlink:href="#m592a9d1174" x="179.432407" y="235.356588" style="stroke: #000000; stroke-width: 0.8"/>
      </g>
     </g>
     <g id="text_3">
      <!-- 0.4 -->
      <g transform="translate(168.30022 252.9944) scale(0.14 -0.14)">
       <defs>
        <path id="DejaVuSans-34" d="M 2419 4116 
L 825 1625 
L 2419 1625 
L 2419 4116 
z
M 2253 4666 
L 3047 4666 
L 3047 1625 
L 3713 1625 
L 3713 1100 
L 3047 1100 
L 3047 0 
L 2419 0 
L 2419 1100 
L 313 1100 
L 313 1709 
L 2253 4666 
z
" transform="scale(0.015625)"/>
       </defs>
       <use xlink:href="#DejaVuSans-30"/>
       <use xlink:href="#DejaVuSans-2e" x="63.623047"/>
       <use xlink:href="#DejaVuSans-34" x="95.410156"/>
      </g>
     </g>
    </g>
    <g id="xtick_4">
     <g id="line2d_4">
      <g>
       <use xlink:href="#m592a9d1174" x="231.611255" y="235.356588" style="stroke: #000000; stroke-width: 0.8"/>
      </g>
     </g>
     <g id="text_4">
      <!-- 0.6 -->
      <g transform="translate(220.479067 252.9944) scale(0.14 -0.14)">
       <defs>
        <path id="DejaVuSans-36" d="M 2113 2584 
Q 1688 2584 1439 2293 
Q 1191 2003 1191 1497 
Q 1191 994 1439 701 
Q 1688 409 2113 409 
Q 2538 409 2786 701 
Q 3034 994 3034 1497 
Q 3034 2003 2786 2293 
Q 2538 2584 2113 2584 
z
M 3366 4563 
L 3366 3988 
Q 3128 4100 2886 4159 
Q 2644 4219 2406 4219 
Q 1781 4219 1451 3797 
Q 1122 3375 1075 2522 
Q 1259 2794 1537 2939 
Q 1816 3084 2150 3084 
Q 2853 3084 3261 2657 
Q 3669 2231 3669 1497 
Q 3669 778 3244 343 
Q 2819 -91 2113 -91 
Q 1303 -91 875 529 
Q 447 1150 447 2328 
Q 447 3434 972 4092 
Q 1497 4750 2381 4750 
Q 2619 4750 2861 4703 
Q 3103 4656 3366 4563 
z
" transform="scale(0.015625)"/>
       </defs>
       <use xlink:href="#DejaVuSans-30"/>
       <use xlink:href="#DejaVuSans-2e" x="63.623047"/>
       <use xlink:href="#DejaVuSans-36" x="95.410156"/>
      </g>
     </g>
    </g>
    <g id="xtick_5">
     <g id="line2d_5">
      <g>
       <use xlink:href="#m592a9d1174" x="283.790102" y="235.356588" style="stroke: #000000; stroke-width: 0.8"/>
      </g>
     </g>
     <g id="text_5">
      <!-- 0.8 -->
      <g transform="translate(272.657915 252.9944) scale(0.14 -0.14)">
       <defs>
        <path id="DejaVuSans-38" d="M 2034 2216 
Q 1584 2216 1326 1975 
Q 1069 1734 1069 1313 
Q 1069 891 1326 650 
Q 1584 409 2034 409 
Q 2484 409 2743 651 
Q 3003 894 3003 1313 
Q 3003 1734 2745 1975 
Q 2488 2216 2034 2216 
z
M 1403 2484 
Q 997 2584 770 2862 
Q 544 3141 544 3541 
Q 544 4100 942 4425 
Q 1341 4750 2034 4750 
Q 2731 4750 3128 4425 
Q 3525 4100 3525 3541 
Q 3525 3141 3298 2862 
Q 3072 2584 2669 2484 
Q 3125 2378 3379 2068 
Q 3634 1759 3634 1313 
Q 3634 634 3220 271 
Q 2806 -91 2034 -91 
Q 1263 -91 848 271 
Q 434 634 434 1313 
Q 434 1759 690 2068 
Q 947 2378 1403 2484 
z
M 1172 3481 
Q 1172 3119 1398 2916 
Q 1625 2713 2034 2713 
Q 2441 2713 2670 2916 
Q 2900 3119 2900 3481 
Q 2900 3844 2670 4047 
Q 2441 4250 2034 4250 
Q 1625 4250 1398 4047 
Q 1172 3844 1172 3481 
z
" transform="scale(0.015625)"/>
       </defs>
       <use xlink:href="#DejaVuSans-30"/>
       <use xlink:href="#DejaVuSans-2e" x="63.623047"/>
       <use xlink:href="#DejaVuSans-38" x="95.410156"/>
      </g>
     </g>
    </g>
    <g id="xtick_6">
     <g id="line2d_6">
      <g>
       <use xlink:href="#m592a9d1174" x="335.96895" y="235.356588" style="stroke: #000000; stroke-width: 0.8"/>
      </g>
     </g>
     <g id="text_6">
      <!-- 1.0 -->
      <g transform="translate(324.836762 252.9944) scale(0.14 -0.14)">
       <defs>
        <path id="DejaVuSans-31" d="M 794 531 
L 1825 531 
L 1825 4091 
L 703 3866 
L 703 4441 
L 1819 4666 
L 2450 4666 
L 2450 531 
L 3481 531 
L 3481 0 
L 794 0 
L 794 531 
z
" transform="scale(0.015625)"/>
       </defs>
       <use xlink:href="#DejaVuSans-31"/>
       <use xlink:href="#DejaVuSans-2e" x="63.623047"/>
       <use xlink:href="#DejaVuSans-30" x="95.410156"/>
      </g>
     </g>
    </g>
    <g id="text_7">
     <!-- False positive rate -->
     <g transform="translate(141.820737 270.543775) scale(0.14 -0.14)">
      <defs>
       <path id="DejaVuSans-46" d="M 628 4666 
L 3309 4666 
L 3309 4134 
L 1259 4134 
L 1259 2759 
L 3109 2759 
L 3109 2228 
L 1259 2228 
L 1259 0 
L 628 0 
L 628 4666 
z
" transform="scale(0.015625)"/>
       <path id="DejaVuSans-61" d="M 2194 1759 
Q 1497 1759 1228 1600 
Q 959 1441 959 1056 
Q 959 750 1161 570 
Q 1363 391 1709 391 
Q 2188 391 2477 730 
Q 2766 1069 2766 1631 
L 2766 1759 
L 2194 1759 
z
M 3341 1997 
L 3341 0 
L 2766 0 
L 2766 531 
Q 2569 213 2275 61 
Q 1981 -91 1556 -91 
Q 1019 -91 701 211 
Q 384 513 384 1019 
Q 384 1609 779 1909 
Q 1175 2209 1959 2209 
L 2766 2209 
L 2766 2266 
Q 2766 2663 2505 2880 
Q 2244 3097 1772 3097 
Q 1472 3097 1187 3025 
Q 903 2953 641 2809 
L 641 3341 
Q 956 3463 1253 3523 
Q 1550 3584 1831 3584 
Q 2591 3584 2966 3190 
Q 3341 2797 3341 1997 
z
" transform="scale(0.015625)"/>
       <path id="DejaVuSans-6c" d="M 603 4863 
L 1178 4863 
L 1178 0 
L 603 0 
L 603 4863 
z
" transform="scale(0.015625)"/>
       <path id="DejaVuSans-73" d="M 2834 3397 
L 2834 2853 
Q 2591 2978 2328 3040 
Q 2066 3103 1784 3103 
Q 1356 3103 1142 2972 
Q 928 2841 928 2578 
Q 928 2378 1081 2264 
Q 1234 2150 1697 2047 
L 1894 2003 
Q 2506 1872 2764 1633 
Q 3022 1394 3022 966 
Q 3022 478 2636 193 
Q 2250 -91 1575 -91 
Q 1294 -91 989 -36 
Q 684 19 347 128 
L 347 722 
Q 666 556 975 473 
Q 1284 391 1588 391 
Q 1994 391 2212 530 
Q 2431 669 2431 922 
Q 2431 1156 2273 1281 
Q 2116 1406 1581 1522 
L 1381 1569 
Q 847 1681 609 1914 
Q 372 2147 372 2553 
Q 372 3047 722 3315 
Q 1072 3584 1716 3584 
Q 2034 3584 2315 3537 
Q 2597 3491 2834 3397 
z
" transform="scale(0.015625)"/>
       <path id="DejaVuSans-65" d="M 3597 1894 
L 3597 1613 
L 953 1613 
Q 991 1019 1311 708 
Q 1631 397 2203 397 
Q 2534 397 2845 478 
Q 3156 559 3463 722 
L 3463 178 
Q 3153 47 2828 -22 
Q 2503 -91 2169 -91 
Q 1331 -91 842 396 
Q 353 884 353 1716 
Q 353 2575 817 3079 
Q 1281 3584 2069 3584 
Q 2775 3584 3186 3129 
Q 3597 2675 3597 1894 
z
M 3022 2063 
Q 3016 2534 2758 2815 
Q 2500 3097 2075 3097 
Q 1594 3097 1305 2825 
Q 1016 2553 972 2059 
L 3022 2063 
z
" transform="scale(0.015625)"/>
       <path id="DejaVuSans-20" transform="scale(0.015625)"/>
       <path id="DejaVuSans-70" d="M 1159 525 
L 1159 -1331 
L 581 -1331 
L 581 3500 
L 1159 3500 
L 1159 2969 
Q 1341 3281 1617 3432 
Q 1894 3584 2278 3584 
Q 2916 3584 3314 3078 
Q 3713 2572 3713 1747 
Q 3713 922 3314 415 
Q 2916 -91 2278 -91 
Q 1894 -91 1617 61 
Q 1341 213 1159 525 
z
M 3116 1747 
Q 3116 2381 2855 2742 
Q 2594 3103 2138 3103 
Q 1681 3103 1420 2742 
Q 1159 2381 1159 1747 
Q 1159 1113 1420 752 
Q 1681 391 2138 391 
Q 2594 391 2855 752 
Q 3116 1113 3116 1747 
z
" transform="scale(0.015625)"/>
       <path id="DejaVuSans-6f" d="M 1959 3097 
Q 1497 3097 1228 2736 
Q 959 2375 959 1747 
Q 959 1119 1226 758 
Q 1494 397 1959 397 
Q 2419 397 2687 759 
Q 2956 1122 2956 1747 
Q 2956 2369 2687 2733 
Q 2419 3097 1959 3097 
z
M 1959 3584 
Q 2709 3584 3137 3096 
Q 3566 2609 3566 1747 
Q 3566 888 3137 398 
Q 2709 -91 1959 -91 
Q 1206 -91 779 398 
Q 353 888 353 1747 
Q 353 2609 779 3096 
Q 1206 3584 1959 3584 
z
" transform="scale(0.015625)"/>
       <path id="DejaVuSans-69" d="M 603 3500 
L 1178 3500 
L 1178 0 
L 603 0 
L 603 3500 
z
M 603 4863 
L 1178 4863 
L 1178 4134 
L 603 4134 
L 603 4863 
z
" transform="scale(0.015625)"/>
       <path id="DejaVuSans-74" d="M 1172 4494 
L 1172 3500 
L 2356 3500 
L 2356 3053 
L 1172 3053 
L 1172 1153 
Q 1172 725 1289 603 
Q 1406 481 1766 481 
L 2356 481 
L 2356 0 
L 1766 0 
Q 1100 0 847 248 
Q 594 497 594 1153 
L 594 3053 
L 172 3053 
L 172 3500 
L 594 3500 
L 594 4494 
L 1172 4494 
z
" transform="scale(0.015625)"/>
       <path id="DejaVuSans-76" d="M 191 3500 
L 800 3500 
L 1894 563 
L 2988 3500 
L 3597 3500 
L 2284 0 
L 1503 0 
L 191 3500 
z
" transform="scale(0.015625)"/>
       <path id="DejaVuSans-72" d="M 2631 2963 
Q 2534 3019 2420 3045 
Q 2306 3072 2169 3072 
Q 1681 3072 1420 2755 
Q 1159 2438 1159 1844 
L 1159 0 
L 581 0 
L 581 3500 
L 1159 3500 
L 1159 2956 
Q 1341 3275 1631 3429 
Q 1922 3584 2338 3584 
Q 2397 3584 2469 3576 
Q 2541 3569 2628 3553 
L 2631 2963 
z
" transform="scale(0.015625)"/>
      </defs>
      <use xlink:href="#DejaVuSans-46"/>
      <use xlink:href="#DejaVuSans-61" x="48.394531"/>
      <use xlink:href="#DejaVuSans-6c" x="109.673828"/>
      <use xlink:href="#DejaVuSans-73" x="137.457031"/>
      <use xlink:href="#DejaVuSans-65" x="189.556641"/>
      <use xlink:href="#DejaVuSans-20" x="251.080078"/>
      <use xlink:href="#DejaVuSans-70" x="282.867188"/>
      <use xlink:href="#DejaVuSans-6f" x="346.34375"/>
      <use xlink:href="#DejaVuSans-73" x="407.525391"/>
      <use xlink:href="#DejaVuSans-69" x="459.625"/>
      <use xlink:href="#DejaVuSans-74" x="487.408203"/>
      <use xlink:href="#DejaVuSans-69" x="526.617188"/>
      <use xlink:href="#DejaVuSans-76" x="554.400391"/>
      <use xlink:href="#DejaVuSans-65" x="613.580078"/>
      <use xlink:href="#DejaVuSans-20" x="675.103516"/>
      <use xlink:href="#DejaVuSans-72" x="706.890625"/>
      <use xlink:href="#DejaVuSans-61" x="748.003906"/>
      <use xlink:href="#DejaVuSans-74" x="809.283203"/>
      <use xlink:href="#DejaVuSans-65" x="848.492188"/>
     </g>
    </g>
   </g>
   <g id="matplotlib.axis_2">
    <g id="ytick_1">
     <g id="line2d_7">
      <defs>
       <path id="m734e5c979c" d="M 0 0 
L -3.5 0 
" style="stroke: #000000; stroke-width: 0.8"/>
      </defs>
      <g>
       <use xlink:href="#m734e5c979c" x="62.03" y="225.591288" style="stroke: #000000; stroke-width: 0.8"/>
      </g>
     </g>
     <g id="text_8">
      <!-- 0.0 -->
      <g transform="translate(32.765625 230.910195) scale(0.14 -0.14)">
       <use xlink:href="#DejaVuSans-30"/>
       <use xlink:href="#DejaVuSans-2e" x="63.623047"/>
       <use xlink:href="#DejaVuSans-30" x="95.410156"/>
      </g>
     </g>
    </g>
    <g id="ytick_2">
     <g id="line2d_8">
      <g>
       <use xlink:href="#m734e5c979c" x="62.03" y="186.530091" style="stroke: #000000; stroke-width: 0.8"/>
      </g>
     </g>
     <g id="text_9">
      <!-- 0.2 -->
      <g transform="translate(32.765625 191.848997) scale(0.14 -0.14)">
       <use xlink:href="#DejaVuSans-30"/>
       <use xlink:href="#DejaVuSans-2e" x="63.623047"/>
       <use xlink:href="#DejaVuSans-32" x="95.410156"/>
      </g>
     </g>
    </g>
    <g id="ytick_3">
     <g id="line2d_9">
      <g>
       <use xlink:href="#m734e5c979c" x="62.03" y="147.468893" style="stroke: #000000; stroke-width: 0.8"/>
      </g>
     </g>
     <g id="text_10">
      <!-- 0.4 -->
      <g transform="translate(32.765625 152.787799) scale(0.14 -0.14)">
       <use xlink:href="#DejaVuSans-30"/>
       <use xlink:href="#DejaVuSans-2e" x="63.623047"/>
       <use xlink:href="#DejaVuSans-34" x="95.410156"/>
      </g>
     </g>
    </g>
    <g id="ytick_4">
     <g id="line2d_10">
      <g>
       <use xlink:href="#m734e5c979c" x="62.03" y="108.407695" style="stroke: #000000; stroke-width: 0.8"/>
      </g>
     </g>
     <g id="text_11">
      <!-- 0.6 -->
      <g transform="translate(32.765625 113.726601) scale(0.14 -0.14)">
       <use xlink:href="#DejaVuSans-30"/>
       <use xlink:href="#DejaVuSans-2e" x="63.623047"/>
       <use xlink:href="#DejaVuSans-36" x="95.410156"/>
      </g>
     </g>
    </g>
    <g id="ytick_5">
     <g id="line2d_11">
      <g>
       <use xlink:href="#m734e5c979c" x="62.03" y="69.346497" style="stroke: #000000; stroke-width: 0.8"/>
      </g>
     </g>
     <g id="text_12">
      <!-- 0.8 -->
      <g transform="translate(32.765625 74.665403) scale(0.14 -0.14)">
       <use xlink:href="#DejaVuSans-30"/>
       <use xlink:href="#DejaVuSans-2e" x="63.623047"/>
       <use xlink:href="#DejaVuSans-38" x="95.410156"/>
      </g>
     </g>
    </g>
    <g id="ytick_6">
     <g id="line2d_12">
      <g>
       <use xlink:href="#m734e5c979c" x="62.03" y="30.285299" style="stroke: #000000; stroke-width: 0.8"/>
      </g>
     </g>
     <g id="text_13">
      <!-- 1.0 -->
      <g transform="translate(32.765625 35.604206) scale(0.14 -0.14)">
       <use xlink:href="#DejaVuSans-31"/>
       <use xlink:href="#DejaVuSans-2e" x="63.623047"/>
       <use xlink:href="#DejaVuSans-30" x="95.410156"/>
      </g>
     </g>
    </g>
    <g id="text_14">
     <!-- True positive rate -->
     <g transform="translate(25.854063 188.927981) rotate(-90) scale(0.14 -0.14)">
      <defs>
       <path id="DejaVuSans-54" d="M -19 4666 
L 3928 4666 
L 3928 4134 
L 2272 4134 
L 2272 0 
L 1638 0 
L 1638 4134 
L -19 4134 
L -19 4666 
z
" transform="scale(0.015625)"/>
       <path id="DejaVuSans-75" d="M 544 1381 
L 544 3500 
L 1119 3500 
L 1119 1403 
Q 1119 906 1312 657 
Q 1506 409 1894 409 
Q 2359 409 2629 706 
Q 2900 1003 2900 1516 
L 2900 3500 
L 3475 3500 
L 3475 0 
L 2900 0 
L 2900 538 
Q 2691 219 2414 64 
Q 2138 -91 1772 -91 
Q 1169 -91 856 284 
Q 544 659 544 1381 
z
M 1991 3584 
L 1991 3584 
z
" transform="scale(0.015625)"/>
      </defs>
      <use xlink:href="#DejaVuSans-54"/>
      <use xlink:href="#DejaVuSans-72" x="46.333984"/>
      <use xlink:href="#DejaVuSans-75" x="87.447266"/>
      <use xlink:href="#DejaVuSans-65" x="150.826172"/>
      <use xlink:href="#DejaVuSans-20" x="212.349609"/>
      <use xlink:href="#DejaVuSans-70" x="244.136719"/>
      <use xlink:href="#DejaVuSans-6f" x="307.613281"/>
      <use xlink:href="#DejaVuSans-73" x="368.794922"/>
      <use xlink:href="#DejaVuSans-69" x="420.894531"/>
      <use xlink:href="#DejaVuSans-74" x="448.677734"/>
      <use xlink:href="#DejaVuSans-69" x="487.886719"/>
      <use xlink:href="#DejaVuSans-76" x="515.669922"/>
      <use xlink:href="#DejaVuSans-65" x="574.849609"/>
      <use xlink:href="#DejaVuSans-20" x="636.373047"/>
      <use xlink:href="#DejaVuSans-72" x="668.160156"/>
      <use xlink:href="#DejaVuSans-61" x="709.273438"/>
      <use xlink:href="#DejaVuSans-74" x="770.552734"/>
      <use xlink:href="#DejaVuSans-65" x="809.761719"/>
     </g>
    </g>
   </g>
   <g id="line2d_13">
    <path d="M 75.074712 225.591288 
L 75.259651 223.043879 
L 75.433495 186.12029 
L 75.466784 179.10107 
L 75.577748 160.02319 
L 75.59994 157.545004 
L 75.640627 151.868712 
L 75.751591 139.270112 
L 75.758988 139.228578 
L 75.869952 128.942029 
L 75.910639 126.228484 
L 76.021602 116.371118 
L 76.032699 115.92809 
L 76.143663 109.019627 
L 76.147361 109.019627 
L 76.147361 108.922715 
L 76.258325 101.142041 
L 76.262024 101.142041 
L 76.262024 101.100507 
L 76.36559 97.583975 
L 76.369289 97.583975 
L 76.380385 97.542441 
L 76.380385 97.487062 
L 76.491349 94.108976 
L 76.498747 93.998219 
L 76.60971 87.449716 
L 76.613409 87.449716 
L 76.613409 87.352804 
L 76.724373 83.337866 
L 76.73177 83.268642 
L 76.73177 83.227109 
L 76.839035 80.139759 
L 76.846433 80.139759 
L 76.846433 80.029002 
L 76.872324 79.544441 
L 76.979589 76.941653 
L 76.994385 76.844741 
L 77.105348 73.591256 
L 77.123842 73.522033 
L 77.123842 73.508189 
L 77.234806 70.905401 
L 77.242204 70.877712 
L 77.242204 70.836178 
L 77.353167 68.302613 
L 77.393854 67.734984 
L 77.504818 65.270642 
L 77.515914 65.229109 
L 77.515914 65.215264 
L 77.623179 63.152416 
L 77.649071 63.138572 
L 77.760034 62.47403 
L 77.763733 62.47403 
L 77.763733 62.446341 
L 77.874697 61.532596 
L 77.904287 61.421839 
L 78.015251 60.245047 
L 78.026347 60.245047 
L 78.026347 60.231202 
L 78.137311 58.348335 
L 78.152106 58.237578 
L 78.26307 57.462279 
L 78.281564 57.379212 
L 78.392528 56.327021 
L 78.403624 56.243953 
L 78.50719 54.651822 
L 78.529383 54.568755 
L 78.529383 54.541066 
L 78.640347 53.751922 
L 78.69213 53.65501 
L 78.69213 53.641166 
L 78.803093 53.045847 
L 78.854877 52.948935 
L 78.96584 52.145947 
L 79.017623 52.049035 
L 79.124888 51.661386 
L 79.154479 51.550629 
L 79.254346 50.996844 
L 79.283936 50.913776 
L 79.283936 50.886087 
L 79.391201 50.41537 
L 79.409695 50.332302 
L 79.409695 50.304613 
L 79.509563 49.778518 
L 79.576141 49.667761 
L 79.683406 49.377024 
L 79.720394 49.280112 
L 79.831357 48.754016 
L 79.920128 48.643259 
L 80.027393 48.324833 
L 80.09767 48.214076 
L 80.208634 47.909495 
L 80.264116 47.840272 
L 80.371381 47.411089 
L 80.400971 47.300332 
L 80.493441 47.148041 
L 80.541525 47.037284 
L 80.652489 46.801926 
L 80.800441 46.705013 
L 80.904007 46.386587 
L 80.963188 46.27583 
L 81.040862 46.123539 
L 81.140729 46.012782 
L 81.251693 45.749735 
L 81.392247 45.638978 
L 81.495813 45.362086 
L 81.56609 45.251329 
L 81.673355 45.029815 
L 81.762126 44.919058 
L 81.87309 44.739078 
L 81.958162 44.642166 
L 82.05803 44.434496 
L 82.106114 44.379118 
L 82.106114 44.337584 
L 82.213379 44.157604 
L 82.30215 44.046847 
L 82.390921 43.769955 
L 82.505583 43.659198 
L 82.60915 43.451529 
L 82.727511 43.340772 
L 82.831077 43.133103 
L 82.923547 43.03619 
L 83.034511 42.953123 
L 83.263836 42.85621 
L 83.352607 42.731609 
L 83.470968 42.620852 
L 83.537546 42.537784 
L 83.752076 42.427027 
L 83.837148 42.330115 
L 84.103461 42.219358 
L 84.19963 42.163979 
L 84.35128 42.053223 
L 84.417858 41.997844 
L 84.599099 41.887087 
L 84.695268 41.748641 
L 84.954183 41.651729 
L 85.057749 41.513283 
L 85.309267 41.402526 
L 85.342556 41.360992 
L 85.549689 41.250235 
L 85.568183 41.167167 
L 85.871483 41.05641 
L 85.978748 40.987187 
L 86.233965 40.87643 
L 86.34123 40.834896 
L 86.603844 40.724139 
L 86.670422 40.613383 
L 86.881253 40.544159 
L 86.95153 40.419558 
L 87.16606 40.308801 
L 87.243735 40.253423 
L 87.709783 40.142666 
L 87.817048 40.018064 
L 88.168433 39.907307 
L 88.212818 39.879618 
L 89.244781 39.768861 
L 89.34095 39.699638 
L 90.295238 39.588881 
L 90.335924 39.561192 
L 90.406201 39.561192 
L 90.698406 39.450435 
L 90.798273 39.408901 
L 91.364188 39.298144 
L 91.382682 39.242766 
L 92.096549 39.159698 
L 92.096549 39.132009 
L 92.122441 39.104319 
L 92.577392 39.035096 
L 92.577392 39.007407 
L 92.640271 38.633603 
L 92.729042 38.633603 
L 92.729042 38.53669 
L 92.825211 38.425933 
L 93.213584 38.315176 
L 93.324548 38.245953 
L 93.368933 38.245953 
L 93.368933 38.190575 
L 93.457704 38.024439 
L 94.193764 37.913683 
L 94.289932 37.885993 
L 94.933522 37.775236 
L 95.007498 37.539878 
L 95.414365 37.429121 
L 95.414365 37.401432 
L 95.965485 37.304519 
L 96.07275 37.152229 
L 96.535099 37.041472 
L 96.575785 36.999938 
L 97.211977 36.889181 
L 97.285953 36.861492 
L 97.437604 36.847647 
L 97.437604 36.819958 
L 97.463495 36.681512 
L 98.02941 36.598444 
L 98.136675 36.432309 
L 98.979999 36.321552 
L 98.979999 36.307707 
L 99.113156 36.293863 
L 99.113156 36.266173 
L 99.190831 36.113883 
L 99.664276 36.01697 
L 99.690167 35.961592 
L 101.1216 35.850835 
L 101.188178 35.823146 
L 102.974694 35.712389 
L 103.030176 35.670855 
L 103.670067 35.601632 
L 103.703356 35.200138 
L 103.943777 35.186293 
L 103.943777 35.158604 
L 103.943777 34.992469 
L 104.672439 34.978624 
L 104.672439 34.895556 
L 104.672439 34.784799 
L 105.804269 34.729421 
L 105.804269 34.674043 
L 105.915233 34.521752 
L 107.061858 34.410995 
L 107.158027 34.383306 
L 109.173868 34.272549 
L 109.244145 34.21717 
L 109.965409 34.106413 
L 109.965409 34.092569 
L 111.5226 34.03719 
L 111.5226 33.995656 
L 111.570685 33.926433 
L 113.782562 33.829521 
L 113.782562 33.67723 
L 116.708306 33.566473 
L 116.708306 33.552629 
L 118.861002 33.441872 
L 118.934978 33.414183 
L 120.913831 33.400338 
L 121.01 33.234203 
L 121.997577 33.123446 
L 121.997577 33.109601 
L 124.690297 32.998844 
L 124.749478 32.971155 
L 127.416306 32.860398 
L 127.420005 32.832709 
L 129.8834 32.721952 
L 129.972171 32.694263 
L 133.656167 32.583506 
L 133.656167 32.569661 
L 135.520358 32.472749 
L 135.520358 32.445059 
L 138.490487 32.334303 
L 138.490487 32.320458 
L 141.97105 32.209701 
L 141.97105 32.195856 
L 144.8783 32.085099 
L 144.8783 32.071255 
L 145.928756 31.974343 
L 145.928756 31.946653 
L 152.74193 31.835896 
L 152.74193 31.822052 
L 158.408478 31.711295 
L 158.408478 31.69745 
L 158.519442 31.69745 
L 170.902995 31.586693 
L 170.902995 31.572849 
L 170.951079 31.572849 
L 180.353406 31.462092 
L 180.46437 31.434403 
L 199.842337 31.323646 
L 199.842337 31.309801 
L 211.408457 31.199044 
L 211.408457 31.185199 
L 211.519421 31.185199 
L 230.202015 31.088287 
L 230.202015 31.060598 
L 235.173191 30.949841 
L 235.173191 30.935996 
L 250.918945 30.825239 
L 250.918945 30.811395 
L 265.048327 30.700638 
L 265.048327 30.686793 
L 275.112738 30.589881 
L 275.112738 30.562192 
L 295.415403 30.451435 
L 295.415403 30.43759 
L 295.437596 30.43759 
L 335.817299 30.326833 
L 335.817299 30.312989 
L 335.84689 30.312989 
L 335.96895 30.285299 
L 335.96895 30.285299 
" clip-path="url(#p99e52ce310)" style="fill: none; stroke: #800080; stroke-width: 1.5; stroke-linecap: square"/>
   </g>
   <g id="line2d_14">
    <path d="M 75.074712 225.591288 
L 75.611037 138.619415 
L 75.618434 138.550192 
L 75.729398 128.014439 
L 75.733097 127.599101 
L 75.84406 119.679981 
L 75.847759 119.679981 
L 75.847759 119.569224 
L 75.958723 113.671418 
L 75.962422 113.671418 
L 75.962422 113.560661 
L 76.073386 106.084569 
L 76.080783 105.66923 
L 76.191747 99.605289 
L 76.195446 99.605289 
L 76.195446 99.494532 
L 76.306409 93.43059 
L 76.313807 93.402901 
L 76.424771 87.809676 
L 76.428469 87.809676 
L 76.539433 81.73189 
L 76.557927 81.676512 
L 76.668891 77.675418 
L 76.676288 77.647729 
L 76.787252 73.660479 
L 76.805746 73.549722 
L 76.91671 70.75311 
L 76.927806 70.656198 
L 77.03877 68.579506 
L 77.042469 68.579506 
L 77.149734 66.572036 
L 77.171927 66.475124 
L 77.28289 64.661479 
L 77.293987 64.619946 
L 77.40495 63.19395 
L 77.412348 63.19395 
L 77.523312 61.878712 
L 77.545504 61.809489 
L 77.656468 60.563473 
L 77.671263 60.480406 
L 77.782227 59.386681 
L 77.800721 59.331302 
L 77.904287 58.043753 
L 77.919082 57.988375 
L 78.026347 56.963873 
L 78.04854 56.866961 
L 78.159504 55.773236 
L 78.174299 55.731702 
L 78.281564 54.845647 
L 78.288961 54.845647 
L 78.399925 54.19495 
L 78.411022 54.098038 
L 78.521985 53.184293 
L 78.566371 53.073536 
L 78.673636 52.325927 
L 78.714322 52.21517 
L 78.825286 51.619852 
L 78.858575 51.536784 
L 78.96584 50.927621 
L 78.984334 50.816864 
L 79.095298 50.221546 
L 79.124888 50.110789 
L 79.235852 49.529315 
L 79.27284 49.418558 
L 79.383804 48.892462 
L 79.409695 48.781706 
L 79.520659 48.283299 
L 79.54655 48.172542 
L 79.650117 47.771049 
L 79.738888 47.674136 
L 79.846153 47.35571 
L 79.905333 47.244953 
L 79.994104 47.023439 
L 80.101369 46.912682 
L 80.201237 46.649635 
L 80.245622 46.538878 
L 80.349188 46.386587 
L 80.426863 46.289675 
L 80.534128 46.054316 
L 80.604405 45.957404 
L 80.715368 45.680512 
L 80.796742 45.569755 
L 80.889212 45.389775 
L 81.011272 45.279018 
L 81.118537 45.126727 
L 81.244296 45.01597 
L 81.347862 44.877524 
L 81.421838 44.766767 
L 81.510609 44.586787 
L 81.632669 44.47603 
L 81.739934 44.379118 
L 81.850897 44.268361 
L 81.950765 44.157604 
L 82.091319 44.046847 
L 82.202283 43.908401 
L 82.261463 43.811489 
L 82.372427 43.645353 
L 82.498186 43.534596 
L 82.594354 43.409995 
L 82.734908 43.299238 
L 82.838475 43.188481 
L 82.927246 43.077724 
L 83.019715 42.925433 
L 83.141776 42.814676 
L 83.241643 42.607007 
L 83.345209 42.49625 
L 83.422884 42.302426 
L 83.563438 42.191669 
L 83.667004 42.067067 
L 83.925919 41.95631 
L 84.003594 41.873243 
L 84.144148 41.762486 
L 84.232919 41.679418 
L 84.403063 41.568661 
L 84.510328 41.444059 
L 84.698967 41.333303 
L 84.769244 41.250235 
L 85.065147 41.139478 
L 85.150219 41.028721 
L 85.33146 40.931809 
L 85.42393 40.751829 
L 85.63846 40.641072 
L 85.749423 40.599538 
L 85.926965 40.488781 
L 85.997242 40.419558 
L 86.241363 40.308801 
L 86.326435 40.267267 
L 86.466989 40.15651 
L 86.577953 40.031909 
L 86.718507 39.921152 
L 86.825772 39.838084 
L 87.154964 39.727327 
L 87.236337 39.671949 
L 87.56553 39.575036 
L 87.628409 39.478124 
L 87.80965 39.367367 
L 87.916915 39.270455 
L 88.2683 39.159698 
L 88.338577 39.104319 
L 88.530914 38.993563 
L 88.641878 38.813583 
L 88.800926 38.702826 
L 88.856408 38.661292 
L 89.24848 38.550535 
L 89.303962 38.495156 
L 89.73672 38.398244 
L 89.792202 38.315176 
L 90.106599 38.204419 
L 90.184274 38.149041 
L 90.454286 38.038284 
L 90.517165 37.982906 
L 91.042394 37.872149 
L 91.138562 37.81677 
L 91.704477 37.719858 
L 91.778453 37.664479 
L 92.118742 37.553723 
L 92.140935 37.526033 
L 92.740139 37.415276 
L 92.777127 37.387587 
L 93.272765 37.27683 
L 93.372632 37.249141 
L 93.83868 37.138384 
L 93.875668 37.110695 
L 94.478571 36.999938 
L 94.556245 36.958404 
L 95.177642 36.847647 
L 95.284907 36.792269 
L 95.747256 36.681512 
L 95.854521 36.626133 
L 96.457424 36.515376 
L 96.457424 36.501532 
L 97.774194 36.390775 
L 97.774194 36.37693 
L 99.423854 36.266173 
L 99.475638 36.238484 
L 100.540889 36.127727 
L 100.637058 36.100038 
L 101.454491 35.989281 
L 101.558057 35.961592 
L 102.364393 35.850835 
L 102.445767 35.781612 
L 105.123692 35.670855 
L 105.142186 35.643166 
L 106.581015 35.532409 
L 106.65869 35.504719 
L 107.391051 35.393963 
L 107.391051 35.380118 
L 108.559869 35.269361 
L 108.559869 35.255516 
L 109.532651 35.144759 
L 109.558542 35.11707 
L 110.823529 35.006313 
L 110.823529 34.992469 
L 111.389444 34.881712 
L 111.389444 34.867867 
L 111.933166 34.75711 
L 111.973853 34.715576 
L 112.728406 34.604819 
L 112.728406 34.590975 
L 113.568032 34.480218 
L 113.57543 34.452529 
L 114.296694 34.341772 
L 114.407658 34.314083 
L 115.217693 34.203326 
L 115.217693 34.189481 
L 116.271848 34.078724 
L 116.271848 34.051035 
L 116.78598 33.940278 
L 116.896944 33.912589 
L 117.76616 33.801832 
L 117.777256 33.774143 
L 118.5614 33.663386 
L 118.565099 33.635696 
L 120.059411 33.524939 
L 120.059411 33.49725 
L 121.302204 33.386493 
L 121.365084 33.344959 
L 122.245396 33.248047 
L 122.245396 33.220358 
L 123.85437 33.109601 
L 123.85437 33.095756 
L 124.989899 32.984999 
L 125.000996 32.95731 
L 126.676548 32.846553 
L 126.676548 32.832709 
L 127.952631 32.721952 
L 127.952631 32.708107 
L 129.450641 32.59735 
L 129.450641 32.583506 
L 129.543111 32.583506 
L 130.700833 32.472749 
L 130.700833 32.458904 
L 134.455106 32.348147 
L 134.455106 32.334303 
L 137.299476 32.223546 
L 137.299476 32.209701 
L 142.940133 32.098944 
L 142.940133 32.085099 
L 146.675912 31.974343 
L 146.675912 31.960498 
L 151.451052 31.849741 
L 151.451052 31.835896 
L 156.8106 31.725139 
L 156.8106 31.711295 
L 163.616376 31.600538 
L 163.616376 31.586693 
L 174.261497 31.475936 
L 174.261497 31.462092 
L 181.910597 31.351335 
L 181.910597 31.33749 
L 193.517404 31.226733 
L 193.517404 31.212889 
L 193.535898 31.212889 
L 201.111022 31.102132 
L 201.111022 31.088287 
L 218.073679 30.97753 
L 218.073679 30.963686 
L 247.160973 30.852929 
L 247.160973 30.839084 
L 266.106182 30.728327 
L 266.106182 30.714483 
L 279.070445 30.603726 
L 279.070445 30.589881 
L 289.989276 30.479124 
L 289.989276 30.465279 
L 309.026955 30.354523 
L 309.026955 30.340678 
L 335.96895 30.285299 
L 335.96895 30.285299 
" clip-path="url(#p99e52ce310)" style="fill: none; stroke: #228b22; stroke-width: 1.5; stroke-linecap: square"/>
   </g>
   <g id="line2d_15">
    <path d="M 75.074712 225.591288 
L 75.703506 150.885744 
L 75.740494 148.68445 
L 75.851458 140.003876 
L 75.858856 139.560848 
L 75.969819 131.032565 
L 75.973518 131.032565 
L 75.973518 130.935653 
L 76.080783 120.538347 
L 76.102976 120.053785 
L 76.21394 114.765142 
L 76.217638 114.765142 
L 76.328602 107.552098 
L 76.332301 107.552098 
L 76.443265 99.00997 
L 76.446963 99.00997 
L 76.557927 94.247422 
L 76.561626 94.247422 
L 76.67259 89.498719 
L 76.676288 89.498719 
L 76.787252 85.719139 
L 76.790951 85.719139 
L 76.901915 80.388962 
L 76.91671 80.347429 
L 77.027674 78.31227 
L 77.031372 78.31227 
L 77.142336 75.155698 
L 77.149734 75.155698 
L 77.260698 72.691356 
L 77.271794 72.635978 
L 77.382758 71.209982 
L 77.390155 71.140759 
L 77.49742 69.354804 
L 77.508517 69.340959 
L 77.61948 67.582693 
L 77.641673 67.485781 
L 77.752637 65.865961 
L 77.767432 65.796738 
L 77.874697 64.246141 
L 77.889492 64.176918 
L 78.000456 63.138572 
L 78.01895 63.027815 
L 78.129913 61.726421 
L 78.159504 61.615664 
L 78.270468 60.757298 
L 78.277865 60.729609 
L 78.388829 59.746641 
L 78.41472 59.635884 
L 78.510889 58.971342 
L 78.540479 58.888275 
L 78.651443 57.766861 
L 78.673636 57.697638 
L 78.784599 57.171542 
L 78.828985 57.060786 
L 78.932551 56.451622 
L 78.947346 56.368555 
L 79.05831 55.773236 
L 79.091599 55.662479 
L 79.202563 54.91487 
L 79.228454 54.831802 
L 79.332021 54.485687 
L 79.361611 54.37493 
L 79.472575 53.779612 
L 79.502165 53.696544 
L 79.613129 52.921246 
L 79.631623 52.852022 
L 79.742586 52.339772 
L 79.786972 52.242859 
L 79.897936 51.772142 
L 79.953418 51.702919 
L 80.060682 51.467561 
L 80.130959 51.384493 
L 80.241923 50.803019 
L 80.271514 50.706107 
L 80.382477 50.249235 
L 80.423164 50.152322 
L 80.523031 49.736984 
L 80.585911 49.626227 
L 80.696875 49.15551 
L 80.715368 49.058598 
L 80.826332 48.767861 
L 80.885513 48.657104 
L 80.996477 48.283299 
L 81.103742 48.186387 
L 81.214705 47.854116 
L 81.273886 47.743359 
L 81.362657 47.438778 
L 81.41444 47.35571 
L 81.521705 47.051129 
L 81.569789 46.940372 
L 81.665958 46.677324 
L 81.802813 46.566567 
L 81.913777 46.165073 
L 81.972958 46.054316 
L 82.072825 45.888181 
L 82.135704 45.791269 
L 82.246668 45.528221 
L 82.316945 45.445153 
L 82.42421 45.237484 
L 82.538873 45.140572 
L 82.649836 44.891369 
L 82.768198 44.780612 
L 82.879161 44.628321 
L 82.979029 44.517564 
L 83.078896 44.392962 
L 83.200956 44.282206 
L 83.31192 44.074536 
L 83.400691 43.977624 
L 83.504257 43.880712 
L 83.578233 43.769955 
L 83.685498 43.700732 
L 83.914823 43.589975 
L 84.025787 43.437684 
L 84.177437 43.326927 
L 84.255112 43.230015 
L 84.425256 43.146947 
L 84.532521 43.03619 
L 84.673075 42.925433 
L 84.761846 42.870055 
L 84.883906 42.759298 
L 84.987472 42.607007 
L 85.187207 42.49625 
L 85.272279 42.413183 
L 85.549689 42.302426 
L 85.645857 42.219358 
L 85.797508 42.108601 
L 85.897375 42.053223 
L 86.108206 41.942466 
L 86.21917 41.873243 
L 86.426302 41.762486 
L 86.522471 41.707107 
L 86.640832 41.59635 
L 86.740699 41.527127 
L 86.947832 41.41637 
L 86.977422 41.374836 
L 87.317711 41.277924 
L 87.406482 41.194856 
L 87.698686 41.084099 
L 87.783759 40.987187 
L 88.209119 40.87643 
L 88.29789 40.710295 
L 88.675167 40.599538 
L 88.760239 40.51647 
L 88.91189 40.405713 
L 89.00436 40.350335 
L 89.24848 40.253423 
L 89.337251 40.170355 
L 89.836588 40.059598 
L 89.932756 39.97653 
L 90.50237 39.865773 
L 90.598539 39.838084 
L 90.96102 39.741172 
L 91.020201 39.685793 
L 91.438164 39.575036 
L 91.438164 39.547347 
L 92.126139 39.43659 
L 92.159429 39.395056 
L 92.843705 39.284299 
L 92.947271 39.228921 
L 93.53168 39.118164 
L 93.590861 39.090475 
L 94.042113 38.979718 
L 94.145679 38.952029 
L 94.35651 38.841272 
L 94.44898 38.785893 
L 95.177642 38.675136 
L 95.240522 38.633603 
L 95.824931 38.522846 
L 95.824931 38.509001 
L 96.616472 38.398244 
L 96.690448 38.370555 
L 97.237869 38.259798 
L 97.315543 38.190575 
L 98.129278 38.079818 
L 98.15147 38.052129 
L 99.002192 37.941372 
L 99.005891 37.913683 
L 99.490433 37.81677 
L 99.575505 37.733703 
L 100.267179 37.622946 
L 100.330058 37.581412 
L 100.78501 37.470655 
L 100.8146 37.429121 
L 101.754093 37.318364 
L 101.846563 37.27683 
L 102.479056 37.166073 
L 102.545634 37.124539 
L 103.792127 37.013783 
L 103.884597 36.986093 
L 104.661343 36.875336 
L 104.750114 36.819958 
L 105.393703 36.709201 
L 105.471378 36.639978 
L 105.885643 36.529221 
L 105.95592 36.501532 
L 106.928702 36.390775 
L 106.969389 36.349241 
L 107.905183 36.238484 
L 107.905183 36.224639 
L 108.803989 36.113883 
L 108.811387 36.086193 
L 110.157747 35.975436 
L 110.235421 35.920058 
L 111.722335 35.809301 
L 111.722335 35.795456 
L 113.305418 35.684699 
L 113.305418 35.670855 
L 115.299066 35.560098 
L 115.299066 35.546253 
L 116.811872 35.435496 
L 116.911739 35.393963 
L 117.577522 35.283206 
L 117.684787 35.213983 
L 118.309882 35.103226 
L 118.417147 35.020158 
L 119.168002 34.909401 
L 119.171701 34.867867 
L 119.537881 34.75711 
L 119.548977 34.729421 
L 120.584639 34.618664 
L 120.669711 34.563286 
L 121.324397 34.452529 
L 121.368783 34.424839 
L 122.530203 34.314083 
L 122.556095 34.286393 
L 123.432708 34.175636 
L 123.432708 34.161792 
L 123.961635 34.051035 
L 124.054105 34.023346 
L 124.945514 33.912589 
L 125.056478 33.884899 
L 125.566911 33.774143 
L 125.644585 33.746453 
L 126.513801 33.635696 
L 126.513801 33.621852 
L 127.575354 33.511095 
L 127.575354 33.49725 
L 129.017883 33.386493 
L 129.095558 33.344959 
L 129.125148 33.344959 
L 132.206241 33.234203 
L 132.206241 33.220358 
L 136.670682 33.109601 
L 136.711369 33.081912 
L 140.19563 32.971155 
L 140.19563 32.95731 
L 143.665096 32.846553 
L 143.665096 32.832709 
L 146.509467 32.721952 
L 146.509467 32.708107 
L 148.048164 32.59735 
L 148.062959 32.569661 
L 151.928196 32.458904 
L 151.928196 32.445059 
L 151.961485 32.445059 
L 154.676398 32.334303 
L 154.717084 32.306613 
L 157.794479 32.195856 
L 157.794479 32.182012 
L 163.035666 32.071255 
L 163.068955 32.043566 
L 167.847793 31.932809 
L 167.847793 31.918964 
L 177.057783 31.808207 
L 177.057783 31.794363 
L 182.040055 31.683606 
L 182.091838 31.655916 
L 192.822031 31.545159 
L 192.822031 31.531315 
L 206.540848 31.420558 
L 206.540848 31.406713 
L 222.75265 31.295956 
L 222.75265 31.282112 
L 222.859915 31.282112 
L 241.390859 31.171355 
L 241.390859 31.15751 
L 241.446341 31.15751 
L 255.387085 31.046753 
L 255.387085 31.032909 
L 270.326502 30.922152 
L 270.326502 30.908307 
L 314.974611 30.79755 
L 314.97831 30.783706 
L 331.855894 30.672949 
L 331.855894 30.645259 
L 332.699219 30.534503 
L 332.810182 30.506813 
L 334.171337 30.396056 
L 334.274904 30.368367 
L 335.96895 30.285299 
L 335.96895 30.285299 
" clip-path="url(#p99e52ce310)" style="fill: none; stroke: #0000cd; stroke-width: 1.5; stroke-linecap: square"/>
   </g>
   <g id="line2d_16">
    <path d="M 75.074712 225.591288 
L 75.329928 181.593101 
L 75.400206 176.872087 
L 75.511169 159.109445 
L 75.529663 157.904964 
L 75.640627 141.332959 
L 75.648025 140.876087 
L 75.758988 132.943122 
L 75.766386 132.84621 
L 75.766386 132.832365 
L 75.87735 123.030378 
L 75.881048 123.030378 
L 75.881048 122.961155 
L 75.992012 114.086756 
L 75.995711 114.086756 
L 75.995711 113.989844 
L 76.106675 105.600007 
L 76.117771 105.516939 
L 76.228735 100.948216 
L 76.232434 100.948216 
L 76.343397 94.025909 
L 76.350795 94.025909 
L 76.350795 93.928996 
L 76.461759 89.221827 
L 76.476554 89.124915 
L 76.587518 84.500813 
L 76.594915 84.390056 
L 76.70218 81.344241 
L 76.716975 81.344241 
L 76.827939 78.104601 
L 76.835337 78.035378 
L 76.9463 75.97253 
L 76.949999 75.97253 
L 77.060963 73.81277 
L 77.064662 73.81277 
L 77.171927 71.583787 
L 77.19042 71.486875 
L 77.301384 69.050222 
L 77.308782 69.050222 
L 77.419746 66.710482 
L 77.430842 66.641259 
L 77.541806 64.966061 
L 77.545504 64.966061 
L 77.656468 63.124727 
L 77.667565 63.097038 
L 77.778528 61.684887 
L 77.789625 61.587975 
L 77.900588 60.369649 
L 77.904287 60.369649 
L 78.011552 59.455904 
L 78.022648 59.386681 
L 78.126215 58.583693 
L 78.166901 58.542159 
L 78.277865 57.531502 
L 78.29266 57.43459 
L 78.403624 56.783893 
L 78.440612 56.700826 
L 78.547877 55.676324 
L 78.621853 55.579412 
L 78.732816 54.527221 
L 78.762407 54.416464 
L 78.865973 53.876524 
L 78.884467 53.807301 
L 78.988033 53.225827 
L 79.002828 53.142759 
L 79.113792 52.547441 
L 79.147081 52.450529 
L 79.258045 52.049035 
L 79.287635 51.938278 
L 79.3949 51.273736 
L 79.42449 51.176824 
L 79.528057 50.733796 
L 79.57984 50.636884 
L 79.690803 50.124633 
L 79.753683 50.041566 
L 79.860948 49.598538 
L 79.942321 49.487781 
L 80.053285 48.906307 
L 80.112466 48.837084 
L 80.216032 48.477124 
L 80.256718 48.394056 
L 80.356586 47.951029 
L 80.412068 47.854116 
L 80.523031 47.53569 
L 80.633995 47.424933 
L 80.744959 47.092662 
L 80.77085 46.99575 
L 80.874417 46.552722 
L 80.966886 46.45581 
L 81.07785 46.234296 
L 81.144428 46.123539 
L 81.255392 45.818958 
L 81.281284 45.708201 
L 81.388548 45.514376 
L 81.462524 45.403619 
L 81.56609 45.112882 
L 81.654861 45.029815 
L 81.754729 44.739078 
L 81.817608 44.642166 
L 81.910078 44.420652 
L 82.028439 44.309895 
L 82.128307 44.11607 
L 82.213379 44.005313 
L 82.279957 43.853022 
L 82.450102 43.742266 
L 82.553668 43.520752 
L 82.686824 43.409995 
L 82.797788 43.243859 
L 82.897655 43.133103 
L 83.008619 42.966967 
L 83.160269 42.870055 
L 83.245342 42.703919 
L 83.448775 42.593163 
L 83.548643 42.427027 
L 83.64851 42.343959 
L 83.752076 42.163979 
L 83.888931 42.053223 
L 83.996196 41.983999 
L 84.140449 41.873243 
L 84.240317 41.762486 
L 84.2921 41.651729 
L 84.399365 41.527127 
L 84.551015 41.41637 
L 84.65828 41.181012 
L 84.787738 41.070255 
L 84.846918 40.959498 
L 85.105834 40.848741 
L 85.179809 40.751829 
L 85.486809 40.641072 
L 85.590375 40.585693 
L 85.708737 40.488781 
L 85.716134 40.447247 
L 85.901074 40.350335 
L 85.997242 40.239578 
L 86.27835 40.128821 
L 86.27835 40.114976 
L 86.518772 40.004219 
L 86.629736 39.865773 
L 86.851663 39.755016 
L 86.914543 39.713483 
L 87.143868 39.602726 
L 87.254831 39.478124 
L 87.480458 39.367367 
L 87.584024 39.270455 
L 87.850337 39.159698 
L 87.957602 39.07663 
L 88.205421 38.965873 
L 88.305288 38.868961 
L 88.767637 38.758204 
L 88.852709 38.688981 
L 89.237383 38.578224 
L 89.34095 38.522846 
L 89.61466 38.412089 
L 89.710829 38.287487 
L 90.054816 38.17673 
L 90.13619 38.121352 
L 90.679912 38.010595 
L 90.768683 37.955216 
L 90.99061 37.858304 
L 91.094177 37.775236 
L 91.412273 37.664479 
L 91.475152 37.622946 
L 91.81914 37.512189 
L 91.863525 37.442966 
L 92.573693 37.332209 
L 92.655067 37.262986 
L 93.217283 37.152229 
L 93.31715 37.09685 
L 93.705523 36.999938 
L 93.790595 36.944559 
L 94.123487 36.833803 
L 94.197462 36.806113 
L 94.889136 36.695356 
L 94.963112 36.598444 
L 95.406967 36.487687 
L 95.462449 36.446153 
L 95.828629 36.335396 
L 95.9174 36.293863 
L 96.501809 36.183106 
L 96.501809 36.169261 
L 97.57076 36.058504 
L 97.678025 35.961592 
L 98.206952 35.850835 
L 98.317916 35.823146 
L 99.016987 35.712389 
L 99.016987 35.698544 
L 99.974974 35.587787 
L 99.989769 35.546253 
L 100.611166 35.435496 
L 100.707335 35.380118 
L 101.842864 35.269361 
L 101.842864 35.255516 
L 102.989489 35.144759 
L 102.989489 35.130915 
L 104.21009 35.034003 
L 104.250777 34.992469 
L 104.842584 34.881712 
L 104.842584 34.867867 
L 105.4048 34.75711 
L 105.423294 34.715576 
L 106.111269 34.604819 
L 106.111269 34.590975 
L 107.165424 34.480218 
L 107.165424 34.466373 
L 108.204785 34.355616 
L 108.204785 34.341772 
L 109.188663 34.231015 
L 109.188663 34.21717 
L 110.594204 34.106413 
L 110.594204 34.092569 
L 112.654431 33.981812 
L 112.654431 33.967967 
L 113.346105 33.85721 
L 113.346105 33.843366 
L 114.448344 33.732609 
L 114.448344 33.718764 
L 115.972246 33.608007 
L 116.035126 33.566473 
L 116.900643 33.455716 
L 116.900643 33.441872 
L 118.50222 33.331115 
L 118.565099 33.303426 
L 119.811592 33.192669 
L 119.811592 33.178824 
L 121.390975 33.068067 
L 121.390975 33.054223 
L 123.55107 32.943466 
L 123.55107 32.929621 
L 124.982502 32.818864 
L 124.982502 32.805019 
L 127.479186 32.694263 
L 127.479186 32.680418 
L 130.889471 32.569661 
L 130.95605 32.541972 
L 132.491048 32.431215 
L 132.598313 32.403526 
L 136.966585 32.292769 
L 136.966585 32.278924 
L 144.160734 32.168167 
L 144.160734 32.154323 
L 149.398222 32.043566 
L 149.398222 32.029721 
L 153.662929 31.918964 
L 153.662929 31.905119 
L 160.243078 31.794363 
L 160.243078 31.780518 
L 163.412942 31.669761 
L 163.412942 31.655916 
L 167.625866 31.545159 
L 167.625866 31.531315 
L 171.095332 31.420558 
L 171.176705 31.392869 
L 174.231907 31.282112 
L 174.231907 31.268267 
L 183.76739 31.15751 
L 183.76739 31.143666 
L 192.85532 31.032909 
L 192.85532 31.019064 
L 206.855245 30.908307 
L 206.855245 30.894463 
L 219.623472 30.783706 
L 219.623472 30.769861 
L 232.976109 30.659104 
L 232.976109 30.645259 
L 273.585137 30.534503 
L 273.585137 30.520658 
L 332.521677 30.409901 
L 332.521677 30.396056 
L 335.96895 30.285299 
L 335.96895 30.285299 
" clip-path="url(#p99e52ce310)" style="fill: none; stroke: #8b4513; stroke-width: 1.5; stroke-linecap: square"/>
   </g>
   <g id="line2d_17">
    <path d="M 75.074712 225.591288 
L 79.749984 68.607195 
L 80.685778 57.683793 
L 80.874417 56.562379 
L 80.981681 55.897838 
L 81.014971 55.787081 
L 81.122236 54.901026 
L 81.129633 54.901026 
L 81.129633 54.790269 
L 81.236898 54.236484 
L 81.251693 54.139572 
L 81.358958 53.502719 
L 81.407042 53.405807 
L 81.518006 52.838178 
L 81.56609 52.727421 
L 81.677054 52.256704 
L 81.736235 52.145947 
L 81.8435 51.85521 
L 81.921174 51.744453 
L 82.028439 51.356804 
L 82.109813 51.259892 
L 82.217078 50.941466 
L 82.283656 50.872242 
L 82.383523 50.443059 
L 82.435306 50.332302 
L 82.54627 50.027721 
L 82.627644 49.930809 
L 82.738607 49.529315 
L 82.79039 49.432402 
L 82.893957 49.003219 
L 82.979029 48.892462 
L 83.0678 48.532502 
L 83.167667 48.421746 
L 83.263836 48.144853 
L 83.348908 48.061786 
L 83.452474 47.660292 
L 83.504257 47.549535 
L 83.604124 47.328021 
L 83.703992 47.217264 
L 83.814956 47.023439 
L 83.977702 46.912682 
L 84.081268 46.718858 
L 84.144148 46.608101 
L 84.255112 46.414276 
L 84.377172 46.303519 
L 84.480738 46.178918 
L 84.554714 46.068161 
L 84.624991 46.026627 
L 84.835822 45.929715 
L 84.935689 45.680512 
L 85.098436 45.569755 
L 85.2094 45.37593 
L 85.390641 45.265173 
L 85.497906 45.182106 
L 85.542291 45.071349 
L 85.631062 44.932902 
L 85.797508 44.822146 
L 85.897375 44.752922 
L 86.00464 44.642166 
L 86.082315 44.545253 
L 86.115604 44.545253 
L 86.226567 44.434496 
L 86.330134 44.337584 
L 86.337531 44.337584 
L 86.441097 44.268361 
L 86.441097 44.240672 
L 86.548362 44.157604 
L 86.637133 44.046847 
L 86.744398 43.880712 
L 86.944133 43.811489 
L 87.047699 43.659198 
L 87.188253 43.548441 
L 87.28812 43.409995 
L 87.532241 43.299238 
L 87.639506 43.174636 
L 87.783759 43.063879 
L 87.879927 42.966967 
L 88.020481 42.85621 
L 88.105553 42.814676 
L 88.23871 42.703919 
L 88.29789 42.607007 
L 88.434746 42.49625 
L 88.530914 42.440872 
L 88.734348 42.343959 
L 88.804625 42.219358 
L 89.067239 42.108601 
L 89.148612 42.053223 
L 89.477805 41.942466 
L 89.540684 41.887087 
L 89.903166 41.77633 
L 89.936455 41.734796 
L 90.347021 41.624039 
L 90.417298 41.568661 
L 90.768683 41.457904 
L 90.835261 41.388681 
L 91.016502 41.277924 
L 91.079381 41.167167 
L 91.955995 41.05641 
L 92.044766 41.001032 
L 92.226007 40.890275 
L 92.244501 40.807207 
L 92.73644 40.69645 
L 92.821512 40.654916 
L 93.217283 40.544159 
L 93.328247 40.447247 
L 93.601957 40.33649 
L 93.698126 40.281112 
L 93.971836 40.170355 
L 94.060607 40.128821 
L 94.659811 40.018064 
L 94.763378 39.97653 
L 95.36628 39.865773 
L 95.462449 39.768861 
L 95.784244 39.671949 
L 95.865617 39.575036 
L 96.34646 39.464279 
L 96.424135 39.43659 
L 96.938267 39.325833 
L 96.938267 39.311989 
L 97.611447 39.201232 
L 97.652133 39.173543 
L 98.15147 39.062786 
L 98.158868 39.035096 
L 98.76547 38.924339 
L 98.861638 38.868961 
L 99.423854 38.758204 
L 99.534818 38.71667 
L 100.207998 38.605913 
L 100.207998 38.592069 
L 100.718431 38.509001 
L 100.718431 38.467467 
L 101.291744 38.35671 
L 101.291744 38.342866 
L 102.682489 38.232109 
L 102.763863 38.204419 
L 103.829115 38.093663 
L 103.888295 38.052129 
L 104.572572 37.941372 
L 104.572572 37.927527 
L 105.353017 37.81677 
L 105.452884 37.775236 
L 106.303606 37.678324 
L 106.366486 37.63679 
L 107.20981 37.539878 
L 107.305979 37.498344 
L 108.297255 37.387587 
L 108.297255 37.373743 
L 109.806361 37.262986 
L 109.806361 37.249141 
L 111.24889 37.138384 
L 111.289577 37.110695 
L 112.536069 36.999938 
L 112.62484 36.944559 
L 113.804755 36.833803 
L 113.845441 36.792269 
L 115.398934 36.681512 
L 115.398934 36.667667 
L 115.43962 36.667667 
L 117.318606 36.55691 
L 117.385185 36.529221 
L 118.613183 36.418464 
L 118.613183 36.404619 
L 121.017398 36.293863 
L 121.069181 36.266173 
L 122.763227 36.155416 
L 122.859396 36.086193 
L 123.909852 35.975436 
L 123.991226 35.947747 
L 126.354753 35.83699 
L 126.354753 35.823146 
L 128.063595 35.712389 
L 128.063595 35.698544 
L 129.421051 35.587787 
L 129.421051 35.573943 
L 132.235831 35.463186 
L 132.235831 35.449341 
L 134.059335 35.338584 
L 134.059335 35.324739 
L 134.1666 35.324739 
L 136.607802 35.213983 
L 136.607802 35.200138 
L 137.754428 35.103226 
L 137.754428 35.075536 
L 140.450847 34.964779 
L 140.498931 34.93709 
L 142.178182 34.826333 
L 142.178182 34.812489 
L 143.853734 34.701732 
L 143.949903 34.674043 
L 147.17155 34.563286 
L 147.17155 34.549441 
L 147.223333 34.549441 
L 149.209584 34.438684 
L 149.298355 34.39715 
L 150.463474 34.286393 
L 150.463474 34.272549 
L 153.90335 34.161792 
L 153.936639 34.023346 
L 157.48378 33.912589 
L 157.48378 33.898744 
L 158.52314 33.787987 
L 158.52314 33.774143 
L 162.577016 33.67723 
L 162.665787 33.566473 
L 164.626146 33.455716 
L 164.626146 33.441872 
L 169.027707 33.331115 
L 169.027707 33.303426 
L 172.511969 33.192669 
L 172.511969 33.178824 
L 175.067833 33.068067 
L 175.067833 33.040378 
L 179.905852 32.929621 
L 179.976129 32.818864 
L 185.17663 32.708107 
L 185.17663 32.666573 
L 187.251652 32.638884 
L 187.314531 32.500438 
L 188.78665 32.389681 
L 188.78665 32.375836 
L 188.890216 32.375836 
L 190.214383 32.265079 
L 190.214383 32.223546 
L 194.934041 32.112789 
L 194.934041 32.098944 
L 194.96733 32.098944 
L 196.846316 31.988187 
L 196.868509 31.960498 
L 201.97654 31.849741 
L 201.97654 31.835896 
L 205.675331 31.725139 
L 205.675331 31.711295 
L 205.749307 31.711295 
L 214.049394 31.669761 
L 214.049394 31.586693 
L 217.322824 31.475936 
L 217.322824 31.462092 
L 218.391775 31.420558 
L 218.391775 31.33749 
L 218.491642 31.33749 
L 218.939196 31.254423 
L 335.96895 30.285299 
L 335.96895 30.285299 
" clip-path="url(#p99e52ce310)" style="fill: none; stroke: #000000; stroke-width: 1.5; stroke-linecap: square"/>
   </g>
   <g id="patch_3">
    <path d="M 62.03 235.356588 
L 62.03 20.52 
" style="fill: none; stroke: #000000; stroke-width: 0.8; stroke-linejoin: miter; stroke-linecap: square"/>
   </g>
   <g id="patch_4">
    <path d="M 349.013662 235.356588 
L 349.013662 20.52 
" style="fill: none; stroke: #000000; stroke-width: 0.8; stroke-linejoin: miter; stroke-linecap: square"/>
   </g>
   <g id="patch_5">
    <path d="M 62.03 235.356588 
L 349.013662 235.356588 
" style="fill: none; stroke: #000000; stroke-width: 0.8; stroke-linejoin: miter; stroke-linecap: square"/>
   </g>
   <g id="patch_6">
    <path d="M 62.03 20.52 
L 349.013662 20.52 
" style="fill: none; stroke: #000000; stroke-width: 0.8; stroke-linejoin: miter; stroke-linecap: square"/>
   </g>
   <g id="legend_1">
    <g id="patch_7">
     <path d="M 190.111162 229.356588 
L 340.613662 229.356588 
Q 343.013662 229.356588 343.013662 226.956588 
L 343.013662 140.087838 
Q 343.013662 137.687838 340.613662 137.687838 
L 190.111162 137.687838 
Q 187.711162 137.687838 187.711162 140.087838 
L 187.711162 226.956588 
Q 187.711162 229.356588 190.111162 229.356588 
z
" style="fill: #ffffff; opacity: 0.8; stroke: #cccccc; stroke-linejoin: miter"/>
    </g>
    <g id="line2d_18">
     <path d="M 192.511162 147.405963 
L 204.511162 147.405963 
L 216.511162 147.405963 
" style="fill: none; stroke: #800080; stroke-width: 1.5; stroke-linecap: square"/>
    </g>
    <g id="text_15">
     <!-- RC aggregated -->
     <g transform="translate(226.111162 151.605963) scale(0.12 -0.12)">
      <defs>
       <path id="DejaVuSans-52" d="M 2841 2188 
Q 3044 2119 3236 1894 
Q 3428 1669 3622 1275 
L 4263 0 
L 3584 0 
L 2988 1197 
Q 2756 1666 2539 1819 
Q 2322 1972 1947 1972 
L 1259 1972 
L 1259 0 
L 628 0 
L 628 4666 
L 2053 4666 
Q 2853 4666 3247 4331 
Q 3641 3997 3641 3322 
Q 3641 2881 3436 2590 
Q 3231 2300 2841 2188 
z
M 1259 4147 
L 1259 2491 
L 2053 2491 
Q 2509 2491 2742 2702 
Q 2975 2913 2975 3322 
Q 2975 3731 2742 3939 
Q 2509 4147 2053 4147 
L 1259 4147 
z
" transform="scale(0.015625)"/>
       <path id="DejaVuSans-43" d="M 4122 4306 
L 4122 3641 
Q 3803 3938 3442 4084 
Q 3081 4231 2675 4231 
Q 1875 4231 1450 3742 
Q 1025 3253 1025 2328 
Q 1025 1406 1450 917 
Q 1875 428 2675 428 
Q 3081 428 3442 575 
Q 3803 722 4122 1019 
L 4122 359 
Q 3791 134 3420 21 
Q 3050 -91 2638 -91 
Q 1578 -91 968 557 
Q 359 1206 359 2328 
Q 359 3453 968 4101 
Q 1578 4750 2638 4750 
Q 3056 4750 3426 4639 
Q 3797 4528 4122 4306 
z
" transform="scale(0.015625)"/>
       <path id="DejaVuSans-67" d="M 2906 1791 
Q 2906 2416 2648 2759 
Q 2391 3103 1925 3103 
Q 1463 3103 1205 2759 
Q 947 2416 947 1791 
Q 947 1169 1205 825 
Q 1463 481 1925 481 
Q 2391 481 2648 825 
Q 2906 1169 2906 1791 
z
M 3481 434 
Q 3481 -459 3084 -895 
Q 2688 -1331 1869 -1331 
Q 1566 -1331 1297 -1286 
Q 1028 -1241 775 -1147 
L 775 -588 
Q 1028 -725 1275 -790 
Q 1522 -856 1778 -856 
Q 2344 -856 2625 -561 
Q 2906 -266 2906 331 
L 2906 616 
Q 2728 306 2450 153 
Q 2172 0 1784 0 
Q 1141 0 747 490 
Q 353 981 353 1791 
Q 353 2603 747 3093 
Q 1141 3584 1784 3584 
Q 2172 3584 2450 3431 
Q 2728 3278 2906 2969 
L 2906 3500 
L 3481 3500 
L 3481 434 
z
" transform="scale(0.015625)"/>
       <path id="DejaVuSans-64" d="M 2906 2969 
L 2906 4863 
L 3481 4863 
L 3481 0 
L 2906 0 
L 2906 525 
Q 2725 213 2448 61 
Q 2172 -91 1784 -91 
Q 1150 -91 751 415 
Q 353 922 353 1747 
Q 353 2572 751 3078 
Q 1150 3584 1784 3584 
Q 2172 3584 2448 3432 
Q 2725 3281 2906 2969 
z
M 947 1747 
Q 947 1113 1208 752 
Q 1469 391 1925 391 
Q 2381 391 2643 752 
Q 2906 1113 2906 1747 
Q 2906 2381 2643 2742 
Q 2381 3103 1925 3103 
Q 1469 3103 1208 2742 
Q 947 2381 947 1747 
z
" transform="scale(0.015625)"/>
      </defs>
      <use xlink:href="#DejaVuSans-52"/>
      <use xlink:href="#DejaVuSans-43" x="64.482422"/>
      <use xlink:href="#DejaVuSans-20" x="134.306641"/>
      <use xlink:href="#DejaVuSans-61" x="166.09375"/>
      <use xlink:href="#DejaVuSans-67" x="227.373047"/>
      <use xlink:href="#DejaVuSans-67" x="290.849609"/>
      <use xlink:href="#DejaVuSans-72" x="354.326172"/>
      <use xlink:href="#DejaVuSans-65" x="393.189453"/>
      <use xlink:href="#DejaVuSans-67" x="454.712891"/>
      <use xlink:href="#DejaVuSans-61" x="518.189453"/>
      <use xlink:href="#DejaVuSans-74" x="579.46875"/>
      <use xlink:href="#DejaVuSans-65" x="618.677734"/>
      <use xlink:href="#DejaVuSans-64" x="680.201172"/>
     </g>
    </g>
    <g id="line2d_19">
     <path d="M 192.511162 165.019713 
L 204.511162 165.019713 
L 216.511162 165.019713 
" style="fill: none; stroke: #228b22; stroke-width: 1.5; stroke-linecap: square"/>
    </g>
    <g id="text_16">
     <!-- RC connected -->
     <g transform="translate(226.111162 169.219713) scale(0.12 -0.12)">
      <defs>
       <path id="DejaVuSans-63" d="M 3122 3366 
L 3122 2828 
Q 2878 2963 2633 3030 
Q 2388 3097 2138 3097 
Q 1578 3097 1268 2742 
Q 959 2388 959 1747 
Q 959 1106 1268 751 
Q 1578 397 2138 397 
Q 2388 397 2633 464 
Q 2878 531 3122 666 
L 3122 134 
Q 2881 22 2623 -34 
Q 2366 -91 2075 -91 
Q 1284 -91 818 406 
Q 353 903 353 1747 
Q 353 2603 823 3093 
Q 1294 3584 2113 3584 
Q 2378 3584 2631 3529 
Q 2884 3475 3122 3366 
z
" transform="scale(0.015625)"/>
       <path id="DejaVuSans-6e" d="M 3513 2113 
L 3513 0 
L 2938 0 
L 2938 2094 
Q 2938 2591 2744 2837 
Q 2550 3084 2163 3084 
Q 1697 3084 1428 2787 
Q 1159 2491 1159 1978 
L 1159 0 
L 581 0 
L 581 3500 
L 1159 3500 
L 1159 2956 
Q 1366 3272 1645 3428 
Q 1925 3584 2291 3584 
Q 2894 3584 3203 3211 
Q 3513 2838 3513 2113 
z
" transform="scale(0.015625)"/>
      </defs>
      <use xlink:href="#DejaVuSans-52"/>
      <use xlink:href="#DejaVuSans-43" x="64.482422"/>
      <use xlink:href="#DejaVuSans-20" x="134.306641"/>
      <use xlink:href="#DejaVuSans-63" x="166.09375"/>
      <use xlink:href="#DejaVuSans-6f" x="221.074219"/>
      <use xlink:href="#DejaVuSans-6e" x="282.255859"/>
      <use xlink:href="#DejaVuSans-6e" x="345.634766"/>
      <use xlink:href="#DejaVuSans-65" x="409.013672"/>
      <use xlink:href="#DejaVuSans-63" x="470.537109"/>
      <use xlink:href="#DejaVuSans-74" x="525.517578"/>
      <use xlink:href="#DejaVuSans-65" x="564.726562"/>
      <use xlink:href="#DejaVuSans-64" x="626.25"/>
     </g>
    </g>
    <g id="line2d_20">
     <path d="M 192.511162 182.633463 
L 204.511162 182.633463 
L 216.511162 182.633463 
" style="fill: none; stroke: #0000cd; stroke-width: 1.5; stroke-linecap: square"/>
    </g>
    <g id="text_17">
     <!-- Bag of molecules -->
     <g transform="translate(226.111162 186.833463) scale(0.12 -0.12)">
      <defs>
       <path id="DejaVuSans-42" d="M 1259 2228 
L 1259 519 
L 2272 519 
Q 2781 519 3026 730 
Q 3272 941 3272 1375 
Q 3272 1813 3026 2020 
Q 2781 2228 2272 2228 
L 1259 2228 
z
M 1259 4147 
L 1259 2741 
L 2194 2741 
Q 2656 2741 2882 2914 
Q 3109 3088 3109 3444 
Q 3109 3797 2882 3972 
Q 2656 4147 2194 4147 
L 1259 4147 
z
M 628 4666 
L 2241 4666 
Q 2963 4666 3353 4366 
Q 3744 4066 3744 3513 
Q 3744 3084 3544 2831 
Q 3344 2578 2956 2516 
Q 3422 2416 3680 2098 
Q 3938 1781 3938 1306 
Q 3938 681 3513 340 
Q 3088 0 2303 0 
L 628 0 
L 628 4666 
z
" transform="scale(0.015625)"/>
       <path id="DejaVuSans-66" d="M 2375 4863 
L 2375 4384 
L 1825 4384 
Q 1516 4384 1395 4259 
Q 1275 4134 1275 3809 
L 1275 3500 
L 2222 3500 
L 2222 3053 
L 1275 3053 
L 1275 0 
L 697 0 
L 697 3053 
L 147 3053 
L 147 3500 
L 697 3500 
L 697 3744 
Q 697 4328 969 4595 
Q 1241 4863 1831 4863 
L 2375 4863 
z
" transform="scale(0.015625)"/>
       <path id="DejaVuSans-6d" d="M 3328 2828 
Q 3544 3216 3844 3400 
Q 4144 3584 4550 3584 
Q 5097 3584 5394 3201 
Q 5691 2819 5691 2113 
L 5691 0 
L 5113 0 
L 5113 2094 
Q 5113 2597 4934 2840 
Q 4756 3084 4391 3084 
Q 3944 3084 3684 2787 
Q 3425 2491 3425 1978 
L 3425 0 
L 2847 0 
L 2847 2094 
Q 2847 2600 2669 2842 
Q 2491 3084 2119 3084 
Q 1678 3084 1418 2786 
Q 1159 2488 1159 1978 
L 1159 0 
L 581 0 
L 581 3500 
L 1159 3500 
L 1159 2956 
Q 1356 3278 1631 3431 
Q 1906 3584 2284 3584 
Q 2666 3584 2933 3390 
Q 3200 3197 3328 2828 
z
" transform="scale(0.015625)"/>
      </defs>
      <use xlink:href="#DejaVuSans-42"/>
      <use xlink:href="#DejaVuSans-61" x="68.603516"/>
      <use xlink:href="#DejaVuSans-67" x="129.882812"/>
      <use xlink:href="#DejaVuSans-20" x="193.359375"/>
      <use xlink:href="#DejaVuSans-6f" x="225.146484"/>
      <use xlink:href="#DejaVuSans-66" x="286.328125"/>
      <use xlink:href="#DejaVuSans-20" x="321.533203"/>
      <use xlink:href="#DejaVuSans-6d" x="353.320312"/>
      <use xlink:href="#DejaVuSans-6f" x="450.732422"/>
      <use xlink:href="#DejaVuSans-6c" x="511.914062"/>
      <use xlink:href="#DejaVuSans-65" x="539.697266"/>
      <use xlink:href="#DejaVuSans-63" x="601.220703"/>
      <use xlink:href="#DejaVuSans-75" x="656.201172"/>
      <use xlink:href="#DejaVuSans-6c" x="719.580078"/>
      <use xlink:href="#DejaVuSans-65" x="747.363281"/>
      <use xlink:href="#DejaVuSans-73" x="808.886719"/>
     </g>
    </g>
    <g id="line2d_21">
     <path d="M 192.511162 200.247213 
L 204.511162 200.247213 
L 216.511162 200.247213 
" style="fill: none; stroke: #8b4513; stroke-width: 1.5; stroke-linecap: square"/>
    </g>
    <g id="text_18">
     <!-- CGR -->
     <g transform="translate(226.111162 204.447213) scale(0.12 -0.12)">
      <defs>
       <path id="DejaVuSans-47" d="M 3809 666 
L 3809 1919 
L 2778 1919 
L 2778 2438 
L 4434 2438 
L 4434 434 
Q 4069 175 3628 42 
Q 3188 -91 2688 -91 
Q 1594 -91 976 548 
Q 359 1188 359 2328 
Q 359 3472 976 4111 
Q 1594 4750 2688 4750 
Q 3144 4750 3555 4637 
Q 3966 4525 4313 4306 
L 4313 3634 
Q 3963 3931 3569 4081 
Q 3175 4231 2741 4231 
Q 1884 4231 1454 3753 
Q 1025 3275 1025 2328 
Q 1025 1384 1454 906 
Q 1884 428 2741 428 
Q 3075 428 3337 486 
Q 3600 544 3809 666 
z
" transform="scale(0.015625)"/>
      </defs>
      <use xlink:href="#DejaVuSans-43"/>
      <use xlink:href="#DejaVuSans-47" x="69.824219"/>
      <use xlink:href="#DejaVuSans-52" x="147.314453"/>
     </g>
    </g>
    <g id="line2d_22">
     <path d="M 192.511162 217.860963 
L 204.511162 217.860963 
L 216.511162 217.860963 
" style="fill: none; stroke: #000000; stroke-width: 1.5; stroke-linecap: square"/>
    </g>
    <g id="text_19">
     <!-- Morgan fingerprint -->
     <g transform="translate(226.111162 222.060963) scale(0.12 -0.12)">
      <defs>
       <path id="DejaVuSans-4d" d="M 628 4666 
L 1569 4666 
L 2759 1491 
L 3956 4666 
L 4897 4666 
L 4897 0 
L 4281 0 
L 4281 4097 
L 3078 897 
L 2444 897 
L 1241 4097 
L 1241 0 
L 628 0 
L 628 4666 
z
" transform="scale(0.015625)"/>
      </defs>
      <use xlink:href="#DejaVuSans-4d"/>
      <use xlink:href="#DejaVuSans-6f" x="86.279297"/>
      <use xlink:href="#DejaVuSans-72" x="147.460938"/>
      <use xlink:href="#DejaVuSans-67" x="186.824219"/>
      <use xlink:href="#DejaVuSans-61" x="250.300781"/>
      <use xlink:href="#DejaVuSans-6e" x="311.580078"/>
      <use xlink:href="#DejaVuSans-20" x="374.958984"/>
      <use xlink:href="#DejaVuSans-66" x="406.746094"/>
      <use xlink:href="#DejaVuSans-69" x="441.951172"/>
      <use xlink:href="#DejaVuSans-6e" x="469.734375"/>
      <use xlink:href="#DejaVuSans-67" x="533.113281"/>
      <use xlink:href="#DejaVuSans-65" x="596.589844"/>
      <use xlink:href="#DejaVuSans-72" x="658.113281"/>
      <use xlink:href="#DejaVuSans-70" x="699.226562"/>
      <use xlink:href="#DejaVuSans-72" x="762.703125"/>
      <use xlink:href="#DejaVuSans-69" x="803.816406"/>
      <use xlink:href="#DejaVuSans-6e" x="831.599609"/>
      <use xlink:href="#DejaVuSans-74" x="894.978516"/>
     </g>
    </g>
   </g>
  </g>
  <g id="axes_2">
   <g id="patch_8">
    <path d="M 417.896338 235.356588 
L 704.88 235.356588 
L 704.88 20.52 
L 417.896338 20.52 
z
" style="fill: #ffffff"/>
   </g>
   <g id="patch_9">
    <path d="M 430.94105 450.193176 
L 472.134877 450.193176 
L 472.134877 26.788354 
L 430.94105 26.788354 
z
" clip-path="url(#pffe397990e)" style="fill: #800080"/>
   </g>
   <g id="patch_10">
    <path d="M 485.866153 450.193176 
L 527.05998 450.193176 
L 527.05998 26.372268 
L 485.866153 26.372268 
z
" clip-path="url(#pffe397990e)" style="fill: #228b22"/>
   </g>
   <g id="patch_11">
    <path d="M 540.791256 450.193176 
L 581.985083 450.193176 
L 581.985083 28.171772 
L 540.791256 28.171772 
z
" clip-path="url(#pffe397990e)" style="fill: #0000cd"/>
   </g>
   <g id="patch_12">
    <path d="M 595.716358 450.193176 
L 636.910185 450.193176 
L 636.910185 26.303115 
L 595.716358 26.303115 
z
" clip-path="url(#pffe397990e)" style="fill: #8b4513"/>
   </g>
   <g id="patch_13">
    <path d="M 650.641461 450.193176 
L 691.835288 450.193176 
L 691.835288 31.779097 
L 650.641461 31.779097 
z
" clip-path="url(#pffe397990e)"/>
   </g>
   <g id="matplotlib.axis_3">
    <g id="xtick_7">
     <g id="line2d_23">
      <g>
       <use xlink:href="#m592a9d1174" x="451.537964" y="235.356588" style="stroke: #000000; stroke-width: 0.8"/>
      </g>
     </g>
     <g id="text_20">
      <!-- RC aggregated -->
      <g transform="translate(375.854778 323.503057) rotate(-45) scale(0.14 -0.14)">
       <use xlink:href="#DejaVuSans-52"/>
       <use xlink:href="#DejaVuSans-43" x="64.482422"/>
       <use xlink:href="#DejaVuSans-20" x="134.306641"/>
       <use xlink:href="#DejaVuSans-61" x="166.09375"/>
       <use xlink:href="#DejaVuSans-67" x="227.373047"/>
       <use xlink:href="#DejaVuSans-67" x="290.849609"/>
       <use xlink:href="#DejaVuSans-72" x="354.326172"/>
       <use xlink:href="#DejaVuSans-65" x="393.189453"/>
       <use xlink:href="#DejaVuSans-67" x="454.712891"/>
       <use xlink:href="#DejaVuSans-61" x="518.189453"/>
       <use xlink:href="#DejaVuSans-74" x="579.46875"/>
       <use xlink:href="#DejaVuSans-65" x="618.677734"/>
       <use xlink:href="#DejaVuSans-64" x="680.201172"/>
      </g>
     </g>
    </g>
    <g id="xtick_8">
     <g id="line2d_24">
      <g>
       <use xlink:href="#m592a9d1174" x="506.463066" y="235.356588" style="stroke: #000000; stroke-width: 0.8"/>
      </g>
     </g>
     <g id="text_21">
      <!-- RC connected -->
      <g transform="translate(436.122514 318.160423) rotate(-45) scale(0.14 -0.14)">
       <use xlink:href="#DejaVuSans-52"/>
       <use xlink:href="#DejaVuSans-43" x="64.482422"/>
       <use xlink:href="#DejaVuSans-20" x="134.306641"/>
       <use xlink:href="#DejaVuSans-63" x="166.09375"/>
       <use xlink:href="#DejaVuSans-6f" x="221.074219"/>
       <use xlink:href="#DejaVuSans-6e" x="282.255859"/>
       <use xlink:href="#DejaVuSans-6e" x="345.634766"/>
       <use xlink:href="#DejaVuSans-65" x="409.013672"/>
       <use xlink:href="#DejaVuSans-63" x="470.537109"/>
       <use xlink:href="#DejaVuSans-74" x="525.517578"/>
       <use xlink:href="#DejaVuSans-65" x="564.726562"/>
       <use xlink:href="#DejaVuSans-64" x="626.25"/>
      </g>
     </g>
    </g>
    <g id="xtick_9">
     <g id="line2d_25">
      <g>
       <use xlink:href="#m592a9d1174" x="561.388169" y="235.356588" style="stroke: #000000; stroke-width: 0.8"/>
      </g>
     </g>
     <g id="text_22">
      <!-- Bag of molecules -->
      <g transform="translate(474.094732 335.113309) rotate(-45) scale(0.14 -0.14)">
       <use xlink:href="#DejaVuSans-42"/>
       <use xlink:href="#DejaVuSans-61" x="68.603516"/>
       <use xlink:href="#DejaVuSans-67" x="129.882812"/>
       <use xlink:href="#DejaVuSans-20" x="193.359375"/>
       <use xlink:href="#DejaVuSans-6f" x="225.146484"/>
       <use xlink:href="#DejaVuSans-66" x="286.328125"/>
       <use xlink:href="#DejaVuSans-20" x="321.533203"/>
       <use xlink:href="#DejaVuSans-6d" x="353.320312"/>
       <use xlink:href="#DejaVuSans-6f" x="450.732422"/>
       <use xlink:href="#DejaVuSans-6c" x="511.914062"/>
       <use xlink:href="#DejaVuSans-65" x="539.697266"/>
       <use xlink:href="#DejaVuSans-63" x="601.220703"/>
       <use xlink:href="#DejaVuSans-75" x="656.201172"/>
       <use xlink:href="#DejaVuSans-6c" x="719.580078"/>
       <use xlink:href="#DejaVuSans-65" x="747.363281"/>
       <use xlink:href="#DejaVuSans-73" x="808.886719"/>
      </g>
     </g>
    </g>
    <g id="xtick_10">
     <g id="line2d_26">
      <g>
       <use xlink:href="#m592a9d1174" x="616.313272" y="235.356588" style="stroke: #000000; stroke-width: 0.8"/>
      </g>
     </g>
     <g id="text_23">
      <!-- CGR -->
      <g transform="translate(592.792691 271.340453) rotate(-45) scale(0.14 -0.14)">
       <use xlink:href="#DejaVuSans-43"/>
       <use xlink:href="#DejaVuSans-47" x="69.824219"/>
       <use xlink:href="#DejaVuSans-52" x="147.314453"/>
      </g>
     </g>
    </g>
    <g id="xtick_11">
     <g id="line2d_27">
      <g>
       <use xlink:href="#m592a9d1174" x="671.238375" y="235.356588" style="stroke: #000000; stroke-width: 0.8"/>
      </g>
     </g>
     <g id="text_24">
      <!-- Morgan fingerprint -->
      <g transform="translate(576.699745 342.358501) rotate(-45) scale(0.14 -0.14)">
       <use xlink:href="#DejaVuSans-4d"/>
       <use xlink:href="#DejaVuSans-6f" x="86.279297"/>
       <use xlink:href="#DejaVuSans-72" x="147.460938"/>
       <use xlink:href="#DejaVuSans-67" x="186.824219"/>
       <use xlink:href="#DejaVuSans-61" x="250.300781"/>
       <use xlink:href="#DejaVuSans-6e" x="311.580078"/>
       <use xlink:href="#DejaVuSans-20" x="374.958984"/>
       <use xlink:href="#DejaVuSans-66" x="406.746094"/>
       <use xlink:href="#DejaVuSans-69" x="441.951172"/>
       <use xlink:href="#DejaVuSans-6e" x="469.734375"/>
       <use xlink:href="#DejaVuSans-67" x="533.113281"/>
       <use xlink:href="#DejaVuSans-65" x="596.589844"/>
       <use xlink:href="#DejaVuSans-72" x="658.113281"/>
       <use xlink:href="#DejaVuSans-70" x="699.226562"/>
       <use xlink:href="#DejaVuSans-72" x="762.703125"/>
       <use xlink:href="#DejaVuSans-69" x="803.816406"/>
       <use xlink:href="#DejaVuSans-6e" x="831.599609"/>
       <use xlink:href="#DejaVuSans-74" x="894.978516"/>
      </g>
     </g>
    </g>
   </g>
   <g id="matplotlib.axis_4">
    <g id="ytick_7">
     <g id="line2d_28">
      <g>
       <use xlink:href="#m734e5c979c" x="417.896338" y="235.356588" style="stroke: #000000; stroke-width: 0.8"/>
      </g>
     </g>
     <g id="text_25">
      <!-- 0.5 -->
      <g transform="translate(388.631963 240.675494) scale(0.14 -0.14)">
       <defs>
        <path id="DejaVuSans-35" d="M 691 4666 
L 3169 4666 
L 3169 4134 
L 1269 4134 
L 1269 2991 
Q 1406 3038 1543 3061 
Q 1681 3084 1819 3084 
Q 2600 3084 3056 2656 
Q 3513 2228 3513 1497 
Q 3513 744 3044 326 
Q 2575 -91 1722 -91 
Q 1428 -91 1123 -41 
Q 819 9 494 109 
L 494 744 
Q 775 591 1075 516 
Q 1375 441 1709 441 
Q 2250 441 2565 725 
Q 2881 1009 2881 1497 
Q 2881 1984 2565 2268 
Q 2250 2553 1709 2553 
Q 1456 2553 1204 2497 
Q 953 2441 691 2322 
L 691 4666 
z
" transform="scale(0.015625)"/>
       </defs>
       <use xlink:href="#DejaVuSans-30"/>
       <use xlink:href="#DejaVuSans-2e" x="63.623047"/>
       <use xlink:href="#DejaVuSans-35" x="95.410156"/>
      </g>
     </g>
    </g>
    <g id="ytick_8">
     <g id="line2d_29">
      <g>
       <use xlink:href="#m734e5c979c" x="417.896338" y="192.38927" style="stroke: #000000; stroke-width: 0.8"/>
      </g>
     </g>
     <g id="text_26">
      <!-- 0.6 -->
      <g transform="translate(388.631963 197.708176) scale(0.14 -0.14)">
       <use xlink:href="#DejaVuSans-30"/>
       <use xlink:href="#DejaVuSans-2e" x="63.623047"/>
       <use xlink:href="#DejaVuSans-36" x="95.410156"/>
      </g>
     </g>
    </g>
    <g id="ytick_9">
     <g id="line2d_30">
      <g>
       <use xlink:href="#m734e5c979c" x="417.896338" y="149.421953" style="stroke: #000000; stroke-width: 0.8"/>
      </g>
     </g>
     <g id="text_27">
      <!-- 0.7 -->
      <g transform="translate(388.631963 154.740859) scale(0.14 -0.14)">
       <defs>
        <path id="DejaVuSans-37" d="M 525 4666 
L 3525 4666 
L 3525 4397 
L 1831 0 
L 1172 0 
L 2766 4134 
L 525 4134 
L 525 4666 
z
" transform="scale(0.015625)"/>
       </defs>
       <use xlink:href="#DejaVuSans-30"/>
       <use xlink:href="#DejaVuSans-2e" x="63.623047"/>
       <use xlink:href="#DejaVuSans-37" x="95.410156"/>
      </g>
     </g>
    </g>
    <g id="ytick_10">
     <g id="line2d_31">
      <g>
       <use xlink:href="#m734e5c979c" x="417.896338" y="106.454635" style="stroke: #000000; stroke-width: 0.8"/>
      </g>
     </g>
     <g id="text_28">
      <!-- 0.8 -->
      <g transform="translate(388.631963 111.773541) scale(0.14 -0.14)">
       <use xlink:href="#DejaVuSans-30"/>
       <use xlink:href="#DejaVuSans-2e" x="63.623047"/>
       <use xlink:href="#DejaVuSans-38" x="95.410156"/>
      </g>
     </g>
    </g>
    <g id="ytick_11">
     <g id="line2d_32">
      <g>
       <use xlink:href="#m734e5c979c" x="417.896338" y="63.487318" style="stroke: #000000; stroke-width: 0.8"/>
      </g>
     </g>
     <g id="text_29">
      <!-- 0.9 -->
      <g transform="translate(388.631963 68.806224) scale(0.14 -0.14)">
       <defs>
        <path id="DejaVuSans-39" d="M 703 97 
L 703 672 
Q 941 559 1184 500 
Q 1428 441 1663 441 
Q 2288 441 2617 861 
Q 2947 1281 2994 2138 
Q 2813 1869 2534 1725 
Q 2256 1581 1919 1581 
Q 1219 1581 811 2004 
Q 403 2428 403 3163 
Q 403 3881 828 4315 
Q 1253 4750 1959 4750 
Q 2769 4750 3195 4129 
Q 3622 3509 3622 2328 
Q 3622 1225 3098 567 
Q 2575 -91 1691 -91 
Q 1453 -91 1209 -44 
Q 966 3 703 97 
z
M 1959 2075 
Q 2384 2075 2632 2365 
Q 2881 2656 2881 3163 
Q 2881 3666 2632 3958 
Q 2384 4250 1959 4250 
Q 1534 4250 1286 3958 
Q 1038 3666 1038 3163 
Q 1038 2656 1286 2365 
Q 1534 2075 1959 2075 
z
" transform="scale(0.015625)"/>
       </defs>
       <use xlink:href="#DejaVuSans-30"/>
       <use xlink:href="#DejaVuSans-2e" x="63.623047"/>
       <use xlink:href="#DejaVuSans-39" x="95.410156"/>
      </g>
     </g>
    </g>
    <g id="ytick_12">
     <g id="line2d_33">
      <g>
       <use xlink:href="#m734e5c979c" x="417.896338" y="20.52" style="stroke: #000000; stroke-width: 0.8"/>
      </g>
     </g>
     <g id="text_30">
      <!-- 1.0 -->
      <g transform="translate(388.631963 25.838906) scale(0.14 -0.14)">
       <use xlink:href="#DejaVuSans-31"/>
       <use xlink:href="#DejaVuSans-2e" x="63.623047"/>
       <use xlink:href="#DejaVuSans-30" x="95.410156"/>
      </g>
     </g>
    </g>
    <g id="text_31">
     <!-- ROC-AUC -->
     <g transform="translate(381.720401 160.367981) rotate(-90) scale(0.14 -0.14)">
      <defs>
       <path id="DejaVuSans-4f" d="M 2522 4238 
Q 1834 4238 1429 3725 
Q 1025 3213 1025 2328 
Q 1025 1447 1429 934 
Q 1834 422 2522 422 
Q 3209 422 3611 934 
Q 4013 1447 4013 2328 
Q 4013 3213 3611 3725 
Q 3209 4238 2522 4238 
z
M 2522 4750 
Q 3503 4750 4090 4092 
Q 4678 3434 4678 2328 
Q 4678 1225 4090 567 
Q 3503 -91 2522 -91 
Q 1538 -91 948 565 
Q 359 1222 359 2328 
Q 359 3434 948 4092 
Q 1538 4750 2522 4750 
z
" transform="scale(0.015625)"/>
       <path id="DejaVuSans-2d" d="M 313 2009 
L 1997 2009 
L 1997 1497 
L 313 1497 
L 313 2009 
z
" transform="scale(0.015625)"/>
       <path id="DejaVuSans-41" d="M 2188 4044 
L 1331 1722 
L 3047 1722 
L 2188 4044 
z
M 1831 4666 
L 2547 4666 
L 4325 0 
L 3669 0 
L 3244 1197 
L 1141 1197 
L 716 0 
L 50 0 
L 1831 4666 
z
" transform="scale(0.015625)"/>
       <path id="DejaVuSans-55" d="M 556 4666 
L 1191 4666 
L 1191 1831 
Q 1191 1081 1462 751 
Q 1734 422 2344 422 
Q 2950 422 3222 751 
Q 3494 1081 3494 1831 
L 3494 4666 
L 4128 4666 
L 4128 1753 
Q 4128 841 3676 375 
Q 3225 -91 2344 -91 
Q 1459 -91 1007 375 
Q 556 841 556 1753 
L 556 4666 
z
" transform="scale(0.015625)"/>
      </defs>
      <use xlink:href="#DejaVuSans-52"/>
      <use xlink:href="#DejaVuSans-4f" x="69.482422"/>
      <use xlink:href="#DejaVuSans-43" x="148.193359"/>
      <use xlink:href="#DejaVuSans-2d" x="218.017578"/>
      <use xlink:href="#DejaVuSans-41" x="251.851562"/>
      <use xlink:href="#DejaVuSans-55" x="320.259766"/>
      <use xlink:href="#DejaVuSans-43" x="393.453125"/>
     </g>
    </g>
   </g>
   <g id="LineCollection_1">
    <path d="M 451.537964 27.251895 
L 451.537964 26.381958 
" clip-path="url(#pffe397990e)" style="fill: none; stroke: #000000; stroke-width: 1.5"/>
   </g>
   <g id="LineCollection_2">
    <path d="M 506.463066 26.734912 
L 506.463066 26.050433 
" clip-path="url(#pffe397990e)" style="fill: none; stroke: #000000; stroke-width: 1.5"/>
   </g>
   <g id="LineCollection_3">
    <path d="M 561.388169 28.975574 
L 561.388169 27.77464 
" clip-path="url(#pffe397990e)" style="fill: none; stroke: #000000; stroke-width: 1.5"/>
   </g>
   <g id="LineCollection_4">
    <path d="M 616.313272 26.57085 
L 616.313272 25.90238 
" clip-path="url(#pffe397990e)" style="fill: none; stroke: #000000; stroke-width: 1.5"/>
   </g>
   <g id="LineCollection_5">
    <path d="M 671.238375 32.306169 
L 671.238375 31.298778 
" clip-path="url(#pffe397990e)" style="fill: none; stroke: #000000; stroke-width: 1.5"/>
   </g>
   <g id="patch_14">
    <path d="M 417.896338 235.356588 
L 417.896338 20.52 
" style="fill: none; stroke: #000000; stroke-width: 0.8; stroke-linejoin: miter; stroke-linecap: square"/>
   </g>
   <g id="patch_15">
    <path d="M 704.88 235.356588 
L 704.88 20.52 
" style="fill: none; stroke: #000000; stroke-width: 0.8; stroke-linejoin: miter; stroke-linecap: square"/>
   </g>
   <g id="patch_16">
    <path d="M 417.896338 235.356588 
L 704.88 235.356588 
" style="fill: none; stroke: #000000; stroke-width: 0.8; stroke-linejoin: miter; stroke-linecap: square"/>
   </g>
   <g id="patch_17">
    <path d="M 417.896338 20.52 
L 704.88 20.52 
" style="fill: none; stroke: #000000; stroke-width: 0.8; stroke-linejoin: miter; stroke-linecap: square"/>
   </g>
  </g>
 </g>
 <defs>
  <clipPath id="p99e52ce310">
   <rect x="62.03" y="20.52" width="286.983662" height="214.836588"/>
  </clipPath>
  <clipPath id="pffe397990e">
   <rect x="417.896338" y="20.52" width="286.983662" height="214.836588"/>
  </clipPath>
 </defs>
</svg>
