<?xml version="1.0" encoding="utf-8" standalone="no"?>
<!DOCTYPE svg PUBLIC "-//W3C//DTD SVG 1.1//EN"
  "http://www.w3.org/Graphics/SVG/1.1/DTD/svg11.dtd">
<svg xmlns:xlink="http://www.w3.org/1999/xlink" width="720pt" height="360pt" viewBox="0 0 720 360" xmlns="http://www.w3.org/2000/svg" version="1.1">
 <metadata>
  <rdf:RDF xmlns:dc="http://purl.org/dc/elements/1.1/" xmlns:cc="http://creativecommons.org/ns#" xmlns:rdf="http://www.w3.org/1999/02/22-rdf-syntax-ns#">
   <cc:Work>
    <dc:type rdf:resource="http://purl.org/dc/dcmitype/StillImage"/>
    <dc:date>2025-10-23T13:43:14.113973</dc:date>
    <dc:format>image/svg+xml</dc:format>
    <dc:creator>
     <cc:Agent>
      <dc:title>Matplotlib v3.8.4, https://matplotlib.org/</dc:title>
     </cc:Agent>
    </dc:creator>
   </cc:Work>
  </rdf:RDF>
 </metadata>
 <defs>
  <style type="text/css">*{stroke-linejoin: round; stroke-linecap: butt}</style>
 </defs>
 <g id="figure_1">
  <g id="patch_1">
   <path d="M 0 360 
L 720 360 
L 720 0 
L 0 0 
z
" style="fill: #ffffff"/>
  </g>
  <g id="axes_1">
   <g id="patch_2">
    <path d="M 62.03 235.356588 
L 349.013662 235.356588 
L 349.013662 20.52 
L 62.03 20.52 
z
" style="fill: #ffffff"/>
   </g>
   <g id="matplotlib.axis_1">
    <g id="xtick_1">
     <g id="line2d_1">
      <defs>
       <path id="mca5b98e40a" d="M 0 0 
L 0 3.5 
" style="stroke: #000000; stroke-width: 0.8"/>
      </defs>
      <g>
       <use xlink:href="#mca5b98e40a" x="75.074712" y="235.356588" style="stroke: #000000; stroke-width: 0.8"/>
      </g>
     </g>
     <g id="text_1">
      <!-- 0.0 -->
      <g transform="translate(63.942524 252.9944) scale(0.14 -0.14)">
       <defs>
        <path id="DejaVuSans-30" d="M 2034 4250 
Q 1547 4250 1301 3770 
Q 1056 3291 1056 2328 
Q 1056 1369 1301 889 
Q 1547 409 2034 409 
Q 2525 409 2770 889 
Q 3016 1369 3016 2328 
Q 3016 3291 2770 3770 
Q 2525 4250 2034 4250 
z
M 2034 4750 
Q 2819 4750 3233 4129 
Q 3647 3509 3647 2328 
Q 3647 1150 3233 529 
Q 2819 -91 2034 -91 
Q 1250 -91 836 529 
Q 422 1150 422 2328 
Q 422 3509 836 4129 
Q 1250 4750 2034 4750 
z
" transform="scale(0.015625)"/>
        <path id="DejaVuSans-2e" d="M 684 794 
L 1344 794 
L 1344 0 
L 684 0 
L 684 794 
z
" transform="scale(0.015625)"/>
       </defs>
       <use xlink:href="#DejaVuSans-30"/>
       <use xlink:href="#DejaVuSans-2e" x="63.623047"/>
       <use xlink:href="#DejaVuSans-30" x="95.410156"/>
      </g>
     </g>
    </g>
    <g id="xtick_2">
     <g id="line2d_2">
      <g>
       <use xlink:href="#mca5b98e40a" x="127.25356" y="235.356588" style="stroke: #000000; stroke-width: 0.8"/>
      </g>
     </g>
     <g id="text_2">
      <!-- 0.2 -->
      <g transform="translate(116.121372 252.9944) scale(0.14 -0.14)">
       <defs>
        <path id="DejaVuSans-32" d="M 1228 531 
L 3431 531 
L 3431 0 
L 469 0 
L 469 531 
Q 828 903 1448 1529 
Q 2069 2156 2228 2338 
Q 2531 2678 2651 2914 
Q 2772 3150 2772 3378 
Q 2772 3750 2511 3984 
Q 2250 4219 1831 4219 
Q 1534 4219 1204 4116 
Q 875 4013 500 3803 
L 500 4441 
Q 881 4594 1212 4672 
Q 1544 4750 1819 4750 
Q 2544 4750 2975 4387 
Q 3406 4025 3406 3419 
Q 3406 3131 3298 2873 
Q 3191 2616 2906 2266 
Q 2828 2175 2409 1742 
Q 1991 1309 1228 531 
z
" transform="scale(0.015625)"/>
       </defs>
       <use xlink:href="#DejaVuSans-30"/>
       <use xlink:href="#DejaVuSans-2e" x="63.623047"/>
       <use xlink:href="#DejaVuSans-32" x="95.410156"/>
      </g>
     </g>
    </g>
    <g id="xtick_3">
     <g id="line2d_3">
      <g>
       <use xlink:href="#mca5b98e40a" x="179.432407" y="235.356588" style="stroke: #000000; stroke-width: 0.8"/>
      </g>
     </g>
     <g id="text_3">
      <!-- 0.4 -->
      <g transform="translate(168.30022 252.9944) scale(0.14 -0.14)">
       <defs>
        <path id="DejaVuSans-34" d="M 2419 4116 
L 825 1625 
L 2419 1625 
L 2419 4116 
z
M 2253 4666 
L 3047 4666 
L 3047 1625 
L 3713 1625 
L 3713 1100 
L 3047 1100 
L 3047 0 
L 2419 0 
L 2419 1100 
L 313 1100 
L 313 1709 
L 2253 4666 
z
" transform="scale(0.015625)"/>
       </defs>
       <use xlink:href="#DejaVuSans-30"/>
       <use xlink:href="#DejaVuSans-2e" x="63.623047"/>
       <use xlink:href="#DejaVuSans-34" x="95.410156"/>
      </g>
     </g>
    </g>
    <g id="xtick_4">
     <g id="line2d_4">
      <g>
       <use xlink:href="#mca5b98e40a" x="231.611255" y="235.356588" style="stroke: #000000; stroke-width: 0.8"/>
      </g>
     </g>
     <g id="text_4">
      <!-- 0.6 -->
      <g transform="translate(220.479067 252.9944) scale(0.14 -0.14)">
       <defs>
        <path id="DejaVuSans-36" d="M 2113 2584 
Q 1688 2584 1439 2293 
Q 1191 2003 1191 1497 
Q 1191 994 1439 701 
Q 1688 409 2113 409 
Q 2538 409 2786 701 
Q 3034 994 3034 1497 
Q 3034 2003 2786 2293 
Q 2538 2584 2113 2584 
z
M 3366 4563 
L 3366 3988 
Q 3128 4100 2886 4159 
Q 2644 4219 2406 4219 
Q 1781 4219 1451 3797 
Q 1122 3375 1075 2522 
Q 1259 2794 1537 2939 
Q 1816 3084 2150 3084 
Q 2853 3084 3261 2657 
Q 3669 2231 3669 1497 
Q 3669 778 3244 343 
Q 2819 -91 2113 -91 
Q 1303 -91 875 529 
Q 447 1150 447 2328 
Q 447 3434 972 4092 
Q 1497 4750 2381 4750 
Q 2619 4750 2861 4703 
Q 3103 4656 3366 4563 
z
" transform="scale(0.015625)"/>
       </defs>
       <use xlink:href="#DejaVuSans-30"/>
       <use xlink:href="#DejaVuSans-2e" x="63.623047"/>
       <use xlink:href="#DejaVuSans-36" x="95.410156"/>
      </g>
     </g>
    </g>
    <g id="xtick_5">
     <g id="line2d_5">
      <g>
       <use xlink:href="#mca5b98e40a" x="283.790102" y="235.356588" style="stroke: #000000; stroke-width: 0.8"/>
      </g>
     </g>
     <g id="text_5">
      <!-- 0.8 -->
      <g transform="translate(272.657915 252.9944) scale(0.14 -0.14)">
       <defs>
        <path id="DejaVuSans-38" d="M 2034 2216 
Q 1584 2216 1326 1975 
Q 1069 1734 1069 1313 
Q 1069 891 1326 650 
Q 1584 409 2034 409 
Q 2484 409 2743 651 
Q 3003 894 3003 1313 
Q 3003 1734 2745 1975 
Q 2488 2216 2034 2216 
z
M 1403 2484 
Q 997 2584 770 2862 
Q 544 3141 544 3541 
Q 544 4100 942 4425 
Q 1341 4750 2034 4750 
Q 2731 4750 3128 4425 
Q 3525 4100 3525 3541 
Q 3525 3141 3298 2862 
Q 3072 2584 2669 2484 
Q 3125 2378 3379 2068 
Q 3634 1759 3634 1313 
Q 3634 634 3220 271 
Q 2806 -91 2034 -91 
Q 1263 -91 848 271 
Q 434 634 434 1313 
Q 434 1759 690 2068 
Q 947 2378 1403 2484 
z
M 1172 3481 
Q 1172 3119 1398 2916 
Q 1625 2713 2034 2713 
Q 2441 2713 2670 2916 
Q 2900 3119 2900 3481 
Q 2900 3844 2670 4047 
Q 2441 4250 2034 4250 
Q 1625 4250 1398 4047 
Q 1172 3844 1172 3481 
z
" transform="scale(0.015625)"/>
       </defs>
       <use xlink:href="#DejaVuSans-30"/>
       <use xlink:href="#DejaVuSans-2e" x="63.623047"/>
       <use xlink:href="#DejaVuSans-38" x="95.410156"/>
      </g>
     </g>
    </g>
    <g id="xtick_6">
     <g id="line2d_6">
      <g>
       <use xlink:href="#mca5b98e40a" x="335.96895" y="235.356588" style="stroke: #000000; stroke-width: 0.8"/>
      </g>
     </g>
     <g id="text_6">
      <!-- 1.0 -->
      <g transform="translate(324.836762 252.9944) scale(0.14 -0.14)">
       <defs>
        <path id="DejaVuSans-31" d="M 794 531 
L 1825 531 
L 1825 4091 
L 703 3866 
L 703 4441 
L 1819 4666 
L 2450 4666 
L 2450 531 
L 3481 531 
L 3481 0 
L 794 0 
L 794 531 
z
" transform="scale(0.015625)"/>
       </defs>
       <use xlink:href="#DejaVuSans-31"/>
       <use xlink:href="#DejaVuSans-2e" x="63.623047"/>
       <use xlink:href="#DejaVuSans-30" x="95.410156"/>
      </g>
     </g>
    </g>
    <g id="text_7">
     <!-- False positive rate -->
     <g transform="translate(141.820737 270.543775) scale(0.14 -0.14)">
      <defs>
       <path id="DejaVuSans-46" d="M 628 4666 
L 3309 4666 
L 3309 4134 
L 1259 4134 
L 1259 2759 
L 3109 2759 
L 3109 2228 
L 1259 2228 
L 1259 0 
L 628 0 
L 628 4666 
z
" transform="scale(0.015625)"/>
       <path id="DejaVuSans-61" d="M 2194 1759 
Q 1497 1759 1228 1600 
Q 959 1441 959 1056 
Q 959 750 1161 570 
Q 1363 391 1709 391 
Q 2188 391 2477 730 
Q 2766 1069 2766 1631 
L 2766 1759 
L 2194 1759 
z
M 3341 1997 
L 3341 0 
L 2766 0 
L 2766 531 
Q 2569 213 2275 61 
Q 1981 -91 1556 -91 
Q 1019 -91 701 211 
Q 384 513 384 1019 
Q 384 1609 779 1909 
Q 1175 2209 1959 2209 
L 2766 2209 
L 2766 2266 
Q 2766 2663 2505 2880 
Q 2244 3097 1772 3097 
Q 1472 3097 1187 3025 
Q 903 2953 641 2809 
L 641 3341 
Q 956 3463 1253 3523 
Q 1550 3584 1831 3584 
Q 2591 3584 2966 3190 
Q 3341 2797 3341 1997 
z
" transform="scale(0.015625)"/>
       <path id="DejaVuSans-6c" d="M 603 4863 
L 1178 4863 
L 1178 0 
L 603 0 
L 603 4863 
z
" transform="scale(0.015625)"/>
       <path id="DejaVuSans-73" d="M 2834 3397 
L 2834 2853 
Q 2591 2978 2328 3040 
Q 2066 3103 1784 3103 
Q 1356 3103 1142 2972 
Q 928 2841 928 2578 
Q 928 2378 1081 2264 
Q 1234 2150 1697 2047 
L 1894 2003 
Q 2506 1872 2764 1633 
Q 3022 1394 3022 966 
Q 3022 478 2636 193 
Q 2250 -91 1575 -91 
Q 1294 -91 989 -36 
Q 684 19 347 128 
L 347 722 
Q 666 556 975 473 
Q 1284 391 1588 391 
Q 1994 391 2212 530 
Q 2431 669 2431 922 
Q 2431 1156 2273 1281 
Q 2116 1406 1581 1522 
L 1381 1569 
Q 847 1681 609 1914 
Q 372 2147 372 2553 
Q 372 3047 722 3315 
Q 1072 3584 1716 3584 
Q 2034 3584 2315 3537 
Q 2597 3491 2834 3397 
z
" transform="scale(0.015625)"/>
       <path id="DejaVuSans-65" d="M 3597 1894 
L 3597 1613 
L 953 1613 
Q 991 1019 1311 708 
Q 1631 397 2203 397 
Q 2534 397 2845 478 
Q 3156 559 3463 722 
L 3463 178 
Q 3153 47 2828 -22 
Q 2503 -91 2169 -91 
Q 1331 -91 842 396 
Q 353 884 353 1716 
Q 353 2575 817 3079 
Q 1281 3584 2069 3584 
Q 2775 3584 3186 3129 
Q 3597 2675 3597 1894 
z
M 3022 2063 
Q 3016 2534 2758 2815 
Q 2500 3097 2075 3097 
Q 1594 3097 1305 2825 
Q 1016 2553 972 2059 
L 3022 2063 
z
" transform="scale(0.015625)"/>
       <path id="DejaVuSans-20" transform="scale(0.015625)"/>
       <path id="DejaVuSans-70" d="M 1159 525 
L 1159 -1331 
L 581 -1331 
L 581 3500 
L 1159 3500 
L 1159 2969 
Q 1341 3281 1617 3432 
Q 1894 3584 2278 3584 
Q 2916 3584 3314 3078 
Q 3713 2572 3713 1747 
Q 3713 922 3314 415 
Q 2916 -91 2278 -91 
Q 1894 -91 1617 61 
Q 1341 213 1159 525 
z
M 3116 1747 
Q 3116 2381 2855 2742 
Q 2594 3103 2138 3103 
Q 1681 3103 1420 2742 
Q 1159 2381 1159 1747 
Q 1159 1113 1420 752 
Q 1681 391 2138 391 
Q 2594 391 2855 752 
Q 3116 1113 3116 1747 
z
" transform="scale(0.015625)"/>
       <path id="DejaVuSans-6f" d="M 1959 3097 
Q 1497 3097 1228 2736 
Q 959 2375 959 1747 
Q 959 1119 1226 758 
Q 1494 397 1959 397 
Q 2419 397 2687 759 
Q 2956 1122 2956 1747 
Q 2956 2369 2687 2733 
Q 2419 3097 1959 3097 
z
M 1959 3584 
Q 2709 3584 3137 3096 
Q 3566 2609 3566 1747 
Q 3566 888 3137 398 
Q 2709 -91 1959 -91 
Q 1206 -91 779 398 
Q 353 888 353 1747 
Q 353 2609 779 3096 
Q 1206 3584 1959 3584 
z
" transform="scale(0.015625)"/>
       <path id="DejaVuSans-69" d="M 603 3500 
L 1178 3500 
L 1178 0 
L 603 0 
L 603 3500 
z
M 603 4863 
L 1178 4863 
L 1178 4134 
L 603 4134 
L 603 4863 
z
" transform="scale(0.015625)"/>
       <path id="DejaVuSans-74" d="M 1172 4494 
L 1172 3500 
L 2356 3500 
L 2356 3053 
L 1172 3053 
L 1172 1153 
Q 1172 725 1289 603 
Q 1406 481 1766 481 
L 2356 481 
L 2356 0 
L 1766 0 
Q 1100 0 847 248 
Q 594 497 594 1153 
L 594 3053 
L 172 3053 
L 172 3500 
L 594 3500 
L 594 4494 
L 1172 4494 
z
" transform="scale(0.015625)"/>
       <path id="DejaVuSans-76" d="M 191 3500 
L 800 3500 
L 1894 563 
L 2988 3500 
L 3597 3500 
L 2284 0 
L 1503 0 
L 191 3500 
z
" transform="scale(0.015625)"/>
       <path id="DejaVuSans-72" d="M 2631 2963 
Q 2534 3019 2420 3045 
Q 2306 3072 2169 3072 
Q 1681 3072 1420 2755 
Q 1159 2438 1159 1844 
L 1159 0 
L 581 0 
L 581 3500 
L 1159 3500 
L 1159 2956 
Q 1341 3275 1631 3429 
Q 1922 3584 2338 3584 
Q 2397 3584 2469 3576 
Q 2541 3569 2628 3553 
L 2631 2963 
z
" transform="scale(0.015625)"/>
      </defs>
      <use xlink:href="#DejaVuSans-46"/>
      <use xlink:href="#DejaVuSans-61" x="48.394531"/>
      <use xlink:href="#DejaVuSans-6c" x="109.673828"/>
      <use xlink:href="#DejaVuSans-73" x="137.457031"/>
      <use xlink:href="#DejaVuSans-65" x="189.556641"/>
      <use xlink:href="#DejaVuSans-20" x="251.080078"/>
      <use xlink:href="#DejaVuSans-70" x="282.867188"/>
      <use xlink:href="#DejaVuSans-6f" x="346.34375"/>
      <use xlink:href="#DejaVuSans-73" x="407.525391"/>
      <use xlink:href="#DejaVuSans-69" x="459.625"/>
      <use xlink:href="#DejaVuSans-74" x="487.408203"/>
      <use xlink:href="#DejaVuSans-69" x="526.617188"/>
      <use xlink:href="#DejaVuSans-76" x="554.400391"/>
      <use xlink:href="#DejaVuSans-65" x="613.580078"/>
      <use xlink:href="#DejaVuSans-20" x="675.103516"/>
      <use xlink:href="#DejaVuSans-72" x="706.890625"/>
      <use xlink:href="#DejaVuSans-61" x="748.003906"/>
      <use xlink:href="#DejaVuSans-74" x="809.283203"/>
      <use xlink:href="#DejaVuSans-65" x="848.492188"/>
     </g>
    </g>
   </g>
   <g id="matplotlib.axis_2">
    <g id="ytick_1">
     <g id="line2d_7">
      <defs>
       <path id="m34d0037978" d="M 0 0 
L -3.5 0 
" style="stroke: #000000; stroke-width: 0.8"/>
      </defs>
      <g>
       <use xlink:href="#m34d0037978" x="62.03" y="225.591288" style="stroke: #000000; stroke-width: 0.8"/>
      </g>
     </g>
     <g id="text_8">
      <!-- 0.0 -->
      <g transform="translate(32.765625 230.910195) scale(0.14 -0.14)">
       <use xlink:href="#DejaVuSans-30"/>
       <use xlink:href="#DejaVuSans-2e" x="63.623047"/>
       <use xlink:href="#DejaVuSans-30" x="95.410156"/>
      </g>
     </g>
    </g>
    <g id="ytick_2">
     <g id="line2d_8">
      <g>
       <use xlink:href="#m34d0037978" x="62.03" y="186.530091" style="stroke: #000000; stroke-width: 0.8"/>
      </g>
     </g>
     <g id="text_9">
      <!-- 0.2 -->
      <g transform="translate(32.765625 191.848997) scale(0.14 -0.14)">
       <use xlink:href="#DejaVuSans-30"/>
       <use xlink:href="#DejaVuSans-2e" x="63.623047"/>
       <use xlink:href="#DejaVuSans-32" x="95.410156"/>
      </g>
     </g>
    </g>
    <g id="ytick_3">
     <g id="line2d_9">
      <g>
       <use xlink:href="#m34d0037978" x="62.03" y="147.468893" style="stroke: #000000; stroke-width: 0.8"/>
      </g>
     </g>
     <g id="text_10">
      <!-- 0.4 -->
      <g transform="translate(32.765625 152.787799) scale(0.14 -0.14)">
       <use xlink:href="#DejaVuSans-30"/>
       <use xlink:href="#DejaVuSans-2e" x="63.623047"/>
       <use xlink:href="#DejaVuSans-34" x="95.410156"/>
      </g>
     </g>
    </g>
    <g id="ytick_4">
     <g id="line2d_10">
      <g>
       <use xlink:href="#m34d0037978" x="62.03" y="108.407695" style="stroke: #000000; stroke-width: 0.8"/>
      </g>
     </g>
     <g id="text_11">
      <!-- 0.6 -->
      <g transform="translate(32.765625 113.726601) scale(0.14 -0.14)">
       <use xlink:href="#DejaVuSans-30"/>
       <use xlink:href="#DejaVuSans-2e" x="63.623047"/>
       <use xlink:href="#DejaVuSans-36" x="95.410156"/>
      </g>
     </g>
    </g>
    <g id="ytick_5">
     <g id="line2d_11">
      <g>
       <use xlink:href="#m34d0037978" x="62.03" y="69.346497" style="stroke: #000000; stroke-width: 0.8"/>
      </g>
     </g>
     <g id="text_12">
      <!-- 0.8 -->
      <g transform="translate(32.765625 74.665403) scale(0.14 -0.14)">
       <use xlink:href="#DejaVuSans-30"/>
       <use xlink:href="#DejaVuSans-2e" x="63.623047"/>
       <use xlink:href="#DejaVuSans-38" x="95.410156"/>
      </g>
     </g>
    </g>
    <g id="ytick_6">
     <g id="line2d_12">
      <g>
       <use xlink:href="#m34d0037978" x="62.03" y="30.285299" style="stroke: #000000; stroke-width: 0.8"/>
      </g>
     </g>
     <g id="text_13">
      <!-- 1.0 -->
      <g transform="translate(32.765625 35.604206) scale(0.14 -0.14)">
       <use xlink:href="#DejaVuSans-31"/>
       <use xlink:href="#DejaVuSans-2e" x="63.623047"/>
       <use xlink:href="#DejaVuSans-30" x="95.410156"/>
      </g>
     </g>
    </g>
    <g id="text_14">
     <!-- True positive rate -->
     <g transform="translate(25.854063 188.927981) rotate(-90) scale(0.14 -0.14)">
      <defs>
       <path id="DejaVuSans-54" d="M -19 4666 
L 3928 4666 
L 3928 4134 
L 2272 4134 
L 2272 0 
L 1638 0 
L 1638 4134 
L -19 4134 
L -19 4666 
z
" transform="scale(0.015625)"/>
       <path id="DejaVuSans-75" d="M 544 1381 
L 544 3500 
L 1119 3500 
L 1119 1403 
Q 1119 906 1312 657 
Q 1506 409 1894 409 
Q 2359 409 2629 706 
Q 2900 1003 2900 1516 
L 2900 3500 
L 3475 3500 
L 3475 0 
L 2900 0 
L 2900 538 
Q 2691 219 2414 64 
Q 2138 -91 1772 -91 
Q 1169 -91 856 284 
Q 544 659 544 1381 
z
M 1991 3584 
L 1991 3584 
z
" transform="scale(0.015625)"/>
      </defs>
      <use xlink:href="#DejaVuSans-54"/>
      <use xlink:href="#DejaVuSans-72" x="46.333984"/>
      <use xlink:href="#DejaVuSans-75" x="87.447266"/>
      <use xlink:href="#DejaVuSans-65" x="150.826172"/>
      <use xlink:href="#DejaVuSans-20" x="212.349609"/>
      <use xlink:href="#DejaVuSans-70" x="244.136719"/>
      <use xlink:href="#DejaVuSans-6f" x="307.613281"/>
      <use xlink:href="#DejaVuSans-73" x="368.794922"/>
      <use xlink:href="#DejaVuSans-69" x="420.894531"/>
      <use xlink:href="#DejaVuSans-74" x="448.677734"/>
      <use xlink:href="#DejaVuSans-69" x="487.886719"/>
      <use xlink:href="#DejaVuSans-76" x="515.669922"/>
      <use xlink:href="#DejaVuSans-65" x="574.849609"/>
      <use xlink:href="#DejaVuSans-20" x="636.373047"/>
      <use xlink:href="#DejaVuSans-72" x="668.160156"/>
      <use xlink:href="#DejaVuSans-61" x="709.273438"/>
      <use xlink:href="#DejaVuSans-74" x="770.552734"/>
      <use xlink:href="#DejaVuSans-65" x="809.761719"/>
     </g>
    </g>
   </g>
   <g id="line2d_13">
    <path d="M 75.074712 225.591288 
L 75.245733 223.043879 
L 75.379666 198.206639 
L 75.424997 189.802958 
L 75.534203 170.808145 
L 75.548627 169.174481 
L 75.657833 152.602476 
L 75.670196 151.799488 
L 75.779403 138.024096 
L 75.783524 137.982562 
L 75.89067 128.637447 
L 75.89273 128.637447 
L 75.909214 127.792925 
L 76.018421 118.752392 
L 76.020481 118.752392 
L 76.020481 118.683169 
L 76.129688 111.179387 
L 76.131748 111.179387 
L 76.240954 104.381681 
L 76.243015 104.381681 
L 76.243015 104.340147 
L 76.597421 89.443341 
L 76.603602 89.360273 
L 76.603602 89.332584 
L 76.712809 84.473124 
L 76.729293 83.642447 
L 76.838499 79.807489 
L 76.848802 79.696732 
L 76.958008 77.066255 
L 76.960069 77.066255 
L 76.960069 76.997032 
L 77.069275 74.200419 
L 77.077517 74.117352 
L 77.186724 71.846835 
L 77.188784 71.846835 
L 77.188784 71.749922 
L 77.297991 69.590162 
L 77.310354 69.49325 
L 77.4175 67.319646 
L 77.436044 67.222733 
L 77.539069 65.312176 
L 77.557614 65.229109 
L 77.557614 65.215264 
L 77.66682 63.706201 
L 77.675062 63.664667 
L 77.675062 63.595444 
L 77.780147 62.792456 
L 77.794571 62.709389 
L 77.895535 61.643353 
L 77.920261 61.532596 
L 78.027407 60.328115 
L 78.062436 60.245047 
L 78.062436 60.231202 
L 78.169582 58.376024 
L 78.175763 58.348335 
L 78.175763 58.33449 
L 78.278788 57.379212 
L 78.305575 57.268455 
L 78.414781 56.160886 
L 78.427144 56.077818 
L 78.526048 54.610289 
L 78.550774 54.499532 
L 78.65792 53.710389 
L 78.684707 53.65501 
L 78.684707 53.641166 
L 78.804216 52.976624 
L 78.831002 52.907401 
L 78.831002 52.879712 
L 78.938148 52.201326 
L 78.966995 52.090569 
L 79.074141 51.702919 
L 79.107109 51.592162 
L 79.19571 51.038378 
L 79.245162 50.927621 
L 79.352308 50.484593 
L 79.364671 50.387681 
L 79.364671 50.373836 
L 79.473878 49.778518 
L 79.535693 49.667761 
L 79.634597 49.377024 
L 79.684049 49.280112 
L 79.780892 48.79555 
L 79.865373 48.684793 
L 79.974579 48.380212 
L 80.007547 48.269455 
L 80.114693 47.964873 
L 80.170327 47.867961 
L 80.273352 47.577224 
L 80.285715 47.577224 
L 80.370195 47.217264 
L 80.47116 47.106507 
L 80.565942 46.843459 
L 80.732843 46.732702 
L 80.842049 46.372742 
L 80.881199 46.27583 
L 80.982163 46.109695 
L 81.054281 45.998938 
L 81.116096 45.777424 
L 81.291238 45.666667 
L 81.398384 45.37593 
L 81.433413 45.265173 
L 81.526135 45.182106 
L 81.563224 45.071349 
L 81.672431 44.919058 
L 81.726004 44.83599 
L 81.726004 44.822146 
L 81.824908 44.642166 
L 81.91557 44.545253 
L 81.91557 44.531409 
L 82.024776 44.282206 
L 82.092772 44.185293 
L 82.191676 43.963779 
L 82.241128 43.894556 
L 82.241128 43.853022 
L 82.346214 43.700732 
L 82.430694 43.617664 
L 82.53784 43.409995 
L 82.6182 43.313083 
L 82.690317 43.146947 
L 82.838673 43.03619 
L 82.94788 42.925433 
L 83.164232 42.814676 
L 83.273439 42.717764 
L 83.372343 42.607007 
L 83.427976 42.537784 
L 83.454762 42.537784 
L 83.629905 42.427027 
L 83.708204 42.330115 
L 83.961645 42.219358 
L 84.070852 42.163979 
L 84.219208 42.053223 
L 84.289265 41.997844 
L 84.460286 41.887087 
L 84.548888 41.762486 
L 84.798208 41.651729 
L 84.897112 41.485593 
L 85.158795 41.374836 
L 85.257699 41.319458 
L 85.362785 41.222546 
L 85.373087 41.167167 
L 85.659497 41.05641 
L 85.766643 40.987187 
L 86.034508 40.87643 
L 86.094262 40.848741 
L 86.37655 40.737984 
L 86.479575 40.613383 
L 86.722714 40.544159 
L 86.796892 40.419558 
L 87.042092 40.308801 
L 87.128633 40.253423 
L 87.592245 40.142666 
L 87.699391 40.031909 
L 87.975498 39.921152 
L 88.041434 39.893463 
L 88.053797 39.893463 
L 89.094349 39.782706 
L 89.172648 39.727327 
L 89.182951 39.727327 
L 89.988606 39.61657 
L 90.077207 39.588881 
L 90.509912 39.491969 
L 90.575848 39.43659 
L 91.128062 39.325833 
L 91.152788 39.298144 
L 91.915173 39.187387 
L 91.974927 39.104319 
L 92.471507 39.035096 
L 92.471507 39.007407 
L 92.527141 38.633603 
L 92.617803 38.633603 
L 92.617803 38.53669 
L 92.720828 38.425933 
L 93.108202 38.315176 
L 93.172077 38.259798 
L 93.215348 38.259798 
L 93.291586 38.245953 
L 93.291586 38.190575 
L 93.396672 38.024439 
L 94.121967 37.913683 
L 94.212629 37.885993 
L 94.849324 37.775236 
L 94.935865 37.539878 
L 95.325299 37.429121 
L 95.432445 37.387587 
L 95.902239 37.304519 
L 95.902239 37.166073 
L 96.431787 37.069161 
L 96.477118 36.999938 
L 97.150901 36.889181 
L 97.2292 36.861492 
L 97.375496 36.847647 
L 97.375496 36.819958 
L 97.400222 36.681512 
L 97.484702 36.681512 
L 97.983343 36.598444 
L 97.983343 36.459998 
L 98.774575 36.349241 
L 98.774575 36.335396 
L 98.859055 36.335396 
L 99.089831 36.293863 
L 99.089831 36.266173 
L 99.170191 36.113883 
L 99.685315 36.01697 
L 99.70386 35.961592 
L 101.10912 35.850835 
L 101.172996 35.823146 
L 102.980054 35.712389 
L 103.043929 35.670855 
L 103.695047 35.601632 
L 103.730075 35.200138 
L 104.016485 35.186293 
L 104.016485 35.158604 
L 104.016485 34.992469 
L 104.704692 34.978624 
L 104.704692 34.895556 
L 104.704692 34.784799 
L 105.794696 34.729421 
L 105.794696 34.674043 
L 105.794696 34.535596 
L 107.105173 34.424839 
L 107.136081 34.39715 
L 108.757694 34.286393 
L 108.757694 34.272549 
L 109.77352 34.161792 
L 109.851819 34.134103 
L 111.687724 34.03719 
L 111.733055 33.926433 
L 113.972817 33.829521 
L 114.084084 33.67723 
L 117.026477 33.566473 
L 117.026477 33.552629 
L 117.133623 33.552629 
L 119.187941 33.441872 
L 119.26624 33.414183 
L 121.215472 33.400338 
L 121.269045 33.248047 
L 122.268388 33.13729 
L 122.348747 33.109601 
L 125.099514 32.998844 
L 125.157208 32.971155 
L 127.823494 32.860398 
L 127.827615 32.832709 
L 130.357908 32.721952 
L 130.444449 32.694263 
L 134.066806 32.583506 
L 134.066806 32.569661 
L 135.863562 32.472749 
L 135.863562 32.445059 
L 138.74414 32.334303 
L 138.74414 32.320458 
L 142.236686 32.209701 
L 142.236686 32.195856 
L 142.33353 32.195856 
L 145.104901 32.085099 
L 145.104901 32.071255 
L 145.166716 32.071255 
L 146.21345 31.974343 
L 146.21345 31.946653 
L 152.936859 31.835896 
L 152.936859 31.822052 
L 153.046065 31.822052 
L 158.461057 31.711295 
L 158.461057 31.69745 
L 158.491965 31.69745 
L 170.941502 31.586693 
L 170.941502 31.572849 
L 170.982712 31.572849 
L 180.46925 31.462092 
L 180.46925 31.448247 
L 198.04943 31.33749 
L 198.04943 31.323646 
L 210.985245 31.212889 
L 210.985245 31.199044 
L 230.265337 31.088287 
L 230.265337 31.060598 
L 235.309439 30.949841 
L 235.309439 30.935996 
L 235.342407 30.935996 
L 250.960991 30.825239 
L 250.960991 30.811395 
L 251.03929 30.811395 
L 265.180497 30.700638 
L 265.180497 30.686793 
L 275.309911 30.589881 
L 275.309911 30.562192 
L 275.408815 30.562192 
L 295.708854 30.451435 
L 295.708854 30.43759 
L 295.743883 30.43759 
L 335.808231 30.326833 
L 335.808231 30.312989 
L 335.843259 30.312989 
L 335.96895 30.285299 
L 335.96895 30.285299 
" clip-path="url(#pbd25724c3f)" style="fill: none; stroke: #800080; stroke-width: 1.5; stroke-linecap: square"/>
   </g>
   <g id="line2d_14">
    <path d="M 75.074712 225.591288 
L 75.530082 152.519408 
L 75.569232 148.490625 
L 75.678438 135.033659 
L 75.680499 135.033659 
L 75.680499 134.936747 
L 75.787645 126.768424 
L 75.806189 125.896213 
L 75.913335 118.240141 
L 75.93188 117.810958 
L 76.041086 111.594725 
L 76.043147 111.594725 
L 76.043147 111.483969 
L 76.148232 104.810864 
L 76.162656 104.713952 
L 76.162656 104.700107 
L 76.269801 98.179293 
L 76.273922 98.179293 
L 76.383129 91.838459 
L 76.391371 91.741547 
L 76.500577 86.619039 
L 76.502638 86.619039 
L 76.611844 81.37193 
L 76.615965 81.344241 
L 76.725172 77.675418 
L 76.735474 77.59235 
L 76.844681 73.854304 
L 76.852923 73.743547 
L 76.962129 71.126915 
L 76.970371 71.043847 
L 77.079578 68.870242 
L 77.08988 68.759486 
L 77.197026 66.641259 
L 77.205268 66.572036 
L 77.314475 64.661479 
L 77.320656 64.619946 
L 77.429863 63.429309 
L 77.433984 63.429309 
L 77.54319 61.892556 
L 77.567916 61.781799 
L 77.675062 60.535784 
L 77.695667 60.425027 
L 77.804873 59.372836 
L 77.817236 59.331302 
L 77.924382 57.988375 
L 77.934685 57.877618 
L 78.043891 56.839272 
L 78.072738 56.728515 
L 78.181945 55.579412 
L 78.194308 55.482499 
L 78.301454 54.721046 
L 78.322059 54.624133 
L 78.431265 53.918058 
L 78.44981 53.821146 
L 78.548714 53.156604 
L 78.612589 53.045847 
L 78.715614 52.325927 
L 78.750643 52.21517 
L 78.853668 51.647541 
L 78.890757 51.536784 
L 78.995842 50.969155 
L 79.02881 50.872242 
L 79.135956 50.290769 
L 79.160682 50.193856 
L 79.261646 49.626227 
L 79.302856 49.51547 
L 79.40176 49.072442 
L 79.44091 48.961686 
L 79.541874 48.574036 
L 79.572782 48.463279 
L 79.675807 48.047941 
L 79.700533 47.951029 
L 79.787074 47.674136 
L 79.867433 47.563379 
L 79.972519 47.300332 
L 80.056999 47.189575 
L 80.162085 46.926527 
L 80.199174 46.829615 
L 80.30632 46.525033 
L 80.3908 46.414276 
L 80.491765 46.206607 
L 80.563882 46.09585 
L 80.656604 45.888181 
L 80.699875 45.777424 
L 80.809081 45.638978 
L 80.883259 45.528221 
L 80.9698 45.389775 
L 81.083128 45.279018 
L 81.190274 45.112882 
L 81.33863 45.002126 
L 81.447836 44.863679 
L 81.519954 44.752922 
L 81.622979 44.559098 
L 81.775456 44.448341 
L 81.864057 44.323739 
L 81.995929 44.212982 
L 82.103075 44.102226 
L 82.201979 44.005313 
L 82.305004 43.811489 
L 82.41421 43.700732 
L 82.523417 43.534596 
L 82.642926 43.423839 
L 82.74389 43.326927 
L 82.90873 43.21617 
L 83.015876 43.008501 
L 83.145688 42.897744 
L 83.248713 42.648541 
L 83.364101 42.537784 
L 83.469186 42.330115 
L 83.607239 42.233203 
L 83.702022 42.122446 
L 83.825652 42.025533 
L 83.825652 41.997844 
L 84.068791 41.887087 
L 84.149151 41.790175 
L 84.338717 41.679418 
L 84.447923 41.582506 
L 84.542706 41.471749 
L 84.63955 41.333303 
L 84.872386 41.222546 
L 84.897112 41.181012 
L 85.121706 41.070255 
L 85.210308 41.014876 
L 85.34218 40.904119 
L 85.445205 40.751829 
L 85.643013 40.641072 
L 85.746038 40.599538 
L 85.902636 40.488781 
L 85.968572 40.419558 
L 86.20759 40.308801 
L 86.281768 40.267267 
L 86.432184 40.15651 
L 86.54139 40.045753 
L 86.730956 39.948841 
L 86.780408 39.865773 
L 86.959672 39.755016 
L 86.9947 39.727327 
L 87.551035 39.61657 
L 87.660242 39.478124 
L 87.843626 39.367367 
L 87.888957 39.298144 
L 88.239242 39.187387 
L 88.334025 39.104319 
L 88.548317 38.993563 
L 88.636918 38.868961 
L 88.770851 38.758204 
L 88.857392 38.675136 
L 89.187072 38.564379 
L 89.290096 38.509001 
L 89.743406 38.398244 
L 89.796979 38.315176 
L 90.062784 38.204419 
L 90.151385 38.149041 
L 90.427492 38.038284 
L 90.481065 37.982906 
L 91.006492 37.872149 
L 91.099215 37.81677 
L 91.684397 37.706013 
L 91.785361 37.664479 
L 92.123283 37.553723 
L 92.15213 37.526033 
L 92.784703 37.415276 
L 92.827974 37.387587 
L 93.361643 37.27683 
L 93.444063 37.249141 
L 93.940643 37.138384 
L 93.96743 37.110695 
L 94.589701 36.999938 
L 94.657697 36.958404 
L 95.296452 36.847647 
L 95.360327 36.806113 
L 95.830121 36.695356 
L 95.848666 36.667667 
L 96.242221 36.55691 
L 96.242221 36.543066 
L 96.246342 36.543066 
L 97.321923 36.432309 
L 97.365193 36.390775 
L 99.569927 36.280018 
L 99.644105 36.252329 
L 100.688779 36.141572 
L 100.765017 36.113883 
L 101.60158 36.003126 
L 101.692242 35.975436 
L 102.532925 35.864679 
L 102.638011 35.823146 
L 104.44919 35.712389 
L 104.44919 35.698544 
L 106.328365 35.587787 
L 106.381938 35.560098 
L 107.426611 35.449341 
L 107.523455 35.380118 
L 108.642306 35.269361 
L 108.642306 35.255516 
L 109.61074 35.144759 
L 109.637527 35.11707 
L 110.834677 35.006313 
L 110.834677 34.992469 
L 111.360104 34.881712 
L 111.360104 34.867867 
L 111.916439 34.75711 
L 111.965891 34.715576 
L 112.726215 34.604819 
L 112.726215 34.590975 
L 113.585444 34.480218 
L 113.69259 34.424839 
L 114.442611 34.314083 
L 114.522971 34.286393 
L 115.571765 34.175636 
L 115.652124 34.147947 
L 116.622619 34.03719 
L 116.731826 33.981812 
L 117.391186 33.871055 
L 117.391186 33.85721 
L 118.172115 33.746453 
L 118.172115 33.732609 
L 119.072553 33.621852 
L 119.072553 33.608007 
L 120.350063 33.49725 
L 120.350063 33.483406 
L 121.349405 33.372649 
L 121.388554 33.344959 
L 122.241601 33.248047 
L 122.241601 33.220358 
L 123.824064 33.109601 
L 123.824064 33.095756 
L 125.004731 32.984999 
L 125.019154 32.95731 
L 126.762336 32.846553 
L 126.762336 32.832709 
L 127.996576 32.721952 
L 127.996576 32.708107 
L 129.570797 32.59735 
L 129.570797 32.583506 
L 129.661459 32.583506 
L 130.784431 32.472749 
L 130.784431 32.458904 
L 134.511874 32.348147 
L 134.511874 32.334303 
L 137.408936 32.223546 
L 137.408936 32.209701 
L 137.501659 32.209701 
L 142.951679 32.098944 
L 142.951679 32.085099 
L 146.722393 31.974343 
L 146.722393 31.960498 
L 151.587232 31.849741 
L 151.587232 31.835896 
L 156.707573 31.725139 
L 156.707573 31.711295 
L 163.665879 31.600538 
L 163.665879 31.586693 
L 174.467016 31.475936 
L 174.467016 31.462092 
L 182.187707 31.351335 
L 182.187707 31.33749 
L 193.699716 31.226733 
L 193.699716 31.212889 
L 193.7162 31.212889 
L 201.517251 31.102132 
L 201.517251 31.088287 
L 218.747146 30.97753 
L 218.747146 30.963686 
L 218.790416 30.963686 
L 247.771339 30.852929 
L 247.771339 30.839084 
L 247.878484 30.839084 
L 266.563092 30.728327 
L 266.563092 30.714483 
L 279.332006 30.603726 
L 279.332006 30.589881 
L 279.400003 30.589881 
L 290.003332 30.479124 
L 290.003332 30.465279 
L 309.029982 30.354523 
L 309.029982 30.340678 
L 335.96895 30.285299 
L 335.96895 30.285299 
" clip-path="url(#pbd25724c3f)" style="fill: none; stroke: #228b22; stroke-width: 1.5; stroke-linecap: square"/>
   </g>
   <g id="line2d_15">
    <path d="M 75.074712 225.591288 
L 75.550687 168.551473 
L 75.571292 166.779362 
L 75.680499 155.52369 
L 75.68462 155.454467 
L 75.68462 155.426778 
L 75.703164 153.737735 
L 75.812371 143.783456 
L 75.826794 142.122102 
L 75.936001 132.195513 
L 75.950424 131.434059 
L 76.059631 122.615039 
L 76.063752 122.615039 
L 76.170898 116.523409 
L 76.175019 116.523409 
L 76.175019 116.495719 
L 76.284225 109.614945 
L 76.335737 107.524409 
L 76.444944 99.979093 
L 76.451125 99.868336 
L 76.560332 94.718139 
L 76.564453 94.69045 
L 76.564453 94.648916 
L 76.673659 89.761767 
L 76.67778 89.65101 
L 76.786987 85.87143 
L 76.789047 85.87143 
L 76.789047 85.774518 
L 76.898254 80.887369 
L 76.904435 80.776612 
L 77.013642 78.215358 
L 77.019823 78.104601 
L 77.124909 75.584881 
L 77.13109 75.584881 
L 77.240297 73.106695 
L 77.25266 72.995938 
L 77.359806 71.348429 
L 77.370108 71.237672 
L 77.475194 69.659386 
L 77.50198 69.548629 
L 77.611187 67.790362 
L 77.62355 67.69345 
L 77.730695 66.295144 
L 77.743058 66.184387 
L 77.852265 64.592256 
L 77.864628 64.495344 
L 77.971774 63.235484 
L 77.99856 63.124727 
L 78.107767 61.823333 
L 78.12219 61.726421 
L 78.229336 60.923433 
L 78.24376 60.812676 
L 78.352966 59.871242 
L 78.36945 59.760486 
L 78.478657 59.012876 
L 78.503383 58.915964 
L 78.612589 57.877618 
L 78.639376 57.766861 
L 78.727977 57.323833 
L 78.758885 57.213076 
L 78.868091 56.562379 
L 78.892817 56.451622 
L 79.002024 55.897838 
L 79.02881 55.800926 
L 79.138016 55.136384 
L 79.160682 55.025627 
L 79.267828 54.513376 
L 79.296675 54.457998 
L 79.397639 53.779612 
L 79.428547 53.668855 
L 79.537753 53.004313 
L 79.560419 52.907401 
L 79.667565 52.367461 
L 79.712896 52.270549 
L 79.822102 51.799832 
L 79.877736 51.689075 
L 79.982821 51.412182 
L 80.050818 51.301426 
L 80.157964 50.803019 
L 80.180629 50.706107 
L 80.287775 50.387681 
L 80.333106 50.276924 
L 80.436131 49.958498 
L 80.469099 49.861586 
L 80.572124 49.612382 
L 80.625697 49.501626 
L 80.732843 48.989375 
L 80.790537 48.906307 
L 80.881199 48.574036 
L 80.951256 48.463279 
L 81.060462 48.241766 
L 81.109914 48.131009 
L 81.206758 47.867961 
L 81.268573 47.757204 
L 81.371598 47.438778 
L 81.414868 47.341866 
L 81.524075 47.092662 
L 81.554982 46.981906 
L 81.655947 46.81577 
L 81.70952 46.705013 
L 81.810484 46.566567 
L 81.888783 46.45581 
L 81.99799 46.123539 
L 82.08453 46.012782 
L 82.187555 45.832802 
L 82.245249 45.722046 
L 82.354456 45.55591 
L 82.430694 45.445153 
L 82.531659 45.265173 
L 82.651168 45.154416 
L 82.760374 44.891369 
L 82.877823 44.780612 
L 82.952001 44.65601 
L 83.059147 44.559098 
L 83.135385 44.448341 
L 83.322891 44.337584 
L 83.427976 44.157604 
L 83.506275 44.046847 
L 83.598997 43.922246 
L 83.739111 43.811489 
L 83.827713 43.742266 
L 84.054368 43.631509 
L 84.163574 43.479218 
L 84.289265 43.368461 
L 84.384048 43.230015 
L 84.571553 43.119258 
L 84.678699 43.03619 
L 84.80645 42.925433 
L 84.905354 42.85621 
L 85.024863 42.745453 
L 85.107283 42.607007 
L 85.30097 42.49625 
L 85.403995 42.399338 
L 85.63065 42.288581 
L 85.725433 42.191669 
L 85.875849 42.080912 
L 85.941785 42.053223 
L 86.16844 41.942466 
L 86.275586 41.859398 
L 86.45691 41.762486 
L 86.547572 41.707107 
L 86.675323 41.59635 
L 86.782469 41.527127 
L 86.984398 41.41637 
L 87.042092 41.374836 
L 87.367651 41.264079 
L 87.462434 41.194856 
L 87.783871 41.084099 
L 87.884836 40.959498 
L 88.268089 40.848741 
L 88.35669 40.710295 
L 88.733762 40.599538 
L 88.81 40.51647 
L 88.987203 40.405713 
L 89.084047 40.350335 
L 89.349851 40.239578 
L 89.450815 40.170355 
L 89.900004 40.059598 
L 90.000969 39.97653 
L 90.555243 39.865773 
L 90.660328 39.838084 
L 91.010613 39.741172 
L 91.070368 39.685793 
L 91.480407 39.575036 
L 91.480407 39.547347 
L 92.145948 39.43659 
L 92.189219 39.395056 
L 92.881547 39.284299 
L 92.963967 39.228921 
L 93.530604 39.118164 
L 93.594479 39.090475 
L 94.056031 38.979718 
L 94.148754 38.952029 
L 94.358925 38.841272 
L 94.443405 38.785893 
L 95.16664 38.675136 
L 95.232576 38.633603 
L 95.828061 38.522846 
L 95.828061 38.509001 
L 96.594566 38.398244 
L 96.676986 38.370555 
L 97.239503 38.259798 
L 97.321923 38.190575 
L 98.117275 38.079818 
L 98.142001 38.052129 
L 99.00329 37.941372 
L 99.009472 37.913683 
L 99.468963 37.802926 
L 99.561685 37.733703 
L 100.268437 37.622946 
L 100.32407 37.581412 
L 100.81859 37.470655 
L 100.847437 37.429121 
L 101.780843 37.318364 
L 101.879747 37.27683 
L 102.524683 37.166073 
L 102.617406 37.124539 
L 103.901097 37.013783 
L 103.99588 36.986093 
L 104.768567 36.875336 
L 104.842745 36.819958 
L 105.506226 36.709201 
L 105.611311 36.639978 
L 106.041956 36.529221 
L 106.107892 36.501532 
L 107.04954 36.390775 
L 107.080447 36.349241 
L 108.055063 36.238484 
L 108.055063 36.224639 
L 108.901929 36.113883 
L 108.90811 36.086193 
L 110.216527 35.975436 
L 110.301008 35.920058 
L 111.871108 35.809301 
L 111.871108 35.795456 
L 113.432967 35.684699 
L 113.432967 35.670855 
L 113.521568 35.670855 
L 115.396622 35.560098 
L 115.396622 35.546253 
L 116.892545 35.435496 
L 116.999691 35.393963 
L 117.720866 35.283206 
L 117.788862 35.227827 
L 118.40083 35.11707 
L 118.510037 35.034003 
L 119.179699 34.923246 
L 119.255938 34.867867 
L 119.622706 34.75711 
L 119.641251 34.729421 
L 120.671501 34.618664 
L 120.762163 34.563286 
L 121.400917 34.452529 
L 121.440067 34.424839 
L 122.550676 34.314083 
L 122.56716 34.286393 
L 123.47584 34.175636 
L 123.47584 34.161792 
L 123.964178 34.051035 
L 124.073385 34.009501 
L 125.035638 33.898744 
L 125.072727 33.85721 
L 125.732087 33.746453 
L 125.740329 33.718764 
L 126.667554 33.608007 
L 126.764397 33.566473 
L 128.451946 33.455716 
L 128.478732 33.428027 
L 129.552253 33.31727 
L 129.558434 33.289581 
L 133.452778 33.178824 
L 133.452778 33.164979 
L 137.46457 33.054223 
L 137.538748 33.026533 
L 141.721561 32.915776 
L 141.721561 32.901932 
L 145.150232 32.791175 
L 145.150232 32.77733 
L 147.713493 32.666573 
L 147.775308 32.625039 
L 149.945014 32.514283 
L 149.945014 32.500438 
L 150.048039 32.500438 
L 153.285083 32.389681 
L 153.285083 32.375836 
L 156.017305 32.265079 
L 156.017305 32.251235 
L 160.523617 32.140478 
L 160.523617 32.126633 
L 165.223616 32.015876 
L 165.223616 32.002032 
L 170.043124 31.891275 
L 170.043124 31.87743 
L 180.151933 31.766673 
L 180.151933 31.752829 
L 185.154826 31.642072 
L 185.154826 31.628227 
L 185.206338 31.628227 
L 196.802828 31.51747 
L 196.802828 31.503626 
L 208.803176 31.392869 
L 208.803176 31.379024 
L 223.780945 31.268267 
L 223.780945 31.254423 
L 246.551523 31.143666 
L 246.551523 31.129821 
L 262.88304 31.019064 
L 262.88304 31.005219 
L 262.959279 31.005219 
L 279.111533 30.894463 
L 279.111533 30.880618 
L 324.768076 30.769861 
L 324.86698 30.742172 
L 332.154966 30.631415 
L 332.257991 30.589881 
L 333.150187 30.479124 
L 333.150187 30.465279 
L 334.376184 30.354523 
L 334.40297 30.326833 
L 335.96895 30.285299 
L 335.96895 30.285299 
" clip-path="url(#pbd25724c3f)" style="fill: none; stroke: #0000cd; stroke-width: 1.5; stroke-linecap: square"/>
   </g>
   <g id="line2d_16">
    <path d="M 75.074712 225.591288 
L 75.324032 181.496188 
L 75.342577 180.457842 
L 75.451783 163.484344 
L 75.52184 156.202076 
L 75.631047 141.249892 
L 75.649591 139.50547 
L 75.758798 130.409558 
L 75.775282 128.845116 
L 75.884488 120.870618 
L 75.900972 120.026096 
L 76.010179 110.376399 
L 76.01636 110.334865 
L 76.125567 103.634072 
L 76.131748 103.564849 
L 76.240954 97.902401 
L 76.243015 97.902401 
L 76.350161 92.295332 
L 76.356342 92.198419 
L 76.465549 87.615852 
L 76.46967 87.560473 
L 76.578876 83.545535 
L 76.582997 83.448622 
L 76.692204 80.430496 
L 76.696325 80.416652 
L 76.805531 77.758486 
L 76.813773 77.661573 
L 76.92298 74.89265 
L 76.927101 74.781893 
L 77.034247 72.663667 
L 77.04867 72.55291 
L 77.157877 70.254704 
L 77.168179 70.157792 
L 77.275325 67.638072 
L 77.287688 67.541159 
L 77.396895 65.616758 
L 77.405137 65.519846 
L 77.514343 63.37393 
L 77.528767 63.304707 
L 77.635913 62.307895 
L 77.646215 62.238672 
L 77.74924 60.964967 
L 77.769845 60.881899 
L 77.876991 59.77433 
L 77.903777 59.705107 
L 78.012984 58.999032 
L 78.023286 58.943653 
L 78.132493 58.112976 
L 78.16134 58.029909 
L 78.270546 57.102319 
L 78.301454 57.005407 
L 78.41066 56.35471 
L 78.423023 56.243953 
L 78.507504 55.63479 
L 78.554895 55.524033 
L 78.662041 54.693356 
L 78.680586 54.596444 
L 78.789792 53.890369 
L 78.828942 53.807301 
L 78.934027 53.142759 
L 78.977298 53.032002 
L 79.086504 52.464373 
L 79.121532 52.353616 
L 79.222497 51.938278 
L 79.245162 51.827521 
L 79.354369 51.273736 
L 79.385276 51.162979 
L 79.490362 50.803019 
L 79.541874 50.706107 
L 79.64902 50.193856 
L 79.708775 50.083099 
L 79.809739 49.723139 
L 79.838586 49.612382 
L 79.941611 49.293956 
L 79.982821 49.210889 
L 80.087907 48.850929 
L 80.116754 48.740172 
L 80.221839 48.394056 
L 80.242444 48.283299 
L 80.343409 47.951029 
L 80.405224 47.854116 
L 80.506188 47.53569 
L 80.613334 47.424933 
L 80.72254 47.092662 
L 80.749327 46.981906 
L 80.848231 46.552722 
L 80.934772 46.441966 
L 81.039857 46.234296 
L 81.124338 46.123539 
L 81.227363 45.874336 
L 81.264452 45.763579 
L 81.373658 45.528221 
L 81.441655 45.417464 
L 81.550861 45.099038 
L 81.649765 44.988281 
L 81.75073 44.697544 
L 81.820787 44.586787 
L 81.890844 44.420652 
L 81.991808 44.309895 
L 82.101014 44.129915 
L 82.146345 44.046847 
L 82.24937 43.853022 
L 82.383303 43.742266 
L 82.486328 43.548441 
L 82.607897 43.437684 
L 82.710922 43.285393 
L 82.780979 43.174636 
L 82.886065 43.091569 
L 82.968485 42.994656 
L 83.03236 42.897744 
L 83.139506 42.786987 
L 83.209563 42.703919 
L 83.411492 42.593163 
L 83.514517 42.454716 
L 83.634026 42.343959 
L 83.73499 42.150135 
L 83.881286 42.039378 
L 83.984311 41.970155 
L 84.151211 41.859398 
L 84.254236 41.679418 
L 84.359322 41.568661 
L 84.468528 41.485593 
L 84.544767 41.388681 
L 84.637489 41.181012 
L 84.796148 41.070255 
L 84.862084 40.959498 
L 85.134069 40.848741 
L 85.22061 40.751829 
L 85.533806 40.641072 
L 85.620347 40.599538 
L 85.764582 40.488781 
L 85.772824 40.447247 
L 85.96239 40.33649 
L 86.069536 40.239578 
L 86.347703 40.128821 
L 86.347703 40.114976 
L 86.578479 40.004219 
L 86.683565 39.879618 
L 86.873131 39.768861 
L 86.95349 39.713483 
L 87.173964 39.602726 
L 87.258444 39.491969 
L 87.505704 39.381212 
L 87.604608 39.311989 
L 87.831263 39.201232 
L 87.932227 39.118164 
L 88.113551 39.007407 
L 88.198032 38.965873 
L 88.488562 38.855116 
L 88.488562 38.841272 
L 88.855331 38.730515 
L 88.964538 38.675136 
L 89.30658 38.564379 
L 89.415787 38.481312 
L 89.658926 38.370555 
L 89.766072 38.245953 
L 90.108115 38.135196 
L 90.188474 38.107507 
L 90.70978 37.99675 
L 90.816926 37.941372 
L 91.025037 37.830615 
L 91.134243 37.747547 
L 91.472165 37.63679 
L 91.548404 37.609101 
L 91.805966 37.498344 
L 91.851297 37.442966 
L 92.541564 37.332209 
L 92.644589 37.262986 
L 93.22359 37.152229 
L 93.320433 37.09685 
L 93.728412 36.999938 
L 93.819074 36.944559 
L 94.150814 36.833803 
L 94.239416 36.806113 
L 94.985316 36.695356 
L 95.069797 36.598444 
L 95.533409 36.487687 
L 95.636434 36.432309 
L 95.980538 36.321552 
L 96.075321 36.266173 
L 97.210656 36.155416 
L 97.247745 36.127727 
L 97.715478 36.01697 
L 97.793777 35.961592 
L 98.34187 35.850835 
L 98.34187 35.83699 
L 99.128981 35.726233 
L 99.186675 35.698544 
L 100.124202 35.587787 
L 100.134504 35.546253 
L 100.752654 35.435496 
L 100.841255 35.380118 
L 101.984833 35.269361 
L 101.984833 35.255516 
L 103.153136 35.144759 
L 103.153136 35.130915 
L 104.319378 35.034003 
L 104.364709 34.992469 
L 104.972557 34.881712 
L 104.972557 34.867867 
L 105.526831 34.75711 
L 105.543315 34.715576 
L 106.272732 34.604819 
L 106.369575 34.57713 
L 107.486366 34.466373 
L 107.50285 34.424839 
L 108.912231 34.314083 
L 108.912231 34.300238 
L 109.765278 34.189481 
L 109.765278 34.175636 
L 111.75366 34.064879 
L 111.805172 34.023346 
L 113.334063 33.912589 
L 113.430906 33.85721 
L 114.380796 33.746453 
L 114.380796 33.732609 
L 114.467337 33.732609 
L 116.21052 33.621852 
L 116.309424 33.566473 
L 117.185136 33.455716 
L 117.185136 33.441872 
L 118.878866 33.331115 
L 118.944802 33.303426 
L 120.162557 33.192669 
L 120.162557 33.178824 
L 121.70175 33.068067 
L 121.70175 33.054223 
L 123.875577 32.943466 
L 123.875577 32.929621 
L 125.344713 32.818864 
L 125.344713 32.805019 
L 127.899732 32.694263 
L 127.899732 32.680418 
L 131.161502 32.569661 
L 131.215075 32.541972 
L 132.774873 32.431215 
L 132.774873 32.41737 
L 137.114285 32.306613 
L 137.114285 32.292769 
L 144.517659 32.182012 
L 144.544445 32.154323 
L 149.815202 32.043566 
L 149.815202 32.029721 
L 154.189642 31.918964 
L 154.189642 31.905119 
L 160.816208 31.794363 
L 160.816208 31.780518 
L 163.964651 31.669761 
L 163.964651 31.655916 
L 168.124799 31.545159 
L 168.124799 31.531315 
L 171.539046 31.420558 
L 171.615285 31.392869 
L 174.646279 31.282112 
L 174.646279 31.268267 
L 184.132818 31.15751 
L 184.132818 31.143666 
L 193.246406 31.032909 
L 193.246406 31.019064 
L 207.564816 30.908307 
L 207.564816 30.894463 
L 220.344033 30.783706 
L 220.344033 30.769861 
L 233.941267 30.659104 
L 233.941267 30.645259 
L 274.125124 30.534503 
L 274.125124 30.520658 
L 332.597973 30.409901 
L 332.597973 30.396056 
L 335.96895 30.285299 
L 335.96895 30.285299 
" clip-path="url(#pbd25724c3f)" style="fill: none; stroke: #8b4513; stroke-width: 1.5; stroke-linecap: square"/>
   </g>
   <g id="line2d_17">
    <path d="M 75.074712 225.591288 
L 80.003426 66.170542 
L 80.776113 57.600726 
L 80.809081 57.489969 
L 80.955377 56.520846 
L 80.988345 56.410089 
L 81.097551 55.565567 
L 81.120217 55.468655 
L 81.227363 54.707201 
L 81.229423 54.707201 
L 81.62916 52.75511 
L 81.66831 52.644353 
L 81.769274 52.242859 
L 81.816666 52.132102 
L 81.925872 51.938278 
L 81.967082 51.827521 
L 82.068046 51.550629 
L 82.107196 51.439872 
L 82.210221 51.13529 
L 82.253491 51.024533 
L 82.356516 50.719952 
L 82.426573 50.609195 
L 82.519296 50.263079 
L 82.595534 50.166167 
L 82.70268 49.903119 
L 82.74183 49.792362 
L 82.846915 49.446247 
L 82.902549 49.390869 
L 82.902549 49.33549 
L 82.987029 49.003219 
L 83.07357 48.892462 
L 83.174535 48.518658 
L 83.287862 48.407901 
L 83.395008 48.089475 
L 83.427976 48.061786 
L 83.520698 47.674136 
L 83.598997 47.563379 
L 83.702022 47.341866 
L 83.811229 47.231109 
L 83.893649 47.078818 
L 84.002855 46.968061 
L 84.097638 46.843459 
L 84.18624 46.774236 
L 84.289265 46.511189 
L 84.398471 46.400432 
L 84.503557 46.27583 
L 84.63955 46.165073 
L 84.709607 46.054316 
L 84.940382 45.943559 
L 85.043407 45.708201 
L 85.144372 45.597444 
L 85.247397 45.514376 
L 85.333938 45.403619 
L 85.443144 45.279018 
L 85.587379 45.182106 
L 85.696586 44.946747 
L 85.857305 44.83599 
L 85.96033 44.752922 
L 86.061294 44.642166 
L 86.143714 44.545253 
L 86.300312 44.434496 
L 86.403337 44.337584 
L 86.409518 44.337584 
L 86.524906 44.268361 
L 86.524906 44.240672 
L 86.58054 44.185293 
L 86.712412 44.102226 
L 86.712412 44.088381 
L 86.790711 44.005313 
L 86.877252 43.894556 
L 86.945248 43.839178 
L 87.087423 43.728421 
L 87.173964 43.645353 
L 87.309957 43.534596 
L 87.410921 43.382306 
L 87.670544 43.271549 
L 87.775629 43.119258 
L 87.891017 43.050035 
L 88.000224 42.953123 
L 88.127975 42.842366 
L 88.228939 42.800832 
L 88.35669 42.690075 
L 88.457655 42.579318 
L 88.620434 42.468561 
L 88.704915 42.371649 
L 88.896541 42.302426 
L 88.968659 42.205513 
L 89.162346 42.108601 
L 89.228281 42.053223 
L 89.524993 41.942466 
L 89.597111 41.887087 
L 89.972122 41.77633 
L 90.003029 41.734796 
L 90.443976 41.624039 
L 90.511973 41.568661 
L 90.847834 41.457904 
L 90.91583 41.388681 
L 91.099215 41.277924 
L 91.175453 41.167167 
L 92.106799 41.05641 
L 92.187158 41.001032 
L 92.395269 40.890275 
L 92.424116 40.807207 
L 92.436479 40.807207 
L 92.908333 40.69645 
L 92.992814 40.654916 
L 93.413156 40.544159 
L 93.509999 40.461092 
L 93.744896 40.350335 
L 93.779924 40.308801 
L 94.0107 40.198044 
L 94.119907 40.15651 
L 94.62885 40.045753 
L 94.62885 40.031909 
L 95.131612 39.921152 
L 95.131612 39.907307 
L 95.589043 39.79655 
L 95.667342 39.713483 
L 95.957872 39.602726 
L 96.025869 39.561192 
L 96.524509 39.450435 
L 96.578082 39.422746 
L 97.126175 39.311989 
L 97.18593 39.270455 
L 97.2292 39.270455 
L 97.820564 39.159698 
L 97.900923 39.132009 
L 98.401624 39.021252 
L 98.490226 38.979718 
L 99.071287 38.868961 
L 99.108376 38.827427 
L 99.598774 38.71667 
L 99.656468 38.688981 
L 100.505394 38.578224 
L 100.581633 38.522846 
L 101.193601 38.412089 
L 101.253355 38.35671 
L 102.71837 38.245953 
L 102.778125 38.218264 
L 103.903157 38.107507 
L 104.004122 38.052129 
L 104.65524 37.941372 
L 104.65524 37.927527 
L 105.454713 37.81677 
L 105.553617 37.775236 
L 106.416967 37.678324 
L 106.491145 37.63679 
L 107.38128 37.539878 
L 107.4637 37.498344 
L 108.405348 37.387587 
L 108.405348 37.373743 
L 109.882726 37.262986 
L 109.882726 37.249141 
L 111.355983 37.138384 
L 111.397193 37.110695 
L 112.625251 36.999938 
L 112.722094 36.944559 
L 113.888337 36.833803 
L 113.919244 36.792269 
L 115.371896 36.681512 
L 115.371896 36.667667 
L 115.406925 36.667667 
L 117.238709 36.55691 
L 117.310826 36.529221 
L 118.497674 36.418464 
L 118.497674 36.404619 
L 120.885793 36.293863 
L 120.953789 36.266173 
L 122.635156 36.155416 
L 122.744363 36.086193 
L 123.791097 35.975436 
L 123.869395 35.947747 
L 126.201881 35.83699 
L 126.201881 35.823146 
L 127.934761 35.712389 
L 127.934761 35.698544 
L 127.996576 35.698544 
L 129.350324 35.587787 
L 129.350324 35.573943 
L 132.1423 35.463186 
L 132.245325 35.435496 
L 134.629323 35.324739 
L 134.629323 35.310895 
L 136.76194 35.200138 
L 136.76194 35.158604 
L 138.754442 35.047847 
L 138.754442 35.034003 
L 138.793592 35.034003 
L 140.884999 34.923246 
L 140.884999 34.909401 
L 140.897362 34.909401 
L 142.990829 34.812489 
L 143.021736 34.770955 
L 145.073994 34.660198 
L 145.073994 34.646353 
L 145.160535 34.646353 
L 147.464173 34.535596 
L 147.544532 34.507907 
L 149.43401 34.39715 
L 149.43401 34.383306 
L 150.58789 34.272549 
L 150.58789 34.258704 
L 153.826995 34.161792 
L 153.872326 34.023346 
L 157.395779 33.912589 
L 157.395779 33.898744 
L 157.504986 33.898744 
L 158.407485 33.787987 
L 158.407485 33.774143 
L 162.602661 33.67723 
L 162.697444 33.566473 
L 164.630192 33.455716 
L 164.630192 33.441872 
L 169.031419 33.331115 
L 169.033479 33.303426 
L 172.46215 33.192669 
L 172.46215 33.178824 
L 174.963596 33.068067 
L 174.963596 33.040378 
L 175.054258 33.040378 
L 179.863464 32.929621 
L 179.943823 32.818864 
L 185.191915 32.708107 
L 185.191915 32.666573 
L 187.099937 32.638884 
L 187.167934 32.500438 
L 188.705066 32.389681 
L 188.705066 32.375836 
L 188.801909 32.375836 
L 190.192746 32.265079 
L 190.192746 32.223546 
L 195.113219 32.112789 
L 195.113219 32.098944 
L 195.137945 32.098944 
L 197.066572 31.988187 
L 197.083056 31.960498 
L 202.337329 31.849741 
L 202.337329 31.835896 
L 206.031804 31.725139 
L 206.031804 31.711295 
L 206.091559 31.711295 
L 214.279983 31.669761 
L 214.279983 31.586693 
L 217.648899 31.475936 
L 217.648899 31.462092 
L 218.697694 31.420558 
L 218.697694 31.33749 
L 218.780114 31.33749 
L 219.212818 31.254423 
L 335.96895 30.285299 
L 335.96895 30.285299 
" clip-path="url(#pbd25724c3f)" style="fill: none; stroke: #000000; stroke-width: 1.5; stroke-linecap: square"/>
   </g>
   <g id="patch_3">
    <path d="M 62.03 235.356588 
L 62.03 20.52 
" style="fill: none; stroke: #000000; stroke-width: 0.8; stroke-linejoin: miter; stroke-linecap: square"/>
   </g>
   <g id="patch_4">
    <path d="M 349.013662 235.356588 
L 349.013662 20.52 
" style="fill: none; stroke: #000000; stroke-width: 0.8; stroke-linejoin: miter; stroke-linecap: square"/>
   </g>
   <g id="patch_5">
    <path d="M 62.03 235.356588 
L 349.013662 235.356588 
" style="fill: none; stroke: #000000; stroke-width: 0.8; stroke-linejoin: miter; stroke-linecap: square"/>
   </g>
   <g id="patch_6">
    <path d="M 62.03 20.52 
L 349.013662 20.52 
" style="fill: none; stroke: #000000; stroke-width: 0.8; stroke-linejoin: miter; stroke-linecap: square"/>
   </g>
   <g id="legend_1">
    <g id="patch_7">
     <path d="M 190.111162 229.356588 
L 340.613662 229.356588 
Q 343.013662 229.356588 343.013662 226.956588 
L 343.013662 140.087838 
Q 343.013662 137.687838 340.613662 137.687838 
L 190.111162 137.687838 
Q 187.711162 137.687838 187.711162 140.087838 
L 187.711162 226.956588 
Q 187.711162 229.356588 190.111162 229.356588 
z
" style="fill: #ffffff; opacity: 0.8; stroke: #cccccc; stroke-linejoin: miter"/>
    </g>
    <g id="line2d_18">
     <path d="M 192.511162 147.405963 
L 204.511162 147.405963 
L 216.511162 147.405963 
" style="fill: none; stroke: #800080; stroke-width: 1.5; stroke-linecap: square"/>
    </g>
    <g id="text_15">
     <!-- RC aggregated -->
     <g transform="translate(226.111162 151.605963) scale(0.12 -0.12)">
      <defs>
       <path id="DejaVuSans-52" d="M 2841 2188 
Q 3044 2119 3236 1894 
Q 3428 1669 3622 1275 
L 4263 0 
L 3584 0 
L 2988 1197 
Q 2756 1666 2539 1819 
Q 2322 1972 1947 1972 
L 1259 1972 
L 1259 0 
L 628 0 
L 628 4666 
L 2053 4666 
Q 2853 4666 3247 4331 
Q 3641 3997 3641 3322 
Q 3641 2881 3436 2590 
Q 3231 2300 2841 2188 
z
M 1259 4147 
L 1259 2491 
L 2053 2491 
Q 2509 2491 2742 2702 
Q 2975 2913 2975 3322 
Q 2975 3731 2742 3939 
Q 2509 4147 2053 4147 
L 1259 4147 
z
" transform="scale(0.015625)"/>
       <path id="DejaVuSans-43" d="M 4122 4306 
L 4122 3641 
Q 3803 3938 3442 4084 
Q 3081 4231 2675 4231 
Q 1875 4231 1450 3742 
Q 1025 3253 1025 2328 
Q 1025 1406 1450 917 
Q 1875 428 2675 428 
Q 3081 428 3442 575 
Q 3803 722 4122 1019 
L 4122 359 
Q 3791 134 3420 21 
Q 3050 -91 2638 -91 
Q 1578 -91 968 557 
Q 359 1206 359 2328 
Q 359 3453 968 4101 
Q 1578 4750 2638 4750 
Q 3056 4750 3426 4639 
Q 3797 4528 4122 4306 
z
" transform="scale(0.015625)"/>
       <path id="DejaVuSans-67" d="M 2906 1791 
Q 2906 2416 2648 2759 
Q 2391 3103 1925 3103 
Q 1463 3103 1205 2759 
Q 947 2416 947 1791 
Q 947 1169 1205 825 
Q 1463 481 1925 481 
Q 2391 481 2648 825 
Q 2906 1169 2906 1791 
z
M 3481 434 
Q 3481 -459 3084 -895 
Q 2688 -1331 1869 -1331 
Q 1566 -1331 1297 -1286 
Q 1028 -1241 775 -1147 
L 775 -588 
Q 1028 -725 1275 -790 
Q 1522 -856 1778 -856 
Q 2344 -856 2625 -561 
Q 2906 -266 2906 331 
L 2906 616 
Q 2728 306 2450 153 
Q 2172 0 1784 0 
Q 1141 0 747 490 
Q 353 981 353 1791 
Q 353 2603 747 3093 
Q 1141 3584 1784 3584 
Q 2172 3584 2450 3431 
Q 2728 3278 2906 2969 
L 2906 3500 
L 3481 3500 
L 3481 434 
z
" transform="scale(0.015625)"/>
       <path id="DejaVuSans-64" d="M 2906 2969 
L 2906 4863 
L 3481 4863 
L 3481 0 
L 2906 0 
L 2906 525 
Q 2725 213 2448 61 
Q 2172 -91 1784 -91 
Q 1150 -91 751 415 
Q 353 922 353 1747 
Q 353 2572 751 3078 
Q 1150 3584 1784 3584 
Q 2172 3584 2448 3432 
Q 2725 3281 2906 2969 
z
M 947 1747 
Q 947 1113 1208 752 
Q 1469 391 1925 391 
Q 2381 391 2643 752 
Q 2906 1113 2906 1747 
Q 2906 2381 2643 2742 
Q 2381 3103 1925 3103 
Q 1469 3103 1208 2742 
Q 947 2381 947 1747 
z
" transform="scale(0.015625)"/>
      </defs>
      <use xlink:href="#DejaVuSans-52"/>
      <use xlink:href="#DejaVuSans-43" x="64.482422"/>
      <use xlink:href="#DejaVuSans-20" x="134.306641"/>
      <use xlink:href="#DejaVuSans-61" x="166.09375"/>
      <use xlink:href="#DejaVuSans-67" x="227.373047"/>
      <use xlink:href="#DejaVuSans-67" x="290.849609"/>
      <use xlink:href="#DejaVuSans-72" x="354.326172"/>
      <use xlink:href="#DejaVuSans-65" x="393.189453"/>
      <use xlink:href="#DejaVuSans-67" x="454.712891"/>
      <use xlink:href="#DejaVuSans-61" x="518.189453"/>
      <use xlink:href="#DejaVuSans-74" x="579.46875"/>
      <use xlink:href="#DejaVuSans-65" x="618.677734"/>
      <use xlink:href="#DejaVuSans-64" x="680.201172"/>
     </g>
    </g>
    <g id="line2d_19">
     <path d="M 192.511162 165.019713 
L 204.511162 165.019713 
L 216.511162 165.019713 
" style="fill: none; stroke: #228b22; stroke-width: 1.5; stroke-linecap: square"/>
    </g>
    <g id="text_16">
     <!-- RC connected -->
     <g transform="translate(226.111162 169.219713) scale(0.12 -0.12)">
      <defs>
       <path id="DejaVuSans-63" d="M 3122 3366 
L 3122 2828 
Q 2878 2963 2633 3030 
Q 2388 3097 2138 3097 
Q 1578 3097 1268 2742 
Q 959 2388 959 1747 
Q 959 1106 1268 751 
Q 1578 397 2138 397 
Q 2388 397 2633 464 
Q 2878 531 3122 666 
L 3122 134 
Q 2881 22 2623 -34 
Q 2366 -91 2075 -91 
Q 1284 -91 818 406 
Q 353 903 353 1747 
Q 353 2603 823 3093 
Q 1294 3584 2113 3584 
Q 2378 3584 2631 3529 
Q 2884 3475 3122 3366 
z
" transform="scale(0.015625)"/>
       <path id="DejaVuSans-6e" d="M 3513 2113 
L 3513 0 
L 2938 0 
L 2938 2094 
Q 2938 2591 2744 2837 
Q 2550 3084 2163 3084 
Q 1697 3084 1428 2787 
Q 1159 2491 1159 1978 
L 1159 0 
L 581 0 
L 581 3500 
L 1159 3500 
L 1159 2956 
Q 1366 3272 1645 3428 
Q 1925 3584 2291 3584 
Q 2894 3584 3203 3211 
Q 3513 2838 3513 2113 
z
" transform="scale(0.015625)"/>
      </defs>
      <use xlink:href="#DejaVuSans-52"/>
      <use xlink:href="#DejaVuSans-43" x="64.482422"/>
      <use xlink:href="#DejaVuSans-20" x="134.306641"/>
      <use xlink:href="#DejaVuSans-63" x="166.09375"/>
      <use xlink:href="#DejaVuSans-6f" x="221.074219"/>
      <use xlink:href="#DejaVuSans-6e" x="282.255859"/>
      <use xlink:href="#DejaVuSans-6e" x="345.634766"/>
      <use xlink:href="#DejaVuSans-65" x="409.013672"/>
      <use xlink:href="#DejaVuSans-63" x="470.537109"/>
      <use xlink:href="#DejaVuSans-74" x="525.517578"/>
      <use xlink:href="#DejaVuSans-65" x="564.726562"/>
      <use xlink:href="#DejaVuSans-64" x="626.25"/>
     </g>
    </g>
    <g id="line2d_20">
     <path d="M 192.511162 182.633463 
L 204.511162 182.633463 
L 216.511162 182.633463 
" style="fill: none; stroke: #0000cd; stroke-width: 1.5; stroke-linecap: square"/>
    </g>
    <g id="text_17">
     <!-- Bag of molecules -->
     <g transform="translate(226.111162 186.833463) scale(0.12 -0.12)">
      <defs>
       <path id="DejaVuSans-42" d="M 1259 2228 
L 1259 519 
L 2272 519 
Q 2781 519 3026 730 
Q 3272 941 3272 1375 
Q 3272 1813 3026 2020 
Q 2781 2228 2272 2228 
L 1259 2228 
z
M 1259 4147 
L 1259 2741 
L 2194 2741 
Q 2656 2741 2882 2914 
Q 3109 3088 3109 3444 
Q 3109 3797 2882 3972 
Q 2656 4147 2194 4147 
L 1259 4147 
z
M 628 4666 
L 2241 4666 
Q 2963 4666 3353 4366 
Q 3744 4066 3744 3513 
Q 3744 3084 3544 2831 
Q 3344 2578 2956 2516 
Q 3422 2416 3680 2098 
Q 3938 1781 3938 1306 
Q 3938 681 3513 340 
Q 3088 0 2303 0 
L 628 0 
L 628 4666 
z
" transform="scale(0.015625)"/>
       <path id="DejaVuSans-66" d="M 2375 4863 
L 2375 4384 
L 1825 4384 
Q 1516 4384 1395 4259 
Q 1275 4134 1275 3809 
L 1275 3500 
L 2222 3500 
L 2222 3053 
L 1275 3053 
L 1275 0 
L 697 0 
L 697 3053 
L 147 3053 
L 147 3500 
L 697 3500 
L 697 3744 
Q 697 4328 969 4595 
Q 1241 4863 1831 4863 
L 2375 4863 
z
" transform="scale(0.015625)"/>
       <path id="DejaVuSans-6d" d="M 3328 2828 
Q 3544 3216 3844 3400 
Q 4144 3584 4550 3584 
Q 5097 3584 5394 3201 
Q 5691 2819 5691 2113 
L 5691 0 
L 5113 0 
L 5113 2094 
Q 5113 2597 4934 2840 
Q 4756 3084 4391 3084 
Q 3944 3084 3684 2787 
Q 3425 2491 3425 1978 
L 3425 0 
L 2847 0 
L 2847 2094 
Q 2847 2600 2669 2842 
Q 2491 3084 2119 3084 
Q 1678 3084 1418 2786 
Q 1159 2488 1159 1978 
L 1159 0 
L 581 0 
L 581 3500 
L 1159 3500 
L 1159 2956 
Q 1356 3278 1631 3431 
Q 1906 3584 2284 3584 
Q 2666 3584 2933 3390 
Q 3200 3197 3328 2828 
z
" transform="scale(0.015625)"/>
      </defs>
      <use xlink:href="#DejaVuSans-42"/>
      <use xlink:href="#DejaVuSans-61" x="68.603516"/>
      <use xlink:href="#DejaVuSans-67" x="129.882812"/>
      <use xlink:href="#DejaVuSans-20" x="193.359375"/>
      <use xlink:href="#DejaVuSans-6f" x="225.146484"/>
      <use xlink:href="#DejaVuSans-66" x="286.328125"/>
      <use xlink:href="#DejaVuSans-20" x="321.533203"/>
      <use xlink:href="#DejaVuSans-6d" x="353.320312"/>
      <use xlink:href="#DejaVuSans-6f" x="450.732422"/>
      <use xlink:href="#DejaVuSans-6c" x="511.914062"/>
      <use xlink:href="#DejaVuSans-65" x="539.697266"/>
      <use xlink:href="#DejaVuSans-63" x="601.220703"/>
      <use xlink:href="#DejaVuSans-75" x="656.201172"/>
      <use xlink:href="#DejaVuSans-6c" x="719.580078"/>
      <use xlink:href="#DejaVuSans-65" x="747.363281"/>
      <use xlink:href="#DejaVuSans-73" x="808.886719"/>
     </g>
    </g>
    <g id="line2d_21">
     <path d="M 192.511162 200.247213 
L 204.511162 200.247213 
L 216.511162 200.247213 
" style="fill: none; stroke: #8b4513; stroke-width: 1.5; stroke-linecap: square"/>
    </g>
    <g id="text_18">
     <!-- CGR -->
     <g transform="translate(226.111162 204.447213) scale(0.12 -0.12)">
      <defs>
       <path id="DejaVuSans-47" d="M 3809 666 
L 3809 1919 
L 2778 1919 
L 2778 2438 
L 4434 2438 
L 4434 434 
Q 4069 175 3628 42 
Q 3188 -91 2688 -91 
Q 1594 -91 976 548 
Q 359 1188 359 2328 
Q 359 3472 976 4111 
Q 1594 4750 2688 4750 
Q 3144 4750 3555 4637 
Q 3966 4525 4313 4306 
L 4313 3634 
Q 3963 3931 3569 4081 
Q 3175 4231 2741 4231 
Q 1884 4231 1454 3753 
Q 1025 3275 1025 2328 
Q 1025 1384 1454 906 
Q 1884 428 2741 428 
Q 3075 428 3337 486 
Q 3600 544 3809 666 
z
" transform="scale(0.015625)"/>
      </defs>
      <use xlink:href="#DejaVuSans-43"/>
      <use xlink:href="#DejaVuSans-47" x="69.824219"/>
      <use xlink:href="#DejaVuSans-52" x="147.314453"/>
     </g>
    </g>
    <g id="line2d_22">
     <path d="M 192.511162 217.860963 
L 204.511162 217.860963 
L 216.511162 217.860963 
" style="fill: none; stroke: #000000; stroke-width: 1.5; stroke-linecap: square"/>
    </g>
    <g id="text_19">
     <!-- Morgan fingerprint -->
     <g transform="translate(226.111162 222.060963) scale(0.12 -0.12)">
      <defs>
       <path id="DejaVuSans-4d" d="M 628 4666 
L 1569 4666 
L 2759 1491 
L 3956 4666 
L 4897 4666 
L 4897 0 
L 4281 0 
L 4281 4097 
L 3078 897 
L 2444 897 
L 1241 4097 
L 1241 0 
L 628 0 
L 628 4666 
z
" transform="scale(0.015625)"/>
      </defs>
      <use xlink:href="#DejaVuSans-4d"/>
      <use xlink:href="#DejaVuSans-6f" x="86.279297"/>
      <use xlink:href="#DejaVuSans-72" x="147.460938"/>
      <use xlink:href="#DejaVuSans-67" x="186.824219"/>
      <use xlink:href="#DejaVuSans-61" x="250.300781"/>
      <use xlink:href="#DejaVuSans-6e" x="311.580078"/>
      <use xlink:href="#DejaVuSans-20" x="374.958984"/>
      <use xlink:href="#DejaVuSans-66" x="406.746094"/>
      <use xlink:href="#DejaVuSans-69" x="441.951172"/>
      <use xlink:href="#DejaVuSans-6e" x="469.734375"/>
      <use xlink:href="#DejaVuSans-67" x="533.113281"/>
      <use xlink:href="#DejaVuSans-65" x="596.589844"/>
      <use xlink:href="#DejaVuSans-72" x="658.113281"/>
      <use xlink:href="#DejaVuSans-70" x="699.226562"/>
      <use xlink:href="#DejaVuSans-72" x="762.703125"/>
      <use xlink:href="#DejaVuSans-69" x="803.816406"/>
      <use xlink:href="#DejaVuSans-6e" x="831.599609"/>
      <use xlink:href="#DejaVuSans-74" x="894.978516"/>
     </g>
    </g>
   </g>
  </g>
  <g id="axes_2">
   <g id="patch_8">
    <path d="M 417.896338 235.356588 
L 704.88 235.356588 
L 704.88 20.52 
L 417.896338 20.52 
z
" style="fill: #ffffff"/>
   </g>
   <g id="patch_9">
    <path d="M 430.94105 450.193176 
L 472.134877 450.193176 
L 472.134877 26.702794 
L 430.94105 26.702794 
z
" clip-path="url(#p4e38cbf6d7)" style="fill: #800080"/>
   </g>
   <g id="patch_10">
    <path d="M 485.866153 450.193176 
L 527.05998 450.193176 
L 527.05998 26.481008 
L 485.866153 26.481008 
z
" clip-path="url(#p4e38cbf6d7)" style="fill: #228b22"/>
   </g>
   <g id="patch_11">
    <path d="M 540.791256 450.193176 
L 581.985083 450.193176 
L 581.985083 28.065457 
L 540.791256 28.065457 
z
" clip-path="url(#p4e38cbf6d7)" style="fill: #0000cd"/>
   </g>
   <g id="patch_12">
    <path d="M 595.716358 450.193176 
L 636.910185 450.193176 
L 636.910185 26.172155 
L 595.716358 26.172155 
z
" clip-path="url(#p4e38cbf6d7)" style="fill: #8b4513"/>
   </g>
   <g id="patch_13">
    <path d="M 650.641461 450.193176 
L 691.835288 450.193176 
L 691.835288 31.935027 
L 650.641461 31.935027 
z
" clip-path="url(#p4e38cbf6d7)"/>
   </g>
   <g id="matplotlib.axis_3">
    <g id="xtick_7">
     <g id="line2d_23">
      <g>
       <use xlink:href="#mca5b98e40a" x="451.537964" y="235.356588" style="stroke: #000000; stroke-width: 0.8"/>
      </g>
     </g>
     <g id="text_20">
      <!-- RC aggregated -->
      <g transform="translate(375.854778 323.503057) rotate(-45) scale(0.14 -0.14)">
       <use xlink:href="#DejaVuSans-52"/>
       <use xlink:href="#DejaVuSans-43" x="64.482422"/>
       <use xlink:href="#DejaVuSans-20" x="134.306641"/>
       <use xlink:href="#DejaVuSans-61" x="166.09375"/>
       <use xlink:href="#DejaVuSans-67" x="227.373047"/>
       <use xlink:href="#DejaVuSans-67" x="290.849609"/>
       <use xlink:href="#DejaVuSans-72" x="354.326172"/>
       <use xlink:href="#DejaVuSans-65" x="393.189453"/>
       <use xlink:href="#DejaVuSans-67" x="454.712891"/>
       <use xlink:href="#DejaVuSans-61" x="518.189453"/>
       <use xlink:href="#DejaVuSans-74" x="579.46875"/>
       <use xlink:href="#DejaVuSans-65" x="618.677734"/>
       <use xlink:href="#DejaVuSans-64" x="680.201172"/>
      </g>
     </g>
    </g>
    <g id="xtick_8">
     <g id="line2d_24">
      <g>
       <use xlink:href="#mca5b98e40a" x="506.463066" y="235.356588" style="stroke: #000000; stroke-width: 0.8"/>
      </g>
     </g>
     <g id="text_21">
      <!-- RC connected -->
      <g transform="translate(436.122514 318.160423) rotate(-45) scale(0.14 -0.14)">
       <use xlink:href="#DejaVuSans-52"/>
       <use xlink:href="#DejaVuSans-43" x="64.482422"/>
       <use xlink:href="#DejaVuSans-20" x="134.306641"/>
       <use xlink:href="#DejaVuSans-63" x="166.09375"/>
       <use xlink:href="#DejaVuSans-6f" x="221.074219"/>
       <use xlink:href="#DejaVuSans-6e" x="282.255859"/>
       <use xlink:href="#DejaVuSans-6e" x="345.634766"/>
       <use xlink:href="#DejaVuSans-65" x="409.013672"/>
       <use xlink:href="#DejaVuSans-63" x="470.537109"/>
       <use xlink:href="#DejaVuSans-74" x="525.517578"/>
       <use xlink:href="#DejaVuSans-65" x="564.726562"/>
       <use xlink:href="#DejaVuSans-64" x="626.25"/>
      </g>
     </g>
    </g>
    <g id="xtick_9">
     <g id="line2d_25">
      <g>
       <use xlink:href="#mca5b98e40a" x="561.388169" y="235.356588" style="stroke: #000000; stroke-width: 0.8"/>
      </g>
     </g>
     <g id="text_22">
      <!-- Bag of molecules -->
      <g transform="translate(474.094732 335.113309) rotate(-45) scale(0.14 -0.14)">
       <use xlink:href="#DejaVuSans-42"/>
       <use xlink:href="#DejaVuSans-61" x="68.603516"/>
       <use xlink:href="#DejaVuSans-67" x="129.882812"/>
       <use xlink:href="#DejaVuSans-20" x="193.359375"/>
       <use xlink:href="#DejaVuSans-6f" x="225.146484"/>
       <use xlink:href="#DejaVuSans-66" x="286.328125"/>
       <use xlink:href="#DejaVuSans-20" x="321.533203"/>
       <use xlink:href="#DejaVuSans-6d" x="353.320312"/>
       <use xlink:href="#DejaVuSans-6f" x="450.732422"/>
       <use xlink:href="#DejaVuSans-6c" x="511.914062"/>
       <use xlink:href="#DejaVuSans-65" x="539.697266"/>
       <use xlink:href="#DejaVuSans-63" x="601.220703"/>
       <use xlink:href="#DejaVuSans-75" x="656.201172"/>
       <use xlink:href="#DejaVuSans-6c" x="719.580078"/>
       <use xlink:href="#DejaVuSans-65" x="747.363281"/>
       <use xlink:href="#DejaVuSans-73" x="808.886719"/>
      </g>
     </g>
    </g>
    <g id="xtick_10">
     <g id="line2d_26">
      <g>
       <use xlink:href="#mca5b98e40a" x="616.313272" y="235.356588" style="stroke: #000000; stroke-width: 0.8"/>
      </g>
     </g>
     <g id="text_23">
      <!-- CGR -->
      <g transform="translate(592.792691 271.340453) rotate(-45) scale(0.14 -0.14)">
       <use xlink:href="#DejaVuSans-43"/>
       <use xlink:href="#DejaVuSans-47" x="69.824219"/>
       <use xlink:href="#DejaVuSans-52" x="147.314453"/>
      </g>
     </g>
    </g>
    <g id="xtick_11">
     <g id="line2d_27">
      <g>
       <use xlink:href="#mca5b98e40a" x="671.238375" y="235.356588" style="stroke: #000000; stroke-width: 0.8"/>
      </g>
     </g>
     <g id="text_24">
      <!-- Morgan fingerprint -->
      <g transform="translate(576.699745 342.358501) rotate(-45) scale(0.14 -0.14)">
       <use xlink:href="#DejaVuSans-4d"/>
       <use xlink:href="#DejaVuSans-6f" x="86.279297"/>
       <use xlink:href="#DejaVuSans-72" x="147.460938"/>
       <use xlink:href="#DejaVuSans-67" x="186.824219"/>
       <use xlink:href="#DejaVuSans-61" x="250.300781"/>
       <use xlink:href="#DejaVuSans-6e" x="311.580078"/>
       <use xlink:href="#DejaVuSans-20" x="374.958984"/>
       <use xlink:href="#DejaVuSans-66" x="406.746094"/>
       <use xlink:href="#DejaVuSans-69" x="441.951172"/>
       <use xlink:href="#DejaVuSans-6e" x="469.734375"/>
       <use xlink:href="#DejaVuSans-67" x="533.113281"/>
       <use xlink:href="#DejaVuSans-65" x="596.589844"/>
       <use xlink:href="#DejaVuSans-72" x="658.113281"/>
       <use xlink:href="#DejaVuSans-70" x="699.226562"/>
       <use xlink:href="#DejaVuSans-72" x="762.703125"/>
       <use xlink:href="#DejaVuSans-69" x="803.816406"/>
       <use xlink:href="#DejaVuSans-6e" x="831.599609"/>
       <use xlink:href="#DejaVuSans-74" x="894.978516"/>
      </g>
     </g>
    </g>
   </g>
   <g id="matplotlib.axis_4">
    <g id="ytick_7">
     <g id="line2d_28">
      <g>
       <use xlink:href="#m34d0037978" x="417.896338" y="235.356588" style="stroke: #000000; stroke-width: 0.8"/>
      </g>
     </g>
     <g id="text_25">
      <!-- 0.5 -->
      <g transform="translate(388.631963 240.675494) scale(0.14 -0.14)">
       <defs>
        <path id="DejaVuSans-35" d="M 691 4666 
L 3169 4666 
L 3169 4134 
L 1269 4134 
L 1269 2991 
Q 1406 3038 1543 3061 
Q 1681 3084 1819 3084 
Q 2600 3084 3056 2656 
Q 3513 2228 3513 1497 
Q 3513 744 3044 326 
Q 2575 -91 1722 -91 
Q 1428 -91 1123 -41 
Q 819 9 494 109 
L 494 744 
Q 775 591 1075 516 
Q 1375 441 1709 441 
Q 2250 441 2565 725 
Q 2881 1009 2881 1497 
Q 2881 1984 2565 2268 
Q 2250 2553 1709 2553 
Q 1456 2553 1204 2497 
Q 953 2441 691 2322 
L 691 4666 
z
" transform="scale(0.015625)"/>
       </defs>
       <use xlink:href="#DejaVuSans-30"/>
       <use xlink:href="#DejaVuSans-2e" x="63.623047"/>
       <use xlink:href="#DejaVuSans-35" x="95.410156"/>
      </g>
     </g>
    </g>
    <g id="ytick_8">
     <g id="line2d_29">
      <g>
       <use xlink:href="#m34d0037978" x="417.896338" y="192.38927" style="stroke: #000000; stroke-width: 0.8"/>
      </g>
     </g>
     <g id="text_26">
      <!-- 0.6 -->
      <g transform="translate(388.631963 197.708176) scale(0.14 -0.14)">
       <use xlink:href="#DejaVuSans-30"/>
       <use xlink:href="#DejaVuSans-2e" x="63.623047"/>
       <use xlink:href="#DejaVuSans-36" x="95.410156"/>
      </g>
     </g>
    </g>
    <g id="ytick_9">
     <g id="line2d_30">
      <g>
       <use xlink:href="#m34d0037978" x="417.896338" y="149.421953" style="stroke: #000000; stroke-width: 0.8"/>
      </g>
     </g>
     <g id="text_27">
      <!-- 0.7 -->
      <g transform="translate(388.631963 154.740859) scale(0.14 -0.14)">
       <defs>
        <path id="DejaVuSans-37" d="M 525 4666 
L 3525 4666 
L 3525 4397 
L 1831 0 
L 1172 0 
L 2766 4134 
L 525 4134 
L 525 4666 
z
" transform="scale(0.015625)"/>
       </defs>
       <use xlink:href="#DejaVuSans-30"/>
       <use xlink:href="#DejaVuSans-2e" x="63.623047"/>
       <use xlink:href="#DejaVuSans-37" x="95.410156"/>
      </g>
     </g>
    </g>
    <g id="ytick_10">
     <g id="line2d_31">
      <g>
       <use xlink:href="#m34d0037978" x="417.896338" y="106.454635" style="stroke: #000000; stroke-width: 0.8"/>
      </g>
     </g>
     <g id="text_28">
      <!-- 0.8 -->
      <g transform="translate(388.631963 111.773541) scale(0.14 -0.14)">
       <use xlink:href="#DejaVuSans-30"/>
       <use xlink:href="#DejaVuSans-2e" x="63.623047"/>
       <use xlink:href="#DejaVuSans-38" x="95.410156"/>
      </g>
     </g>
    </g>
    <g id="ytick_11">
     <g id="line2d_32">
      <g>
       <use xlink:href="#m34d0037978" x="417.896338" y="63.487318" style="stroke: #000000; stroke-width: 0.8"/>
      </g>
     </g>
     <g id="text_29">
      <!-- 0.9 -->
      <g transform="translate(388.631963 68.806224) scale(0.14 -0.14)">
       <defs>
        <path id="DejaVuSans-39" d="M 703 97 
L 703 672 
Q 941 559 1184 500 
Q 1428 441 1663 441 
Q 2288 441 2617 861 
Q 2947 1281 2994 2138 
Q 2813 1869 2534 1725 
Q 2256 1581 1919 1581 
Q 1219 1581 811 2004 
Q 403 2428 403 3163 
Q 403 3881 828 4315 
Q 1253 4750 1959 4750 
Q 2769 4750 3195 4129 
Q 3622 3509 3622 2328 
Q 3622 1225 3098 567 
Q 2575 -91 1691 -91 
Q 1453 -91 1209 -44 
Q 966 3 703 97 
z
M 1959 2075 
Q 2384 2075 2632 2365 
Q 2881 2656 2881 3163 
Q 2881 3666 2632 3958 
Q 2384 4250 1959 4250 
Q 1534 4250 1286 3958 
Q 1038 3666 1038 3163 
Q 1038 2656 1286 2365 
Q 1534 2075 1959 2075 
z
" transform="scale(0.015625)"/>
       </defs>
       <use xlink:href="#DejaVuSans-30"/>
       <use xlink:href="#DejaVuSans-2e" x="63.623047"/>
       <use xlink:href="#DejaVuSans-39" x="95.410156"/>
      </g>
     </g>
    </g>
    <g id="ytick_12">
     <g id="line2d_33">
      <g>
       <use xlink:href="#m34d0037978" x="417.896338" y="20.52" style="stroke: #000000; stroke-width: 0.8"/>
      </g>
     </g>
     <g id="text_30">
      <!-- 1.0 -->
      <g transform="translate(388.631963 25.838906) scale(0.14 -0.14)">
       <use xlink:href="#DejaVuSans-31"/>
       <use xlink:href="#DejaVuSans-2e" x="63.623047"/>
       <use xlink:href="#DejaVuSans-30" x="95.410156"/>
      </g>
     </g>
    </g>
    <g id="text_31">
     <!-- ROC-AUC -->
     <g transform="translate(381.720401 160.367981) rotate(-90) scale(0.14 -0.14)">
      <defs>
       <path id="DejaVuSans-4f" d="M 2522 4238 
Q 1834 4238 1429 3725 
Q 1025 3213 1025 2328 
Q 1025 1447 1429 934 
Q 1834 422 2522 422 
Q 3209 422 3611 934 
Q 4013 1447 4013 2328 
Q 4013 3213 3611 3725 
Q 3209 4238 2522 4238 
z
M 2522 4750 
Q 3503 4750 4090 4092 
Q 4678 3434 4678 2328 
Q 4678 1225 4090 567 
Q 3503 -91 2522 -91 
Q 1538 -91 948 565 
Q 359 1222 359 2328 
Q 359 3434 948 4092 
Q 1538 4750 2522 4750 
z
" transform="scale(0.015625)"/>
       <path id="DejaVuSans-2d" d="M 313 2009 
L 1997 2009 
L 1997 1497 
L 313 1497 
L 313 2009 
z
" transform="scale(0.015625)"/>
       <path id="DejaVuSans-41" d="M 2188 4044 
L 1331 1722 
L 3047 1722 
L 2188 4044 
z
M 1831 4666 
L 2547 4666 
L 4325 0 
L 3669 0 
L 3244 1197 
L 1141 1197 
L 716 0 
L 50 0 
L 1831 4666 
z
" transform="scale(0.015625)"/>
       <path id="DejaVuSans-55" d="M 556 4666 
L 1191 4666 
L 1191 1831 
Q 1191 1081 1462 751 
Q 1734 422 2344 422 
Q 2950 422 3222 751 
Q 3494 1081 3494 1831 
L 3494 4666 
L 4128 4666 
L 4128 1753 
Q 4128 841 3676 375 
Q 3225 -91 2344 -91 
Q 1459 -91 1007 375 
Q 556 841 556 1753 
L 556 4666 
z
" transform="scale(0.015625)"/>
      </defs>
      <use xlink:href="#DejaVuSans-52"/>
      <use xlink:href="#DejaVuSans-4f" x="69.482422"/>
      <use xlink:href="#DejaVuSans-43" x="148.193359"/>
      <use xlink:href="#DejaVuSans-2d" x="218.017578"/>
      <use xlink:href="#DejaVuSans-41" x="251.851562"/>
      <use xlink:href="#DejaVuSans-55" x="320.259766"/>
      <use xlink:href="#DejaVuSans-43" x="393.453125"/>
     </g>
    </g>
   </g>
   <g id="LineCollection_1">
    <path d="M 451.537964 27.217146 
L 451.537964 26.349063 
" clip-path="url(#p4e38cbf6d7)" style="fill: none; stroke: #000000; stroke-width: 1.5"/>
   </g>
   <g id="LineCollection_2">
    <path d="M 506.463066 26.751743 
L 506.463066 26.120923 
" clip-path="url(#p4e38cbf6d7)" style="fill: none; stroke: #000000; stroke-width: 1.5"/>
   </g>
   <g id="LineCollection_3">
    <path d="M 561.388169 28.604383 
L 561.388169 27.604248 
" clip-path="url(#p4e38cbf6d7)" style="fill: none; stroke: #000000; stroke-width: 1.5"/>
   </g>
   <g id="LineCollection_4">
    <path d="M 616.313272 26.415225 
L 616.313272 25.879302 
" clip-path="url(#p4e38cbf6d7)" style="fill: none; stroke: #000000; stroke-width: 1.5"/>
   </g>
   <g id="LineCollection_5">
    <path d="M 671.238375 32.287904 
L 671.238375 31.572254 
" clip-path="url(#p4e38cbf6d7)" style="fill: none; stroke: #000000; stroke-width: 1.5"/>
   </g>
   <g id="patch_14">
    <path d="M 417.896338 235.356588 
L 417.896338 20.52 
" style="fill: none; stroke: #000000; stroke-width: 0.8; stroke-linejoin: miter; stroke-linecap: square"/>
   </g>
   <g id="patch_15">
    <path d="M 704.88 235.356588 
L 704.88 20.52 
" style="fill: none; stroke: #000000; stroke-width: 0.8; stroke-linejoin: miter; stroke-linecap: square"/>
   </g>
   <g id="patch_16">
    <path d="M 417.896338 235.356588 
L 704.88 235.356588 
" style="fill: none; stroke: #000000; stroke-width: 0.8; stroke-linejoin: miter; stroke-linecap: square"/>
   </g>
   <g id="patch_17">
    <path d="M 417.896338 20.52 
L 704.88 20.52 
" style="fill: none; stroke: #000000; stroke-width: 0.8; stroke-linejoin: miter; stroke-linecap: square"/>
   </g>
  </g>
 </g>
 <defs>
  <clipPath id="pbd25724c3f">
   <rect x="62.03" y="20.52" width="286.983662" height="214.836588"/>
  </clipPath>
  <clipPath id="p4e38cbf6d7">
   <rect x="417.896338" y="20.52" width="286.983662" height="214.836588"/>
  </clipPath>
 </defs>
</svg>
