<?xml version="1.0" encoding="utf-8" standalone="no"?>
<!DOCTYPE svg PUBLIC "-//W3C//DTD SVG 1.1//EN"
  "http://www.w3.org/Graphics/SVG/1.1/DTD/svg11.dtd">
<svg xmlns:xlink="http://www.w3.org/1999/xlink" width="720pt" height="360pt" viewBox="0 0 720 360" xmlns="http://www.w3.org/2000/svg" version="1.1">
 <metadata>
  <rdf:RDF xmlns:dc="http://purl.org/dc/elements/1.1/" xmlns:cc="http://creativecommons.org/ns#" xmlns:rdf="http://www.w3.org/1999/02/22-rdf-syntax-ns#">
   <cc:Work>
    <dc:type rdf:resource="http://purl.org/dc/dcmitype/StillImage"/>
    <dc:date>2025-10-24T16:30:37.705121</dc:date>
    <dc:format>image/svg+xml</dc:format>
    <dc:creator>
     <cc:Agent>
      <dc:title>Matplotlib v3.8.4, https://matplotlib.org/</dc:title>
     </cc:Agent>
    </dc:creator>
   </cc:Work>
  </rdf:RDF>
 </metadata>
 <defs>
  <style type="text/css">*{stroke-linejoin: round; stroke-linecap: butt}</style>
 </defs>
 <g id="figure_1">
  <g id="patch_1">
   <path d="M 0 360 
L 720 360 
L 720 0 
L 0 0 
z
" style="fill: #ffffff"/>
  </g>
  <g id="axes_1">
   <g id="patch_2">
    <path d="M 62.03 235.356588 
L 345.490391 235.356588 
L 345.490391 20.52 
L 62.03 20.52 
z
" style="fill: #ffffff"/>
   </g>
   <g id="matplotlib.axis_1">
    <g id="xtick_1">
     <g id="line2d_1">
      <defs>
       <path id="m504dd06540" d="M 0 0 
L 0 3.5 
" style="stroke: #000000; stroke-width: 0.8"/>
      </defs>
      <g>
       <use xlink:href="#m504dd06540" x="74.914563" y="235.356588" style="stroke: #000000; stroke-width: 0.8"/>
      </g>
     </g>
     <g id="text_1">
      <!-- 0.0 -->
      <g transform="translate(63.782376 252.9944) scale(0.14 -0.14)">
       <defs>
        <path id="DejaVuSans-30" d="M 2034 4250 
Q 1547 4250 1301 3770 
Q 1056 3291 1056 2328 
Q 1056 1369 1301 889 
Q 1547 409 2034 409 
Q 2525 409 2770 889 
Q 3016 1369 3016 2328 
Q 3016 3291 2770 3770 
Q 2525 4250 2034 4250 
z
M 2034 4750 
Q 2819 4750 3233 4129 
Q 3647 3509 3647 2328 
Q 3647 1150 3233 529 
Q 2819 -91 2034 -91 
Q 1250 -91 836 529 
Q 422 1150 422 2328 
Q 422 3509 836 4129 
Q 1250 4750 2034 4750 
z
" transform="scale(0.015625)"/>
        <path id="DejaVuSans-2e" d="M 684 794 
L 1344 794 
L 1344 0 
L 684 0 
L 684 794 
z
" transform="scale(0.015625)"/>
       </defs>
       <use xlink:href="#DejaVuSans-30"/>
       <use xlink:href="#DejaVuSans-2e" x="63.623047"/>
       <use xlink:href="#DejaVuSans-30" x="95.410156"/>
      </g>
     </g>
    </g>
    <g id="xtick_2">
     <g id="line2d_2">
      <g>
       <use xlink:href="#m504dd06540" x="126.452816" y="235.356588" style="stroke: #000000; stroke-width: 0.8"/>
      </g>
     </g>
     <g id="text_2">
      <!-- 0.2 -->
      <g transform="translate(115.320629 252.9944) scale(0.14 -0.14)">
       <defs>
        <path id="DejaVuSans-32" d="M 1228 531 
L 3431 531 
L 3431 0 
L 469 0 
L 469 531 
Q 828 903 1448 1529 
Q 2069 2156 2228 2338 
Q 2531 2678 2651 2914 
Q 2772 3150 2772 3378 
Q 2772 3750 2511 3984 
Q 2250 4219 1831 4219 
Q 1534 4219 1204 4116 
Q 875 4013 500 3803 
L 500 4441 
Q 881 4594 1212 4672 
Q 1544 4750 1819 4750 
Q 2544 4750 2975 4387 
Q 3406 4025 3406 3419 
Q 3406 3131 3298 2873 
Q 3191 2616 2906 2266 
Q 2828 2175 2409 1742 
Q 1991 1309 1228 531 
z
" transform="scale(0.015625)"/>
       </defs>
       <use xlink:href="#DejaVuSans-30"/>
       <use xlink:href="#DejaVuSans-2e" x="63.623047"/>
       <use xlink:href="#DejaVuSans-32" x="95.410156"/>
      </g>
     </g>
    </g>
    <g id="xtick_3">
     <g id="line2d_3">
      <g>
       <use xlink:href="#m504dd06540" x="177.991069" y="235.356588" style="stroke: #000000; stroke-width: 0.8"/>
      </g>
     </g>
     <g id="text_3">
      <!-- 0.4 -->
      <g transform="translate(166.858881 252.9944) scale(0.14 -0.14)">
       <defs>
        <path id="DejaVuSans-34" d="M 2419 4116 
L 825 1625 
L 2419 1625 
L 2419 4116 
z
M 2253 4666 
L 3047 4666 
L 3047 1625 
L 3713 1625 
L 3713 1100 
L 3047 1100 
L 3047 0 
L 2419 0 
L 2419 1100 
L 313 1100 
L 313 1709 
L 2253 4666 
z
" transform="scale(0.015625)"/>
       </defs>
       <use xlink:href="#DejaVuSans-30"/>
       <use xlink:href="#DejaVuSans-2e" x="63.623047"/>
       <use xlink:href="#DejaVuSans-34" x="95.410156"/>
      </g>
     </g>
    </g>
    <g id="xtick_4">
     <g id="line2d_4">
      <g>
       <use xlink:href="#m504dd06540" x="229.529322" y="235.356588" style="stroke: #000000; stroke-width: 0.8"/>
      </g>
     </g>
     <g id="text_4">
      <!-- 0.6 -->
      <g transform="translate(218.397134 252.9944) scale(0.14 -0.14)">
       <defs>
        <path id="DejaVuSans-36" d="M 2113 2584 
Q 1688 2584 1439 2293 
Q 1191 2003 1191 1497 
Q 1191 994 1439 701 
Q 1688 409 2113 409 
Q 2538 409 2786 701 
Q 3034 994 3034 1497 
Q 3034 2003 2786 2293 
Q 2538 2584 2113 2584 
z
M 3366 4563 
L 3366 3988 
Q 3128 4100 2886 4159 
Q 2644 4219 2406 4219 
Q 1781 4219 1451 3797 
Q 1122 3375 1075 2522 
Q 1259 2794 1537 2939 
Q 1816 3084 2150 3084 
Q 2853 3084 3261 2657 
Q 3669 2231 3669 1497 
Q 3669 778 3244 343 
Q 2819 -91 2113 -91 
Q 1303 -91 875 529 
Q 447 1150 447 2328 
Q 447 3434 972 4092 
Q 1497 4750 2381 4750 
Q 2619 4750 2861 4703 
Q 3103 4656 3366 4563 
z
" transform="scale(0.015625)"/>
       </defs>
       <use xlink:href="#DejaVuSans-30"/>
       <use xlink:href="#DejaVuSans-2e" x="63.623047"/>
       <use xlink:href="#DejaVuSans-36" x="95.410156"/>
      </g>
     </g>
    </g>
    <g id="xtick_5">
     <g id="line2d_5">
      <g>
       <use xlink:href="#m504dd06540" x="281.067575" y="235.356588" style="stroke: #000000; stroke-width: 0.8"/>
      </g>
     </g>
     <g id="text_5">
      <!-- 0.8 -->
      <g transform="translate(269.935387 252.9944) scale(0.14 -0.14)">
       <defs>
        <path id="DejaVuSans-38" d="M 2034 2216 
Q 1584 2216 1326 1975 
Q 1069 1734 1069 1313 
Q 1069 891 1326 650 
Q 1584 409 2034 409 
Q 2484 409 2743 651 
Q 3003 894 3003 1313 
Q 3003 1734 2745 1975 
Q 2488 2216 2034 2216 
z
M 1403 2484 
Q 997 2584 770 2862 
Q 544 3141 544 3541 
Q 544 4100 942 4425 
Q 1341 4750 2034 4750 
Q 2731 4750 3128 4425 
Q 3525 4100 3525 3541 
Q 3525 3141 3298 2862 
Q 3072 2584 2669 2484 
Q 3125 2378 3379 2068 
Q 3634 1759 3634 1313 
Q 3634 634 3220 271 
Q 2806 -91 2034 -91 
Q 1263 -91 848 271 
Q 434 634 434 1313 
Q 434 1759 690 2068 
Q 947 2378 1403 2484 
z
M 1172 3481 
Q 1172 3119 1398 2916 
Q 1625 2713 2034 2713 
Q 2441 2713 2670 2916 
Q 2900 3119 2900 3481 
Q 2900 3844 2670 4047 
Q 2441 4250 2034 4250 
Q 1625 4250 1398 4047 
Q 1172 3844 1172 3481 
z
" transform="scale(0.015625)"/>
       </defs>
       <use xlink:href="#DejaVuSans-30"/>
       <use xlink:href="#DejaVuSans-2e" x="63.623047"/>
       <use xlink:href="#DejaVuSans-38" x="95.410156"/>
      </g>
     </g>
    </g>
    <g id="xtick_6">
     <g id="line2d_6">
      <g>
       <use xlink:href="#m504dd06540" x="332.605828" y="235.356588" style="stroke: #000000; stroke-width: 0.8"/>
      </g>
     </g>
     <g id="text_6">
      <!-- 1.0 -->
      <g transform="translate(321.47364 252.9944) scale(0.14 -0.14)">
       <defs>
        <path id="DejaVuSans-31" d="M 794 531 
L 1825 531 
L 1825 4091 
L 703 3866 
L 703 4441 
L 1819 4666 
L 2450 4666 
L 2450 531 
L 3481 531 
L 3481 0 
L 794 0 
L 794 531 
z
" transform="scale(0.015625)"/>
       </defs>
       <use xlink:href="#DejaVuSans-31"/>
       <use xlink:href="#DejaVuSans-2e" x="63.623047"/>
       <use xlink:href="#DejaVuSans-30" x="95.410156"/>
      </g>
     </g>
    </g>
    <g id="text_7">
     <!-- False positive rate -->
     <g transform="translate(140.059102 270.543775) scale(0.14 -0.14)">
      <defs>
       <path id="DejaVuSans-46" d="M 628 4666 
L 3309 4666 
L 3309 4134 
L 1259 4134 
L 1259 2759 
L 3109 2759 
L 3109 2228 
L 1259 2228 
L 1259 0 
L 628 0 
L 628 4666 
z
" transform="scale(0.015625)"/>
       <path id="DejaVuSans-61" d="M 2194 1759 
Q 1497 1759 1228 1600 
Q 959 1441 959 1056 
Q 959 750 1161 570 
Q 1363 391 1709 391 
Q 2188 391 2477 730 
Q 2766 1069 2766 1631 
L 2766 1759 
L 2194 1759 
z
M 3341 1997 
L 3341 0 
L 2766 0 
L 2766 531 
Q 2569 213 2275 61 
Q 1981 -91 1556 -91 
Q 1019 -91 701 211 
Q 384 513 384 1019 
Q 384 1609 779 1909 
Q 1175 2209 1959 2209 
L 2766 2209 
L 2766 2266 
Q 2766 2663 2505 2880 
Q 2244 3097 1772 3097 
Q 1472 3097 1187 3025 
Q 903 2953 641 2809 
L 641 3341 
Q 956 3463 1253 3523 
Q 1550 3584 1831 3584 
Q 2591 3584 2966 3190 
Q 3341 2797 3341 1997 
z
" transform="scale(0.015625)"/>
       <path id="DejaVuSans-6c" d="M 603 4863 
L 1178 4863 
L 1178 0 
L 603 0 
L 603 4863 
z
" transform="scale(0.015625)"/>
       <path id="DejaVuSans-73" d="M 2834 3397 
L 2834 2853 
Q 2591 2978 2328 3040 
Q 2066 3103 1784 3103 
Q 1356 3103 1142 2972 
Q 928 2841 928 2578 
Q 928 2378 1081 2264 
Q 1234 2150 1697 2047 
L 1894 2003 
Q 2506 1872 2764 1633 
Q 3022 1394 3022 966 
Q 3022 478 2636 193 
Q 2250 -91 1575 -91 
Q 1294 -91 989 -36 
Q 684 19 347 128 
L 347 722 
Q 666 556 975 473 
Q 1284 391 1588 391 
Q 1994 391 2212 530 
Q 2431 669 2431 922 
Q 2431 1156 2273 1281 
Q 2116 1406 1581 1522 
L 1381 1569 
Q 847 1681 609 1914 
Q 372 2147 372 2553 
Q 372 3047 722 3315 
Q 1072 3584 1716 3584 
Q 2034 3584 2315 3537 
Q 2597 3491 2834 3397 
z
" transform="scale(0.015625)"/>
       <path id="DejaVuSans-65" d="M 3597 1894 
L 3597 1613 
L 953 1613 
Q 991 1019 1311 708 
Q 1631 397 2203 397 
Q 2534 397 2845 478 
Q 3156 559 3463 722 
L 3463 178 
Q 3153 47 2828 -22 
Q 2503 -91 2169 -91 
Q 1331 -91 842 396 
Q 353 884 353 1716 
Q 353 2575 817 3079 
Q 1281 3584 2069 3584 
Q 2775 3584 3186 3129 
Q 3597 2675 3597 1894 
z
M 3022 2063 
Q 3016 2534 2758 2815 
Q 2500 3097 2075 3097 
Q 1594 3097 1305 2825 
Q 1016 2553 972 2059 
L 3022 2063 
z
" transform="scale(0.015625)"/>
       <path id="DejaVuSans-20" transform="scale(0.015625)"/>
       <path id="DejaVuSans-70" d="M 1159 525 
L 1159 -1331 
L 581 -1331 
L 581 3500 
L 1159 3500 
L 1159 2969 
Q 1341 3281 1617 3432 
Q 1894 3584 2278 3584 
Q 2916 3584 3314 3078 
Q 3713 2572 3713 1747 
Q 3713 922 3314 415 
Q 2916 -91 2278 -91 
Q 1894 -91 1617 61 
Q 1341 213 1159 525 
z
M 3116 1747 
Q 3116 2381 2855 2742 
Q 2594 3103 2138 3103 
Q 1681 3103 1420 2742 
Q 1159 2381 1159 1747 
Q 1159 1113 1420 752 
Q 1681 391 2138 391 
Q 2594 391 2855 752 
Q 3116 1113 3116 1747 
z
" transform="scale(0.015625)"/>
       <path id="DejaVuSans-6f" d="M 1959 3097 
Q 1497 3097 1228 2736 
Q 959 2375 959 1747 
Q 959 1119 1226 758 
Q 1494 397 1959 397 
Q 2419 397 2687 759 
Q 2956 1122 2956 1747 
Q 2956 2369 2687 2733 
Q 2419 3097 1959 3097 
z
M 1959 3584 
Q 2709 3584 3137 3096 
Q 3566 2609 3566 1747 
Q 3566 888 3137 398 
Q 2709 -91 1959 -91 
Q 1206 -91 779 398 
Q 353 888 353 1747 
Q 353 2609 779 3096 
Q 1206 3584 1959 3584 
z
" transform="scale(0.015625)"/>
       <path id="DejaVuSans-69" d="M 603 3500 
L 1178 3500 
L 1178 0 
L 603 0 
L 603 3500 
z
M 603 4863 
L 1178 4863 
L 1178 4134 
L 603 4134 
L 603 4863 
z
" transform="scale(0.015625)"/>
       <path id="DejaVuSans-74" d="M 1172 4494 
L 1172 3500 
L 2356 3500 
L 2356 3053 
L 1172 3053 
L 1172 1153 
Q 1172 725 1289 603 
Q 1406 481 1766 481 
L 2356 481 
L 2356 0 
L 1766 0 
Q 1100 0 847 248 
Q 594 497 594 1153 
L 594 3053 
L 172 3053 
L 172 3500 
L 594 3500 
L 594 4494 
L 1172 4494 
z
" transform="scale(0.015625)"/>
       <path id="DejaVuSans-76" d="M 191 3500 
L 800 3500 
L 1894 563 
L 2988 3500 
L 3597 3500 
L 2284 0 
L 1503 0 
L 191 3500 
z
" transform="scale(0.015625)"/>
       <path id="DejaVuSans-72" d="M 2631 2963 
Q 2534 3019 2420 3045 
Q 2306 3072 2169 3072 
Q 1681 3072 1420 2755 
Q 1159 2438 1159 1844 
L 1159 0 
L 581 0 
L 581 3500 
L 1159 3500 
L 1159 2956 
Q 1341 3275 1631 3429 
Q 1922 3584 2338 3584 
Q 2397 3584 2469 3576 
Q 2541 3569 2628 3553 
L 2631 2963 
z
" transform="scale(0.015625)"/>
      </defs>
      <use xlink:href="#DejaVuSans-46"/>
      <use xlink:href="#DejaVuSans-61" x="48.394531"/>
      <use xlink:href="#DejaVuSans-6c" x="109.673828"/>
      <use xlink:href="#DejaVuSans-73" x="137.457031"/>
      <use xlink:href="#DejaVuSans-65" x="189.556641"/>
      <use xlink:href="#DejaVuSans-20" x="251.080078"/>
      <use xlink:href="#DejaVuSans-70" x="282.867188"/>
      <use xlink:href="#DejaVuSans-6f" x="346.34375"/>
      <use xlink:href="#DejaVuSans-73" x="407.525391"/>
      <use xlink:href="#DejaVuSans-69" x="459.625"/>
      <use xlink:href="#DejaVuSans-74" x="487.408203"/>
      <use xlink:href="#DejaVuSans-69" x="526.617188"/>
      <use xlink:href="#DejaVuSans-76" x="554.400391"/>
      <use xlink:href="#DejaVuSans-65" x="613.580078"/>
      <use xlink:href="#DejaVuSans-20" x="675.103516"/>
      <use xlink:href="#DejaVuSans-72" x="706.890625"/>
      <use xlink:href="#DejaVuSans-61" x="748.003906"/>
      <use xlink:href="#DejaVuSans-74" x="809.283203"/>
      <use xlink:href="#DejaVuSans-65" x="848.492188"/>
     </g>
    </g>
   </g>
   <g id="matplotlib.axis_2">
    <g id="ytick_1">
     <g id="line2d_7">
      <defs>
       <path id="m6fdafffd8c" d="M 0 0 
L -3.5 0 
" style="stroke: #000000; stroke-width: 0.8"/>
      </defs>
      <g>
       <use xlink:href="#m6fdafffd8c" x="62.03" y="225.591288" style="stroke: #000000; stroke-width: 0.8"/>
      </g>
     </g>
     <g id="text_8">
      <!-- 0.0 -->
      <g transform="translate(32.765625 230.910195) scale(0.14 -0.14)">
       <use xlink:href="#DejaVuSans-30"/>
       <use xlink:href="#DejaVuSans-2e" x="63.623047"/>
       <use xlink:href="#DejaVuSans-30" x="95.410156"/>
      </g>
     </g>
    </g>
    <g id="ytick_2">
     <g id="line2d_8">
      <g>
       <use xlink:href="#m6fdafffd8c" x="62.03" y="186.530091" style="stroke: #000000; stroke-width: 0.8"/>
      </g>
     </g>
     <g id="text_9">
      <!-- 0.2 -->
      <g transform="translate(32.765625 191.848997) scale(0.14 -0.14)">
       <use xlink:href="#DejaVuSans-30"/>
       <use xlink:href="#DejaVuSans-2e" x="63.623047"/>
       <use xlink:href="#DejaVuSans-32" x="95.410156"/>
      </g>
     </g>
    </g>
    <g id="ytick_3">
     <g id="line2d_9">
      <g>
       <use xlink:href="#m6fdafffd8c" x="62.03" y="147.468893" style="stroke: #000000; stroke-width: 0.8"/>
      </g>
     </g>
     <g id="text_10">
      <!-- 0.4 -->
      <g transform="translate(32.765625 152.787799) scale(0.14 -0.14)">
       <use xlink:href="#DejaVuSans-30"/>
       <use xlink:href="#DejaVuSans-2e" x="63.623047"/>
       <use xlink:href="#DejaVuSans-34" x="95.410156"/>
      </g>
     </g>
    </g>
    <g id="ytick_4">
     <g id="line2d_10">
      <g>
       <use xlink:href="#m6fdafffd8c" x="62.03" y="108.407695" style="stroke: #000000; stroke-width: 0.8"/>
      </g>
     </g>
     <g id="text_11">
      <!-- 0.6 -->
      <g transform="translate(32.765625 113.726601) scale(0.14 -0.14)">
       <use xlink:href="#DejaVuSans-30"/>
       <use xlink:href="#DejaVuSans-2e" x="63.623047"/>
       <use xlink:href="#DejaVuSans-36" x="95.410156"/>
      </g>
     </g>
    </g>
    <g id="ytick_5">
     <g id="line2d_11">
      <g>
       <use xlink:href="#m6fdafffd8c" x="62.03" y="69.346497" style="stroke: #000000; stroke-width: 0.8"/>
      </g>
     </g>
     <g id="text_12">
      <!-- 0.8 -->
      <g transform="translate(32.765625 74.665403) scale(0.14 -0.14)">
       <use xlink:href="#DejaVuSans-30"/>
       <use xlink:href="#DejaVuSans-2e" x="63.623047"/>
       <use xlink:href="#DejaVuSans-38" x="95.410156"/>
      </g>
     </g>
    </g>
    <g id="ytick_6">
     <g id="line2d_12">
      <g>
       <use xlink:href="#m6fdafffd8c" x="62.03" y="30.285299" style="stroke: #000000; stroke-width: 0.8"/>
      </g>
     </g>
     <g id="text_13">
      <!-- 1.0 -->
      <g transform="translate(32.765625 35.604206) scale(0.14 -0.14)">
       <use xlink:href="#DejaVuSans-31"/>
       <use xlink:href="#DejaVuSans-2e" x="63.623047"/>
       <use xlink:href="#DejaVuSans-30" x="95.410156"/>
      </g>
     </g>
    </g>
    <g id="text_14">
     <!-- True positive rate -->
     <g transform="translate(25.854063 188.927981) rotate(-90) scale(0.14 -0.14)">
      <defs>
       <path id="DejaVuSans-54" d="M -19 4666 
L 3928 4666 
L 3928 4134 
L 2272 4134 
L 2272 0 
L 1638 0 
L 1638 4134 
L -19 4134 
L -19 4666 
z
" transform="scale(0.015625)"/>
       <path id="DejaVuSans-75" d="M 544 1381 
L 544 3500 
L 1119 3500 
L 1119 1403 
Q 1119 906 1312 657 
Q 1506 409 1894 409 
Q 2359 409 2629 706 
Q 2900 1003 2900 1516 
L 2900 3500 
L 3475 3500 
L 3475 0 
L 2900 0 
L 2900 538 
Q 2691 219 2414 64 
Q 2138 -91 1772 -91 
Q 1169 -91 856 284 
Q 544 659 544 1381 
z
M 1991 3584 
L 1991 3584 
z
" transform="scale(0.015625)"/>
      </defs>
      <use xlink:href="#DejaVuSans-54"/>
      <use xlink:href="#DejaVuSans-72" x="46.333984"/>
      <use xlink:href="#DejaVuSans-75" x="87.447266"/>
      <use xlink:href="#DejaVuSans-65" x="150.826172"/>
      <use xlink:href="#DejaVuSans-20" x="212.349609"/>
      <use xlink:href="#DejaVuSans-70" x="244.136719"/>
      <use xlink:href="#DejaVuSans-6f" x="307.613281"/>
      <use xlink:href="#DejaVuSans-73" x="368.794922"/>
      <use xlink:href="#DejaVuSans-69" x="420.894531"/>
      <use xlink:href="#DejaVuSans-74" x="448.677734"/>
      <use xlink:href="#DejaVuSans-69" x="487.886719"/>
      <use xlink:href="#DejaVuSans-76" x="515.669922"/>
      <use xlink:href="#DejaVuSans-65" x="574.849609"/>
      <use xlink:href="#DejaVuSans-20" x="636.373047"/>
      <use xlink:href="#DejaVuSans-72" x="668.160156"/>
      <use xlink:href="#DejaVuSans-61" x="709.273438"/>
      <use xlink:href="#DejaVuSans-74" x="770.552734"/>
      <use xlink:href="#DejaVuSans-65" x="809.761719"/>
     </g>
    </g>
   </g>
   <g id="line2d_13">
    <path d="M 74.914563 225.591288 
L 75.086554 178.492821 
L 75.154444 164.651429 
L 75.26307 155.389531 
L 75.3898 146.402059 
L 75.498425 135.973848 
L 75.530107 133.332492 
L 75.638733 126.128793 
L 75.652311 125.68285 
L 75.760937 120.382986 
L 75.779041 119.90274 
L 75.887666 115.151729 
L 75.896718 115.134577 
L 75.896718 115.048819 
L 76.005344 111.532728 
L 76.014396 111.44697 
L 76.123021 108.085244 
L 76.132074 107.982334 
L 76.236173 103.91739 
L 76.254277 103.900238 
L 76.254277 103.831631 
L 76.362903 98.171582 
L 76.371955 98.085824 
L 76.48058 95.101435 
L 76.489632 95.101435 
L 76.489632 95.04998 
L 76.598258 93.266207 
L 76.60731 93.1976 
L 76.60731 93.163297 
L 76.652571 92.665899 
L 76.752144 90.419031 
L 76.761196 90.419031 
L 76.788352 89.955936 
L 76.896978 88.721016 
L 76.924134 88.686713 
L 77.03276 86.80003 
L 77.046338 86.714271 
L 77.145911 85.324987 
L 77.164015 85.273532 
L 77.259063 83.798489 
L 77.281693 83.764185 
L 77.385792 82.529266 
L 77.412949 82.014716 
L 77.517048 80.522521 
L 77.530626 80.419611 
L 77.639252 78.481473 
L 77.657356 78.412866 
L 77.765981 77.10934 
L 77.770508 77.10934 
L 77.770508 77.075037 
L 77.870081 75.925875 
L 77.874607 75.925875 
L 77.915341 75.634297 
L 78.019441 74.6395 
L 78.023967 74.6395 
L 78.377 71.12341 
L 78.485625 69.716973 
L 78.494677 69.614063 
L 78.603303 68.276233 
L 78.621407 68.173323 
L 78.725506 67.332892 
L 78.748137 67.229982 
L 78.852236 66.509612 
L 78.861288 66.509612 
L 78.969914 65.206086 
L 78.983492 65.188934 
L 79.083065 64.022621 
L 79.087591 64.022621 
L 79.096643 64.022621 
L 79.200743 63.096431 
L 79.241477 63.010673 
L 79.341051 62.204545 
L 79.390837 62.101635 
L 79.490411 61.672843 
L 79.517567 61.569933 
L 79.621666 60.678047 
L 79.644297 60.626592 
L 79.748396 59.88907 
L 79.789131 59.820463 
L 79.888704 58.997184 
L 79.89323 58.997184 
L 79.938491 58.928577 
L 79.938491 58.894274 
L 80.087851 58.431179 
L 80.19195 57.933781 
L 80.205528 57.848022 
L 80.314154 57.299169 
L 80.436357 56.458737 
L 80.544983 55.618306 
L 80.685291 54.674965 
L 80.775812 54.040353 
L 80.793916 54.040353 
L 80.807494 53.954595 
L 80.970432 53.474348 
L 81.015693 53.371438 
L 81.101688 52.925495 
L 81.119792 52.925495 
L 81.481877 51.141722 
L 81.581451 50.867295 
L 81.613133 50.832992 
L 81.717232 50.489959 
L 81.744389 50.387049 
L 81.853014 49.700982 
L 81.889223 49.598072 
L 81.997848 48.997764 
L 82.056687 48.912006 
L 82.165312 48.603276 
L 82.206047 48.500366 
L 82.296568 48.225939 
L 82.346355 48.174484 
L 82.441402 47.539873 
L 82.563606 47.454114 
L 82.667705 47.145384 
L 82.685809 47.059626 
L 82.762752 46.870958 
L 82.812539 46.853806 
L 82.916638 46.545076 
L 82.948321 46.459318 
L 83.056946 46.116285 
L 83.075051 46.013375 
L 83.183676 45.601735 
L 83.251567 45.515976 
L 83.360192 45.24155 
L 83.396401 45.155791 
L 83.47787 45.018578 
L 83.6046 44.915668 
L 83.713225 44.709848 
L 83.803746 44.606938 
L 83.871637 44.332512 
L 84.129623 44.246753 
L 84.192988 44.10954 
L 84.22467 44.10954 
L 84.419291 44.023782 
L 84.518864 43.920872 
L 84.622963 43.817962 
L 84.731589 43.629293 
L 84.853792 43.526383 
L 84.957892 43.372018 
L 85.147986 43.269108 
L 85.256612 43.097592 
L 85.338081 42.994682 
L 85.410498 42.87462 
L 85.514597 42.77171 
L 85.609645 42.583042 
L 85.691114 42.497284 
L 85.799739 42.085644 
L 85.917417 41.999885 
L 86.007938 41.776914 
L 86.062251 41.725459 
L 86.062251 41.691155 
L 86.130142 41.536791 
L 86.229715 41.451032 
L 86.33834 41.313819 
L 86.392653 41.210909 
L 86.492226 40.902179 
L 86.587274 40.799269 
L 86.691373 40.541994 
L 86.804525 40.456236 
L 86.91315 40.198961 
L 87.026302 40.096051 
L 87.130401 39.907383 
L 87.284287 39.804473 
L 87.374808 39.701563 
L 87.564903 39.598653 
L 87.669002 39.444288 
L 87.827414 39.341378 
L 87.922462 39.221316 
L 87.926988 39.221316 
L 88.040139 39.135558 
L 88.135186 38.998344 
L 88.343385 38.895434 
L 88.447485 38.552401 
L 88.538006 38.483794 
L 88.538006 38.466643 
L 88.628527 38.363733 
L 88.800517 38.260823 
L 88.895565 38.140761 
L 89.171654 38.037851 
L 89.275754 37.900638 
L 89.407009 37.797728 
L 89.515635 37.660515 
L 89.760042 37.574756 
L 89.809829 37.523301 
L 89.868668 37.523301 
L 89.918454 37.437543 
L 89.918454 37.420391 
L 90.018028 37.317481 
L 90.144757 37.214571 
L 90.167388 37.180268 
L 90.217174 37.180268 
L 90.352956 37.077358 
L 90.457056 36.974448 
L 90.64715 36.871538 
L 90.737671 36.802931 
L 90.755776 36.802931 
L 90.963974 36.700021 
L 91.068074 36.562808 
L 91.22196 36.459898 
L 91.294377 36.37414 
L 91.69267 36.27123 
L 91.765087 36.219775 
L 91.909921 36.116865 
L 92.018547 36.031107 
L 92.353475 35.928197 
L 92.457574 35.85959 
L 92.661247 35.75668 
L 92.769873 35.585163 
L 92.824185 35.516557 
L 92.919233 35.430798 
L 92.928285 35.430798 
L 93.032384 35.327888 
L 93.113853 35.207827 
L 93.122905 35.207827 
L 93.475938 35.104917 
L 93.50762 35.053462 
L 93.93307 34.950552 
L 94.023591 34.916249 
L 95.055533 34.813339 
L 95.087216 34.761884 
L 95.159633 34.761884 
L 95.806859 34.658974 
L 95.838542 34.62467 
L 95.910959 34.62467 
L 96.485768 34.52176 
L 96.589868 34.453154 
L 96.951953 34.350244 
L 96.951953 34.333092 
L 97.028896 34.333092 
L 97.51771 34.230182 
L 97.567497 34.195879 
L 97.612757 34.195879 
L 98.296193 34.092969 
L 98.400292 34.058665 
L 99.233087 33.955755 
L 99.328134 33.9043 
L 99.776214 33.80139 
L 99.86221 33.749935 
L 100.477754 33.647025 
L 100.577327 33.526964 
L 100.934886 33.424054 
L 100.934886 33.406902 
L 101.043511 33.406902 
L 101.260762 33.303992 
L 101.260762 33.286841 
L 101.346758 33.286841 
L 101.930619 33.183931 
L 102.021141 33.132476 
L 102.55069 33.029566 
L 102.623107 32.960959 
L 102.654789 32.960959 
L 103.243177 32.858049 
L 103.306542 32.823746 
L 103.582632 32.720836 
L 103.673153 32.686532 
L 104.442583 32.583622 
L 104.53763 32.532167 
L 105.768719 32.429257 
L 105.845662 32.394954 
L 107.167272 32.292044 
L 107.167272 32.274892 
L 107.275897 32.274892 
L 108.040801 32.171982 
L 108.040801 32.137679 
L 108.086062 32.137679 
L 108.683502 32.034769 
L 108.683502 32.017617 
L 108.792127 32.017617 
L 109.375989 31.914707 
L 109.375989 31.897556 
L 109.484615 31.897556 
L 110.199732 31.794646 
L 110.199732 31.777494 
L 110.290253 31.777494 
L 113.15525 31.674584 
L 113.227667 31.623129 
L 115.689844 31.520219 
L 115.689844 31.503068 
L 115.798469 31.503068 
L 121.021543 31.400158 
L 121.021543 31.383006 
L 127.860421 31.280096 
L 127.860421 31.262944 
L 127.96452 31.262944 
L 135.830814 31.160034 
L 135.830814 31.142883 
L 135.939439 31.142883 
L 152.509347 31.039973 
L 152.509347 31.022821 
L 152.595343 31.022821 
L 172.06193 30.919911 
L 172.06193 30.902759 
L 172.134346 30.902759 
L 177.085857 30.799849 
L 177.085857 30.782698 
L 177.18543 30.782698 
L 192.107852 30.679788 
L 192.107852 30.662636 
L 192.157639 30.662636 
L 228.022144 30.559726 
L 228.022144 30.542574 
L 228.099087 30.542574 
L 252.630336 30.439664 
L 252.630336 30.422513 
L 252.657492 30.422513 
L 270.517327 30.319603 
L 270.517327 30.302451 
L 332.605828 30.285299 
L 332.605828 30.285299 
" clip-path="url(#pc564935a67)" style="fill: none; stroke: #800080; stroke-width: 1.5; stroke-linecap: square"/>
   </g>
   <g id="line2d_14">
    <path d="M 74.914563 225.591288 
L 75.760937 193.620588 
L 76.123021 156.144204 
L 76.145652 151.87344 
L 76.254277 135.991 
L 76.28596 135.47645 
L 76.394585 128.650088 
L 76.403637 128.238448 
L 76.512263 119.69692 
L 76.525841 119.233825 
L 76.634466 111.824306 
L 76.648044 111.7557 
L 76.75667 105.495343 
L 76.765722 105.426736 
L 76.765722 105.392433 
L 76.869821 99.440805 
L 76.8834 99.406502 
L 76.8834 99.372199 
L 76.992025 92.460079 
L 77.010129 92.408624 
L 77.118755 87.914888 
L 77.123281 87.914888 
L 77.231906 84.930498 
L 77.245484 84.861892 
L 77.35411 80.436763 
L 77.358636 80.436763 
L 77.467261 77.126492 
L 77.494418 77.023582 
L 77.593991 74.94823 
L 77.612095 74.879624 
L 77.720721 71.860931 
L 77.738825 71.775173 
L 77.847451 69.939945 
L 77.861029 69.905641 
L 77.969654 68.13902 
L 77.983232 68.03611 
L 78.091858 66.561067 
L 78.10091 66.526764 
L 78.209535 65.068872 
L 78.218588 65.068872 
L 78.327213 63.027825 
L 78.331739 63.027825 
L 78.440364 61.981573 
L 78.444891 61.981573 
L 78.539938 60.81526 
L 78.562568 60.798108 
L 78.671194 59.700402 
L 78.684772 59.631795 
L 78.793397 58.619847 
L 78.806975 58.516937 
L 78.902023 57.573596 
L 78.929179 57.522141 
L 79.033278 56.647406 
L 79.060435 56.578799 
L 79.16906 55.875581 
L 79.205269 55.806974 
L 79.313894 55.086604 
L 79.341051 55.017998 
L 79.449676 54.091808 
L 79.490411 53.988898 
L 79.599036 53.371438 
L 79.635245 53.268528 
L 79.74387 52.805433 
L 79.7665 52.702523 
L 79.875126 52.016457 
L 79.906808 51.94785 
L 80.015434 51.398997 
L 80.056168 51.296087 
L 80.164794 50.953054 
L 80.178372 50.850144 
L 80.273419 50.558565 
L 80.404675 50.455655 
L 80.508774 50.146925 
L 80.612874 50.044015 
L 80.712447 49.769589 
L 80.76676 49.666679 
L 80.875385 49.375101 
L 80.920646 49.272191 
L 81.024745 48.860551 
L 81.092636 48.757641 
L 81.174105 48.397456 
L 81.223892 48.346001 
L 81.323465 48.037271 
L 81.368726 47.934361 
L 81.459247 47.557024 
L 81.590503 47.454114 
L 81.694602 47.231143 
L 81.780597 47.128233 
L 81.875645 46.939564 
L 81.993322 46.836654 
L 82.101948 46.527924 
L 82.251308 46.425015 
L 82.323725 46.219195 
L 82.445928 46.133436 
L 82.540975 46.013375 
L 82.622445 45.927616 
L 82.73107 45.773251 
L 82.808013 45.670341 
L 82.90306 45.430218 
L 83.047894 45.327308 
L 83.142942 45.24155 
L 83.256093 45.155791 
L 83.355666 44.984275 
L 83.468818 44.881365 
L 83.554813 44.658393 
L 83.667965 44.555483 
L 83.744908 44.435422 
L 83.867111 44.332512 
L 83.975737 44.229602 
L 84.020997 44.126692 
L 84.116045 44.058085 
L 84.306139 43.955175 
L 84.383082 43.886568 
L 84.568651 43.783658 
L 84.65012 43.646445 
L 84.79948 43.543535 
L 84.899053 43.269108 
L 84.9941 43.18335 
L 85.089148 42.960379 
L 85.202299 42.857469 
L 85.283768 42.685952 
L 85.360711 42.583042 
L 85.460285 42.274312 
L 85.596066 42.171402 
L 85.69564 42.05134 
L 85.786161 41.965582 
L 85.881208 41.674004 
L 85.99436 41.571094 
L 86.098459 41.416729 
L 86.161824 41.330971 
L 86.220663 41.228061 
L 86.410757 41.125151 
L 86.4877 40.970786 
L 86.609904 40.867876 
L 86.714003 40.679207 
L 86.768316 40.576297 
L 86.876942 40.524842 
L 87.026302 40.421932 
L 87.098719 40.370477 
L 87.2345 40.267567 
L 87.311443 40.113202 
L 87.474382 40.027444 
L 87.497012 39.975989 
L 87.732367 39.873079 
L 87.813836 39.787321 
L 88.031087 39.684411 
L 88.13066 39.512894 
L 88.302651 39.427136 
L 88.40675 39.341378 
L 88.628527 39.238468 
L 88.714522 39.169861 
L 89.040399 39.084103 
L 89.144498 38.981193 
L 89.606156 38.878283 
L 89.606156 38.861131 
L 89.995397 38.758221 
L 90.090445 38.723918 
L 90.362008 38.621008 
L 90.438951 38.552401 
L 90.64715 38.449491 
L 90.701463 38.398036 
L 91.077126 38.295126 
L 91.077126 38.277974 
L 91.339637 38.175065 
L 91.412054 38.12361 
L 91.570466 38.0207 
L 91.642883 37.952093 
L 91.769613 37.849183 
L 91.805822 37.797728 
L 92.127172 37.694818 
L 92.226745 37.60906 
L 92.575252 37.50615 
L 92.656721 37.454695 
L 92.878498 37.351785 
L 92.982597 37.231723 
L 93.258687 37.128813 
L 93.331104 37.060206 
L 93.774658 36.957296 
L 93.828971 36.922993 
L 94.820178 36.820083 
L 94.919751 36.734325 
L 95.4493 36.631415 
L 95.5534 36.597112 
L 95.910959 36.494202 
L 95.910959 36.47705 
L 96.508399 36.37414 
L 96.612498 36.339837 
L 97.820956 36.236927 
L 97.843587 36.202623 
L 98.649225 36.099713 
L 98.753325 36.048258 
L 99.821475 35.945348 
L 99.88484 35.911045 
L 100.513962 35.808135 
L 100.513962 35.790983 
L 101.287919 35.688073 
L 101.319601 35.65377 
L 102.202183 35.55086 
L 102.211235 35.516557 
L 103.338224 35.413647 
L 103.406115 35.34504 
L 104.04429 35.24213 
L 104.148389 35.207827 
L 104.96308 35.104917 
L 104.96308 35.087765 
L 106.415946 34.984855 
L 106.501941 34.9334 
L 107.07675 34.83049 
L 107.07675 34.813339 
L 108.249 34.710429 
L 108.249 34.693277 
L 110.050372 34.590367 
L 110.077529 34.538912 
L 111.607337 34.436002 
L 111.611863 34.401699 
L 112.90179 34.298789 
L 112.90179 34.281637 
L 113.630486 34.178727 
L 113.671221 34.144424 
L 115.024513 34.041514 
L 115.024513 34.024362 
L 117.124605 33.921452 
L 117.124605 33.9043 
L 118.686096 33.80139 
L 118.686096 33.784239 
L 121.225216 33.681329 
L 121.225216 33.664177 
L 123.343412 33.561267 
L 123.379621 33.526964 
L 126.529759 33.424054 
L 126.529759 33.406902 
L 130.290916 33.303992 
L 130.290916 33.286841 
L 135.450625 33.183931 
L 135.450625 33.166779 
L 143.316918 33.063869 
L 143.316918 33.046717 
L 146.983027 32.943807 
L 146.983027 32.926656 
L 148.70293 32.823746 
L 148.70293 32.806594 
L 154.070838 32.703684 
L 154.07989 32.669381 
L 160.991185 32.566471 
L 160.991185 32.549319 
L 166.200681 32.446409 
L 166.200681 32.429257 
L 171.50975 32.326347 
L 171.50975 32.309196 
L 176.194223 32.206286 
L 176.194223 32.189134 
L 180.656919 32.086224 
L 180.656919 32.069072 
L 184.540279 31.966162 
L 184.540279 31.949011 
L 190.347215 31.846101 
L 190.369845 31.811797 
L 196.28088 31.708887 
L 196.28088 31.691736 
L 213.1133 31.588826 
L 213.1133 31.571674 
L 224.781484 31.468764 
L 224.781484 31.451613 
L 237.119526 31.348703 
L 237.119526 31.331551 
L 252.404033 31.228641 
L 252.404033 31.211489 
L 252.508132 31.211489 
L 260.84061 31.108579 
L 260.84061 31.091428 
L 269.381286 30.988518 
L 269.381286 30.971366 
L 274.264906 30.868456 
L 274.264906 30.851304 
L 276.039121 30.748394 
L 276.088908 30.714091 
L 281.556389 30.611181 
L 281.556389 30.594029 
L 287.775197 30.491119 
L 287.775197 30.473968 
L 300.964137 30.371058 
L 300.964137 30.353906 
L 332.605828 30.285299 
L 332.605828 30.285299 
" clip-path="url(#pc564935a67)" style="fill: none; stroke: #228b22; stroke-width: 1.5; stroke-linecap: square"/>
   </g>
   <g id="line2d_15">
    <path d="M 74.914563 225.591288 
L 75.340013 212.453114 
L 75.362643 211.441166 
L 75.471269 200.584163 
L 75.480321 200.13822 
L 75.588946 193.620588 
L 75.607051 193.174645 
L 75.715676 181.528666 
L 75.747358 180.448111 
L 75.855984 173.981934 
L 75.865036 173.94763 
L 75.865036 173.879024 
L 75.973661 165.457557 
L 75.982714 165.440405 
L 75.982714 165.354647 
L 76.091339 157.85937 
L 76.113969 157.361972 
L 76.222595 153.914488 
L 76.231647 153.914488 
L 76.340272 150.141122 
L 76.344798 150.141122 
L 76.453424 146.899458 
L 76.467002 146.830851 
L 76.575627 142.234205 
L 76.58468 142.234205 
L 76.693305 138.632356 
L 76.706883 138.563749 
L 76.815509 136.111061 
L 76.829087 136.025303 
L 76.937712 133.744132 
L 76.960343 133.658374 
L 77.068968 131.583022 
L 77.073494 131.583022 
L 77.18212 129.147486 
L 77.191172 129.07888 
L 77.299797 126.866315 
L 77.313375 126.780557 
L 77.422001 125.322665 
L 77.435579 125.27121 
L 77.544204 123.899077 
L 77.575887 123.813319 
L 77.684512 122.526944 
L 77.720721 122.475489 
L 77.82482 120.983294 
L 77.851977 120.880384 
L 77.956076 119.851285 
L 77.983232 119.782678 
L 78.091858 119.010853 
L 78.096384 119.010853 
L 78.205009 117.775933 
L 78.214061 117.775933 
L 78.322687 115.854947 
L 78.331739 115.820644 
L 78.440364 114.465662 
L 78.449417 114.465662 
L 78.449417 114.379904 
L 78.558042 113.059226 
L 78.576146 112.956316 
L 78.680246 111.584183 
L 78.693824 111.481273 
L 78.802449 110.503628 
L 78.811501 110.41787 
L 78.920127 108.822765 
L 78.929179 108.719855 
L 79.037804 107.330571 
L 79.051383 107.244812 
L 79.160008 105.975589 
L 79.178112 105.958438 
L 79.178112 105.889831 
L 79.282212 104.363333 
L 79.309368 104.294726 
L 79.408941 103.111261 
L 79.42252 103.111261 
L 79.526619 102.082162 
L 79.57188 101.979252 
L 79.680505 101.361792 
L 79.703135 101.258882 
L 79.807235 100.41845 
L 79.834391 100.332692 
L 79.943017 99.49226 
L 80.078798 98.583222 
L 80.187424 97.794246 
L 80.196476 97.725639 
L 80.305101 97.142483 
L 80.327732 97.039573 
L 80.422779 96.559326 
L 80.454461 96.473568 
L 80.563087 95.633136 
L 80.585717 95.530226 
L 80.694343 94.2267 
L 80.707921 94.12379 
L 80.802968 93.351965 
L 80.825598 93.351965 
L 80.934224 92.47723 
L 80.979485 92.391472 
L 81.079058 91.705405 
L 81.106214 91.705405 
L 81.201261 91.036491 
L 81.232944 90.933581 
L 81.337043 90.127452 
L 81.346095 90.127452 
L 81.454721 89.046898 
L 81.472825 88.978291 
L 81.576925 88.103556 
L 81.599555 88.000646 
L 81.70818 87.297428 
L 81.717232 87.280276 
L 81.825858 86.456996 
L 81.848488 86.422693 
L 81.952588 85.736627 
L 81.997848 85.633717 
L 82.101948 84.827588 
L 82.160786 84.758982 
L 82.269412 83.970005 
L 82.287516 83.901399 
L 82.391615 83.50691 
L 82.418772 83.421152 
L 82.527397 82.803692 
L 82.55908 82.752237 
L 82.667705 82.220536 
L 82.699388 82.117626 
L 82.798961 81.620227 
L 82.848748 81.517317 
L 82.957373 80.814099 
L 82.993582 80.711189 
L 83.102207 80.265246 
L 83.138415 80.196639 
L 83.247041 79.733544 
L 83.274197 79.647786 
L 83.382823 79.133236 
L 83.409979 79.030326 
L 83.518605 78.34426 
L 83.550287 78.24135 
L 83.654386 77.846862 
L 83.690595 77.761103 
L 83.79922 77.023582 
L 83.858059 76.920672 
L 83.966685 76.474728 
L 83.984789 76.474728 
L 84.084362 75.908724 
L 84.138675 75.857269 
L 84.2473 75.445629 
L 84.274457 75.342719 
L 84.378556 74.965382 
L 84.469077 74.913927 
L 84.573177 74.6395 
L 84.609385 74.536591 
L 84.708959 74.227861 
L 84.781375 74.142102 
L 84.876423 73.524642 
L 84.921683 73.421732 
L 85.021257 73.164457 
L 85.057465 73.130154 
L 85.161565 72.272571 
L 85.206825 72.169661 
L 85.315451 71.775173 
L 85.378815 71.689414 
L 85.487441 71.517898 
L 85.559858 71.414988 
L 85.668483 71.12341 
L 85.731848 71.037651 
L 85.831422 70.763225 
L 85.863104 70.677466 
L 85.967203 70.351585 
L 85.99436 70.30013 
L 86.102985 70.025703 
L 86.179928 69.922793 
L 86.288554 69.528305 
L 86.342866 69.425395 
L 86.451492 69.150968 
L 86.478648 69.048058 
L 86.582748 68.739328 
L 86.646112 68.636418 
L 86.74116 68.293385 
L 86.840733 68.190475 
L 86.922202 67.9332 
L 87.003671 67.847442 
L 87.112297 67.41865 
L 87.166609 67.31574 
L 87.270709 66.938404 
L 87.356704 66.835494 
L 87.465329 66.578219 
L 87.519642 66.475309 
L 87.623742 66.166579 
L 87.691632 66.063669 
L 87.782154 65.772091 
L 87.845519 65.720636 
L 87.940566 65.223237 
L 88.017509 65.120327 
L 88.117082 64.863052 
L 88.203077 64.777294 
L 88.311703 64.571474 
L 88.393172 64.468564 
L 88.501797 64.297048 
L 88.57874 64.194138 
L 88.687366 63.954014 
L 88.768835 63.851104 
L 88.863882 63.748194 
L 88.963456 63.645284 
L 89.063029 63.319403 
L 89.135446 63.216493 
L 89.230493 62.924915 
L 89.30291 62.822005 
L 89.402483 62.616185 
L 89.488479 62.513275 
L 89.592578 62.290303 
L 89.678573 62.187393 
L 89.782673 61.981573 
L 89.873194 61.878663 
L 89.981819 61.569933 
L 90.031606 61.501326 
L 90.140231 61.295507 
L 90.208122 61.192597 
L 90.316748 60.91817 
L 90.389165 60.81526 
L 90.49779 60.523682 
L 90.552103 60.420772 
L 90.64715 60.266407 
L 90.724093 60.163497 
L 90.828193 59.88907 
L 90.868927 59.837615 
L 90.94587 59.443127 
L 91.045443 59.340217 
L 91.154069 58.980032 
L 91.212908 58.877122 
L 91.321533 58.55124 
L 91.384898 58.44833 
L 91.484471 58.173904 
L 91.538784 58.105297 
L 91.633831 57.933781 
L 91.719826 57.848022 
L 91.828452 57.453534 
L 91.869187 57.350624 
L 91.977812 57.024742 
L 92.032125 56.921832 
L 92.14075 56.647406 
L 92.204115 56.544496 
L 92.308214 56.338676 
L 92.39421 56.252918 
L 92.502835 56.029946 
L 92.579778 55.927036 
L 92.688403 55.618306 
L 92.76082 55.515396 
L 92.86492 55.361031 
L 92.914707 55.275273 
L 93.023332 54.983694 
L 93.091223 54.880784 
L 93.199848 54.503448 
L 93.227005 54.400538 
L 93.331104 54.177566 
L 93.453308 54.074656 
L 93.561933 53.714471 
L 93.616246 53.611561 
L 93.720345 53.18277 
L 93.747502 53.131315 
L 93.842549 52.805433 
L 93.969279 52.719675 
L 94.077904 52.513855 
L 94.150321 52.445248 
L 94.25442 52.136518 
L 94.308733 52.033608 
L 94.412833 51.827788 
L 94.48525 51.724878 
L 94.575771 51.53621 
L 94.693448 51.4333 
L 94.793022 51.313239 
L 94.906173 51.210329 
L 95.014799 51.090267 
L 95.091742 50.987357 
L 95.182263 50.730082 
L 95.259206 50.644324 
L 95.358779 50.438504 
L 95.467405 50.335594 
L 95.57603 50.112622 
L 95.634869 50.026864 
L 95.729916 49.906802 
L 95.797807 49.821044 
L 95.89738 49.632376 
L 96.033162 49.529466 
L 96.12821 49.272191 
L 96.254939 49.169281 
L 96.354513 48.980612 
L 96.476716 48.877702 
L 96.571764 48.534669 
L 96.639654 48.431759 
L 96.739228 48.311697 
L 96.834275 48.225939 
L 96.933848 48.088726 
L 97.074156 47.985816 
L 97.169204 47.900058 
L 97.273303 47.797148 
L 97.363824 47.694238 
L 97.445293 47.591328 
L 97.544867 47.436963 
L 97.594653 47.351204 
L 97.689701 47.093929 
L 97.825482 47.008171 
L 97.934108 46.905261 
L 98.074416 46.802351 
L 98.164937 46.699441 
L 98.246406 46.596531 
L 98.327875 46.407863 
L 98.427448 46.304953 
L 98.531548 46.184891 
L 98.739747 46.081981 
L 98.848372 45.841858 
L 98.956998 45.738948 
L 99.056571 45.601735 
L 99.092779 45.498825 
L 99.201405 45.395915 
L 99.291926 45.293005 
L 99.386973 45.104336 
L 99.518229 45.001426 
L 99.60875 44.898516 
L 99.753584 44.795607 
L 99.857684 44.709848 
L 99.952731 44.606938 
L 100.029674 44.52118 
L 100.197138 44.41827 
L 100.292185 44.349663 
L 100.423441 44.246753 
L 100.513962 44.126692 
L 100.708583 44.023782 
L 100.799104 43.886568 
L 100.957516 43.783658 
L 101.007303 43.715052 
L 101.315075 43.612142 
L 101.392018 43.526383 
L 101.518748 43.423473 
L 101.600217 43.337715 
L 101.758629 43.234805 
L 101.867255 43.149047 
L 102.107136 43.046137 
L 102.206709 42.926075 
L 102.451116 42.823165 
L 102.541638 42.703104 
L 102.84941 42.617345 
L 102.958035 42.531587 
L 103.216021 42.428677 
L 103.306542 42.377222 
L 103.885878 42.274312 
L 103.980925 42.137099 
L 104.533104 42.034189 
L 104.551209 41.999885 
L 105.144122 41.896975 
L 105.148649 41.862672 
L 105.700828 41.759762 
L 105.786823 41.708307 
L 106.447628 41.605397 
L 106.447628 41.588245 
L 106.986229 41.485336 
L 107.094855 41.416729 
L 107.760186 41.313819 
L 107.760186 41.296667 
L 108.389308 41.228061 
L 108.389308 41.176606 
L 109.16779 41.073696 
L 109.249259 41.022241 
L 109.756178 40.919331 
L 109.824069 40.867876 
L 110.01869 40.764966 
L 110.109211 40.730662 
L 110.679495 40.627752 
L 110.783594 40.524842 
L 111.159257 40.421932 
L 111.267883 40.353326 
L 111.530394 40.250416 
L 111.63902 40.181809 
L 111.93774 40.078899 
L 111.93774 40.061747 
L 112.566862 39.958837 
L 112.657383 39.907383 
L 112.965155 39.804473 
L 113.033046 39.770169 
L 113.5807 39.667259 
L 113.5807 39.650108 
L 114.169087 39.547198 
L 114.259609 39.512894 
L 114.62622 39.409984 
L 114.67148 39.375681 
L 115.608375 39.272771 
L 115.703422 39.221316 
L 116.074559 39.118406 
L 116.074559 39.101254 
L 116.848515 38.998344 
L 116.86662 38.964041 
L 117.251335 38.861131 
L 117.251335 38.843979 
L 117.866879 38.741069 
L 117.898561 38.689614 
L 118.713252 38.586704 
L 118.794721 38.535249 
L 119.156806 38.449491 
L 119.156806 38.415188 
L 119.840241 38.312278 
L 119.840241 38.295126 
L 120.32453 38.192216 
L 120.374317 38.157913 
L 120.826923 38.055003 
L 120.826923 38.037851 
L 121.718557 37.934941 
L 121.718557 37.91779 
L 122.356731 37.81488 
L 122.361257 37.780576 
L 123.252891 37.677666 
L 123.280048 37.643363 
L 124.266729 37.540453 
L 124.370828 37.488998 
L 125.289619 37.386088 
L 125.289619 37.368936 
L 126.240091 37.266026 
L 126.258195 37.231723 
L 127.122673 37.128813 
L 127.181512 37.077358 
L 128.136511 36.9916 
L 128.136511 36.957296 
L 128.96478 36.854386 
L 128.96478 36.837235 
L 130.372385 36.734325 
L 130.395015 36.700021 
L 131.454113 36.597112 
L 131.454113 36.57996 
L 133.101599 36.47705 
L 133.205699 36.442747 
L 134.762663 36.339837 
L 134.826028 36.288382 
L 136.215529 36.185472 
L 136.215529 36.16832 
L 137.844911 36.06541 
L 137.844911 36.048258 
L 139.189151 35.945348 
L 139.207255 35.911045 
L 140.574125 35.808135 
L 140.673699 35.739528 
L 142.266872 35.636618 
L 142.266872 35.619467 
L 142.325711 35.619467 
L 143.13135 35.516557 
L 143.212819 35.482253 
L 144.493694 35.379343 
L 144.493694 35.362192 
L 146.041607 35.259282 
L 146.041607 35.24213 
L 147.65741 35.13922 
L 147.720775 35.070613 
L 148.893025 34.967703 
L 148.897551 34.9334 
L 150.545037 34.83049 
L 150.617454 34.779035 
L 151.930012 34.676125 
L 152.016007 34.641822 
L 153.188256 34.538912 
L 153.238043 34.504609 
L 154.233777 34.401699 
L 154.233777 34.384547 
L 157.804838 34.281637 
L 157.804838 34.264485 
L 160.887086 34.161575 
L 160.887086 34.144424 
L 162.806135 34.041514 
L 162.883078 34.00721 
L 164.865493 33.9043 
L 164.865493 33.887149 
L 168.033736 33.784239 
L 168.033736 33.767087 
L 168.518024 33.664177 
L 168.590441 33.612722 
L 172.034773 33.509812 
L 172.034773 33.49266 
L 174.433585 33.38975 
L 174.433585 33.372599 
L 178.33505 33.269689 
L 178.33505 33.252537 
L 180.819857 33.149627 
L 180.819857 33.132476 
L 183.268456 33.029566 
L 183.268456 33.012414 
L 185.993144 32.909504 
L 185.993144 32.892352 
L 187.124659 32.789442 
L 187.124659 32.772291 
L 188.926032 32.669381 
L 188.926032 32.652229 
L 191.723137 32.549319 
L 191.723137 32.532167 
L 195.466189 32.429257 
L 195.466189 32.412106 
L 198.933152 32.309196 
L 198.937678 32.274892 
L 200.806941 32.171982 
L 200.806941 32.154831 
L 203.024711 32.051921 
L 203.024711 32.034769 
L 209.890745 31.931859 
L 209.890745 31.914707 
L 220.391205 31.811797 
L 220.391205 31.794646 
L 226.442548 31.691736 
L 226.442548 31.674584 
L 231.154178 31.571674 
L 231.154178 31.554523 
L 233.987492 31.451613 
L 233.987492 31.434461 
L 234.059909 31.434461 
L 239.966418 31.331551 
L 240.070517 31.297248 
L 245.596837 31.194338 
L 245.596837 31.177186 
L 248.561407 31.074276 
L 248.561407 31.057124 
L 255.368602 30.954214 
L 255.368602 30.937063 
L 270.218607 30.834153 
L 270.218607 30.817001 
L 275.64988 30.714091 
L 275.64988 30.696939 
L 280.741698 30.594029 
L 280.741698 30.576878 
L 310.668012 30.473968 
L 310.668012 30.456816 
L 319.579825 30.353906 
L 319.579825 30.336754 
L 332.605828 30.285299 
L 332.605828 30.285299 
" clip-path="url(#pc564935a67)" style="fill: none; stroke: #0000cd; stroke-width: 1.5; stroke-linecap: square"/>
   </g>
   <g id="line2d_16">
    <path d="M 74.914563 225.591288 
L 75.340013 181.99176 
L 75.801671 163.330751 
L 76.150178 121.497844 
L 76.15923 121.034749 
L 76.267855 117.244232 
L 76.272381 116.798289 
L 76.381007 112.561828 
L 76.426267 111.412666 
L 76.534893 106.404381 
L 76.539419 106.404381 
L 76.539419 106.370077 
L 76.648044 102.974048 
L 76.661623 102.956896 
L 76.661623 102.905441 
L 76.765722 99.440805 
L 76.774774 99.440805 
L 76.774774 99.337896 
L 76.8834 96.799449 
L 76.892452 96.336354 
L 77.001077 93.351965 
L 77.014655 93.249055 
L 77.123281 91.24231 
L 77.132333 91.208007 
L 77.240958 87.263125 
L 77.250011 87.177366 
L 77.349584 84.4331 
L 77.363162 84.4331 
L 77.363162 84.398797 
L 77.471788 81.911806 
L 77.476314 81.911806 
L 77.584939 80.213791 
L 77.598517 80.213791 
L 77.707143 78.121288 
L 77.720721 78.03553 
L 77.829346 76.509032 
L 77.856503 76.423273 
L 77.965128 74.502287 
L 77.97418 74.416529 
L 78.082806 73.010092 
L 78.114488 72.924334 
L 78.218588 71.569353 
L 78.232166 71.535049 
L 78.340791 70.643163 
L 78.367948 70.540253 
L 78.476573 69.288182 
L 78.512781 69.219575 
L 78.621407 68.310537 
L 78.639511 68.259082 
L 78.748137 67.41865 
L 78.757189 67.401499 
L 78.865814 66.252337 
L 78.879392 66.183731 
L 78.988018 64.931659 
L 79.001596 64.845901 
L 79.096643 63.525223 
L 79.1238 63.473768 
L 79.232425 62.650488 
L 79.236951 62.650488 
L 79.345577 61.604236 
L 79.372733 61.501326 
L 79.481358 60.592288 
L 79.490411 60.575137 
L 79.589984 59.803312 
L 79.61714 59.700402 
L 79.72124 58.911425 
L 79.74387 58.808515 
L 79.852495 58.019539 
L 79.884178 57.933781 
L 79.988277 57.127652 
L 80.006381 57.127652 
L 80.115007 56.407283 
L 80.160268 56.304373 
L 80.268893 55.841278 
L 80.286997 55.772671 
L 80.395623 55.343879 
L 80.422779 55.258121 
L 80.531405 54.62351 
L 80.563087 54.554903 
L 80.64003 54.160415 
L 80.698869 54.091808 
L 80.807494 53.4915 
L 80.843703 53.38859 
L 80.93875 52.908343 
L 80.984011 52.856888 
L 81.092636 52.599613 
L 81.11074 52.496703 
L 81.21484 52.136518 
L 81.2601 52.05076 
L 81.350621 51.724878 
L 81.418512 51.621968 
L 81.518086 51.398997 
L 81.55882 51.33039 
L 81.667446 50.867295 
L 81.721758 50.764385 
L 81.789649 50.644324 
L 81.907327 50.541414 
L 82.015952 50.164077 
L 82.070265 50.061167 
L 82.178891 49.803892 
L 82.264886 49.700982 
L 82.368985 49.306494 
L 82.414246 49.237887 
L 82.504767 48.860551 
L 82.608866 48.774792 
L 82.717492 48.483214 
L 82.744648 48.380304 
L 82.844222 48.002968 
L 82.921165 47.934361 
L 83.02979 47.557024 
L 83.106733 47.454114 
L 83.215358 47.282598 
L 83.247041 47.196839 
L 83.35114 46.939564 
L 83.396401 46.836654 
L 83.505026 46.579379 
L 83.559339 46.493621 
L 83.667965 46.184891 
L 83.713225 46.081981 
L 83.817325 45.85901 
L 83.871637 45.7561 
L 83.966685 45.395915 
L 84.079836 45.293005 
L 84.165831 45.104336 
L 84.2473 45.001426 
L 84.306139 44.898516 
L 84.464551 44.795607 
L 84.559599 44.572635 
L 84.591281 44.469725 
L 84.69538 44.21245 
L 84.853792 44.143843 
L 84.962418 43.90372 
L 85.021257 43.80081 
L 85.129882 43.457777 
L 85.211351 43.354867 
L 85.315451 43.131895 
L 85.387868 43.028985 
L 85.496493 42.840317 
L 85.600592 42.754559 
L 85.709218 42.36007 
L 85.849526 42.25716 
L 85.953625 42.034189 
L 86.116563 41.931279 
L 86.220663 41.811217 
L 86.365497 41.708307 
L 86.410757 41.674004 
L 86.63706 41.571094 
L 86.745686 41.433881 
L 86.885994 41.330971 
L 86.967463 41.176606 
L 87.021776 41.090847 
L 87.116823 40.936482 
L 87.297865 40.833572 
L 87.379334 40.662056 
L 87.63732 40.559146 
L 87.745945 40.421932 
L 87.904357 40.319022 
L 88.008457 40.113202 
L 88.171395 40.010292 
L 88.28002 39.838776 
L 88.352437 39.735866 
L 88.452011 39.598653 
L 88.646631 39.512894 
L 88.714522 39.409984 
L 89.090185 39.307074 
L 89.180706 39.221316 
L 89.465848 39.118406 
L 89.547317 39.066951 
L 89.895824 38.964041 
L 89.999923 38.861131 
L 90.285065 38.758221 
L 90.321274 38.706766 
L 90.651676 38.603856 
L 90.733145 38.569553 
L 91.000183 38.466643 
L 91.031865 38.432339 
L 91.240064 38.329429 
L 91.344163 38.277974 
L 91.461841 38.175065 
L 91.556888 38.106458 
L 91.751509 38.003548 
L 91.851082 37.934941 
L 92.109068 37.832031 
L 92.213167 37.746273 
L 92.643143 37.643363 
L 92.751768 37.557605 
L 93.199848 37.454695 
L 93.303948 37.351785 
L 93.774658 37.248875 
L 93.801814 37.214571 
L 94.322311 37.111661 
L 94.38115 37.025903 
L 94.788496 36.922993 
L 94.788496 36.905841 
L 95.671077 36.802931 
L 95.74802 36.768628 
L 96.32283 36.665718 
L 96.42693 36.57996 
L 97.096787 36.47705 
L 97.096787 36.459898 
L 97.7938 36.356988 
L 97.7938 36.339837 
L 98.187567 36.254078 
L 98.246406 36.202623 
L 98.762377 36.099713 
L 98.834794 36.06541 
L 99.377921 35.9625 
L 99.377921 35.945348 
L 100.111143 35.842438 
L 100.151878 35.773832 
L 100.740265 35.670922 
L 100.740265 35.65377 
L 101.455383 35.55086 
L 101.496118 35.516557 
L 102.138818 35.413647 
L 102.202183 35.362192 
L 102.577846 35.259282 
L 102.577846 35.24213 
L 102.881092 35.156372 
L 102.980665 35.087765 
L 103.922086 34.984855 
L 104.021659 34.950552 
L 104.406375 34.847642 
L 104.469739 34.813339 
L 106.28469 34.710429 
L 106.393315 34.676125 
L 107.954806 34.573215 
L 107.968384 34.538912 
L 109.267364 34.436002 
L 109.289994 34.401699 
L 110.254045 34.298789 
L 110.299306 34.264485 
L 111.439873 34.161575 
L 111.439873 34.144424 
L 114.712215 34.041514 
L 114.712215 34.024362 
L 117.052188 33.921452 
L 117.052188 33.9043 
L 119.573204 33.80139 
L 119.573204 33.784239 
L 121.650666 33.681329 
L 121.659718 33.647025 
L 123.863909 33.544115 
L 123.863909 33.526964 
L 125.719594 33.424054 
L 125.719594 33.406902 
L 127.525492 33.303992 
L 127.525492 33.286841 
L 127.629592 33.286841 
L 130.634896 33.183931 
L 130.634896 33.166779 
L 132.404586 33.063869 
L 132.404586 33.046717 
L 134.052072 32.943807 
L 134.052072 32.926656 
L 142.565592 32.823746 
L 142.565592 32.806594 
L 151.939064 32.703684 
L 151.939064 32.686532 
L 157.859151 32.583622 
L 157.913464 32.549319 
L 162.751823 32.446409 
L 162.751823 32.429257 
L 164.458148 32.326347 
L 164.458148 32.309196 
L 166.458666 32.206286 
L 166.458666 32.189134 
L 168.662858 32.086224 
L 168.667384 32.069072 
L 171.469016 31.966162 
L 171.469016 31.949011 
L 174.34759 31.846101 
L 174.34759 31.828949 
L 179.643081 31.726039 
L 179.692868 31.691736 
L 187.138238 31.588826 
L 187.138238 31.571674 
L 194.275835 31.468764 
L 194.275835 31.451613 
L 198.779266 31.348703 
L 198.779266 31.331551 
L 211.081099 31.228641 
L 211.081099 31.211489 
L 222.613501 31.108579 
L 222.613501 31.091428 
L 229.411644 30.988518 
L 229.411644 30.971366 
L 236.015167 30.868456 
L 236.015167 30.851304 
L 273.255594 30.748394 
L 273.255594 30.731243 
L 294.632179 30.628333 
L 294.632179 30.611181 
L 312.021304 30.508271 
L 312.080142 30.473968 
L 322.114419 30.371058 
L 322.114419 30.353906 
L 332.605828 30.285299 
L 332.605828 30.285299 
" clip-path="url(#pc564935a67)" style="fill: none; stroke: #8b4513; stroke-width: 1.5; stroke-linecap: square"/>
   </g>
   <g id="line2d_17">
    <path d="M 74.914563 225.591288 
L 92.321793 142.680148 
L 94.032644 127.775353 
L 94.793022 121.875181 
L 95.394988 116.180829 
L 96.309252 107.673604 
L 96.499347 105.306674 
L 96.707545 103.214171 
L 97.056052 99.337896 
L 97.34572 97.605578 
L 97.698753 94.243852 
L 97.811904 93.540633 
L 97.938634 92.614444 
L 98.5406 89.904481 
L 99.038467 86.971546 
L 99.174248 86.268328 
L 99.400551 84.879043 
L 100.80363 77.52098 
L 100.848891 77.435222 
L 100.848891 77.41807 
L 100.957516 76.920672 
L 101.369388 74.931079 
L 101.478013 74.399377 
L 101.523274 74.296467 
L 101.921567 72.409784 
L 102.025667 71.706566 
L 102.043771 71.603656 
L 102.152396 70.660315 
L 102.193131 70.557405 
L 102.29723 70.025703 
L 102.315335 69.957096 
L 102.419434 69.494002 
L 102.469221 69.391092 
L 102.57332 68.825087 
L 102.609528 68.739328 
L 102.709102 68.44775 
L 102.740784 68.34484 
L 102.84941 67.83029 
L 102.881092 67.72738 
L 102.989718 67.195679 
L 103.030452 67.092769 
L 103.139078 66.458157 
L 103.157182 66.355247 
L 103.265807 65.909304 
L 103.292964 65.840697 
L 103.388011 65.531967 
L 103.433272 65.429057 
L 103.541897 65.000266 
L 103.582632 64.914507 
L 103.686731 64.520019 
L 103.727465 64.417109 
L 103.827039 64.056924 
L 103.858721 63.971166 
L 103.967347 63.559526 
L 103.999029 63.473768 
L 104.107655 63.165038 
L 104.152915 63.062128 
L 104.257015 62.66764 
L 104.315853 62.616185 
L 104.424479 62.135938 
L 104.438057 62.033028 
L 104.546682 61.587085 
L 104.573839 61.501326 
L 104.682464 61.106838 
L 104.709621 61.003928 
L 104.818246 60.369317 
L 104.863507 60.283558 
L 104.96308 59.957677 
L 105.003815 59.854767 
L 105.103388 59.511734 
L 105.157701 59.425975 
L 105.157701 59.408824 
L 105.447369 58.619847 
L 105.56052 58.516937 
L 105.669145 58.24251 
L 105.750615 58.1396 
L 105.854714 57.813719 
L 105.899975 57.710809 
L 105.995022 57.419231 
L 106.022178 57.419231 
L 106.130804 56.990439 
L 106.144382 56.921832 
L 106.253007 56.595951 
L 106.275638 56.527344 
L 106.384263 56.270069 
L 106.474784 56.167159 
L 106.538149 55.944188 
L 106.651301 55.841278 
L 106.746348 55.635458 
L 106.814239 55.532548 
L 106.918338 55.223818 
L 106.995281 55.120908 
L 107.090329 54.674965 
L 107.167272 54.589206 
L 107.253267 54.331931 
L 107.271371 54.331931 
L 107.316632 54.263325 
L 107.425257 54.00605 
L 107.475044 53.90314 
L 107.579143 53.663016 
L 107.633456 53.560106 
L 107.737555 53.199921 
L 107.796394 53.097012 
L 107.900493 52.822585 
L 107.945754 52.736827 
L 108.009119 52.325187 
L 108.090588 52.222277 
L 108.190161 51.982153 
L 108.253526 51.879243 
L 108.362152 51.690575 
L 108.39836 51.587665 
L 108.497933 51.398997 
L 108.54772 51.296087 
L 108.651819 50.935902 
L 108.688028 50.832992 
L 108.792127 50.61002 
L 108.837388 50.524262 
L 108.936961 50.335594 
L 109.01843 50.232684 
L 109.118004 49.786741 
L 109.190421 49.683831 
L 109.280942 49.460859 
L 109.394093 49.357949 
L 109.498193 49.066371 
L 109.543453 48.963461 
L 109.643027 48.740489 
L 109.674709 48.671882 
L 109.783335 48.448911 
L 109.842173 48.363152 
L 109.950799 48.140181 
L 110.032268 48.037271 
L 110.140893 47.659934 
L 110.204258 47.557024 
L 110.303832 47.299749 
L 110.36267 47.213991 
L 110.471296 47.042474 
L 110.516556 47.008171 
L 110.620656 46.802351 
L 110.706651 46.699441 
L 110.797172 46.510773 
L 110.842433 46.442166 
L 110.951058 46.202043 
L 111.023475 46.099133 
L 111.127575 45.7561 
L 111.276935 45.65319 
L 111.371982 45.515976 
L 111.471555 45.413066 
L 111.580181 45.104336 
L 111.652598 45.001426 
L 111.761223 44.727 
L 111.824588 44.62409 
L 111.906057 44.504028 
L 112.068995 44.401118 
L 112.150464 44.31536 
L 112.240986 44.21245 
L 112.349611 44.023782 
L 112.435606 43.920872 
L 112.503497 43.835113 
L 112.639279 43.732203 
L 112.720748 43.663597 
L 112.870108 43.59499 
L 112.978733 43.457777 
L 113.205037 43.38917 
L 113.313662 43.269108 
L 113.598804 43.166199 
L 113.698377 43.114744 
L 113.829633 43.011834 
L 113.906576 42.908924 
L 114.060462 42.806014 
L 114.155509 42.685952 
L 114.264135 42.583042 
L 114.354656 42.411525 
L 114.485912 42.308615 
L 114.576433 42.205705 
L 114.811788 42.102795 
L 114.920414 41.999885 
L 115.115034 41.896975 
L 115.201029 41.794065 
L 115.409228 41.708307 
L 115.495223 41.588245 
L 115.626479 41.485336 
L 115.703422 41.382426 
L 115.916147 41.296667 
L 115.916147 41.262364 
L 116.196763 41.159454 
L 116.273706 41.073696 
L 116.622212 40.970786 
L 116.708207 40.936482 
L 117.138183 40.833572 
L 117.246809 40.764966 
L 117.617946 40.662056 
L 117.645102 40.610601 
L 118.047921 40.507691 
L 118.147495 40.439084 
L 118.645361 40.336174 
L 118.645361 40.319022 
L 119.156806 40.216112 
L 119.156806 40.198961 
L 119.568678 40.096051 
L 119.672777 40.027444 
L 120.202326 39.924534 
L 120.270217 39.873079 
L 121.202586 39.770169 
L 121.302159 39.701563 
L 121.714031 39.598653 
L 121.763817 39.547198 
L 122.230001 39.444288 
L 122.261684 39.375681 
L 122.664503 39.272771 
L 122.723342 39.238468 
L 123.547085 39.135558 
L 123.61045 39.066951 
L 123.850331 38.964041 
L 123.895592 38.912586 
L 124.764595 38.809676 
L 124.800804 38.775373 
L 125.298671 38.672463 
L 125.398244 38.621008 
L 125.520448 38.518098 
L 125.592865 38.432339 
L 125.927793 38.329429 
L 125.959475 38.295126 
L 126.403029 38.22652 
L 126.434712 38.157913 
L 127.113621 38.055003 
L 127.204142 38.003548 
L 127.616014 37.900638 
L 127.616014 37.883486 
L 128.032411 37.780576 
L 128.086724 37.746273 
L 128.498596 37.643363 
L 128.602695 37.591908 
L 128.851628 37.50615 
L 128.942149 37.420391 
L 129.290656 37.317481 
L 129.399282 37.248875 
L 129.45812 37.163116 
L 129.521485 37.077358 
L 129.888096 36.974448 
L 129.987669 36.940145 
L 130.137029 36.837235 
L 130.227551 36.78578 
L 130.748048 36.68287 
L 130.797834 36.614263 
L 131.073924 36.511353 
L 131.178023 36.47705 
L 131.386222 36.391292 
L 131.490322 36.322685 
L 131.761885 36.219775 
L 131.843354 36.151168 
L 132.12397 36.048258 
L 132.22807 35.996803 
L 132.535842 35.893893 
L 132.590154 35.85959 
L 133.151386 35.75668 
L 133.241907 35.722377 
L 133.472736 35.636618 
L 133.57231 35.55086 
L 133.843873 35.44795 
L 133.907238 35.396495 
L 134.246693 35.293585 
L 134.314583 35.224978 
L 135.292213 35.122068 
L 135.332947 35.087765 
L 135.989226 35.002007 
L 136.061643 34.899097 
L 136.319628 34.796187 
L 136.419202 34.761884 
L 136.812969 34.658974 
L 136.90349 34.607519 
L 137.4783 34.504609 
L 137.537139 34.470305 
L 138.419721 34.367395 
L 138.52382 34.21303 
L 138.718441 34.11012 
L 138.82254 34.075817 
L 139.510501 33.972907 
L 139.510501 33.955755 
L 140.424765 33.852845 
L 140.470026 33.818542 
L 140.728011 33.715632 
L 140.777798 33.629874 
L 140.927158 33.526964 
L 140.927158 33.509812 
L 141.38429 33.406902 
L 141.479338 33.355447 
L 142.316659 33.252537 
L 142.316659 33.235386 
L 142.837156 33.132476 
L 142.837156 33.115324 
L 143.660899 33.012414 
L 143.679003 32.960959 
L 144.493694 32.858049 
L 144.493694 32.806594 
L 145.539214 32.703684 
L 145.539214 32.686532 
L 146.625469 32.583622 
L 146.625469 32.566471 
L 147.621202 32.463561 
L 147.670989 32.429257 
L 149.997384 32.326347 
L 149.997384 32.309196 
L 152.54103 32.206286 
L 152.54103 32.189134 
L 153.63181 32.086224 
L 153.731384 32.034769 
L 155.279297 31.931859 
L 155.279297 31.914707 
L 157.501592 31.811797 
L 157.501592 31.794646 
L 163.589144 31.691736 
L 163.589144 31.674584 
L 173.116502 31.571674 
L 173.116502 31.554523 
L 178.674504 31.451613 
L 178.674504 31.434461 
L 180.969217 31.331551 
L 180.969217 31.314399 
L 188.079658 31.211489 
L 188.079658 31.194338 
L 197.267561 31.091428 
L 197.267561 31.074276 
L 213.814839 30.971366 
L 213.814839 30.954214 
L 236.191683 30.851304 
L 236.191683 30.834153 
L 246.266694 30.731243 
L 246.266694 30.714091 
L 276.582249 30.611181 
L 276.582249 30.594029 
L 322.18231 30.491119 
L 322.18231 30.473968 
L 330.596257 30.388209 
L 332.605828 30.285299 
L 332.605828 30.285299 
" clip-path="url(#pc564935a67)" style="fill: none; stroke: #800000; stroke-width: 1.5; stroke-linecap: square"/>
   </g>
   <g id="line2d_18">
    <path d="M 74.914563 225.591288 
L 102.351543 68.807935 
L 102.460168 68.722177 
L 102.568794 68.619267 
L 102.672893 68.516357 
L 102.776993 68.379143 
L 102.899196 68.293385 
L 102.976139 68.087565 
L 102.989718 68.087565 
L 103.111921 68.018958 
L 103.206968 67.710229 
L 103.243177 67.658774 
L 103.351802 67.367195 
L 103.388011 67.264285 
L 103.487584 67.144224 
L 103.718413 67.041314 
L 103.799882 66.955555 
L 103.926612 66.886949 
L 104.012607 66.749735 
L 104.266067 66.646825 
L 104.374692 66.49246 
L 104.483318 66.38955 
L 104.542156 66.320944 
L 104.750355 66.218034 
L 104.854455 66.149427 
L 104.994762 66.046517 
L 105.098862 65.977911 
L 105.252748 65.875001 
L 105.338743 65.789242 
L 105.58315 65.686332 
L 105.691776 65.549119 
L 105.800401 65.446209 
L 105.904501 65.360451 
L 106.040282 65.274692 
L 106.13533 65.171782 
L 106.144382 65.171782 
L 106.311846 65.068872 
L 106.366159 65.034569 
L 106.633196 64.931659 
L 106.741822 64.777294 
L 106.972651 64.674384 
L 107.081276 64.554323 
L 107.248741 64.451413 
L 107.289475 64.365654 
L 107.529356 64.262744 
L 107.619878 64.142683 
L 107.633456 64.142683 
L 107.941228 64.039773 
L 108.022697 63.936863 
L 108.39836 63.833953 
L 108.448147 63.748194 
L 108.497933 63.748194 
L 108.665398 63.645284 
L 108.764971 63.508071 
L 108.941487 63.405161 
L 109.027483 63.302251 
L 109.163264 63.199341 
L 109.226629 63.096431 
L 109.457458 62.993521 
L 109.507245 62.924915 
L 109.520823 62.924915 
L 109.665657 62.839156 
L 109.751652 62.547578 
L 109.864804 62.478971 
L 109.959851 62.35891 
L 110.145419 62.256 
L 110.240467 62.101635 
L 110.435087 62.05018 
L 110.435087 62.033028 
L 110.534661 61.861511 
L 110.665916 61.758601 
L 110.774542 61.587085 
L 110.883167 61.484175 
L 111.046106 61.278355 
L 111.204518 61.192597 
L 111.276935 61.055383 
L 111.40819 60.969625 
L 111.507764 60.883867 
L 111.566603 60.780957 
L 111.666176 60.695198 
L 111.829114 60.592288 
L 111.928687 60.540833 
L 112.168569 60.437923 
L 112.263616 60.352165 
L 112.277194 60.352165 
L 112.435606 60.249255 
L 112.498971 60.163497 
L 112.530653 60.163497 
L 112.689066 60.060587 
L 112.766009 59.99198 
L 113.042098 59.88907 
L 113.078307 59.803312 
L 113.413235 59.700402 
L 113.517335 59.597492 
L 113.965415 59.494582 
L 114.060462 59.408824 
L 114.2234 59.305914 
L 114.3275 59.220155 
L 114.635272 59.117245 
L 114.725793 59.06579 
L 114.739371 59.06579 
L 115.001883 58.980032 
L 115.060721 58.894274 
L 115.09693 58.894274 
L 115.214607 58.85997 
L 332.605828 30.285299 
L 332.605828 30.285299 
" clip-path="url(#pc564935a67)" style="fill: none; stroke: #696969; stroke-width: 1.5; stroke-linecap: square"/>
   </g>
   <g id="line2d_19">
    <path d="M 74.914563 225.591288 
L 99.631381 106.850324 
L 99.925574 102.88829 
L 101.794838 80.505369 
L 101.903463 79.098933 
L 101.917041 78.996023 
L 102.016615 77.246553 
L 102.043771 77.195098 
L 102.14787 75.788662 
L 102.165975 75.720055 
L 102.2746 74.570894 
L 102.283652 74.502287 
L 102.392278 73.438884 
L 102.414908 73.353126 
L 102.523533 72.461239 
L 102.537112 72.358329 
L 102.641211 71.414988 
L 102.663841 71.329229 
L 102.772467 70.91759 
L 102.790571 70.81468 
L 102.899196 70.368736 
L 102.930879 70.265826 
L 103.039504 69.511153 
L 103.062135 69.408243 
L 103.17076 69.013755 
L 103.19339 68.927997 
L 103.29749 68.413447 
L 103.329172 68.34484 
L 103.433272 67.693077 
L 103.460428 67.658774 
L 103.564527 67.075617 
L 103.582632 66.989859 
L 103.691257 66.69828 
L 103.727465 66.59537 
L 103.822513 66.269489 
L 103.903982 66.166579 
L 104.012607 65.754939 
L 104.057868 65.686332 
L 104.161967 65.308996 
L 104.21628 65.206086 
L 104.311327 65.017417 
L 104.397322 64.914507 
L 104.496896 64.691536 
L 104.533104 64.657233 
L 104.632678 64.417109 
L 104.763933 64.331351 
L 104.863507 64.211289 
L 104.935924 64.142683 
L 105.026445 63.971166 
L 105.076232 63.868256 
L 105.144122 63.662436 
L 105.2618 63.576678 
L 105.365899 63.422313 
L 105.506207 63.319403 
L 105.605781 63.165038 
L 105.813979 63.062128 
L 105.872818 62.97637 
L 106.094595 62.87346 
L 106.194169 62.804853 
L 106.397841 62.701943 
L 106.506467 62.650488 
L 106.624144 62.547578 
L 106.714666 62.35891 
L 106.836869 62.256 
L 106.918338 62.15309 
L 107.022438 62.05018 
L 107.117485 61.964421 
L 107.289475 61.861511 
L 107.343788 61.775753 
L 107.5022 61.707146 
L 107.570091 61.569933 
L 107.669664 61.484175 
L 107.751133 61.32981 
L 108.009119 61.2269 
L 108.090588 61.192597 
L 108.294261 61.089687 
L 108.380256 60.935322 
L 108.534142 60.849563 
L 108.611085 60.763805 
L 108.706132 60.71235 
L 108.706132 60.660895 
L 108.810232 60.540833 
L 108.959592 60.437923 
L 109.068217 60.283558 
L 109.335255 60.180648 
L 109.398619 60.060587 
L 109.566084 59.957677 
L 109.643027 59.906222 
L 109.756178 59.803312 
L 109.833121 59.666099 
L 110.01869 59.58034 
L 110.109211 59.47743 
L 110.475822 59.37452 
L 110.566343 59.185852 
L 110.815276 59.082942 
L 110.869589 58.980032 
L 111.08684 58.877122 
L 111.195466 58.825667 
L 111.371982 58.722757 
L 111.476081 58.602695 
L 111.688806 58.499785 
L 111.792906 58.293965 
L 111.93774 58.191055 
L 112.023735 58.122449 
L 112.200251 58.019539 
L 112.286246 57.968084 
L 112.449184 57.865174 
L 112.55781 57.710809 
L 112.616649 57.607899 
L 112.725274 57.487837 
L 112.888212 57.384927 
L 112.996838 57.213411 
L 113.173354 57.110501 
L 113.28198 57.007591 
L 113.381553 56.904681 
L 113.481126 56.750316 
L 113.635012 56.647406 
L 113.693851 56.595951 
L 113.847737 56.493041 
L 113.870367 56.458737 
L 114.087618 56.355828 
L 114.191718 56.252918 
L 114.363708 56.167159 
L 114.467807 55.961339 
L 114.517594 55.858429 
L 114.617167 55.686913 
L 114.743897 55.584003 
L 114.84347 55.361031 
L 114.965674 55.258121 
L 115.056195 55.000846 
L 115.196503 54.897936 
L 115.282498 54.743571 
L 115.409228 54.657813 
L 115.508801 54.486296 
L 115.653635 54.383386 
L 115.698896 54.246173 
L 115.870886 54.143263 
L 115.965934 53.988898 
L 116.079085 53.920291 
L 116.146976 53.783078 
L 116.156028 53.783078 
L 116.359701 53.680168 
L 116.432118 53.560106 
L 116.599582 53.457196 
L 116.658421 53.319983 
L 116.812307 53.217073 
L 116.898302 53.062708 
L 116.975245 53.011253 
L 117.083871 52.805433 
L 117.269439 52.702523 
L 117.355434 52.479552 
L 117.541003 52.376642 
L 117.640576 52.239428 
L 117.821618 52.136518 
L 117.930244 52.067912 
L 118.115812 51.965002 
L 118.188229 51.879243 
L 118.505054 51.776333 
L 118.609153 51.63912 
L 118.8083 51.53621 
L 118.880717 51.4333 
L 119.116072 51.33039 
L 119.197541 51.210329 
L 119.328797 51.107419 
L 119.42837 50.935902 
L 119.595834 50.832992 
L 119.654673 50.730082 
L 119.699934 50.730082 
L 119.745194 50.695779 
L 332.605828 30.285299 
L 332.605828 30.285299 
" clip-path="url(#pc564935a67)" style="fill: none; stroke: #000000; stroke-width: 1.5; stroke-linecap: square"/>
   </g>
   <g id="line2d_20">
    <path d="M 74.914563 225.591288 
L 145.367224 84.810437 
L 145.475849 84.415949 
L 145.507532 84.33019 
L 145.607105 83.644124 
L 145.629735 83.558365 
L 145.738361 82.940905 
L 145.756465 82.855147 
L 145.86509 82.460659 
L 145.901299 82.374901 
L 146.009924 81.740289 
L 146.032555 81.671682 
L 146.14118 80.899858 
L 146.177389 80.796948 
L 146.281488 80.059426 
L 146.304118 79.990819 
L 146.412744 79.356208 
L 146.4399 79.253298 
L 146.543999 78.670141 
L 146.575682 78.567231 
L 146.675255 78.052681 
L 146.71599 77.984075 
L 146.824615 77.486677 
L 146.851772 77.383767 
L 146.960397 76.663397 
L 146.983027 76.577638 
L 147.087127 76.251757 
L 147.105231 76.148847 
L 147.204804 75.325567 
L 332.605828 30.285299 
L 332.605828 30.285299 
" clip-path="url(#pc564935a67)" style="fill: none; stroke: #c0c0c0; stroke-width: 1.5; stroke-linecap: square"/>
   </g>
   <g id="patch_3">
    <path d="M 62.03 235.356588 
L 62.03 20.52 
" style="fill: none; stroke: #000000; stroke-width: 0.8; stroke-linejoin: miter; stroke-linecap: square"/>
   </g>
   <g id="patch_4">
    <path d="M 345.490391 235.356588 
L 345.490391 20.52 
" style="fill: none; stroke: #000000; stroke-width: 0.8; stroke-linejoin: miter; stroke-linecap: square"/>
   </g>
   <g id="patch_5">
    <path d="M 62.03 235.356588 
L 345.490391 235.356588 
" style="fill: none; stroke: #000000; stroke-width: 0.8; stroke-linejoin: miter; stroke-linecap: square"/>
   </g>
   <g id="patch_6">
    <path d="M 62.03 20.52 
L 345.490391 20.52 
" style="fill: none; stroke: #000000; stroke-width: 0.8; stroke-linejoin: miter; stroke-linecap: square"/>
   </g>
   <g id="legend_1">
    <g id="patch_7">
     <path d="M 186.587891 229.356588 
L 337.090391 229.356588 
Q 339.490391 229.356588 339.490391 226.956588 
L 339.490391 87.246588 
Q 339.490391 84.846588 337.090391 84.846588 
L 186.587891 84.846588 
Q 184.187891 84.846588 184.187891 87.246588 
L 184.187891 226.956588 
Q 184.187891 229.356588 186.587891 229.356588 
z
" style="fill: #ffffff; opacity: 0.8; stroke: #cccccc; stroke-linejoin: miter"/>
    </g>
    <g id="line2d_21">
     <path d="M 188.987891 94.564713 
L 200.987891 94.564713 
L 212.987891 94.564713 
" style="fill: none; stroke: #800080; stroke-width: 1.5; stroke-linecap: square"/>
    </g>
    <g id="text_15">
     <!-- RC aggregated -->
     <g transform="translate(222.587891 98.764713) scale(0.12 -0.12)">
      <defs>
       <path id="DejaVuSans-52" d="M 2841 2188 
Q 3044 2119 3236 1894 
Q 3428 1669 3622 1275 
L 4263 0 
L 3584 0 
L 2988 1197 
Q 2756 1666 2539 1819 
Q 2322 1972 1947 1972 
L 1259 1972 
L 1259 0 
L 628 0 
L 628 4666 
L 2053 4666 
Q 2853 4666 3247 4331 
Q 3641 3997 3641 3322 
Q 3641 2881 3436 2590 
Q 3231 2300 2841 2188 
z
M 1259 4147 
L 1259 2491 
L 2053 2491 
Q 2509 2491 2742 2702 
Q 2975 2913 2975 3322 
Q 2975 3731 2742 3939 
Q 2509 4147 2053 4147 
L 1259 4147 
z
" transform="scale(0.015625)"/>
       <path id="DejaVuSans-43" d="M 4122 4306 
L 4122 3641 
Q 3803 3938 3442 4084 
Q 3081 4231 2675 4231 
Q 1875 4231 1450 3742 
Q 1025 3253 1025 2328 
Q 1025 1406 1450 917 
Q 1875 428 2675 428 
Q 3081 428 3442 575 
Q 3803 722 4122 1019 
L 4122 359 
Q 3791 134 3420 21 
Q 3050 -91 2638 -91 
Q 1578 -91 968 557 
Q 359 1206 359 2328 
Q 359 3453 968 4101 
Q 1578 4750 2638 4750 
Q 3056 4750 3426 4639 
Q 3797 4528 4122 4306 
z
" transform="scale(0.015625)"/>
       <path id="DejaVuSans-67" d="M 2906 1791 
Q 2906 2416 2648 2759 
Q 2391 3103 1925 3103 
Q 1463 3103 1205 2759 
Q 947 2416 947 1791 
Q 947 1169 1205 825 
Q 1463 481 1925 481 
Q 2391 481 2648 825 
Q 2906 1169 2906 1791 
z
M 3481 434 
Q 3481 -459 3084 -895 
Q 2688 -1331 1869 -1331 
Q 1566 -1331 1297 -1286 
Q 1028 -1241 775 -1147 
L 775 -588 
Q 1028 -725 1275 -790 
Q 1522 -856 1778 -856 
Q 2344 -856 2625 -561 
Q 2906 -266 2906 331 
L 2906 616 
Q 2728 306 2450 153 
Q 2172 0 1784 0 
Q 1141 0 747 490 
Q 353 981 353 1791 
Q 353 2603 747 3093 
Q 1141 3584 1784 3584 
Q 2172 3584 2450 3431 
Q 2728 3278 2906 2969 
L 2906 3500 
L 3481 3500 
L 3481 434 
z
" transform="scale(0.015625)"/>
       <path id="DejaVuSans-64" d="M 2906 2969 
L 2906 4863 
L 3481 4863 
L 3481 0 
L 2906 0 
L 2906 525 
Q 2725 213 2448 61 
Q 2172 -91 1784 -91 
Q 1150 -91 751 415 
Q 353 922 353 1747 
Q 353 2572 751 3078 
Q 1150 3584 1784 3584 
Q 2172 3584 2448 3432 
Q 2725 3281 2906 2969 
z
M 947 1747 
Q 947 1113 1208 752 
Q 1469 391 1925 391 
Q 2381 391 2643 752 
Q 2906 1113 2906 1747 
Q 2906 2381 2643 2742 
Q 2381 3103 1925 3103 
Q 1469 3103 1208 2742 
Q 947 2381 947 1747 
z
" transform="scale(0.015625)"/>
      </defs>
      <use xlink:href="#DejaVuSans-52"/>
      <use xlink:href="#DejaVuSans-43" x="64.482422"/>
      <use xlink:href="#DejaVuSans-20" x="134.306641"/>
      <use xlink:href="#DejaVuSans-61" x="166.09375"/>
      <use xlink:href="#DejaVuSans-67" x="227.373047"/>
      <use xlink:href="#DejaVuSans-67" x="290.849609"/>
      <use xlink:href="#DejaVuSans-72" x="354.326172"/>
      <use xlink:href="#DejaVuSans-65" x="393.189453"/>
      <use xlink:href="#DejaVuSans-67" x="454.712891"/>
      <use xlink:href="#DejaVuSans-61" x="518.189453"/>
      <use xlink:href="#DejaVuSans-74" x="579.46875"/>
      <use xlink:href="#DejaVuSans-65" x="618.677734"/>
      <use xlink:href="#DejaVuSans-64" x="680.201172"/>
     </g>
    </g>
    <g id="line2d_22">
     <path d="M 188.987891 112.178463 
L 200.987891 112.178463 
L 212.987891 112.178463 
" style="fill: none; stroke: #228b22; stroke-width: 1.5; stroke-linecap: square"/>
    </g>
    <g id="text_16">
     <!-- RC connected -->
     <g transform="translate(222.587891 116.378463) scale(0.12 -0.12)">
      <defs>
       <path id="DejaVuSans-63" d="M 3122 3366 
L 3122 2828 
Q 2878 2963 2633 3030 
Q 2388 3097 2138 3097 
Q 1578 3097 1268 2742 
Q 959 2388 959 1747 
Q 959 1106 1268 751 
Q 1578 397 2138 397 
Q 2388 397 2633 464 
Q 2878 531 3122 666 
L 3122 134 
Q 2881 22 2623 -34 
Q 2366 -91 2075 -91 
Q 1284 -91 818 406 
Q 353 903 353 1747 
Q 353 2603 823 3093 
Q 1294 3584 2113 3584 
Q 2378 3584 2631 3529 
Q 2884 3475 3122 3366 
z
" transform="scale(0.015625)"/>
       <path id="DejaVuSans-6e" d="M 3513 2113 
L 3513 0 
L 2938 0 
L 2938 2094 
Q 2938 2591 2744 2837 
Q 2550 3084 2163 3084 
Q 1697 3084 1428 2787 
Q 1159 2491 1159 1978 
L 1159 0 
L 581 0 
L 581 3500 
L 1159 3500 
L 1159 2956 
Q 1366 3272 1645 3428 
Q 1925 3584 2291 3584 
Q 2894 3584 3203 3211 
Q 3513 2838 3513 2113 
z
" transform="scale(0.015625)"/>
      </defs>
      <use xlink:href="#DejaVuSans-52"/>
      <use xlink:href="#DejaVuSans-43" x="64.482422"/>
      <use xlink:href="#DejaVuSans-20" x="134.306641"/>
      <use xlink:href="#DejaVuSans-63" x="166.09375"/>
      <use xlink:href="#DejaVuSans-6f" x="221.074219"/>
      <use xlink:href="#DejaVuSans-6e" x="282.255859"/>
      <use xlink:href="#DejaVuSans-6e" x="345.634766"/>
      <use xlink:href="#DejaVuSans-65" x="409.013672"/>
      <use xlink:href="#DejaVuSans-63" x="470.537109"/>
      <use xlink:href="#DejaVuSans-74" x="525.517578"/>
      <use xlink:href="#DejaVuSans-65" x="564.726562"/>
      <use xlink:href="#DejaVuSans-64" x="626.25"/>
     </g>
    </g>
    <g id="line2d_23">
     <path d="M 188.987891 129.792213 
L 200.987891 129.792213 
L 212.987891 129.792213 
" style="fill: none; stroke: #0000cd; stroke-width: 1.5; stroke-linecap: square"/>
    </g>
    <g id="text_17">
     <!-- Bag of molecules -->
     <g transform="translate(222.587891 133.992213) scale(0.12 -0.12)">
      <defs>
       <path id="DejaVuSans-42" d="M 1259 2228 
L 1259 519 
L 2272 519 
Q 2781 519 3026 730 
Q 3272 941 3272 1375 
Q 3272 1813 3026 2020 
Q 2781 2228 2272 2228 
L 1259 2228 
z
M 1259 4147 
L 1259 2741 
L 2194 2741 
Q 2656 2741 2882 2914 
Q 3109 3088 3109 3444 
Q 3109 3797 2882 3972 
Q 2656 4147 2194 4147 
L 1259 4147 
z
M 628 4666 
L 2241 4666 
Q 2963 4666 3353 4366 
Q 3744 4066 3744 3513 
Q 3744 3084 3544 2831 
Q 3344 2578 2956 2516 
Q 3422 2416 3680 2098 
Q 3938 1781 3938 1306 
Q 3938 681 3513 340 
Q 3088 0 2303 0 
L 628 0 
L 628 4666 
z
" transform="scale(0.015625)"/>
       <path id="DejaVuSans-66" d="M 2375 4863 
L 2375 4384 
L 1825 4384 
Q 1516 4384 1395 4259 
Q 1275 4134 1275 3809 
L 1275 3500 
L 2222 3500 
L 2222 3053 
L 1275 3053 
L 1275 0 
L 697 0 
L 697 3053 
L 147 3053 
L 147 3500 
L 697 3500 
L 697 3744 
Q 697 4328 969 4595 
Q 1241 4863 1831 4863 
L 2375 4863 
z
" transform="scale(0.015625)"/>
       <path id="DejaVuSans-6d" d="M 3328 2828 
Q 3544 3216 3844 3400 
Q 4144 3584 4550 3584 
Q 5097 3584 5394 3201 
Q 5691 2819 5691 2113 
L 5691 0 
L 5113 0 
L 5113 2094 
Q 5113 2597 4934 2840 
Q 4756 3084 4391 3084 
Q 3944 3084 3684 2787 
Q 3425 2491 3425 1978 
L 3425 0 
L 2847 0 
L 2847 2094 
Q 2847 2600 2669 2842 
Q 2491 3084 2119 3084 
Q 1678 3084 1418 2786 
Q 1159 2488 1159 1978 
L 1159 0 
L 581 0 
L 581 3500 
L 1159 3500 
L 1159 2956 
Q 1356 3278 1631 3431 
Q 1906 3584 2284 3584 
Q 2666 3584 2933 3390 
Q 3200 3197 3328 2828 
z
" transform="scale(0.015625)"/>
      </defs>
      <use xlink:href="#DejaVuSans-42"/>
      <use xlink:href="#DejaVuSans-61" x="68.603516"/>
      <use xlink:href="#DejaVuSans-67" x="129.882812"/>
      <use xlink:href="#DejaVuSans-20" x="193.359375"/>
      <use xlink:href="#DejaVuSans-6f" x="225.146484"/>
      <use xlink:href="#DejaVuSans-66" x="286.328125"/>
      <use xlink:href="#DejaVuSans-20" x="321.533203"/>
      <use xlink:href="#DejaVuSans-6d" x="353.320312"/>
      <use xlink:href="#DejaVuSans-6f" x="450.732422"/>
      <use xlink:href="#DejaVuSans-6c" x="511.914062"/>
      <use xlink:href="#DejaVuSans-65" x="539.697266"/>
      <use xlink:href="#DejaVuSans-63" x="601.220703"/>
      <use xlink:href="#DejaVuSans-75" x="656.201172"/>
      <use xlink:href="#DejaVuSans-6c" x="719.580078"/>
      <use xlink:href="#DejaVuSans-65" x="747.363281"/>
      <use xlink:href="#DejaVuSans-73" x="808.886719"/>
     </g>
    </g>
    <g id="line2d_24">
     <path d="M 188.987891 147.405963 
L 200.987891 147.405963 
L 212.987891 147.405963 
" style="fill: none; stroke: #8b4513; stroke-width: 1.5; stroke-linecap: square"/>
    </g>
    <g id="text_18">
     <!-- CGR -->
     <g transform="translate(222.587891 151.605963) scale(0.12 -0.12)">
      <defs>
       <path id="DejaVuSans-47" d="M 3809 666 
L 3809 1919 
L 2778 1919 
L 2778 2438 
L 4434 2438 
L 4434 434 
Q 4069 175 3628 42 
Q 3188 -91 2688 -91 
Q 1594 -91 976 548 
Q 359 1188 359 2328 
Q 359 3472 976 4111 
Q 1594 4750 2688 4750 
Q 3144 4750 3555 4637 
Q 3966 4525 4313 4306 
L 4313 3634 
Q 3963 3931 3569 4081 
Q 3175 4231 2741 4231 
Q 1884 4231 1454 3753 
Q 1025 3275 1025 2328 
Q 1025 1384 1454 906 
Q 1884 428 2741 428 
Q 3075 428 3337 486 
Q 3600 544 3809 666 
z
" transform="scale(0.015625)"/>
      </defs>
      <use xlink:href="#DejaVuSans-43"/>
      <use xlink:href="#DejaVuSans-47" x="69.824219"/>
      <use xlink:href="#DejaVuSans-52" x="147.314453"/>
     </g>
    </g>
    <g id="line2d_25">
     <path d="M 188.987891 165.019713 
L 200.987891 165.019713 
L 212.987891 165.019713 
" style="fill: none; stroke: #800000; stroke-width: 1.5; stroke-linecap: square"/>
    </g>
    <g id="text_19">
     <!-- CLIPZyme -->
     <g transform="translate(222.587891 169.219713) scale(0.12 -0.12)">
      <defs>
       <path id="DejaVuSans-4c" d="M 628 4666 
L 1259 4666 
L 1259 531 
L 3531 531 
L 3531 0 
L 628 0 
L 628 4666 
z
" transform="scale(0.015625)"/>
       <path id="DejaVuSans-49" d="M 628 4666 
L 1259 4666 
L 1259 0 
L 628 0 
L 628 4666 
z
" transform="scale(0.015625)"/>
       <path id="DejaVuSans-50" d="M 1259 4147 
L 1259 2394 
L 2053 2394 
Q 2494 2394 2734 2622 
Q 2975 2850 2975 3272 
Q 2975 3691 2734 3919 
Q 2494 4147 2053 4147 
L 1259 4147 
z
M 628 4666 
L 2053 4666 
Q 2838 4666 3239 4311 
Q 3641 3956 3641 3272 
Q 3641 2581 3239 2228 
Q 2838 1875 2053 1875 
L 1259 1875 
L 1259 0 
L 628 0 
L 628 4666 
z
" transform="scale(0.015625)"/>
       <path id="DejaVuSans-5a" d="M 359 4666 
L 4025 4666 
L 4025 4184 
L 1075 531 
L 4097 531 
L 4097 0 
L 288 0 
L 288 481 
L 3238 4134 
L 359 4134 
L 359 4666 
z
" transform="scale(0.015625)"/>
       <path id="DejaVuSans-79" d="M 2059 -325 
Q 1816 -950 1584 -1140 
Q 1353 -1331 966 -1331 
L 506 -1331 
L 506 -850 
L 844 -850 
Q 1081 -850 1212 -737 
Q 1344 -625 1503 -206 
L 1606 56 
L 191 3500 
L 800 3500 
L 1894 763 
L 2988 3500 
L 3597 3500 
L 2059 -325 
z
" transform="scale(0.015625)"/>
      </defs>
      <use xlink:href="#DejaVuSans-43"/>
      <use xlink:href="#DejaVuSans-4c" x="69.824219"/>
      <use xlink:href="#DejaVuSans-49" x="125.537109"/>
      <use xlink:href="#DejaVuSans-50" x="155.029297"/>
      <use xlink:href="#DejaVuSans-5a" x="215.332031"/>
      <use xlink:href="#DejaVuSans-79" x="283.837891"/>
      <use xlink:href="#DejaVuSans-6d" x="343.017578"/>
      <use xlink:href="#DejaVuSans-65" x="440.429688"/>
     </g>
    </g>
    <g id="line2d_26">
     <path d="M 188.987891 182.633463 
L 200.987891 182.633463 
L 212.987891 182.633463 
" style="fill: none; stroke: #696969; stroke-width: 1.5; stroke-linecap: square"/>
    </g>
    <g id="text_20">
     <!-- DRFP -->
     <g transform="translate(222.587891 186.833463) scale(0.12 -0.12)">
      <defs>
       <path id="DejaVuSans-44" d="M 1259 4147 
L 1259 519 
L 2022 519 
Q 2988 519 3436 956 
Q 3884 1394 3884 2338 
Q 3884 3275 3436 3711 
Q 2988 4147 2022 4147 
L 1259 4147 
z
M 628 4666 
L 1925 4666 
Q 3281 4666 3915 4102 
Q 4550 3538 4550 2338 
Q 4550 1131 3912 565 
Q 3275 0 1925 0 
L 628 0 
L 628 4666 
z
" transform="scale(0.015625)"/>
      </defs>
      <use xlink:href="#DejaVuSans-44"/>
      <use xlink:href="#DejaVuSans-52" x="77.001953"/>
      <use xlink:href="#DejaVuSans-46" x="146.484375"/>
      <use xlink:href="#DejaVuSans-50" x="204.003906"/>
     </g>
    </g>
    <g id="line2d_27">
     <path d="M 188.987891 200.247213 
L 200.987891 200.247213 
L 212.987891 200.247213 
" style="fill: none; stroke: #000000; stroke-width: 1.5; stroke-linecap: square"/>
    </g>
    <g id="text_21">
     <!-- Morgan fingerprint -->
     <g transform="translate(222.587891 204.447213) scale(0.12 -0.12)">
      <defs>
       <path id="DejaVuSans-4d" d="M 628 4666 
L 1569 4666 
L 2759 1491 
L 3956 4666 
L 4897 4666 
L 4897 0 
L 4281 0 
L 4281 4097 
L 3078 897 
L 2444 897 
L 1241 4097 
L 1241 0 
L 628 0 
L 628 4666 
z
" transform="scale(0.015625)"/>
      </defs>
      <use xlink:href="#DejaVuSans-4d"/>
      <use xlink:href="#DejaVuSans-6f" x="86.279297"/>
      <use xlink:href="#DejaVuSans-72" x="147.460938"/>
      <use xlink:href="#DejaVuSans-67" x="186.824219"/>
      <use xlink:href="#DejaVuSans-61" x="250.300781"/>
      <use xlink:href="#DejaVuSans-6e" x="311.580078"/>
      <use xlink:href="#DejaVuSans-20" x="374.958984"/>
      <use xlink:href="#DejaVuSans-66" x="406.746094"/>
      <use xlink:href="#DejaVuSans-69" x="441.951172"/>
      <use xlink:href="#DejaVuSans-6e" x="469.734375"/>
      <use xlink:href="#DejaVuSans-67" x="533.113281"/>
      <use xlink:href="#DejaVuSans-65" x="596.589844"/>
      <use xlink:href="#DejaVuSans-72" x="658.113281"/>
      <use xlink:href="#DejaVuSans-70" x="699.226562"/>
      <use xlink:href="#DejaVuSans-72" x="762.703125"/>
      <use xlink:href="#DejaVuSans-69" x="803.816406"/>
      <use xlink:href="#DejaVuSans-6e" x="831.599609"/>
      <use xlink:href="#DejaVuSans-74" x="894.978516"/>
     </g>
    </g>
    <g id="line2d_28">
     <path d="M 188.987891 217.860963 
L 200.987891 217.860963 
L 212.987891 217.860963 
" style="fill: none; stroke: #c0c0c0; stroke-width: 1.5; stroke-linecap: square"/>
    </g>
    <g id="text_22">
     <!-- RXNFP -->
     <g transform="translate(222.587891 222.060963) scale(0.12 -0.12)">
      <defs>
       <path id="DejaVuSans-58" d="M 403 4666 
L 1081 4666 
L 2241 2931 
L 3406 4666 
L 4084 4666 
L 2584 2425 
L 4184 0 
L 3506 0 
L 2194 1984 
L 872 0 
L 191 0 
L 1856 2491 
L 403 4666 
z
" transform="scale(0.015625)"/>
       <path id="DejaVuSans-4e" d="M 628 4666 
L 1478 4666 
L 3547 763 
L 3547 4666 
L 4159 4666 
L 4159 0 
L 3309 0 
L 1241 3903 
L 1241 0 
L 628 0 
L 628 4666 
z
" transform="scale(0.015625)"/>
      </defs>
      <use xlink:href="#DejaVuSans-52"/>
      <use xlink:href="#DejaVuSans-58" x="69.482422"/>
      <use xlink:href="#DejaVuSans-4e" x="137.988281"/>
      <use xlink:href="#DejaVuSans-46" x="212.792969"/>
      <use xlink:href="#DejaVuSans-50" x="270.3125"/>
     </g>
    </g>
   </g>
  </g>
  <g id="axes_2">
   <g id="patch_8">
    <path d="M 421.419609 235.356588 
L 704.88 235.356588 
L 704.88 20.52 
L 421.419609 20.52 
z
" style="fill: #ffffff"/>
   </g>
   <g id="patch_9">
    <path d="M 434.304172 450.193176 
L 459.242037 450.193176 
L 459.242037 25.711817 
L 434.304172 25.711817 
z
" clip-path="url(#p1bb92e651a)" style="fill: #800080"/>
   </g>
   <g id="patch_10">
    <path d="M 467.554658 450.193176 
L 492.492522 450.193176 
L 492.492522 28.589388 
L 467.554658 28.589388 
z
" clip-path="url(#p1bb92e651a)" style="fill: #228b22"/>
   </g>
   <g id="patch_11">
    <path d="M 500.805144 450.193176 
L 525.743008 450.193176 
L 525.743008 36.251728 
L 500.805144 36.251728 
z
" clip-path="url(#p1bb92e651a)" style="fill: #0000cd"/>
   </g>
   <g id="patch_12">
    <path d="M 534.05563 450.193176 
L 558.993494 450.193176 
L 558.993494 28.219927 
L 534.05563 28.219927 
z
" clip-path="url(#p1bb92e651a)" style="fill: #8b4513"/>
   </g>
   <g id="patch_13">
    <path d="M 567.306115 450.193176 
L 592.24398 450.193176 
L 592.24398 54.57317 
L 567.306115 54.57317 
z
" clip-path="url(#p1bb92e651a)" style="fill: #800000"/>
   </g>
   <g id="patch_14">
    <path d="M 600.556601 450.193176 
L 625.494465 450.193176 
L 625.494465 77.951298 
L 600.556601 77.951298 
z
" clip-path="url(#p1bb92e651a)" style="fill: #696969"/>
   </g>
   <g id="patch_15">
    <path d="M 633.807087 450.193176 
L 658.744951 450.193176 
L 658.744951 73.32575 
L 633.807087 73.32575 
z
" clip-path="url(#p1bb92e651a)"/>
   </g>
   <g id="patch_16">
    <path d="M 667.057572 450.193176 
L 691.995437 450.193176 
L 691.995437 132.327041 
L 667.057572 132.327041 
z
" clip-path="url(#p1bb92e651a)" style="fill: #c0c0c0"/>
   </g>
   <g id="matplotlib.axis_3">
    <g id="xtick_7">
     <g id="line2d_29">
      <g>
       <use xlink:href="#m504dd06540" x="446.773105" y="235.356588" style="stroke: #000000; stroke-width: 0.8"/>
      </g>
     </g>
     <g id="text_23">
      <!-- RC aggregated -->
      <g transform="translate(371.089919 323.503057) rotate(-45) scale(0.14 -0.14)">
       <use xlink:href="#DejaVuSans-52"/>
       <use xlink:href="#DejaVuSans-43" x="64.482422"/>
       <use xlink:href="#DejaVuSans-20" x="134.306641"/>
       <use xlink:href="#DejaVuSans-61" x="166.09375"/>
       <use xlink:href="#DejaVuSans-67" x="227.373047"/>
       <use xlink:href="#DejaVuSans-67" x="290.849609"/>
       <use xlink:href="#DejaVuSans-72" x="354.326172"/>
       <use xlink:href="#DejaVuSans-65" x="393.189453"/>
       <use xlink:href="#DejaVuSans-67" x="454.712891"/>
       <use xlink:href="#DejaVuSans-61" x="518.189453"/>
       <use xlink:href="#DejaVuSans-74" x="579.46875"/>
       <use xlink:href="#DejaVuSans-65" x="618.677734"/>
       <use xlink:href="#DejaVuSans-64" x="680.201172"/>
      </g>
     </g>
    </g>
    <g id="xtick_8">
     <g id="line2d_30">
      <g>
       <use xlink:href="#m504dd06540" x="480.02359" y="235.356588" style="stroke: #000000; stroke-width: 0.8"/>
      </g>
     </g>
     <g id="text_24">
      <!-- RC connected -->
      <g transform="translate(409.683038 318.160423) rotate(-45) scale(0.14 -0.14)">
       <use xlink:href="#DejaVuSans-52"/>
       <use xlink:href="#DejaVuSans-43" x="64.482422"/>
       <use xlink:href="#DejaVuSans-20" x="134.306641"/>
       <use xlink:href="#DejaVuSans-63" x="166.09375"/>
       <use xlink:href="#DejaVuSans-6f" x="221.074219"/>
       <use xlink:href="#DejaVuSans-6e" x="282.255859"/>
       <use xlink:href="#DejaVuSans-6e" x="345.634766"/>
       <use xlink:href="#DejaVuSans-65" x="409.013672"/>
       <use xlink:href="#DejaVuSans-63" x="470.537109"/>
       <use xlink:href="#DejaVuSans-74" x="525.517578"/>
       <use xlink:href="#DejaVuSans-65" x="564.726562"/>
       <use xlink:href="#DejaVuSans-64" x="626.25"/>
      </g>
     </g>
    </g>
    <g id="xtick_9">
     <g id="line2d_31">
      <g>
       <use xlink:href="#m504dd06540" x="513.274076" y="235.356588" style="stroke: #000000; stroke-width: 0.8"/>
      </g>
     </g>
     <g id="text_25">
      <!-- Bag of molecules -->
      <g transform="translate(425.980639 335.113309) rotate(-45) scale(0.14 -0.14)">
       <use xlink:href="#DejaVuSans-42"/>
       <use xlink:href="#DejaVuSans-61" x="68.603516"/>
       <use xlink:href="#DejaVuSans-67" x="129.882812"/>
       <use xlink:href="#DejaVuSans-20" x="193.359375"/>
       <use xlink:href="#DejaVuSans-6f" x="225.146484"/>
       <use xlink:href="#DejaVuSans-66" x="286.328125"/>
       <use xlink:href="#DejaVuSans-20" x="321.533203"/>
       <use xlink:href="#DejaVuSans-6d" x="353.320312"/>
       <use xlink:href="#DejaVuSans-6f" x="450.732422"/>
       <use xlink:href="#DejaVuSans-6c" x="511.914062"/>
       <use xlink:href="#DejaVuSans-65" x="539.697266"/>
       <use xlink:href="#DejaVuSans-63" x="601.220703"/>
       <use xlink:href="#DejaVuSans-75" x="656.201172"/>
       <use xlink:href="#DejaVuSans-6c" x="719.580078"/>
       <use xlink:href="#DejaVuSans-65" x="747.363281"/>
       <use xlink:href="#DejaVuSans-73" x="808.886719"/>
      </g>
     </g>
    </g>
    <g id="xtick_10">
     <g id="line2d_32">
      <g>
       <use xlink:href="#m504dd06540" x="546.524562" y="235.356588" style="stroke: #000000; stroke-width: 0.8"/>
      </g>
     </g>
     <g id="text_26">
      <!-- CGR -->
      <g transform="translate(523.00398 271.340453) rotate(-45) scale(0.14 -0.14)">
       <use xlink:href="#DejaVuSans-43"/>
       <use xlink:href="#DejaVuSans-47" x="69.824219"/>
       <use xlink:href="#DejaVuSans-52" x="147.314453"/>
      </g>
     </g>
    </g>
    <g id="xtick_11">
     <g id="line2d_33">
      <g>
       <use xlink:href="#m504dd06540" x="579.775047" y="235.356588" style="stroke: #000000; stroke-width: 0.8"/>
      </g>
     </g>
     <g id="text_27">
      <!-- CLIPZyme -->
      <g transform="translate(528.023891 299.571028) rotate(-45) scale(0.14 -0.14)">
       <use xlink:href="#DejaVuSans-43"/>
       <use xlink:href="#DejaVuSans-4c" x="69.824219"/>
       <use xlink:href="#DejaVuSans-49" x="125.537109"/>
       <use xlink:href="#DejaVuSans-50" x="155.029297"/>
       <use xlink:href="#DejaVuSans-5a" x="215.332031"/>
       <use xlink:href="#DejaVuSans-79" x="283.837891"/>
       <use xlink:href="#DejaVuSans-6d" x="343.017578"/>
       <use xlink:href="#DejaVuSans-65" x="440.429688"/>
      </g>
     </g>
    </g>
    <g id="xtick_12">
     <g id="line2d_34">
      <g>
       <use xlink:href="#m504dd06540" x="613.025533" y="235.356588" style="stroke: #000000; stroke-width: 0.8"/>
      </g>
     </g>
     <g id="text_28">
      <!-- DRFP -->
      <g transform="translate(584.802692 276.042713) rotate(-45) scale(0.14 -0.14)">
       <use xlink:href="#DejaVuSans-44"/>
       <use xlink:href="#DejaVuSans-52" x="77.001953"/>
       <use xlink:href="#DejaVuSans-46" x="146.484375"/>
       <use xlink:href="#DejaVuSans-50" x="204.003906"/>
      </g>
     </g>
    </g>
    <g id="xtick_13">
     <g id="line2d_35">
      <g>
       <use xlink:href="#m504dd06540" x="646.276019" y="235.356588" style="stroke: #000000; stroke-width: 0.8"/>
      </g>
     </g>
     <g id="text_29">
      <!-- Morgan fingerprint -->
      <g transform="translate(551.737389 342.358501) rotate(-45) scale(0.14 -0.14)">
       <use xlink:href="#DejaVuSans-4d"/>
       <use xlink:href="#DejaVuSans-6f" x="86.279297"/>
       <use xlink:href="#DejaVuSans-72" x="147.460938"/>
       <use xlink:href="#DejaVuSans-67" x="186.824219"/>
       <use xlink:href="#DejaVuSans-61" x="250.300781"/>
       <use xlink:href="#DejaVuSans-6e" x="311.580078"/>
       <use xlink:href="#DejaVuSans-20" x="374.958984"/>
       <use xlink:href="#DejaVuSans-66" x="406.746094"/>
       <use xlink:href="#DejaVuSans-69" x="441.951172"/>
       <use xlink:href="#DejaVuSans-6e" x="469.734375"/>
       <use xlink:href="#DejaVuSans-67" x="533.113281"/>
       <use xlink:href="#DejaVuSans-65" x="596.589844"/>
       <use xlink:href="#DejaVuSans-72" x="658.113281"/>
       <use xlink:href="#DejaVuSans-70" x="699.226562"/>
       <use xlink:href="#DejaVuSans-72" x="762.703125"/>
       <use xlink:href="#DejaVuSans-69" x="803.816406"/>
       <use xlink:href="#DejaVuSans-6e" x="831.599609"/>
       <use xlink:href="#DejaVuSans-74" x="894.978516"/>
      </g>
     </g>
    </g>
    <g id="xtick_14">
     <g id="line2d_36">
      <g>
       <use xlink:href="#m504dd06540" x="679.526505" y="235.356588" style="stroke: #000000; stroke-width: 0.8"/>
      </g>
     </g>
     <g id="text_30">
      <!-- RXNFP -->
      <g transform="translate(644.739061 282.607315) rotate(-45) scale(0.14 -0.14)">
       <use xlink:href="#DejaVuSans-52"/>
       <use xlink:href="#DejaVuSans-58" x="69.482422"/>
       <use xlink:href="#DejaVuSans-4e" x="137.988281"/>
       <use xlink:href="#DejaVuSans-46" x="212.792969"/>
       <use xlink:href="#DejaVuSans-50" x="270.3125"/>
      </g>
     </g>
    </g>
   </g>
   <g id="matplotlib.axis_4">
    <g id="ytick_7">
     <g id="line2d_37">
      <g>
       <use xlink:href="#m6fdafffd8c" x="421.419609" y="235.356588" style="stroke: #000000; stroke-width: 0.8"/>
      </g>
     </g>
     <g id="text_31">
      <!-- 0.5 -->
      <g transform="translate(392.155234 240.675494) scale(0.14 -0.14)">
       <defs>
        <path id="DejaVuSans-35" d="M 691 4666 
L 3169 4666 
L 3169 4134 
L 1269 4134 
L 1269 2991 
Q 1406 3038 1543 3061 
Q 1681 3084 1819 3084 
Q 2600 3084 3056 2656 
Q 3513 2228 3513 1497 
Q 3513 744 3044 326 
Q 2575 -91 1722 -91 
Q 1428 -91 1123 -41 
Q 819 9 494 109 
L 494 744 
Q 775 591 1075 516 
Q 1375 441 1709 441 
Q 2250 441 2565 725 
Q 2881 1009 2881 1497 
Q 2881 1984 2565 2268 
Q 2250 2553 1709 2553 
Q 1456 2553 1204 2497 
Q 953 2441 691 2322 
L 691 4666 
z
" transform="scale(0.015625)"/>
       </defs>
       <use xlink:href="#DejaVuSans-30"/>
       <use xlink:href="#DejaVuSans-2e" x="63.623047"/>
       <use xlink:href="#DejaVuSans-35" x="95.410156"/>
      </g>
     </g>
    </g>
    <g id="ytick_8">
     <g id="line2d_38">
      <g>
       <use xlink:href="#m6fdafffd8c" x="421.419609" y="192.38927" style="stroke: #000000; stroke-width: 0.8"/>
      </g>
     </g>
     <g id="text_32">
      <!-- 0.6 -->
      <g transform="translate(392.155234 197.708176) scale(0.14 -0.14)">
       <use xlink:href="#DejaVuSans-30"/>
       <use xlink:href="#DejaVuSans-2e" x="63.623047"/>
       <use xlink:href="#DejaVuSans-36" x="95.410156"/>
      </g>
     </g>
    </g>
    <g id="ytick_9">
     <g id="line2d_39">
      <g>
       <use xlink:href="#m6fdafffd8c" x="421.419609" y="149.421953" style="stroke: #000000; stroke-width: 0.8"/>
      </g>
     </g>
     <g id="text_33">
      <!-- 0.7 -->
      <g transform="translate(392.155234 154.740859) scale(0.14 -0.14)">
       <defs>
        <path id="DejaVuSans-37" d="M 525 4666 
L 3525 4666 
L 3525 4397 
L 1831 0 
L 1172 0 
L 2766 4134 
L 525 4134 
L 525 4666 
z
" transform="scale(0.015625)"/>
       </defs>
       <use xlink:href="#DejaVuSans-30"/>
       <use xlink:href="#DejaVuSans-2e" x="63.623047"/>
       <use xlink:href="#DejaVuSans-37" x="95.410156"/>
      </g>
     </g>
    </g>
    <g id="ytick_10">
     <g id="line2d_40">
      <g>
       <use xlink:href="#m6fdafffd8c" x="421.419609" y="106.454635" style="stroke: #000000; stroke-width: 0.8"/>
      </g>
     </g>
     <g id="text_34">
      <!-- 0.8 -->
      <g transform="translate(392.155234 111.773541) scale(0.14 -0.14)">
       <use xlink:href="#DejaVuSans-30"/>
       <use xlink:href="#DejaVuSans-2e" x="63.623047"/>
       <use xlink:href="#DejaVuSans-38" x="95.410156"/>
      </g>
     </g>
    </g>
    <g id="ytick_11">
     <g id="line2d_41">
      <g>
       <use xlink:href="#m6fdafffd8c" x="421.419609" y="63.487318" style="stroke: #000000; stroke-width: 0.8"/>
      </g>
     </g>
     <g id="text_35">
      <!-- 0.9 -->
      <g transform="translate(392.155234 68.806224) scale(0.14 -0.14)">
       <defs>
        <path id="DejaVuSans-39" d="M 703 97 
L 703 672 
Q 941 559 1184 500 
Q 1428 441 1663 441 
Q 2288 441 2617 861 
Q 2947 1281 2994 2138 
Q 2813 1869 2534 1725 
Q 2256 1581 1919 1581 
Q 1219 1581 811 2004 
Q 403 2428 403 3163 
Q 403 3881 828 4315 
Q 1253 4750 1959 4750 
Q 2769 4750 3195 4129 
Q 3622 3509 3622 2328 
Q 3622 1225 3098 567 
Q 2575 -91 1691 -91 
Q 1453 -91 1209 -44 
Q 966 3 703 97 
z
M 1959 2075 
Q 2384 2075 2632 2365 
Q 2881 2656 2881 3163 
Q 2881 3666 2632 3958 
Q 2384 4250 1959 4250 
Q 1534 4250 1286 3958 
Q 1038 3666 1038 3163 
Q 1038 2656 1286 2365 
Q 1534 2075 1959 2075 
z
" transform="scale(0.015625)"/>
       </defs>
       <use xlink:href="#DejaVuSans-30"/>
       <use xlink:href="#DejaVuSans-2e" x="63.623047"/>
       <use xlink:href="#DejaVuSans-39" x="95.410156"/>
      </g>
     </g>
    </g>
    <g id="ytick_12">
     <g id="line2d_42">
      <g>
       <use xlink:href="#m6fdafffd8c" x="421.419609" y="20.52" style="stroke: #000000; stroke-width: 0.8"/>
      </g>
     </g>
     <g id="text_36">
      <!-- 1.0 -->
      <g transform="translate(392.155234 25.838906) scale(0.14 -0.14)">
       <use xlink:href="#DejaVuSans-31"/>
       <use xlink:href="#DejaVuSans-2e" x="63.623047"/>
       <use xlink:href="#DejaVuSans-30" x="95.410156"/>
      </g>
     </g>
    </g>
    <g id="text_37">
     <!-- ROC-AUC -->
     <g transform="translate(385.243672 160.367981) rotate(-90) scale(0.14 -0.14)">
      <defs>
       <path id="DejaVuSans-4f" d="M 2522 4238 
Q 1834 4238 1429 3725 
Q 1025 3213 1025 2328 
Q 1025 1447 1429 934 
Q 1834 422 2522 422 
Q 3209 422 3611 934 
Q 4013 1447 4013 2328 
Q 4013 3213 3611 3725 
Q 3209 4238 2522 4238 
z
M 2522 4750 
Q 3503 4750 4090 4092 
Q 4678 3434 4678 2328 
Q 4678 1225 4090 567 
Q 3503 -91 2522 -91 
Q 1538 -91 948 565 
Q 359 1222 359 2328 
Q 359 3434 948 4092 
Q 1538 4750 2522 4750 
z
" transform="scale(0.015625)"/>
       <path id="DejaVuSans-2d" d="M 313 2009 
L 1997 2009 
L 1997 1497 
L 313 1497 
L 313 2009 
z
" transform="scale(0.015625)"/>
       <path id="DejaVuSans-41" d="M 2188 4044 
L 1331 1722 
L 3047 1722 
L 2188 4044 
z
M 1831 4666 
L 2547 4666 
L 4325 0 
L 3669 0 
L 3244 1197 
L 1141 1197 
L 716 0 
L 50 0 
L 1831 4666 
z
" transform="scale(0.015625)"/>
       <path id="DejaVuSans-55" d="M 556 4666 
L 1191 4666 
L 1191 1831 
Q 1191 1081 1462 751 
Q 1734 422 2344 422 
Q 2950 422 3222 751 
Q 3494 1081 3494 1831 
L 3494 4666 
L 4128 4666 
L 4128 1753 
Q 4128 841 3676 375 
Q 3225 -91 2344 -91 
Q 1459 -91 1007 375 
Q 556 841 556 1753 
L 556 4666 
z
" transform="scale(0.015625)"/>
      </defs>
      <use xlink:href="#DejaVuSans-52"/>
      <use xlink:href="#DejaVuSans-4f" x="69.482422"/>
      <use xlink:href="#DejaVuSans-43" x="148.193359"/>
      <use xlink:href="#DejaVuSans-2d" x="218.017578"/>
      <use xlink:href="#DejaVuSans-41" x="251.851562"/>
      <use xlink:href="#DejaVuSans-55" x="320.259766"/>
      <use xlink:href="#DejaVuSans-43" x="393.453125"/>
     </g>
    </g>
   </g>
   <g id="LineCollection_1">
    <path d="M 446.773105 26.050337 
L 446.773105 25.369633 
" clip-path="url(#p1bb92e651a)" style="fill: none; stroke: #000000; stroke-width: 1.5"/>
   </g>
   <g id="LineCollection_2">
    <path d="M 480.02359 29.166618 
L 480.02359 27.941363 
" clip-path="url(#p1bb92e651a)" style="fill: none; stroke: #000000; stroke-width: 1.5"/>
   </g>
   <g id="LineCollection_3">
    <path d="M 513.274076 36.807738 
L 513.274076 35.6446 
" clip-path="url(#p1bb92e651a)" style="fill: none; stroke: #000000; stroke-width: 1.5"/>
   </g>
   <g id="LineCollection_4">
    <path d="M 546.524562 28.656462 
L 546.524562 27.74955 
" clip-path="url(#p1bb92e651a)" style="fill: none; stroke: #000000; stroke-width: 1.5"/>
   </g>
   <g id="LineCollection_5">
    <path d="M 579.775047 55.445486 
L 579.775047 53.638266 
" clip-path="url(#p1bb92e651a)" style="fill: none; stroke: #000000; stroke-width: 1.5"/>
   </g>
   <g id="LineCollection_6">
    <path d="M 613.025533 79.046237 
L 613.025533 76.606646 
" clip-path="url(#p1bb92e651a)" style="fill: none; stroke: #000000; stroke-width: 1.5"/>
   </g>
   <g id="LineCollection_7">
    <path d="M 646.276019 74.39659 
L 646.276019 72.245321 
" clip-path="url(#p1bb92e651a)" style="fill: none; stroke: #000000; stroke-width: 1.5"/>
   </g>
   <g id="LineCollection_8">
    <path d="M 679.526505 133.351628 
L 679.526505 130.40393 
" clip-path="url(#p1bb92e651a)" style="fill: none; stroke: #000000; stroke-width: 1.5"/>
   </g>
   <g id="patch_17">
    <path d="M 421.419609 235.356588 
L 421.419609 20.52 
" style="fill: none; stroke: #000000; stroke-width: 0.8; stroke-linejoin: miter; stroke-linecap: square"/>
   </g>
   <g id="patch_18">
    <path d="M 704.88 235.356588 
L 704.88 20.52 
" style="fill: none; stroke: #000000; stroke-width: 0.8; stroke-linejoin: miter; stroke-linecap: square"/>
   </g>
   <g id="patch_19">
    <path d="M 421.419609 235.356588 
L 704.88 235.356588 
" style="fill: none; stroke: #000000; stroke-width: 0.8; stroke-linejoin: miter; stroke-linecap: square"/>
   </g>
   <g id="patch_20">
    <path d="M 421.419609 20.52 
L 704.88 20.52 
" style="fill: none; stroke: #000000; stroke-width: 0.8; stroke-linejoin: miter; stroke-linecap: square"/>
   </g>
  </g>
 </g>
 <defs>
  <clipPath id="pc564935a67">
   <rect x="62.03" y="20.52" width="283.460391" height="214.836588"/>
  </clipPath>
  <clipPath id="p1bb92e651a">
   <rect x="421.419609" y="20.52" width="283.460391" height="214.836588"/>
  </clipPath>
 </defs>
</svg>
