<?xml version="1.0" encoding="utf-8" standalone="no"?>
<!DOCTYPE svg PUBLIC "-//W3C//DTD SVG 1.1//EN"
  "http://www.w3.org/Graphics/SVG/1.1/DTD/svg11.dtd">
<svg xmlns:xlink="http://www.w3.org/1999/xlink" width="460.8pt" height="345.6pt" viewBox="0 0 460.8 345.6" xmlns="http://www.w3.org/2000/svg" version="1.1">
 <metadata>
  <rdf:RDF xmlns:dc="http://purl.org/dc/elements/1.1/" xmlns:cc="http://creativecommons.org/ns#" xmlns:rdf="http://www.w3.org/1999/02/22-rdf-syntax-ns#">
   <cc:Work>
    <dc:type rdf:resource="http://purl.org/dc/dcmitype/StillImage"/>
    <dc:date>2025-02-17T13:57:52.416989</dc:date>
    <dc:format>image/svg+xml</dc:format>
    <dc:creator>
     <cc:Agent>
      <dc:title>Matplotlib v3.8.4, https://matplotlib.org/</dc:title>
     </cc:Agent>
    </dc:creator>
   </cc:Work>
  </rdf:RDF>
 </metadata>
 <defs>
  <style type="text/css">*{stroke-linejoin: round; stroke-linecap: butt}</style>
 </defs>
 <g id="figure_1">
  <g id="patch_1">
   <path d="M 0 345.6 
L 460.8 345.6 
L 460.8 0 
L 0 0 
z
" style="fill: #ffffff"/>
  </g>
  <g id="axes_1">
   <g id="patch_2">
    <path d="M 57.6 307.584 
L 414.72 307.584 
L 414.72 41.472 
L 57.6 41.472 
z
" style="fill: #ffffff"/>
   </g>
   <g id="matplotlib.axis_1">
    <g id="xtick_1">
     <g id="line2d_1">
      <defs>
       <path id="m09da9bcb82" d="M 0 0 
L 0 3.5 
" style="stroke: #000000; stroke-width: 0.8"/>
      </defs>
      <g>
       <use xlink:href="#m09da9bcb82" x="73.832727" y="307.584" style="stroke: #000000; stroke-width: 0.8"/>
      </g>
     </g>
     <g id="text_1">
      <!-- 0.0 -->
      <g transform="translate(65.881165 322.182437) scale(0.1 -0.1)">
       <defs>
        <path id="DejaVuSans-30" d="M 2034 4250 
Q 1547 4250 1301 3770 
Q 1056 3291 1056 2328 
Q 1056 1369 1301 889 
Q 1547 409 2034 409 
Q 2525 409 2770 889 
Q 3016 1369 3016 2328 
Q 3016 3291 2770 3770 
Q 2525 4250 2034 4250 
z
M 2034 4750 
Q 2819 4750 3233 4129 
Q 3647 3509 3647 2328 
Q 3647 1150 3233 529 
Q 2819 -91 2034 -91 
Q 1250 -91 836 529 
Q 422 1150 422 2328 
Q 422 3509 836 4129 
Q 1250 4750 2034 4750 
z
" transform="scale(0.015625)"/>
        <path id="DejaVuSans-2e" d="M 684 794 
L 1344 794 
L 1344 0 
L 684 0 
L 684 794 
z
" transform="scale(0.015625)"/>
       </defs>
       <use xlink:href="#DejaVuSans-30"/>
       <use xlink:href="#DejaVuSans-2e" x="63.623047"/>
       <use xlink:href="#DejaVuSans-30" x="95.410156"/>
      </g>
     </g>
    </g>
    <g id="xtick_2">
     <g id="line2d_2">
      <g>
       <use xlink:href="#m09da9bcb82" x="138.763636" y="307.584" style="stroke: #000000; stroke-width: 0.8"/>
      </g>
     </g>
     <g id="text_2">
      <!-- 0.2 -->
      <g transform="translate(130.812074 322.182437) scale(0.1 -0.1)">
       <defs>
        <path id="DejaVuSans-32" d="M 1228 531 
L 3431 531 
L 3431 0 
L 469 0 
L 469 531 
Q 828 903 1448 1529 
Q 2069 2156 2228 2338 
Q 2531 2678 2651 2914 
Q 2772 3150 2772 3378 
Q 2772 3750 2511 3984 
Q 2250 4219 1831 4219 
Q 1534 4219 1204 4116 
Q 875 4013 500 3803 
L 500 4441 
Q 881 4594 1212 4672 
Q 1544 4750 1819 4750 
Q 2544 4750 2975 4387 
Q 3406 4025 3406 3419 
Q 3406 3131 3298 2873 
Q 3191 2616 2906 2266 
Q 2828 2175 2409 1742 
Q 1991 1309 1228 531 
z
" transform="scale(0.015625)"/>
       </defs>
       <use xlink:href="#DejaVuSans-30"/>
       <use xlink:href="#DejaVuSans-2e" x="63.623047"/>
       <use xlink:href="#DejaVuSans-32" x="95.410156"/>
      </g>
     </g>
    </g>
    <g id="xtick_3">
     <g id="line2d_3">
      <g>
       <use xlink:href="#m09da9bcb82" x="203.694545" y="307.584" style="stroke: #000000; stroke-width: 0.8"/>
      </g>
     </g>
     <g id="text_3">
      <!-- 0.4 -->
      <g transform="translate(195.742983 322.182437) scale(0.1 -0.1)">
       <defs>
        <path id="DejaVuSans-34" d="M 2419 4116 
L 825 1625 
L 2419 1625 
L 2419 4116 
z
M 2253 4666 
L 3047 4666 
L 3047 1625 
L 3713 1625 
L 3713 1100 
L 3047 1100 
L 3047 0 
L 2419 0 
L 2419 1100 
L 313 1100 
L 313 1709 
L 2253 4666 
z
" transform="scale(0.015625)"/>
       </defs>
       <use xlink:href="#DejaVuSans-30"/>
       <use xlink:href="#DejaVuSans-2e" x="63.623047"/>
       <use xlink:href="#DejaVuSans-34" x="95.410156"/>
      </g>
     </g>
    </g>
    <g id="xtick_4">
     <g id="line2d_4">
      <g>
       <use xlink:href="#m09da9bcb82" x="268.625455" y="307.584" style="stroke: #000000; stroke-width: 0.8"/>
      </g>
     </g>
     <g id="text_4">
      <!-- 0.6 -->
      <g transform="translate(260.673892 322.182437) scale(0.1 -0.1)">
       <defs>
        <path id="DejaVuSans-36" d="M 2113 2584 
Q 1688 2584 1439 2293 
Q 1191 2003 1191 1497 
Q 1191 994 1439 701 
Q 1688 409 2113 409 
Q 2538 409 2786 701 
Q 3034 994 3034 1497 
Q 3034 2003 2786 2293 
Q 2538 2584 2113 2584 
z
M 3366 4563 
L 3366 3988 
Q 3128 4100 2886 4159 
Q 2644 4219 2406 4219 
Q 1781 4219 1451 3797 
Q 1122 3375 1075 2522 
Q 1259 2794 1537 2939 
Q 1816 3084 2150 3084 
Q 2853 3084 3261 2657 
Q 3669 2231 3669 1497 
Q 3669 778 3244 343 
Q 2819 -91 2113 -91 
Q 1303 -91 875 529 
Q 447 1150 447 2328 
Q 447 3434 972 4092 
Q 1497 4750 2381 4750 
Q 2619 4750 2861 4703 
Q 3103 4656 3366 4563 
z
" transform="scale(0.015625)"/>
       </defs>
       <use xlink:href="#DejaVuSans-30"/>
       <use xlink:href="#DejaVuSans-2e" x="63.623047"/>
       <use xlink:href="#DejaVuSans-36" x="95.410156"/>
      </g>
     </g>
    </g>
    <g id="xtick_5">
     <g id="line2d_5">
      <g>
       <use xlink:href="#m09da9bcb82" x="333.556364" y="307.584" style="stroke: #000000; stroke-width: 0.8"/>
      </g>
     </g>
     <g id="text_5">
      <!-- 0.8 -->
      <g transform="translate(325.604801 322.182437) scale(0.1 -0.1)">
       <defs>
        <path id="DejaVuSans-38" d="M 2034 2216 
Q 1584 2216 1326 1975 
Q 1069 1734 1069 1313 
Q 1069 891 1326 650 
Q 1584 409 2034 409 
Q 2484 409 2743 651 
Q 3003 894 3003 1313 
Q 3003 1734 2745 1975 
Q 2488 2216 2034 2216 
z
M 1403 2484 
Q 997 2584 770 2862 
Q 544 3141 544 3541 
Q 544 4100 942 4425 
Q 1341 4750 2034 4750 
Q 2731 4750 3128 4425 
Q 3525 4100 3525 3541 
Q 3525 3141 3298 2862 
Q 3072 2584 2669 2484 
Q 3125 2378 3379 2068 
Q 3634 1759 3634 1313 
Q 3634 634 3220 271 
Q 2806 -91 2034 -91 
Q 1263 -91 848 271 
Q 434 634 434 1313 
Q 434 1759 690 2068 
Q 947 2378 1403 2484 
z
M 1172 3481 
Q 1172 3119 1398 2916 
Q 1625 2713 2034 2713 
Q 2441 2713 2670 2916 
Q 2900 3119 2900 3481 
Q 2900 3844 2670 4047 
Q 2441 4250 2034 4250 
Q 1625 4250 1398 4047 
Q 1172 3844 1172 3481 
z
" transform="scale(0.015625)"/>
       </defs>
       <use xlink:href="#DejaVuSans-30"/>
       <use xlink:href="#DejaVuSans-2e" x="63.623047"/>
       <use xlink:href="#DejaVuSans-38" x="95.410156"/>
      </g>
     </g>
    </g>
    <g id="xtick_6">
     <g id="line2d_6">
      <g>
       <use xlink:href="#m09da9bcb82" x="398.487273" y="307.584" style="stroke: #000000; stroke-width: 0.8"/>
      </g>
     </g>
     <g id="text_6">
      <!-- 1.0 -->
      <g transform="translate(390.53571 322.182437) scale(0.1 -0.1)">
       <defs>
        <path id="DejaVuSans-31" d="M 794 531 
L 1825 531 
L 1825 4091 
L 703 3866 
L 703 4441 
L 1819 4666 
L 2450 4666 
L 2450 531 
L 3481 531 
L 3481 0 
L 794 0 
L 794 531 
z
" transform="scale(0.015625)"/>
       </defs>
       <use xlink:href="#DejaVuSans-31"/>
       <use xlink:href="#DejaVuSans-2e" x="63.623047"/>
       <use xlink:href="#DejaVuSans-30" x="95.410156"/>
      </g>
     </g>
    </g>
    <g id="text_7">
     <!-- False positive rate -->
     <g transform="translate(190.659219 335.860562) scale(0.1 -0.1)">
      <defs>
       <path id="DejaVuSans-46" d="M 628 4666 
L 3309 4666 
L 3309 4134 
L 1259 4134 
L 1259 2759 
L 3109 2759 
L 3109 2228 
L 1259 2228 
L 1259 0 
L 628 0 
L 628 4666 
z
" transform="scale(0.015625)"/>
       <path id="DejaVuSans-61" d="M 2194 1759 
Q 1497 1759 1228 1600 
Q 959 1441 959 1056 
Q 959 750 1161 570 
Q 1363 391 1709 391 
Q 2188 391 2477 730 
Q 2766 1069 2766 1631 
L 2766 1759 
L 2194 1759 
z
M 3341 1997 
L 3341 0 
L 2766 0 
L 2766 531 
Q 2569 213 2275 61 
Q 1981 -91 1556 -91 
Q 1019 -91 701 211 
Q 384 513 384 1019 
Q 384 1609 779 1909 
Q 1175 2209 1959 2209 
L 2766 2209 
L 2766 2266 
Q 2766 2663 2505 2880 
Q 2244 3097 1772 3097 
Q 1472 3097 1187 3025 
Q 903 2953 641 2809 
L 641 3341 
Q 956 3463 1253 3523 
Q 1550 3584 1831 3584 
Q 2591 3584 2966 3190 
Q 3341 2797 3341 1997 
z
" transform="scale(0.015625)"/>
       <path id="DejaVuSans-6c" d="M 603 4863 
L 1178 4863 
L 1178 0 
L 603 0 
L 603 4863 
z
" transform="scale(0.015625)"/>
       <path id="DejaVuSans-73" d="M 2834 3397 
L 2834 2853 
Q 2591 2978 2328 3040 
Q 2066 3103 1784 3103 
Q 1356 3103 1142 2972 
Q 928 2841 928 2578 
Q 928 2378 1081 2264 
Q 1234 2150 1697 2047 
L 1894 2003 
Q 2506 1872 2764 1633 
Q 3022 1394 3022 966 
Q 3022 478 2636 193 
Q 2250 -91 1575 -91 
Q 1294 -91 989 -36 
Q 684 19 347 128 
L 347 722 
Q 666 556 975 473 
Q 1284 391 1588 391 
Q 1994 391 2212 530 
Q 2431 669 2431 922 
Q 2431 1156 2273 1281 
Q 2116 1406 1581 1522 
L 1381 1569 
Q 847 1681 609 1914 
Q 372 2147 372 2553 
Q 372 3047 722 3315 
Q 1072 3584 1716 3584 
Q 2034 3584 2315 3537 
Q 2597 3491 2834 3397 
z
" transform="scale(0.015625)"/>
       <path id="DejaVuSans-65" d="M 3597 1894 
L 3597 1613 
L 953 1613 
Q 991 1019 1311 708 
Q 1631 397 2203 397 
Q 2534 397 2845 478 
Q 3156 559 3463 722 
L 3463 178 
Q 3153 47 2828 -22 
Q 2503 -91 2169 -91 
Q 1331 -91 842 396 
Q 353 884 353 1716 
Q 353 2575 817 3079 
Q 1281 3584 2069 3584 
Q 2775 3584 3186 3129 
Q 3597 2675 3597 1894 
z
M 3022 2063 
Q 3016 2534 2758 2815 
Q 2500 3097 2075 3097 
Q 1594 3097 1305 2825 
Q 1016 2553 972 2059 
L 3022 2063 
z
" transform="scale(0.015625)"/>
       <path id="DejaVuSans-20" transform="scale(0.015625)"/>
       <path id="DejaVuSans-70" d="M 1159 525 
L 1159 -1331 
L 581 -1331 
L 581 3500 
L 1159 3500 
L 1159 2969 
Q 1341 3281 1617 3432 
Q 1894 3584 2278 3584 
Q 2916 3584 3314 3078 
Q 3713 2572 3713 1747 
Q 3713 922 3314 415 
Q 2916 -91 2278 -91 
Q 1894 -91 1617 61 
Q 1341 213 1159 525 
z
M 3116 1747 
Q 3116 2381 2855 2742 
Q 2594 3103 2138 3103 
Q 1681 3103 1420 2742 
Q 1159 2381 1159 1747 
Q 1159 1113 1420 752 
Q 1681 391 2138 391 
Q 2594 391 2855 752 
Q 3116 1113 3116 1747 
z
" transform="scale(0.015625)"/>
       <path id="DejaVuSans-6f" d="M 1959 3097 
Q 1497 3097 1228 2736 
Q 959 2375 959 1747 
Q 959 1119 1226 758 
Q 1494 397 1959 397 
Q 2419 397 2687 759 
Q 2956 1122 2956 1747 
Q 2956 2369 2687 2733 
Q 2419 3097 1959 3097 
z
M 1959 3584 
Q 2709 3584 3137 3096 
Q 3566 2609 3566 1747 
Q 3566 888 3137 398 
Q 2709 -91 1959 -91 
Q 1206 -91 779 398 
Q 353 888 353 1747 
Q 353 2609 779 3096 
Q 1206 3584 1959 3584 
z
" transform="scale(0.015625)"/>
       <path id="DejaVuSans-69" d="M 603 3500 
L 1178 3500 
L 1178 0 
L 603 0 
L 603 3500 
z
M 603 4863 
L 1178 4863 
L 1178 4134 
L 603 4134 
L 603 4863 
z
" transform="scale(0.015625)"/>
       <path id="DejaVuSans-74" d="M 1172 4494 
L 1172 3500 
L 2356 3500 
L 2356 3053 
L 1172 3053 
L 1172 1153 
Q 1172 725 1289 603 
Q 1406 481 1766 481 
L 2356 481 
L 2356 0 
L 1766 0 
Q 1100 0 847 248 
Q 594 497 594 1153 
L 594 3053 
L 172 3053 
L 172 3500 
L 594 3500 
L 594 4494 
L 1172 4494 
z
" transform="scale(0.015625)"/>
       <path id="DejaVuSans-76" d="M 191 3500 
L 800 3500 
L 1894 563 
L 2988 3500 
L 3597 3500 
L 2284 0 
L 1503 0 
L 191 3500 
z
" transform="scale(0.015625)"/>
       <path id="DejaVuSans-72" d="M 2631 2963 
Q 2534 3019 2420 3045 
Q 2306 3072 2169 3072 
Q 1681 3072 1420 2755 
Q 1159 2438 1159 1844 
L 1159 0 
L 581 0 
L 581 3500 
L 1159 3500 
L 1159 2956 
Q 1341 3275 1631 3429 
Q 1922 3584 2338 3584 
Q 2397 3584 2469 3576 
Q 2541 3569 2628 3553 
L 2631 2963 
z
" transform="scale(0.015625)"/>
      </defs>
      <use xlink:href="#DejaVuSans-46"/>
      <use xlink:href="#DejaVuSans-61" x="48.394531"/>
      <use xlink:href="#DejaVuSans-6c" x="109.673828"/>
      <use xlink:href="#DejaVuSans-73" x="137.457031"/>
      <use xlink:href="#DejaVuSans-65" x="189.556641"/>
      <use xlink:href="#DejaVuSans-20" x="251.080078"/>
      <use xlink:href="#DejaVuSans-70" x="282.867188"/>
      <use xlink:href="#DejaVuSans-6f" x="346.34375"/>
      <use xlink:href="#DejaVuSans-73" x="407.525391"/>
      <use xlink:href="#DejaVuSans-69" x="459.625"/>
      <use xlink:href="#DejaVuSans-74" x="487.408203"/>
      <use xlink:href="#DejaVuSans-69" x="526.617188"/>
      <use xlink:href="#DejaVuSans-76" x="554.400391"/>
      <use xlink:href="#DejaVuSans-65" x="613.580078"/>
      <use xlink:href="#DejaVuSans-20" x="675.103516"/>
      <use xlink:href="#DejaVuSans-72" x="706.890625"/>
      <use xlink:href="#DejaVuSans-61" x="748.003906"/>
      <use xlink:href="#DejaVuSans-74" x="809.283203"/>
      <use xlink:href="#DejaVuSans-65" x="848.492188"/>
     </g>
    </g>
   </g>
   <g id="matplotlib.axis_2">
    <g id="ytick_1">
     <g id="line2d_7">
      <defs>
       <path id="m5282fd438c" d="M 0 0 
L -3.5 0 
" style="stroke: #000000; stroke-width: 0.8"/>
      </defs>
      <g>
       <use xlink:href="#m5282fd438c" x="57.6" y="295.488" style="stroke: #000000; stroke-width: 0.8"/>
      </g>
     </g>
     <g id="text_8">
      <!-- 0.0 -->
      <g transform="translate(34.696875 299.287219) scale(0.1 -0.1)">
       <use xlink:href="#DejaVuSans-30"/>
       <use xlink:href="#DejaVuSans-2e" x="63.623047"/>
       <use xlink:href="#DejaVuSans-30" x="95.410156"/>
      </g>
     </g>
    </g>
    <g id="ytick_2">
     <g id="line2d_8">
      <g>
       <use xlink:href="#m5282fd438c" x="57.6" y="247.104" style="stroke: #000000; stroke-width: 0.8"/>
      </g>
     </g>
     <g id="text_9">
      <!-- 0.2 -->
      <g transform="translate(34.696875 250.903219) scale(0.1 -0.1)">
       <use xlink:href="#DejaVuSans-30"/>
       <use xlink:href="#DejaVuSans-2e" x="63.623047"/>
       <use xlink:href="#DejaVuSans-32" x="95.410156"/>
      </g>
     </g>
    </g>
    <g id="ytick_3">
     <g id="line2d_9">
      <g>
       <use xlink:href="#m5282fd438c" x="57.6" y="198.72" style="stroke: #000000; stroke-width: 0.8"/>
      </g>
     </g>
     <g id="text_10">
      <!-- 0.4 -->
      <g transform="translate(34.696875 202.519219) scale(0.1 -0.1)">
       <use xlink:href="#DejaVuSans-30"/>
       <use xlink:href="#DejaVuSans-2e" x="63.623047"/>
       <use xlink:href="#DejaVuSans-34" x="95.410156"/>
      </g>
     </g>
    </g>
    <g id="ytick_4">
     <g id="line2d_10">
      <g>
       <use xlink:href="#m5282fd438c" x="57.6" y="150.336" style="stroke: #000000; stroke-width: 0.8"/>
      </g>
     </g>
     <g id="text_11">
      <!-- 0.6 -->
      <g transform="translate(34.696875 154.135219) scale(0.1 -0.1)">
       <use xlink:href="#DejaVuSans-30"/>
       <use xlink:href="#DejaVuSans-2e" x="63.623047"/>
       <use xlink:href="#DejaVuSans-36" x="95.410156"/>
      </g>
     </g>
    </g>
    <g id="ytick_5">
     <g id="line2d_11">
      <g>
       <use xlink:href="#m5282fd438c" x="57.6" y="101.952" style="stroke: #000000; stroke-width: 0.8"/>
      </g>
     </g>
     <g id="text_12">
      <!-- 0.8 -->
      <g transform="translate(34.696875 105.751219) scale(0.1 -0.1)">
       <use xlink:href="#DejaVuSans-30"/>
       <use xlink:href="#DejaVuSans-2e" x="63.623047"/>
       <use xlink:href="#DejaVuSans-38" x="95.410156"/>
      </g>
     </g>
    </g>
    <g id="ytick_6">
     <g id="line2d_12">
      <g>
       <use xlink:href="#m5282fd438c" x="57.6" y="53.568" style="stroke: #000000; stroke-width: 0.8"/>
      </g>
     </g>
     <g id="text_13">
      <!-- 1.0 -->
      <g transform="translate(34.696875 57.367219) scale(0.1 -0.1)">
       <use xlink:href="#DejaVuSans-31"/>
       <use xlink:href="#DejaVuSans-2e" x="63.623047"/>
       <use xlink:href="#DejaVuSans-30" x="95.410156"/>
      </g>
     </g>
    </g>
    <g id="text_14">
     <!-- True positive rate -->
     <g transform="translate(28.617187 218.092062) rotate(-90) scale(0.1 -0.1)">
      <defs>
       <path id="DejaVuSans-54" d="M -19 4666 
L 3928 4666 
L 3928 4134 
L 2272 4134 
L 2272 0 
L 1638 0 
L 1638 4134 
L -19 4134 
L -19 4666 
z
" transform="scale(0.015625)"/>
       <path id="DejaVuSans-75" d="M 544 1381 
L 544 3500 
L 1119 3500 
L 1119 1403 
Q 1119 906 1312 657 
Q 1506 409 1894 409 
Q 2359 409 2629 706 
Q 2900 1003 2900 1516 
L 2900 3500 
L 3475 3500 
L 3475 0 
L 2900 0 
L 2900 538 
Q 2691 219 2414 64 
Q 2138 -91 1772 -91 
Q 1169 -91 856 284 
Q 544 659 544 1381 
z
M 1991 3584 
L 1991 3584 
z
" transform="scale(0.015625)"/>
      </defs>
      <use xlink:href="#DejaVuSans-54"/>
      <use xlink:href="#DejaVuSans-72" x="46.333984"/>
      <use xlink:href="#DejaVuSans-75" x="87.447266"/>
      <use xlink:href="#DejaVuSans-65" x="150.826172"/>
      <use xlink:href="#DejaVuSans-20" x="212.349609"/>
      <use xlink:href="#DejaVuSans-70" x="244.136719"/>
      <use xlink:href="#DejaVuSans-6f" x="307.613281"/>
      <use xlink:href="#DejaVuSans-73" x="368.794922"/>
      <use xlink:href="#DejaVuSans-69" x="420.894531"/>
      <use xlink:href="#DejaVuSans-74" x="448.677734"/>
      <use xlink:href="#DejaVuSans-69" x="487.886719"/>
      <use xlink:href="#DejaVuSans-76" x="515.669922"/>
      <use xlink:href="#DejaVuSans-65" x="574.849609"/>
      <use xlink:href="#DejaVuSans-20" x="636.373047"/>
      <use xlink:href="#DejaVuSans-72" x="668.160156"/>
      <use xlink:href="#DejaVuSans-61" x="709.273438"/>
      <use xlink:href="#DejaVuSans-74" x="770.552734"/>
      <use xlink:href="#DejaVuSans-65" x="809.761719"/>
     </g>
    </g>
   </g>
   <g id="line2d_13">
    <path d="M 73.832727 295.488 
L 74.057355 243.40669 
L 74.102281 242.669286 
L 74.192132 210.086313 
L 74.214595 209.606143 
L 74.304446 197.859124 
L 74.326908 197.721932 
L 74.41676 186.883806 
L 74.439222 186.883806 
L 74.439222 186.83236 
L 74.529073 177.211808 
L 74.551536 177.211808 
L 74.551536 177.17751 
L 74.641387 170.437979 
L 74.66385 170.437979 
L 74.66385 170.352235 
L 74.753701 159.925683 
L 74.776164 159.925683 
L 74.776164 159.82279 
L 74.866015 155.518408 
L 74.888478 155.518408 
L 74.888478 155.415514 
L 74.978329 150.682408 
L 75.000792 150.682408 
L 75.000792 150.579515 
L 75.090643 145.623473 
L 75.113106 145.623473 
L 75.113106 145.589175 
L 75.202957 135.162624 
L 75.22542 135.162624 
L 75.315271 127.737136 
L 75.337733 127.737136 
L 75.337733 127.634242 
L 75.427585 124.153009 
L 75.450047 124.153009 
L 75.539898 119.31701 
L 75.562361 119.31701 
L 75.652212 115.115521 
L 75.674675 115.115521 
L 75.764526 113.297734 
L 75.786989 113.297734 
L 75.87684 111.171266 
L 75.899303 111.171266 
L 75.989154 107.621437 
L 76.011617 107.621437 
L 76.101468 105.014799 
L 76.123931 105.014799 
L 76.213782 103.282757 
L 76.236245 103.282757 
L 76.326096 100.761864 
L 76.393484 100.65897 
L 76.483335 98.429609 
L 76.505798 98.429609 
L 76.595649 95.908716 
L 76.618112 95.908716 
L 76.707963 93.936589 
L 76.752889 93.902291 
L 76.84274 92.290291 
L 76.865202 92.290291 
L 76.955054 90.729738 
L 76.977516 90.729738 
L 77.067367 88.894802 
L 77.08983 88.894802 
L 77.179681 87.728675 
L 77.224607 87.625781 
L 77.314458 86.83693 
L 77.336921 86.83693 
L 77.426772 85.893739 
L 77.471697 85.825143 
L 77.561549 85.087739 
L 77.584011 85.087739 
L 77.673862 84.350335 
L 77.718788 84.247441 
L 77.808639 83.372846 
L 77.853565 83.30425 
L 77.943416 82.49825 
L 77.965879 82.49825 
L 78.05573 81.829442 
L 78.078193 81.829442 
L 78.168044 81.314974 
L 78.235432 81.280676 
L 78.30282 80.268889 
L 78.370209 80.234591 
L 78.46006 79.634378 
L 78.504985 79.531485 
L 78.594836 78.999868 
L 78.639762 78.914123 
L 78.729613 78.108123 
L 78.752076 78.108123 
L 78.841927 77.645102 
L 78.86439 77.645102 
L 78.954241 76.890549 
L 79.044092 76.804804 
L 79.089018 76.341783 
L 79.178869 76.341783 
L 79.26872 75.741571 
L 79.336108 75.672975 
L 79.425959 75.10706 
L 79.493348 75.038464 
L 79.583199 74.644039 
L 79.628124 74.541145 
L 79.717975 73.855188 
L 79.740438 73.855188 
L 79.830289 73.546507 
L 79.897678 73.477911 
L 79.965066 73.100635 
L 80.009992 73.100635 
L 80.07738 72.706209 
L 80.212157 72.603316 
L 80.302008 72.38038 
L 80.391859 72.277486 
L 80.48171 71.968805 
L 80.549098 71.865912 
L 80.638949 71.797316 
L 80.751263 71.694422 
L 80.818652 71.368593 
L 80.998354 71.265699 
L 81.020817 71.214252 
L 81.245444 71.111359 
L 81.335295 70.974167 
L 81.447609 70.888422 
L 81.53746 70.819827 
L 81.672237 70.76838 
L 81.762088 70.511146 
L 81.807014 70.511146 
L 81.896865 70.271061 
L 82.031642 70.168167 
L 82.09903 70.030976 
L 82.256269 69.928082 
L 82.346121 69.739444 
L 82.458434 69.653699 
L 82.548286 69.48221 
L 82.638137 69.396465 
L 82.705525 69.224976 
L 82.90769 69.139231 
L 82.997541 68.813402 
L 83.199706 68.710508 
L 83.289557 68.539019 
L 83.469259 68.453274 
L 83.559111 68.247487 
L 83.671424 68.161742 
L 83.71635 68.075997 
L 84.030829 67.973104 
L 84.12068 67.818763 
L 84.322845 67.733019 
L 84.412696 67.664423 
L 84.592398 67.561529 
L 84.68225 67.424338 
L 84.772101 67.39004 
L 84.794563 67.269998 
L 85.153968 67.201402 
L 85.243819 67.098508 
L 85.603223 66.995615 
L 85.693075 66.927019 
L 85.805389 66.841274 
L 85.872777 66.601189 
L 86.007554 66.515445 
L 86.074942 66.395402 
L 86.277107 66.361104 
L 86.366958 66.172466 
L 86.681437 66.069572 
L 86.771288 65.94953 
L 86.995916 65.898083 
L 87.085767 65.795189 
L 87.220544 65.726594 
L 87.287932 65.657998 
L 87.467634 65.572253 
L 87.557485 65.46936 
L 87.737187 65.400764 
L 87.804576 65.280721 
L 88.500922 65.177828 
L 88.500922 65.160679 
L 88.748013 65.126381 
L 88.815401 65.006338 
L 89.062491 64.920594 
L 89.12988 64.834849 
L 89.332045 64.731955 
L 89.354508 64.697658 
L 89.7813 64.594764 
L 89.7813 64.577615 
L 90.140705 64.474721 
L 90.230556 64.200339 
L 90.365333 64.114594 
L 90.455184 63.960253 
L 90.971828 63.85736 
L 91.061679 63.788764 
L 91.443546 63.685871 
L 91.466009 63.651573 
L 91.847876 63.548679 
L 91.847876 63.514381 
L 92.117429 63.411488 
L 92.207281 63.342892 
L 92.521759 63.239998 
L 92.611611 63.102807 
L 92.836238 63.017062 
L 92.836238 62.982764 
L 93.420271 62.89702 
L 93.420271 62.862722 
L 93.959377 62.776977 
L 94.049228 62.708381 
L 94.341245 62.622637 
L 94.431096 62.536892 
L 95.172367 62.433998 
L 95.217293 62.365403 
L 95.59916 62.279658 
L 95.59916 62.24536 
L 96.228118 62.142467 
L 96.228118 62.125318 
L 96.857076 62.022424 
L 96.857076 62.005275 
L 97.463571 61.902382 
L 97.553422 61.850935 
L 98.249768 61.748041 
L 98.294694 61.679445 
L 98.676561 61.593701 
L 98.699024 61.542254 
L 99.193205 61.473658 
L 99.283056 61.387914 
L 100.069253 61.28502 
L 100.069253 61.267871 
L 101.214855 61.182126 
L 101.214855 61.147828 
L 103.595909 61.044935 
L 103.640835 61.010637 
L 104.449495 60.907743 
L 104.494421 60.856297 
L 105.932039 60.753403 
L 105.954501 60.719105 
L 106.718236 60.616212 
L 106.763161 60.530467 
L 107.773986 60.427573 
L 107.773986 60.393275 
L 109.90795 60.290382 
L 109.90795 60.273233 
L 111.704973 60.170339 
L 111.794824 60.136041 
L 112.693335 60.033148 
L 112.693335 60.015999 
L 113.277367 59.913105 
L 113.29983 59.878807 
L 113.951251 59.775914 
L 113.951251 59.758765 
L 114.984538 59.67302 
L 114.984538 59.638722 
L 115.860587 59.535829 
L 115.860587 59.501531 
L 117.34313 59.398637 
L 117.432981 59.34719 
L 117.724998 59.244297 
L 117.74746 59.209999 
L 118.264104 59.107105 
L 118.264104 59.072808 
L 119.409706 58.969914 
L 119.477094 58.935616 
L 120.510382 58.832722 
L 120.510382 58.815574 
L 121.049489 58.729829 
L 121.049489 58.695531 
L 121.813223 58.592637 
L 121.813223 58.575488 
L 122.487107 58.472595 
L 122.532032 58.438297 
L 123.520395 58.335403 
L 123.520395 58.318254 
L 124.463831 58.215361 
L 124.553682 58.095318 
L 125.362342 57.992425 
L 125.362342 57.975276 
L 126.260854 57.872382 
L 126.328242 57.803786 
L 127.047051 57.700893 
L 127.047051 57.683744 
L 128.484669 57.58085 
L 128.484669 57.546552 
L 129.765047 57.443659 
L 129.854898 57.392212 
L 130.528782 57.289318 
L 130.528782 57.27217 
L 131.831623 57.169276 
L 131.899011 57.117829 
L 133.606182 57.014936 
L 133.606182 56.997787 
L 134.886561 56.894893 
L 134.886561 56.877744 
L 136.526344 56.77485 
L 136.548806 56.740553 
L 137.649483 56.654808 
L 137.739334 56.603361 
L 139.109563 56.500468 
L 139.109563 56.483319 
L 140.771809 56.380425 
L 140.771809 56.363276 
L 142.07465 56.260383 
L 142.164501 56.208936 
L 147.533105 56.106042 
L 147.533105 56.088893 
L 150.183713 55.986 
L 150.183713 55.968851 
L 156.832696 55.865957 
L 156.832696 55.848808 
L 159.078974 55.745915 
L 159.078974 55.728766 
L 167.502516 55.625872 
L 167.502516 55.608723 
L 168.401027 55.505829 
L 168.401027 55.488681 
L 172.848657 55.385787 
L 172.848657 55.368638 
L 178.93607 55.265744 
L 178.93607 55.248595 
L 190.01022 55.145702 
L 190.01022 55.128553 
L 196.524426 55.025659 
L 196.524426 55.00851 
L 203.600202 54.905617 
L 203.600202 54.888468 
L 217.616976 54.785574 
L 217.616976 54.768425 
L 229.769339 54.665532 
L 229.769339 54.648383 
L 233.969879 54.545489 
L 234.037267 54.511191 
L 253.332795 54.408298 
L 253.332795 54.391149 
L 285.566882 54.288255 
L 285.566882 54.271106 
L 308.164438 54.168213 
L 308.164438 54.133915 
L 324.966597 54.031021 
L 324.966597 54.013872 
L 331.885133 53.910979 
L 331.885133 53.89383 
L 341.589053 53.790936 
L 341.589053 53.773787 
L 365.017732 53.670894 
L 365.017732 53.653745 
L 398.487273 53.568 
L 398.487273 53.568 
" clip-path="url(#pb4a6e0a90f)" style="fill: none; stroke: #228b22; stroke-width: 1.5; stroke-linecap: square"/>
   </g>
   <g id="line2d_14">
    <path d="M 73.832727 295.488 
L 74.034892 292.332596 
L 74.102281 271.771025 
L 74.192132 261.653155 
L 74.214595 261.138687 
L 74.281983 246.373455 
L 74.326908 246.219115 
L 74.41676 217.494652 
L 74.439222 217.220269 
L 74.529073 187.020998 
L 74.551536 187.020998 
L 74.551536 186.969551 
L 74.641387 177.434744 
L 74.66385 177.211808 
L 74.753701 167.299725 
L 74.776164 167.299725 
L 74.776164 167.196831 
L 74.866015 149.036111 
L 74.888478 149.036111 
L 74.888478 148.933217 
L 74.978329 140.170112 
L 75.000792 140.170112 
L 75.000792 140.101517 
L 75.090643 136.157262 
L 75.113106 136.157262 
L 75.113106 136.088666 
L 75.202957 133.259092 
L 75.22542 133.259092 
L 75.315271 127.377008 
L 75.337733 127.377008 
L 75.427585 124.375945 
L 75.450047 124.375945 
L 75.450047 124.307349 
L 75.539898 118.168031 
L 75.562361 118.168031 
L 75.652212 114.583904 
L 75.674675 114.583904 
L 75.764526 111.342756 
L 75.786989 111.342756 
L 75.786989 111.308458 
L 75.87684 106.318118 
L 75.899303 106.318118 
L 75.989154 103.111268 
L 76.011617 103.111268 
L 76.011617 103.025523 
L 76.101468 101.190587 
L 76.123931 101.190587 
L 76.123931 101.104843 
L 76.213782 99.87012 
L 76.236245 99.87012 
L 76.236245 99.835822 
L 76.326096 98.189524 
L 76.371021 98.103779 
L 76.460872 97.091992 
L 76.483335 97.091992 
L 76.483335 96.989099 
L 76.573186 95.84012 
L 76.595649 95.84012 
L 76.595649 95.771524 
L 76.6855 94.656844 
L 76.730426 94.605397 
L 76.730426 94.571099 
L 76.820277 93.044844 
L 76.887665 92.976248 
L 76.977516 91.432844 
L 77.022442 91.432844 
L 77.022442 91.364249 
L 77.112293 90.438206 
L 77.179681 90.438206 
L 77.179681 90.335313 
L 77.269532 88.500377 
L 77.314458 88.483228 
L 77.314458 88.414632 
L 77.381846 87.81442 
L 77.426772 87.81442 
L 77.426772 87.711526 
L 77.516623 86.991271 
L 77.539086 86.991271 
L 77.539086 86.922675 
L 77.628937 85.842292 
L 77.673862 85.807994 
L 77.673862 85.773696 
L 77.763714 83.750122 
L 77.831102 83.698676 
L 77.920953 82.532548 
L 77.965879 82.515399 
L 77.965879 82.49825 
L 78.05573 81.760846 
L 78.123118 81.657953 
L 78.212969 81.023442 
L 78.235432 81.023442 
L 78.325283 80.457527 
L 78.347746 80.457527 
L 78.347746 80.371783 
L 78.415134 80.0974 
L 78.46006 80.0974 
L 78.46006 80.011655 
L 78.549911 79.497187 
L 78.572374 79.497187 
L 78.572374 79.411442 
L 78.662225 78.999868 
L 78.684688 78.999868 
L 78.774539 78.451102 
L 78.797001 78.451102 
L 78.797001 78.348208 
L 78.886853 77.885187 
L 78.931778 77.816591 
L 79.021629 77.422166 
L 79.133943 77.319272 
L 79.223794 76.616166 
L 79.291183 76.54757 
L 79.381034 76.324634 
L 79.448422 76.324634 
L 79.538273 76.135996 
L 79.560736 76.135996 
L 79.560736 76.0674 
L 79.650587 75.775868 
L 79.762901 75.672975 
L 79.852752 75.347145 
L 79.897678 75.347145 
L 79.987529 75.021315 
L 80.032454 74.987018 
L 80.122305 74.318209 
L 80.234619 74.215316 
L 80.302008 74.009528 
L 80.459247 73.940933 
L 80.549098 73.460762 
L 80.571561 73.460762 
L 80.571561 73.409316 
L 80.616487 73.18638 
L 80.706338 73.169231 
L 80.773726 72.997741 
L 80.818652 72.997741 
L 80.818652 72.894848 
L 80.908503 72.740507 
L 81.065742 72.637614 
L 81.155593 72.431826 
L 81.245444 72.38038 
L 81.245444 72.328933 
L 81.335295 72.003103 
L 81.380221 71.968805 
L 81.470072 71.72872 
L 81.514998 71.711571 
L 81.53746 71.488635 
L 81.717163 71.385742 
L 81.807014 71.299997 
L 81.919328 71.282848 
L 81.919328 71.214252 
L 81.986716 71.042763 
L 82.054104 70.939869 
L 82.143956 70.785529 
L 82.278732 70.699784 
L 82.368583 70.44255 
L 82.458434 70.425401 
L 82.458434 70.339657 
L 82.548286 70.236763 
L 82.683062 70.168167 
L 82.727988 69.96238 
L 82.862764 69.876635 
L 82.952616 69.567955 
L 83.154781 69.465061 
L 83.244632 69.362167 
L 83.424334 69.276423 
L 83.424334 69.224976 
L 83.648962 69.139231 
L 83.738813 68.727657 
L 83.87359 68.67621 
L 83.918515 68.487572 
L 84.322845 68.401827 
L 84.390233 68.298934 
L 84.614861 68.19604 
L 84.637324 68.110295 
L 84.906877 68.007402 
L 84.974266 67.938806 
L 85.08658 67.87021 
L 85.153968 67.767317 
L 85.513372 67.664423 
L 85.580761 67.510083 
L 85.782926 67.407189 
L 85.872777 67.321444 
L 86.052479 67.2357 
L 86.14233 67.047061 
L 86.569123 66.944168 
L 86.636511 66.841274 
L 87.018379 66.75553 
L 87.063304 66.704083 
L 87.445171 66.618338 
L 87.445171 66.58404 
L 87.669799 66.498296 
L 87.737187 66.361104 
L 88.051666 66.275359 
L 88.141518 66.138168 
L 88.298757 66.052423 
L 88.388608 65.983828 
L 88.72555 65.898083 
L 88.748013 65.77804 
L 89.107417 65.675147 
L 89.197268 65.589402 
L 89.579135 65.486509 
L 89.624061 65.452211 
L 90.7472 65.349317 
L 90.7472 65.332168 
L 91.106604 65.229275 
L 91.106604 65.212126 
L 92.027578 65.109232 
L 92.027578 65.092083 
L 92.521759 64.989189 
L 92.589148 64.920594 
L 93.015941 64.851998 
L 93.015941 64.834849 
L 93.015941 64.800551 
L 93.330419 64.731955 
L 93.330419 64.66336 
L 94.116617 64.560466 
L 94.116617 64.49187 
L 94.880351 64.406126 
L 94.902814 63.908807 
L 94.992665 63.908807 
L 94.992665 63.85736 
L 95.060053 63.634424 
L 95.531772 63.53153 
L 95.621623 63.445785 
L 95.7564 63.428637 
L 95.7564 63.360041 
L 95.801325 63.171403 
L 96.520134 63.068509 
L 96.542597 63.034211 
L 97.261406 62.931318 
L 97.306331 62.845573 
L 97.755587 62.794126 
L 97.755587 62.742679 
L 97.755587 62.554041 
L 98.272231 62.468296 
L 98.317156 62.382552 
L 98.901189 62.313956 
L 98.901189 62.279658 
L 98.923651 62.09102 
L 99.530146 61.988126 
L 99.597535 61.885233 
L 100.293881 61.816637 
L 100.293881 61.782339 
L 100.293881 61.76519 
L 100.945302 61.713743 
L 100.945302 61.662296 
L 100.945302 61.490807 
L 101.709036 61.405062 
L 101.709036 61.387914 
L 101.798887 61.182126 
L 102.832175 61.079233 
L 102.922026 61.044935 
L 103.101728 61.027786 
L 103.101728 60.976339 
L 103.191579 60.787701 
L 103.640835 60.684807 
L 103.730686 60.63336 
L 104.179942 60.564765 
L 104.179942 60.496169 
L 106.044352 60.393275 
L 106.044352 60.376126 
L 107.661673 60.273233 
L 107.706598 60.238935 
L 108.739886 60.15319 
L 108.784811 59.655871 
L 109.144216 59.638722 
L 109.144216 59.604424 
L 109.144216 59.398637 
L 109.885488 59.381488 
L 109.885488 59.141403 
L 111.188329 59.072808 
L 111.188329 58.832722 
L 112.378856 58.729829 
L 112.401319 58.71268 
L 113.883862 58.609786 
L 113.883862 58.592637 
L 116.444619 58.506893 
L 116.53447 58.421148 
L 117.006189 58.335403 
L 117.006189 58.301106 
L 119.207541 58.215361 
L 119.230004 58.078169 
L 121.611058 57.975276 
L 121.633521 57.958127 
L 122.195091 57.958127 
L 122.195091 57.855233 
L 122.195091 57.769489 
L 125.609433 57.666595 
L 125.609433 57.649446 
L 127.294141 57.563701 
L 127.294141 57.529404 
L 131.202665 57.42651 
L 131.202665 57.255021 
L 131.764234 57.152127 
L 131.764234 57.10068 
L 134.504693 56.997787 
L 134.504693 56.980638 
L 136.885748 56.877744 
L 136.885748 56.860595 
L 140.120388 56.757702 
L 140.120388 56.723404 
L 142.770996 56.62051 
L 142.770996 56.603361 
L 145.376679 56.500468 
L 145.376679 56.483319 
L 148.476542 56.380425 
L 148.476542 56.346127 
L 150.228639 56.243234 
L 150.228639 56.226085 
L 152.766933 56.14034 
L 152.766933 56.106042 
L 157.281951 56.003149 
L 157.371803 55.968851 
L 160.089799 55.883106 
L 160.089799 55.848808 
L 162.223763 55.745915 
L 162.223763 55.728766 
L 163.706306 55.625872 
L 163.706306 55.608723 
L 170.804544 55.522978 
L 170.827007 55.471532 
L 175.634042 55.385787 
L 175.634042 55.351489 
L 183.406163 55.265744 
L 183.406163 55.231447 
L 192.773142 55.162851 
L 192.773142 55.128553 
L 192.773142 55.059957 
L 209.867317 54.957064 
L 209.867317 54.939915 
L 230.42076 54.837021 
L 230.42076 54.819872 
L 242.393421 54.716979 
L 242.393421 54.69983 
L 264.429407 54.596936 
L 264.429407 54.579787 
L 272.156603 54.494042 
L 272.156603 54.391149 
L 285.319792 54.288255 
L 285.319792 54.271106 
L 304.727633 54.168213 
L 304.727633 54.151064 
L 312.724382 54.04817 
L 312.724382 54.031021 
L 323.057261 53.945277 
L 323.057261 53.910979 
L 342.644804 53.808085 
L 342.644804 53.790936 
L 370.363873 53.688043 
L 370.363873 53.670894 
L 398.487273 53.568 
L 398.487273 53.568 
" clip-path="url(#pb4a6e0a90f)" style="fill: none; stroke: #800080; stroke-width: 1.5; stroke-linecap: square"/>
   </g>
   <g id="line2d_15">
    <path d="M 73.832727 295.488 
L 79.538273 101.036247 
L 80.279545 91.364249 
L 80.504173 89.820845 
L 80.594024 88.9291 
L 80.661412 88.689015 
L 80.751263 87.865866 
L 80.818652 87.591483 
L 80.908503 86.631143 
L 80.930965 86.631143 
L 81.020817 85.705101 
L 81.043279 85.705101 
L 81.043279 85.602207 
L 81.13313 84.727612 
L 81.178056 84.641867 
L 81.267907 83.064165 
L 81.335295 82.961271 
L 81.402684 82.206718 
L 81.492535 82.206718 
L 81.582386 81.400719 
L 81.627312 81.366421 
L 81.717163 80.886251 
L 81.739625 80.886251 
L 81.784551 80.560421 
L 81.896865 80.526123 
L 81.964253 80.286038 
L 82.121493 80.217442 
L 82.211344 79.840166 
L 82.256269 79.823017 
L 82.346121 79.462889 
L 82.413509 79.359995 
L 82.50336 78.879825 
L 82.593211 78.794081 
L 82.638137 78.433953 
L 82.727988 78.348208 
L 82.817839 78.125272 
L 82.862764 78.125272 
L 82.862764 78.090974 
L 82.862764 78.00523 
L 83.042467 77.988081 
L 83.132318 77.559357 
L 83.154781 77.559357 
L 83.244632 77.130634 
L 83.31202 77.079187 
L 83.31202 77.044889 
L 83.401871 76.71906 
L 83.469259 76.633315 
L 83.559111 76.101698 
L 83.71635 75.998805 
L 83.806201 75.621528 
L 83.940978 75.58723 
L 84.030829 75.141358 
L 84.12068 75.10706 
L 84.210531 74.764081 
L 84.412696 74.678337 
L 84.480085 74.455401 
L 84.637324 74.369656 
L 84.659787 74.215316 
L 84.772101 74.163869 
L 84.772101 74.112422 
L 84.794563 74.078124 
L 84.951803 74.026677 
L 85.041654 73.563656 
L 85.153968 73.460762 
L 85.198893 73.357869 
L 85.356133 73.272124 
L 85.445984 73.100635 
L 85.715537 73.049188 
L 85.782926 72.946294 
L 85.850314 72.946294 
L 85.940165 72.551869 
L 86.164793 72.466124 
L 86.254644 72.311784 
L 86.366958 72.243188 
L 86.366958 72.226039 
L 86.456809 72.071699 
L 86.681437 71.968805 
L 86.748825 71.831614 
L 86.793751 71.831614 
L 86.793751 71.72872 
L 86.883602 71.642976 
L 86.973453 71.540082 
L 87.063304 71.368593 
L 87.153155 71.334295 
L 87.220544 71.162805 
L 87.467634 71.059912 
L 87.467634 71.025614 
L 87.714725 70.974167 
L 87.714725 70.92272 
L 87.75965 70.819827 
L 87.984278 70.785529 
L 88.006741 70.682635 
L 88.186443 70.579742 
L 88.276294 70.425401 
L 88.433534 70.322508 
L 88.523385 70.185316 
L 88.635699 70.082423 
L 88.72555 69.945231 
L 88.882789 69.842338 
L 88.882789 69.790891 
L 89.242194 69.687997 
L 89.264656 69.602252 
L 89.399433 69.499359 
L 89.466821 69.413614 
L 89.668986 69.310721 
L 89.736375 69.190678 
L 90.005928 69.087785 
L 90.095779 68.933444 
L 90.18563 68.830551 
L 90.275482 68.744806 
L 90.477647 68.641912 
L 90.567498 68.539019 
L 90.769663 68.453274 
L 90.837051 68.333231 
L 91.084142 68.230338 
L 91.129067 68.178891 
L 91.376158 68.075997 
L 91.466009 67.990253 
L 91.937727 67.887359 
L 92.005116 67.767317 
L 92.566685 67.664423 
L 92.656536 67.630125 
L 93.083329 67.527232 
L 93.17318 67.458636 
L 93.510122 67.355742 
L 93.510122 67.321444 
L 93.689824 67.304295 
L 93.779675 67.081359 
L 94.296319 66.978466 
L 94.296319 66.961317 
L 94.94774 66.858423 
L 95.015128 66.824125 
L 95.19483 66.721232 
L 95.284681 66.601189 
L 95.958565 66.498296 
L 96.048416 66.4297 
L 96.430283 66.343955 
L 96.497671 66.292508 
L 96.991852 66.189615 
L 97.081704 66.086721 
L 97.328794 65.983828 
L 97.396182 65.932381 
L 97.800513 65.829487 
L 97.822975 65.795189 
L 98.42947 65.692296 
L 98.474396 65.640849 
L 98.946114 65.537955 
L 98.946114 65.520806 
L 99.664923 65.435062 
L 99.732312 65.246423 
L 99.956939 65.194977 
L 99.956939 65.160679 
L 100.04679 65.057785 
L 100.496046 64.954892 
L 100.518509 64.920594 
L 101.01269 64.834849 
L 101.01269 64.800551 
L 101.529334 64.697658 
L 101.551797 64.66336 
L 102.22568 64.577615 
L 102.270606 64.526168 
L 102.697398 64.440424 
L 102.697398 64.406126 
L 103.326356 64.303232 
L 103.371282 64.251785 
L 104.045165 64.148892 
L 104.090091 64.114594 
L 104.427032 64.028849 
L 104.471958 63.977402 
L 105.168304 63.874509 
L 105.168304 63.85736 
L 105.909576 63.754466 
L 105.909576 63.703019 
L 106.291443 63.634424 
L 106.313906 63.565828 
L 107.661673 63.462934 
L 107.706598 63.428637 
L 108.69496 63.342892 
L 108.69496 63.308594 
L 109.638397 63.2057 
L 109.638397 63.188551 
L 110.199967 63.102807 
L 110.222429 63.034211 
L 110.963701 62.948466 
L 111.053552 62.862722 
L 112.266542 62.759828 
L 112.266542 62.742679 
L 112.805649 62.639786 
L 112.805649 62.622637 
L 113.771548 62.519743 
L 113.8614 62.485445 
L 114.467895 62.41685 
L 114.467895 62.399701 
L 114.467895 62.365403 
L 116.107677 62.262509 
L 116.107677 62.24536 
L 117.837311 62.142467 
L 117.837311 62.125318 
L 119.724185 62.022424 
L 119.724185 62.005275 
L 120.285754 61.902382 
L 120.375605 61.833786 
L 121.611058 61.730892 
L 121.611058 61.713743 
L 122.689272 61.61085 
L 122.689272 61.593701 
L 124.239203 61.507956 
L 124.239203 61.473658 
L 126.215928 61.370765 
L 126.215928 61.336467 
L 127.743397 61.233573 
L 127.743397 61.199275 
L 128.754222 61.096382 
L 128.754222 61.079233 
L 131.80916 60.976339 
L 131.80916 60.95919 
L 132.819985 60.856297 
L 132.819985 60.839148 
L 134.077901 60.736254 
L 134.100363 60.701956 
L 134.909023 60.599063 
L 134.909023 60.581914 
L 136.728509 60.47902 
L 136.795897 60.444722 
L 139.536356 60.341829 
L 139.536356 60.32468 
L 140.951511 60.221786 
L 140.951511 60.204637 
L 143.28764 60.101744 
L 143.28764 60.084595 
L 145.331753 59.981701 
L 145.331753 59.964552 
L 147.465717 59.861658 
L 147.48818 59.827361 
L 150.700357 59.724467 
L 150.700357 59.707318 
L 151.801033 59.604424 
L 151.868422 59.552978 
L 154.159625 59.450084 
L 154.159625 59.415786 
L 156.428366 59.312893 
L 156.428366 59.295744 
L 158.158 59.19285 
L 158.158 59.175701 
L 160.247038 59.089956 
L 160.247038 59.03851 
L 163.122274 58.935616 
L 163.122274 58.918467 
L 164.717131 58.815574 
L 164.717131 58.798425 
L 166.671393 58.71268 
L 166.671393 58.678382 
L 167.749606 58.644084 
L 167.749606 58.524042 
L 171.051635 58.421148 
L 171.051635 58.403999 
L 171.815369 58.369701 
L 171.905221 58.198212 
L 175.499265 58.112467 
L 175.499265 58.06102 
L 177.296288 58.043872 
L 177.363676 57.889531 
L 180.171523 57.786638 
L 180.171523 57.769489 
L 182.911982 57.769489 
L 182.911982 57.649446 
L 184.394526 57.546552 
L 184.439451 57.512255 
L 188.864619 57.409361 
L 188.864619 57.392212 
L 192.503589 57.289318 
L 192.503589 57.237872 
L 197.265698 57.134978 
L 197.265698 57.117829 
L 198.343911 57.014936 
L 198.343911 56.980638 
L 202.4546 56.877744 
L 202.4546 56.860595 
L 204.745804 56.826297 
L 204.745804 56.706255 
L 209.665152 56.603361 
L 209.687615 56.586212 
L 213.101957 56.483319 
L 213.191808 56.311829 
L 215.325772 56.226085 
L 215.325772 56.157489 
L 216.471374 56.088893 
L 216.471374 56.037446 
L 220.087882 55.934553 
L 220.087882 55.917404 
L 223.434836 55.81451 
L 223.434836 55.797361 
L 224.535512 55.728766 
L 224.535512 55.677319 
L 228.915754 55.574425 
L 228.915754 55.557276 
L 234.419135 55.454383 
L 234.419135 55.437234 
L 237.923328 55.33434 
L 237.923328 55.317191 
L 247.020754 55.282893 
L 247.020754 55.214298 
L 247.020754 55.18 
L 249.154718 55.162851 
L 249.154718 55.059957 
L 252.658911 54.974213 
L 252.658911 54.871319 
L 253.287869 54.768425 
L 398.487273 53.568 
L 398.487273 53.568 
" clip-path="url(#pb4a6e0a90f)" style="fill: none; stroke: #000000; stroke-width: 1.5; stroke-linecap: square"/>
   </g>
   <g id="line2d_16">
    <path d="M 73.832727 295.488 
L 74.102281 259.372347 
L 74.124743 257.55456 
L 74.214595 239.959754 
L 74.237057 239.496733 
L 74.326908 228.710054 
L 74.349371 228.555714 
L 74.439222 220.770098 
L 74.461685 220.632907 
L 74.551536 210.394994 
L 74.573999 210.274951 
L 74.66385 200.00274 
L 74.686313 200.00274 
L 74.686313 199.916996 
L 74.776164 190.416487 
L 74.798627 190.416487 
L 74.798627 190.330742 
L 74.888478 181.430446 
L 74.910941 181.276105 
L 75.000792 172.461554 
L 75.023255 172.324362 
L 75.113106 160.388705 
L 75.135568 160.388705 
L 75.135568 160.354407 
L 75.22542 154.489472 
L 75.247882 154.489472 
L 75.337733 151.368366 
L 75.360196 151.368366 
L 75.427585 147.852834 
L 75.47251 147.852834 
L 75.47251 147.801388 
L 75.562361 134.716752 
L 75.584824 134.716752 
L 75.674675 129.091902 
L 75.697138 129.091902 
L 75.786989 117.842201 
L 75.809452 117.842201 
L 75.899303 116.144457 
L 75.921766 116.144457 
L 76.011617 113.932245 
L 76.03408 113.932245 
L 76.03408 113.829351 
L 76.123931 111.359905 
L 76.146394 111.359905 
L 76.236245 106.472459 
L 76.258707 106.472459 
L 76.348559 105.272033 
L 76.371021 105.272033 
L 76.460872 103.780076 
L 76.483335 103.780076 
L 76.550724 102.27097 
L 76.595649 102.27097 
L 76.6855 101.550715 
L 76.707963 101.550715 
L 76.797814 99.921566 
L 76.820277 99.921566 
L 76.910128 97.846545 
L 76.955054 97.846545 
L 77.044905 95.325652 
L 77.08983 95.274205 
L 77.179681 93.507865 
L 77.202144 93.507865 
L 77.291995 92.410334 
L 77.336921 92.30744 
L 77.426772 91.82727 
L 77.471697 91.810121 
L 77.539086 91.570036 
L 77.606474 91.518589 
L 77.696325 90.5411 
L 77.741251 90.438206 
L 77.831102 89.615057 
L 77.876027 89.597909 
L 77.965879 88.466079 
L 78.010804 88.431781 
L 78.078193 87.059866 
L 78.123118 87.059866 
L 78.212969 86.322462 
L 78.235432 86.322462 
L 78.325283 85.533611 
L 78.347746 85.533611 
L 78.415134 85.139186 
L 78.46006 85.139186 
L 78.549911 83.698676 
L 78.572374 83.698676 
L 78.639762 83.218505 
L 78.70715 83.184208 
L 78.797001 82.292463 
L 78.86439 82.189569 
L 78.954241 81.314974 
L 79.044092 81.229229 
L 79.133943 80.25174 
L 79.156406 80.25174 
L 79.246257 79.977357 
L 79.336108 79.943059 
L 79.425959 79.548634 
L 79.470885 79.44574 
L 79.538273 78.896974 
L 79.650587 78.794081 
L 79.717975 78.536847 
L 79.807826 78.433953 
L 79.897678 78.073825 
L 79.942603 77.988081 
L 79.987529 77.747996 
L 80.099843 77.713698 
L 80.189694 77.422166 
L 80.257082 77.387868 
L 80.346933 76.753358 
L 80.504173 76.650464 
L 80.594024 76.221741 
L 80.683875 76.170294 
L 80.751263 75.861613 
L 80.88604 75.75872 
L 80.953428 75.552932 
L 81.088205 75.450039 
L 81.178056 74.95272 
L 81.312833 74.866975 
L 81.380221 74.523996 
L 81.447609 74.523996 
L 81.53746 73.923784 
L 81.582386 73.889486 
L 81.627312 73.735145 
L 81.739625 73.649401 
L 81.829477 73.34072 
L 81.964253 73.237826 
L 82.054104 72.946294 
L 82.188881 72.843401 
L 82.256269 72.671912 
L 82.346121 72.586167 
L 82.435972 72.414678 
L 82.548286 72.363231 
L 82.638137 72.140295 
L 82.727988 72.105997 
L 82.795376 71.660124 
L 82.975078 71.557231 
L 83.064929 71.385742 
L 83.132318 71.368593 
L 83.222169 71.179954 
L 83.514185 71.09421 
L 83.581573 70.957018 
L 83.738813 70.854125 
L 83.806201 70.751231 
L 83.940978 70.665486 
L 84.008366 70.493997 
L 84.165606 70.391103 
L 84.210531 70.253912 
L 84.457622 70.185316 
L 84.547473 69.96238 
L 84.592398 69.876635 
L 84.68225 69.739444 
L 84.817026 69.705146 
L 84.906877 69.585104 
L 85.109042 69.48221 
L 85.198893 69.32787 
L 85.356133 69.224976 
L 85.356133 69.190678 
L 85.603223 69.087785 
L 85.693075 68.864848 
L 85.850314 68.813402 
L 85.940165 68.659061 
L 86.030016 68.556168 
L 86.074942 68.504721 
L 86.29957 68.401827 
L 86.366958 68.35038 
L 86.614049 68.247487 
L 86.681437 68.161742 
L 87.265469 68.058849 
L 87.332857 67.955955 
L 87.804576 67.87021 
L 87.871964 67.733019 
L 88.006741 67.681572 
L 88.051666 67.527232 
L 88.343683 67.424338 
L 88.388608 67.372891 
L 88.905252 67.269998 
L 88.995103 67.149955 
L 89.287119 67.081359 
L 89.37697 66.961317 
L 89.624061 66.892721 
L 89.691449 66.772679 
L 90.140705 66.686934 
L 90.230556 66.446849 
L 90.612423 66.343955 
L 90.702274 66.258211 
L 90.859514 66.155317 
L 90.949365 66.069572 
L 91.286307 65.966679 
L 91.376158 65.846636 
L 91.668174 65.795189 
L 91.713099 65.692296 
L 91.982653 65.606551 
L 91.982653 65.572253 
L 92.499297 65.46936 
L 92.499297 65.452211 
L 93.195643 65.349317 
L 93.240568 65.315019 
L 93.644898 65.212126 
L 93.73475 65.14353 
L 94.13908 65.040636 
L 94.184005 64.972041 
L 94.610798 64.869147 
L 94.633261 64.8177 
L 95.329607 64.714807 
L 95.396995 64.646211 
L 95.913639 64.560466 
L 95.913639 64.526168 
L 96.520134 64.423275 
L 96.56506 64.33753 
L 97.126629 64.234636 
L 97.21648 64.148892 
L 97.665736 64.080296 
L 97.733124 63.994551 
L 98.474396 63.891658 
L 98.519321 63.823062 
L 99.507684 63.737317 
L 99.552609 63.668722 
L 100.226493 63.582977 
L 100.248955 63.514381 
L 100.922839 63.428637 
L 100.945302 63.360041 
L 101.888738 63.257147 
L 101.956127 63.188551 
L 103.03434 63.085658 
L 103.124191 63.017062 
L 103.528521 62.914169 
L 103.528521 62.89702 
L 103.820537 62.811275 
L 103.843 62.759828 
L 104.65166 62.656935 
L 104.65166 62.605488 
L 105.258155 62.502594 
L 105.348006 62.41685 
L 106.358831 62.313956 
L 106.448682 62.24536 
L 107.122566 62.142467 
L 107.189954 62.073871 
L 108.335556 61.988126 
L 108.335556 61.953828 
L 109.66086 61.850935 
L 109.705785 61.816637 
L 110.155041 61.748041 
L 110.155041 61.696594 
L 110.671685 61.627999 
L 110.671685 61.576552 
L 111.27818 61.473658 
L 111.368031 61.387914 
L 111.929601 61.28502 
L 111.929601 61.267871 
L 112.985351 61.182126 
L 112.985351 61.147828 
L 113.591846 61.079233 
L 113.591846 61.027786 
L 115.007001 60.924892 
L 115.07439 60.890594 
L 115.680885 60.787701 
L 115.680885 60.753403 
L 117.051114 60.650509 
L 117.140965 60.616212 
L 117.882237 60.513318 
L 117.927163 60.47902 
L 119.52202 60.376126 
L 119.566945 60.341829 
L 121.296579 60.238935 
L 121.296579 60.221786 
L 123.093602 60.118892 
L 123.093602 60.101744 
L 124.845698 59.99885 
L 124.93555 59.964552 
L 125.429731 59.861658 
L 125.452194 59.827361 
L 126.328242 59.724467 
L 126.418093 59.67302 
L 126.822423 59.570127 
L 126.822423 59.552978 
L 127.316604 59.467233 
L 127.406455 59.415786 
L 128.215115 59.312893 
L 128.304966 59.244297 
L 128.507131 59.158552 
L 128.57452 59.072808 
L 130.012138 58.969914 
L 130.057063 58.901318 
L 130.708484 58.798425 
L 130.708484 58.764127 
L 131.786697 58.661233 
L 131.854086 58.592637 
L 132.797522 58.489744 
L 132.864911 58.455446 
L 133.696033 58.352552 
L 133.785885 58.249659 
L 134.684396 58.146765 
L 134.684396 58.129616 
L 135.740146 58.043872 
L 135.829997 57.992425 
L 136.346641 57.889531 
L 136.369104 57.855233 
L 137.335004 57.75234 
L 137.379929 57.700893 
L 138.300903 57.597999 
L 138.300903 57.563701 
L 140.097925 57.460808 
L 140.097925 57.443659 
L 140.70442 57.340765 
L 140.70442 57.323616 
L 144.545556 57.220723 
L 144.545556 57.203574 
L 148.94826 57.10068 
L 148.94826 57.083531 
L 151.396703 56.980638 
L 151.396703 56.963489 
L 155.687094 56.860595 
L 155.709557 56.826297 
L 159.550692 56.723404 
L 159.550692 56.706255 
L 162.493316 56.603361 
L 162.493316 56.586212 
L 163.908471 56.483319 
L 163.908471 56.46617 
L 165.907659 56.363276 
L 165.907659 56.346127 
L 170.265438 56.243234 
L 170.310363 56.208936 
L 173.140673 56.106042 
L 173.163136 56.071744 
L 175.813744 55.968851 
L 175.903595 55.934553 
L 180.778018 55.831659 
L 180.778018 55.81451 
L 185.652441 55.711617 
L 185.652441 55.694468 
L 189.313874 55.591574 
L 189.313874 55.574425 
L 200.230785 55.471532 
L 200.230785 55.454383 
L 206.565289 55.351489 
L 206.565289 55.33434 
L 211.5071 55.231447 
L 211.5071 55.214298 
L 221.36826 55.111404 
L 221.36826 55.094255 
L 236.822652 54.991361 
L 236.822652 54.974213 
L 252.524135 54.871319 
L 252.591523 54.837021 
L 271.258092 54.734127 
L 271.258092 54.716979 
L 288.823985 54.614085 
L 288.823985 54.596936 
L 301.111126 54.494042 
L 301.111126 54.476893 
L 317.419103 54.374 
L 317.419103 54.356851 
L 349.743042 54.253957 
L 349.743042 54.236808 
L 390.490523 54.133915 
L 390.490523 54.116766 
L 393.545461 54.013872 
L 393.635312 53.979574 
L 394.331659 53.89383 
L 394.399047 53.842383 
L 395.746814 53.739489 
L 395.746814 53.72234 
L 396.712713 53.619447 
L 396.802564 53.585149 
L 398.487273 53.568 
L 398.487273 53.568 
" clip-path="url(#pb4a6e0a90f)" style="fill: none; stroke: #0000cd; stroke-width: 1.5; stroke-linecap: square"/>
   </g>
   <g id="patch_3">
    <path d="M 57.6 307.584 
L 57.6 41.472 
" style="fill: none; stroke: #000000; stroke-width: 0.8; stroke-linejoin: miter; stroke-linecap: square"/>
   </g>
   <g id="patch_4">
    <path d="M 414.72 307.584 
L 414.72 41.472 
" style="fill: none; stroke: #000000; stroke-width: 0.8; stroke-linejoin: miter; stroke-linecap: square"/>
   </g>
   <g id="patch_5">
    <path d="M 57.6 307.584 
L 414.72 307.584 
" style="fill: none; stroke: #000000; stroke-width: 0.8; stroke-linejoin: miter; stroke-linecap: square"/>
   </g>
   <g id="patch_6">
    <path d="M 57.6 41.472 
L 414.72 41.472 
" style="fill: none; stroke: #000000; stroke-width: 0.8; stroke-linejoin: miter; stroke-linecap: square"/>
   </g>
   <g id="legend_1">
    <g id="patch_7">
     <path d="M 282.30125 302.584 
L 407.72 302.584 
Q 409.72 302.584 409.72 300.584 
L 409.72 242.8715 
Q 409.72 240.8715 407.72 240.8715 
L 282.30125 240.8715 
Q 280.30125 240.8715 280.30125 242.8715 
L 280.30125 300.584 
Q 280.30125 302.584 282.30125 302.584 
z
" style="fill: #ffffff; opacity: 0.8; stroke: #cccccc; stroke-linejoin: miter"/>
    </g>
    <g id="line2d_17">
     <path d="M 284.30125 248.969937 
L 294.30125 248.969937 
L 304.30125 248.969937 
" style="fill: none; stroke: #228b22; stroke-width: 1.5; stroke-linecap: square"/>
    </g>
    <g id="text_15">
     <!-- RC connected -->
     <g transform="translate(312.30125 252.469937) scale(0.1 -0.1)">
      <defs>
       <path id="DejaVuSans-52" d="M 2841 2188 
Q 3044 2119 3236 1894 
Q 3428 1669 3622 1275 
L 4263 0 
L 3584 0 
L 2988 1197 
Q 2756 1666 2539 1819 
Q 2322 1972 1947 1972 
L 1259 1972 
L 1259 0 
L 628 0 
L 628 4666 
L 2053 4666 
Q 2853 4666 3247 4331 
Q 3641 3997 3641 3322 
Q 3641 2881 3436 2590 
Q 3231 2300 2841 2188 
z
M 1259 4147 
L 1259 2491 
L 2053 2491 
Q 2509 2491 2742 2702 
Q 2975 2913 2975 3322 
Q 2975 3731 2742 3939 
Q 2509 4147 2053 4147 
L 1259 4147 
z
" transform="scale(0.015625)"/>
       <path id="DejaVuSans-43" d="M 4122 4306 
L 4122 3641 
Q 3803 3938 3442 4084 
Q 3081 4231 2675 4231 
Q 1875 4231 1450 3742 
Q 1025 3253 1025 2328 
Q 1025 1406 1450 917 
Q 1875 428 2675 428 
Q 3081 428 3442 575 
Q 3803 722 4122 1019 
L 4122 359 
Q 3791 134 3420 21 
Q 3050 -91 2638 -91 
Q 1578 -91 968 557 
Q 359 1206 359 2328 
Q 359 3453 968 4101 
Q 1578 4750 2638 4750 
Q 3056 4750 3426 4639 
Q 3797 4528 4122 4306 
z
" transform="scale(0.015625)"/>
       <path id="DejaVuSans-63" d="M 3122 3366 
L 3122 2828 
Q 2878 2963 2633 3030 
Q 2388 3097 2138 3097 
Q 1578 3097 1268 2742 
Q 959 2388 959 1747 
Q 959 1106 1268 751 
Q 1578 397 2138 397 
Q 2388 397 2633 464 
Q 2878 531 3122 666 
L 3122 134 
Q 2881 22 2623 -34 
Q 2366 -91 2075 -91 
Q 1284 -91 818 406 
Q 353 903 353 1747 
Q 353 2603 823 3093 
Q 1294 3584 2113 3584 
Q 2378 3584 2631 3529 
Q 2884 3475 3122 3366 
z
" transform="scale(0.015625)"/>
       <path id="DejaVuSans-6e" d="M 3513 2113 
L 3513 0 
L 2938 0 
L 2938 2094 
Q 2938 2591 2744 2837 
Q 2550 3084 2163 3084 
Q 1697 3084 1428 2787 
Q 1159 2491 1159 1978 
L 1159 0 
L 581 0 
L 581 3500 
L 1159 3500 
L 1159 2956 
Q 1366 3272 1645 3428 
Q 1925 3584 2291 3584 
Q 2894 3584 3203 3211 
Q 3513 2838 3513 2113 
z
" transform="scale(0.015625)"/>
       <path id="DejaVuSans-64" d="M 2906 2969 
L 2906 4863 
L 3481 4863 
L 3481 0 
L 2906 0 
L 2906 525 
Q 2725 213 2448 61 
Q 2172 -91 1784 -91 
Q 1150 -91 751 415 
Q 353 922 353 1747 
Q 353 2572 751 3078 
Q 1150 3584 1784 3584 
Q 2172 3584 2448 3432 
Q 2725 3281 2906 2969 
z
M 947 1747 
Q 947 1113 1208 752 
Q 1469 391 1925 391 
Q 2381 391 2643 752 
Q 2906 1113 2906 1747 
Q 2906 2381 2643 2742 
Q 2381 3103 1925 3103 
Q 1469 3103 1208 2742 
Q 947 2381 947 1747 
z
" transform="scale(0.015625)"/>
      </defs>
      <use xlink:href="#DejaVuSans-52"/>
      <use xlink:href="#DejaVuSans-43" x="64.482422"/>
      <use xlink:href="#DejaVuSans-20" x="134.306641"/>
      <use xlink:href="#DejaVuSans-63" x="166.09375"/>
      <use xlink:href="#DejaVuSans-6f" x="221.074219"/>
      <use xlink:href="#DejaVuSans-6e" x="282.255859"/>
      <use xlink:href="#DejaVuSans-6e" x="345.634766"/>
      <use xlink:href="#DejaVuSans-65" x="409.013672"/>
      <use xlink:href="#DejaVuSans-63" x="470.537109"/>
      <use xlink:href="#DejaVuSans-74" x="525.517578"/>
      <use xlink:href="#DejaVuSans-65" x="564.726562"/>
      <use xlink:href="#DejaVuSans-64" x="626.25"/>
     </g>
    </g>
    <g id="line2d_18">
     <path d="M 284.30125 263.648062 
L 294.30125 263.648062 
L 304.30125 263.648062 
" style="fill: none; stroke: #800080; stroke-width: 1.5; stroke-linecap: square"/>
    </g>
    <g id="text_16">
     <!-- RC aggregated -->
     <g transform="translate(312.30125 267.148062) scale(0.1 -0.1)">
      <defs>
       <path id="DejaVuSans-67" d="M 2906 1791 
Q 2906 2416 2648 2759 
Q 2391 3103 1925 3103 
Q 1463 3103 1205 2759 
Q 947 2416 947 1791 
Q 947 1169 1205 825 
Q 1463 481 1925 481 
Q 2391 481 2648 825 
Q 2906 1169 2906 1791 
z
M 3481 434 
Q 3481 -459 3084 -895 
Q 2688 -1331 1869 -1331 
Q 1566 -1331 1297 -1286 
Q 1028 -1241 775 -1147 
L 775 -588 
Q 1028 -725 1275 -790 
Q 1522 -856 1778 -856 
Q 2344 -856 2625 -561 
Q 2906 -266 2906 331 
L 2906 616 
Q 2728 306 2450 153 
Q 2172 0 1784 0 
Q 1141 0 747 490 
Q 353 981 353 1791 
Q 353 2603 747 3093 
Q 1141 3584 1784 3584 
Q 2172 3584 2450 3431 
Q 2728 3278 2906 2969 
L 2906 3500 
L 3481 3500 
L 3481 434 
z
" transform="scale(0.015625)"/>
      </defs>
      <use xlink:href="#DejaVuSans-52"/>
      <use xlink:href="#DejaVuSans-43" x="64.482422"/>
      <use xlink:href="#DejaVuSans-20" x="134.306641"/>
      <use xlink:href="#DejaVuSans-61" x="166.09375"/>
      <use xlink:href="#DejaVuSans-67" x="227.373047"/>
      <use xlink:href="#DejaVuSans-67" x="290.849609"/>
      <use xlink:href="#DejaVuSans-72" x="354.326172"/>
      <use xlink:href="#DejaVuSans-65" x="393.189453"/>
      <use xlink:href="#DejaVuSans-67" x="454.712891"/>
      <use xlink:href="#DejaVuSans-61" x="518.189453"/>
      <use xlink:href="#DejaVuSans-74" x="579.46875"/>
      <use xlink:href="#DejaVuSans-65" x="618.677734"/>
      <use xlink:href="#DejaVuSans-64" x="680.201172"/>
     </g>
    </g>
    <g id="line2d_19">
     <path d="M 284.30125 278.326187 
L 294.30125 278.326187 
L 304.30125 278.326187 
" style="fill: none; stroke: #000000; stroke-width: 1.5; stroke-linecap: square"/>
    </g>
    <g id="text_17">
     <!-- Morgan fingerprint -->
     <g transform="translate(312.30125 281.826187) scale(0.1 -0.1)">
      <defs>
       <path id="DejaVuSans-4d" d="M 628 4666 
L 1569 4666 
L 2759 1491 
L 3956 4666 
L 4897 4666 
L 4897 0 
L 4281 0 
L 4281 4097 
L 3078 897 
L 2444 897 
L 1241 4097 
L 1241 0 
L 628 0 
L 628 4666 
z
" transform="scale(0.015625)"/>
       <path id="DejaVuSans-66" d="M 2375 4863 
L 2375 4384 
L 1825 4384 
Q 1516 4384 1395 4259 
Q 1275 4134 1275 3809 
L 1275 3500 
L 2222 3500 
L 2222 3053 
L 1275 3053 
L 1275 0 
L 697 0 
L 697 3053 
L 147 3053 
L 147 3500 
L 697 3500 
L 697 3744 
Q 697 4328 969 4595 
Q 1241 4863 1831 4863 
L 2375 4863 
z
" transform="scale(0.015625)"/>
      </defs>
      <use xlink:href="#DejaVuSans-4d"/>
      <use xlink:href="#DejaVuSans-6f" x="86.279297"/>
      <use xlink:href="#DejaVuSans-72" x="147.460938"/>
      <use xlink:href="#DejaVuSans-67" x="186.824219"/>
      <use xlink:href="#DejaVuSans-61" x="250.300781"/>
      <use xlink:href="#DejaVuSans-6e" x="311.580078"/>
      <use xlink:href="#DejaVuSans-20" x="374.958984"/>
      <use xlink:href="#DejaVuSans-66" x="406.746094"/>
      <use xlink:href="#DejaVuSans-69" x="441.951172"/>
      <use xlink:href="#DejaVuSans-6e" x="469.734375"/>
      <use xlink:href="#DejaVuSans-67" x="533.113281"/>
      <use xlink:href="#DejaVuSans-65" x="596.589844"/>
      <use xlink:href="#DejaVuSans-72" x="658.113281"/>
      <use xlink:href="#DejaVuSans-70" x="699.226562"/>
      <use xlink:href="#DejaVuSans-72" x="762.703125"/>
      <use xlink:href="#DejaVuSans-69" x="803.816406"/>
      <use xlink:href="#DejaVuSans-6e" x="831.599609"/>
      <use xlink:href="#DejaVuSans-74" x="894.978516"/>
     </g>
    </g>
    <g id="line2d_20">
     <path d="M 284.30125 293.004312 
L 294.30125 293.004312 
L 304.30125 293.004312 
" style="fill: none; stroke: #0000cd; stroke-width: 1.5; stroke-linecap: square"/>
    </g>
    <g id="text_18">
     <!-- Bag of molecules -->
     <g transform="translate(312.30125 296.504312) scale(0.1 -0.1)">
      <defs>
       <path id="DejaVuSans-42" d="M 1259 2228 
L 1259 519 
L 2272 519 
Q 2781 519 3026 730 
Q 3272 941 3272 1375 
Q 3272 1813 3026 2020 
Q 2781 2228 2272 2228 
L 1259 2228 
z
M 1259 4147 
L 1259 2741 
L 2194 2741 
Q 2656 2741 2882 2914 
Q 3109 3088 3109 3444 
Q 3109 3797 2882 3972 
Q 2656 4147 2194 4147 
L 1259 4147 
z
M 628 4666 
L 2241 4666 
Q 2963 4666 3353 4366 
Q 3744 4066 3744 3513 
Q 3744 3084 3544 2831 
Q 3344 2578 2956 2516 
Q 3422 2416 3680 2098 
Q 3938 1781 3938 1306 
Q 3938 681 3513 340 
Q 3088 0 2303 0 
L 628 0 
L 628 4666 
z
" transform="scale(0.015625)"/>
       <path id="DejaVuSans-6d" d="M 3328 2828 
Q 3544 3216 3844 3400 
Q 4144 3584 4550 3584 
Q 5097 3584 5394 3201 
Q 5691 2819 5691 2113 
L 5691 0 
L 5113 0 
L 5113 2094 
Q 5113 2597 4934 2840 
Q 4756 3084 4391 3084 
Q 3944 3084 3684 2787 
Q 3425 2491 3425 1978 
L 3425 0 
L 2847 0 
L 2847 2094 
Q 2847 2600 2669 2842 
Q 2491 3084 2119 3084 
Q 1678 3084 1418 2786 
Q 1159 2488 1159 1978 
L 1159 0 
L 581 0 
L 581 3500 
L 1159 3500 
L 1159 2956 
Q 1356 3278 1631 3431 
Q 1906 3584 2284 3584 
Q 2666 3584 2933 3390 
Q 3200 3197 3328 2828 
z
" transform="scale(0.015625)"/>
      </defs>
      <use xlink:href="#DejaVuSans-42"/>
      <use xlink:href="#DejaVuSans-61" x="68.603516"/>
      <use xlink:href="#DejaVuSans-67" x="129.882812"/>
      <use xlink:href="#DejaVuSans-20" x="193.359375"/>
      <use xlink:href="#DejaVuSans-6f" x="225.146484"/>
      <use xlink:href="#DejaVuSans-66" x="286.328125"/>
      <use xlink:href="#DejaVuSans-20" x="321.533203"/>
      <use xlink:href="#DejaVuSans-6d" x="353.320312"/>
      <use xlink:href="#DejaVuSans-6f" x="450.732422"/>
      <use xlink:href="#DejaVuSans-6c" x="511.914062"/>
      <use xlink:href="#DejaVuSans-65" x="539.697266"/>
      <use xlink:href="#DejaVuSans-63" x="601.220703"/>
      <use xlink:href="#DejaVuSans-75" x="656.201172"/>
      <use xlink:href="#DejaVuSans-6c" x="719.580078"/>
      <use xlink:href="#DejaVuSans-65" x="747.363281"/>
      <use xlink:href="#DejaVuSans-73" x="808.886719"/>
     </g>
    </g>
   </g>
  </g>
 </g>
 <defs>
  <clipPath id="pb4a6e0a90f">
   <rect x="57.6" y="41.472" width="357.12" height="266.112"/>
  </clipPath>
 </defs>
</svg>
