<svg xmlns="http://www.w3.org/2000/svg" xmlns:rdkit="http://www.rdkit.org/xml" xmlns:xlink="http://www.w3.org/1999/xlink" version="1.1" baseProfile="full" xml:space="preserve" width="300px" height="200px" viewBox="0 0 300 200">
<!-- END OF HEADER -->
<rect style="opacity:1.0;fill:#FFFFFF;stroke:none" width="300.0" height="200.0" x="0.0" y="0.0"> </rect>
<ellipse cx="67.2" cy="132.3" rx="11.3" ry="11.3" class="atom-1" style="fill:#19CC19B2;fill-rule:evenodd;stroke:#19CC19B2;stroke-width:1.0px;stroke-linecap:butt;stroke-linejoin:miter;stroke-opacity:1"/>
<path class="bond-0 atom-0 atom-1" d="M 29.2,107.4 L 48.2,119.9" style="fill:none;fill-rule:evenodd;stroke:#FF0000;stroke-width:2.0px;stroke-linecap:butt;stroke-linejoin:miter;stroke-opacity:1"/>
<path class="bond-0 atom-0 atom-1" d="M 48.2,119.9 L 67.2,132.3" style="fill:none;fill-rule:evenodd;stroke:#000000;stroke-width:2.0px;stroke-linecap:butt;stroke-linejoin:miter;stroke-opacity:1"/>
<path class="bond-0 atom-0 atom-1" d="M 33.9,100.3 L 52.9,112.8" style="fill:none;fill-rule:evenodd;stroke:#FF0000;stroke-width:2.0px;stroke-linecap:butt;stroke-linejoin:miter;stroke-opacity:1"/>
<path class="bond-0 atom-0 atom-1" d="M 52.9,112.8 L 67.8,122.6" style="fill:none;fill-rule:evenodd;stroke:#000000;stroke-width:2.0px;stroke-linecap:butt;stroke-linejoin:miter;stroke-opacity:1"/>
<path class="bond-1 atom-1 atom-2" d="M 67.2,132.3 L 117.7,106.9" style="fill:none;fill-rule:evenodd;stroke:#000000;stroke-width:2.0px;stroke-linecap:butt;stroke-linejoin:miter;stroke-opacity:1"/>
<path class="bond-2 atom-2 atom-3" d="M 117.7,106.9 L 164.9,138.0" style="fill:none;fill-rule:evenodd;stroke:#000000;stroke-width:2.0px;stroke-linecap:butt;stroke-linejoin:miter;stroke-opacity:1"/>
<path class="bond-3 atom-3 atom-4" d="M 164.9,138.0 L 215.4,112.6" style="fill:none;fill-rule:evenodd;stroke:#000000;stroke-width:2.0px;stroke-linecap:butt;stroke-linejoin:miter;stroke-opacity:1"/>
<path class="bond-4 atom-4 atom-5" d="M 219.5,115.3 L 220.9,90.9" style="fill:none;fill-rule:evenodd;stroke:#000000;stroke-width:2.0px;stroke-linecap:butt;stroke-linejoin:miter;stroke-opacity:1"/>
<path class="bond-4 atom-4 atom-5" d="M 220.9,90.9 L 222.3,66.6" style="fill:none;fill-rule:evenodd;stroke:#FF0000;stroke-width:2.0px;stroke-linecap:butt;stroke-linejoin:miter;stroke-opacity:1"/>
<path class="bond-4 atom-4 atom-5" d="M 211.0,114.8 L 212.4,90.4" style="fill:none;fill-rule:evenodd;stroke:#000000;stroke-width:2.0px;stroke-linecap:butt;stroke-linejoin:miter;stroke-opacity:1"/>
<path class="bond-4 atom-4 atom-5" d="M 212.4,90.4 L 213.8,66.1" style="fill:none;fill-rule:evenodd;stroke:#FF0000;stroke-width:2.0px;stroke-linecap:butt;stroke-linejoin:miter;stroke-opacity:1"/>
<path class="bond-5 atom-4 atom-6" d="M 215.4,112.6 L 234.4,125.1" style="fill:none;fill-rule:evenodd;stroke:#000000;stroke-width:2.0px;stroke-linecap:butt;stroke-linejoin:miter;stroke-opacity:1"/>
<path class="bond-5 atom-4 atom-6" d="M 234.4,125.1 L 253.4,137.5" style="fill:none;fill-rule:evenodd;stroke:#FF0000;stroke-width:2.0px;stroke-linecap:butt;stroke-linejoin:miter;stroke-opacity:1"/>
<path d="M 66.3,131.7 L 67.2,132.3 L 69.8,131.1" style="fill:none;stroke:#000000;stroke-width:2.0px;stroke-linecap:butt;stroke-linejoin:miter;stroke-opacity:1;"/>
<path d="M 115.2,108.2 L 117.7,106.9 L 120.1,108.5" style="fill:none;stroke:#000000;stroke-width:2.0px;stroke-linecap:butt;stroke-linejoin:miter;stroke-opacity:1;"/>
<path d="M 162.6,136.4 L 164.9,138.0 L 167.5,136.7" style="fill:none;stroke:#000000;stroke-width:2.0px;stroke-linecap:butt;stroke-linejoin:miter;stroke-opacity:1;"/>
<path d="M 212.9,113.8 L 215.4,112.6 L 216.4,113.2" style="fill:none;stroke:#000000;stroke-width:2.0px;stroke-linecap:butt;stroke-linejoin:miter;stroke-opacity:1;"/>
<path class="atom-0" d="M 15.0 97.8 Q 15.0 94.0, 16.9 91.8 Q 18.8 89.7, 22.3 89.7 Q 25.9 89.7, 27.8 91.8 Q 29.7 94.0, 29.7 97.8 Q 29.7 101.7, 27.8 103.9 Q 25.8 106.1, 22.3 106.1 Q 18.8 106.1, 16.9 103.9 Q 15.0 101.7, 15.0 97.8 M 22.3 104.3 Q 24.8 104.3, 26.1 102.7 Q 27.4 101.0, 27.4 97.8 Q 27.4 94.7, 26.1 93.1 Q 24.8 91.5, 22.3 91.5 Q 19.9 91.5, 18.6 93.1 Q 17.3 94.7, 17.3 97.8 Q 17.3 101.1, 18.6 102.7 Q 19.9 104.3, 22.3 104.3 " fill="#FF0000"/>
<path class="atom-5" d="M 211.3 56.2 Q 211.3 52.4, 213.2 50.2 Q 215.1 48.1, 218.7 48.1 Q 222.2 48.1, 224.1 50.2 Q 226.0 52.4, 226.0 56.2 Q 226.0 60.1, 224.1 62.3 Q 222.2 64.5, 218.7 64.5 Q 215.1 64.5, 213.2 62.3 Q 211.3 60.1, 211.3 56.2 M 218.7 62.7 Q 221.1 62.7, 222.4 61.1 Q 223.7 59.4, 223.7 56.2 Q 223.7 53.1, 222.4 51.5 Q 221.1 49.9, 218.7 49.9 Q 216.2 49.9, 214.9 51.5 Q 213.6 53.0, 213.6 56.2 Q 213.6 59.4, 214.9 61.1 Q 216.2 62.7, 218.7 62.7 " fill="#FF0000"/>
<path class="atom-6" d="M 255.3 143.6 Q 255.3 139.8, 257.2 137.6 Q 259.1 135.5, 262.6 135.5 Q 266.2 135.5, 268.1 137.6 Q 270.0 139.8, 270.0 143.6 Q 270.0 147.5, 268.1 149.7 Q 266.1 151.9, 262.6 151.9 Q 259.1 151.9, 257.2 149.7 Q 255.3 147.5, 255.3 143.6 M 262.6 150.1 Q 265.1 150.1, 266.4 148.5 Q 267.7 146.8, 267.7 143.6 Q 267.7 140.5, 266.4 138.9 Q 265.1 137.3, 262.6 137.3 Q 260.2 137.3, 258.9 138.9 Q 257.6 140.5, 257.6 143.6 Q 257.6 146.9, 258.9 148.5 Q 260.2 150.1, 262.6 150.1 " fill="#FF0000"/>
<path class="atom-6" d="M 272.5 135.7 L 274.6 135.7 L 274.6 142.5 L 282.8 142.5 L 282.8 135.7 L 285.0 135.7 L 285.0 151.7 L 282.8 151.7 L 282.8 144.3 L 274.6 144.3 L 274.6 151.7 L 272.5 151.7 L 272.5 135.7 " fill="#FF0000"/>
</svg>