<?xml version='1.0' encoding='ASCII' standalone='yes'?>
<svg xmlns="http://www.w3.org/2000/svg" xmlns:xlink="http://www.w3.org/1999/xlink" version="1.1" width="600.0px" viewBox="0 0 600.0 200.0" height="200.0px">
  <g>
    <g transform="translate(0, 0) scale(1 1) "><!-- END OF HEADER -->
<rect style="opacity:1.0;fill:#FFFFFF;stroke:none" width="215.0" height="200.0" x="0.0" y="0.0"> </rect>
<path class="bond-0 atom-0 atom-1" d="M 175.6,69.0 L 180.6,74.9 L 154.4,96.9 L 150.1,95.3 L 149.4,90.9 Z" style="fill:#B2E599;fill-rule:evenodd;fill-opacity:1;stroke:#B2E599;stroke-width:0.0px;stroke-linecap:butt;stroke-linejoin:miter;stroke-opacity:1;"/>
<path class="bond-1 atom-1 atom-2" d="M 150.1,95.3 L 154.4,96.9 L 160.2,130.6 L 152.6,131.9 L 146.7,98.2 Z" style="fill:#B2E599;fill-rule:evenodd;fill-opacity:1;stroke:#B2E599;stroke-width:0.0px;stroke-linecap:butt;stroke-linejoin:miter;stroke-opacity:1;"/>
<path class="bond-2 atom-1 atom-3" d="M 115.1,78.4 L 149.4,90.9 L 150.1,95.3 L 146.7,98.2 L 116.7,87.2 Z" style="fill:#B2E599;fill-rule:evenodd;fill-opacity:1;stroke:#B2E599;stroke-width:0.0px;stroke-linecap:butt;stroke-linejoin:miter;stroke-opacity:1;"/>
<path class="bond-3 atom-3 atom-4" d="M 115.1,78.4 L 116.7,87.2 L 90.4,109.2 L 85.4,103.2 Z" style="fill:#B2E599;fill-rule:evenodd;fill-opacity:1;stroke:#B2E599;stroke-width:0.0px;stroke-linecap:butt;stroke-linejoin:miter;stroke-opacity:1;"/>
<ellipse cx="186.4" cy="74.5" rx="17.3" ry="11.0" class="atom-0" style="fill:#B2E599;fill-rule:evenodd;stroke:#B2E599;stroke-width:1.0px;stroke-linecap:butt;stroke-linejoin:miter;stroke-opacity:1"/>
<ellipse cx="150.1" cy="95.3" rx="7.3" ry="7.3" class="atom-1" style="fill:#B2E599;fill-rule:evenodd;stroke:#B2E599;stroke-width:1.0px;stroke-linecap:butt;stroke-linejoin:miter;stroke-opacity:1"/>
<ellipse cx="156.4" cy="131.3" rx="7.3" ry="7.5" class="atom-2" style="fill:#B2E599;fill-rule:evenodd;stroke:#B2E599;stroke-width:1.0px;stroke-linecap:butt;stroke-linejoin:miter;stroke-opacity:1"/>
<ellipse cx="115.9" cy="82.8" rx="7.3" ry="7.3" class="atom-3" style="fill:#B2E599;fill-rule:evenodd;stroke:#B2E599;stroke-width:1.0px;stroke-linecap:butt;stroke-linejoin:miter;stroke-opacity:1"/>
<ellipse cx="87.9" cy="106.2" rx="7.3" ry="7.3" class="atom-4" style="fill:#B2E599;fill-rule:evenodd;stroke:#B2E599;stroke-width:1.0px;stroke-linecap:butt;stroke-linejoin:miter;stroke-opacity:1"/>
<path class="bond-0 atom-0 atom-1" d="M 173.0,76.2 L 161.6,85.8" style="fill:none;fill-rule:evenodd;stroke:#0000FF;stroke-width:2.0px;stroke-linecap:butt;stroke-linejoin:miter;stroke-opacity:1"/>
<path class="bond-0 atom-0 atom-1" d="M 161.6,85.8 L 150.1,95.3" style="fill:none;fill-rule:evenodd;stroke:#000000;stroke-width:2.0px;stroke-linecap:butt;stroke-linejoin:miter;stroke-opacity:1"/>
<path class="bond-1 atom-1 atom-2" d="M 147.2,94.3 L 149.9,109.8" style="fill:none;fill-rule:evenodd;stroke:#000000;stroke-width:2.0px;stroke-linecap:butt;stroke-linejoin:miter;stroke-opacity:1"/>
<path class="bond-1 atom-1 atom-2" d="M 149.9,109.8 L 152.6,125.3" style="fill:none;fill-rule:evenodd;stroke:#FF0000;stroke-width:2.0px;stroke-linecap:butt;stroke-linejoin:miter;stroke-opacity:1"/>
<path class="bond-1 atom-1 atom-2" d="M 152.6,93.3 L 155.3,108.8" style="fill:none;fill-rule:evenodd;stroke:#000000;stroke-width:2.0px;stroke-linecap:butt;stroke-linejoin:miter;stroke-opacity:1"/>
<path class="bond-1 atom-1 atom-2" d="M 155.3,108.8 L 158.0,124.4" style="fill:none;fill-rule:evenodd;stroke:#FF0000;stroke-width:2.0px;stroke-linecap:butt;stroke-linejoin:miter;stroke-opacity:1"/>
<path class="bond-2 atom-1 atom-3" d="M 150.1,95.3 L 115.9,82.8" style="fill:none;fill-rule:evenodd;stroke:#000000;stroke-width:2.0px;stroke-linecap:butt;stroke-linejoin:miter;stroke-opacity:1"/>
<path class="bond-3 atom-3 atom-4" d="M 115.9,82.8 L 87.9,106.2" style="fill:none;fill-rule:evenodd;stroke:#000000;stroke-width:2.0px;stroke-linecap:butt;stroke-linejoin:miter;stroke-opacity:1"/>
<path class="bond-4 atom-4 atom-5" d="M 84.9,105.1 L 87.7,120.6" style="fill:none;fill-rule:evenodd;stroke:#000000;stroke-width:2.0px;stroke-linecap:butt;stroke-linejoin:miter;stroke-opacity:1"/>
<path class="bond-4 atom-4 atom-5" d="M 87.7,120.6 L 90.4,136.2" style="fill:none;fill-rule:evenodd;stroke:#FF0000;stroke-width:2.0px;stroke-linecap:butt;stroke-linejoin:miter;stroke-opacity:1"/>
<path class="bond-4 atom-4 atom-5" d="M 90.3,104.2 L 93.0,119.7" style="fill:none;fill-rule:evenodd;stroke:#000000;stroke-width:2.0px;stroke-linecap:butt;stroke-linejoin:miter;stroke-opacity:1"/>
<path class="bond-4 atom-4 atom-5" d="M 93.0,119.7 L 95.7,135.2" style="fill:none;fill-rule:evenodd;stroke:#FF0000;stroke-width:2.0px;stroke-linecap:butt;stroke-linejoin:miter;stroke-opacity:1"/>
<path class="bond-5 atom-4 atom-6" d="M 87.9,106.2 L 53.7,93.6" style="fill:none;fill-rule:evenodd;stroke:#000000;stroke-width:2.0px;stroke-linecap:butt;stroke-linejoin:miter;stroke-opacity:1"/>
<path class="bond-6 atom-6 atom-7" d="M 56.6,94.7 L 53.9,79.3" style="fill:none;fill-rule:evenodd;stroke:#000000;stroke-width:2.0px;stroke-linecap:butt;stroke-linejoin:miter;stroke-opacity:1"/>
<path class="bond-6 atom-6 atom-7" d="M 53.9,79.3 L 51.3,63.8" style="fill:none;fill-rule:evenodd;stroke:#FF0000;stroke-width:2.0px;stroke-linecap:butt;stroke-linejoin:miter;stroke-opacity:1"/>
<path class="bond-6 atom-6 atom-7" d="M 51.2,95.7 L 48.6,80.2" style="fill:none;fill-rule:evenodd;stroke:#000000;stroke-width:2.0px;stroke-linecap:butt;stroke-linejoin:miter;stroke-opacity:1"/>
<path class="bond-6 atom-6 atom-7" d="M 48.6,80.2 L 45.9,64.8" style="fill:none;fill-rule:evenodd;stroke:#FF0000;stroke-width:2.0px;stroke-linecap:butt;stroke-linejoin:miter;stroke-opacity:1"/>
<path class="bond-7 atom-6 atom-8" d="M 53.7,93.6 L 42.7,102.9" style="fill:none;fill-rule:evenodd;stroke:#000000;stroke-width:2.0px;stroke-linecap:butt;stroke-linejoin:miter;stroke-opacity:1"/>
<path class="bond-7 atom-6 atom-8" d="M 42.7,102.9 L 31.6,112.1" style="fill:none;fill-rule:evenodd;stroke:#FF0000;stroke-width:2.0px;stroke-linecap:butt;stroke-linejoin:miter;stroke-opacity:1"/>
<path d="M 150.7,94.9 L 150.1,95.3 L 148.4,94.7" style="fill:none;stroke:#000000;stroke-width:2.0px;stroke-linecap:butt;stroke-linejoin:miter;stroke-opacity:1;"/>
<path d="M 117.6,83.4 L 115.9,82.8 L 114.5,84.0" style="fill:none;stroke:#000000;stroke-width:2.0px;stroke-linecap:butt;stroke-linejoin:miter;stroke-opacity:1;"/>
<path d="M 89.3,105.0 L 87.9,106.2 L 86.2,105.6" style="fill:none;stroke:#000000;stroke-width:2.0px;stroke-linecap:butt;stroke-linejoin:miter;stroke-opacity:1;"/>
<path d="M 55.4,94.3 L 53.7,93.6 L 53.1,94.1" style="fill:none;stroke:#000000;stroke-width:2.0px;stroke-linecap:butt;stroke-linejoin:miter;stroke-opacity:1;"/>
<path class="atom-0" d="M 175.8 66.8 L 179.2 72.3 Q 179.6 72.8, 180.1 73.8 Q 180.6 74.8, 180.7 74.8 L 180.7 66.8 L 182.0 66.8 L 182.0 77.1 L 180.6 77.1 L 177.0 71.1 Q 176.6 70.4, 176.1 69.6 Q 175.7 68.8, 175.5 68.6 L 175.5 77.1 L 174.2 77.1 L 174.2 66.8 L 175.8 66.8 " fill="#0000FF"/>
<path class="atom-0" d="M 184.0 66.8 L 185.4 66.8 L 185.4 71.2 L 190.7 71.2 L 190.7 66.8 L 192.1 66.8 L 192.1 77.1 L 190.7 77.1 L 190.7 72.4 L 185.4 72.4 L 185.4 77.1 L 184.0 77.1 L 184.0 66.8 " fill="#0000FF"/>
<path class="atom-0" d="M 194.1 76.8 Q 194.4 76.1, 195.0 75.8 Q 195.6 75.4, 196.4 75.4 Q 197.4 75.4, 198.0 76.0 Q 198.6 76.5, 198.6 77.5 Q 198.6 78.5, 197.8 79.5 Q 197.1 80.4, 195.5 81.5 L 198.7 81.5 L 198.7 82.3 L 194.1 82.3 L 194.1 81.6 Q 195.4 80.7, 196.1 80.1 Q 196.9 79.4, 197.2 78.8 Q 197.6 78.2, 197.6 77.6 Q 197.6 76.9, 197.3 76.5 Q 196.9 76.2, 196.4 76.2 Q 195.8 76.2, 195.5 76.4 Q 195.1 76.6, 194.8 77.1 L 194.1 76.8 " fill="#0000FF"/>
<path class="atom-2" d="M 151.7 131.3 Q 151.7 128.8, 152.9 127.4 Q 154.1 126.0, 156.4 126.0 Q 158.7 126.0, 159.9 127.4 Q 161.1 128.8, 161.1 131.3 Q 161.1 133.8, 159.9 135.2 Q 158.7 136.7, 156.4 136.7 Q 154.1 136.7, 152.9 135.2 Q 151.7 133.8, 151.7 131.3 M 156.4 135.5 Q 158.0 135.5, 158.8 134.4 Q 159.7 133.4, 159.7 131.3 Q 159.7 129.3, 158.8 128.3 Q 158.0 127.2, 156.4 127.2 Q 154.8 127.2, 154.0 128.2 Q 153.1 129.3, 153.1 131.3 Q 153.1 133.4, 154.0 134.4 Q 154.8 135.5, 156.4 135.5 " fill="#FF0000"/>
<path class="atom-5" d="M 89.4 142.1 Q 89.4 139.7, 90.7 138.3 Q 91.9 136.9, 94.2 136.9 Q 96.5 136.9, 97.7 138.3 Q 98.9 139.7, 98.9 142.1 Q 98.9 144.7, 97.7 146.1 Q 96.4 147.5, 94.2 147.5 Q 91.9 147.5, 90.7 146.1 Q 89.4 144.7, 89.4 142.1 M 94.2 146.3 Q 95.7 146.3, 96.6 145.3 Q 97.5 144.2, 97.5 142.1 Q 97.5 140.1, 96.6 139.1 Q 95.7 138.1, 94.2 138.1 Q 92.6 138.1, 91.7 139.1 Q 90.9 140.1, 90.9 142.1 Q 90.9 144.2, 91.7 145.3 Q 92.6 146.3, 94.2 146.3 " fill="#FF0000"/>
<path class="atom-7" d="M 42.7 57.8 Q 42.7 55.3, 43.9 53.9 Q 45.1 52.5, 47.4 52.5 Q 49.7 52.5, 50.9 53.9 Q 52.1 55.3, 52.1 57.8 Q 52.1 60.3, 50.9 61.7 Q 49.7 63.1, 47.4 63.1 Q 45.1 63.1, 43.9 61.7 Q 42.7 60.3, 42.7 57.8 M 47.4 61.9 Q 49.0 61.9, 49.8 60.9 Q 50.7 59.8, 50.7 57.8 Q 50.7 55.7, 49.8 54.7 Q 49.0 53.7, 47.4 53.7 Q 45.8 53.7, 45.0 54.7 Q 44.1 55.7, 44.1 57.8 Q 44.1 59.8, 45.0 60.9 Q 45.8 61.9, 47.4 61.9 " fill="#FF0000"/>
<path class="atom-8" d="M 10.7 111.9 L 12.2 111.9 L 12.2 116.3 L 17.4 116.3 L 17.4 111.9 L 18.8 111.9 L 18.8 122.3 L 17.4 122.3 L 17.4 117.5 L 12.2 117.5 L 12.2 122.3 L 10.7 122.3 L 10.7 111.9 " fill="#FF0000"/>
<path class="atom-8" d="M 20.9 117.1 Q 20.9 114.6, 22.2 113.2 Q 23.4 111.8, 25.7 111.8 Q 28.0 111.8, 29.2 113.2 Q 30.4 114.6, 30.4 117.1 Q 30.4 119.6, 29.2 121.0 Q 28.0 122.4, 25.7 122.4 Q 23.4 122.4, 22.2 121.0 Q 20.9 119.6, 20.9 117.1 M 25.7 121.2 Q 27.3 121.2, 28.1 120.2 Q 29.0 119.1, 29.0 117.1 Q 29.0 115.0, 28.1 114.0 Q 27.3 113.0, 25.7 113.0 Q 24.1 113.0, 23.3 114.0 Q 22.4 115.0, 22.4 117.1 Q 22.4 119.1, 23.3 120.2 Q 24.1 121.2, 25.7 121.2 " fill="#FF0000"/>
</g>
    <g transform="translate(255.0, 0) scale(1 1) "><!-- END OF HEADER -->
<rect style="opacity:1.0;fill:#FFFFFF;stroke:none" width="25.0" height="200.0" x="0.0" y="0.0"> </rect>
<ellipse cx="12.3" cy="100.0" rx="11.0" ry="6.7" class="atom-0" style="fill:#B2E599;fill-rule:evenodd;stroke:#B2E599;stroke-width:1.0px;stroke-linecap:butt;stroke-linejoin:miter;stroke-opacity:1"/>
<path class="atom-0" d="M 4.5 95.3 L 5.3 95.3 L 5.3 98.0 L 8.5 98.0 L 8.5 95.3 L 9.4 95.3 L 9.4 101.6 L 8.5 101.6 L 8.5 98.7 L 5.3 98.7 L 5.3 101.6 L 4.5 101.6 L 4.5 95.3 " fill="#FF0000"/>
<path class="atom-0" d="M 10.6 101.4 Q 10.8 101.0, 11.2 100.8 Q 11.5 100.6, 12.0 100.6 Q 12.6 100.6, 13.0 100.9 Q 13.4 101.2, 13.4 101.8 Q 13.4 102.4, 12.9 103.0 Q 12.4 103.6, 11.5 104.3 L 13.4 104.3 L 13.4 104.7 L 10.6 104.7 L 10.6 104.3 Q 11.4 103.8, 11.9 103.4 Q 12.3 103.0, 12.5 102.6 Q 12.8 102.2, 12.8 101.9 Q 12.8 101.5, 12.6 101.2 Q 12.4 101.0, 12.0 101.0 Q 11.7 101.0, 11.5 101.2 Q 11.2 101.3, 11.1 101.6 L 10.6 101.4 " fill="#FF0000"/>
<path class="atom-0" d="M 14.3 98.4 Q 14.3 96.9, 15.0 96.1 Q 15.8 95.3, 17.1 95.3 Q 18.5 95.3, 19.3 96.1 Q 20.0 96.9, 20.0 98.4 Q 20.0 100.0, 19.3 100.8 Q 18.5 101.7, 17.1 101.7 Q 15.8 101.7, 15.0 100.8 Q 14.3 100.0, 14.3 98.4 M 17.1 101.0 Q 18.1 101.0, 18.6 100.4 Q 19.1 99.7, 19.1 98.4 Q 19.1 97.2, 18.6 96.6 Q 18.1 96.0, 17.1 96.0 Q 16.2 96.0, 15.7 96.6 Q 15.2 97.2, 15.2 98.4 Q 15.2 99.7, 15.7 100.4 Q 16.2 101.0, 17.1 101.0 " fill="#FF0000"/>
</g>
    <g transform="translate(280.0, 0) scale(1 1) "><line x1="5" y1="100" x2="35" y2="100" style="stroke:rgb(0,0,0);stroke-width:2"/>
  <line x1="34" y1="100" x2="29" y2="95" style="stroke:rgb(0,0,0);stroke-width:2"/>
  <line x1="34" y1="100" x2="29" y2="105" style="stroke:rgb(0,0,0);stroke-width:2"/>
</g>
    <g transform="translate(320.0, 0) scale(1 1) "><!-- END OF HEADER -->
<rect style="opacity:1.0;fill:#FFFFFF;stroke:none" width="215.0" height="200.0" x="0.0" y="0.0"> </rect>
<path class="bond-0 atom-0 atom-1" d="M 155.6,95.2 L 159.9,96.8 L 166.0,131.8 L 158.1,133.2 L 152.0,98.2 Z" style="fill:#B2E599;fill-rule:evenodd;fill-opacity:1;stroke:#B2E599;stroke-width:0.0px;stroke-linecap:butt;stroke-linejoin:miter;stroke-opacity:1;"/>
<path class="bond-1 atom-1 atom-2" d="M 182.0,67.8 L 187.2,74.0 L 159.9,96.8 L 155.6,95.2 L 154.8,90.6 Z" style="fill:#B2E599;fill-rule:evenodd;fill-opacity:1;stroke:#B2E599;stroke-width:0.0px;stroke-linecap:butt;stroke-linejoin:miter;stroke-opacity:1;"/>
<path class="bond-2 atom-1 atom-3" d="M 119.2,77.5 L 154.8,90.6 L 155.6,95.2 L 152.0,98.2 L 120.8,86.7 Z" style="fill:#B2E599;fill-rule:evenodd;fill-opacity:1;stroke:#B2E599;stroke-width:0.0px;stroke-linecap:butt;stroke-linejoin:miter;stroke-opacity:1;"/>
<path class="bond-3 atom-3 atom-4" d="M 119.2,77.5 L 120.8,86.7 L 93.5,109.5 L 88.3,103.3 Z" style="fill:#B2E599;fill-rule:evenodd;fill-opacity:1;stroke:#B2E599;stroke-width:0.0px;stroke-linecap:butt;stroke-linejoin:miter;stroke-opacity:1;"/>
<ellipse cx="162.1" cy="132.6" rx="7.6" ry="7.8" class="atom-0" style="fill:#B2E599;fill-rule:evenodd;stroke:#B2E599;stroke-width:1.0px;stroke-linecap:butt;stroke-linejoin:miter;stroke-opacity:1"/>
<ellipse cx="155.6" cy="95.2" rx="7.6" ry="7.6" class="atom-1" style="fill:#B2E599;fill-rule:evenodd;stroke:#B2E599;stroke-width:1.0px;stroke-linecap:butt;stroke-linejoin:miter;stroke-opacity:1"/>
<ellipse cx="189.7" cy="71.0" rx="14.1" ry="7.8" class="atom-2" style="fill:#B2E599;fill-rule:evenodd;stroke:#B2E599;stroke-width:1.0px;stroke-linecap:butt;stroke-linejoin:miter;stroke-opacity:1"/>
<ellipse cx="120.0" cy="82.1" rx="7.6" ry="7.6" class="atom-3" style="fill:#B2E599;fill-rule:evenodd;stroke:#B2E599;stroke-width:1.0px;stroke-linecap:butt;stroke-linejoin:miter;stroke-opacity:1"/>
<ellipse cx="90.9" cy="106.4" rx="7.6" ry="7.6" class="atom-4" style="fill:#B2E599;fill-rule:evenodd;stroke:#B2E599;stroke-width:1.0px;stroke-linecap:butt;stroke-linejoin:miter;stroke-opacity:1"/>
<path class="bond-0 atom-0 atom-1" d="M 158.1,126.3 L 155.3,110.2" style="fill:none;fill-rule:evenodd;stroke:#FF0000;stroke-width:2.0px;stroke-linecap:butt;stroke-linejoin:miter;stroke-opacity:1"/>
<path class="bond-0 atom-0 atom-1" d="M 155.3,110.2 L 152.5,94.0" style="fill:none;fill-rule:evenodd;stroke:#000000;stroke-width:2.0px;stroke-linecap:butt;stroke-linejoin:miter;stroke-opacity:1"/>
<path class="bond-0 atom-0 atom-1" d="M 163.7,125.3 L 160.9,109.2" style="fill:none;fill-rule:evenodd;stroke:#FF0000;stroke-width:2.0px;stroke-linecap:butt;stroke-linejoin:miter;stroke-opacity:1"/>
<path class="bond-0 atom-0 atom-1" d="M 160.9,109.2 L 158.1,93.1" style="fill:none;fill-rule:evenodd;stroke:#000000;stroke-width:2.0px;stroke-linecap:butt;stroke-linejoin:miter;stroke-opacity:1"/>
<path class="bond-1 atom-1 atom-2" d="M 155.6,95.2 L 167.0,85.6" style="fill:none;fill-rule:evenodd;stroke:#000000;stroke-width:2.0px;stroke-linecap:butt;stroke-linejoin:miter;stroke-opacity:1"/>
<path class="bond-1 atom-1 atom-2" d="M 167.0,85.6 L 178.5,76.0" style="fill:none;fill-rule:evenodd;stroke:#FF0000;stroke-width:2.0px;stroke-linecap:butt;stroke-linejoin:miter;stroke-opacity:1"/>
<path class="bond-2 atom-1 atom-3" d="M 155.6,95.2 L 120.0,82.1" style="fill:none;fill-rule:evenodd;stroke:#000000;stroke-width:2.0px;stroke-linecap:butt;stroke-linejoin:miter;stroke-opacity:1"/>
<path class="bond-3 atom-3 atom-4" d="M 120.0,82.1 L 90.9,106.4" style="fill:none;fill-rule:evenodd;stroke:#000000;stroke-width:2.0px;stroke-linecap:butt;stroke-linejoin:miter;stroke-opacity:1"/>
<path class="bond-4 atom-4 atom-5" d="M 87.8,105.3 L 90.6,121.4" style="fill:none;fill-rule:evenodd;stroke:#000000;stroke-width:2.0px;stroke-linecap:butt;stroke-linejoin:miter;stroke-opacity:1"/>
<path class="bond-4 atom-4 atom-5" d="M 90.6,121.4 L 93.5,137.6" style="fill:none;fill-rule:evenodd;stroke:#FF0000;stroke-width:2.0px;stroke-linecap:butt;stroke-linejoin:miter;stroke-opacity:1"/>
<path class="bond-4 atom-4 atom-5" d="M 93.4,104.3 L 96.2,120.5" style="fill:none;fill-rule:evenodd;stroke:#000000;stroke-width:2.0px;stroke-linecap:butt;stroke-linejoin:miter;stroke-opacity:1"/>
<path class="bond-4 atom-4 atom-5" d="M 96.2,120.5 L 99.1,136.6" style="fill:none;fill-rule:evenodd;stroke:#FF0000;stroke-width:2.0px;stroke-linecap:butt;stroke-linejoin:miter;stroke-opacity:1"/>
<path class="bond-5 atom-4 atom-6" d="M 90.9,106.4 L 55.3,93.4" style="fill:none;fill-rule:evenodd;stroke:#000000;stroke-width:2.0px;stroke-linecap:butt;stroke-linejoin:miter;stroke-opacity:1"/>
<path class="bond-6 atom-6 atom-7" d="M 58.4,94.5 L 55.6,78.5" style="fill:none;fill-rule:evenodd;stroke:#000000;stroke-width:2.0px;stroke-linecap:butt;stroke-linejoin:miter;stroke-opacity:1"/>
<path class="bond-6 atom-6 atom-7" d="M 55.6,78.5 L 52.8,62.4" style="fill:none;fill-rule:evenodd;stroke:#FF0000;stroke-width:2.0px;stroke-linecap:butt;stroke-linejoin:miter;stroke-opacity:1"/>
<path class="bond-6 atom-6 atom-7" d="M 52.8,95.5 L 50.0,79.5" style="fill:none;fill-rule:evenodd;stroke:#000000;stroke-width:2.0px;stroke-linecap:butt;stroke-linejoin:miter;stroke-opacity:1"/>
<path class="bond-6 atom-6 atom-7" d="M 50.0,79.5 L 47.2,63.4" style="fill:none;fill-rule:evenodd;stroke:#FF0000;stroke-width:2.0px;stroke-linecap:butt;stroke-linejoin:miter;stroke-opacity:1"/>
<path class="bond-7 atom-6 atom-8" d="M 55.3,93.4 L 43.9,103.0" style="fill:none;fill-rule:evenodd;stroke:#000000;stroke-width:2.0px;stroke-linecap:butt;stroke-linejoin:miter;stroke-opacity:1"/>
<path class="bond-7 atom-6 atom-8" d="M 43.9,103.0 L 32.4,112.5" style="fill:none;fill-rule:evenodd;stroke:#FF0000;stroke-width:2.0px;stroke-linecap:butt;stroke-linejoin:miter;stroke-opacity:1"/>
<path d="M 156.1,94.7 L 155.6,95.2 L 153.8,94.5" style="fill:none;stroke:#000000;stroke-width:2.0px;stroke-linecap:butt;stroke-linejoin:miter;stroke-opacity:1;"/>
<path d="M 121.8,82.8 L 120.0,82.1 L 118.5,83.4" style="fill:none;stroke:#000000;stroke-width:2.0px;stroke-linecap:butt;stroke-linejoin:miter;stroke-opacity:1;"/>
<path d="M 92.4,105.2 L 90.9,106.4 L 89.1,105.8" style="fill:none;stroke:#000000;stroke-width:2.0px;stroke-linecap:butt;stroke-linejoin:miter;stroke-opacity:1;"/>
<path d="M 57.1,94.1 L 55.3,93.4 L 54.8,93.9" style="fill:none;stroke:#000000;stroke-width:2.0px;stroke-linecap:butt;stroke-linejoin:miter;stroke-opacity:1;"/>
<path class="atom-0" d="M 157.1 132.5 Q 157.1 129.9, 158.4 128.5 Q 159.7 127.1, 162.1 127.1 Q 164.4 127.1, 165.7 128.5 Q 167.0 129.9, 167.0 132.5 Q 167.0 135.1, 165.7 136.6 Q 164.4 138.1, 162.1 138.1 Q 159.7 138.1, 158.4 136.6 Q 157.1 135.1, 157.1 132.5 M 162.1 136.9 Q 163.7 136.9, 164.6 135.8 Q 165.5 134.7, 165.5 132.5 Q 165.5 130.4, 164.6 129.4 Q 163.7 128.3, 162.1 128.3 Q 160.4 128.3, 159.5 129.3 Q 158.7 130.4, 158.7 132.5 Q 158.7 134.7, 159.5 135.8 Q 160.4 136.9, 162.1 136.9 " fill="#FF0000"/>
<path class="atom-2" d="M 179.7 70.9 Q 179.7 68.3, 181.0 66.9 Q 182.3 65.4, 184.6 65.4 Q 187.0 65.4, 188.3 66.9 Q 189.6 68.3, 189.6 70.9 Q 189.6 73.5, 188.3 75.0 Q 187.0 76.5, 184.6 76.5 Q 182.3 76.5, 181.0 75.0 Q 179.7 73.5, 179.7 70.9 M 184.6 75.2 Q 186.3 75.2, 187.2 74.2 Q 188.0 73.1, 188.0 70.9 Q 188.0 68.8, 187.2 67.7 Q 186.3 66.7, 184.6 66.7 Q 183.0 66.7, 182.1 67.7 Q 181.2 68.8, 181.2 70.9 Q 181.2 73.1, 182.1 74.2 Q 183.0 75.2, 184.6 75.2 " fill="#FF0000"/>
<path class="atom-2" d="M 191.2 65.6 L 192.7 65.6 L 192.7 70.1 L 198.2 70.1 L 198.2 65.6 L 199.6 65.6 L 199.6 76.3 L 198.2 76.3 L 198.2 71.3 L 192.7 71.3 L 192.7 76.3 L 191.2 76.3 L 191.2 65.6 " fill="#FF0000"/>
<path class="atom-5" d="M 92.5 143.8 Q 92.5 141.2, 93.8 139.8 Q 95.0 138.3, 97.4 138.3 Q 99.8 138.3, 101.1 139.8 Q 102.3 141.2, 102.3 143.8 Q 102.3 146.4, 101.1 147.9 Q 99.8 149.3, 97.4 149.3 Q 95.1 149.3, 93.8 147.9 Q 92.5 146.4, 92.5 143.8 M 97.4 148.1 Q 99.1 148.1, 99.9 147.0 Q 100.8 145.9, 100.8 143.8 Q 100.8 141.7, 99.9 140.6 Q 99.1 139.5, 97.4 139.5 Q 95.8 139.5, 94.9 140.6 Q 94.0 141.7, 94.0 143.8 Q 94.0 146.0, 94.9 147.0 Q 95.8 148.1, 97.4 148.1 " fill="#FF0000"/>
<path class="atom-7" d="M 43.9 56.1 Q 43.9 53.5, 45.2 52.1 Q 46.5 50.7, 48.8 50.7 Q 51.2 50.7, 52.5 52.1 Q 53.8 53.5, 53.8 56.1 Q 53.8 58.7, 52.5 60.2 Q 51.2 61.7, 48.8 61.7 Q 46.5 61.7, 45.2 60.2 Q 43.9 58.7, 43.9 56.1 M 48.8 60.5 Q 50.5 60.5, 51.4 59.4 Q 52.2 58.3, 52.2 56.1 Q 52.2 54.0, 51.4 52.9 Q 50.5 51.9, 48.8 51.9 Q 47.2 51.9, 46.3 52.9 Q 45.4 54.0, 45.4 56.1 Q 45.4 58.3, 46.3 59.4 Q 47.2 60.5, 48.8 60.5 " fill="#FF0000"/>
<path class="atom-8" d="M 10.7 112.4 L 12.2 112.4 L 12.2 117.0 L 17.7 117.0 L 17.7 112.4 L 19.1 112.4 L 19.1 123.1 L 17.7 123.1 L 17.7 118.2 L 12.2 118.2 L 12.2 123.1 L 10.7 123.1 L 10.7 112.4 " fill="#FF0000"/>
<path class="atom-8" d="M 21.3 117.7 Q 21.3 115.2, 22.6 113.7 Q 23.9 112.3, 26.3 112.3 Q 28.7 112.3, 29.9 113.7 Q 31.2 115.2, 31.2 117.7 Q 31.2 120.3, 29.9 121.8 Q 28.6 123.3, 26.3 123.3 Q 23.9 123.3, 22.6 121.8 Q 21.3 120.3, 21.3 117.7 M 26.3 122.1 Q 27.9 122.1, 28.8 121.0 Q 29.7 119.9, 29.7 117.7 Q 29.7 115.6, 28.8 114.6 Q 27.9 113.5, 26.3 113.5 Q 24.6 113.5, 23.7 114.5 Q 22.9 115.6, 22.9 117.7 Q 22.9 119.9, 23.7 121.0 Q 24.6 122.1, 26.3 122.1 " fill="#FF0000"/>
</g>
    <g transform="translate(535.0, 0) scale(1 1) translate(215, 0) scale(1 1) "><line x1="15" y1="100" x2="25" y2="100" style="stroke:rgb(0,0,0);stroke-width:2"/>
  <line x1="20" y1="95" x2="20" y2="105" style="stroke:rgb(0,0,0);stroke-width:2"/>
</g>
    <g transform="translate(575.0, 0) scale(1 1) "><!-- END OF HEADER -->
<rect style="opacity:1.0;fill:#FFFFFF;stroke:none" width="25.0" height="200.0" x="0.0" y="0.0"> </rect>
<ellipse cx="12.2" cy="100.0" rx="11.0" ry="7.0" class="atom-0" style="fill:#B2E599;fill-rule:evenodd;stroke:#B2E599;stroke-width:1.0px;stroke-linecap:butt;stroke-linejoin:miter;stroke-opacity:1"/>
<path class="atom-0" d="M 5.5 95.0 L 7.7 98.5 Q 7.9 98.9, 8.2 99.5 Q 8.6 100.1, 8.6 100.1 L 8.6 95.0 L 9.5 95.0 L 9.5 101.6 L 8.6 101.6 L 6.2 97.8 Q 6.0 97.4, 5.7 96.9 Q 5.4 96.3, 5.3 96.2 L 5.3 101.6 L 4.5 101.6 L 4.5 95.0 L 5.5 95.0 " fill="#0000FF"/>
<path class="atom-0" d="M 10.7 95.0 L 11.6 95.0 L 11.6 97.8 L 15.0 97.8 L 15.0 95.0 L 15.8 95.0 L 15.8 101.6 L 15.0 101.6 L 15.0 98.6 L 11.6 98.6 L 11.6 101.6 L 10.7 101.6 L 10.7 95.0 " fill="#0000FF"/>
<path class="atom-0" d="M 19.2 102.6 Q 19.6 102.7, 19.8 103.0 Q 20.0 103.3, 20.0 103.7 Q 20.0 104.1, 19.8 104.4 Q 19.7 104.6, 19.3 104.8 Q 19.0 105.0, 18.5 105.0 Q 18.1 105.0, 17.7 104.8 Q 17.4 104.6, 17.1 104.3 L 17.5 103.9 Q 17.7 104.2, 18.0 104.4 Q 18.2 104.5, 18.5 104.5 Q 18.9 104.5, 19.2 104.3 Q 19.4 104.0, 19.4 103.7 Q 19.4 103.3, 19.2 103.1 Q 18.9 102.9, 18.4 102.9 L 18.1 102.9 L 18.1 102.4 L 18.4 102.4 Q 18.8 102.4, 19.1 102.2 Q 19.3 102.0, 19.3 101.6 Q 19.3 101.3, 19.1 101.2 Q 18.9 101.0, 18.6 101.0 Q 18.2 101.0, 18.0 101.1 Q 17.7 101.3, 17.6 101.6 L 17.2 101.4 Q 17.3 101.0, 17.7 100.8 Q 18.0 100.5, 18.6 100.5 Q 19.2 100.5, 19.6 100.8 Q 19.9 101.1, 19.9 101.6 Q 19.9 102.0, 19.7 102.2 Q 19.6 102.5, 19.2 102.6 " fill="#0000FF"/>
</g>
  </g>
</svg>
