<?xml version='1.0' encoding='ASCII' standalone='yes'?>
<svg xmlns="http://www.w3.org/2000/svg" xmlns:xlink="http://www.w3.org/1999/xlink" version="1.1" width="619.0px" viewBox="0 0 619.0 200.0" height="200.0px">
  <g>
    <g transform="translate(0, 0) scale(1 1) "><!-- END OF HEADER -->
<rect style="opacity:1.0;fill:#FFFFFF;stroke:none" width="225.0" height="200.0" x="0.0" y="0.0"> </rect>
<path class="bond-0 atom-0 atom-1" d="M 139.3,106.2 L 142.9,108.1 L 144.5,139.1 L 137.5,139.5 L 135.9,108.4 Z" style="fill:#B2E599;fill-rule:evenodd;fill-opacity:1;stroke:#B2E599;stroke-width:0.0px;stroke-linecap:butt;stroke-linejoin:miter;stroke-opacity:1;"/>
<path class="bond-1 atom-1 atom-2" d="M 109.6,87.1 L 139.1,102.2 L 139.3,106.2 L 135.9,108.4 L 110.0,95.2 Z" style="fill:#B2E599;fill-rule:evenodd;fill-opacity:1;stroke:#B2E599;stroke-width:0.0px;stroke-linecap:butt;stroke-linejoin:miter;stroke-opacity:1;"/>
<path class="bond-6 atom-1 atom-7" d="M 163.4,86.4 L 167.1,88.2 L 167.3,92.3 L 142.9,108.1 L 139.3,106.2 L 139.1,102.2 Z" style="fill:#B2E599;fill-rule:evenodd;fill-opacity:1;stroke:#B2E599;stroke-width:0.0px;stroke-linecap:butt;stroke-linejoin:miter;stroke-opacity:1;"/>
<path class="bond-2 atom-2 atom-3" d="M 109.6,87.1 L 110.0,95.2 L 82.3,113.2 L 81.8,105.1 Z" style="fill:#B2E599;fill-rule:evenodd;fill-opacity:1;stroke:#B2E599;stroke-width:0.0px;stroke-linecap:butt;stroke-linejoin:miter;stroke-opacity:1;"/>
<path class="bond-3 atom-3 atom-4" d="M 54.2,91.0 L 81.8,105.1 L 82.3,113.2 L 51.0,97.3 Z" style="fill:#B2E599;fill-rule:evenodd;fill-opacity:1;stroke:#B2E599;stroke-width:0.0px;stroke-linecap:butt;stroke-linejoin:miter;stroke-opacity:1;"/>
<path class="bond-7 atom-7 atom-8" d="M 168.9,55.0 L 170.5,86.0 L 167.1,88.2 L 163.4,86.4 L 161.8,55.4 Z" style="fill:#B2E599;fill-rule:evenodd;fill-opacity:1;stroke:#B2E599;stroke-width:0.0px;stroke-linecap:butt;stroke-linejoin:miter;stroke-opacity:1;"/>
<path class="bond-8 atom-7 atom-9" d="M 170.5,86.0 L 198.2,100.1 L 194.9,106.4 L 167.3,92.3 L 167.1,88.2 Z" style="fill:#B2E599;fill-rule:evenodd;fill-opacity:1;stroke:#B2E599;stroke-width:0.0px;stroke-linecap:butt;stroke-linejoin:miter;stroke-opacity:1;"/>
<ellipse cx="148.6" cy="141.6" rx="15.7" ry="9.9" class="atom-0" style="fill:#B2E599;fill-rule:evenodd;stroke:#B2E599;stroke-width:1.0px;stroke-linecap:butt;stroke-linejoin:miter;stroke-opacity:1"/>
<ellipse cx="139.3" cy="106.2" rx="6.6" ry="6.6" class="atom-1" style="fill:#B2E599;fill-rule:evenodd;stroke:#B2E599;stroke-width:1.0px;stroke-linecap:butt;stroke-linejoin:miter;stroke-opacity:1"/>
<ellipse cx="109.8" cy="91.2" rx="6.6" ry="6.6" class="atom-2" style="fill:#B2E599;fill-rule:evenodd;stroke:#B2E599;stroke-width:1.0px;stroke-linecap:butt;stroke-linejoin:miter;stroke-opacity:1"/>
<ellipse cx="82.1" cy="109.2" rx="6.6" ry="6.6" class="atom-3" style="fill:#B2E599;fill-rule:evenodd;stroke:#B2E599;stroke-width:1.0px;stroke-linecap:butt;stroke-linejoin:miter;stroke-opacity:1"/>
<ellipse cx="52.6" cy="94.1" rx="6.6" ry="6.6" class="atom-4" style="fill:#B2E599;fill-rule:evenodd;stroke:#B2E599;stroke-width:1.0px;stroke-linecap:butt;stroke-linejoin:miter;stroke-opacity:1"/>
<ellipse cx="167.1" cy="88.2" rx="6.6" ry="6.6" class="atom-7" style="fill:#B2E599;fill-rule:evenodd;stroke:#B2E599;stroke-width:1.0px;stroke-linecap:butt;stroke-linejoin:miter;stroke-opacity:1"/>
<ellipse cx="165.4" cy="55.2" rx="6.6" ry="6.8" class="atom-8" style="fill:#B2E599;fill-rule:evenodd;stroke:#B2E599;stroke-width:1.0px;stroke-linecap:butt;stroke-linejoin:miter;stroke-opacity:1"/>
<ellipse cx="200.9" cy="103.3" rx="12.3" ry="6.8" class="atom-9" style="fill:#B2E599;fill-rule:evenodd;stroke:#B2E599;stroke-width:1.0px;stroke-linecap:butt;stroke-linejoin:miter;stroke-opacity:1"/>
<path class="bond-0 atom-0 atom-1" d="M 140.7,133.5 L 140.0,119.9" style="fill:none;fill-rule:evenodd;stroke:#0000FF;stroke-width:2.0px;stroke-linecap:butt;stroke-linejoin:miter;stroke-opacity:1"/>
<path class="bond-0 atom-0 atom-1" d="M 140.0,119.9 L 139.3,106.2" style="fill:none;fill-rule:evenodd;stroke:#000000;stroke-width:2.0px;stroke-linecap:butt;stroke-linejoin:miter;stroke-opacity:1"/>
<path class="bond-1 atom-1 atom-2" d="M 139.3,106.2 L 109.8,91.2" style="fill:none;fill-rule:evenodd;stroke:#000000;stroke-width:2.0px;stroke-linecap:butt;stroke-linejoin:miter;stroke-opacity:1"/>
<path class="bond-2 atom-2 atom-3" d="M 109.8,91.2 L 82.1,109.2" style="fill:none;fill-rule:evenodd;stroke:#000000;stroke-width:2.0px;stroke-linecap:butt;stroke-linejoin:miter;stroke-opacity:1"/>
<path class="bond-3 atom-3 atom-4" d="M 82.1,109.2 L 52.6,94.1" style="fill:none;fill-rule:evenodd;stroke:#000000;stroke-width:2.0px;stroke-linecap:butt;stroke-linejoin:miter;stroke-opacity:1"/>
<path class="bond-4 atom-4 atom-5" d="M 55.1,95.4 L 54.4,81.2" style="fill:none;fill-rule:evenodd;stroke:#000000;stroke-width:2.0px;stroke-linecap:butt;stroke-linejoin:miter;stroke-opacity:1"/>
<path class="bond-4 atom-4 atom-5" d="M 54.4,81.2 L 53.7,66.9" style="fill:none;fill-rule:evenodd;stroke:#FF0000;stroke-width:2.0px;stroke-linecap:butt;stroke-linejoin:miter;stroke-opacity:1"/>
<path class="bond-4 atom-4 atom-5" d="M 50.2,95.7 L 49.4,81.4" style="fill:none;fill-rule:evenodd;stroke:#000000;stroke-width:2.0px;stroke-linecap:butt;stroke-linejoin:miter;stroke-opacity:1"/>
<path class="bond-4 atom-4 atom-5" d="M 49.4,81.4 L 48.7,67.2" style="fill:none;fill-rule:evenodd;stroke:#FF0000;stroke-width:2.0px;stroke-linecap:butt;stroke-linejoin:miter;stroke-opacity:1"/>
<path class="bond-5 atom-4 atom-6" d="M 52.6,94.1 L 41.4,101.4" style="fill:none;fill-rule:evenodd;stroke:#000000;stroke-width:2.0px;stroke-linecap:butt;stroke-linejoin:miter;stroke-opacity:1"/>
<path class="bond-5 atom-4 atom-6" d="M 41.4,101.4 L 30.2,108.6" style="fill:none;fill-rule:evenodd;stroke:#FF0000;stroke-width:2.0px;stroke-linecap:butt;stroke-linejoin:miter;stroke-opacity:1"/>
<path class="bond-6 atom-1 atom-7" d="M 139.3,106.2 L 167.1,88.2" style="fill:none;fill-rule:evenodd;stroke:#000000;stroke-width:2.0px;stroke-linecap:butt;stroke-linejoin:miter;stroke-opacity:1"/>
<path class="bond-7 atom-7 atom-8" d="M 169.6,89.5 L 168.9,75.3" style="fill:none;fill-rule:evenodd;stroke:#000000;stroke-width:2.0px;stroke-linecap:butt;stroke-linejoin:miter;stroke-opacity:1"/>
<path class="bond-7 atom-7 atom-8" d="M 168.9,75.3 L 168.2,61.0" style="fill:none;fill-rule:evenodd;stroke:#FF0000;stroke-width:2.0px;stroke-linecap:butt;stroke-linejoin:miter;stroke-opacity:1"/>
<path class="bond-7 atom-7 atom-8" d="M 164.7,89.8 L 163.9,75.5" style="fill:none;fill-rule:evenodd;stroke:#000000;stroke-width:2.0px;stroke-linecap:butt;stroke-linejoin:miter;stroke-opacity:1"/>
<path class="bond-7 atom-7 atom-8" d="M 163.9,75.5 L 163.2,61.3" style="fill:none;fill-rule:evenodd;stroke:#FF0000;stroke-width:2.0px;stroke-linecap:butt;stroke-linejoin:miter;stroke-opacity:1"/>
<path class="bond-8 atom-7 atom-9" d="M 167.1,88.2 L 179.1,94.4" style="fill:none;fill-rule:evenodd;stroke:#000000;stroke-width:2.0px;stroke-linecap:butt;stroke-linejoin:miter;stroke-opacity:1"/>
<path class="bond-8 atom-7 atom-9" d="M 179.1,94.4 L 191.2,100.5" style="fill:none;fill-rule:evenodd;stroke:#FF0000;stroke-width:2.0px;stroke-linecap:butt;stroke-linejoin:miter;stroke-opacity:1"/>
<path d="M 111.3,91.9 L 109.8,91.2 L 108.4,92.1" style="fill:none;stroke:#000000;stroke-width:2.0px;stroke-linecap:butt;stroke-linejoin:miter;stroke-opacity:1;"/>
<path d="M 83.4,108.3 L 82.1,109.2 L 80.6,108.4" style="fill:none;stroke:#000000;stroke-width:2.0px;stroke-linecap:butt;stroke-linejoin:miter;stroke-opacity:1;"/>
<path d="M 54.1,94.9 L 52.6,94.1 L 52.0,94.5" style="fill:none;stroke:#000000;stroke-width:2.0px;stroke-linecap:butt;stroke-linejoin:miter;stroke-opacity:1;"/>
<path d="M 165.7,89.1 L 167.1,88.2 L 167.7,88.5" style="fill:none;stroke:#000000;stroke-width:2.0px;stroke-linecap:butt;stroke-linejoin:miter;stroke-opacity:1;"/>
<path class="atom-0" d="M 138.9 134.6 L 142.0 139.6 Q 142.3 140.0, 142.8 140.9 Q 143.3 141.8, 143.3 141.9 L 143.3 134.6 L 144.6 134.6 L 144.6 144.0 L 143.3 144.0 L 140.0 138.5 Q 139.6 137.9, 139.2 137.2 Q 138.8 136.4, 138.7 136.2 L 138.7 144.0 L 137.5 144.0 L 137.5 134.6 L 138.9 134.6 " fill="#0000FF"/>
<path class="atom-0" d="M 146.4 134.6 L 147.6 134.6 L 147.6 138.6 L 152.4 138.6 L 152.4 134.6 L 153.7 134.6 L 153.7 144.0 L 152.4 144.0 L 152.4 139.6 L 147.6 139.6 L 147.6 144.0 L 146.4 144.0 L 146.4 134.6 " fill="#0000FF"/>
<path class="atom-0" d="M 155.5 143.6 Q 155.7 143.0, 156.3 142.7 Q 156.8 142.4, 157.6 142.4 Q 158.5 142.4, 159.0 142.9 Q 159.6 143.4, 159.6 144.3 Q 159.6 145.2, 158.9 146.1 Q 158.2 146.9, 156.8 147.9 L 159.7 147.9 L 159.7 148.6 L 155.5 148.6 L 155.5 148.1 Q 156.7 147.2, 157.3 146.6 Q 158.0 146.0, 158.4 145.5 Q 158.7 144.9, 158.7 144.3 Q 158.7 143.8, 158.4 143.4 Q 158.1 143.1, 157.6 143.1 Q 157.1 143.1, 156.8 143.3 Q 156.4 143.5, 156.2 143.9 L 155.5 143.6 " fill="#0000FF"/>
<path class="atom-5" d="M 46.6 61.1 Q 46.6 58.8, 47.7 57.6 Q 48.8 56.3, 50.9 56.3 Q 53.0 56.3, 54.1 57.6 Q 55.2 58.8, 55.2 61.1 Q 55.2 63.4, 54.1 64.7 Q 52.9 66.0, 50.9 66.0 Q 48.8 66.0, 47.7 64.7 Q 46.6 63.4, 46.6 61.1 M 50.9 64.9 Q 52.3 64.9, 53.1 63.9 Q 53.9 63.0, 53.9 61.1 Q 53.9 59.3, 53.1 58.3 Q 52.3 57.4, 50.9 57.4 Q 49.5 57.4, 48.7 58.3 Q 47.9 59.2, 47.9 61.1 Q 47.9 63.0, 48.7 63.9 Q 49.5 64.9, 50.9 64.9 " fill="#FF0000"/>
<path class="atom-6" d="M 11.2 107.5 L 12.5 107.5 L 12.5 111.5 L 17.3 111.5 L 17.3 107.5 L 18.6 107.5 L 18.6 116.9 L 17.3 116.9 L 17.3 112.5 L 12.5 112.5 L 12.5 116.9 L 11.2 116.9 L 11.2 107.5 " fill="#FF0000"/>
<path class="atom-6" d="M 20.5 112.1 Q 20.5 109.9, 21.6 108.6 Q 22.7 107.4, 24.8 107.4 Q 26.9 107.4, 28.0 108.6 Q 29.1 109.9, 29.1 112.1 Q 29.1 114.4, 28.0 115.7 Q 26.9 117.0, 24.8 117.0 Q 22.7 117.0, 21.6 115.7 Q 20.5 114.4, 20.5 112.1 M 24.8 115.9 Q 26.2 115.9, 27.0 115.0 Q 27.8 114.0, 27.8 112.1 Q 27.8 110.3, 27.0 109.4 Q 26.2 108.4, 24.8 108.4 Q 23.4 108.4, 22.6 109.4 Q 21.8 110.3, 21.8 112.1 Q 21.8 114.0, 22.6 115.0 Q 23.4 115.9, 24.8 115.9 " fill="#FF0000"/>
<path class="atom-8" d="M 161.1 55.2 Q 161.1 52.9, 162.2 51.7 Q 163.3 50.4, 165.4 50.4 Q 167.5 50.4, 168.6 51.7 Q 169.7 52.9, 169.7 55.2 Q 169.7 57.5, 168.6 58.8 Q 167.4 60.1, 165.4 60.1 Q 163.3 60.1, 162.2 58.8 Q 161.1 57.5, 161.1 55.2 M 165.4 59.0 Q 166.8 59.0, 167.6 58.0 Q 168.4 57.1, 168.4 55.2 Q 168.4 53.4, 167.6 52.4 Q 166.8 51.5, 165.4 51.5 Q 163.9 51.5, 163.2 52.4 Q 162.4 53.3, 162.4 55.2 Q 162.4 57.1, 163.2 58.0 Q 163.9 59.0, 165.4 59.0 " fill="#FF0000"/>
<path class="atom-9" d="M 192.2 103.3 Q 192.2 101.1, 193.4 99.8 Q 194.5 98.5, 196.6 98.5 Q 198.6 98.5, 199.7 99.8 Q 200.9 101.1, 200.9 103.3 Q 200.9 105.6, 199.7 106.9 Q 198.6 108.2, 196.6 108.2 Q 194.5 108.2, 193.4 106.9 Q 192.2 105.6, 192.2 103.3 M 196.6 107.1 Q 198.0 107.1, 198.7 106.1 Q 199.5 105.2, 199.5 103.3 Q 199.5 101.5, 198.7 100.5 Q 198.0 99.6, 196.6 99.6 Q 195.1 99.6, 194.3 100.5 Q 193.6 101.4, 193.6 103.3 Q 193.6 105.2, 194.3 106.1 Q 195.1 107.1, 196.6 107.1 " fill="#FF0000"/>
<path class="atom-9" d="M 202.3 98.6 L 203.6 98.6 L 203.6 102.6 L 208.4 102.6 L 208.4 98.6 L 209.6 98.6 L 209.6 108.0 L 208.4 108.0 L 208.4 103.7 L 203.6 103.7 L 203.6 108.0 L 202.3 108.0 L 202.3 98.6 " fill="#FF0000"/>
</g>
    <g transform="translate(225, 0) scale(1 1) "><line x1="5" y1="100" x2="35" y2="100" style="stroke:rgb(0,0,0);stroke-width:2"/>
  <line x1="34" y1="100" x2="29" y2="95" style="stroke:rgb(0,0,0);stroke-width:2"/>
  <line x1="34" y1="100" x2="29" y2="105" style="stroke:rgb(0,0,0);stroke-width:2"/>
</g>
    <g transform="translate(265.0, 0) scale(1 1) "><!-- END OF HEADER -->
<rect style="opacity:1.0;fill:#FFFFFF;stroke:none" width="194.0" height="200.0" x="0.0" y="0.0"> </rect>
<path class="bond-0 atom-0 atom-1" d="M 33.7,97.9 L 59.1,114.6 L 58.6,122.5 L 29.9,103.6 Z" style="fill:#B2E599;fill-rule:evenodd;fill-opacity:1;stroke:#B2E599;stroke-width:0.0px;stroke-linecap:butt;stroke-linejoin:miter;stroke-opacity:1;"/>
<path class="bond-1 atom-1 atom-2" d="M 88.0,100.0 L 87.6,108.0 L 58.6,122.5 L 59.1,114.6 Z" style="fill:#B2E599;fill-rule:evenodd;fill-opacity:1;stroke:#B2E599;stroke-width:0.0px;stroke-linecap:butt;stroke-linejoin:miter;stroke-opacity:1;"/>
<path class="bond-2 atom-2 atom-3" d="M 88.0,100.0 L 115.1,117.8 L 114.6,125.7 L 87.6,108.0 Z" style="fill:#B2E599;fill-rule:evenodd;fill-opacity:1;stroke:#B2E599;stroke-width:0.0px;stroke-linecap:butt;stroke-linejoin:miter;stroke-opacity:1;"/>
<path class="bond-3 atom-3 atom-4" d="M 142.3,104.1 L 145.4,110.3 L 114.6,125.7 L 115.1,117.8 Z" style="fill:#B2E599;fill-rule:evenodd;fill-opacity:1;stroke:#B2E599;stroke-width:0.0px;stroke-linecap:butt;stroke-linejoin:miter;stroke-opacity:1;"/>
<ellipse cx="24.7" cy="103.1" rx="15.0" ry="9.7" class="atom-0" style="fill:#B2E599;fill-rule:evenodd;stroke:#B2E599;stroke-width:1.0px;stroke-linecap:butt;stroke-linejoin:miter;stroke-opacity:1"/>
<ellipse cx="58.9" cy="118.5" rx="6.5" ry="6.5" class="atom-1" style="fill:#B2E599;fill-rule:evenodd;stroke:#B2E599;stroke-width:1.0px;stroke-linecap:butt;stroke-linejoin:miter;stroke-opacity:1"/>
<ellipse cx="87.8" cy="104.0" rx="6.5" ry="6.5" class="atom-2" style="fill:#B2E599;fill-rule:evenodd;stroke:#B2E599;stroke-width:1.0px;stroke-linecap:butt;stroke-linejoin:miter;stroke-opacity:1"/>
<ellipse cx="114.9" cy="121.8" rx="6.5" ry="6.5" class="atom-3" style="fill:#B2E599;fill-rule:evenodd;stroke:#B2E599;stroke-width:1.0px;stroke-linecap:butt;stroke-linejoin:miter;stroke-opacity:1"/>
<ellipse cx="143.8" cy="107.2" rx="6.5" ry="6.5" class="atom-4" style="fill:#B2E599;fill-rule:evenodd;stroke:#B2E599;stroke-width:1.0px;stroke-linecap:butt;stroke-linejoin:miter;stroke-opacity:1"/>
<path class="bond-0 atom-0 atom-1" d="M 36.3,103.7 L 47.6,111.1" style="fill:none;fill-rule:evenodd;stroke:#0000FF;stroke-width:2.0px;stroke-linecap:butt;stroke-linejoin:miter;stroke-opacity:1"/>
<path class="bond-0 atom-0 atom-1" d="M 47.6,111.1 L 58.9,118.5" style="fill:none;fill-rule:evenodd;stroke:#000000;stroke-width:2.0px;stroke-linecap:butt;stroke-linejoin:miter;stroke-opacity:1"/>
<path class="bond-1 atom-1 atom-2" d="M 58.9,118.5 L 87.8,104.0" style="fill:none;fill-rule:evenodd;stroke:#000000;stroke-width:2.0px;stroke-linecap:butt;stroke-linejoin:miter;stroke-opacity:1"/>
<path class="bond-2 atom-2 atom-3" d="M 87.8,104.0 L 114.9,121.8" style="fill:none;fill-rule:evenodd;stroke:#000000;stroke-width:2.0px;stroke-linecap:butt;stroke-linejoin:miter;stroke-opacity:1"/>
<path class="bond-3 atom-3 atom-4" d="M 114.9,121.8 L 143.8,107.2" style="fill:none;fill-rule:evenodd;stroke:#000000;stroke-width:2.0px;stroke-linecap:butt;stroke-linejoin:miter;stroke-opacity:1"/>
<path class="bond-4 atom-4 atom-5" d="M 146.2,108.7 L 147.0,94.8" style="fill:none;fill-rule:evenodd;stroke:#000000;stroke-width:2.0px;stroke-linecap:butt;stroke-linejoin:miter;stroke-opacity:1"/>
<path class="bond-4 atom-4 atom-5" d="M 147.0,94.8 L 147.8,80.9" style="fill:none;fill-rule:evenodd;stroke:#FF0000;stroke-width:2.0px;stroke-linecap:butt;stroke-linejoin:miter;stroke-opacity:1"/>
<path class="bond-4 atom-4 atom-5" d="M 141.3,108.5 L 142.1,94.5" style="fill:none;fill-rule:evenodd;stroke:#000000;stroke-width:2.0px;stroke-linecap:butt;stroke-linejoin:miter;stroke-opacity:1"/>
<path class="bond-4 atom-4 atom-5" d="M 142.1,94.5 L 142.9,80.6" style="fill:none;fill-rule:evenodd;stroke:#FF0000;stroke-width:2.0px;stroke-linecap:butt;stroke-linejoin:miter;stroke-opacity:1"/>
<path class="bond-5 atom-4 atom-6" d="M 143.8,107.2 L 154.7,114.4" style="fill:none;fill-rule:evenodd;stroke:#000000;stroke-width:2.0px;stroke-linecap:butt;stroke-linejoin:miter;stroke-opacity:1"/>
<path class="bond-5 atom-4 atom-6" d="M 154.7,114.4 L 165.6,121.5" style="fill:none;fill-rule:evenodd;stroke:#FF0000;stroke-width:2.0px;stroke-linecap:butt;stroke-linejoin:miter;stroke-opacity:1"/>
<path d="M 58.3,118.2 L 58.9,118.5 L 60.3,117.8" style="fill:none;stroke:#000000;stroke-width:2.0px;stroke-linecap:butt;stroke-linejoin:miter;stroke-opacity:1;"/>
<path d="M 86.4,104.7 L 87.8,104.0 L 89.2,104.9" style="fill:none;stroke:#000000;stroke-width:2.0px;stroke-linecap:butt;stroke-linejoin:miter;stroke-opacity:1;"/>
<path d="M 113.5,120.9 L 114.9,121.8 L 116.3,121.0" style="fill:none;stroke:#000000;stroke-width:2.0px;stroke-linecap:butt;stroke-linejoin:miter;stroke-opacity:1;"/>
<path d="M 142.4,107.9 L 143.8,107.2 L 144.4,107.6" style="fill:none;stroke:#000000;stroke-width:2.0px;stroke-linecap:butt;stroke-linejoin:miter;stroke-opacity:1;"/>
<path class="atom-0" d="M 14.1 96.2 L 15.3 96.2 L 15.3 100.1 L 20.0 100.1 L 20.0 96.2 L 21.3 96.2 L 21.3 105.3 L 20.0 105.3 L 20.0 101.1 L 15.3 101.1 L 15.3 105.3 L 14.1 105.3 L 14.1 96.2 " fill="#0000FF"/>
<path class="atom-0" d="M 23.1 105.0 Q 23.3 104.5, 23.8 104.1 Q 24.3 103.8, 25.1 103.8 Q 26.0 103.8, 26.5 104.3 Q 27.0 104.8, 27.0 105.7 Q 27.0 106.6, 26.4 107.4 Q 25.7 108.3, 24.3 109.3 L 27.1 109.3 L 27.1 109.9 L 23.0 109.9 L 23.0 109.4 Q 24.2 108.6, 24.8 108.0 Q 25.5 107.4, 25.8 106.8 Q 26.2 106.3, 26.2 105.7 Q 26.2 105.1, 25.9 104.8 Q 25.6 104.5, 25.1 104.5 Q 24.6 104.5, 24.3 104.7 Q 23.9 104.9, 23.7 105.3 L 23.1 105.0 " fill="#0000FF"/>
<path class="atom-0" d="M 29.8 96.2 L 32.8 101.0 Q 33.1 101.5, 33.5 102.4 Q 34.0 103.2, 34.1 103.3 L 34.1 96.2 L 35.3 96.2 L 35.3 105.3 L 34.0 105.3 L 30.8 100.0 Q 30.4 99.4, 30.0 98.7 Q 29.6 98.0, 29.5 97.8 L 29.5 105.3 L 28.3 105.3 L 28.3 96.2 L 29.8 96.2 " fill="#0000FF"/>
<path class="atom-5" d="M 141.5 74.9 Q 141.5 72.7, 142.5 71.5 Q 143.6 70.2, 145.7 70.2 Q 147.7 70.2, 148.8 71.5 Q 149.9 72.7, 149.9 74.9 Q 149.9 77.1, 148.8 78.4 Q 147.7 79.7, 145.7 79.7 Q 143.6 79.7, 142.5 78.4 Q 141.5 77.1, 141.5 74.9 M 145.7 78.6 Q 147.1 78.6, 147.8 77.7 Q 148.6 76.7, 148.6 74.9 Q 148.6 73.1, 147.8 72.2 Q 147.1 71.3, 145.7 71.3 Q 144.3 71.3, 143.5 72.2 Q 142.8 73.1, 142.8 74.9 Q 142.8 76.7, 143.5 77.7 Q 144.3 78.6, 145.7 78.6 " fill="#FF0000"/>
<path class="atom-6" d="M 166.7 125.0 Q 166.7 122.8, 167.8 121.6 Q 168.8 120.3, 170.9 120.3 Q 172.9 120.3, 174.0 121.6 Q 175.1 122.8, 175.1 125.0 Q 175.1 127.2, 174.0 128.5 Q 172.9 129.8, 170.9 129.8 Q 168.9 129.8, 167.8 128.5 Q 166.7 127.3, 166.7 125.0 M 170.9 128.7 Q 172.3 128.7, 173.0 127.8 Q 173.8 126.9, 173.8 125.0 Q 173.8 123.2, 173.0 122.3 Q 172.3 121.4, 170.9 121.4 Q 169.5 121.4, 168.7 122.3 Q 168.0 123.2, 168.0 125.0 Q 168.0 126.9, 168.7 127.8 Q 169.5 128.7, 170.9 128.7 " fill="#FF0000"/>
<path class="atom-6" d="M 176.5 120.5 L 177.8 120.5 L 177.8 124.4 L 182.5 124.4 L 182.5 120.5 L 183.7 120.5 L 183.7 129.6 L 182.5 129.6 L 182.5 125.4 L 177.8 125.4 L 177.8 129.6 L 176.5 129.6 L 176.5 120.5 " fill="#FF0000"/>
</g>
    <g transform="translate(459.0, 0) scale(1 1) "><line x1="15" y1="100" x2="25" y2="100" style="stroke:rgb(0,0,0);stroke-width:2"/>
  <line x1="20" y1="95" x2="20" y2="105" style="stroke:rgb(0,0,0);stroke-width:2"/>
</g>
    <g transform="translate(499.0, 0) scale(1 1) "><!-- END OF HEADER -->
<rect style="opacity:1.0;fill:#FFFFFF;stroke:none" width="120.0" height="200.0" x="0.0" y="0.0"> </rect>
<path class="bond-0 atom-0 atom-1" d="M 105.0,95.1 L 105.0,104.7 L 60.5,104.7 L 59.5,95.1 Z" style="fill:#B2E599;fill-rule:evenodd;fill-opacity:1;stroke:#B2E599;stroke-width:0.0px;stroke-linecap:butt;stroke-linejoin:miter;stroke-opacity:1;"/>
<path class="bond-1 atom-1 atom-2" d="M 15.0,95.1 L 59.5,95.1 L 60.5,104.7 L 15.0,104.7 Z" style="fill:#B2E599;fill-rule:evenodd;fill-opacity:1;stroke:#B2E599;stroke-width:0.0px;stroke-linecap:butt;stroke-linejoin:miter;stroke-opacity:1;"/>
<ellipse cx="105.0" cy="100.0" rx="9.0" ry="9.3" class="atom-0" style="fill:#B2E599;fill-rule:evenodd;stroke:#B2E599;stroke-width:1.0px;stroke-linecap:butt;stroke-linejoin:miter;stroke-opacity:1"/>
<ellipse cx="60.0" cy="100.0" rx="9.0" ry="9.2" class="atom-1" style="fill:#B2E599;fill-rule:evenodd;stroke:#B2E599;stroke-width:1.0px;stroke-linecap:butt;stroke-linejoin:miter;stroke-opacity:1"/>
<ellipse cx="15.0" cy="100.0" rx="9.0" ry="9.3" class="atom-2" style="fill:#B2E599;fill-rule:evenodd;stroke:#B2E599;stroke-width:1.0px;stroke-linecap:butt;stroke-linejoin:miter;stroke-opacity:1"/>
<path class="bond-0 atom-0 atom-1" d="M 97.7,103.3 L 82.0,103.3" style="fill:none;fill-rule:evenodd;stroke:#FF0000;stroke-width:2.0px;stroke-linecap:butt;stroke-linejoin:miter;stroke-opacity:1"/>
<path class="bond-0 atom-0 atom-1" d="M 82.0,103.3 L 66.4,103.3" style="fill:none;fill-rule:evenodd;stroke:#000000;stroke-width:2.0px;stroke-linecap:butt;stroke-linejoin:miter;stroke-opacity:1"/>
<path class="bond-0 atom-0 atom-1" d="M 97.7,96.5 L 82.0,96.5" style="fill:none;fill-rule:evenodd;stroke:#FF0000;stroke-width:2.0px;stroke-linecap:butt;stroke-linejoin:miter;stroke-opacity:1"/>
<path class="bond-0 atom-0 atom-1" d="M 82.0,96.5 L 66.4,96.5" style="fill:none;fill-rule:evenodd;stroke:#000000;stroke-width:2.0px;stroke-linecap:butt;stroke-linejoin:miter;stroke-opacity:1"/>
<path class="bond-1 atom-1 atom-2" d="M 53.6,103.3 L 38.0,103.3" style="fill:none;fill-rule:evenodd;stroke:#000000;stroke-width:2.0px;stroke-linecap:butt;stroke-linejoin:miter;stroke-opacity:1"/>
<path class="bond-1 atom-1 atom-2" d="M 38.0,103.3 L 22.3,103.3" style="fill:none;fill-rule:evenodd;stroke:#FF0000;stroke-width:2.0px;stroke-linecap:butt;stroke-linejoin:miter;stroke-opacity:1"/>
<path class="bond-1 atom-1 atom-2" d="M 53.6,96.5 L 38.0,96.5" style="fill:none;fill-rule:evenodd;stroke:#000000;stroke-width:2.0px;stroke-linecap:butt;stroke-linejoin:miter;stroke-opacity:1"/>
<path class="bond-1 atom-1 atom-2" d="M 38.0,96.5 L 22.3,96.5" style="fill:none;fill-rule:evenodd;stroke:#FF0000;stroke-width:2.0px;stroke-linecap:butt;stroke-linejoin:miter;stroke-opacity:1"/>
<path class="atom-0" d="M 99.2 99.9 Q 99.2 96.9, 100.7 95.2 Q 102.2 93.5, 105.0 93.5 Q 107.8 93.5, 109.3 95.2 Q 110.8 96.9, 110.8 99.9 Q 110.8 103.0, 109.3 104.8 Q 107.8 106.5, 105.0 106.5 Q 102.2 106.5, 100.7 104.8 Q 99.2 103.1, 99.2 99.9 M 105.0 105.1 Q 106.9 105.1, 108.0 103.8 Q 109.0 102.5, 109.0 99.9 Q 109.0 97.4, 108.0 96.2 Q 106.9 94.9, 105.0 94.9 Q 103.1 94.9, 102.0 96.2 Q 101.0 97.4, 101.0 99.9 Q 101.0 102.5, 102.0 103.8 Q 103.1 105.1, 105.0 105.1 " fill="#FF0000"/>
<path class="atom-1" d="M 55.1 100.0 Q 55.1 96.8, 56.6 95.1 Q 58.1 93.5, 60.9 93.5 Q 63.5 93.5, 64.9 95.3 L 63.7 96.3 Q 62.7 94.9, 60.9 94.9 Q 59.0 94.9, 57.9 96.2 Q 56.9 97.5, 56.9 100.0 Q 56.9 102.5, 58.0 103.8 Q 59.0 105.1, 61.1 105.1 Q 62.5 105.1, 64.1 104.2 L 64.6 105.6 Q 64.0 106.0, 63.0 106.3 Q 61.9 106.5, 60.8 106.5 Q 58.1 106.5, 56.6 104.8 Q 55.1 103.1, 55.1 100.0 " fill="#000000"/>
<path class="atom-2" d="M 9.2 99.9 Q 9.2 96.9, 10.7 95.2 Q 12.2 93.5, 15.0 93.5 Q 17.8 93.5, 19.3 95.2 Q 20.9 96.9, 20.9 99.9 Q 20.9 103.0, 19.3 104.8 Q 17.8 106.5, 15.0 106.5 Q 12.2 106.5, 10.7 104.8 Q 9.2 103.1, 9.2 99.9 M 15.0 105.1 Q 16.9 105.1, 18.0 103.8 Q 19.1 102.5, 19.1 99.9 Q 19.1 97.4, 18.0 96.2 Q 16.9 94.9, 15.0 94.9 Q 13.1 94.9, 12.0 96.2 Q 11.0 97.4, 11.0 99.9 Q 11.0 102.5, 12.0 103.8 Q 13.1 105.1, 15.0 105.1 " fill="#FF0000"/>
</g>
  </g>
</svg>
