<?xml version='1.0' encoding='ASCII' standalone='yes'?>
<svg xmlns="http://www.w3.org/2000/svg" xmlns:xlink="http://www.w3.org/1999/xlink" version="1.1" width="595.0px" viewBox="0 0 595.0 200.0" height="200.0px">
  <g>
    <g transform="translate(0, 0) scale(1 1) "><!-- END OF HEADER -->
<rect style="opacity:1.0;fill:#FFFFFF;stroke:none" width="85.0" height="200.0" x="0.0" y="0.0"> </rect>
<path class="bond-0 atom-0 atom-1" d="M 15.1,94.2 L 69.4,94.2 L 69.4,105.8 L 15.1,105.8 Z" style="fill:#B2E599;fill-rule:evenodd;fill-opacity:1;stroke:#B2E599;stroke-width:0.0px;stroke-linecap:butt;stroke-linejoin:miter;stroke-opacity:1;"/>
<ellipse cx="69.4" cy="100.0" rx="10.9" ry="10.9" class="atom-0" style="fill:#B2E599;fill-rule:evenodd;stroke:#B2E599;stroke-width:1.0px;stroke-linecap:butt;stroke-linejoin:miter;stroke-opacity:1"/>
<ellipse cx="15.1" cy="100.0" rx="10.9" ry="10.9" class="atom-1" style="fill:#B2E599;fill-rule:evenodd;stroke:#B2E599;stroke-width:1.0px;stroke-linecap:butt;stroke-linejoin:miter;stroke-opacity:1"/>
<path class="bond-0 atom-0 atom-1" d="M 69.4,100.0 L 46.1,100.0" style="fill:none;fill-rule:evenodd;stroke:#000000;stroke-width:2.0px;stroke-linecap:butt;stroke-linejoin:miter;stroke-opacity:1"/>
<path class="bond-0 atom-0 atom-1" d="M 46.1,100.0 L 22.7,100.0" style="fill:none;fill-rule:evenodd;stroke:#0000FF;stroke-width:2.0px;stroke-linecap:butt;stroke-linejoin:miter;stroke-opacity:1"/>
<path class="bond-0 atom-0 atom-1" d="M 69.4,108.1 L 46.1,108.1" style="fill:none;fill-rule:evenodd;stroke:#000000;stroke-width:2.0px;stroke-linecap:butt;stroke-linejoin:miter;stroke-opacity:1"/>
<path class="bond-0 atom-0 atom-1" d="M 46.1,108.1 L 22.7,108.1" style="fill:none;fill-rule:evenodd;stroke:#0000FF;stroke-width:2.0px;stroke-linecap:butt;stroke-linejoin:miter;stroke-opacity:1"/>
<path class="bond-0 atom-0 atom-1" d="M 69.4,91.9 L 46.1,91.9" style="fill:none;fill-rule:evenodd;stroke:#000000;stroke-width:2.0px;stroke-linecap:butt;stroke-linejoin:miter;stroke-opacity:1"/>
<path class="bond-0 atom-0 atom-1" d="M 46.1,91.9 L 22.7,91.9" style="fill:none;fill-rule:evenodd;stroke:#0000FF;stroke-width:2.0px;stroke-linecap:butt;stroke-linejoin:miter;stroke-opacity:1"/>
<path class="atom-1" d="M 11.7 92.3 L 16.7 100.5 Q 17.2 101.3, 18.0 102.7 Q 18.9 104.2, 18.9 104.3 L 18.9 92.3 L 20.9 92.3 L 20.9 107.7 L 18.8 107.7 L 13.4 98.8 Q 12.8 97.7, 12.1 96.5 Q 11.5 95.4, 11.3 95.0 L 11.3 107.7 L 9.3 107.7 L 9.3 92.3 L 11.7 92.3 " fill="#0000FF"/>
</g>
    <g transform="translate(85, 0) scale(1 1) "><line x1="15" y1="100" x2="25" y2="100" style="stroke:rgb(0,0,0);stroke-width:2"/>
  <line x1="20" y1="95" x2="20" y2="105" style="stroke:rgb(0,0,0);stroke-width:2"/>
</g>
    <g transform="translate(125.0, 0) scale(1 1) "><!-- END OF HEADER -->
<rect style="opacity:1.0;fill:#FFFFFF;stroke:none" width="205.0" height="200.0" x="0.0" y="0.0"> </rect>
<path class="bond-0 atom-0 atom-1" d="M 21.2,82.0 L 54.5,118.0 L 46.8,125.1 L 13.5,89.1 Z" style="fill:#B2E599;fill-rule:evenodd;fill-opacity:1;stroke:#B2E599;stroke-width:0.0px;stroke-linecap:butt;stroke-linejoin:miter;stroke-opacity:1;"/>
<ellipse cx="20.1" cy="83.1" rx="9.8" ry="10.1" class="atom-0" style="fill:#B2E599;fill-rule:evenodd;stroke:#B2E599;stroke-width:1.0px;stroke-linecap:butt;stroke-linejoin:miter;stroke-opacity:1"/>
<ellipse cx="50.6" cy="121.6" rx="9.8" ry="9.8" class="atom-1" style="fill:#B2E599;fill-rule:evenodd;stroke:#B2E599;stroke-width:1.0px;stroke-linecap:butt;stroke-linejoin:miter;stroke-opacity:1"/>
<path class="bond-0 atom-0 atom-1" d="M 25.4,94.2 L 38.0,107.9" style="fill:none;fill-rule:evenodd;stroke:#FF0000;stroke-width:2.0px;stroke-linecap:butt;stroke-linejoin:miter;stroke-opacity:1"/>
<path class="bond-0 atom-0 atom-1" d="M 38.0,107.9 L 50.6,121.6" style="fill:none;fill-rule:evenodd;stroke:#000000;stroke-width:2.0px;stroke-linecap:butt;stroke-linejoin:miter;stroke-opacity:1"/>
<path class="bond-0 atom-0 atom-1" d="M 30.8,89.2 L 43.4,102.9" style="fill:none;fill-rule:evenodd;stroke:#FF0000;stroke-width:2.0px;stroke-linecap:butt;stroke-linejoin:miter;stroke-opacity:1"/>
<path class="bond-0 atom-0 atom-1" d="M 43.4,102.9 L 53.2,113.5" style="fill:none;fill-rule:evenodd;stroke:#000000;stroke-width:2.0px;stroke-linecap:butt;stroke-linejoin:miter;stroke-opacity:1"/>
<path class="bond-1 atom-1 atom-2" d="M 50.6,121.6 L 98.5,110.8" style="fill:none;fill-rule:evenodd;stroke:#000000;stroke-width:2.0px;stroke-linecap:butt;stroke-linejoin:miter;stroke-opacity:1"/>
<path class="bond-2 atom-2 atom-3" d="M 98.5,110.8 L 113.1,63.9" style="fill:none;fill-rule:evenodd;stroke:#000000;stroke-width:2.0px;stroke-linecap:butt;stroke-linejoin:miter;stroke-opacity:1"/>
<path class="bond-3 atom-3 atom-4" d="M 113.1,63.9 L 161.0,53.1" style="fill:none;fill-rule:evenodd;stroke:#000000;stroke-width:2.0px;stroke-linecap:butt;stroke-linejoin:miter;stroke-opacity:1"/>
<path class="bond-4 atom-4 atom-5" d="M 161.0,53.1 L 194.2,89.2" style="fill:none;fill-rule:evenodd;stroke:#000000;stroke-width:2.0px;stroke-linecap:butt;stroke-linejoin:miter;stroke-opacity:1"/>
<path class="bond-5 atom-5 atom-6" d="M 194.2,89.2 L 179.7,136.1" style="fill:none;fill-rule:evenodd;stroke:#000000;stroke-width:2.0px;stroke-linecap:butt;stroke-linejoin:miter;stroke-opacity:1"/>
<path class="bond-6 atom-6 atom-7" d="M 179.7,136.1 L 131.8,146.9" style="fill:none;fill-rule:evenodd;stroke:#000000;stroke-width:2.0px;stroke-linecap:butt;stroke-linejoin:miter;stroke-opacity:1"/>
<path class="bond-7 atom-7 atom-2" d="M 131.8,146.9 L 98.5,110.8" style="fill:none;fill-rule:evenodd;stroke:#000000;stroke-width:2.0px;stroke-linecap:butt;stroke-linejoin:miter;stroke-opacity:1"/>
<path d="M 50.0,120.9 L 50.6,121.6 L 53.0,121.0" style="fill:none;stroke:#000000;stroke-width:2.0px;stroke-linecap:butt;stroke-linejoin:miter;stroke-opacity:1;"/>
<path d="M 112.4,66.3 L 113.1,63.9 L 115.5,63.4" style="fill:none;stroke:#000000;stroke-width:2.0px;stroke-linecap:butt;stroke-linejoin:miter;stroke-opacity:1;"/>
<path d="M 158.6,53.7 L 161.0,53.1 L 162.6,54.9" style="fill:none;stroke:#000000;stroke-width:2.0px;stroke-linecap:butt;stroke-linejoin:miter;stroke-opacity:1;"/>
<path d="M 192.6,87.4 L 194.2,89.2 L 193.5,91.5" style="fill:none;stroke:#000000;stroke-width:2.0px;stroke-linecap:butt;stroke-linejoin:miter;stroke-opacity:1;"/>
<path d="M 180.4,133.7 L 179.7,136.1 L 177.3,136.6" style="fill:none;stroke:#000000;stroke-width:2.0px;stroke-linecap:butt;stroke-linejoin:miter;stroke-opacity:1;"/>
<path d="M 134.2,146.3 L 131.8,146.9 L 130.1,145.1" style="fill:none;stroke:#000000;stroke-width:2.0px;stroke-linecap:butt;stroke-linejoin:miter;stroke-opacity:1;"/>
<path class="atom-0" d="M 13.7 83.1 Q 13.7 79.7, 15.3 77.9 Q 17.0 76.0, 20.1 76.0 Q 23.1 76.0, 24.8 77.9 Q 26.4 79.7, 26.4 83.1 Q 26.4 86.4, 24.8 88.4 Q 23.1 90.3, 20.1 90.3 Q 17.0 90.3, 15.3 88.4 Q 13.7 86.5, 13.7 83.1 M 20.1 88.7 Q 22.2 88.7, 23.3 87.3 Q 24.5 85.9, 24.5 83.1 Q 24.5 80.3, 23.3 79.0 Q 22.2 77.6, 20.1 77.6 Q 17.9 77.6, 16.8 79.0 Q 15.6 80.3, 15.6 83.1 Q 15.6 85.9, 16.8 87.3 Q 17.9 88.7, 20.1 88.7 " fill="#FF0000"/>
</g>
    <g transform="translate(330.0, 0) scale(1 1) "><line x1="5" y1="100" x2="35" y2="100" style="stroke:rgb(0,0,0);stroke-width:2"/>
  <line x1="34" y1="100" x2="29" y2="95" style="stroke:rgb(0,0,0);stroke-width:2"/>
  <line x1="34" y1="100" x2="29" y2="105" style="stroke:rgb(0,0,0);stroke-width:2"/>
</g>
    <g transform="translate(370.0, 0) scale(1 1) "><!-- END OF HEADER -->
<rect style="opacity:1.0;fill:#FFFFFF;stroke:none" width="225.0" height="200.0" x="0.0" y="0.0"> </rect>
<path class="bond-0 atom-0 atom-1" d="M 23.5,43.6 L 55.2,74.4 L 49.2,81.9 L 16.9,50.4 Z" style="fill:#B2E599;fill-rule:evenodd;fill-opacity:1;stroke:#B2E599;stroke-width:0.0px;stroke-linecap:butt;stroke-linejoin:miter;stroke-opacity:1;"/>
<path class="bond-1 atom-1 atom-2" d="M 55.2,74.4 L 89.5,107.9 L 78.9,110.8 L 49.2,81.9 Z" style="fill:#B2E599;fill-rule:evenodd;fill-opacity:1;stroke:#B2E599;stroke-width:0.0px;stroke-linecap:butt;stroke-linejoin:miter;stroke-opacity:1;"/>
<path class="bond-2 atom-2 atom-3" d="M 89.5,107.9 L 77.8,153.8 L 68.6,151.5 L 78.9,110.8 Z" style="fill:#B2E599;fill-rule:evenodd;fill-opacity:1;stroke:#B2E599;stroke-width:0.0px;stroke-linecap:butt;stroke-linejoin:miter;stroke-opacity:1;"/>
<ellipse cx="20.2" cy="47.0" rx="8.9" ry="8.9" class="atom-0" style="fill:#B2E599;fill-rule:evenodd;stroke:#B2E599;stroke-width:1.0px;stroke-linecap:butt;stroke-linejoin:miter;stroke-opacity:1"/>
<ellipse cx="52.2" cy="78.2" rx="8.9" ry="8.9" class="atom-1" style="fill:#B2E599;fill-rule:evenodd;stroke:#B2E599;stroke-width:1.0px;stroke-linecap:butt;stroke-linejoin:miter;stroke-opacity:1"/>
<ellipse cx="84.2" cy="109.4" rx="8.9" ry="8.9" class="atom-2" style="fill:#B2E599;fill-rule:evenodd;stroke:#B2E599;stroke-width:1.0px;stroke-linecap:butt;stroke-linejoin:miter;stroke-opacity:1"/>
<ellipse cx="79.2" cy="152.8" rx="16.6" ry="9.2" class="atom-3" style="fill:#B2E599;fill-rule:evenodd;stroke:#B2E599;stroke-width:1.0px;stroke-linecap:butt;stroke-linejoin:miter;stroke-opacity:1"/>
<path class="bond-0 atom-0 atom-1" d="M 26.5,53.1 L 39.3,65.6" style="fill:none;fill-rule:evenodd;stroke:#0000FF;stroke-width:2.0px;stroke-linecap:butt;stroke-linejoin:miter;stroke-opacity:1"/>
<path class="bond-0 atom-0 atom-1" d="M 39.3,65.6 L 52.2,78.2" style="fill:none;fill-rule:evenodd;stroke:#000000;stroke-width:2.0px;stroke-linecap:butt;stroke-linejoin:miter;stroke-opacity:1"/>
<path class="bond-0 atom-0 atom-1" d="M 31.1,48.3 L 44.0,60.8" style="fill:none;fill-rule:evenodd;stroke:#0000FF;stroke-width:2.0px;stroke-linecap:butt;stroke-linejoin:miter;stroke-opacity:1"/>
<path class="bond-0 atom-0 atom-1" d="M 44.0,60.8 L 56.9,73.4" style="fill:none;fill-rule:evenodd;stroke:#000000;stroke-width:2.0px;stroke-linecap:butt;stroke-linejoin:miter;stroke-opacity:1"/>
<path class="bond-0 atom-0 atom-1" d="M 21.8,57.9 L 34.7,70.4" style="fill:none;fill-rule:evenodd;stroke:#0000FF;stroke-width:2.0px;stroke-linecap:butt;stroke-linejoin:miter;stroke-opacity:1"/>
<path class="bond-0 atom-0 atom-1" d="M 34.7,70.4 L 47.5,83.0" style="fill:none;fill-rule:evenodd;stroke:#000000;stroke-width:2.0px;stroke-linecap:butt;stroke-linejoin:miter;stroke-opacity:1"/>
<path class="bond-1 atom-1 atom-2" d="M 52.2,78.2 L 84.2,109.4" style="fill:none;fill-rule:evenodd;stroke:#000000;stroke-width:2.0px;stroke-linecap:butt;stroke-linejoin:miter;stroke-opacity:1"/>
<path class="bond-2 atom-2 atom-3" d="M 84.2,109.4 L 79.7,127.1" style="fill:none;fill-rule:evenodd;stroke:#000000;stroke-width:2.0px;stroke-linecap:butt;stroke-linejoin:miter;stroke-opacity:1"/>
<path class="bond-2 atom-2 atom-3" d="M 79.7,127.1 L 75.2,144.8" style="fill:none;fill-rule:evenodd;stroke:#FF0000;stroke-width:2.0px;stroke-linecap:butt;stroke-linejoin:miter;stroke-opacity:1"/>
<path class="bond-3 atom-2 atom-4" d="M 84.2,109.4 L 127.2,97.2" style="fill:none;fill-rule:evenodd;stroke:#000000;stroke-width:2.0px;stroke-linecap:butt;stroke-linejoin:miter;stroke-opacity:1"/>
<path class="bond-4 atom-4 atom-5" d="M 127.2,97.2 L 138.2,53.9" style="fill:none;fill-rule:evenodd;stroke:#000000;stroke-width:2.0px;stroke-linecap:butt;stroke-linejoin:miter;stroke-opacity:1"/>
<path class="bond-5 atom-5 atom-6" d="M 138.2,53.9 L 181.2,41.8" style="fill:none;fill-rule:evenodd;stroke:#000000;stroke-width:2.0px;stroke-linecap:butt;stroke-linejoin:miter;stroke-opacity:1"/>
<path class="bond-6 atom-6 atom-7" d="M 181.2,41.8 L 213.2,72.9" style="fill:none;fill-rule:evenodd;stroke:#000000;stroke-width:2.0px;stroke-linecap:butt;stroke-linejoin:miter;stroke-opacity:1"/>
<path class="bond-7 atom-7 atom-8" d="M 213.2,72.9 L 202.3,116.3" style="fill:none;fill-rule:evenodd;stroke:#000000;stroke-width:2.0px;stroke-linecap:butt;stroke-linejoin:miter;stroke-opacity:1"/>
<path class="bond-8 atom-8 atom-9" d="M 202.3,116.3 L 159.2,128.4" style="fill:none;fill-rule:evenodd;stroke:#000000;stroke-width:2.0px;stroke-linecap:butt;stroke-linejoin:miter;stroke-opacity:1"/>
<path class="bond-9 atom-9 atom-4" d="M 159.2,128.4 L 127.2,97.2" style="fill:none;fill-rule:evenodd;stroke:#000000;stroke-width:2.0px;stroke-linecap:butt;stroke-linejoin:miter;stroke-opacity:1"/>
<path d="M 51.6,77.5 L 52.2,78.2 L 53.8,79.7" style="fill:none;stroke:#000000;stroke-width:2.0px;stroke-linecap:butt;stroke-linejoin:miter;stroke-opacity:1;"/>
<path d="M 137.7,56.1 L 138.2,53.9 L 140.4,53.3" style="fill:none;stroke:#000000;stroke-width:2.0px;stroke-linecap:butt;stroke-linejoin:miter;stroke-opacity:1;"/>
<path d="M 179.1,42.4 L 181.2,41.8 L 182.8,43.3" style="fill:none;stroke:#000000;stroke-width:2.0px;stroke-linecap:butt;stroke-linejoin:miter;stroke-opacity:1;"/>
<path d="M 211.6,71.4 L 213.2,72.9 L 212.7,75.1" style="fill:none;stroke:#000000;stroke-width:2.0px;stroke-linecap:butt;stroke-linejoin:miter;stroke-opacity:1;"/>
<path d="M 202.8,114.1 L 202.3,116.3 L 200.1,116.9" style="fill:none;stroke:#000000;stroke-width:2.0px;stroke-linecap:butt;stroke-linejoin:miter;stroke-opacity:1;"/>
<path d="M 161.4,127.8 L 159.2,128.4 L 157.6,126.8" style="fill:none;stroke:#000000;stroke-width:2.0px;stroke-linecap:butt;stroke-linejoin:miter;stroke-opacity:1;"/>
<path class="atom-0" d="M 17.4 40.7 L 21.5 47.4 Q 21.9 48.0, 22.6 49.2 Q 23.3 50.4, 23.3 50.5 L 23.3 40.7 L 25.0 40.7 L 25.0 53.3 L 23.3 53.3 L 18.8 46.0 Q 18.3 45.1, 17.7 44.1 Q 17.2 43.2, 17.0 42.9 L 17.0 53.3 L 15.4 53.3 L 15.4 40.7 L 17.4 40.7 " fill="#0000FF"/>
<path class="atom-3" d="M 67.4 152.7 Q 67.4 149.7, 68.9 148.0 Q 70.4 146.3, 73.2 146.3 Q 76.0 146.3, 77.5 148.0 Q 79.0 149.7, 79.0 152.7 Q 79.0 155.8, 77.5 157.5 Q 76.0 159.3, 73.2 159.3 Q 70.4 159.3, 68.9 157.5 Q 67.4 155.8, 67.4 152.7 M 73.2 157.8 Q 75.2 157.8, 76.2 156.5 Q 77.2 155.2, 77.2 152.7 Q 77.2 150.2, 76.2 149.0 Q 75.2 147.7, 73.2 147.7 Q 71.3 147.7, 70.2 149.0 Q 69.2 150.2, 69.2 152.7 Q 69.2 155.3, 70.2 156.5 Q 71.3 157.8, 73.2 157.8 " fill="#FF0000"/>
<path class="atom-3" d="M 81.0 146.4 L 82.7 146.4 L 82.7 151.8 L 89.2 151.8 L 89.2 146.4 L 90.9 146.4 L 90.9 159.1 L 89.2 159.1 L 89.2 153.2 L 82.7 153.2 L 82.7 159.1 L 81.0 159.1 L 81.0 146.4 " fill="#FF0000"/>
</g>
  </g>
</svg>
