<?xml version='1.0' encoding='ASCII' standalone='yes'?>
<svg xmlns="http://www.w3.org/2000/svg" xmlns:xlink="http://www.w3.org/1999/xlink" version="1.1" width="530.0px" viewBox="0 0 530.0 200.0" height="200.0px">
  <g>
    <g transform="translate(0, 0) scale(1 1) "><!-- END OF HEADER -->
<rect style="opacity:1.0;fill:#FFFFFF;stroke:none" width="180.0" height="200.0" x="0.0" y="0.0"> </rect>
<path class="bond-1 atom-1 atom-2" d="M 117.0,92.1 L 121.6,97.9 L 92.7,120.7 L 91.4,112.2 Z" style="fill:#B2E599;fill-rule:evenodd;fill-opacity:1;stroke:#B2E599;stroke-width:0.0px;stroke-linecap:butt;stroke-linejoin:miter;stroke-opacity:1;"/>
<path class="bond-2 atom-2 atom-3" d="M 63.2,100.9 L 91.4,112.2 L 92.7,120.7 L 60.5,107.8 L 59.9,103.5 Z" style="fill:#B2E599;fill-rule:evenodd;fill-opacity:1;stroke:#B2E599;stroke-width:0.0px;stroke-linecap:butt;stroke-linejoin:miter;stroke-opacity:1;"/>
<path class="bond-3 atom-3 atom-4" d="M 55.9,102.0 L 59.9,103.5 L 60.5,107.8 L 34.9,127.9 L 30.4,122.0 Z" style="fill:#B2E599;fill-rule:evenodd;fill-opacity:1;stroke:#B2E599;stroke-width:0.0px;stroke-linecap:butt;stroke-linejoin:miter;stroke-opacity:1;"/>
<path class="bond-4 atom-3 atom-5" d="M 58.6,68.7 L 63.2,100.9 L 59.9,103.5 L 55.9,102.0 L 51.3,69.8 Z" style="fill:#B2E599;fill-rule:evenodd;fill-opacity:1;stroke:#B2E599;stroke-width:0.0px;stroke-linecap:butt;stroke-linejoin:miter;stroke-opacity:1;"/>
<ellipse cx="119.3" cy="95.0" rx="6.9" ry="6.9" class="atom-1" style="fill:#B2E599;fill-rule:evenodd;stroke:#B2E599;stroke-width:1.0px;stroke-linecap:butt;stroke-linejoin:miter;stroke-opacity:1"/>
<ellipse cx="92.0" cy="116.4" rx="6.9" ry="6.9" class="atom-2" style="fill:#B2E599;fill-rule:evenodd;stroke:#B2E599;stroke-width:1.0px;stroke-linecap:butt;stroke-linejoin:miter;stroke-opacity:1"/>
<ellipse cx="59.9" cy="103.5" rx="6.9" ry="6.9" class="atom-3" style="fill:#B2E599;fill-rule:evenodd;stroke:#B2E599;stroke-width:1.0px;stroke-linecap:butt;stroke-linejoin:miter;stroke-opacity:1"/>
<ellipse cx="25.0" cy="127.4" rx="16.0" ry="10.4" class="atom-4" style="fill:#B2E599;fill-rule:evenodd;stroke:#B2E599;stroke-width:1.0px;stroke-linecap:butt;stroke-linejoin:miter;stroke-opacity:1"/>
<ellipse cx="55.0" cy="69.3" rx="6.9" ry="7.1" class="atom-5" style="fill:#B2E599;fill-rule:evenodd;stroke:#B2E599;stroke-width:1.0px;stroke-linecap:butt;stroke-linejoin:miter;stroke-opacity:1"/>
<path class="bond-0 atom-0 atom-1" d="M 146.6,106.0 L 132.9,100.5" style="fill:none;fill-rule:evenodd;stroke:#0000FF;stroke-width:2.0px;stroke-linecap:butt;stroke-linejoin:miter;stroke-opacity:1"/>
<path class="bond-0 atom-0 atom-1" d="M 132.9,100.5 L 119.3,95.0" style="fill:none;fill-rule:evenodd;stroke:#000000;stroke-width:2.0px;stroke-linecap:butt;stroke-linejoin:miter;stroke-opacity:1"/>
<path class="bond-1 atom-1 atom-2" d="M 119.3,95.0 L 92.0,116.4" style="fill:none;fill-rule:evenodd;stroke:#000000;stroke-width:2.0px;stroke-linecap:butt;stroke-linejoin:miter;stroke-opacity:1"/>
<path class="bond-2 atom-2 atom-3" d="M 92.0,116.4 L 59.9,103.5" style="fill:none;fill-rule:evenodd;stroke:#000000;stroke-width:2.0px;stroke-linecap:butt;stroke-linejoin:miter;stroke-opacity:1"/>
<path class="bond-3 atom-3 atom-4" d="M 59.9,103.5 L 48.7,112.3" style="fill:none;fill-rule:evenodd;stroke:#000000;stroke-width:2.0px;stroke-linecap:butt;stroke-linejoin:miter;stroke-opacity:1"/>
<path class="bond-3 atom-3 atom-4" d="M 48.7,112.3 L 37.5,121.1" style="fill:none;fill-rule:evenodd;stroke:#0000FF;stroke-width:2.0px;stroke-linecap:butt;stroke-linejoin:miter;stroke-opacity:1"/>
<path class="bond-4 atom-3 atom-5" d="M 62.7,104.7 L 60.6,89.9" style="fill:none;fill-rule:evenodd;stroke:#000000;stroke-width:2.0px;stroke-linecap:butt;stroke-linejoin:miter;stroke-opacity:1"/>
<path class="bond-4 atom-3 atom-5" d="M 60.6,89.9 L 58.4,75.1" style="fill:none;fill-rule:evenodd;stroke:#FF0000;stroke-width:2.0px;stroke-linecap:butt;stroke-linejoin:miter;stroke-opacity:1"/>
<path class="bond-4 atom-3 atom-5" d="M 57.5,105.4 L 55.4,90.6" style="fill:none;fill-rule:evenodd;stroke:#000000;stroke-width:2.0px;stroke-linecap:butt;stroke-linejoin:miter;stroke-opacity:1"/>
<path class="bond-4 atom-3 atom-5" d="M 55.4,90.6 L 53.3,75.9" style="fill:none;fill-rule:evenodd;stroke:#FF0000;stroke-width:2.0px;stroke-linecap:butt;stroke-linejoin:miter;stroke-opacity:1"/>
<path d="M 120.0,95.3 L 119.3,95.0 L 117.9,96.1" style="fill:none;stroke:#000000;stroke-width:2.0px;stroke-linecap:butt;stroke-linejoin:miter;stroke-opacity:1;"/>
<path d="M 93.4,115.4 L 92.0,116.4 L 90.4,115.8" style="fill:none;stroke:#000000;stroke-width:2.0px;stroke-linecap:butt;stroke-linejoin:miter;stroke-opacity:1;"/>
<path d="M 61.5,104.2 L 59.9,103.5 L 59.3,104.0" style="fill:none;stroke:#000000;stroke-width:2.0px;stroke-linecap:butt;stroke-linejoin:miter;stroke-opacity:1;"/>
<path class="atom-0" d="M 149.3 103.0 L 152.5 108.2 Q 152.8 108.7, 153.3 109.7 Q 153.8 110.6, 153.9 110.6 L 153.9 103.0 L 155.2 103.0 L 155.2 112.8 L 153.8 112.8 L 150.4 107.2 Q 150.0 106.5, 149.6 105.7 Q 149.1 105.0, 149.0 104.7 L 149.0 112.8 L 147.7 112.8 L 147.7 103.0 L 149.3 103.0 " fill="#0000FF"/>
<path class="atom-0" d="M 157.1 103.0 L 158.4 103.0 L 158.4 107.2 L 163.4 107.2 L 163.4 103.0 L 164.7 103.0 L 164.7 112.8 L 163.4 112.8 L 163.4 108.3 L 158.4 108.3 L 158.4 112.8 L 157.1 112.8 L 157.1 103.0 " fill="#0000FF"/>
<path class="atom-0" d="M 166.7 112.5 Q 166.9 111.9, 167.5 111.5 Q 168.0 111.2, 168.8 111.2 Q 169.8 111.2, 170.3 111.7 Q 170.9 112.3, 170.9 113.2 Q 170.9 114.2, 170.2 115.1 Q 169.5 116.0, 168.0 117.0 L 171.0 117.0 L 171.0 117.7 L 166.6 117.7 L 166.6 117.1 Q 167.8 116.3, 168.6 115.6 Q 169.3 115.0, 169.6 114.4 Q 170.0 113.8, 170.0 113.2 Q 170.0 112.6, 169.7 112.3 Q 169.4 111.9, 168.8 111.9 Q 168.3 111.9, 167.9 112.1 Q 167.6 112.3, 167.3 112.8 L 166.7 112.5 " fill="#0000FF"/>
<path class="atom-4" d="M 13.7 120.0 L 15.0 120.0 L 15.0 124.2 L 20.0 124.2 L 20.0 120.0 L 21.4 120.0 L 21.4 129.9 L 20.0 129.9 L 20.0 125.3 L 15.0 125.3 L 15.0 129.9 L 13.7 129.9 L 13.7 120.0 " fill="#0000FF"/>
<path class="atom-4" d="M 23.3 129.5 Q 23.5 128.9, 24.1 128.6 Q 24.7 128.2, 25.5 128.2 Q 26.4 128.2, 27.0 128.7 Q 27.5 129.3, 27.5 130.2 Q 27.5 131.2, 26.8 132.1 Q 26.1 133.0, 24.6 134.0 L 27.6 134.0 L 27.6 134.8 L 23.3 134.8 L 23.3 134.1 Q 24.5 133.3, 25.2 132.6 Q 25.9 132.0, 26.3 131.4 Q 26.6 130.9, 26.6 130.3 Q 26.6 129.6, 26.3 129.3 Q 26.0 128.9, 25.5 128.9 Q 24.9 128.9, 24.6 129.2 Q 24.2 129.4, 24.0 129.8 L 23.3 129.5 " fill="#0000FF"/>
<path class="atom-4" d="M 30.5 120.0 L 33.7 125.2 Q 34.0 125.8, 34.5 126.7 Q 35.0 127.6, 35.1 127.7 L 35.1 120.0 L 36.4 120.0 L 36.4 129.9 L 35.0 129.9 L 31.6 124.2 Q 31.2 123.5, 30.7 122.7 Q 30.3 122.0, 30.2 121.7 L 30.2 129.9 L 28.9 129.9 L 28.9 120.0 L 30.5 120.0 " fill="#0000FF"/>
<path class="atom-5" d="M 50.5 69.3 Q 50.5 66.9, 51.6 65.6 Q 52.8 64.3, 55.0 64.3 Q 57.1 64.3, 58.3 65.6 Q 59.5 66.9, 59.5 69.3 Q 59.5 71.7, 58.3 73.0 Q 57.1 74.4, 55.0 74.4 Q 52.8 74.4, 51.6 73.0 Q 50.5 71.7, 50.5 69.3 M 55.0 73.2 Q 56.5 73.2, 57.3 72.2 Q 58.1 71.2, 58.1 69.3 Q 58.1 67.3, 57.3 66.4 Q 56.5 65.4, 55.0 65.4 Q 53.5 65.4, 52.7 66.4 Q 51.9 67.3, 51.9 69.3 Q 51.9 71.2, 52.7 72.2 Q 53.5 73.2, 55.0 73.2 " fill="#FF0000"/>
</g>
    <g transform="translate(220.0, 0) scale(1 1) "><!-- END OF HEADER -->
<rect style="opacity:1.0;fill:#FFFFFF;stroke:none" width="25.0" height="200.0" x="0.0" y="0.0"> </rect>
<ellipse cx="12.3" cy="100.0" rx="11.0" ry="6.7" class="atom-0" style="fill:#B2E599;fill-rule:evenodd;stroke:#B2E599;stroke-width:1.0px;stroke-linecap:butt;stroke-linejoin:miter;stroke-opacity:1"/>
<path class="atom-0" d="M 4.5 95.3 L 5.3 95.3 L 5.3 98.0 L 8.5 98.0 L 8.5 95.3 L 9.4 95.3 L 9.4 101.6 L 8.5 101.6 L 8.5 98.7 L 5.3 98.7 L 5.3 101.6 L 4.5 101.6 L 4.5 95.3 " fill="#FF0000"/>
<path class="atom-0" d="M 10.6 101.4 Q 10.8 101.0, 11.2 100.8 Q 11.5 100.6, 12.0 100.6 Q 12.6 100.6, 13.0 100.9 Q 13.4 101.2, 13.4 101.8 Q 13.4 102.4, 12.9 103.0 Q 12.4 103.6, 11.5 104.3 L 13.4 104.3 L 13.4 104.7 L 10.6 104.7 L 10.6 104.3 Q 11.4 103.8, 11.9 103.4 Q 12.3 103.0, 12.5 102.6 Q 12.8 102.2, 12.8 101.9 Q 12.8 101.5, 12.6 101.2 Q 12.4 101.0, 12.0 101.0 Q 11.7 101.0, 11.5 101.2 Q 11.2 101.3, 11.1 101.6 L 10.6 101.4 " fill="#FF0000"/>
<path class="atom-0" d="M 14.3 98.4 Q 14.3 96.9, 15.0 96.1 Q 15.8 95.3, 17.1 95.3 Q 18.5 95.3, 19.3 96.1 Q 20.0 96.9, 20.0 98.4 Q 20.0 100.0, 19.3 100.8 Q 18.5 101.7, 17.1 101.7 Q 15.8 101.7, 15.0 100.8 Q 14.3 100.0, 14.3 98.4 M 17.1 101.0 Q 18.1 101.0, 18.6 100.4 Q 19.1 99.7, 19.1 98.4 Q 19.1 97.2, 18.6 96.6 Q 18.1 96.0, 17.1 96.0 Q 16.2 96.0, 15.7 96.6 Q 15.2 97.2, 15.2 98.4 Q 15.2 99.7, 15.7 100.4 Q 16.2 101.0, 17.1 101.0 " fill="#FF0000"/>
</g>
    <g transform="translate(245.0, 0) scale(1 1) "><line x1="5" y1="100" x2="35" y2="100" style="stroke:rgb(0,0,0);stroke-width:2"/>
  <line x1="34" y1="100" x2="29" y2="95" style="stroke:rgb(0,0,0);stroke-width:2"/>
  <line x1="34" y1="100" x2="29" y2="105" style="stroke:rgb(0,0,0);stroke-width:2"/>
</g>
    <g transform="translate(285.0, 0) scale(1 1) "><!-- END OF HEADER -->
<rect style="opacity:1.0;fill:#FFFFFF;stroke:none" width="180.0" height="200.0" x="0.0" y="0.0"> </rect>
<path class="bond-1 atom-1 atom-2" d="M 115.1,94.8 L 119.8,100.8 L 89.9,124.3 L 88.6,115.6 Z" style="fill:#B2E599;fill-rule:evenodd;fill-opacity:1;stroke:#B2E599;stroke-width:0.0px;stroke-linecap:butt;stroke-linejoin:miter;stroke-opacity:1;"/>
<path class="bond-2 atom-2 atom-3" d="M 59.4,103.9 L 88.6,115.6 L 89.9,124.3 L 56.6,111.0 L 55.9,106.6 Z" style="fill:#B2E599;fill-rule:evenodd;fill-opacity:1;stroke:#B2E599;stroke-width:0.0px;stroke-linecap:butt;stroke-linejoin:miter;stroke-opacity:1;"/>
<path class="bond-3 atom-3 atom-4" d="M 54.6,70.5 L 59.4,103.9 L 55.9,106.6 L 51.8,105.0 L 47.1,71.6 Z" style="fill:#B2E599;fill-rule:evenodd;fill-opacity:1;stroke:#B2E599;stroke-width:0.0px;stroke-linecap:butt;stroke-linejoin:miter;stroke-opacity:1;"/>
<path class="bond-4 atom-3 atom-5" d="M 51.8,105.0 L 55.9,106.6 L 56.6,111.0 L 30.1,131.8 L 25.3,125.8 Z" style="fill:#B2E599;fill-rule:evenodd;fill-opacity:1;stroke:#B2E599;stroke-width:0.0px;stroke-linecap:butt;stroke-linejoin:miter;stroke-opacity:1;"/>
<ellipse cx="117.5" cy="97.8" rx="7.2" ry="7.2" class="atom-1" style="fill:#B2E599;fill-rule:evenodd;stroke:#B2E599;stroke-width:1.0px;stroke-linecap:butt;stroke-linejoin:miter;stroke-opacity:1"/>
<ellipse cx="89.2" cy="120.0" rx="7.2" ry="7.2" class="atom-2" style="fill:#B2E599;fill-rule:evenodd;stroke:#B2E599;stroke-width:1.0px;stroke-linecap:butt;stroke-linejoin:miter;stroke-opacity:1"/>
<ellipse cx="55.9" cy="106.6" rx="7.2" ry="7.2" class="atom-3" style="fill:#B2E599;fill-rule:evenodd;stroke:#B2E599;stroke-width:1.0px;stroke-linecap:butt;stroke-linejoin:miter;stroke-opacity:1"/>
<ellipse cx="50.8" cy="71.2" rx="7.2" ry="7.4" class="atom-4" style="fill:#B2E599;fill-rule:evenodd;stroke:#B2E599;stroke-width:1.0px;stroke-linecap:butt;stroke-linejoin:miter;stroke-opacity:1"/>
<ellipse cx="22.7" cy="128.8" rx="13.7" ry="7.4" class="atom-5" style="fill:#B2E599;fill-rule:evenodd;stroke:#B2E599;stroke-width:1.0px;stroke-linecap:butt;stroke-linejoin:miter;stroke-opacity:1"/>
<path class="bond-0 atom-0 atom-1" d="M 145.7,109.1 L 131.6,103.5" style="fill:none;fill-rule:evenodd;stroke:#0000FF;stroke-width:2.0px;stroke-linecap:butt;stroke-linejoin:miter;stroke-opacity:1"/>
<path class="bond-0 atom-0 atom-1" d="M 131.6,103.5 L 117.5,97.8" style="fill:none;fill-rule:evenodd;stroke:#000000;stroke-width:2.0px;stroke-linecap:butt;stroke-linejoin:miter;stroke-opacity:1"/>
<path class="bond-1 atom-1 atom-2" d="M 117.5,97.8 L 89.2,120.0" style="fill:none;fill-rule:evenodd;stroke:#000000;stroke-width:2.0px;stroke-linecap:butt;stroke-linejoin:miter;stroke-opacity:1"/>
<path class="bond-2 atom-2 atom-3" d="M 89.2,120.0 L 55.9,106.6" style="fill:none;fill-rule:evenodd;stroke:#000000;stroke-width:2.0px;stroke-linecap:butt;stroke-linejoin:miter;stroke-opacity:1"/>
<path class="bond-3 atom-3 atom-4" d="M 58.8,107.8 L 56.6,92.5" style="fill:none;fill-rule:evenodd;stroke:#000000;stroke-width:2.0px;stroke-linecap:butt;stroke-linejoin:miter;stroke-opacity:1"/>
<path class="bond-3 atom-3 atom-4" d="M 56.6,92.5 L 54.4,77.2" style="fill:none;fill-rule:evenodd;stroke:#FF0000;stroke-width:2.0px;stroke-linecap:butt;stroke-linejoin:miter;stroke-opacity:1"/>
<path class="bond-3 atom-3 atom-4" d="M 53.5,108.5 L 51.3,93.2" style="fill:none;fill-rule:evenodd;stroke:#000000;stroke-width:2.0px;stroke-linecap:butt;stroke-linejoin:miter;stroke-opacity:1"/>
<path class="bond-3 atom-3 atom-4" d="M 51.3,93.2 L 49.1,77.9" style="fill:none;fill-rule:evenodd;stroke:#FF0000;stroke-width:2.0px;stroke-linecap:butt;stroke-linejoin:miter;stroke-opacity:1"/>
<path class="bond-4 atom-3 atom-5" d="M 55.9,106.6 L 44.7,115.4" style="fill:none;fill-rule:evenodd;stroke:#000000;stroke-width:2.0px;stroke-linecap:butt;stroke-linejoin:miter;stroke-opacity:1"/>
<path class="bond-4 atom-3 atom-5" d="M 44.7,115.4 L 33.6,124.2" style="fill:none;fill-rule:evenodd;stroke:#FF0000;stroke-width:2.0px;stroke-linecap:butt;stroke-linejoin:miter;stroke-opacity:1"/>
<path d="M 118.2,98.1 L 117.5,97.8 L 116.0,98.9" style="fill:none;stroke:#000000;stroke-width:2.0px;stroke-linecap:butt;stroke-linejoin:miter;stroke-opacity:1;"/>
<path d="M 90.6,118.8 L 89.2,120.0 L 87.6,119.3" style="fill:none;stroke:#000000;stroke-width:2.0px;stroke-linecap:butt;stroke-linejoin:miter;stroke-opacity:1;"/>
<path d="M 57.6,107.3 L 55.9,106.6 L 55.4,107.0" style="fill:none;stroke:#000000;stroke-width:2.0px;stroke-linecap:butt;stroke-linejoin:miter;stroke-opacity:1;"/>
<path class="atom-0" d="M 148.5 106.1 L 151.8 111.4 Q 152.2 112.0, 152.7 112.9 Q 153.2 113.9, 153.3 114.0 L 153.3 106.1 L 154.6 106.1 L 154.6 116.2 L 153.2 116.2 L 149.7 110.3 Q 149.2 109.6, 148.8 108.9 Q 148.4 108.1, 148.2 107.8 L 148.2 116.2 L 146.9 116.2 L 146.9 106.1 L 148.5 106.1 " fill="#0000FF"/>
<path class="atom-0" d="M 156.6 106.1 L 157.9 106.1 L 157.9 110.4 L 163.1 110.4 L 163.1 106.1 L 164.5 106.1 L 164.5 116.2 L 163.1 116.2 L 163.1 111.5 L 157.9 111.5 L 157.9 116.2 L 156.6 116.2 L 156.6 106.1 " fill="#0000FF"/>
<path class="atom-0" d="M 166.5 115.9 Q 166.7 115.2, 167.3 114.9 Q 167.9 114.5, 168.7 114.5 Q 169.7 114.5, 170.3 115.1 Q 170.9 115.6, 170.9 116.6 Q 170.9 117.6, 170.1 118.5 Q 169.4 119.4, 167.9 120.5 L 171.0 120.5 L 171.0 121.3 L 166.5 121.3 L 166.5 120.7 Q 167.7 119.8, 168.5 119.1 Q 169.2 118.5, 169.6 117.9 Q 169.9 117.3, 169.9 116.6 Q 169.9 116.0, 169.6 115.6 Q 169.3 115.3, 168.7 115.3 Q 168.2 115.3, 167.8 115.5 Q 167.5 115.7, 167.2 116.2 L 166.5 115.9 " fill="#0000FF"/>
<path class="atom-4" d="M 46.2 71.1 Q 46.2 68.7, 47.4 67.3 Q 48.6 65.9, 50.8 65.9 Q 53.1 65.9, 54.3 67.3 Q 55.5 68.7, 55.5 71.1 Q 55.5 73.6, 54.3 75.0 Q 53.1 76.4, 50.8 76.4 Q 48.6 76.4, 47.4 75.0 Q 46.2 73.6, 46.2 71.1 M 50.8 75.2 Q 52.4 75.2, 53.2 74.2 Q 54.1 73.1, 54.1 71.1 Q 54.1 69.1, 53.2 68.1 Q 52.4 67.1, 50.8 67.1 Q 49.3 67.1, 48.4 68.1 Q 47.6 69.1, 47.6 71.1 Q 47.6 73.2, 48.4 74.2 Q 49.3 75.2, 50.8 75.2 " fill="#FF0000"/>
<path class="atom-5" d="M 13.0 123.7 L 14.4 123.7 L 14.4 128.1 L 19.6 128.1 L 19.6 123.7 L 21.0 123.7 L 21.0 133.9 L 19.6 133.9 L 19.6 129.2 L 14.4 129.2 L 14.4 133.9 L 13.0 133.9 L 13.0 123.7 " fill="#FF0000"/>
<path class="atom-5" d="M 23.0 128.8 Q 23.0 126.4, 24.3 125.0 Q 25.5 123.6, 27.7 123.6 Q 30.0 123.6, 31.2 125.0 Q 32.4 126.4, 32.4 128.8 Q 32.4 131.3, 31.2 132.7 Q 29.9 134.1, 27.7 134.1 Q 25.5 134.1, 24.3 132.7 Q 23.0 131.3, 23.0 128.8 M 27.7 132.9 Q 29.3 132.9, 30.1 131.9 Q 30.9 130.8, 30.9 128.8 Q 30.9 126.8, 30.1 125.8 Q 29.3 124.8, 27.7 124.8 Q 26.2 124.8, 25.3 125.8 Q 24.5 126.8, 24.5 128.8 Q 24.5 130.8, 25.3 131.9 Q 26.2 132.9, 27.7 132.9 " fill="#FF0000"/>
</g>
    <g transform="translate(465.0, 0) scale(1 1) translate(180, 0) scale(1 1) "><line x1="15" y1="100" x2="25" y2="100" style="stroke:rgb(0,0,0);stroke-width:2"/>
  <line x1="20" y1="95" x2="20" y2="105" style="stroke:rgb(0,0,0);stroke-width:2"/>
</g>
    <g transform="translate(505.0, 0) scale(1 1) "><!-- END OF HEADER -->
<rect style="opacity:1.0;fill:#FFFFFF;stroke:none" width="25.0" height="200.0" x="0.0" y="0.0"> </rect>
<ellipse cx="12.2" cy="100.0" rx="11.0" ry="7.0" class="atom-0" style="fill:#B2E599;fill-rule:evenodd;stroke:#B2E599;stroke-width:1.0px;stroke-linecap:butt;stroke-linejoin:miter;stroke-opacity:1"/>
<path class="atom-0" d="M 5.5 95.0 L 7.7 98.5 Q 7.9 98.9, 8.2 99.5 Q 8.6 100.1, 8.6 100.1 L 8.6 95.0 L 9.5 95.0 L 9.5 101.6 L 8.6 101.6 L 6.2 97.8 Q 6.0 97.4, 5.7 96.9 Q 5.4 96.3, 5.3 96.2 L 5.3 101.6 L 4.5 101.6 L 4.5 95.0 L 5.5 95.0 " fill="#0000FF"/>
<path class="atom-0" d="M 10.7 95.0 L 11.6 95.0 L 11.6 97.8 L 15.0 97.8 L 15.0 95.0 L 15.8 95.0 L 15.8 101.6 L 15.0 101.6 L 15.0 98.6 L 11.6 98.6 L 11.6 101.6 L 10.7 101.6 L 10.7 95.0 " fill="#0000FF"/>
<path class="atom-0" d="M 19.2 102.6 Q 19.6 102.7, 19.8 103.0 Q 20.0 103.3, 20.0 103.7 Q 20.0 104.1, 19.8 104.4 Q 19.7 104.6, 19.3 104.8 Q 19.0 105.0, 18.5 105.0 Q 18.1 105.0, 17.7 104.8 Q 17.4 104.6, 17.1 104.3 L 17.5 103.9 Q 17.7 104.2, 18.0 104.4 Q 18.2 104.5, 18.5 104.5 Q 18.9 104.5, 19.2 104.3 Q 19.4 104.0, 19.4 103.7 Q 19.4 103.3, 19.2 103.1 Q 18.9 102.9, 18.4 102.9 L 18.1 102.9 L 18.1 102.4 L 18.4 102.4 Q 18.8 102.4, 19.1 102.2 Q 19.3 102.0, 19.3 101.6 Q 19.3 101.3, 19.1 101.2 Q 18.9 101.0, 18.6 101.0 Q 18.2 101.0, 18.0 101.1 Q 17.7 101.3, 17.6 101.6 L 17.2 101.4 Q 17.3 101.0, 17.7 100.8 Q 18.0 100.5, 18.6 100.5 Q 19.2 100.5, 19.6 100.8 Q 19.9 101.1, 19.9 101.6 Q 19.9 102.0, 19.7 102.2 Q 19.6 102.5, 19.2 102.6 " fill="#0000FF"/>
</g>
  </g>
</svg>
