<?xml version="1.0" encoding="utf-8" standalone="no"?>
<!DOCTYPE svg PUBLIC "-//W3C//DTD SVG 1.1//EN"
  "http://www.w3.org/Graphics/SVG/1.1/DTD/svg11.dtd">
<svg xmlns:xlink="http://www.w3.org/1999/xlink" width="460.8pt" height="345.6pt" viewBox="0 0 460.8 345.6" xmlns="http://www.w3.org/2000/svg" version="1.1">
 <metadata>
  <rdf:RDF xmlns:dc="http://purl.org/dc/elements/1.1/" xmlns:cc="http://creativecommons.org/ns#" xmlns:rdf="http://www.w3.org/1999/02/22-rdf-syntax-ns#">
   <cc:Work>
    <dc:type rdf:resource="http://purl.org/dc/dcmitype/StillImage"/>
    <dc:date>2025-01-28T06:57:28.464828</dc:date>
    <dc:format>image/svg+xml</dc:format>
    <dc:creator>
     <cc:Agent>
      <dc:title>Matplotlib v3.8.4, https://matplotlib.org/</dc:title>
     </cc:Agent>
    </dc:creator>
   </cc:Work>
  </rdf:RDF>
 </metadata>
 <defs>
  <style type="text/css">*{stroke-linejoin: round; stroke-linecap: butt}</style>
 </defs>
 <g id="figure_1">
  <g id="patch_1">
   <path d="M 0 345.6 
L 460.8 345.6 
L 460.8 0 
L 0 0 
z
" style="fill: #ffffff"/>
  </g>
  <g id="axes_1">
   <g id="patch_2">
    <path d="M 57.6 307.584 
L 414.72 307.584 
L 414.72 41.472 
L 57.6 41.472 
z
" style="fill: #ffffff"/>
   </g>
   <g id="patch_3">
    <path d="M 73.832727 47370.806192 
L 77.079966 47370.806192 
L 77.079966 151.949394 
L 73.832727 151.949394 
z
" clip-path="url(#p0bf7122154)" style="fill: #1f77b4"/>
   </g>
   <g id="patch_4">
    <path d="M 77.079966 47370.806192 
L 80.327205 47370.806192 
L 80.327205 202.104878 
L 77.079966 202.104878 
z
" clip-path="url(#p0bf7122154)" style="fill: #1f77b4"/>
   </g>
   <g id="patch_5">
    <path d="M 80.327205 47370.806192 
L 83.571967 47370.806192 
L 83.571967 160.431351 
L 80.327205 160.431351 
z
" clip-path="url(#p0bf7122154)" style="fill: #1f77b4"/>
   </g>
   <g id="patch_6">
    <path d="M 83.571967 47370.806192 
L 86.821683 47370.806192 
L 86.821683 128.147131 
L 83.571967 128.147131 
z
" clip-path="url(#p0bf7122154)" style="fill: #1f77b4"/>
   </g>
   <g id="patch_7">
    <path d="M 86.821683 47370.806192 
L 90.061491 47370.806192 
L 90.061491 92.684137 
L 86.821683 92.684137 
z
" clip-path="url(#p0bf7122154)" style="fill: #1f77b4"/>
   </g>
   <g id="patch_8">
    <path d="M 90.061491 47370.806192 
L 93.311207 47370.806192 
L 93.311207 66.099696 
L 90.061491 66.099696 
z
" clip-path="url(#p0bf7122154)" style="fill: #1f77b4"/>
   </g>
   <g id="patch_9">
    <path d="M 93.311207 47370.806192 
L 96.560923 47370.806192 
L 96.560923 53.568 
L 93.311207 53.568 
z
" clip-path="url(#p0bf7122154)" style="fill: #1f77b4"/>
   </g>
   <g id="patch_10">
    <path d="M 96.560923 47370.806192 
L 99.810639 47370.806192 
L 99.810639 54.061878 
L 96.560923 54.061878 
z
" clip-path="url(#p0bf7122154)" style="fill: #1f77b4"/>
   </g>
   <g id="patch_11">
    <path d="M 99.810639 47370.806192 
L 103.060355 47370.806192 
L 103.060355 64.030573 
L 99.810639 64.030573 
z
" clip-path="url(#p0bf7122154)" style="fill: #1f77b4"/>
   </g>
   <g id="patch_12">
    <path d="M 103.060355 47370.806192 
L 106.290256 47370.806192 
L 106.290256 81.461382 
L 103.060355 81.461382 
z
" clip-path="url(#p0bf7122154)" style="fill: #1f77b4"/>
   </g>
   <g id="patch_13">
    <path d="M 106.290256 47370.806192 
L 109.539972 47370.806192 
L 109.539972 99.988783 
L 106.290256 99.988783 
z
" clip-path="url(#p0bf7122154)" style="fill: #1f77b4"/>
   </g>
   <g id="patch_14">
    <path d="M 109.539972 47370.806192 
L 112.789688 47370.806192 
L 112.789688 121.84506 
L 109.539972 121.84506 
z
" clip-path="url(#p0bf7122154)" style="fill: #1f77b4"/>
   </g>
   <g id="patch_15">
    <path d="M 112.789688 47370.806192 
L 116.039403 47370.806192 
L 116.039403 140.546861 
L 112.789688 140.546861 
z
" clip-path="url(#p0bf7122154)" style="fill: #1f77b4"/>
   </g>
   <g id="patch_16">
    <path d="M 116.039403 47370.806192 
L 119.289119 47370.806192 
L 119.289119 155.316545 
L 116.039403 155.316545 
z
" clip-path="url(#p0bf7122154)" style="fill: #1f77b4"/>
   </g>
   <g id="patch_17">
    <path d="M 119.289119 47370.806192 
L 122.538835 47370.806192 
L 122.538835 168.360452 
L 119.289119 168.360452 
z
" clip-path="url(#p0bf7122154)" style="fill: #1f77b4"/>
   </g>
   <g id="patch_18">
    <path d="M 122.538835 47370.806192 
L 125.788551 47370.806192 
L 125.788551 172.1318 
L 122.538835 172.1318 
z
" clip-path="url(#p0bf7122154)" style="fill: #1f77b4"/>
   </g>
   <g id="patch_19">
    <path d="M 125.788551 47370.806192 
L 129.038267 47370.806192 
L 129.038267 178.743592 
L 125.788551 178.743592 
z
" clip-path="url(#p0bf7122154)" style="fill: #1f77b4"/>
   </g>
   <g id="patch_20">
    <path d="M 129.038267 47370.806192 
L 132.287983 47370.806192 
L 132.287983 189.878889 
L 129.038267 189.878889 
z
" clip-path="url(#p0bf7122154)" style="fill: #1f77b4"/>
   </g>
   <g id="patch_21">
    <path d="M 132.287983 47370.806192 
L 135.498068 47370.806192 
L 135.498068 195.554717 
L 132.287983 195.554717 
z
" clip-path="url(#p0bf7122154)" style="fill: #1f77b4"/>
   </g>
   <g id="patch_22">
    <path d="M 135.498068 47370.806192 
L 138.747784 47370.806192 
L 138.747784 210.646117 
L 135.498068 210.646117 
z
" clip-path="url(#p0bf7122154)" style="fill: #1f77b4"/>
   </g>
   <g id="patch_23">
    <path d="M 138.747784 47370.806192 
L 141.9975 47370.806192 
L 141.9975 188.269038 
L 138.747784 188.269038 
z
" clip-path="url(#p0bf7122154)" style="fill: #1f77b4"/>
   </g>
   <g id="patch_24">
    <path d="M 141.9975 47370.806192 
L 145.247216 47370.806192 
L 145.247216 206.606627 
L 141.9975 206.606627 
z
" clip-path="url(#p0bf7122154)" style="fill: #1f77b4"/>
   </g>
   <g id="patch_25">
    <path d="M 145.247216 47370.806192 
L 148.496932 47370.806192 
L 148.496932 218.848895 
L 145.247216 218.848895 
z
" clip-path="url(#p0bf7122154)" style="fill: #1f77b4"/>
   </g>
   <g id="patch_26">
    <path d="M 148.496932 47370.806192 
L 151.746648 47370.806192 
L 151.746648 217.020431 
L 148.496932 217.020431 
z
" clip-path="url(#p0bf7122154)" style="fill: #1f77b4"/>
   </g>
   <g id="patch_27">
    <path d="M 151.746648 47370.806192 
L 154.996364 47370.806192 
L 154.996364 247.115046 
L 151.746648 247.115046 
z
" clip-path="url(#p0bf7122154)" style="fill: #1f77b4"/>
   </g>
   <g id="patch_28">
    <path d="M 154.996364 47370.806192 
L 158.24608 47370.806192 
L 158.24608 211.570225 
L 154.996364 211.570225 
z
" clip-path="url(#p0bf7122154)" style="fill: #1f77b4"/>
   </g>
   <g id="patch_29">
    <path d="M 158.24608 47370.806192 
L 161.495795 47370.806192 
L 161.495795 229.938701 
L 158.24608 229.938701 
z
" clip-path="url(#p0bf7122154)" style="fill: #1f77b4"/>
   </g>
   <g id="patch_30">
    <path d="M 161.495795 47370.806192 
L 164.745511 47370.806192 
L 164.745511 241.020653 
L 161.495795 241.020653 
z
" clip-path="url(#p0bf7122154)" style="fill: #1f77b4"/>
   </g>
   <g id="patch_31">
    <path d="M 164.745511 47370.806192 
L 167.995227 47370.806192 
L 167.995227 231.38972 
L 164.745511 231.38972 
z
" clip-path="url(#p0bf7122154)" style="fill: #1f77b4"/>
   </g>
   <g id="patch_32">
    <path d="M 167.995227 47370.806192 
L 171.244943 47370.806192 
L 171.244943 256.918877 
L 167.995227 256.918877 
z
" clip-path="url(#p0bf7122154)" style="fill: #1f77b4"/>
   </g>
   <g id="patch_33">
    <path d="M 171.244943 47370.806192 
L 174.494659 47370.806192 
L 174.494659 241.825088 
L 171.244943 241.825088 
z
" clip-path="url(#p0bf7122154)" style="fill: #1f77b4"/>
   </g>
   <g id="patch_34">
    <path d="M 174.494659 47370.806192 
L 177.744375 47370.806192 
L 177.744375 251.884937 
L 174.494659 251.884937 
z
" clip-path="url(#p0bf7122154)" style="fill: #1f77b4"/>
   </g>
   <g id="patch_35">
    <path d="M 177.744375 47370.806192 
L 180.994091 47370.806192 
L 180.994091 276.834825 
L 177.744375 276.834825 
z
" clip-path="url(#p0bf7122154)" style="fill: #1f77b4"/>
   </g>
   <g id="patch_36">
    <path d="M 180.994091 47370.806192 
L 184.243807 47370.806192 
L 184.243807 250.277093 
L 180.994091 250.277093 
z
" clip-path="url(#p0bf7122154)" style="fill: #1f77b4"/>
   </g>
   <g id="patch_37">
    <path d="M 184.243807 47370.806192 
L 187.493523 47370.806192 
L 187.493523 276.157445 
L 184.243807 276.157445 
z
" clip-path="url(#p0bf7122154)" style="fill: #1f77b4"/>
   </g>
   <g id="patch_38">
    <path d="M 187.493523 47370.806192 
L 190.743239 47370.806192 
L 190.743239 266.104231 
L 187.493523 266.104231 
z
" clip-path="url(#p0bf7122154)" style="fill: #1f77b4"/>
   </g>
   <g id="patch_39">
    <path d="M 190.743239 47370.806192 
L 193.992955 47370.806192 
L 193.992955 268.879779 
L 190.743239 268.879779 
z
" clip-path="url(#p0bf7122154)" style="fill: #1f77b4"/>
   </g>
   <g id="patch_40">
    <path d="M 193.992955 47370.806192 
L 197.163409 47370.806192 
L 197.163409 272.298986 
L 193.992955 272.298986 
z
" clip-path="url(#p0bf7122154)" style="fill: #1f77b4"/>
   </g>
   <g id="patch_41">
    <path d="M 197.163409 47370.806192 
L 200.413125 47370.806192 
L 200.413125 277.714452 
L 197.163409 277.714452 
z
" clip-path="url(#p0bf7122154)" style="fill: #1f77b4"/>
   </g>
   <g id="patch_42">
    <path d="M 200.413125 47370.806192 
L 203.662841 47370.806192 
L 203.662841 278.917769 
L 200.413125 278.917769 
z
" clip-path="url(#p0bf7122154)" style="fill: #1f77b4"/>
   </g>
   <g id="patch_43">
    <path d="M 203.662841 47370.806192 
L 206.912557 47370.806192 
L 206.912557 270.080372 
L 203.662841 270.080372 
z
" clip-path="url(#p0bf7122154)" style="fill: #1f77b4"/>
   </g>
   <g id="patch_44">
    <path d="M 206.912557 47370.806192 
L 210.162273 47370.806192 
L 210.162273 278.077203 
L 206.912557 278.077203 
z
" clip-path="url(#p0bf7122154)" style="fill: #1f77b4"/>
   </g>
   <g id="patch_45">
    <path d="M 210.162273 47370.806192 
L 213.411989 47370.806192 
L 213.411989 272.0251 
L 210.162273 272.0251 
z
" clip-path="url(#p0bf7122154)" style="fill: #1f77b4"/>
   </g>
   <g id="patch_46">
    <path d="M 213.411989 47370.806192 
L 216.661705 47370.806192 
L 216.661705 274.479443 
L 213.411989 274.479443 
z
" clip-path="url(#p0bf7122154)" style="fill: #1f77b4"/>
   </g>
   <g id="patch_47">
    <path d="M 216.661705 47370.806192 
L 219.91142 47370.806192 
L 219.91142 282.561759 
L 216.661705 282.561759 
z
" clip-path="url(#p0bf7122154)" style="fill: #1f77b4"/>
   </g>
   <g id="patch_48">
    <path d="M 219.91142 47370.806192 
L 223.161136 47370.806192 
L 223.161136 277.182139 
L 219.91142 277.182139 
z
" clip-path="url(#p0bf7122154)" style="fill: #1f77b4"/>
   </g>
   <g id="patch_49">
    <path d="M 223.161136 47370.806192 
L 226.410852 47370.806192 
L 226.410852 280.71051 
L 223.161136 280.71051 
z
" clip-path="url(#p0bf7122154)" style="fill: #1f77b4"/>
   </g>
   <g id="patch_50">
    <path d="M 226.410852 47370.806192 
L 229.660568 47370.806192 
L 229.660568 279.498023 
L 226.410852 279.498023 
z
" clip-path="url(#p0bf7122154)" style="fill: #1f77b4"/>
   </g>
   <g id="patch_51">
    <path d="M 229.660568 47370.806192 
L 232.910284 47370.806192 
L 232.910284 282.561759 
L 229.660568 282.561759 
z
" clip-path="url(#p0bf7122154)" style="fill: #1f77b4"/>
   </g>
   <g id="patch_52">
    <path d="M 232.910284 47370.806192 
L 236.16 47370.806192 
L 236.16 286.859945 
L 232.910284 286.859945 
z
" clip-path="url(#p0bf7122154)" style="fill: #1f77b4"/>
   </g>
   <g id="patch_53">
    <path d="M 236.16 47370.806192 
L 239.330455 47370.806192 
L 239.330455 279.10936 
L 236.16 279.10936 
z
" clip-path="url(#p0bf7122154)" style="fill: #1f77b4"/>
   </g>
   <g id="patch_54">
    <path d="M 239.330455 47370.806192 
L 242.659432 47370.806192 
L 242.659432 284.472319 
L 239.330455 284.472319 
z
" clip-path="url(#p0bf7122154)" style="fill: #1f77b4"/>
   </g>
   <g id="patch_55">
    <path d="M 242.659432 47370.806192 
L 245.829886 47370.806192 
L 245.829886 280.71051 
L 242.659432 280.71051 
z
" clip-path="url(#p0bf7122154)" style="fill: #1f77b4"/>
   </g>
   <g id="patch_56">
    <path d="M 245.829886 47370.806192 
L 249.158864 47370.806192 
L 249.158864 278.44652 
L 245.829886 278.44652 
z
" clip-path="url(#p0bf7122154)" style="fill: #1f77b4"/>
   </g>
   <g id="patch_57">
    <path d="M 249.158864 47370.806192 
L 252.329318 47370.806192 
L 252.329318 282.110819 
L 249.158864 282.110819 
z
" clip-path="url(#p0bf7122154)" style="fill: #1f77b4"/>
   </g>
   <g id="patch_58">
    <path d="M 252.329318 47370.806192 
L 255.658295 47370.806192 
L 255.658295 284.851355 
L 252.329318 284.851355 
z
" clip-path="url(#p0bf7122154)" style="fill: #1f77b4"/>
   </g>
   <g id="patch_59">
    <path d="M 255.658295 47370.806192 
L 258.82875 47370.806192 
L 258.82875 280.919786 
L 255.658295 280.919786 
z
" clip-path="url(#p0bf7122154)" style="fill: #1f77b4"/>
   </g>
   <g id="patch_60">
    <path d="M 258.82875 47370.806192 
L 262.157727 47370.806192 
L 262.157727 279.596356 
L 258.82875 279.596356 
z
" clip-path="url(#p0bf7122154)" style="fill: #1f77b4"/>
   </g>
   <g id="patch_61">
    <path d="M 262.157727 47370.806192 
L 265.328182 47370.806192 
L 265.328182 285.108015 
L 262.157727 285.108015 
z
" clip-path="url(#p0bf7122154)" style="fill: #1f77b4"/>
   </g>
   <g id="patch_62">
    <path d="M 265.328182 47370.806192 
L 268.657159 47370.806192 
L 268.657159 281.66963 
L 265.328182 281.66963 
z
" clip-path="url(#p0bf7122154)" style="fill: #1f77b4"/>
   </g>
   <g id="patch_63">
    <path d="M 268.657159 47370.806192 
L 271.827614 47370.806192 
L 271.827614 283.022891 
L 268.657159 283.022891 
z
" clip-path="url(#p0bf7122154)" style="fill: #1f77b4"/>
   </g>
   <g id="patch_64">
    <path d="M 271.827614 47370.806192 
L 275.156591 47370.806192 
L 275.156591 286.71971 
L 271.827614 286.71971 
z
" clip-path="url(#p0bf7122154)" style="fill: #1f77b4"/>
   </g>
   <g id="patch_65">
    <path d="M 275.156591 47370.806192 
L 278.327045 47370.806192 
L 278.327045 286.71971 
L 275.156591 286.71971 
z
" clip-path="url(#p0bf7122154)" style="fill: #1f77b4"/>
   </g>
   <g id="patch_66">
    <path d="M 278.327045 47370.806192 
L 281.656023 47370.806192 
L 281.656023 283.734737 
L 278.327045 283.734737 
z
" clip-path="url(#p0bf7122154)" style="fill: #1f77b4"/>
   </g>
   <g id="patch_67">
    <path d="M 281.656023 47370.806192 
L 284.826477 47370.806192 
L 284.826477 283.977647 
L 281.656023 283.977647 
z
" clip-path="url(#p0bf7122154)" style="fill: #1f77b4"/>
   </g>
   <g id="patch_68">
    <path d="M 284.826477 47370.806192 
L 288.155455 47370.806192 
L 288.155455 284.347522 
L 284.826477 284.347522 
z
" clip-path="url(#p0bf7122154)" style="fill: #1f77b4"/>
   </g>
   <g id="patch_69">
    <path d="M 288.155455 47370.806192 
L 291.325909 47370.806192 
L 291.325909 286.304695 
L 288.155455 286.304695 
z
" clip-path="url(#p0bf7122154)" style="fill: #1f77b4"/>
   </g>
   <g id="patch_70">
    <path d="M 291.325909 47370.806192 
L 294.654886 47370.806192 
L 294.654886 288.469713 
L 291.325909 288.469713 
z
" clip-path="url(#p0bf7122154)" style="fill: #1f77b4"/>
   </g>
   <g id="patch_71">
    <path d="M 294.654886 47370.806192 
L 297.825341 47370.806192 
L 297.825341 286.71971 
L 294.654886 286.71971 
z
" clip-path="url(#p0bf7122154)" style="fill: #1f77b4"/>
   </g>
   <g id="patch_72">
    <path d="M 297.825341 47370.806192 
L 301.154318 47370.806192 
L 301.154318 290.892024 
L 297.825341 290.892024 
z
" clip-path="url(#p0bf7122154)" style="fill: #1f77b4"/>
   </g>
   <g id="patch_73">
    <path d="M 301.154318 47370.806192 
L 304.324773 47370.806192 
L 304.324773 289.40442 
L 301.154318 289.40442 
z
" clip-path="url(#p0bf7122154)" style="fill: #1f77b4"/>
   </g>
   <g id="patch_74">
    <path d="M 304.324773 47370.806192 
L 307.65375 47370.806192 
L 307.65375 293.060881 
L 304.324773 293.060881 
z
" clip-path="url(#p0bf7122154)" style="fill: #1f77b4"/>
   </g>
   <g id="patch_75">
    <path d="M 307.65375 47370.806192 
L 310.824205 47370.806192 
L 310.824205 290.551946 
L 307.65375 290.551946 
z
" clip-path="url(#p0bf7122154)" style="fill: #1f77b4"/>
   </g>
   <g id="patch_76">
    <path d="M 310.824205 47370.806192 
L 314.153182 47370.806192 
L 314.153182 291.237866 
L 310.824205 291.237866 
z
" clip-path="url(#p0bf7122154)" style="fill: #1f77b4"/>
   </g>
   <g id="patch_77">
    <path d="M 314.153182 47370.806192 
L 317.323636 47370.806192 
L 317.323636 295.488 
L 314.153182 295.488 
z
" clip-path="url(#p0bf7122154)" style="fill: #1f77b4"/>
   </g>
   <g id="patch_78">
    <path d="M 317.323636 47370.806192 
L 320.494091 47370.806192 
L 320.494091 293.641134 
L 317.323636 293.641134 
z
" clip-path="url(#p0bf7122154)" style="fill: #1f77b4"/>
   </g>
   <g id="patch_79">
    <path d="M 320.494091 47370.806192 
L 323.823068 47370.806192 
L 323.823068 286.71971 
L 320.494091 286.71971 
z
" clip-path="url(#p0bf7122154)" style="fill: #1f77b4"/>
   </g>
   <g id="patch_80">
    <path d="M 323.823068 47370.806192 
L 326.993523 47370.806192 
L 326.993523 280.71051 
L 323.823068 280.71051 
z
" clip-path="url(#p0bf7122154)" style="fill: #1f77b4"/>
   </g>
   <g id="patch_81">
    <path d="M 326.993523 47370.806192 
L 330.3225 47370.806192 
L 330.3225 287.575956 
L 326.993523 287.575956 
z
" clip-path="url(#p0bf7122154)" style="fill: #1f77b4"/>
   </g>
   <g id="patch_82">
    <path d="M 330.3225 47370.806192 
L 333.492955 47370.806192 
L 333.492955 282.222624 
L 330.3225 282.222624 
z
" clip-path="url(#p0bf7122154)" style="fill: #1f77b4"/>
   </g>
   <g id="patch_83">
    <path d="M 333.492955 47370.806192 
L 336.821932 47370.806192 
L 336.821932 279.205833 
L 333.492955 279.205833 
z
" clip-path="url(#p0bf7122154)" style="fill: #1f77b4"/>
   </g>
   <g id="patch_84">
    <path d="M 336.821932 47370.806192 
L 339.992386 47370.806192 
L 339.992386 285.367944 
L 336.821932 285.367944 
z
" clip-path="url(#p0bf7122154)" style="fill: #1f77b4"/>
   </g>
   <g id="patch_85">
    <path d="M 339.992386 47370.806192 
L 343.321364 47370.806192 
L 343.321364 286.580432 
L 339.992386 286.580432 
z
" clip-path="url(#p0bf7122154)" style="fill: #1f77b4"/>
   </g>
   <g id="patch_86">
    <path d="M 343.321364 47370.806192 
L 346.491818 47370.806192 
L 346.491818 284.347522 
L 343.321364 284.347522 
z
" clip-path="url(#p0bf7122154)" style="fill: #1f77b4"/>
   </g>
   <g id="patch_87">
    <path d="M 346.491818 47370.806192 
L 349.820795 47370.806192 
L 349.820795 283.494685 
L 346.491818 283.494685 
z
" clip-path="url(#p0bf7122154)" style="fill: #1f77b4"/>
   </g>
   <g id="patch_88">
    <path d="M 349.820795 47370.806192 
L 352.99125 47370.806192 
L 352.99125 286.859945 
L 349.820795 286.859945 
z
" clip-path="url(#p0bf7122154)" style="fill: #1f77b4"/>
   </g>
   <g id="patch_89">
    <path d="M 352.99125 47370.806192 
L 356.320227 47370.806192 
L 356.320227 284.979281 
L 352.99125 284.979281 
z
" clip-path="url(#p0bf7122154)" style="fill: #1f77b4"/>
   </g>
   <g id="patch_90">
    <path d="M 356.320227 47370.806192 
L 359.490682 47370.806192 
L 359.490682 279.9945 
L 356.320227 279.9945 
z
" clip-path="url(#p0bf7122154)" style="fill: #1f77b4"/>
   </g>
   <g id="patch_91">
    <path d="M 359.490682 47370.806192 
L 362.819659 47370.806192 
L 362.819659 281.779037 
L 359.490682 281.779037 
z
" clip-path="url(#p0bf7122154)" style="fill: #1f77b4"/>
   </g>
   <g id="patch_92">
    <path d="M 362.819659 47370.806192 
L 365.990114 47370.806192 
L 365.990114 283.734737 
L 362.819659 283.734737 
z
" clip-path="url(#p0bf7122154)" style="fill: #1f77b4"/>
   </g>
   <g id="patch_93">
    <path d="M 365.990114 47370.806192 
L 369.319091 47370.806192 
L 369.319091 283.734737 
L 365.990114 283.734737 
z
" clip-path="url(#p0bf7122154)" style="fill: #1f77b4"/>
   </g>
   <g id="patch_94">
    <path d="M 369.319091 47370.806192 
L 372.489545 47370.806192 
L 372.489545 284.597883 
L 369.319091 284.597883 
z
" clip-path="url(#p0bf7122154)" style="fill: #1f77b4"/>
   </g>
   <g id="patch_95">
    <path d="M 372.489545 47370.806192 
L 375.818523 47370.806192 
L 375.818523 282.222624 
L 372.489545 282.222624 
z
" clip-path="url(#p0bf7122154)" style="fill: #1f77b4"/>
   </g>
   <g id="patch_96">
    <path d="M 375.818523 47370.806192 
L 378.988977 47370.806192 
L 378.988977 286.71971 
L 375.818523 286.71971 
z
" clip-path="url(#p0bf7122154)" style="fill: #1f77b4"/>
   </g>
   <g id="patch_97">
    <path d="M 378.988977 47370.806192 
L 382.317955 47370.806192 
L 382.317955 288.017941 
L 378.988977 288.017941 
z
" clip-path="url(#p0bf7122154)" style="fill: #1f77b4"/>
   </g>
   <g id="patch_98">
    <path d="M 382.317955 47370.806192 
L 385.488409 47370.806192 
L 385.488409 289.888337 
L 382.317955 289.888337 
z
" clip-path="url(#p0bf7122154)" style="fill: #1f77b4"/>
   </g>
   <g id="patch_99">
    <path d="M 385.488409 47370.806192 
L 388.817386 47370.806192 
L 388.817386 291.237866 
L 385.488409 291.237866 
z
" clip-path="url(#p0bf7122154)" style="fill: #1f77b4"/>
   </g>
   <g id="patch_100">
    <path d="M 388.817386 47370.806192 
L 391.987841 47370.806192 
L 391.987841 285.367944 
L 388.817386 285.367944 
z
" clip-path="url(#p0bf7122154)" style="fill: #1f77b4"/>
   </g>
   <g id="patch_101">
    <path d="M 391.987841 47370.806192 
L 395.316818 47370.806192 
L 395.316818 280.606671 
L 391.987841 280.606671 
z
" clip-path="url(#p0bf7122154)" style="fill: #1f77b4"/>
   </g>
   <g id="patch_102">
    <path d="M 395.316818 47370.806192 
L 398.487273 47370.806192 
L 398.487273 282.791022 
L 395.316818 282.791022 
z
" clip-path="url(#p0bf7122154)" style="fill: #1f77b4"/>
   </g>
   <g id="matplotlib.axis_1">
    <g id="xtick_1">
     <g id="line2d_1">
      <defs>
       <path id="ma35a3c350a" d="M 0 0 
L 0 3.5 
" style="stroke: #000000; stroke-width: 0.8"/>
      </defs>
      <g>
       <use xlink:href="#ma35a3c350a" x="73.832727" y="307.584" style="stroke: #000000; stroke-width: 0.8"/>
      </g>
     </g>
     <g id="text_1">
      <!-- 0.0 -->
      <g transform="translate(65.881165 322.182437) scale(0.1 -0.1)">
       <defs>
        <path id="DejaVuSans-30" d="M 2034 4250 
Q 1547 4250 1301 3770 
Q 1056 3291 1056 2328 
Q 1056 1369 1301 889 
Q 1547 409 2034 409 
Q 2525 409 2770 889 
Q 3016 1369 3016 2328 
Q 3016 3291 2770 3770 
Q 2525 4250 2034 4250 
z
M 2034 4750 
Q 2819 4750 3233 4129 
Q 3647 3509 3647 2328 
Q 3647 1150 3233 529 
Q 2819 -91 2034 -91 
Q 1250 -91 836 529 
Q 422 1150 422 2328 
Q 422 3509 836 4129 
Q 1250 4750 2034 4750 
z
" transform="scale(0.015625)"/>
        <path id="DejaVuSans-2e" d="M 684 794 
L 1344 794 
L 1344 0 
L 684 0 
L 684 794 
z
" transform="scale(0.015625)"/>
       </defs>
       <use xlink:href="#DejaVuSans-30"/>
       <use xlink:href="#DejaVuSans-2e" x="63.623047"/>
       <use xlink:href="#DejaVuSans-30" x="95.410156"/>
      </g>
     </g>
    </g>
    <g id="xtick_2">
     <g id="line2d_2">
      <g>
       <use xlink:href="#ma35a3c350a" x="138.763636" y="307.584" style="stroke: #000000; stroke-width: 0.8"/>
      </g>
     </g>
     <g id="text_2">
      <!-- 0.2 -->
      <g transform="translate(130.812074 322.182437) scale(0.1 -0.1)">
       <defs>
        <path id="DejaVuSans-32" d="M 1228 531 
L 3431 531 
L 3431 0 
L 469 0 
L 469 531 
Q 828 903 1448 1529 
Q 2069 2156 2228 2338 
Q 2531 2678 2651 2914 
Q 2772 3150 2772 3378 
Q 2772 3750 2511 3984 
Q 2250 4219 1831 4219 
Q 1534 4219 1204 4116 
Q 875 4013 500 3803 
L 500 4441 
Q 881 4594 1212 4672 
Q 1544 4750 1819 4750 
Q 2544 4750 2975 4387 
Q 3406 4025 3406 3419 
Q 3406 3131 3298 2873 
Q 3191 2616 2906 2266 
Q 2828 2175 2409 1742 
Q 1991 1309 1228 531 
z
" transform="scale(0.015625)"/>
       </defs>
       <use xlink:href="#DejaVuSans-30"/>
       <use xlink:href="#DejaVuSans-2e" x="63.623047"/>
       <use xlink:href="#DejaVuSans-32" x="95.410156"/>
      </g>
     </g>
    </g>
    <g id="xtick_3">
     <g id="line2d_3">
      <g>
       <use xlink:href="#ma35a3c350a" x="203.694545" y="307.584" style="stroke: #000000; stroke-width: 0.8"/>
      </g>
     </g>
     <g id="text_3">
      <!-- 0.4 -->
      <g transform="translate(195.742983 322.182437) scale(0.1 -0.1)">
       <defs>
        <path id="DejaVuSans-34" d="M 2419 4116 
L 825 1625 
L 2419 1625 
L 2419 4116 
z
M 2253 4666 
L 3047 4666 
L 3047 1625 
L 3713 1625 
L 3713 1100 
L 3047 1100 
L 3047 0 
L 2419 0 
L 2419 1100 
L 313 1100 
L 313 1709 
L 2253 4666 
z
" transform="scale(0.015625)"/>
       </defs>
       <use xlink:href="#DejaVuSans-30"/>
       <use xlink:href="#DejaVuSans-2e" x="63.623047"/>
       <use xlink:href="#DejaVuSans-34" x="95.410156"/>
      </g>
     </g>
    </g>
    <g id="xtick_4">
     <g id="line2d_4">
      <g>
       <use xlink:href="#ma35a3c350a" x="268.625455" y="307.584" style="stroke: #000000; stroke-width: 0.8"/>
      </g>
     </g>
     <g id="text_4">
      <!-- 0.6 -->
      <g transform="translate(260.673892 322.182437) scale(0.1 -0.1)">
       <defs>
        <path id="DejaVuSans-36" d="M 2113 2584 
Q 1688 2584 1439 2293 
Q 1191 2003 1191 1497 
Q 1191 994 1439 701 
Q 1688 409 2113 409 
Q 2538 409 2786 701 
Q 3034 994 3034 1497 
Q 3034 2003 2786 2293 
Q 2538 2584 2113 2584 
z
M 3366 4563 
L 3366 3988 
Q 3128 4100 2886 4159 
Q 2644 4219 2406 4219 
Q 1781 4219 1451 3797 
Q 1122 3375 1075 2522 
Q 1259 2794 1537 2939 
Q 1816 3084 2150 3084 
Q 2853 3084 3261 2657 
Q 3669 2231 3669 1497 
Q 3669 778 3244 343 
Q 2819 -91 2113 -91 
Q 1303 -91 875 529 
Q 447 1150 447 2328 
Q 447 3434 972 4092 
Q 1497 4750 2381 4750 
Q 2619 4750 2861 4703 
Q 3103 4656 3366 4563 
z
" transform="scale(0.015625)"/>
       </defs>
       <use xlink:href="#DejaVuSans-30"/>
       <use xlink:href="#DejaVuSans-2e" x="63.623047"/>
       <use xlink:href="#DejaVuSans-36" x="95.410156"/>
      </g>
     </g>
    </g>
    <g id="xtick_5">
     <g id="line2d_5">
      <g>
       <use xlink:href="#ma35a3c350a" x="333.556364" y="307.584" style="stroke: #000000; stroke-width: 0.8"/>
      </g>
     </g>
     <g id="text_5">
      <!-- 0.8 -->
      <g transform="translate(325.604801 322.182437) scale(0.1 -0.1)">
       <defs>
        <path id="DejaVuSans-38" d="M 2034 2216 
Q 1584 2216 1326 1975 
Q 1069 1734 1069 1313 
Q 1069 891 1326 650 
Q 1584 409 2034 409 
Q 2484 409 2743 651 
Q 3003 894 3003 1313 
Q 3003 1734 2745 1975 
Q 2488 2216 2034 2216 
z
M 1403 2484 
Q 997 2584 770 2862 
Q 544 3141 544 3541 
Q 544 4100 942 4425 
Q 1341 4750 2034 4750 
Q 2731 4750 3128 4425 
Q 3525 4100 3525 3541 
Q 3525 3141 3298 2862 
Q 3072 2584 2669 2484 
Q 3125 2378 3379 2068 
Q 3634 1759 3634 1313 
Q 3634 634 3220 271 
Q 2806 -91 2034 -91 
Q 1263 -91 848 271 
Q 434 634 434 1313 
Q 434 1759 690 2068 
Q 947 2378 1403 2484 
z
M 1172 3481 
Q 1172 3119 1398 2916 
Q 1625 2713 2034 2713 
Q 2441 2713 2670 2916 
Q 2900 3119 2900 3481 
Q 2900 3844 2670 4047 
Q 2441 4250 2034 4250 
Q 1625 4250 1398 4047 
Q 1172 3844 1172 3481 
z
" transform="scale(0.015625)"/>
       </defs>
       <use xlink:href="#DejaVuSans-30"/>
       <use xlink:href="#DejaVuSans-2e" x="63.623047"/>
       <use xlink:href="#DejaVuSans-38" x="95.410156"/>
      </g>
     </g>
    </g>
    <g id="xtick_6">
     <g id="line2d_6">
      <g>
       <use xlink:href="#ma35a3c350a" x="398.487273" y="307.584" style="stroke: #000000; stroke-width: 0.8"/>
      </g>
     </g>
     <g id="text_6">
      <!-- 1.0 -->
      <g transform="translate(390.53571 322.182437) scale(0.1 -0.1)">
       <defs>
        <path id="DejaVuSans-31" d="M 794 531 
L 1825 531 
L 1825 4091 
L 703 3866 
L 703 4441 
L 1819 4666 
L 2450 4666 
L 2450 531 
L 3481 531 
L 3481 0 
L 794 0 
L 794 531 
z
" transform="scale(0.015625)"/>
       </defs>
       <use xlink:href="#DejaVuSans-31"/>
       <use xlink:href="#DejaVuSans-2e" x="63.623047"/>
       <use xlink:href="#DejaVuSans-30" x="95.410156"/>
      </g>
     </g>
    </g>
    <g id="text_7">
     <!-- GSI Similarity -->
     <g transform="translate(202.407656 335.860562) scale(0.1 -0.1)">
      <defs>
       <path id="DejaVuSans-47" d="M 3809 666 
L 3809 1919 
L 2778 1919 
L 2778 2438 
L 4434 2438 
L 4434 434 
Q 4069 175 3628 42 
Q 3188 -91 2688 -91 
Q 1594 -91 976 548 
Q 359 1188 359 2328 
Q 359 3472 976 4111 
Q 1594 4750 2688 4750 
Q 3144 4750 3555 4637 
Q 3966 4525 4313 4306 
L 4313 3634 
Q 3963 3931 3569 4081 
Q 3175 4231 2741 4231 
Q 1884 4231 1454 3753 
Q 1025 3275 1025 2328 
Q 1025 1384 1454 906 
Q 1884 428 2741 428 
Q 3075 428 3337 486 
Q 3600 544 3809 666 
z
" transform="scale(0.015625)"/>
       <path id="DejaVuSans-53" d="M 3425 4513 
L 3425 3897 
Q 3066 4069 2747 4153 
Q 2428 4238 2131 4238 
Q 1616 4238 1336 4038 
Q 1056 3838 1056 3469 
Q 1056 3159 1242 3001 
Q 1428 2844 1947 2747 
L 2328 2669 
Q 3034 2534 3370 2195 
Q 3706 1856 3706 1288 
Q 3706 609 3251 259 
Q 2797 -91 1919 -91 
Q 1588 -91 1214 -16 
Q 841 59 441 206 
L 441 856 
Q 825 641 1194 531 
Q 1563 422 1919 422 
Q 2459 422 2753 634 
Q 3047 847 3047 1241 
Q 3047 1584 2836 1778 
Q 2625 1972 2144 2069 
L 1759 2144 
Q 1053 2284 737 2584 
Q 422 2884 422 3419 
Q 422 4038 858 4394 
Q 1294 4750 2059 4750 
Q 2388 4750 2728 4690 
Q 3069 4631 3425 4513 
z
" transform="scale(0.015625)"/>
       <path id="DejaVuSans-49" d="M 628 4666 
L 1259 4666 
L 1259 0 
L 628 0 
L 628 4666 
z
" transform="scale(0.015625)"/>
       <path id="DejaVuSans-20" transform="scale(0.015625)"/>
       <path id="DejaVuSans-69" d="M 603 3500 
L 1178 3500 
L 1178 0 
L 603 0 
L 603 3500 
z
M 603 4863 
L 1178 4863 
L 1178 4134 
L 603 4134 
L 603 4863 
z
" transform="scale(0.015625)"/>
       <path id="DejaVuSans-6d" d="M 3328 2828 
Q 3544 3216 3844 3400 
Q 4144 3584 4550 3584 
Q 5097 3584 5394 3201 
Q 5691 2819 5691 2113 
L 5691 0 
L 5113 0 
L 5113 2094 
Q 5113 2597 4934 2840 
Q 4756 3084 4391 3084 
Q 3944 3084 3684 2787 
Q 3425 2491 3425 1978 
L 3425 0 
L 2847 0 
L 2847 2094 
Q 2847 2600 2669 2842 
Q 2491 3084 2119 3084 
Q 1678 3084 1418 2786 
Q 1159 2488 1159 1978 
L 1159 0 
L 581 0 
L 581 3500 
L 1159 3500 
L 1159 2956 
Q 1356 3278 1631 3431 
Q 1906 3584 2284 3584 
Q 2666 3584 2933 3390 
Q 3200 3197 3328 2828 
z
" transform="scale(0.015625)"/>
       <path id="DejaVuSans-6c" d="M 603 4863 
L 1178 4863 
L 1178 0 
L 603 0 
L 603 4863 
z
" transform="scale(0.015625)"/>
       <path id="DejaVuSans-61" d="M 2194 1759 
Q 1497 1759 1228 1600 
Q 959 1441 959 1056 
Q 959 750 1161 570 
Q 1363 391 1709 391 
Q 2188 391 2477 730 
Q 2766 1069 2766 1631 
L 2766 1759 
L 2194 1759 
z
M 3341 1997 
L 3341 0 
L 2766 0 
L 2766 531 
Q 2569 213 2275 61 
Q 1981 -91 1556 -91 
Q 1019 -91 701 211 
Q 384 513 384 1019 
Q 384 1609 779 1909 
Q 1175 2209 1959 2209 
L 2766 2209 
L 2766 2266 
Q 2766 2663 2505 2880 
Q 2244 3097 1772 3097 
Q 1472 3097 1187 3025 
Q 903 2953 641 2809 
L 641 3341 
Q 956 3463 1253 3523 
Q 1550 3584 1831 3584 
Q 2591 3584 2966 3190 
Q 3341 2797 3341 1997 
z
" transform="scale(0.015625)"/>
       <path id="DejaVuSans-72" d="M 2631 2963 
Q 2534 3019 2420 3045 
Q 2306 3072 2169 3072 
Q 1681 3072 1420 2755 
Q 1159 2438 1159 1844 
L 1159 0 
L 581 0 
L 581 3500 
L 1159 3500 
L 1159 2956 
Q 1341 3275 1631 3429 
Q 1922 3584 2338 3584 
Q 2397 3584 2469 3576 
Q 2541 3569 2628 3553 
L 2631 2963 
z
" transform="scale(0.015625)"/>
       <path id="DejaVuSans-74" d="M 1172 4494 
L 1172 3500 
L 2356 3500 
L 2356 3053 
L 1172 3053 
L 1172 1153 
Q 1172 725 1289 603 
Q 1406 481 1766 481 
L 2356 481 
L 2356 0 
L 1766 0 
Q 1100 0 847 248 
Q 594 497 594 1153 
L 594 3053 
L 172 3053 
L 172 3500 
L 594 3500 
L 594 4494 
L 1172 4494 
z
" transform="scale(0.015625)"/>
       <path id="DejaVuSans-79" d="M 2059 -325 
Q 1816 -950 1584 -1140 
Q 1353 -1331 966 -1331 
L 506 -1331 
L 506 -850 
L 844 -850 
Q 1081 -850 1212 -737 
Q 1344 -625 1503 -206 
L 1606 56 
L 191 3500 
L 800 3500 
L 1894 763 
L 2988 3500 
L 3597 3500 
L 2059 -325 
z
" transform="scale(0.015625)"/>
      </defs>
      <use xlink:href="#DejaVuSans-47"/>
      <use xlink:href="#DejaVuSans-53" x="77.490234"/>
      <use xlink:href="#DejaVuSans-49" x="140.966797"/>
      <use xlink:href="#DejaVuSans-20" x="170.458984"/>
      <use xlink:href="#DejaVuSans-53" x="202.246094"/>
      <use xlink:href="#DejaVuSans-69" x="265.722656"/>
      <use xlink:href="#DejaVuSans-6d" x="293.505859"/>
      <use xlink:href="#DejaVuSans-69" x="390.917969"/>
      <use xlink:href="#DejaVuSans-6c" x="418.701172"/>
      <use xlink:href="#DejaVuSans-61" x="446.484375"/>
      <use xlink:href="#DejaVuSans-72" x="507.763672"/>
      <use xlink:href="#DejaVuSans-69" x="548.876953"/>
      <use xlink:href="#DejaVuSans-74" x="576.660156"/>
      <use xlink:href="#DejaVuSans-79" x="615.869141"/>
     </g>
    </g>
   </g>
   <g id="matplotlib.axis_2">
    <g id="ytick_1">
     <g id="line2d_7">
      <defs>
       <path id="m64a3fce4ec" d="M 0 0 
L -3.5 0 
" style="stroke: #000000; stroke-width: 0.8"/>
      </defs>
      <g>
       <use xlink:href="#m64a3fce4ec" x="57.6" y="294.441402" style="stroke: #000000; stroke-width: 0.8"/>
      </g>
     </g>
     <g id="text_8">
      <!-- $\mathdefault{10^{2}}$ -->
      <g transform="translate(33 298.24062) scale(0.1 -0.1)">
       <use xlink:href="#DejaVuSans-31" transform="translate(0 0.765625)"/>
       <use xlink:href="#DejaVuSans-30" transform="translate(63.623047 0.765625)"/>
       <use xlink:href="#DejaVuSans-32" transform="translate(128.203125 39.046875) scale(0.7)"/>
      </g>
     </g>
    </g>
    <g id="ytick_2">
     <g id="line2d_8">
      <g>
       <use xlink:href="#m64a3fce4ec" x="57.6" y="247.459002" style="stroke: #000000; stroke-width: 0.8"/>
      </g>
     </g>
     <g id="text_9">
      <!-- $\mathdefault{10^{3}}$ -->
      <g transform="translate(33 251.25822) scale(0.1 -0.1)">
       <defs>
        <path id="DejaVuSans-33" d="M 2597 2516 
Q 3050 2419 3304 2112 
Q 3559 1806 3559 1356 
Q 3559 666 3084 287 
Q 2609 -91 1734 -91 
Q 1441 -91 1130 -33 
Q 819 25 488 141 
L 488 750 
Q 750 597 1062 519 
Q 1375 441 1716 441 
Q 2309 441 2620 675 
Q 2931 909 2931 1356 
Q 2931 1769 2642 2001 
Q 2353 2234 1838 2234 
L 1294 2234 
L 1294 2753 
L 1863 2753 
Q 2328 2753 2575 2939 
Q 2822 3125 2822 3475 
Q 2822 3834 2567 4026 
Q 2313 4219 1838 4219 
Q 1578 4219 1281 4162 
Q 984 4106 628 3988 
L 628 4550 
Q 988 4650 1302 4700 
Q 1616 4750 1894 4750 
Q 2613 4750 3031 4423 
Q 3450 4097 3450 3541 
Q 3450 3153 3228 2886 
Q 3006 2619 2597 2516 
z
" transform="scale(0.015625)"/>
       </defs>
       <use xlink:href="#DejaVuSans-31" transform="translate(0 0.765625)"/>
       <use xlink:href="#DejaVuSans-30" transform="translate(63.623047 0.765625)"/>
       <use xlink:href="#DejaVuSans-33" transform="translate(128.203125 39.046875) scale(0.7)"/>
      </g>
     </g>
    </g>
    <g id="ytick_3">
     <g id="line2d_9">
      <g>
       <use xlink:href="#m64a3fce4ec" x="57.6" y="200.476602" style="stroke: #000000; stroke-width: 0.8"/>
      </g>
     </g>
     <g id="text_10">
      <!-- $\mathdefault{10^{4}}$ -->
      <g transform="translate(33 204.27582) scale(0.1 -0.1)">
       <use xlink:href="#DejaVuSans-31" transform="translate(0 0.684375)"/>
       <use xlink:href="#DejaVuSans-30" transform="translate(63.623047 0.684375)"/>
       <use xlink:href="#DejaVuSans-34" transform="translate(128.203125 38.965625) scale(0.7)"/>
      </g>
     </g>
    </g>
    <g id="ytick_4">
     <g id="line2d_10">
      <g>
       <use xlink:href="#m64a3fce4ec" x="57.6" y="153.494202" style="stroke: #000000; stroke-width: 0.8"/>
      </g>
     </g>
     <g id="text_11">
      <!-- $\mathdefault{10^{5}}$ -->
      <g transform="translate(33 157.29342) scale(0.1 -0.1)">
       <defs>
        <path id="DejaVuSans-35" d="M 691 4666 
L 3169 4666 
L 3169 4134 
L 1269 4134 
L 1269 2991 
Q 1406 3038 1543 3061 
Q 1681 3084 1819 3084 
Q 2600 3084 3056 2656 
Q 3513 2228 3513 1497 
Q 3513 744 3044 326 
Q 2575 -91 1722 -91 
Q 1428 -91 1123 -41 
Q 819 9 494 109 
L 494 744 
Q 775 591 1075 516 
Q 1375 441 1709 441 
Q 2250 441 2565 725 
Q 2881 1009 2881 1497 
Q 2881 1984 2565 2268 
Q 2250 2553 1709 2553 
Q 1456 2553 1204 2497 
Q 953 2441 691 2322 
L 691 4666 
z
" transform="scale(0.015625)"/>
       </defs>
       <use xlink:href="#DejaVuSans-31" transform="translate(0 0.684375)"/>
       <use xlink:href="#DejaVuSans-30" transform="translate(63.623047 0.684375)"/>
       <use xlink:href="#DejaVuSans-35" transform="translate(128.203125 38.965625) scale(0.7)"/>
      </g>
     </g>
    </g>
    <g id="ytick_5">
     <g id="line2d_11">
      <g>
       <use xlink:href="#m64a3fce4ec" x="57.6" y="106.511802" style="stroke: #000000; stroke-width: 0.8"/>
      </g>
     </g>
     <g id="text_12">
      <!-- $\mathdefault{10^{6}}$ -->
      <g transform="translate(33 110.31102) scale(0.1 -0.1)">
       <use xlink:href="#DejaVuSans-31" transform="translate(0 0.765625)"/>
       <use xlink:href="#DejaVuSans-30" transform="translate(63.623047 0.765625)"/>
       <use xlink:href="#DejaVuSans-36" transform="translate(128.203125 39.046875) scale(0.7)"/>
      </g>
     </g>
    </g>
    <g id="ytick_6">
     <g id="line2d_12">
      <g>
       <use xlink:href="#m64a3fce4ec" x="57.6" y="59.529402" style="stroke: #000000; stroke-width: 0.8"/>
      </g>
     </g>
     <g id="text_13">
      <!-- $\mathdefault{10^{7}}$ -->
      <g transform="translate(33 63.32862) scale(0.1 -0.1)">
       <defs>
        <path id="DejaVuSans-37" d="M 525 4666 
L 3525 4666 
L 3525 4397 
L 1831 0 
L 1172 0 
L 2766 4134 
L 525 4134 
L 525 4666 
z
" transform="scale(0.015625)"/>
       </defs>
       <use xlink:href="#DejaVuSans-31" transform="translate(0 0.684375)"/>
       <use xlink:href="#DejaVuSans-30" transform="translate(63.623047 0.684375)"/>
       <use xlink:href="#DejaVuSans-37" transform="translate(128.203125 38.965625) scale(0.7)"/>
      </g>
     </g>
    </g>
    <g id="ytick_7">
     <g id="line2d_13">
      <defs>
       <path id="maa2a863a69" d="M 0 0 
L -2 0 
" style="stroke: #000000; stroke-width: 0.6"/>
      </defs>
      <g>
       <use xlink:href="#maa2a863a69" x="57.6" y="304.864388" style="stroke: #000000; stroke-width: 0.6"/>
      </g>
     </g>
    </g>
    <g id="ytick_8">
     <g id="line2d_14">
      <g>
       <use xlink:href="#maa2a863a69" x="57.6" y="301.719067" style="stroke: #000000; stroke-width: 0.6"/>
      </g>
     </g>
    </g>
    <g id="ytick_9">
     <g id="line2d_15">
      <g>
       <use xlink:href="#maa2a863a69" x="57.6" y="298.994467" style="stroke: #000000; stroke-width: 0.6"/>
      </g>
     </g>
    </g>
    <g id="ytick_10">
     <g id="line2d_16">
      <g>
       <use xlink:href="#maa2a863a69" x="57.6" y="296.591198" style="stroke: #000000; stroke-width: 0.6"/>
      </g>
     </g>
    </g>
    <g id="ytick_11">
     <g id="line2d_17">
      <g>
       <use xlink:href="#maa2a863a69" x="57.6" y="280.29829" style="stroke: #000000; stroke-width: 0.6"/>
      </g>
     </g>
    </g>
    <g id="ytick_12">
     <g id="line2d_18">
      <g>
       <use xlink:href="#maa2a863a69" x="57.6" y="272.0251" style="stroke: #000000; stroke-width: 0.6"/>
      </g>
     </g>
    </g>
    <g id="ytick_13">
     <g id="line2d_19">
      <g>
       <use xlink:href="#maa2a863a69" x="57.6" y="266.155178" style="stroke: #000000; stroke-width: 0.6"/>
      </g>
     </g>
    </g>
    <g id="ytick_14">
     <g id="line2d_20">
      <g>
       <use xlink:href="#maa2a863a69" x="57.6" y="261.602113" style="stroke: #000000; stroke-width: 0.6"/>
      </g>
     </g>
    </g>
    <g id="ytick_15">
     <g id="line2d_21">
      <g>
       <use xlink:href="#maa2a863a69" x="57.6" y="257.881988" style="stroke: #000000; stroke-width: 0.6"/>
      </g>
     </g>
    </g>
    <g id="ytick_16">
     <g id="line2d_22">
      <g>
       <use xlink:href="#maa2a863a69" x="57.6" y="254.736667" style="stroke: #000000; stroke-width: 0.6"/>
      </g>
     </g>
    </g>
    <g id="ytick_17">
     <g id="line2d_23">
      <g>
       <use xlink:href="#maa2a863a69" x="57.6" y="252.012067" style="stroke: #000000; stroke-width: 0.6"/>
      </g>
     </g>
    </g>
    <g id="ytick_18">
     <g id="line2d_24">
      <g>
       <use xlink:href="#maa2a863a69" x="57.6" y="249.608798" style="stroke: #000000; stroke-width: 0.6"/>
      </g>
     </g>
    </g>
    <g id="ytick_19">
     <g id="line2d_25">
      <g>
       <use xlink:href="#maa2a863a69" x="57.6" y="233.31589" style="stroke: #000000; stroke-width: 0.6"/>
      </g>
     </g>
    </g>
    <g id="ytick_20">
     <g id="line2d_26">
      <g>
       <use xlink:href="#maa2a863a69" x="57.6" y="225.0427" style="stroke: #000000; stroke-width: 0.6"/>
      </g>
     </g>
    </g>
    <g id="ytick_21">
     <g id="line2d_27">
      <g>
       <use xlink:href="#maa2a863a69" x="57.6" y="219.172778" style="stroke: #000000; stroke-width: 0.6"/>
      </g>
     </g>
    </g>
    <g id="ytick_22">
     <g id="line2d_28">
      <g>
       <use xlink:href="#maa2a863a69" x="57.6" y="214.619713" style="stroke: #000000; stroke-width: 0.6"/>
      </g>
     </g>
    </g>
    <g id="ytick_23">
     <g id="line2d_29">
      <g>
       <use xlink:href="#maa2a863a69" x="57.6" y="210.899588" style="stroke: #000000; stroke-width: 0.6"/>
      </g>
     </g>
    </g>
    <g id="ytick_24">
     <g id="line2d_30">
      <g>
       <use xlink:href="#maa2a863a69" x="57.6" y="207.754267" style="stroke: #000000; stroke-width: 0.6"/>
      </g>
     </g>
    </g>
    <g id="ytick_25">
     <g id="line2d_31">
      <g>
       <use xlink:href="#maa2a863a69" x="57.6" y="205.029667" style="stroke: #000000; stroke-width: 0.6"/>
      </g>
     </g>
    </g>
    <g id="ytick_26">
     <g id="line2d_32">
      <g>
       <use xlink:href="#maa2a863a69" x="57.6" y="202.626398" style="stroke: #000000; stroke-width: 0.6"/>
      </g>
     </g>
    </g>
    <g id="ytick_27">
     <g id="line2d_33">
      <g>
       <use xlink:href="#maa2a863a69" x="57.6" y="186.33349" style="stroke: #000000; stroke-width: 0.6"/>
      </g>
     </g>
    </g>
    <g id="ytick_28">
     <g id="line2d_34">
      <g>
       <use xlink:href="#maa2a863a69" x="57.6" y="178.0603" style="stroke: #000000; stroke-width: 0.6"/>
      </g>
     </g>
    </g>
    <g id="ytick_29">
     <g id="line2d_35">
      <g>
       <use xlink:href="#maa2a863a69" x="57.6" y="172.190378" style="stroke: #000000; stroke-width: 0.6"/>
      </g>
     </g>
    </g>
    <g id="ytick_30">
     <g id="line2d_36">
      <g>
       <use xlink:href="#maa2a863a69" x="57.6" y="167.637313" style="stroke: #000000; stroke-width: 0.6"/>
      </g>
     </g>
    </g>
    <g id="ytick_31">
     <g id="line2d_37">
      <g>
       <use xlink:href="#maa2a863a69" x="57.6" y="163.917188" style="stroke: #000000; stroke-width: 0.6"/>
      </g>
     </g>
    </g>
    <g id="ytick_32">
     <g id="line2d_38">
      <g>
       <use xlink:href="#maa2a863a69" x="57.6" y="160.771867" style="stroke: #000000; stroke-width: 0.6"/>
      </g>
     </g>
    </g>
    <g id="ytick_33">
     <g id="line2d_39">
      <g>
       <use xlink:href="#maa2a863a69" x="57.6" y="158.047267" style="stroke: #000000; stroke-width: 0.6"/>
      </g>
     </g>
    </g>
    <g id="ytick_34">
     <g id="line2d_40">
      <g>
       <use xlink:href="#maa2a863a69" x="57.6" y="155.643998" style="stroke: #000000; stroke-width: 0.6"/>
      </g>
     </g>
    </g>
    <g id="ytick_35">
     <g id="line2d_41">
      <g>
       <use xlink:href="#maa2a863a69" x="57.6" y="139.35109" style="stroke: #000000; stroke-width: 0.6"/>
      </g>
     </g>
    </g>
    <g id="ytick_36">
     <g id="line2d_42">
      <g>
       <use xlink:href="#maa2a863a69" x="57.6" y="131.0779" style="stroke: #000000; stroke-width: 0.6"/>
      </g>
     </g>
    </g>
    <g id="ytick_37">
     <g id="line2d_43">
      <g>
       <use xlink:href="#maa2a863a69" x="57.6" y="125.207978" style="stroke: #000000; stroke-width: 0.6"/>
      </g>
     </g>
    </g>
    <g id="ytick_38">
     <g id="line2d_44">
      <g>
       <use xlink:href="#maa2a863a69" x="57.6" y="120.654913" style="stroke: #000000; stroke-width: 0.6"/>
      </g>
     </g>
    </g>
    <g id="ytick_39">
     <g id="line2d_45">
      <g>
       <use xlink:href="#maa2a863a69" x="57.6" y="116.934788" style="stroke: #000000; stroke-width: 0.6"/>
      </g>
     </g>
    </g>
    <g id="ytick_40">
     <g id="line2d_46">
      <g>
       <use xlink:href="#maa2a863a69" x="57.6" y="113.789467" style="stroke: #000000; stroke-width: 0.6"/>
      </g>
     </g>
    </g>
    <g id="ytick_41">
     <g id="line2d_47">
      <g>
       <use xlink:href="#maa2a863a69" x="57.6" y="111.064867" style="stroke: #000000; stroke-width: 0.6"/>
      </g>
     </g>
    </g>
    <g id="ytick_42">
     <g id="line2d_48">
      <g>
       <use xlink:href="#maa2a863a69" x="57.6" y="108.661598" style="stroke: #000000; stroke-width: 0.6"/>
      </g>
     </g>
    </g>
    <g id="ytick_43">
     <g id="line2d_49">
      <g>
       <use xlink:href="#maa2a863a69" x="57.6" y="92.36869" style="stroke: #000000; stroke-width: 0.6"/>
      </g>
     </g>
    </g>
    <g id="ytick_44">
     <g id="line2d_50">
      <g>
       <use xlink:href="#maa2a863a69" x="57.6" y="84.0955" style="stroke: #000000; stroke-width: 0.6"/>
      </g>
     </g>
    </g>
    <g id="ytick_45">
     <g id="line2d_51">
      <g>
       <use xlink:href="#maa2a863a69" x="57.6" y="78.225578" style="stroke: #000000; stroke-width: 0.6"/>
      </g>
     </g>
    </g>
    <g id="ytick_46">
     <g id="line2d_52">
      <g>
       <use xlink:href="#maa2a863a69" x="57.6" y="73.672513" style="stroke: #000000; stroke-width: 0.6"/>
      </g>
     </g>
    </g>
    <g id="ytick_47">
     <g id="line2d_53">
      <g>
       <use xlink:href="#maa2a863a69" x="57.6" y="69.952388" style="stroke: #000000; stroke-width: 0.6"/>
      </g>
     </g>
    </g>
    <g id="ytick_48">
     <g id="line2d_54">
      <g>
       <use xlink:href="#maa2a863a69" x="57.6" y="66.807067" style="stroke: #000000; stroke-width: 0.6"/>
      </g>
     </g>
    </g>
    <g id="ytick_49">
     <g id="line2d_55">
      <g>
       <use xlink:href="#maa2a863a69" x="57.6" y="64.082467" style="stroke: #000000; stroke-width: 0.6"/>
      </g>
     </g>
    </g>
    <g id="ytick_50">
     <g id="line2d_56">
      <g>
       <use xlink:href="#maa2a863a69" x="57.6" y="61.679198" style="stroke: #000000; stroke-width: 0.6"/>
      </g>
     </g>
    </g>
    <g id="ytick_51">
     <g id="line2d_57">
      <g>
       <use xlink:href="#maa2a863a69" x="57.6" y="45.38629" style="stroke: #000000; stroke-width: 0.6"/>
      </g>
     </g>
    </g>
    <g id="text_14">
     <!-- Frequency -->
     <g transform="translate(26.920312 200.357687) rotate(-90) scale(0.1 -0.1)">
      <defs>
       <path id="DejaVuSans-46" d="M 628 4666 
L 3309 4666 
L 3309 4134 
L 1259 4134 
L 1259 2759 
L 3109 2759 
L 3109 2228 
L 1259 2228 
L 1259 0 
L 628 0 
L 628 4666 
z
" transform="scale(0.015625)"/>
       <path id="DejaVuSans-65" d="M 3597 1894 
L 3597 1613 
L 953 1613 
Q 991 1019 1311 708 
Q 1631 397 2203 397 
Q 2534 397 2845 478 
Q 3156 559 3463 722 
L 3463 178 
Q 3153 47 2828 -22 
Q 2503 -91 2169 -91 
Q 1331 -91 842 396 
Q 353 884 353 1716 
Q 353 2575 817 3079 
Q 1281 3584 2069 3584 
Q 2775 3584 3186 3129 
Q 3597 2675 3597 1894 
z
M 3022 2063 
Q 3016 2534 2758 2815 
Q 2500 3097 2075 3097 
Q 1594 3097 1305 2825 
Q 1016 2553 972 2059 
L 3022 2063 
z
" transform="scale(0.015625)"/>
       <path id="DejaVuSans-71" d="M 947 1747 
Q 947 1113 1208 752 
Q 1469 391 1925 391 
Q 2381 391 2643 752 
Q 2906 1113 2906 1747 
Q 2906 2381 2643 2742 
Q 2381 3103 1925 3103 
Q 1469 3103 1208 2742 
Q 947 2381 947 1747 
z
M 2906 525 
Q 2725 213 2448 61 
Q 2172 -91 1784 -91 
Q 1150 -91 751 415 
Q 353 922 353 1747 
Q 353 2572 751 3078 
Q 1150 3584 1784 3584 
Q 2172 3584 2448 3432 
Q 2725 3281 2906 2969 
L 2906 3500 
L 3481 3500 
L 3481 -1331 
L 2906 -1331 
L 2906 525 
z
" transform="scale(0.015625)"/>
       <path id="DejaVuSans-75" d="M 544 1381 
L 544 3500 
L 1119 3500 
L 1119 1403 
Q 1119 906 1312 657 
Q 1506 409 1894 409 
Q 2359 409 2629 706 
Q 2900 1003 2900 1516 
L 2900 3500 
L 3475 3500 
L 3475 0 
L 2900 0 
L 2900 538 
Q 2691 219 2414 64 
Q 2138 -91 1772 -91 
Q 1169 -91 856 284 
Q 544 659 544 1381 
z
M 1991 3584 
L 1991 3584 
z
" transform="scale(0.015625)"/>
       <path id="DejaVuSans-6e" d="M 3513 2113 
L 3513 0 
L 2938 0 
L 2938 2094 
Q 2938 2591 2744 2837 
Q 2550 3084 2163 3084 
Q 1697 3084 1428 2787 
Q 1159 2491 1159 1978 
L 1159 0 
L 581 0 
L 581 3500 
L 1159 3500 
L 1159 2956 
Q 1366 3272 1645 3428 
Q 1925 3584 2291 3584 
Q 2894 3584 3203 3211 
Q 3513 2838 3513 2113 
z
" transform="scale(0.015625)"/>
       <path id="DejaVuSans-63" d="M 3122 3366 
L 3122 2828 
Q 2878 2963 2633 3030 
Q 2388 3097 2138 3097 
Q 1578 3097 1268 2742 
Q 959 2388 959 1747 
Q 959 1106 1268 751 
Q 1578 397 2138 397 
Q 2388 397 2633 464 
Q 2878 531 3122 666 
L 3122 134 
Q 2881 22 2623 -34 
Q 2366 -91 2075 -91 
Q 1284 -91 818 406 
Q 353 903 353 1747 
Q 353 2603 823 3093 
Q 1294 3584 2113 3584 
Q 2378 3584 2631 3529 
Q 2884 3475 3122 3366 
z
" transform="scale(0.015625)"/>
      </defs>
      <use xlink:href="#DejaVuSans-46"/>
      <use xlink:href="#DejaVuSans-72" x="50.269531"/>
      <use xlink:href="#DejaVuSans-65" x="89.132812"/>
      <use xlink:href="#DejaVuSans-71" x="150.65625"/>
      <use xlink:href="#DejaVuSans-75" x="214.132812"/>
      <use xlink:href="#DejaVuSans-65" x="277.511719"/>
      <use xlink:href="#DejaVuSans-6e" x="339.035156"/>
      <use xlink:href="#DejaVuSans-63" x="402.414062"/>
      <use xlink:href="#DejaVuSans-79" x="457.394531"/>
     </g>
    </g>
   </g>
   <g id="patch_103">
    <path d="M 57.6 307.584 
L 57.6 41.472 
" style="fill: none; stroke: #000000; stroke-width: 0.8; stroke-linejoin: miter; stroke-linecap: square"/>
   </g>
   <g id="patch_104">
    <path d="M 414.72 307.584 
L 414.72 41.472 
" style="fill: none; stroke: #000000; stroke-width: 0.8; stroke-linejoin: miter; stroke-linecap: square"/>
   </g>
   <g id="patch_105">
    <path d="M 57.6 307.584 
L 414.72 307.584 
" style="fill: none; stroke: #000000; stroke-width: 0.8; stroke-linejoin: miter; stroke-linecap: square"/>
   </g>
   <g id="patch_106">
    <path d="M 57.6 41.472 
L 414.72 41.472 
" style="fill: none; stroke: #000000; stroke-width: 0.8; stroke-linejoin: miter; stroke-linecap: square"/>
   </g>
  </g>
 </g>
 <defs>
  <clipPath id="p0bf7122154">
   <rect x="57.6" y="41.472" width="357.12" height="266.112"/>
  </clipPath>
 </defs>
</svg>
