<?xml version="1.0" encoding="utf-8" standalone="no"?>
<!DOCTYPE svg PUBLIC "-//W3C//DTD SVG 1.1//EN"
  "http://www.w3.org/Graphics/SVG/1.1/DTD/svg11.dtd">
<svg xmlns:xlink="http://www.w3.org/1999/xlink" width="720pt" height="360pt" viewBox="0 0 720 360" xmlns="http://www.w3.org/2000/svg" version="1.1">
 <metadata>
  <rdf:RDF xmlns:dc="http://purl.org/dc/elements/1.1/" xmlns:cc="http://creativecommons.org/ns#" xmlns:rdf="http://www.w3.org/1999/02/22-rdf-syntax-ns#">
   <cc:Work>
    <dc:type rdf:resource="http://purl.org/dc/dcmitype/StillImage"/>
    <dc:date>2025-10-24T16:30:34.169080</dc:date>
    <dc:format>image/svg+xml</dc:format>
    <dc:creator>
     <cc:Agent>
      <dc:title>Matplotlib v3.8.4, https://matplotlib.org/</dc:title>
     </cc:Agent>
    </dc:creator>
   </cc:Work>
  </rdf:RDF>
 </metadata>
 <defs>
  <style type="text/css">*{stroke-linejoin: round; stroke-linecap: butt}</style>
 </defs>
 <g id="figure_1">
  <g id="patch_1">
   <path d="M 0 360 
L 720 360 
L 720 0 
L 0 0 
z
" style="fill: #ffffff"/>
  </g>
  <g id="axes_1">
   <g id="patch_2">
    <path d="M 62.03 235.356588 
L 349.013662 235.356588 
L 349.013662 20.52 
L 62.03 20.52 
z
" style="fill: #ffffff"/>
   </g>
   <g id="matplotlib.axis_1">
    <g id="xtick_1">
     <g id="line2d_1">
      <defs>
       <path id="mad1b0020bc" d="M 0 0 
L 0 3.5 
" style="stroke: #000000; stroke-width: 0.8"/>
      </defs>
      <g>
       <use xlink:href="#mad1b0020bc" x="75.074712" y="235.356588" style="stroke: #000000; stroke-width: 0.8"/>
      </g>
     </g>
     <g id="text_1">
      <!-- 0.0 -->
      <g transform="translate(63.942524 252.9944) scale(0.14 -0.14)">
       <defs>
        <path id="DejaVuSans-30" d="M 2034 4250 
Q 1547 4250 1301 3770 
Q 1056 3291 1056 2328 
Q 1056 1369 1301 889 
Q 1547 409 2034 409 
Q 2525 409 2770 889 
Q 3016 1369 3016 2328 
Q 3016 3291 2770 3770 
Q 2525 4250 2034 4250 
z
M 2034 4750 
Q 2819 4750 3233 4129 
Q 3647 3509 3647 2328 
Q 3647 1150 3233 529 
Q 2819 -91 2034 -91 
Q 1250 -91 836 529 
Q 422 1150 422 2328 
Q 422 3509 836 4129 
Q 1250 4750 2034 4750 
z
" transform="scale(0.015625)"/>
        <path id="DejaVuSans-2e" d="M 684 794 
L 1344 794 
L 1344 0 
L 684 0 
L 684 794 
z
" transform="scale(0.015625)"/>
       </defs>
       <use xlink:href="#DejaVuSans-30"/>
       <use xlink:href="#DejaVuSans-2e" x="63.623047"/>
       <use xlink:href="#DejaVuSans-30" x="95.410156"/>
      </g>
     </g>
    </g>
    <g id="xtick_2">
     <g id="line2d_2">
      <g>
       <use xlink:href="#mad1b0020bc" x="127.25356" y="235.356588" style="stroke: #000000; stroke-width: 0.8"/>
      </g>
     </g>
     <g id="text_2">
      <!-- 0.2 -->
      <g transform="translate(116.121372 252.9944) scale(0.14 -0.14)">
       <defs>
        <path id="DejaVuSans-32" d="M 1228 531 
L 3431 531 
L 3431 0 
L 469 0 
L 469 531 
Q 828 903 1448 1529 
Q 2069 2156 2228 2338 
Q 2531 2678 2651 2914 
Q 2772 3150 2772 3378 
Q 2772 3750 2511 3984 
Q 2250 4219 1831 4219 
Q 1534 4219 1204 4116 
Q 875 4013 500 3803 
L 500 4441 
Q 881 4594 1212 4672 
Q 1544 4750 1819 4750 
Q 2544 4750 2975 4387 
Q 3406 4025 3406 3419 
Q 3406 3131 3298 2873 
Q 3191 2616 2906 2266 
Q 2828 2175 2409 1742 
Q 1991 1309 1228 531 
z
" transform="scale(0.015625)"/>
       </defs>
       <use xlink:href="#DejaVuSans-30"/>
       <use xlink:href="#DejaVuSans-2e" x="63.623047"/>
       <use xlink:href="#DejaVuSans-32" x="95.410156"/>
      </g>
     </g>
    </g>
    <g id="xtick_3">
     <g id="line2d_3">
      <g>
       <use xlink:href="#mad1b0020bc" x="179.432407" y="235.356588" style="stroke: #000000; stroke-width: 0.8"/>
      </g>
     </g>
     <g id="text_3">
      <!-- 0.4 -->
      <g transform="translate(168.30022 252.9944) scale(0.14 -0.14)">
       <defs>
        <path id="DejaVuSans-34" d="M 2419 4116 
L 825 1625 
L 2419 1625 
L 2419 4116 
z
M 2253 4666 
L 3047 4666 
L 3047 1625 
L 3713 1625 
L 3713 1100 
L 3047 1100 
L 3047 0 
L 2419 0 
L 2419 1100 
L 313 1100 
L 313 1709 
L 2253 4666 
z
" transform="scale(0.015625)"/>
       </defs>
       <use xlink:href="#DejaVuSans-30"/>
       <use xlink:href="#DejaVuSans-2e" x="63.623047"/>
       <use xlink:href="#DejaVuSans-34" x="95.410156"/>
      </g>
     </g>
    </g>
    <g id="xtick_4">
     <g id="line2d_4">
      <g>
       <use xlink:href="#mad1b0020bc" x="231.611255" y="235.356588" style="stroke: #000000; stroke-width: 0.8"/>
      </g>
     </g>
     <g id="text_4">
      <!-- 0.6 -->
      <g transform="translate(220.479067 252.9944) scale(0.14 -0.14)">
       <defs>
        <path id="DejaVuSans-36" d="M 2113 2584 
Q 1688 2584 1439 2293 
Q 1191 2003 1191 1497 
Q 1191 994 1439 701 
Q 1688 409 2113 409 
Q 2538 409 2786 701 
Q 3034 994 3034 1497 
Q 3034 2003 2786 2293 
Q 2538 2584 2113 2584 
z
M 3366 4563 
L 3366 3988 
Q 3128 4100 2886 4159 
Q 2644 4219 2406 4219 
Q 1781 4219 1451 3797 
Q 1122 3375 1075 2522 
Q 1259 2794 1537 2939 
Q 1816 3084 2150 3084 
Q 2853 3084 3261 2657 
Q 3669 2231 3669 1497 
Q 3669 778 3244 343 
Q 2819 -91 2113 -91 
Q 1303 -91 875 529 
Q 447 1150 447 2328 
Q 447 3434 972 4092 
Q 1497 4750 2381 4750 
Q 2619 4750 2861 4703 
Q 3103 4656 3366 4563 
z
" transform="scale(0.015625)"/>
       </defs>
       <use xlink:href="#DejaVuSans-30"/>
       <use xlink:href="#DejaVuSans-2e" x="63.623047"/>
       <use xlink:href="#DejaVuSans-36" x="95.410156"/>
      </g>
     </g>
    </g>
    <g id="xtick_5">
     <g id="line2d_5">
      <g>
       <use xlink:href="#mad1b0020bc" x="283.790102" y="235.356588" style="stroke: #000000; stroke-width: 0.8"/>
      </g>
     </g>
     <g id="text_5">
      <!-- 0.8 -->
      <g transform="translate(272.657915 252.9944) scale(0.14 -0.14)">
       <defs>
        <path id="DejaVuSans-38" d="M 2034 2216 
Q 1584 2216 1326 1975 
Q 1069 1734 1069 1313 
Q 1069 891 1326 650 
Q 1584 409 2034 409 
Q 2484 409 2743 651 
Q 3003 894 3003 1313 
Q 3003 1734 2745 1975 
Q 2488 2216 2034 2216 
z
M 1403 2484 
Q 997 2584 770 2862 
Q 544 3141 544 3541 
Q 544 4100 942 4425 
Q 1341 4750 2034 4750 
Q 2731 4750 3128 4425 
Q 3525 4100 3525 3541 
Q 3525 3141 3298 2862 
Q 3072 2584 2669 2484 
Q 3125 2378 3379 2068 
Q 3634 1759 3634 1313 
Q 3634 634 3220 271 
Q 2806 -91 2034 -91 
Q 1263 -91 848 271 
Q 434 634 434 1313 
Q 434 1759 690 2068 
Q 947 2378 1403 2484 
z
M 1172 3481 
Q 1172 3119 1398 2916 
Q 1625 2713 2034 2713 
Q 2441 2713 2670 2916 
Q 2900 3119 2900 3481 
Q 2900 3844 2670 4047 
Q 2441 4250 2034 4250 
Q 1625 4250 1398 4047 
Q 1172 3844 1172 3481 
z
" transform="scale(0.015625)"/>
       </defs>
       <use xlink:href="#DejaVuSans-30"/>
       <use xlink:href="#DejaVuSans-2e" x="63.623047"/>
       <use xlink:href="#DejaVuSans-38" x="95.410156"/>
      </g>
     </g>
    </g>
    <g id="xtick_6">
     <g id="line2d_6">
      <g>
       <use xlink:href="#mad1b0020bc" x="335.96895" y="235.356588" style="stroke: #000000; stroke-width: 0.8"/>
      </g>
     </g>
     <g id="text_6">
      <!-- 1.0 -->
      <g transform="translate(324.836762 252.9944) scale(0.14 -0.14)">
       <defs>
        <path id="DejaVuSans-31" d="M 794 531 
L 1825 531 
L 1825 4091 
L 703 3866 
L 703 4441 
L 1819 4666 
L 2450 4666 
L 2450 531 
L 3481 531 
L 3481 0 
L 794 0 
L 794 531 
z
" transform="scale(0.015625)"/>
       </defs>
       <use xlink:href="#DejaVuSans-31"/>
       <use xlink:href="#DejaVuSans-2e" x="63.623047"/>
       <use xlink:href="#DejaVuSans-30" x="95.410156"/>
      </g>
     </g>
    </g>
    <g id="text_7">
     <!-- False positive rate -->
     <g transform="translate(141.820737 270.543775) scale(0.14 -0.14)">
      <defs>
       <path id="DejaVuSans-46" d="M 628 4666 
L 3309 4666 
L 3309 4134 
L 1259 4134 
L 1259 2759 
L 3109 2759 
L 3109 2228 
L 1259 2228 
L 1259 0 
L 628 0 
L 628 4666 
z
" transform="scale(0.015625)"/>
       <path id="DejaVuSans-61" d="M 2194 1759 
Q 1497 1759 1228 1600 
Q 959 1441 959 1056 
Q 959 750 1161 570 
Q 1363 391 1709 391 
Q 2188 391 2477 730 
Q 2766 1069 2766 1631 
L 2766 1759 
L 2194 1759 
z
M 3341 1997 
L 3341 0 
L 2766 0 
L 2766 531 
Q 2569 213 2275 61 
Q 1981 -91 1556 -91 
Q 1019 -91 701 211 
Q 384 513 384 1019 
Q 384 1609 779 1909 
Q 1175 2209 1959 2209 
L 2766 2209 
L 2766 2266 
Q 2766 2663 2505 2880 
Q 2244 3097 1772 3097 
Q 1472 3097 1187 3025 
Q 903 2953 641 2809 
L 641 3341 
Q 956 3463 1253 3523 
Q 1550 3584 1831 3584 
Q 2591 3584 2966 3190 
Q 3341 2797 3341 1997 
z
" transform="scale(0.015625)"/>
       <path id="DejaVuSans-6c" d="M 603 4863 
L 1178 4863 
L 1178 0 
L 603 0 
L 603 4863 
z
" transform="scale(0.015625)"/>
       <path id="DejaVuSans-73" d="M 2834 3397 
L 2834 2853 
Q 2591 2978 2328 3040 
Q 2066 3103 1784 3103 
Q 1356 3103 1142 2972 
Q 928 2841 928 2578 
Q 928 2378 1081 2264 
Q 1234 2150 1697 2047 
L 1894 2003 
Q 2506 1872 2764 1633 
Q 3022 1394 3022 966 
Q 3022 478 2636 193 
Q 2250 -91 1575 -91 
Q 1294 -91 989 -36 
Q 684 19 347 128 
L 347 722 
Q 666 556 975 473 
Q 1284 391 1588 391 
Q 1994 391 2212 530 
Q 2431 669 2431 922 
Q 2431 1156 2273 1281 
Q 2116 1406 1581 1522 
L 1381 1569 
Q 847 1681 609 1914 
Q 372 2147 372 2553 
Q 372 3047 722 3315 
Q 1072 3584 1716 3584 
Q 2034 3584 2315 3537 
Q 2597 3491 2834 3397 
z
" transform="scale(0.015625)"/>
       <path id="DejaVuSans-65" d="M 3597 1894 
L 3597 1613 
L 953 1613 
Q 991 1019 1311 708 
Q 1631 397 2203 397 
Q 2534 397 2845 478 
Q 3156 559 3463 722 
L 3463 178 
Q 3153 47 2828 -22 
Q 2503 -91 2169 -91 
Q 1331 -91 842 396 
Q 353 884 353 1716 
Q 353 2575 817 3079 
Q 1281 3584 2069 3584 
Q 2775 3584 3186 3129 
Q 3597 2675 3597 1894 
z
M 3022 2063 
Q 3016 2534 2758 2815 
Q 2500 3097 2075 3097 
Q 1594 3097 1305 2825 
Q 1016 2553 972 2059 
L 3022 2063 
z
" transform="scale(0.015625)"/>
       <path id="DejaVuSans-20" transform="scale(0.015625)"/>
       <path id="DejaVuSans-70" d="M 1159 525 
L 1159 -1331 
L 581 -1331 
L 581 3500 
L 1159 3500 
L 1159 2969 
Q 1341 3281 1617 3432 
Q 1894 3584 2278 3584 
Q 2916 3584 3314 3078 
Q 3713 2572 3713 1747 
Q 3713 922 3314 415 
Q 2916 -91 2278 -91 
Q 1894 -91 1617 61 
Q 1341 213 1159 525 
z
M 3116 1747 
Q 3116 2381 2855 2742 
Q 2594 3103 2138 3103 
Q 1681 3103 1420 2742 
Q 1159 2381 1159 1747 
Q 1159 1113 1420 752 
Q 1681 391 2138 391 
Q 2594 391 2855 752 
Q 3116 1113 3116 1747 
z
" transform="scale(0.015625)"/>
       <path id="DejaVuSans-6f" d="M 1959 3097 
Q 1497 3097 1228 2736 
Q 959 2375 959 1747 
Q 959 1119 1226 758 
Q 1494 397 1959 397 
Q 2419 397 2687 759 
Q 2956 1122 2956 1747 
Q 2956 2369 2687 2733 
Q 2419 3097 1959 3097 
z
M 1959 3584 
Q 2709 3584 3137 3096 
Q 3566 2609 3566 1747 
Q 3566 888 3137 398 
Q 2709 -91 1959 -91 
Q 1206 -91 779 398 
Q 353 888 353 1747 
Q 353 2609 779 3096 
Q 1206 3584 1959 3584 
z
" transform="scale(0.015625)"/>
       <path id="DejaVuSans-69" d="M 603 3500 
L 1178 3500 
L 1178 0 
L 603 0 
L 603 3500 
z
M 603 4863 
L 1178 4863 
L 1178 4134 
L 603 4134 
L 603 4863 
z
" transform="scale(0.015625)"/>
       <path id="DejaVuSans-74" d="M 1172 4494 
L 1172 3500 
L 2356 3500 
L 2356 3053 
L 1172 3053 
L 1172 1153 
Q 1172 725 1289 603 
Q 1406 481 1766 481 
L 2356 481 
L 2356 0 
L 1766 0 
Q 1100 0 847 248 
Q 594 497 594 1153 
L 594 3053 
L 172 3053 
L 172 3500 
L 594 3500 
L 594 4494 
L 1172 4494 
z
" transform="scale(0.015625)"/>
       <path id="DejaVuSans-76" d="M 191 3500 
L 800 3500 
L 1894 563 
L 2988 3500 
L 3597 3500 
L 2284 0 
L 1503 0 
L 191 3500 
z
" transform="scale(0.015625)"/>
       <path id="DejaVuSans-72" d="M 2631 2963 
Q 2534 3019 2420 3045 
Q 2306 3072 2169 3072 
Q 1681 3072 1420 2755 
Q 1159 2438 1159 1844 
L 1159 0 
L 581 0 
L 581 3500 
L 1159 3500 
L 1159 2956 
Q 1341 3275 1631 3429 
Q 1922 3584 2338 3584 
Q 2397 3584 2469 3576 
Q 2541 3569 2628 3553 
L 2631 2963 
z
" transform="scale(0.015625)"/>
      </defs>
      <use xlink:href="#DejaVuSans-46"/>
      <use xlink:href="#DejaVuSans-61" x="48.394531"/>
      <use xlink:href="#DejaVuSans-6c" x="109.673828"/>
      <use xlink:href="#DejaVuSans-73" x="137.457031"/>
      <use xlink:href="#DejaVuSans-65" x="189.556641"/>
      <use xlink:href="#DejaVuSans-20" x="251.080078"/>
      <use xlink:href="#DejaVuSans-70" x="282.867188"/>
      <use xlink:href="#DejaVuSans-6f" x="346.34375"/>
      <use xlink:href="#DejaVuSans-73" x="407.525391"/>
      <use xlink:href="#DejaVuSans-69" x="459.625"/>
      <use xlink:href="#DejaVuSans-74" x="487.408203"/>
      <use xlink:href="#DejaVuSans-69" x="526.617188"/>
      <use xlink:href="#DejaVuSans-76" x="554.400391"/>
      <use xlink:href="#DejaVuSans-65" x="613.580078"/>
      <use xlink:href="#DejaVuSans-20" x="675.103516"/>
      <use xlink:href="#DejaVuSans-72" x="706.890625"/>
      <use xlink:href="#DejaVuSans-61" x="748.003906"/>
      <use xlink:href="#DejaVuSans-74" x="809.283203"/>
      <use xlink:href="#DejaVuSans-65" x="848.492188"/>
     </g>
    </g>
   </g>
   <g id="matplotlib.axis_2">
    <g id="ytick_1">
     <g id="line2d_7">
      <defs>
       <path id="mc49cb9b1b4" d="M 0 0 
L -3.5 0 
" style="stroke: #000000; stroke-width: 0.8"/>
      </defs>
      <g>
       <use xlink:href="#mc49cb9b1b4" x="62.03" y="225.591288" style="stroke: #000000; stroke-width: 0.8"/>
      </g>
     </g>
     <g id="text_8">
      <!-- 0.0 -->
      <g transform="translate(32.765625 230.910195) scale(0.14 -0.14)">
       <use xlink:href="#DejaVuSans-30"/>
       <use xlink:href="#DejaVuSans-2e" x="63.623047"/>
       <use xlink:href="#DejaVuSans-30" x="95.410156"/>
      </g>
     </g>
    </g>
    <g id="ytick_2">
     <g id="line2d_8">
      <g>
       <use xlink:href="#mc49cb9b1b4" x="62.03" y="186.530091" style="stroke: #000000; stroke-width: 0.8"/>
      </g>
     </g>
     <g id="text_9">
      <!-- 0.2 -->
      <g transform="translate(32.765625 191.848997) scale(0.14 -0.14)">
       <use xlink:href="#DejaVuSans-30"/>
       <use xlink:href="#DejaVuSans-2e" x="63.623047"/>
       <use xlink:href="#DejaVuSans-32" x="95.410156"/>
      </g>
     </g>
    </g>
    <g id="ytick_3">
     <g id="line2d_9">
      <g>
       <use xlink:href="#mc49cb9b1b4" x="62.03" y="147.468893" style="stroke: #000000; stroke-width: 0.8"/>
      </g>
     </g>
     <g id="text_10">
      <!-- 0.4 -->
      <g transform="translate(32.765625 152.787799) scale(0.14 -0.14)">
       <use xlink:href="#DejaVuSans-30"/>
       <use xlink:href="#DejaVuSans-2e" x="63.623047"/>
       <use xlink:href="#DejaVuSans-34" x="95.410156"/>
      </g>
     </g>
    </g>
    <g id="ytick_4">
     <g id="line2d_10">
      <g>
       <use xlink:href="#mc49cb9b1b4" x="62.03" y="108.407695" style="stroke: #000000; stroke-width: 0.8"/>
      </g>
     </g>
     <g id="text_11">
      <!-- 0.6 -->
      <g transform="translate(32.765625 113.726601) scale(0.14 -0.14)">
       <use xlink:href="#DejaVuSans-30"/>
       <use xlink:href="#DejaVuSans-2e" x="63.623047"/>
       <use xlink:href="#DejaVuSans-36" x="95.410156"/>
      </g>
     </g>
    </g>
    <g id="ytick_5">
     <g id="line2d_11">
      <g>
       <use xlink:href="#mc49cb9b1b4" x="62.03" y="69.346497" style="stroke: #000000; stroke-width: 0.8"/>
      </g>
     </g>
     <g id="text_12">
      <!-- 0.8 -->
      <g transform="translate(32.765625 74.665403) scale(0.14 -0.14)">
       <use xlink:href="#DejaVuSans-30"/>
       <use xlink:href="#DejaVuSans-2e" x="63.623047"/>
       <use xlink:href="#DejaVuSans-38" x="95.410156"/>
      </g>
     </g>
    </g>
    <g id="ytick_6">
     <g id="line2d_12">
      <g>
       <use xlink:href="#mc49cb9b1b4" x="62.03" y="30.285299" style="stroke: #000000; stroke-width: 0.8"/>
      </g>
     </g>
     <g id="text_13">
      <!-- 1.0 -->
      <g transform="translate(32.765625 35.604206) scale(0.14 -0.14)">
       <use xlink:href="#DejaVuSans-31"/>
       <use xlink:href="#DejaVuSans-2e" x="63.623047"/>
       <use xlink:href="#DejaVuSans-30" x="95.410156"/>
      </g>
     </g>
    </g>
    <g id="text_14">
     <!-- True positive rate -->
     <g transform="translate(25.854063 188.927981) rotate(-90) scale(0.14 -0.14)">
      <defs>
       <path id="DejaVuSans-54" d="M -19 4666 
L 3928 4666 
L 3928 4134 
L 2272 4134 
L 2272 0 
L 1638 0 
L 1638 4134 
L -19 4134 
L -19 4666 
z
" transform="scale(0.015625)"/>
       <path id="DejaVuSans-75" d="M 544 1381 
L 544 3500 
L 1119 3500 
L 1119 1403 
Q 1119 906 1312 657 
Q 1506 409 1894 409 
Q 2359 409 2629 706 
Q 2900 1003 2900 1516 
L 2900 3500 
L 3475 3500 
L 3475 0 
L 2900 0 
L 2900 538 
Q 2691 219 2414 64 
Q 2138 -91 1772 -91 
Q 1169 -91 856 284 
Q 544 659 544 1381 
z
M 1991 3584 
L 1991 3584 
z
" transform="scale(0.015625)"/>
      </defs>
      <use xlink:href="#DejaVuSans-54"/>
      <use xlink:href="#DejaVuSans-72" x="46.333984"/>
      <use xlink:href="#DejaVuSans-75" x="87.447266"/>
      <use xlink:href="#DejaVuSans-65" x="150.826172"/>
      <use xlink:href="#DejaVuSans-20" x="212.349609"/>
      <use xlink:href="#DejaVuSans-70" x="244.136719"/>
      <use xlink:href="#DejaVuSans-6f" x="307.613281"/>
      <use xlink:href="#DejaVuSans-73" x="368.794922"/>
      <use xlink:href="#DejaVuSans-69" x="420.894531"/>
      <use xlink:href="#DejaVuSans-74" x="448.677734"/>
      <use xlink:href="#DejaVuSans-69" x="487.886719"/>
      <use xlink:href="#DejaVuSans-76" x="515.669922"/>
      <use xlink:href="#DejaVuSans-65" x="574.849609"/>
      <use xlink:href="#DejaVuSans-20" x="636.373047"/>
      <use xlink:href="#DejaVuSans-72" x="668.160156"/>
      <use xlink:href="#DejaVuSans-61" x="709.273438"/>
      <use xlink:href="#DejaVuSans-74" x="770.552734"/>
      <use xlink:href="#DejaVuSans-65" x="809.761719"/>
     </g>
    </g>
   </g>
   <g id="line2d_13">
    <path d="M 75.074712 225.591288 
L 75.315133 223.043879 
L 75.426097 206.444185 
L 75.463085 204.145979 
L 75.574049 168.745298 
L 75.592543 168.454561 
L 75.703506 154.471499 
L 75.722 154.319208 
L 75.832964 142.855867 
L 75.851458 142.855867 
L 75.851458 142.772799 
L 75.962422 133.538441 
L 75.980916 133.538441 
L 75.980916 133.427684 
L 76.091879 124.193325 
L 76.110373 124.193325 
L 76.110373 124.124102 
L 76.221337 115.401995 
L 76.239831 115.401995 
L 76.239831 115.318927 
L 76.350795 108.244329 
L 76.369289 108.244329 
L 76.369289 108.147416 
L 76.480253 96.393338 
L 76.498747 96.393338 
L 76.498747 96.351804 
L 76.60971 89.526409 
L 76.628204 89.526409 
L 76.628204 89.457186 
L 76.739168 86.895932 
L 76.757662 86.895932 
L 76.757662 86.785175 
L 76.868626 81.247329 
L 76.905614 81.150416 
L 77.016577 78.159979 
L 77.035071 78.159979 
L 77.035071 78.049222 
L 77.146035 74.823427 
L 77.164529 74.823427 
L 77.164529 74.740359 
L 77.275493 72.137572 
L 77.293987 72.137572 
L 77.293987 72.082193 
L 77.40495 68.648729 
L 77.423444 68.648729 
L 77.423444 68.607195 
L 77.534408 66.032096 
L 77.571396 66.032096 
L 77.68236 62.792456 
L 77.719348 62.792456 
L 77.830311 61.518752 
L 77.867299 61.518752 
L 77.978263 60.258892 
L 78.015251 60.245047 
L 78.015251 60.231202 
L 78.126215 58.472936 
L 78.181697 58.376024 
L 78.29266 57.379212 
L 78.329648 57.296144 
L 78.440612 54.651822 
L 78.459106 54.651822 
L 78.459106 54.541066 
L 78.57007 53.225827 
L 78.588564 53.225827 
L 78.588564 53.128915 
L 78.662539 52.57513 
L 78.755009 52.478218 
L 78.865973 51.938278 
L 78.902961 51.841366 
L 79.013925 51.038378 
L 79.032418 51.038378 
L 79.032418 50.941466 
L 79.106394 50.290769 
L 79.18037 50.290769 
L 79.18037 50.207701 
L 79.291334 49.598538 
L 79.383804 49.543159 
L 79.476273 48.892462 
L 79.568743 48.79555 
L 79.661213 48.532502 
L 79.753683 48.421746 
L 79.864647 48.200232 
L 79.938622 48.117164 
L 80.049586 47.729515 
L 80.105068 47.618758 
L 80.216032 47.217264 
L 80.326995 47.148041 
L 80.400971 46.940372 
L 80.456453 46.940372 
L 80.456453 46.843459 
L 80.567417 46.677324 
L 80.622899 46.594256 
L 80.696875 46.248141 
L 80.844826 46.137384 
L 80.95579 46.040472 
L 81.04826 45.971249 
L 81.140729 45.708201 
L 81.270187 45.666667 
L 81.362657 45.251329 
L 81.529103 45.140572 
L 81.621572 44.849835 
L 81.825006 44.739078 
L 81.93597 44.600632 
L 81.991451 44.600632 
L 81.991451 44.503719 
L 82.102415 44.282206 
L 82.250367 44.185293 
L 82.361331 44.11607 
L 82.398318 44.11607 
L 82.509282 43.75611 
L 82.54627 43.742266 
L 82.54627 43.700732 
L 82.657234 43.451529 
L 82.749704 43.340772 
L 82.823679 43.146947 
L 83.027113 43.03619 
L 83.119583 42.925433 
L 83.34151 42.870055 
L 83.34151 42.828521 
L 83.43398 42.717764 
L 83.52645 42.648541 
L 83.637414 42.49625 
L 83.803859 42.413183 
L 83.914823 42.288581 
L 84.247714 42.177824 
L 84.340184 42.067067 
L 84.525123 41.95631 
L 84.636087 41.887087 
L 84.765545 41.817864 
L 84.802533 41.748641 
L 85.042954 41.651729 
L 85.135424 41.540972 
L 85.375845 41.457904 
L 85.486809 41.360992 
L 85.671749 41.250235 
L 85.690243 41.167167 
L 86.023134 41.05641 
L 86.115604 40.987187 
L 86.282049 40.890275 
L 86.393013 40.793363 
L 86.596447 40.69645 
L 86.651928 40.599538 
L 86.89235 40.544159 
L 87.003314 40.378024 
L 87.243735 40.294956 
L 87.354699 40.198044 
L 87.761566 40.114976 
L 87.761566 40.101132 
L 87.817048 39.990375 
L 88.556806 39.879618 
L 88.556806 39.865773 
L 89.46301 39.755016 
L 89.499998 39.699638 
L 90.25825 39.588881 
L 90.369214 39.547347 
L 90.646623 39.43659 
L 90.757587 39.395056 
L 91.108972 39.298144 
L 91.108972 39.242766 
L 91.904212 39.159698 
L 91.904212 39.132009 
L 91.996682 39.07663 
L 92.200115 39.035096 
L 92.200115 39.007407 
L 92.292585 38.439778 
L 92.773428 38.329021 
L 92.810416 38.301332 
L 93.013849 38.245953 
L 93.013849 38.190575 
L 93.087825 38.024439 
L 93.772101 37.913683 
L 93.883065 37.872149 
L 94.437884 37.775236 
L 94.530354 37.539878 
L 94.881739 37.442966 
L 94.992703 37.387587 
L 95.455051 37.304519 
L 95.492039 37.124539 
L 95.954388 37.069161 
L 95.954388 37.027627 
L 96.00987 36.986093 
L 96.731134 36.875336 
L 96.823604 36.681512 
L 97.526375 36.598444 
L 97.637338 36.418464 
L 98.377097 36.307707 
L 98.48806 36.113883 
L 99.061373 36.01697 
L 99.153843 35.947747 
L 100.577877 35.83699 
L 100.577877 35.823146 
L 102.297815 35.712389 
L 102.334803 35.670855 
L 102.92661 35.601632 
L 102.963598 35.200138 
L 103.148537 35.186293 
L 103.148537 35.158604 
L 103.148537 34.992469 
L 104.110223 34.978624 
L 104.110223 34.895556 
L 104.110223 34.784799 
L 105.256848 34.729421 
L 105.256848 34.674043 
L 105.31233 34.521752 
L 106.329498 34.410995 
L 106.366486 34.383306 
L 108.382327 34.272549 
L 108.456303 34.21717 
L 109.325519 34.106413 
L 109.325519 34.092569 
L 111.008469 34.03719 
L 111.008469 33.995656 
L 111.06395 33.926433 
L 113.264731 33.829521 
L 113.264731 33.67723 
L 115.983343 33.566473 
L 115.983343 33.552629 
L 118.202617 33.441872 
L 118.258099 33.414183 
L 120.329422 33.400338 
L 120.440386 33.234203 
L 121.550023 33.123446 
L 121.642493 33.095756 
L 124.00972 32.984999 
L 124.00972 32.971155 
L 126.709837 32.860398 
L 126.709837 32.832709 
L 129.151039 32.721952 
L 129.188027 32.694263 
L 132.646397 32.583506 
L 132.646397 32.569661 
L 134.62525 32.472749 
L 134.736214 32.431215 
L 137.417838 32.320458 
L 137.417838 32.306613 
L 141.44952 32.195856 
L 141.44952 32.182012 
L 143.798253 32.071255 
L 143.816747 32.043566 
L 146.073009 31.932809 
L 146.073009 31.918964 
L 152.712339 31.808207 
L 152.712339 31.794363 
L 160.14691 31.683606 
L 160.14691 31.669761 
L 169.541839 31.572849 
L 169.541839 31.489781 
L 189.922179 31.379024 
L 189.922179 31.365179 
L 207.17704 31.254423 
L 207.17704 31.240578 
L 226.947079 31.129821 
L 226.947079 31.115976 
L 233.937794 31.032909 
L 233.937794 31.005219 
L 233.937794 30.949841 
L 246.495191 30.839084 
L 246.495191 30.825239 
L 264.674749 30.728327 
L 264.674749 30.700638 
L 274.957389 30.589881 
L 274.957389 30.562192 
L 295.744596 30.451435 
L 295.744596 30.43759 
L 335.691541 30.326833 
L 335.691541 30.312989 
L 335.747022 30.312989 
L 335.96895 30.285299 
L 335.96895 30.285299 
" clip-path="url(#pf07b2abb98)" style="fill: none; stroke: #800080; stroke-width: 1.5; stroke-linecap: square"/>
   </g>
   <g id="line2d_14">
    <path d="M 75.074712 225.591288 
L 75.685012 132.389338 
L 75.703506 132.250892 
L 75.81447 123.888744 
L 75.832964 123.888744 
L 75.832964 123.791832 
L 75.943928 119.458467 
L 75.980916 119.416933 
L 75.980916 119.34771 
L 76.091879 108.687356 
L 76.110373 108.687356 
L 76.110373 108.576599 
L 76.221337 100.366742 
L 76.239831 100.366742 
L 76.350795 95.618039 
L 76.369289 95.618039 
L 76.480253 91.367742 
L 76.498747 91.367742 
L 76.498747 91.284675 
L 76.60971 83.974718 
L 76.628204 83.960873 
L 76.739168 75.79255 
L 76.757662 75.79255 
L 76.868626 71.860679 
L 76.88712 71.860679 
L 76.998083 69.867055 
L 77.016577 69.867055 
L 77.127541 66.987375 
L 77.146035 66.987375 
L 77.256999 63.304707 
L 77.275493 63.304707 
L 77.386456 62.141759 
L 77.40495 62.141759 
L 77.515914 61.39415 
L 77.534408 61.39415 
L 77.645372 59.898932 
L 77.68236 59.843553 
L 77.793323 58.69445 
L 77.830311 58.680606 
L 77.941275 57.669949 
L 77.959769 57.669949 
L 78.070733 56.327021 
L 78.089227 56.327021 
L 78.20019 55.745547 
L 78.237178 55.731702 
L 78.348142 53.973436 
L 78.38513 53.890369 
L 78.496094 53.156604 
L 78.57007 53.059692 
L 78.681033 52.118258 
L 78.699527 52.118258 
L 78.810491 51.606007 
L 78.865973 51.536784 
L 78.976937 50.789175 
L 79.032418 50.678418 
L 79.143382 49.944653 
L 79.18037 49.833896 
L 79.291334 48.947841 
L 79.346816 48.920152 
L 79.457779 48.574036 
L 79.513261 48.463279 
L 79.624225 48.034096 
L 79.661213 47.923339 
L 79.735189 47.480312 
L 79.846153 47.424933 
L 79.957116 47.161886 
L 79.97561 47.161886 
L 80.086574 46.732702 
L 80.197538 46.649635 
L 80.308501 46.400432 
L 80.382477 46.317364 
L 80.493441 45.971249 
L 80.511935 45.971249 
L 80.622899 45.500532 
L 80.678381 45.389775 
L 80.789344 45.182106 
L 80.900308 45.112882 
L 80.974284 45.029815 
L 81.066754 44.974436 
L 81.177717 44.752922 
L 81.233199 44.669855 
L 81.344163 44.545253 
L 81.473621 44.47603 
L 81.584584 44.240672 
L 81.788018 44.129915 
L 81.898982 44.046847 
L 82.009945 43.93609 
L 82.102415 43.728421 
L 82.176391 43.686887 
L 82.287355 43.423839 
L 82.509282 43.313083 
L 82.601752 43.230015 
L 82.73121 43.119258 
L 82.842173 42.966967 
L 82.990125 42.85621 
L 83.082595 42.579318 
L 83.175065 42.482406 
L 83.230547 42.302426 
L 83.396992 42.233203 
L 83.507956 42.13629 
L 83.581932 42.067067 
L 83.692895 41.95631 
L 83.803859 41.873243 
L 83.914823 41.762486 
L 84.081268 41.665573 
L 84.192232 41.610195 
L 84.32169 41.499438 
L 84.432654 41.347147 
L 84.710063 41.250235 
L 84.784039 41.181012 
L 85.172412 41.070255 
L 85.246388 41.014876 
L 85.375845 40.945653 
L 85.486809 40.765673 
L 85.616267 40.654916 
L 85.708737 40.613383 
L 86.00464 40.544159 
L 86.115604 40.350335 
L 86.522471 40.239578 
L 86.633434 40.018064 
L 86.818374 39.907307 
L 86.929338 39.824239 
L 87.336205 39.713483 
L 87.428675 39.658104 
L 87.68759 39.61657 
L 87.761566 39.478124 
L 87.909517 39.408901 
L 87.983493 39.270455 
L 88.353372 39.159698 
L 88.464336 39.090475 
L 88.649276 38.979718 
L 88.760239 38.827427 
L 88.908191 38.71667 
L 88.982167 38.661292 
L 89.296564 38.550535 
L 89.389034 38.495156 
L 89.795901 38.398244 
L 89.906865 38.301332 
L 90.16578 38.190575 
L 90.25825 38.149041 
L 90.461683 38.038284 
L 90.554153 37.982906 
L 91.05349 37.872149 
L 91.05349 37.844459 
L 91.589815 37.775236 
L 91.589815 37.719858 
L 91.996682 37.609101 
L 92.089151 37.526033 
L 92.514512 37.429121 
L 92.5515 37.387587 
L 92.939873 37.27683 
L 93.013849 37.249141 
L 93.420716 37.152229 
L 93.457704 37.110695 
L 94.141981 36.999938 
L 94.178969 36.958404 
L 94.715293 36.847647 
L 94.826257 36.778424 
L 95.251618 36.667667 
L 95.3071 36.612289 
L 96.157822 36.501532 
L 96.157822 36.487687 
L 98.081193 36.37693 
L 98.081193 36.363086 
L 99.079867 36.252329 
L 99.190831 36.224639 
L 100.17101 36.113883 
L 100.17101 36.100038 
L 100.855287 35.989281 
L 100.855287 35.975436 
L 101.669021 35.864679 
L 101.779984 35.781612 
L 104.794499 35.670855 
L 104.812993 35.643166 
L 106.458955 35.532409 
L 106.532931 35.504719 
L 107.494617 35.407807 
L 107.494617 35.380118 
L 108.49329 35.269361 
L 108.49329 35.255516 
L 109.417988 35.144759 
L 109.454976 35.11707 
L 110.749553 35.006313 
L 110.749553 34.992469 
L 111.193408 34.923246 
L 111.193408 34.867867 
L 111.785215 34.75711 
L 111.822203 34.715576 
L 112.580455 34.604819 
L 112.580455 34.590975 
L 113.357201 34.480218 
L 113.468165 34.424839 
L 114.041477 34.314083 
L 114.152441 34.258704 
L 115.262078 34.147947 
L 115.31756 34.120258 
L 116.353222 34.009501 
L 116.427198 33.926433 
L 117.148462 33.815676 
L 117.222438 33.774143 
L 117.943702 33.663386 
L 117.943702 33.635696 
L 119.460206 33.524939 
L 119.460206 33.49725 
L 120.680808 33.386493 
L 120.773277 33.331115 
L 121.660987 33.220358 
L 121.660987 33.192669 
L 123.251467 33.081912 
L 123.251467 33.068067 
L 124.786466 32.95731 
L 124.860442 32.915776 
L 126.284476 32.805019 
L 126.284476 32.791175 
L 127.708511 32.680418 
L 127.727005 32.652729 
L 129.687364 32.541972 
L 129.687364 32.528127 
L 131.388808 32.41737 
L 131.388808 32.403526 
L 135.291033 32.292769 
L 135.291033 32.278924 
L 141.098135 32.168167 
L 141.098135 32.154323 
L 143.798253 32.043566 
L 143.798253 32.029721 
L 150.807462 31.918964 
L 150.899932 31.891275 
L 154.506253 31.780518 
L 154.506253 31.766673 
L 159.906488 31.655916 
L 159.96197 31.628227 
L 172.297439 31.51747 
L 172.408403 31.489781 
L 178.289481 31.379024 
L 178.289481 31.365179 
L 190.34754 31.254423 
L 190.34754 31.240578 
L 199.317109 31.129821 
L 199.317109 31.115976 
L 211.134747 31.005219 
L 211.134747 30.991375 
L 238.413332 30.880618 
L 238.413332 30.866773 
L 261.623247 30.756016 
L 261.623247 30.742172 
L 276.806785 30.631415 
L 276.806785 30.61757 
L 284.444788 30.506813 
L 284.444788 30.492969 
L 305.990247 30.382212 
L 305.990247 30.368367 
L 335.96895 30.285299 
L 335.96895 30.285299 
" clip-path="url(#pf07b2abb98)" style="fill: none; stroke: #228b22; stroke-width: 1.5; stroke-linecap: square"/>
   </g>
   <g id="line2d_15">
    <path d="M 75.074712 225.591288 
L 75.832964 134.064536 
L 75.869952 133.953779 
L 75.980916 127.183762 
L 75.99941 127.183762 
L 75.99941 127.073005 
L 76.110373 117.783269 
L 76.128867 117.783269 
L 76.239831 108.936559 
L 76.258325 108.936559 
L 76.369289 102.125009 
L 76.387783 102.125009 
L 76.498747 95.784175 
L 76.535734 95.756485 
L 76.646698 88.543441 
L 76.665192 88.543441 
L 76.776156 83.462467 
L 76.79465 83.462467 
L 76.905614 78.907589 
L 76.924108 78.907589 
L 77.016577 75.584881 
L 77.053565 75.584881 
L 77.164529 72.649822 
L 77.183023 72.649822 
L 77.293987 71.140759 
L 77.312481 71.140759 
L 77.423444 69.354804 
L 77.460432 69.340959 
L 77.571396 68.59335 
L 77.58989 68.59335 
L 77.700854 66.516658 
L 77.737842 66.43359 
L 77.848805 65.062973 
L 77.867299 65.062973 
L 77.978263 63.872336 
L 78.015251 63.872336 
L 78.126215 63.110882 
L 78.181697 63.000126 
L 78.29266 61.407995 
L 78.311154 61.407995 
L 78.422118 60.729609 
L 78.440612 60.729609 
L 78.551576 58.971342 
L 78.57007 58.971342 
L 78.681033 57.642259 
L 78.718021 57.642259 
L 78.810491 57.323833 
L 78.865973 57.323833 
L 78.976937 56.922339 
L 79.013925 56.908495 
L 79.124888 56.008595 
L 79.143382 56.008595 
L 79.235852 55.357898 
L 79.291334 55.27483 
L 79.402298 54.859492 
L 79.457779 54.776424 
L 79.568743 54.596444 
L 79.605731 54.485687 
L 79.716695 53.779612 
L 79.735189 53.779612 
L 79.846153 53.032002 
L 79.901634 52.921246 
L 80.012598 52.076724 
L 80.06808 51.979812 
L 80.179044 51.702919 
L 80.308501 51.606007 
L 80.400971 51.384493 
L 80.437959 51.384493 
L 80.511935 50.996844 
L 80.604405 50.899932 
L 80.715368 50.263079 
L 80.826332 50.152322 
L 80.937296 49.736984 
L 81.029766 49.653916 
L 81.140729 49.15551 
L 81.159223 49.15551 
L 81.251693 48.906307 
L 81.307175 48.79555 
L 81.418139 48.490969 
L 81.436633 48.490969 
L 81.529103 48.269455 
L 81.621572 48.200232 
L 81.695548 47.840272 
L 81.806512 47.743359 
L 81.898982 47.438778 
L 81.954464 47.369555 
L 82.028439 47.203419 
L 82.102415 47.203419 
L 82.176391 46.857304 
L 82.250367 46.760392 
L 82.324343 46.594256 
L 82.4538 46.497344 
L 82.564764 46.123539 
L 82.63874 46.054316 
L 82.749704 45.708201 
L 82.897655 45.625133 
L 83.008619 45.237484 
L 83.119583 45.140572 
L 83.230547 44.877524 
L 83.304522 44.794456 
L 83.415486 44.559098 
L 83.489462 44.448341 
L 83.581932 44.226827 
L 83.655908 44.11607 
L 83.766871 43.949935 
L 83.914823 43.839178 
L 84.025787 43.686887 
L 84.377172 43.589975 
L 84.488136 43.382306 
L 84.636087 43.285393 
L 84.747051 43.160792 
L 84.895003 43.077724 
L 84.987472 42.953123 
L 85.190906 42.842366 
L 85.30187 42.662386 
L 85.412833 42.551629 
L 85.523797 42.468561 
L 85.764218 42.357804 
L 85.764218 42.343959 
L 86.023134 42.233203 
L 86.134098 42.094756 
L 86.448495 42.011689 
L 86.522471 41.900932 
L 86.79988 41.790175 
L 86.910844 41.707107 
L 87.021808 41.610195 
L 87.095783 41.527127 
L 87.391687 41.41637 
L 87.447169 41.374836 
L 87.761566 41.291769 
L 87.835542 41.194856 
L 88.112951 41.097944 
L 88.223915 40.945653 
L 88.48283 40.834896 
L 88.538312 40.710295 
L 88.945179 40.599538 
L 89.056143 40.51647 
L 89.241082 40.405713 
L 89.352046 40.350335 
L 89.629455 40.253423 
L 89.703431 40.15651 
L 89.999334 40.045753 
L 90.091804 39.97653 
L 90.591141 39.865773 
L 90.683611 39.824239 
L 91.05349 39.741172 
L 91.090478 39.685793 
L 91.460357 39.575036 
L 91.460357 39.547347 
L 92.107645 39.43659 
L 92.163127 39.395056 
L 92.847404 39.284299 
L 92.902886 39.228921 
L 93.568668 39.118164 
L 93.605656 39.090475 
L 93.994029 38.979718 
L 94.086499 38.938184 
L 94.252944 38.827427 
L 94.363908 38.785893 
L 95.011197 38.675136 
L 95.066678 38.633603 
L 95.713967 38.522846 
L 95.824931 38.495156 
L 96.472219 38.384399 
L 96.472219 38.370555 
L 97.119508 38.259798 
L 97.211977 38.190575 
L 97.951736 38.079818 
L 97.970229 38.052129 
L 98.968903 37.955216 
L 98.968903 37.913683 
L 99.579204 37.81677 
L 99.653179 37.719858 
L 100.429926 37.622946 
L 100.429926 37.595256 
L 101.040226 37.498344 
L 101.114202 37.429121 
L 102.205345 37.318364 
L 102.297815 37.290675 
L 103.019079 37.179918 
L 103.111549 37.124539 
L 104.480102 37.013783 
L 104.480102 36.999938 
L 105.367812 36.889181 
L 105.460282 36.819958 
L 106.089076 36.709201 
L 106.20004 36.584599 
L 106.99528 36.473843 
L 106.99528 36.459998 
L 107.735038 36.349241 
L 107.735038 36.307707 
L 108.752206 36.19695 
L 108.807688 36.169261 
L 109.528952 36.072349 
L 109.621422 36.030815 
L 110.675577 35.920058 
L 110.694071 35.892369 
L 112.395515 35.781612 
L 112.414009 35.753923 
L 114.263405 35.643166 
L 114.263405 35.629321 
L 116.649125 35.518564 
L 116.741595 35.449341 
L 117.240932 35.338584 
L 117.333401 35.29705 
L 117.814244 35.186293 
L 117.869726 35.144759 
L 118.535509 35.047847 
L 118.627978 34.992469 
L 119.386231 34.909401 
L 119.386231 34.867867 
L 119.793098 34.75711 
L 119.811592 34.729421 
L 120.736289 34.618664 
L 120.791771 34.549441 
L 121.457554 34.438684 
L 121.457554 34.424839 
L 122.604179 34.314083 
L 122.622673 34.286393 
L 123.547371 34.175636 
L 123.63984 34.147947 
L 124.157671 34.03719 
L 124.176165 33.995656 
L 125.304297 33.884899 
L 125.304297 33.85721 
L 125.951585 33.746453 
L 125.970079 33.718764 
L 126.931765 33.608007 
L 126.931765 33.594163 
L 128.725678 33.483406 
L 128.725678 33.455716 
L 129.66887 33.344959 
L 129.742846 33.31727 
L 133.31218 33.206513 
L 133.31218 33.192669 
L 137.565789 33.081912 
L 137.565789 33.068067 
L 141.505002 32.95731 
L 141.505002 32.943466 
L 144.353071 32.832709 
L 144.353071 32.818864 
L 147.090177 32.708107 
L 147.090177 32.694263 
L 148.292284 32.583506 
L 148.292284 32.569661 
L 151.82463 32.458904 
L 151.82463 32.445059 
L 154.580229 32.334303 
L 154.598723 32.306613 
L 157.409804 32.195856 
L 157.409804 32.182012 
L 162.514136 32.071255 
L 162.569618 32.043566 
L 167.156119 31.932809 
L 167.156119 31.918964 
L 176.717494 31.808207 
L 176.717494 31.794363 
L 181.74785 31.683606 
L 181.803332 31.655916 
L 192.437357 31.545159 
L 192.437357 31.531315 
L 205.882463 31.420558 
L 205.882463 31.406713 
L 221.861241 31.295956 
L 221.861241 31.282112 
L 241.168931 31.171355 
L 241.168931 31.15751 
L 254.688013 31.046753 
L 254.688013 31.032909 
L 269.35372 30.922152 
L 269.35372 30.908307 
L 315.255719 30.79755 
L 315.255719 30.783706 
L 331.974255 30.672949 
L 331.974255 30.645259 
L 332.787989 30.548347 
L 332.787989 30.520658 
L 333.953109 30.409901 
L 333.953109 30.396056 
L 335.96895 30.285299 
L 335.96895 30.285299 
" clip-path="url(#pf07b2abb98)" style="fill: none; stroke: #0000cd; stroke-width: 1.5; stroke-linecap: square"/>
   </g>
   <g id="line2d_16">
    <path d="M 75.074712 225.591288 
L 75.592543 146.081662 
L 75.611037 145.846304 
L 75.722 131.212545 
L 75.740494 131.212545 
L 75.740494 131.115633 
L 75.851458 119.693825 
L 75.869952 119.693825 
L 75.869952 119.610758 
L 75.980916 110.334865 
L 75.99941 110.334865 
L 76.110373 105.433872 
L 76.128867 105.433872 
L 76.128867 105.323115 
L 76.239831 101.848116 
L 76.258325 101.848116 
L 76.258325 101.778893 
L 76.369289 92.627602 
L 76.406277 92.544535 
L 76.51724 86.854398 
L 76.535734 86.854398 
L 76.646698 80.098226 
L 76.665192 80.098226 
L 76.776156 77.841553 
L 76.813144 77.758486 
L 76.924108 74.061973 
L 76.942601 74.061973 
L 77.053565 73.175918 
L 77.072059 73.175918 
L 77.183023 70.905401 
L 77.201517 70.905401 
L 77.312481 67.734984 
L 77.330975 67.734984 
L 77.441938 65.256798 
L 77.460432 65.256798 
L 77.571396 63.941559 
L 77.58989 63.941559 
L 77.700854 61.463373 
L 77.756336 61.366461 
L 77.867299 59.926621 
L 77.904287 59.815864 
L 78.015251 59.289769 
L 78.033745 59.289769 
L 78.144709 58.362179 
L 78.163203 58.362179 
L 78.274166 57.379212 
L 78.29266 57.379212 
L 78.403624 56.728515 
L 78.440612 56.71467 
L 78.496094 55.63479 
L 78.588564 55.607101 
L 78.699527 54.721046 
L 78.718021 54.721046 
L 78.828985 54.028815 
L 78.902961 53.945747 
L 79.013925 53.419652 
L 79.050912 53.336584 
L 79.161876 52.39515 
L 79.235852 52.284393 
L 79.346816 51.439872 
L 79.36531 51.439872 
L 79.476273 50.733796 
L 79.587237 50.636884 
L 79.698201 50.166167 
L 79.753683 50.083099 
L 79.846153 49.598538 
L 79.920128 49.529315 
L 80.012598 48.892462 
L 80.105068 48.837084 
L 80.216032 48.490969 
L 80.271514 48.407901 
L 80.382477 47.923339 
L 80.400971 47.923339 
L 80.511935 47.466467 
L 80.659887 47.35571 
L 80.77085 46.691169 
L 80.844826 46.580412 
L 80.95579 46.400432 
L 81.103742 46.345053 
L 81.214705 46.040472 
L 81.288681 45.943559 
L 81.381151 45.569755 
L 81.418139 45.569755 
L 81.529103 45.085193 
L 81.603078 45.043659 
L 81.714042 44.586787 
L 81.769524 44.559098 
L 81.880488 44.392962 
L 81.954464 44.282206 
L 82.028439 44.005313 
L 82.231873 43.922246 
L 82.342837 43.797644 
L 82.435306 43.686887 
L 82.509282 43.520752 
L 82.675728 43.423839 
L 82.786692 43.257704 
L 82.879161 43.160792 
L 82.990125 43.008501 
L 83.156571 42.897744 
L 83.267534 42.690075 
L 83.415486 42.579318 
L 83.507956 42.427027 
L 83.674401 42.343959 
L 83.785365 42.205513 
L 83.951811 42.108601 
L 84.025787 42.011689 
L 84.155244 41.970155 
L 84.247714 41.762486 
L 84.358678 41.651729 
L 84.469642 41.527127 
L 84.654581 41.41637 
L 84.765545 41.181012 
L 84.876509 41.070255 
L 84.950484 40.973343 
L 85.2094 40.862586 
L 85.320364 40.779518 
L 85.486809 40.682606 
L 85.542291 40.641072 
L 85.8197 40.530315 
L 85.856688 40.447247 
L 86.041628 40.378024 
L 86.152592 40.239578 
L 86.393013 40.15651 
L 86.485483 40.073443 
L 86.540965 40.004219 
L 86.61494 39.865773 
L 86.818374 39.755016 
L 86.89235 39.713483 
L 87.151265 39.630415 
L 87.243735 39.43659 
L 87.539638 39.325833 
L 87.650602 39.25661 
L 87.854036 39.159698 
L 87.964999 39.007407 
L 88.279397 38.89665 
L 88.353372 38.841272 
L 88.649276 38.730515 
L 88.741745 38.688981 
L 89.093131 38.578224 
L 89.204094 38.481312 
L 89.592467 38.370555 
L 89.684937 38.245953 
L 89.943853 38.149041 
L 90.054816 38.052129 
L 90.609635 37.941372 
L 90.665117 37.872149 
L 90.924032 37.761392 
L 91.034996 37.733703 
L 91.386381 37.622946 
L 91.497345 37.526033 
L 91.885718 37.415276 
L 91.959694 37.346053 
L 92.5515 37.235296 
L 92.64397 37.152229 
L 93.050837 37.041472 
L 93.143307 37.013783 
L 93.62415 36.903026 
L 93.735114 36.819958 
L 94.474872 36.723046 
L 94.548848 36.598444 
L 94.992703 36.487687 
L 95.011197 36.446153 
L 95.566015 36.335396 
L 95.658485 36.266173 
L 96.860592 36.155416 
L 96.971556 36.113883 
L 97.415411 36.003126 
L 97.452399 35.961592 
L 98.099687 35.850835 
L 98.099687 35.83699 
L 98.931915 35.726233 
L 99.005891 35.698544 
L 99.893601 35.587787 
L 99.893601 35.546253 
L 100.466914 35.435496 
L 100.559383 35.393963 
L 101.447093 35.283206 
L 101.447093 35.269361 
L 103.185525 35.158604 
L 103.204019 35.130915 
L 104.350644 35.034003 
L 104.406126 34.992469 
L 104.979439 34.881712 
L 104.979439 34.867867 
L 105.626727 34.75711 
L 105.663715 34.715576 
L 106.477449 34.604819 
L 106.477449 34.590975 
L 107.716544 34.480218 
L 107.716544 34.466373 
L 108.86317 34.355616 
L 108.937145 34.327927 
L 109.861843 34.21717 
L 109.861843 34.203326 
L 111.415336 34.092569 
L 111.507805 34.064879 
L 113.579128 33.954123 
L 113.597622 33.926433 
L 114.337381 33.815676 
L 114.337381 33.801832 
L 115.447018 33.691075 
L 115.447018 33.67723 
L 116.686113 33.566473 
L 116.778583 33.524939 
L 117.869726 33.414183 
L 117.98069 33.386493 
L 119.330749 33.275736 
L 119.423219 33.248047 
L 121.272614 33.13729 
L 121.272614 33.123446 
L 122.733637 33.012689 
L 122.733637 32.998844 
L 125.452248 32.888087 
L 125.470742 32.846553 
L 127.671523 32.749641 
L 127.690017 32.708107 
L 130.833989 32.59735 
L 130.833989 32.583506 
L 132.553927 32.472749 
L 132.553927 32.458904 
L 134.051938 32.348147 
L 134.051938 32.334303 
L 140.617292 32.223546 
L 140.617292 32.209701 
L 146.220961 32.098944 
L 146.220961 32.085099 
L 151.417762 31.974343 
L 151.45475 31.946653 
L 159.2592 31.835896 
L 159.2592 31.822052 
L 163.050461 31.711295 
L 163.050461 31.683606 
L 166.749252 31.572849 
L 166.749252 31.545159 
L 171.372741 31.434403 
L 171.428223 31.392869 
L 174.479726 31.282112 
L 174.479726 31.268267 
L 184.355498 31.15751 
L 184.355498 31.143666 
L 193.399043 31.032909 
L 193.399043 31.019064 
L 207.36198 30.908307 
L 207.36198 30.894463 
L 219.974858 30.783706 
L 219.974858 30.769861 
L 233.068578 30.659104 
L 233.068578 30.645259 
L 273.348415 30.534503 
L 273.348415 30.520658 
L 332.529074 30.409901 
L 332.529074 30.396056 
L 335.96895 30.285299 
L 335.96895 30.285299 
" clip-path="url(#pf07b2abb98)" style="fill: none; stroke: #8b4513; stroke-width: 1.5; stroke-linecap: square"/>
   </g>
   <g id="line2d_17">
    <path d="M 75.074712 225.591288 
L 79.864647 68.607195 
L 80.715368 59.663573 
L 80.752356 59.358992 
L 80.86332 57.697638 
L 80.900308 57.683793 
L 80.900308 57.600726 
L 81.011272 57.033096 
L 81.029766 57.033096 
L 81.029766 57.005407 
L 81.140729 55.925527 
L 81.177717 55.925527 
L 81.288681 54.901026 
L 81.307175 54.901026 
L 81.307175 54.790269 
L 81.418139 53.821146 
L 81.492115 53.807301 
L 81.492115 53.724233 
L 81.547597 53.405807 
L 81.621572 53.405807 
L 81.732536 52.298238 
L 81.825006 52.242859 
L 81.93597 51.799832 
L 82.028439 51.744453 
L 82.028439 51.689075 
L 82.139403 51.232202 
L 82.157897 51.232202 
L 82.157897 51.13529 
L 82.250367 50.927621 
L 82.287355 50.927621 
L 82.398318 50.290769 
L 82.509282 50.193856 
L 82.527776 50.013876 
L 82.63874 50.013876 
L 82.749704 49.487781 
L 82.786692 49.432402 
L 82.786692 49.390869 
L 82.897655 49.003219 
L 82.990125 48.906307 
L 83.101089 48.158698 
L 83.175065 48.07563 
L 83.175065 48.061786 
L 83.286028 47.508001 
L 83.34151 47.411089 
L 83.452474 47.064973 
L 83.692895 46.954216 
L 83.803859 46.718858 
L 83.877835 46.608101 
L 83.988799 46.414276 
L 84.081268 46.303519 
L 84.192232 46.109695 
L 84.432654 45.998938 
L 84.543617 45.929715 
L 84.654581 45.860492 
L 84.747051 45.583599 
L 84.895003 45.486687 
L 85.005966 45.348241 
L 85.11693 45.237484 
L 85.227894 45.071349 
L 85.357351 45.01597 
L 85.449821 44.83599 
L 85.671749 44.752922 
L 85.671749 44.725233 
L 85.782712 44.572942 
L 85.986146 44.462186 
L 86.09711 44.365273 
L 86.171086 44.268361 
L 86.208073 44.185293 
L 86.337531 44.102226 
L 86.337531 44.088381 
L 86.430001 43.93609 
L 86.670422 43.825333 
L 86.744398 43.700732 
L 87.003314 43.589975 
L 87.114277 43.451529 
L 87.243735 43.354616 
L 87.354699 43.257704 
L 87.50265 43.146947 
L 87.613614 43.063879 
L 87.835542 42.953123 
L 87.946505 42.828521 
L 88.131445 42.731609 
L 88.186927 42.607007 
L 88.353372 42.537784 
L 88.445842 42.454716 
L 88.741745 42.343959 
L 88.852709 42.205513 
L 89.000661 42.108601 
L 89.093131 42.067067 
L 89.407528 41.970155 
L 89.518492 41.873243 
L 89.869877 41.790175 
L 89.906865 41.734796 
L 90.295238 41.624039 
L 90.406201 41.554816 
L 90.646623 41.444059 
L 90.757587 41.305613 
L 90.831562 41.222546 
L 90.850056 41.153323 
L 91.700778 41.042566 
L 91.811742 40.834896 
L 92.385055 40.724139 
L 92.422043 40.682606 
L 92.82891 40.571849 
L 92.82891 40.558004 
L 93.180295 40.447247 
L 93.272765 40.350335 
L 93.605656 40.253423 
L 93.71662 40.15651 
L 94.160475 40.045753 
L 94.215956 40.004219 
L 94.733787 39.893463 
L 94.733787 39.879618 
L 95.02969 39.768861 
L 95.066678 39.713483 
L 95.270112 39.671949 
L 95.270112 39.61657 
L 95.362582 39.561192 
L 95.695473 39.450435 
L 95.732461 39.422746 
L 96.287279 39.311989 
L 96.324267 39.270455 
L 96.879086 39.173543 
L 96.99005 39.118164 
L 97.322941 39.007407 
L 97.415411 38.979718 
L 97.970229 38.868961 
L 98.025711 38.827427 
L 98.525048 38.730515 
L 98.617518 38.688981 
L 99.616192 38.592069 
L 99.708661 38.522846 
L 100.485408 38.412089 
L 100.596371 38.342866 
L 101.94643 38.232109 
L 102.020406 38.204419 
L 102.945104 38.093663 
L 102.982092 38.052129 
L 103.851308 37.941372 
L 103.851308 37.927527 
L 104.591066 37.81677 
L 104.665042 37.775236 
L 105.608233 37.678324 
L 105.645221 37.63679 
L 106.458955 37.539878 
L 106.532931 37.484499 
L 107.568593 37.373743 
L 107.679556 37.332209 
L 109.140579 37.221452 
L 109.140579 37.207607 
L 110.952987 37.09685 
L 110.971481 37.055316 
L 111.637263 36.944559 
L 111.637263 36.930715 
L 112.654431 36.819958 
L 112.654431 36.792269 
L 114.281899 36.723046 
L 114.281899 36.667667 
L 116.20527 36.55691 
L 116.260752 36.529221 
L 117.629305 36.418464 
L 117.629305 36.404619 
L 120.144483 36.293863 
L 120.162977 36.266173 
L 121.716469 36.155416 
L 121.808939 36.086193 
L 122.881588 35.975436 
L 122.955564 35.947747 
L 125.193333 35.83699 
L 125.193333 35.823146 
L 126.765319 35.712389 
L 126.765319 35.698544 
L 128.374293 35.587787 
L 128.374293 35.573943 
L 131.148387 35.463186 
L 131.148387 35.449341 
L 133.256698 35.338584 
L 133.256698 35.324739 
L 135.79037 35.213983 
L 135.901333 35.158604 
L 138.046632 35.047847 
L 138.046632 35.034003 
L 139.914522 34.923246 
L 139.914522 34.909401 
L 141.948857 34.812489 
L 142.004339 34.770955 
L 144.20512 34.660198 
L 144.20512 34.646353 
L 146.350419 34.535596 
L 146.4059 34.507907 
L 148.329272 34.39715 
L 148.329272 34.383306 
L 149.531379 34.272549 
L 149.531379 34.258704 
L 152.693845 34.161792 
L 152.712339 34.023346 
L 156.152215 33.912589 
L 156.152215 33.898744 
L 157.076913 33.787987 
L 157.169383 33.760298 
L 160.923656 33.67723 
L 160.923656 33.580318 
L 162.292209 33.469561 
L 162.292209 33.455716 
L 166.379373 33.344959 
L 166.379373 33.331115 
L 171.002862 33.220358 
L 171.002862 33.206513 
L 173.444064 33.095756 
L 173.444064 33.081912 
L 175.10852 32.971155 
L 175.10852 32.95731 
L 178.529902 32.915776 
L 178.529902 32.818864 
L 183.948631 32.708107 
L 183.948631 32.666573 
L 186.130918 32.638884 
L 186.167906 32.500438 
L 187.554953 32.389681 
L 187.554953 32.375836 
L 189.052963 32.265079 
L 189.163927 32.209701 
L 193.990849 32.098944 
L 193.990849 32.085099 
L 195.673799 31.988187 
L 195.673799 31.960498 
L 200.926083 31.849741 
L 200.926083 31.835896 
L 204.883789 31.725139 
L 204.883789 31.711295 
L 213.261552 31.669761 
L 213.261552 31.586693 
L 216.534982 31.475936 
L 216.534982 31.462092 
L 217.681607 31.420558 
L 217.681607 31.33749 
L 218.16245 31.254423 
L 335.96895 30.285299 
L 335.96895 30.285299 
" clip-path="url(#pf07b2abb98)" style="fill: none; stroke: #000000; stroke-width: 1.5; stroke-linecap: square"/>
   </g>
   <g id="patch_3">
    <path d="M 62.03 235.356588 
L 62.03 20.52 
" style="fill: none; stroke: #000000; stroke-width: 0.8; stroke-linejoin: miter; stroke-linecap: square"/>
   </g>
   <g id="patch_4">
    <path d="M 349.013662 235.356588 
L 349.013662 20.52 
" style="fill: none; stroke: #000000; stroke-width: 0.8; stroke-linejoin: miter; stroke-linecap: square"/>
   </g>
   <g id="patch_5">
    <path d="M 62.03 235.356588 
L 349.013662 235.356588 
" style="fill: none; stroke: #000000; stroke-width: 0.8; stroke-linejoin: miter; stroke-linecap: square"/>
   </g>
   <g id="patch_6">
    <path d="M 62.03 20.52 
L 349.013662 20.52 
" style="fill: none; stroke: #000000; stroke-width: 0.8; stroke-linejoin: miter; stroke-linecap: square"/>
   </g>
   <g id="legend_1">
    <g id="patch_7">
     <path d="M 190.111162 229.356588 
L 340.613662 229.356588 
Q 343.013662 229.356588 343.013662 226.956588 
L 343.013662 140.087838 
Q 343.013662 137.687838 340.613662 137.687838 
L 190.111162 137.687838 
Q 187.711162 137.687838 187.711162 140.087838 
L 187.711162 226.956588 
Q 187.711162 229.356588 190.111162 229.356588 
z
" style="fill: #ffffff; opacity: 0.8; stroke: #cccccc; stroke-linejoin: miter"/>
    </g>
    <g id="line2d_18">
     <path d="M 192.511162 147.405963 
L 204.511162 147.405963 
L 216.511162 147.405963 
" style="fill: none; stroke: #800080; stroke-width: 1.5; stroke-linecap: square"/>
    </g>
    <g id="text_15">
     <!-- RC aggregated -->
     <g transform="translate(226.111162 151.605963) scale(0.12 -0.12)">
      <defs>
       <path id="DejaVuSans-52" d="M 2841 2188 
Q 3044 2119 3236 1894 
Q 3428 1669 3622 1275 
L 4263 0 
L 3584 0 
L 2988 1197 
Q 2756 1666 2539 1819 
Q 2322 1972 1947 1972 
L 1259 1972 
L 1259 0 
L 628 0 
L 628 4666 
L 2053 4666 
Q 2853 4666 3247 4331 
Q 3641 3997 3641 3322 
Q 3641 2881 3436 2590 
Q 3231 2300 2841 2188 
z
M 1259 4147 
L 1259 2491 
L 2053 2491 
Q 2509 2491 2742 2702 
Q 2975 2913 2975 3322 
Q 2975 3731 2742 3939 
Q 2509 4147 2053 4147 
L 1259 4147 
z
" transform="scale(0.015625)"/>
       <path id="DejaVuSans-43" d="M 4122 4306 
L 4122 3641 
Q 3803 3938 3442 4084 
Q 3081 4231 2675 4231 
Q 1875 4231 1450 3742 
Q 1025 3253 1025 2328 
Q 1025 1406 1450 917 
Q 1875 428 2675 428 
Q 3081 428 3442 575 
Q 3803 722 4122 1019 
L 4122 359 
Q 3791 134 3420 21 
Q 3050 -91 2638 -91 
Q 1578 -91 968 557 
Q 359 1206 359 2328 
Q 359 3453 968 4101 
Q 1578 4750 2638 4750 
Q 3056 4750 3426 4639 
Q 3797 4528 4122 4306 
z
" transform="scale(0.015625)"/>
       <path id="DejaVuSans-67" d="M 2906 1791 
Q 2906 2416 2648 2759 
Q 2391 3103 1925 3103 
Q 1463 3103 1205 2759 
Q 947 2416 947 1791 
Q 947 1169 1205 825 
Q 1463 481 1925 481 
Q 2391 481 2648 825 
Q 2906 1169 2906 1791 
z
M 3481 434 
Q 3481 -459 3084 -895 
Q 2688 -1331 1869 -1331 
Q 1566 -1331 1297 -1286 
Q 1028 -1241 775 -1147 
L 775 -588 
Q 1028 -725 1275 -790 
Q 1522 -856 1778 -856 
Q 2344 -856 2625 -561 
Q 2906 -266 2906 331 
L 2906 616 
Q 2728 306 2450 153 
Q 2172 0 1784 0 
Q 1141 0 747 490 
Q 353 981 353 1791 
Q 353 2603 747 3093 
Q 1141 3584 1784 3584 
Q 2172 3584 2450 3431 
Q 2728 3278 2906 2969 
L 2906 3500 
L 3481 3500 
L 3481 434 
z
" transform="scale(0.015625)"/>
       <path id="DejaVuSans-64" d="M 2906 2969 
L 2906 4863 
L 3481 4863 
L 3481 0 
L 2906 0 
L 2906 525 
Q 2725 213 2448 61 
Q 2172 -91 1784 -91 
Q 1150 -91 751 415 
Q 353 922 353 1747 
Q 353 2572 751 3078 
Q 1150 3584 1784 3584 
Q 2172 3584 2448 3432 
Q 2725 3281 2906 2969 
z
M 947 1747 
Q 947 1113 1208 752 
Q 1469 391 1925 391 
Q 2381 391 2643 752 
Q 2906 1113 2906 1747 
Q 2906 2381 2643 2742 
Q 2381 3103 1925 3103 
Q 1469 3103 1208 2742 
Q 947 2381 947 1747 
z
" transform="scale(0.015625)"/>
      </defs>
      <use xlink:href="#DejaVuSans-52"/>
      <use xlink:href="#DejaVuSans-43" x="64.482422"/>
      <use xlink:href="#DejaVuSans-20" x="134.306641"/>
      <use xlink:href="#DejaVuSans-61" x="166.09375"/>
      <use xlink:href="#DejaVuSans-67" x="227.373047"/>
      <use xlink:href="#DejaVuSans-67" x="290.849609"/>
      <use xlink:href="#DejaVuSans-72" x="354.326172"/>
      <use xlink:href="#DejaVuSans-65" x="393.189453"/>
      <use xlink:href="#DejaVuSans-67" x="454.712891"/>
      <use xlink:href="#DejaVuSans-61" x="518.189453"/>
      <use xlink:href="#DejaVuSans-74" x="579.46875"/>
      <use xlink:href="#DejaVuSans-65" x="618.677734"/>
      <use xlink:href="#DejaVuSans-64" x="680.201172"/>
     </g>
    </g>
    <g id="line2d_19">
     <path d="M 192.511162 165.019713 
L 204.511162 165.019713 
L 216.511162 165.019713 
" style="fill: none; stroke: #228b22; stroke-width: 1.5; stroke-linecap: square"/>
    </g>
    <g id="text_16">
     <!-- RC connected -->
     <g transform="translate(226.111162 169.219713) scale(0.12 -0.12)">
      <defs>
       <path id="DejaVuSans-63" d="M 3122 3366 
L 3122 2828 
Q 2878 2963 2633 3030 
Q 2388 3097 2138 3097 
Q 1578 3097 1268 2742 
Q 959 2388 959 1747 
Q 959 1106 1268 751 
Q 1578 397 2138 397 
Q 2388 397 2633 464 
Q 2878 531 3122 666 
L 3122 134 
Q 2881 22 2623 -34 
Q 2366 -91 2075 -91 
Q 1284 -91 818 406 
Q 353 903 353 1747 
Q 353 2603 823 3093 
Q 1294 3584 2113 3584 
Q 2378 3584 2631 3529 
Q 2884 3475 3122 3366 
z
" transform="scale(0.015625)"/>
       <path id="DejaVuSans-6e" d="M 3513 2113 
L 3513 0 
L 2938 0 
L 2938 2094 
Q 2938 2591 2744 2837 
Q 2550 3084 2163 3084 
Q 1697 3084 1428 2787 
Q 1159 2491 1159 1978 
L 1159 0 
L 581 0 
L 581 3500 
L 1159 3500 
L 1159 2956 
Q 1366 3272 1645 3428 
Q 1925 3584 2291 3584 
Q 2894 3584 3203 3211 
Q 3513 2838 3513 2113 
z
" transform="scale(0.015625)"/>
      </defs>
      <use xlink:href="#DejaVuSans-52"/>
      <use xlink:href="#DejaVuSans-43" x="64.482422"/>
      <use xlink:href="#DejaVuSans-20" x="134.306641"/>
      <use xlink:href="#DejaVuSans-63" x="166.09375"/>
      <use xlink:href="#DejaVuSans-6f" x="221.074219"/>
      <use xlink:href="#DejaVuSans-6e" x="282.255859"/>
      <use xlink:href="#DejaVuSans-6e" x="345.634766"/>
      <use xlink:href="#DejaVuSans-65" x="409.013672"/>
      <use xlink:href="#DejaVuSans-63" x="470.537109"/>
      <use xlink:href="#DejaVuSans-74" x="525.517578"/>
      <use xlink:href="#DejaVuSans-65" x="564.726562"/>
      <use xlink:href="#DejaVuSans-64" x="626.25"/>
     </g>
    </g>
    <g id="line2d_20">
     <path d="M 192.511162 182.633463 
L 204.511162 182.633463 
L 216.511162 182.633463 
" style="fill: none; stroke: #0000cd; stroke-width: 1.5; stroke-linecap: square"/>
    </g>
    <g id="text_17">
     <!-- Bag of molecules -->
     <g transform="translate(226.111162 186.833463) scale(0.12 -0.12)">
      <defs>
       <path id="DejaVuSans-42" d="M 1259 2228 
L 1259 519 
L 2272 519 
Q 2781 519 3026 730 
Q 3272 941 3272 1375 
Q 3272 1813 3026 2020 
Q 2781 2228 2272 2228 
L 1259 2228 
z
M 1259 4147 
L 1259 2741 
L 2194 2741 
Q 2656 2741 2882 2914 
Q 3109 3088 3109 3444 
Q 3109 3797 2882 3972 
Q 2656 4147 2194 4147 
L 1259 4147 
z
M 628 4666 
L 2241 4666 
Q 2963 4666 3353 4366 
Q 3744 4066 3744 3513 
Q 3744 3084 3544 2831 
Q 3344 2578 2956 2516 
Q 3422 2416 3680 2098 
Q 3938 1781 3938 1306 
Q 3938 681 3513 340 
Q 3088 0 2303 0 
L 628 0 
L 628 4666 
z
" transform="scale(0.015625)"/>
       <path id="DejaVuSans-66" d="M 2375 4863 
L 2375 4384 
L 1825 4384 
Q 1516 4384 1395 4259 
Q 1275 4134 1275 3809 
L 1275 3500 
L 2222 3500 
L 2222 3053 
L 1275 3053 
L 1275 0 
L 697 0 
L 697 3053 
L 147 3053 
L 147 3500 
L 697 3500 
L 697 3744 
Q 697 4328 969 4595 
Q 1241 4863 1831 4863 
L 2375 4863 
z
" transform="scale(0.015625)"/>
       <path id="DejaVuSans-6d" d="M 3328 2828 
Q 3544 3216 3844 3400 
Q 4144 3584 4550 3584 
Q 5097 3584 5394 3201 
Q 5691 2819 5691 2113 
L 5691 0 
L 5113 0 
L 5113 2094 
Q 5113 2597 4934 2840 
Q 4756 3084 4391 3084 
Q 3944 3084 3684 2787 
Q 3425 2491 3425 1978 
L 3425 0 
L 2847 0 
L 2847 2094 
Q 2847 2600 2669 2842 
Q 2491 3084 2119 3084 
Q 1678 3084 1418 2786 
Q 1159 2488 1159 1978 
L 1159 0 
L 581 0 
L 581 3500 
L 1159 3500 
L 1159 2956 
Q 1356 3278 1631 3431 
Q 1906 3584 2284 3584 
Q 2666 3584 2933 3390 
Q 3200 3197 3328 2828 
z
" transform="scale(0.015625)"/>
      </defs>
      <use xlink:href="#DejaVuSans-42"/>
      <use xlink:href="#DejaVuSans-61" x="68.603516"/>
      <use xlink:href="#DejaVuSans-67" x="129.882812"/>
      <use xlink:href="#DejaVuSans-20" x="193.359375"/>
      <use xlink:href="#DejaVuSans-6f" x="225.146484"/>
      <use xlink:href="#DejaVuSans-66" x="286.328125"/>
      <use xlink:href="#DejaVuSans-20" x="321.533203"/>
      <use xlink:href="#DejaVuSans-6d" x="353.320312"/>
      <use xlink:href="#DejaVuSans-6f" x="450.732422"/>
      <use xlink:href="#DejaVuSans-6c" x="511.914062"/>
      <use xlink:href="#DejaVuSans-65" x="539.697266"/>
      <use xlink:href="#DejaVuSans-63" x="601.220703"/>
      <use xlink:href="#DejaVuSans-75" x="656.201172"/>
      <use xlink:href="#DejaVuSans-6c" x="719.580078"/>
      <use xlink:href="#DejaVuSans-65" x="747.363281"/>
      <use xlink:href="#DejaVuSans-73" x="808.886719"/>
     </g>
    </g>
    <g id="line2d_21">
     <path d="M 192.511162 200.247213 
L 204.511162 200.247213 
L 216.511162 200.247213 
" style="fill: none; stroke: #8b4513; stroke-width: 1.5; stroke-linecap: square"/>
    </g>
    <g id="text_18">
     <!-- CGR -->
     <g transform="translate(226.111162 204.447213) scale(0.12 -0.12)">
      <defs>
       <path id="DejaVuSans-47" d="M 3809 666 
L 3809 1919 
L 2778 1919 
L 2778 2438 
L 4434 2438 
L 4434 434 
Q 4069 175 3628 42 
Q 3188 -91 2688 -91 
Q 1594 -91 976 548 
Q 359 1188 359 2328 
Q 359 3472 976 4111 
Q 1594 4750 2688 4750 
Q 3144 4750 3555 4637 
Q 3966 4525 4313 4306 
L 4313 3634 
Q 3963 3931 3569 4081 
Q 3175 4231 2741 4231 
Q 1884 4231 1454 3753 
Q 1025 3275 1025 2328 
Q 1025 1384 1454 906 
Q 1884 428 2741 428 
Q 3075 428 3337 486 
Q 3600 544 3809 666 
z
" transform="scale(0.015625)"/>
      </defs>
      <use xlink:href="#DejaVuSans-43"/>
      <use xlink:href="#DejaVuSans-47" x="69.824219"/>
      <use xlink:href="#DejaVuSans-52" x="147.314453"/>
     </g>
    </g>
    <g id="line2d_22">
     <path d="M 192.511162 217.860963 
L 204.511162 217.860963 
L 216.511162 217.860963 
" style="fill: none; stroke: #000000; stroke-width: 1.5; stroke-linecap: square"/>
    </g>
    <g id="text_19">
     <!-- Morgan fingerprint -->
     <g transform="translate(226.111162 222.060963) scale(0.12 -0.12)">
      <defs>
       <path id="DejaVuSans-4d" d="M 628 4666 
L 1569 4666 
L 2759 1491 
L 3956 4666 
L 4897 4666 
L 4897 0 
L 4281 0 
L 4281 4097 
L 3078 897 
L 2444 897 
L 1241 4097 
L 1241 0 
L 628 0 
L 628 4666 
z
" transform="scale(0.015625)"/>
      </defs>
      <use xlink:href="#DejaVuSans-4d"/>
      <use xlink:href="#DejaVuSans-6f" x="86.279297"/>
      <use xlink:href="#DejaVuSans-72" x="147.460938"/>
      <use xlink:href="#DejaVuSans-67" x="186.824219"/>
      <use xlink:href="#DejaVuSans-61" x="250.300781"/>
      <use xlink:href="#DejaVuSans-6e" x="311.580078"/>
      <use xlink:href="#DejaVuSans-20" x="374.958984"/>
      <use xlink:href="#DejaVuSans-66" x="406.746094"/>
      <use xlink:href="#DejaVuSans-69" x="441.951172"/>
      <use xlink:href="#DejaVuSans-6e" x="469.734375"/>
      <use xlink:href="#DejaVuSans-67" x="533.113281"/>
      <use xlink:href="#DejaVuSans-65" x="596.589844"/>
      <use xlink:href="#DejaVuSans-72" x="658.113281"/>
      <use xlink:href="#DejaVuSans-70" x="699.226562"/>
      <use xlink:href="#DejaVuSans-72" x="762.703125"/>
      <use xlink:href="#DejaVuSans-69" x="803.816406"/>
      <use xlink:href="#DejaVuSans-6e" x="831.599609"/>
      <use xlink:href="#DejaVuSans-74" x="894.978516"/>
     </g>
    </g>
   </g>
  </g>
  <g id="axes_2">
   <g id="patch_8">
    <path d="M 417.896338 235.356588 
L 704.88 235.356588 
L 704.88 20.52 
L 417.896338 20.52 
z
" style="fill: #ffffff"/>
   </g>
   <g id="patch_9">
    <path d="M 430.94105 450.193176 
L 472.134877 450.193176 
L 472.134877 26.860233 
L 430.94105 26.860233 
z
" clip-path="url(#p1abb8ebf8f)" style="fill: #800080"/>
   </g>
   <g id="patch_10">
    <path d="M 485.866153 450.193176 
L 527.05998 450.193176 
L 527.05998 26.287864 
L 485.866153 26.287864 
z
" clip-path="url(#p1abb8ebf8f)" style="fill: #228b22"/>
   </g>
   <g id="patch_11">
    <path d="M 540.791256 450.193176 
L 581.985083 450.193176 
L 581.985083 27.991368 
L 540.791256 27.991368 
z
" clip-path="url(#p1abb8ebf8f)" style="fill: #0000cd"/>
   </g>
   <g id="patch_12">
    <path d="M 595.716358 450.193176 
L 636.910185 450.193176 
L 636.910185 26.178377 
L 595.716358 26.178377 
z
" clip-path="url(#p1abb8ebf8f)" style="fill: #8b4513"/>
   </g>
   <g id="patch_13">
    <path d="M 650.641461 450.193176 
L 691.835288 450.193176 
L 691.835288 31.841245 
L 650.641461 31.841245 
z
" clip-path="url(#p1abb8ebf8f)"/>
   </g>
   <g id="matplotlib.axis_3">
    <g id="xtick_7">
     <g id="line2d_23">
      <g>
       <use xlink:href="#mad1b0020bc" x="451.537964" y="235.356588" style="stroke: #000000; stroke-width: 0.8"/>
      </g>
     </g>
     <g id="text_20">
      <!-- RC aggregated -->
      <g transform="translate(375.854778 323.503057) rotate(-45) scale(0.14 -0.14)">
       <use xlink:href="#DejaVuSans-52"/>
       <use xlink:href="#DejaVuSans-43" x="64.482422"/>
       <use xlink:href="#DejaVuSans-20" x="134.306641"/>
       <use xlink:href="#DejaVuSans-61" x="166.09375"/>
       <use xlink:href="#DejaVuSans-67" x="227.373047"/>
       <use xlink:href="#DejaVuSans-67" x="290.849609"/>
       <use xlink:href="#DejaVuSans-72" x="354.326172"/>
       <use xlink:href="#DejaVuSans-65" x="393.189453"/>
       <use xlink:href="#DejaVuSans-67" x="454.712891"/>
       <use xlink:href="#DejaVuSans-61" x="518.189453"/>
       <use xlink:href="#DejaVuSans-74" x="579.46875"/>
       <use xlink:href="#DejaVuSans-65" x="618.677734"/>
       <use xlink:href="#DejaVuSans-64" x="680.201172"/>
      </g>
     </g>
    </g>
    <g id="xtick_8">
     <g id="line2d_24">
      <g>
       <use xlink:href="#mad1b0020bc" x="506.463066" y="235.356588" style="stroke: #000000; stroke-width: 0.8"/>
      </g>
     </g>
     <g id="text_21">
      <!-- RC connected -->
      <g transform="translate(436.122514 318.160423) rotate(-45) scale(0.14 -0.14)">
       <use xlink:href="#DejaVuSans-52"/>
       <use xlink:href="#DejaVuSans-43" x="64.482422"/>
       <use xlink:href="#DejaVuSans-20" x="134.306641"/>
       <use xlink:href="#DejaVuSans-63" x="166.09375"/>
       <use xlink:href="#DejaVuSans-6f" x="221.074219"/>
       <use xlink:href="#DejaVuSans-6e" x="282.255859"/>
       <use xlink:href="#DejaVuSans-6e" x="345.634766"/>
       <use xlink:href="#DejaVuSans-65" x="409.013672"/>
       <use xlink:href="#DejaVuSans-63" x="470.537109"/>
       <use xlink:href="#DejaVuSans-74" x="525.517578"/>
       <use xlink:href="#DejaVuSans-65" x="564.726562"/>
       <use xlink:href="#DejaVuSans-64" x="626.25"/>
      </g>
     </g>
    </g>
    <g id="xtick_9">
     <g id="line2d_25">
      <g>
       <use xlink:href="#mad1b0020bc" x="561.388169" y="235.356588" style="stroke: #000000; stroke-width: 0.8"/>
      </g>
     </g>
     <g id="text_22">
      <!-- Bag of molecules -->
      <g transform="translate(474.094732 335.113309) rotate(-45) scale(0.14 -0.14)">
       <use xlink:href="#DejaVuSans-42"/>
       <use xlink:href="#DejaVuSans-61" x="68.603516"/>
       <use xlink:href="#DejaVuSans-67" x="129.882812"/>
       <use xlink:href="#DejaVuSans-20" x="193.359375"/>
       <use xlink:href="#DejaVuSans-6f" x="225.146484"/>
       <use xlink:href="#DejaVuSans-66" x="286.328125"/>
       <use xlink:href="#DejaVuSans-20" x="321.533203"/>
       <use xlink:href="#DejaVuSans-6d" x="353.320312"/>
       <use xlink:href="#DejaVuSans-6f" x="450.732422"/>
       <use xlink:href="#DejaVuSans-6c" x="511.914062"/>
       <use xlink:href="#DejaVuSans-65" x="539.697266"/>
       <use xlink:href="#DejaVuSans-63" x="601.220703"/>
       <use xlink:href="#DejaVuSans-75" x="656.201172"/>
       <use xlink:href="#DejaVuSans-6c" x="719.580078"/>
       <use xlink:href="#DejaVuSans-65" x="747.363281"/>
       <use xlink:href="#DejaVuSans-73" x="808.886719"/>
      </g>
     </g>
    </g>
    <g id="xtick_10">
     <g id="line2d_26">
      <g>
       <use xlink:href="#mad1b0020bc" x="616.313272" y="235.356588" style="stroke: #000000; stroke-width: 0.8"/>
      </g>
     </g>
     <g id="text_23">
      <!-- CGR -->
      <g transform="translate(592.792691 271.340453) rotate(-45) scale(0.14 -0.14)">
       <use xlink:href="#DejaVuSans-43"/>
       <use xlink:href="#DejaVuSans-47" x="69.824219"/>
       <use xlink:href="#DejaVuSans-52" x="147.314453"/>
      </g>
     </g>
    </g>
    <g id="xtick_11">
     <g id="line2d_27">
      <g>
       <use xlink:href="#mad1b0020bc" x="671.238375" y="235.356588" style="stroke: #000000; stroke-width: 0.8"/>
      </g>
     </g>
     <g id="text_24">
      <!-- Morgan fingerprint -->
      <g transform="translate(576.699745 342.358501) rotate(-45) scale(0.14 -0.14)">
       <use xlink:href="#DejaVuSans-4d"/>
       <use xlink:href="#DejaVuSans-6f" x="86.279297"/>
       <use xlink:href="#DejaVuSans-72" x="147.460938"/>
       <use xlink:href="#DejaVuSans-67" x="186.824219"/>
       <use xlink:href="#DejaVuSans-61" x="250.300781"/>
       <use xlink:href="#DejaVuSans-6e" x="311.580078"/>
       <use xlink:href="#DejaVuSans-20" x="374.958984"/>
       <use xlink:href="#DejaVuSans-66" x="406.746094"/>
       <use xlink:href="#DejaVuSans-69" x="441.951172"/>
       <use xlink:href="#DejaVuSans-6e" x="469.734375"/>
       <use xlink:href="#DejaVuSans-67" x="533.113281"/>
       <use xlink:href="#DejaVuSans-65" x="596.589844"/>
       <use xlink:href="#DejaVuSans-72" x="658.113281"/>
       <use xlink:href="#DejaVuSans-70" x="699.226562"/>
       <use xlink:href="#DejaVuSans-72" x="762.703125"/>
       <use xlink:href="#DejaVuSans-69" x="803.816406"/>
       <use xlink:href="#DejaVuSans-6e" x="831.599609"/>
       <use xlink:href="#DejaVuSans-74" x="894.978516"/>
      </g>
     </g>
    </g>
   </g>
   <g id="matplotlib.axis_4">
    <g id="ytick_7">
     <g id="line2d_28">
      <g>
       <use xlink:href="#mc49cb9b1b4" x="417.896338" y="235.356588" style="stroke: #000000; stroke-width: 0.8"/>
      </g>
     </g>
     <g id="text_25">
      <!-- 0.5 -->
      <g transform="translate(388.631963 240.675494) scale(0.14 -0.14)">
       <defs>
        <path id="DejaVuSans-35" d="M 691 4666 
L 3169 4666 
L 3169 4134 
L 1269 4134 
L 1269 2991 
Q 1406 3038 1543 3061 
Q 1681 3084 1819 3084 
Q 2600 3084 3056 2656 
Q 3513 2228 3513 1497 
Q 3513 744 3044 326 
Q 2575 -91 1722 -91 
Q 1428 -91 1123 -41 
Q 819 9 494 109 
L 494 744 
Q 775 591 1075 516 
Q 1375 441 1709 441 
Q 2250 441 2565 725 
Q 2881 1009 2881 1497 
Q 2881 1984 2565 2268 
Q 2250 2553 1709 2553 
Q 1456 2553 1204 2497 
Q 953 2441 691 2322 
L 691 4666 
z
" transform="scale(0.015625)"/>
       </defs>
       <use xlink:href="#DejaVuSans-30"/>
       <use xlink:href="#DejaVuSans-2e" x="63.623047"/>
       <use xlink:href="#DejaVuSans-35" x="95.410156"/>
      </g>
     </g>
    </g>
    <g id="ytick_8">
     <g id="line2d_29">
      <g>
       <use xlink:href="#mc49cb9b1b4" x="417.896338" y="192.38927" style="stroke: #000000; stroke-width: 0.8"/>
      </g>
     </g>
     <g id="text_26">
      <!-- 0.6 -->
      <g transform="translate(388.631963 197.708176) scale(0.14 -0.14)">
       <use xlink:href="#DejaVuSans-30"/>
       <use xlink:href="#DejaVuSans-2e" x="63.623047"/>
       <use xlink:href="#DejaVuSans-36" x="95.410156"/>
      </g>
     </g>
    </g>
    <g id="ytick_9">
     <g id="line2d_30">
      <g>
       <use xlink:href="#mc49cb9b1b4" x="417.896338" y="149.421953" style="stroke: #000000; stroke-width: 0.8"/>
      </g>
     </g>
     <g id="text_27">
      <!-- 0.7 -->
      <g transform="translate(388.631963 154.740859) scale(0.14 -0.14)">
       <defs>
        <path id="DejaVuSans-37" d="M 525 4666 
L 3525 4666 
L 3525 4397 
L 1831 0 
L 1172 0 
L 2766 4134 
L 525 4134 
L 525 4666 
z
" transform="scale(0.015625)"/>
       </defs>
       <use xlink:href="#DejaVuSans-30"/>
       <use xlink:href="#DejaVuSans-2e" x="63.623047"/>
       <use xlink:href="#DejaVuSans-37" x="95.410156"/>
      </g>
     </g>
    </g>
    <g id="ytick_10">
     <g id="line2d_31">
      <g>
       <use xlink:href="#mc49cb9b1b4" x="417.896338" y="106.454635" style="stroke: #000000; stroke-width: 0.8"/>
      </g>
     </g>
     <g id="text_28">
      <!-- 0.8 -->
      <g transform="translate(388.631963 111.773541) scale(0.14 -0.14)">
       <use xlink:href="#DejaVuSans-30"/>
       <use xlink:href="#DejaVuSans-2e" x="63.623047"/>
       <use xlink:href="#DejaVuSans-38" x="95.410156"/>
      </g>
     </g>
    </g>
    <g id="ytick_11">
     <g id="line2d_32">
      <g>
       <use xlink:href="#mc49cb9b1b4" x="417.896338" y="63.487318" style="stroke: #000000; stroke-width: 0.8"/>
      </g>
     </g>
     <g id="text_29">
      <!-- 0.9 -->
      <g transform="translate(388.631963 68.806224) scale(0.14 -0.14)">
       <defs>
        <path id="DejaVuSans-39" d="M 703 97 
L 703 672 
Q 941 559 1184 500 
Q 1428 441 1663 441 
Q 2288 441 2617 861 
Q 2947 1281 2994 2138 
Q 2813 1869 2534 1725 
Q 2256 1581 1919 1581 
Q 1219 1581 811 2004 
Q 403 2428 403 3163 
Q 403 3881 828 4315 
Q 1253 4750 1959 4750 
Q 2769 4750 3195 4129 
Q 3622 3509 3622 2328 
Q 3622 1225 3098 567 
Q 2575 -91 1691 -91 
Q 1453 -91 1209 -44 
Q 966 3 703 97 
z
M 1959 2075 
Q 2384 2075 2632 2365 
Q 2881 2656 2881 3163 
Q 2881 3666 2632 3958 
Q 2384 4250 1959 4250 
Q 1534 4250 1286 3958 
Q 1038 3666 1038 3163 
Q 1038 2656 1286 2365 
Q 1534 2075 1959 2075 
z
" transform="scale(0.015625)"/>
       </defs>
       <use xlink:href="#DejaVuSans-30"/>
       <use xlink:href="#DejaVuSans-2e" x="63.623047"/>
       <use xlink:href="#DejaVuSans-39" x="95.410156"/>
      </g>
     </g>
    </g>
    <g id="ytick_12">
     <g id="line2d_33">
      <g>
       <use xlink:href="#mc49cb9b1b4" x="417.896338" y="20.52" style="stroke: #000000; stroke-width: 0.8"/>
      </g>
     </g>
     <g id="text_30">
      <!-- 1.0 -->
      <g transform="translate(388.631963 25.838906) scale(0.14 -0.14)">
       <use xlink:href="#DejaVuSans-31"/>
       <use xlink:href="#DejaVuSans-2e" x="63.623047"/>
       <use xlink:href="#DejaVuSans-30" x="95.410156"/>
      </g>
     </g>
    </g>
    <g id="text_31">
     <!-- ROC-AUC -->
     <g transform="translate(381.720401 160.367981) rotate(-90) scale(0.14 -0.14)">
      <defs>
       <path id="DejaVuSans-4f" d="M 2522 4238 
Q 1834 4238 1429 3725 
Q 1025 3213 1025 2328 
Q 1025 1447 1429 934 
Q 1834 422 2522 422 
Q 3209 422 3611 934 
Q 4013 1447 4013 2328 
Q 4013 3213 3611 3725 
Q 3209 4238 2522 4238 
z
M 2522 4750 
Q 3503 4750 4090 4092 
Q 4678 3434 4678 2328 
Q 4678 1225 4090 567 
Q 3503 -91 2522 -91 
Q 1538 -91 948 565 
Q 359 1222 359 2328 
Q 359 3434 948 4092 
Q 1538 4750 2522 4750 
z
" transform="scale(0.015625)"/>
       <path id="DejaVuSans-2d" d="M 313 2009 
L 1997 2009 
L 1997 1497 
L 313 1497 
L 313 2009 
z
" transform="scale(0.015625)"/>
       <path id="DejaVuSans-41" d="M 2188 4044 
L 1331 1722 
L 3047 1722 
L 2188 4044 
z
M 1831 4666 
L 2547 4666 
L 4325 0 
L 3669 0 
L 3244 1197 
L 1141 1197 
L 716 0 
L 50 0 
L 1831 4666 
z
" transform="scale(0.015625)"/>
       <path id="DejaVuSans-55" d="M 556 4666 
L 1191 4666 
L 1191 1831 
Q 1191 1081 1462 751 
Q 1734 422 2344 422 
Q 2950 422 3222 751 
Q 3494 1081 3494 1831 
L 3494 4666 
L 4128 4666 
L 4128 1753 
Q 4128 841 3676 375 
Q 3225 -91 2344 -91 
Q 1459 -91 1007 375 
Q 556 841 556 1753 
L 556 4666 
z
" transform="scale(0.015625)"/>
      </defs>
      <use xlink:href="#DejaVuSans-52"/>
      <use xlink:href="#DejaVuSans-4f" x="69.482422"/>
      <use xlink:href="#DejaVuSans-43" x="148.193359"/>
      <use xlink:href="#DejaVuSans-2d" x="218.017578"/>
      <use xlink:href="#DejaVuSans-41" x="251.851562"/>
      <use xlink:href="#DejaVuSans-55" x="320.259766"/>
      <use xlink:href="#DejaVuSans-43" x="393.453125"/>
     </g>
    </g>
   </g>
   <g id="LineCollection_1">
    <path d="M 451.537964 27.737202 
L 451.537964 26.482113 
" clip-path="url(#p1abb8ebf8f)" style="fill: none; stroke: #000000; stroke-width: 1.5"/>
   </g>
   <g id="LineCollection_2">
    <path d="M 506.463066 26.635607 
L 506.463066 25.87111 
" clip-path="url(#p1abb8ebf8f)" style="fill: none; stroke: #000000; stroke-width: 1.5"/>
   </g>
   <g id="LineCollection_3">
    <path d="M 561.388169 28.621765 
L 561.388169 27.470253 
" clip-path="url(#p1abb8ebf8f)" style="fill: none; stroke: #000000; stroke-width: 1.5"/>
   </g>
   <g id="LineCollection_4">
    <path d="M 616.313272 26.584703 
L 616.313272 25.506386 
" clip-path="url(#p1abb8ebf8f)" style="fill: none; stroke: #000000; stroke-width: 1.5"/>
   </g>
   <g id="LineCollection_5">
    <path d="M 671.238375 32.508051 
L 671.238375 31.150691 
" clip-path="url(#p1abb8ebf8f)" style="fill: none; stroke: #000000; stroke-width: 1.5"/>
   </g>
   <g id="patch_14">
    <path d="M 417.896338 235.356588 
L 417.896338 20.52 
" style="fill: none; stroke: #000000; stroke-width: 0.8; stroke-linejoin: miter; stroke-linecap: square"/>
   </g>
   <g id="patch_15">
    <path d="M 704.88 235.356588 
L 704.88 20.52 
" style="fill: none; stroke: #000000; stroke-width: 0.8; stroke-linejoin: miter; stroke-linecap: square"/>
   </g>
   <g id="patch_16">
    <path d="M 417.896338 235.356588 
L 704.88 235.356588 
" style="fill: none; stroke: #000000; stroke-width: 0.8; stroke-linejoin: miter; stroke-linecap: square"/>
   </g>
   <g id="patch_17">
    <path d="M 417.896338 20.52 
L 704.88 20.52 
" style="fill: none; stroke: #000000; stroke-width: 0.8; stroke-linejoin: miter; stroke-linecap: square"/>
   </g>
  </g>
 </g>
 <defs>
  <clipPath id="pf07b2abb98">
   <rect x="62.03" y="20.52" width="286.983662" height="214.836588"/>
  </clipPath>
  <clipPath id="p1abb8ebf8f">
   <rect x="417.896338" y="20.52" width="286.983662" height="214.836588"/>
  </clipPath>
 </defs>
</svg>
