<?xml version="1.0" encoding="utf-8" standalone="no"?>
<!DOCTYPE svg PUBLIC "-//W3C//DTD SVG 1.1//EN"
  "http://www.w3.org/Graphics/SVG/1.1/DTD/svg11.dtd">
<svg xmlns:xlink="http://www.w3.org/1999/xlink" width="460.8pt" height="345.6pt" viewBox="0 0 460.8 345.6" xmlns="http://www.w3.org/2000/svg" version="1.1">
 <metadata>
  <rdf:RDF xmlns:dc="http://purl.org/dc/elements/1.1/" xmlns:cc="http://creativecommons.org/ns#" xmlns:rdf="http://www.w3.org/1999/02/22-rdf-syntax-ns#">
   <cc:Work>
    <dc:type rdf:resource="http://purl.org/dc/dcmitype/StillImage"/>
    <dc:date>2025-01-28T06:58:35.425217</dc:date>
    <dc:format>image/svg+xml</dc:format>
    <dc:creator>
     <cc:Agent>
      <dc:title>Matplotlib v3.8.4, https://matplotlib.org/</dc:title>
     </cc:Agent>
    </dc:creator>
   </cc:Work>
  </rdf:RDF>
 </metadata>
 <defs>
  <style type="text/css">*{stroke-linejoin: round; stroke-linecap: butt}</style>
 </defs>
 <g id="figure_1">
  <g id="patch_1">
   <path d="M 0 345.6 
L 460.8 345.6 
L 460.8 0 
L 0 0 
z
" style="fill: #ffffff"/>
  </g>
  <g id="axes_1">
   <g id="patch_2">
    <path d="M 57.6 307.584 
L 414.72 307.584 
L 414.72 41.472 
L 57.6 41.472 
z
" style="fill: #ffffff"/>
   </g>
   <g id="patch_3">
    <path d="M 73.832727 45611.941016 
L 77.079966 45611.941016 
L 77.079966 53.568 
L 73.832727 53.568 
z
" clip-path="url(#pb87bb6a179)" style="fill: #1f77b4"/>
   </g>
   <g id="patch_4">
    <path d="M 77.079966 45611.941016 
L 80.327205 45611.941016 
L 80.327205 183.202199 
L 77.079966 183.202199 
z
" clip-path="url(#pb87bb6a179)" style="fill: #1f77b4"/>
   </g>
   <g id="patch_5">
    <path d="M 80.327205 45611.941016 
L 83.571967 45611.941016 
L 83.571967 198.26355 
L 80.327205 198.26355 
z
" clip-path="url(#pb87bb6a179)" style="fill: #1f77b4"/>
   </g>
   <g id="patch_6">
    <path d="M 83.571967 45611.941016 
L 86.821683 45611.941016 
L 86.821683 209.254109 
L 83.571967 209.254109 
z
" clip-path="url(#pb87bb6a179)" style="fill: #1f77b4"/>
   </g>
   <g id="patch_7">
    <path d="M 86.821683 45611.941016 
L 90.061491 45611.941016 
L 90.061491 214.342068 
L 86.821683 214.342068 
z
" clip-path="url(#pb87bb6a179)" style="fill: #1f77b4"/>
   </g>
   <g id="patch_8">
    <path d="M 90.061491 45611.941016 
L 93.311207 45611.941016 
L 93.311207 211.457882 
L 90.061491 211.457882 
z
" clip-path="url(#pb87bb6a179)" style="fill: #1f77b4"/>
   </g>
   <g id="patch_9">
    <path d="M 93.311207 45611.941016 
L 96.560923 45611.941016 
L 96.560923 209.714389 
L 93.311207 209.714389 
z
" clip-path="url(#pb87bb6a179)" style="fill: #1f77b4"/>
   </g>
   <g id="patch_10">
    <path d="M 96.560923 45611.941016 
L 99.810639 45611.941016 
L 99.810639 207.013276 
L 96.560923 207.013276 
z
" clip-path="url(#pb87bb6a179)" style="fill: #1f77b4"/>
   </g>
   <g id="patch_11">
    <path d="M 99.810639 45611.941016 
L 103.060355 45611.941016 
L 103.060355 204.365967 
L 99.810639 204.365967 
z
" clip-path="url(#pb87bb6a179)" style="fill: #1f77b4"/>
   </g>
   <g id="patch_12">
    <path d="M 103.060355 45611.941016 
L 106.290256 45611.941016 
L 106.290256 203.776092 
L 103.060355 203.776092 
z
" clip-path="url(#pb87bb6a179)" style="fill: #1f77b4"/>
   </g>
   <g id="patch_13">
    <path d="M 106.290256 45611.941016 
L 109.539972 45611.941016 
L 109.539972 202.532598 
L 106.290256 202.532598 
z
" clip-path="url(#pb87bb6a179)" style="fill: #1f77b4"/>
   </g>
   <g id="patch_14">
    <path d="M 109.539972 45611.941016 
L 112.789688 45611.941016 
L 112.789688 203.800404 
L 109.539972 203.800404 
z
" clip-path="url(#pb87bb6a179)" style="fill: #1f77b4"/>
   </g>
   <g id="patch_15">
    <path d="M 112.789688 45611.941016 
L 116.039403 45611.941016 
L 116.039403 204.393111 
L 112.789688 204.393111 
z
" clip-path="url(#pb87bb6a179)" style="fill: #1f77b4"/>
   </g>
   <g id="patch_16">
    <path d="M 116.039403 45611.941016 
L 119.289119 45611.941016 
L 119.289119 207.969712 
L 116.039403 207.969712 
z
" clip-path="url(#pb87bb6a179)" style="fill: #1f77b4"/>
   </g>
   <g id="patch_17">
    <path d="M 119.289119 45611.941016 
L 122.538835 45611.941016 
L 122.538835 208.877739 
L 119.289119 208.877739 
z
" clip-path="url(#pb87bb6a179)" style="fill: #1f77b4"/>
   </g>
   <g id="patch_18">
    <path d="M 122.538835 45611.941016 
L 125.788551 45611.941016 
L 125.788551 210.445579 
L 122.538835 210.445579 
z
" clip-path="url(#pb87bb6a179)" style="fill: #1f77b4"/>
   </g>
   <g id="patch_19">
    <path d="M 125.788551 45611.941016 
L 129.038267 45611.941016 
L 129.038267 210.12128 
L 125.788551 210.12128 
z
" clip-path="url(#pb87bb6a179)" style="fill: #1f77b4"/>
   </g>
   <g id="patch_20">
    <path d="M 129.038267 45611.941016 
L 132.287983 45611.941016 
L 132.287983 213.216847 
L 129.038267 213.216847 
z
" clip-path="url(#pb87bb6a179)" style="fill: #1f77b4"/>
   </g>
   <g id="patch_21">
    <path d="M 132.287983 45611.941016 
L 135.498068 45611.941016 
L 135.498068 214.869171 
L 132.287983 214.869171 
z
" clip-path="url(#pb87bb6a179)" style="fill: #1f77b4"/>
   </g>
   <g id="patch_22">
    <path d="M 135.498068 45611.941016 
L 138.747784 45611.941016 
L 138.747784 219.885585 
L 135.498068 219.885585 
z
" clip-path="url(#pb87bb6a179)" style="fill: #1f77b4"/>
   </g>
   <g id="patch_23">
    <path d="M 138.747784 45611.941016 
L 141.9975 45611.941016 
L 141.9975 214.74137 
L 138.747784 214.74137 
z
" clip-path="url(#pb87bb6a179)" style="fill: #1f77b4"/>
   </g>
   <g id="patch_24">
    <path d="M 141.9975 45611.941016 
L 145.247216 45611.941016 
L 145.247216 218.881751 
L 141.9975 218.881751 
z
" clip-path="url(#pb87bb6a179)" style="fill: #1f77b4"/>
   </g>
   <g id="patch_25">
    <path d="M 145.247216 45611.941016 
L 148.496932 45611.941016 
L 148.496932 221.51459 
L 145.247216 221.51459 
z
" clip-path="url(#pb87bb6a179)" style="fill: #1f77b4"/>
   </g>
   <g id="patch_26">
    <path d="M 148.496932 45611.941016 
L 151.746648 45611.941016 
L 151.746648 222.666714 
L 148.496932 222.666714 
z
" clip-path="url(#pb87bb6a179)" style="fill: #1f77b4"/>
   </g>
   <g id="patch_27">
    <path d="M 151.746648 45611.941016 
L 154.996364 45611.941016 
L 154.996364 226.203465 
L 151.746648 226.203465 
z
" clip-path="url(#pb87bb6a179)" style="fill: #1f77b4"/>
   </g>
   <g id="patch_28">
    <path d="M 154.996364 45611.941016 
L 158.24608 45611.941016 
L 158.24608 219.377256 
L 154.996364 219.377256 
z
" clip-path="url(#pb87bb6a179)" style="fill: #1f77b4"/>
   </g>
   <g id="patch_29">
    <path d="M 158.24608 45611.941016 
L 161.495795 45611.941016 
L 161.495795 224.370032 
L 158.24608 224.370032 
z
" clip-path="url(#pb87bb6a179)" style="fill: #1f77b4"/>
   </g>
   <g id="patch_30">
    <path d="M 161.495795 45611.941016 
L 164.745511 45611.941016 
L 164.745511 228.652223 
L 161.495795 228.652223 
z
" clip-path="url(#pb87bb6a179)" style="fill: #1f77b4"/>
   </g>
   <g id="patch_31">
    <path d="M 164.745511 45611.941016 
L 167.995227 45611.941016 
L 167.995227 224.631738 
L 164.745511 224.631738 
z
" clip-path="url(#pb87bb6a179)" style="fill: #1f77b4"/>
   </g>
   <g id="patch_32">
    <path d="M 167.995227 45611.941016 
L 171.244943 45611.941016 
L 171.244943 230.292208 
L 167.995227 230.292208 
z
" clip-path="url(#pb87bb6a179)" style="fill: #1f77b4"/>
   </g>
   <g id="patch_33">
    <path d="M 171.244943 45611.941016 
L 174.494659 45611.941016 
L 174.494659 225.322891 
L 171.244943 225.322891 
z
" clip-path="url(#pb87bb6a179)" style="fill: #1f77b4"/>
   </g>
   <g id="patch_34">
    <path d="M 174.494659 45611.941016 
L 177.744375 45611.941016 
L 177.744375 224.980233 
L 174.494659 224.980233 
z
" clip-path="url(#pb87bb6a179)" style="fill: #1f77b4"/>
   </g>
   <g id="patch_35">
    <path d="M 177.744375 45611.941016 
L 180.994091 45611.941016 
L 180.994091 225.335023 
L 177.744375 225.335023 
z
" clip-path="url(#pb87bb6a179)" style="fill: #1f77b4"/>
   </g>
   <g id="patch_36">
    <path d="M 180.994091 45611.941016 
L 184.243807 45611.941016 
L 184.243807 225.069828 
L 180.994091 225.069828 
z
" clip-path="url(#pb87bb6a179)" style="fill: #1f77b4"/>
   </g>
   <g id="patch_37">
    <path d="M 184.243807 45611.941016 
L 187.493523 45611.941016 
L 187.493523 225.511789 
L 184.243807 225.511789 
z
" clip-path="url(#pb87bb6a179)" style="fill: #1f77b4"/>
   </g>
   <g id="patch_38">
    <path d="M 187.493523 45611.941016 
L 190.743239 45611.941016 
L 190.743239 218.458206 
L 187.493523 218.458206 
z
" clip-path="url(#pb87bb6a179)" style="fill: #1f77b4"/>
   </g>
   <g id="patch_39">
    <path d="M 190.743239 45611.941016 
L 193.992955 45611.941016 
L 193.992955 219.598033 
L 190.743239 219.598033 
z
" clip-path="url(#pb87bb6a179)" style="fill: #1f77b4"/>
   </g>
   <g id="patch_40">
    <path d="M 193.992955 45611.941016 
L 197.163409 45611.941016 
L 197.163409 223.280079 
L 193.992955 223.280079 
z
" clip-path="url(#pb87bb6a179)" style="fill: #1f77b4"/>
   </g>
   <g id="patch_41">
    <path d="M 197.163409 45611.941016 
L 200.413125 45611.941016 
L 200.413125 221.266391 
L 197.163409 221.266391 
z
" clip-path="url(#pb87bb6a179)" style="fill: #1f77b4"/>
   </g>
   <g id="patch_42">
    <path d="M 200.413125 45611.941016 
L 203.662841 45611.941016 
L 203.662841 222.70383 
L 200.413125 222.70383 
z
" clip-path="url(#pb87bb6a179)" style="fill: #1f77b4"/>
   </g>
   <g id="patch_43">
    <path d="M 203.662841 45611.941016 
L 206.912557 45611.941016 
L 206.912557 213.540373 
L 203.662841 213.540373 
z
" clip-path="url(#pb87bb6a179)" style="fill: #1f77b4"/>
   </g>
   <g id="patch_44">
    <path d="M 206.912557 45611.941016 
L 210.162273 45611.941016 
L 210.162273 217.340477 
L 206.912557 217.340477 
z
" clip-path="url(#pb87bb6a179)" style="fill: #1f77b4"/>
   </g>
   <g id="patch_45">
    <path d="M 210.162273 45611.941016 
L 213.411989 45611.941016 
L 213.411989 221.360338 
L 210.162273 221.360338 
z
" clip-path="url(#pb87bb6a179)" style="fill: #1f77b4"/>
   </g>
   <g id="patch_46">
    <path d="M 213.411989 45611.941016 
L 216.661705 45611.941016 
L 216.661705 221.609734 
L 213.411989 221.609734 
z
" clip-path="url(#pb87bb6a179)" style="fill: #1f77b4"/>
   </g>
   <g id="patch_47">
    <path d="M 216.661705 45611.941016 
L 219.91142 45611.941016 
L 219.91142 221.700298 
L 216.661705 221.700298 
z
" clip-path="url(#pb87bb6a179)" style="fill: #1f77b4"/>
   </g>
   <g id="patch_48">
    <path d="M 219.91142 45611.941016 
L 223.161136 45611.941016 
L 223.161136 217.86441 
L 219.91142 217.86441 
z
" clip-path="url(#pb87bb6a179)" style="fill: #1f77b4"/>
   </g>
   <g id="patch_49">
    <path d="M 223.161136 45611.941016 
L 226.410852 45611.941016 
L 226.410852 219.498602 
L 223.161136 219.498602 
z
" clip-path="url(#pb87bb6a179)" style="fill: #1f77b4"/>
   </g>
   <g id="patch_50">
    <path d="M 226.410852 45611.941016 
L 229.660568 45611.941016 
L 229.660568 220.611509 
L 226.410852 220.611509 
z
" clip-path="url(#pb87bb6a179)" style="fill: #1f77b4"/>
   </g>
   <g id="patch_51">
    <path d="M 229.660568 45611.941016 
L 232.910284 45611.941016 
L 232.910284 222.113082 
L 229.660568 222.113082 
z
" clip-path="url(#pb87bb6a179)" style="fill: #1f77b4"/>
   </g>
   <g id="patch_52">
    <path d="M 232.910284 45611.941016 
L 236.16 45611.941016 
L 236.16 229.051395 
L 232.910284 229.051395 
z
" clip-path="url(#pb87bb6a179)" style="fill: #1f77b4"/>
   </g>
   <g id="patch_53">
    <path d="M 236.16 45611.941016 
L 239.330455 45611.941016 
L 239.330455 212.569508 
L 236.16 212.569508 
z
" clip-path="url(#pb87bb6a179)" style="fill: #1f77b4"/>
   </g>
   <g id="patch_54">
    <path d="M 239.330455 45611.941016 
L 242.659432 45611.941016 
L 242.659432 213.008405 
L 239.330455 213.008405 
z
" clip-path="url(#pb87bb6a179)" style="fill: #1f77b4"/>
   </g>
   <g id="patch_55">
    <path d="M 242.659432 45611.941016 
L 245.829886 45611.941016 
L 245.829886 215.334076 
L 242.659432 215.334076 
z
" clip-path="url(#pb87bb6a179)" style="fill: #1f77b4"/>
   </g>
   <g id="patch_56">
    <path d="M 245.829886 45611.941016 
L 249.158864 45611.941016 
L 249.158864 210.391629 
L 245.829886 210.391629 
z
" clip-path="url(#pb87bb6a179)" style="fill: #1f77b4"/>
   </g>
   <g id="patch_57">
    <path d="M 249.158864 45611.941016 
L 252.329318 45611.941016 
L 252.329318 212.843872 
L 249.158864 212.843872 
z
" clip-path="url(#pb87bb6a179)" style="fill: #1f77b4"/>
   </g>
   <g id="patch_58">
    <path d="M 252.329318 45611.941016 
L 255.658295 45611.941016 
L 255.658295 210.177297 
L 252.329318 210.177297 
z
" clip-path="url(#pb87bb6a179)" style="fill: #1f77b4"/>
   </g>
   <g id="patch_59">
    <path d="M 255.658295 45611.941016 
L 258.82875 45611.941016 
L 258.82875 209.873926 
L 255.658295 209.873926 
z
" clip-path="url(#pb87bb6a179)" style="fill: #1f77b4"/>
   </g>
   <g id="patch_60">
    <path d="M 258.82875 45611.941016 
L 262.157727 45611.941016 
L 262.157727 204.518875 
L 258.82875 204.518875 
z
" clip-path="url(#pb87bb6a179)" style="fill: #1f77b4"/>
   </g>
   <g id="patch_61">
    <path d="M 262.157727 45611.941016 
L 265.328182 45611.941016 
L 265.328182 209.267494 
L 262.157727 209.267494 
z
" clip-path="url(#pb87bb6a179)" style="fill: #1f77b4"/>
   </g>
   <g id="patch_62">
    <path d="M 265.328182 45611.941016 
L 268.657159 45611.941016 
L 268.657159 211.081305 
L 265.328182 211.081305 
z
" clip-path="url(#pb87bb6a179)" style="fill: #1f77b4"/>
   </g>
   <g id="patch_63">
    <path d="M 268.657159 45611.941016 
L 271.827614 45611.941016 
L 271.827614 206.806651 
L 268.657159 206.806651 
z
" clip-path="url(#pb87bb6a179)" style="fill: #1f77b4"/>
   </g>
   <g id="patch_64">
    <path d="M 271.827614 45611.941016 
L 275.156591 45611.941016 
L 275.156591 206.092142 
L 271.827614 206.092142 
z
" clip-path="url(#pb87bb6a179)" style="fill: #1f77b4"/>
   </g>
   <g id="patch_65">
    <path d="M 275.156591 45611.941016 
L 278.327045 45611.941016 
L 278.327045 204.794158 
L 275.156591 204.794158 
z
" clip-path="url(#pb87bb6a179)" style="fill: #1f77b4"/>
   </g>
   <g id="patch_66">
    <path d="M 278.327045 45611.941016 
L 281.656023 45611.941016 
L 281.656023 203.729577 
L 278.327045 203.729577 
z
" clip-path="url(#pb87bb6a179)" style="fill: #1f77b4"/>
   </g>
   <g id="patch_67">
    <path d="M 281.656023 45611.941016 
L 284.826477 45611.941016 
L 284.826477 209.656943 
L 281.656023 209.656943 
z
" clip-path="url(#pb87bb6a179)" style="fill: #1f77b4"/>
   </g>
   <g id="patch_68">
    <path d="M 284.826477 45611.941016 
L 288.155455 45611.941016 
L 288.155455 207.253491 
L 284.826477 207.253491 
z
" clip-path="url(#pb87bb6a179)" style="fill: #1f77b4"/>
   </g>
   <g id="patch_69">
    <path d="M 288.155455 45611.941016 
L 291.325909 45611.941016 
L 291.325909 210.970017 
L 288.155455 210.970017 
z
" clip-path="url(#pb87bb6a179)" style="fill: #1f77b4"/>
   </g>
   <g id="patch_70">
    <path d="M 291.325909 45611.941016 
L 294.654886 45611.941016 
L 294.654886 208.173808 
L 291.325909 208.173808 
z
" clip-path="url(#pb87bb6a179)" style="fill: #1f77b4"/>
   </g>
   <g id="patch_71">
    <path d="M 294.654886 45611.941016 
L 297.825341 45611.941016 
L 297.825341 208.316162 
L 294.654886 208.316162 
z
" clip-path="url(#pb87bb6a179)" style="fill: #1f77b4"/>
   </g>
   <g id="patch_72">
    <path d="M 297.825341 45611.941016 
L 301.154318 45611.941016 
L 301.154318 208.567791 
L 297.825341 208.567791 
z
" clip-path="url(#pb87bb6a179)" style="fill: #1f77b4"/>
   </g>
   <g id="patch_73">
    <path d="M 301.154318 45611.941016 
L 304.324773 45611.941016 
L 304.324773 209.890504 
L 301.154318 209.890504 
z
" clip-path="url(#pb87bb6a179)" style="fill: #1f77b4"/>
   </g>
   <g id="patch_74">
    <path d="M 304.324773 45611.941016 
L 307.65375 45611.941016 
L 307.65375 212.440044 
L 304.324773 212.440044 
z
" clip-path="url(#pb87bb6a179)" style="fill: #1f77b4"/>
   </g>
   <g id="patch_75">
    <path d="M 307.65375 45611.941016 
L 310.824205 45611.941016 
L 310.824205 211.098934 
L 307.65375 211.098934 
z
" clip-path="url(#pb87bb6a179)" style="fill: #1f77b4"/>
   </g>
   <g id="patch_76">
    <path d="M 310.824205 45611.941016 
L 314.153182 45611.941016 
L 314.153182 212.831025 
L 310.824205 212.831025 
z
" clip-path="url(#pb87bb6a179)" style="fill: #1f77b4"/>
   </g>
   <g id="patch_77">
    <path d="M 314.153182 45611.941016 
L 317.323636 45611.941016 
L 317.323636 217.835393 
L 314.153182 217.835393 
z
" clip-path="url(#pb87bb6a179)" style="fill: #1f77b4"/>
   </g>
   <g id="patch_78">
    <path d="M 317.323636 45611.941016 
L 320.494091 45611.941016 
L 320.494091 214.698954 
L 317.323636 214.698954 
z
" clip-path="url(#pb87bb6a179)" style="fill: #1f77b4"/>
   </g>
   <g id="patch_79">
    <path d="M 320.494091 45611.941016 
L 323.823068 45611.941016 
L 323.823068 218.056164 
L 320.494091 218.056164 
z
" clip-path="url(#pb87bb6a179)" style="fill: #1f77b4"/>
   </g>
   <g id="patch_80">
    <path d="M 323.823068 45611.941016 
L 326.993523 45611.941016 
L 326.993523 219.679762 
L 323.823068 219.679762 
z
" clip-path="url(#pb87bb6a179)" style="fill: #1f77b4"/>
   </g>
   <g id="patch_81">
    <path d="M 326.993523 45611.941016 
L 330.3225 45611.941016 
L 330.3225 214.210751 
L 326.993523 214.210751 
z
" clip-path="url(#pb87bb6a179)" style="fill: #1f77b4"/>
   </g>
   <g id="patch_82">
    <path d="M 330.3225 45611.941016 
L 333.492955 45611.941016 
L 333.492955 221.614754 
L 330.3225 221.614754 
z
" clip-path="url(#pb87bb6a179)" style="fill: #1f77b4"/>
   </g>
   <g id="patch_83">
    <path d="M 333.492955 45611.941016 
L 336.821932 45611.941016 
L 336.821932 215.624315 
L 333.492955 215.624315 
z
" clip-path="url(#pb87bb6a179)" style="fill: #1f77b4"/>
   </g>
   <g id="patch_84">
    <path d="M 336.821932 45611.941016 
L 339.992386 45611.941016 
L 339.992386 218.424031 
L 336.821932 218.424031 
z
" clip-path="url(#pb87bb6a179)" style="fill: #1f77b4"/>
   </g>
   <g id="patch_85">
    <path d="M 339.992386 45611.941016 
L 343.321364 45611.941016 
L 343.321364 219.066103 
L 339.992386 219.066103 
z
" clip-path="url(#pb87bb6a179)" style="fill: #1f77b4"/>
   </g>
   <g id="patch_86">
    <path d="M 343.321364 45611.941016 
L 346.491818 45611.941016 
L 346.491818 221.29601 
L 343.321364 221.29601 
z
" clip-path="url(#pb87bb6a179)" style="fill: #1f77b4"/>
   </g>
   <g id="patch_87">
    <path d="M 346.491818 45611.941016 
L 349.820795 45611.941016 
L 349.820795 225.341092 
L 346.491818 225.341092 
z
" clip-path="url(#pb87bb6a179)" style="fill: #1f77b4"/>
   </g>
   <g id="patch_88">
    <path d="M 349.820795 45611.941016 
L 352.99125 45611.941016 
L 352.99125 219.922403 
L 349.820795 219.922403 
z
" clip-path="url(#pb87bb6a179)" style="fill: #1f77b4"/>
   </g>
   <g id="patch_89">
    <path d="M 352.99125 45611.941016 
L 356.320227 45611.941016 
L 356.320227 226.209809 
L 352.99125 226.209809 
z
" clip-path="url(#pb87bb6a179)" style="fill: #1f77b4"/>
   </g>
   <g id="patch_90">
    <path d="M 356.320227 45611.941016 
L 359.490682 45611.941016 
L 359.490682 224.422095 
L 356.320227 224.422095 
z
" clip-path="url(#pb87bb6a179)" style="fill: #1f77b4"/>
   </g>
   <g id="patch_91">
    <path d="M 359.490682 45611.941016 
L 362.819659 45611.941016 
L 362.819659 226.228851 
L 359.490682 226.228851 
z
" clip-path="url(#pb87bb6a179)" style="fill: #1f77b4"/>
   </g>
   <g id="patch_92">
    <path d="M 362.819659 45611.941016 
L 365.990114 45611.941016 
L 365.990114 231.641803 
L 362.819659 231.641803 
z
" clip-path="url(#pb87bb6a179)" style="fill: #1f77b4"/>
   </g>
   <g id="patch_93">
    <path d="M 365.990114 45611.941016 
L 369.319091 45611.941016 
L 369.319091 230.710563 
L 365.990114 230.710563 
z
" clip-path="url(#pb87bb6a179)" style="fill: #1f77b4"/>
   </g>
   <g id="patch_94">
    <path d="M 369.319091 45611.941016 
L 372.489545 45611.941016 
L 372.489545 236.355956 
L 369.319091 236.355956 
z
" clip-path="url(#pb87bb6a179)" style="fill: #1f77b4"/>
   </g>
   <g id="patch_95">
    <path d="M 372.489545 45611.941016 
L 375.818523 45611.941016 
L 375.818523 232.920639 
L 372.489545 232.920639 
z
" clip-path="url(#pb87bb6a179)" style="fill: #1f77b4"/>
   </g>
   <g id="patch_96">
    <path d="M 375.818523 45611.941016 
L 378.988977 45611.941016 
L 378.988977 242.095489 
L 375.818523 242.095489 
z
" clip-path="url(#pb87bb6a179)" style="fill: #1f77b4"/>
   </g>
   <g id="patch_97">
    <path d="M 378.988977 45611.941016 
L 382.317955 45611.941016 
L 382.317955 238.583257 
L 378.988977 238.583257 
z
" clip-path="url(#pb87bb6a179)" style="fill: #1f77b4"/>
   </g>
   <g id="patch_98">
    <path d="M 382.317955 45611.941016 
L 385.488409 45611.941016 
L 385.488409 247.356022 
L 382.317955 247.356022 
z
" clip-path="url(#pb87bb6a179)" style="fill: #1f77b4"/>
   </g>
   <g id="patch_99">
    <path d="M 385.488409 45611.941016 
L 388.817386 45611.941016 
L 388.817386 241.204407 
L 385.488409 241.204407 
z
" clip-path="url(#pb87bb6a179)" style="fill: #1f77b4"/>
   </g>
   <g id="patch_100">
    <path d="M 388.817386 45611.941016 
L 391.987841 45611.941016 
L 391.987841 250.674604 
L 388.817386 250.674604 
z
" clip-path="url(#pb87bb6a179)" style="fill: #1f77b4"/>
   </g>
   <g id="patch_101">
    <path d="M 391.987841 45611.941016 
L 395.316818 45611.941016 
L 395.316818 247.318821 
L 391.987841 247.318821 
z
" clip-path="url(#pb87bb6a179)" style="fill: #1f77b4"/>
   </g>
   <g id="patch_102">
    <path d="M 395.316818 45611.941016 
L 398.487273 45611.941016 
L 398.487273 295.488 
L 395.316818 295.488 
z
" clip-path="url(#pb87bb6a179)" style="fill: #1f77b4"/>
   </g>
   <g id="matplotlib.axis_1">
    <g id="xtick_1">
     <g id="line2d_1">
      <defs>
       <path id="mc3bd0af76c" d="M 0 0 
L 0 3.5 
" style="stroke: #000000; stroke-width: 0.8"/>
      </defs>
      <g>
       <use xlink:href="#mc3bd0af76c" x="73.832727" y="307.584" style="stroke: #000000; stroke-width: 0.8"/>
      </g>
     </g>
     <g id="text_1">
      <!-- 0.0 -->
      <g transform="translate(65.881165 322.182437) scale(0.1 -0.1)">
       <defs>
        <path id="DejaVuSans-30" d="M 2034 4250 
Q 1547 4250 1301 3770 
Q 1056 3291 1056 2328 
Q 1056 1369 1301 889 
Q 1547 409 2034 409 
Q 2525 409 2770 889 
Q 3016 1369 3016 2328 
Q 3016 3291 2770 3770 
Q 2525 4250 2034 4250 
z
M 2034 4750 
Q 2819 4750 3233 4129 
Q 3647 3509 3647 2328 
Q 3647 1150 3233 529 
Q 2819 -91 2034 -91 
Q 1250 -91 836 529 
Q 422 1150 422 2328 
Q 422 3509 836 4129 
Q 1250 4750 2034 4750 
z
" transform="scale(0.015625)"/>
        <path id="DejaVuSans-2e" d="M 684 794 
L 1344 794 
L 1344 0 
L 684 0 
L 684 794 
z
" transform="scale(0.015625)"/>
       </defs>
       <use xlink:href="#DejaVuSans-30"/>
       <use xlink:href="#DejaVuSans-2e" x="63.623047"/>
       <use xlink:href="#DejaVuSans-30" x="95.410156"/>
      </g>
     </g>
    </g>
    <g id="xtick_2">
     <g id="line2d_2">
      <g>
       <use xlink:href="#mc3bd0af76c" x="138.763636" y="307.584" style="stroke: #000000; stroke-width: 0.8"/>
      </g>
     </g>
     <g id="text_2">
      <!-- 0.2 -->
      <g transform="translate(130.812074 322.182437) scale(0.1 -0.1)">
       <defs>
        <path id="DejaVuSans-32" d="M 1228 531 
L 3431 531 
L 3431 0 
L 469 0 
L 469 531 
Q 828 903 1448 1529 
Q 2069 2156 2228 2338 
Q 2531 2678 2651 2914 
Q 2772 3150 2772 3378 
Q 2772 3750 2511 3984 
Q 2250 4219 1831 4219 
Q 1534 4219 1204 4116 
Q 875 4013 500 3803 
L 500 4441 
Q 881 4594 1212 4672 
Q 1544 4750 1819 4750 
Q 2544 4750 2975 4387 
Q 3406 4025 3406 3419 
Q 3406 3131 3298 2873 
Q 3191 2616 2906 2266 
Q 2828 2175 2409 1742 
Q 1991 1309 1228 531 
z
" transform="scale(0.015625)"/>
       </defs>
       <use xlink:href="#DejaVuSans-30"/>
       <use xlink:href="#DejaVuSans-2e" x="63.623047"/>
       <use xlink:href="#DejaVuSans-32" x="95.410156"/>
      </g>
     </g>
    </g>
    <g id="xtick_3">
     <g id="line2d_3">
      <g>
       <use xlink:href="#mc3bd0af76c" x="203.694545" y="307.584" style="stroke: #000000; stroke-width: 0.8"/>
      </g>
     </g>
     <g id="text_3">
      <!-- 0.4 -->
      <g transform="translate(195.742983 322.182437) scale(0.1 -0.1)">
       <defs>
        <path id="DejaVuSans-34" d="M 2419 4116 
L 825 1625 
L 2419 1625 
L 2419 4116 
z
M 2253 4666 
L 3047 4666 
L 3047 1625 
L 3713 1625 
L 3713 1100 
L 3047 1100 
L 3047 0 
L 2419 0 
L 2419 1100 
L 313 1100 
L 313 1709 
L 2253 4666 
z
" transform="scale(0.015625)"/>
       </defs>
       <use xlink:href="#DejaVuSans-30"/>
       <use xlink:href="#DejaVuSans-2e" x="63.623047"/>
       <use xlink:href="#DejaVuSans-34" x="95.410156"/>
      </g>
     </g>
    </g>
    <g id="xtick_4">
     <g id="line2d_4">
      <g>
       <use xlink:href="#mc3bd0af76c" x="268.625455" y="307.584" style="stroke: #000000; stroke-width: 0.8"/>
      </g>
     </g>
     <g id="text_4">
      <!-- 0.6 -->
      <g transform="translate(260.673892 322.182437) scale(0.1 -0.1)">
       <defs>
        <path id="DejaVuSans-36" d="M 2113 2584 
Q 1688 2584 1439 2293 
Q 1191 2003 1191 1497 
Q 1191 994 1439 701 
Q 1688 409 2113 409 
Q 2538 409 2786 701 
Q 3034 994 3034 1497 
Q 3034 2003 2786 2293 
Q 2538 2584 2113 2584 
z
M 3366 4563 
L 3366 3988 
Q 3128 4100 2886 4159 
Q 2644 4219 2406 4219 
Q 1781 4219 1451 3797 
Q 1122 3375 1075 2522 
Q 1259 2794 1537 2939 
Q 1816 3084 2150 3084 
Q 2853 3084 3261 2657 
Q 3669 2231 3669 1497 
Q 3669 778 3244 343 
Q 2819 -91 2113 -91 
Q 1303 -91 875 529 
Q 447 1150 447 2328 
Q 447 3434 972 4092 
Q 1497 4750 2381 4750 
Q 2619 4750 2861 4703 
Q 3103 4656 3366 4563 
z
" transform="scale(0.015625)"/>
       </defs>
       <use xlink:href="#DejaVuSans-30"/>
       <use xlink:href="#DejaVuSans-2e" x="63.623047"/>
       <use xlink:href="#DejaVuSans-36" x="95.410156"/>
      </g>
     </g>
    </g>
    <g id="xtick_5">
     <g id="line2d_5">
      <g>
       <use xlink:href="#mc3bd0af76c" x="333.556364" y="307.584" style="stroke: #000000; stroke-width: 0.8"/>
      </g>
     </g>
     <g id="text_5">
      <!-- 0.8 -->
      <g transform="translate(325.604801 322.182437) scale(0.1 -0.1)">
       <defs>
        <path id="DejaVuSans-38" d="M 2034 2216 
Q 1584 2216 1326 1975 
Q 1069 1734 1069 1313 
Q 1069 891 1326 650 
Q 1584 409 2034 409 
Q 2484 409 2743 651 
Q 3003 894 3003 1313 
Q 3003 1734 2745 1975 
Q 2488 2216 2034 2216 
z
M 1403 2484 
Q 997 2584 770 2862 
Q 544 3141 544 3541 
Q 544 4100 942 4425 
Q 1341 4750 2034 4750 
Q 2731 4750 3128 4425 
Q 3525 4100 3525 3541 
Q 3525 3141 3298 2862 
Q 3072 2584 2669 2484 
Q 3125 2378 3379 2068 
Q 3634 1759 3634 1313 
Q 3634 634 3220 271 
Q 2806 -91 2034 -91 
Q 1263 -91 848 271 
Q 434 634 434 1313 
Q 434 1759 690 2068 
Q 947 2378 1403 2484 
z
M 1172 3481 
Q 1172 3119 1398 2916 
Q 1625 2713 2034 2713 
Q 2441 2713 2670 2916 
Q 2900 3119 2900 3481 
Q 2900 3844 2670 4047 
Q 2441 4250 2034 4250 
Q 1625 4250 1398 4047 
Q 1172 3844 1172 3481 
z
" transform="scale(0.015625)"/>
       </defs>
       <use xlink:href="#DejaVuSans-30"/>
       <use xlink:href="#DejaVuSans-2e" x="63.623047"/>
       <use xlink:href="#DejaVuSans-38" x="95.410156"/>
      </g>
     </g>
    </g>
    <g id="xtick_6">
     <g id="line2d_6">
      <g>
       <use xlink:href="#mc3bd0af76c" x="398.487273" y="307.584" style="stroke: #000000; stroke-width: 0.8"/>
      </g>
     </g>
     <g id="text_6">
      <!-- 1.0 -->
      <g transform="translate(390.53571 322.182437) scale(0.1 -0.1)">
       <defs>
        <path id="DejaVuSans-31" d="M 794 531 
L 1825 531 
L 1825 4091 
L 703 3866 
L 703 4441 
L 1819 4666 
L 2450 4666 
L 2450 531 
L 3481 531 
L 3481 0 
L 794 0 
L 794 531 
z
" transform="scale(0.015625)"/>
       </defs>
       <use xlink:href="#DejaVuSans-31"/>
       <use xlink:href="#DejaVuSans-2e" x="63.623047"/>
       <use xlink:href="#DejaVuSans-30" x="95.410156"/>
      </g>
     </g>
    </g>
    <g id="text_7">
     <!-- RCMCS Similarity -->
     <g transform="translate(193.235781 335.860562) scale(0.1 -0.1)">
      <defs>
       <path id="DejaVuSans-52" d="M 2841 2188 
Q 3044 2119 3236 1894 
Q 3428 1669 3622 1275 
L 4263 0 
L 3584 0 
L 2988 1197 
Q 2756 1666 2539 1819 
Q 2322 1972 1947 1972 
L 1259 1972 
L 1259 0 
L 628 0 
L 628 4666 
L 2053 4666 
Q 2853 4666 3247 4331 
Q 3641 3997 3641 3322 
Q 3641 2881 3436 2590 
Q 3231 2300 2841 2188 
z
M 1259 4147 
L 1259 2491 
L 2053 2491 
Q 2509 2491 2742 2702 
Q 2975 2913 2975 3322 
Q 2975 3731 2742 3939 
Q 2509 4147 2053 4147 
L 1259 4147 
z
" transform="scale(0.015625)"/>
       <path id="DejaVuSans-43" d="M 4122 4306 
L 4122 3641 
Q 3803 3938 3442 4084 
Q 3081 4231 2675 4231 
Q 1875 4231 1450 3742 
Q 1025 3253 1025 2328 
Q 1025 1406 1450 917 
Q 1875 428 2675 428 
Q 3081 428 3442 575 
Q 3803 722 4122 1019 
L 4122 359 
Q 3791 134 3420 21 
Q 3050 -91 2638 -91 
Q 1578 -91 968 557 
Q 359 1206 359 2328 
Q 359 3453 968 4101 
Q 1578 4750 2638 4750 
Q 3056 4750 3426 4639 
Q 3797 4528 4122 4306 
z
" transform="scale(0.015625)"/>
       <path id="DejaVuSans-4d" d="M 628 4666 
L 1569 4666 
L 2759 1491 
L 3956 4666 
L 4897 4666 
L 4897 0 
L 4281 0 
L 4281 4097 
L 3078 897 
L 2444 897 
L 1241 4097 
L 1241 0 
L 628 0 
L 628 4666 
z
" transform="scale(0.015625)"/>
       <path id="DejaVuSans-53" d="M 3425 4513 
L 3425 3897 
Q 3066 4069 2747 4153 
Q 2428 4238 2131 4238 
Q 1616 4238 1336 4038 
Q 1056 3838 1056 3469 
Q 1056 3159 1242 3001 
Q 1428 2844 1947 2747 
L 2328 2669 
Q 3034 2534 3370 2195 
Q 3706 1856 3706 1288 
Q 3706 609 3251 259 
Q 2797 -91 1919 -91 
Q 1588 -91 1214 -16 
Q 841 59 441 206 
L 441 856 
Q 825 641 1194 531 
Q 1563 422 1919 422 
Q 2459 422 2753 634 
Q 3047 847 3047 1241 
Q 3047 1584 2836 1778 
Q 2625 1972 2144 2069 
L 1759 2144 
Q 1053 2284 737 2584 
Q 422 2884 422 3419 
Q 422 4038 858 4394 
Q 1294 4750 2059 4750 
Q 2388 4750 2728 4690 
Q 3069 4631 3425 4513 
z
" transform="scale(0.015625)"/>
       <path id="DejaVuSans-20" transform="scale(0.015625)"/>
       <path id="DejaVuSans-69" d="M 603 3500 
L 1178 3500 
L 1178 0 
L 603 0 
L 603 3500 
z
M 603 4863 
L 1178 4863 
L 1178 4134 
L 603 4134 
L 603 4863 
z
" transform="scale(0.015625)"/>
       <path id="DejaVuSans-6d" d="M 3328 2828 
Q 3544 3216 3844 3400 
Q 4144 3584 4550 3584 
Q 5097 3584 5394 3201 
Q 5691 2819 5691 2113 
L 5691 0 
L 5113 0 
L 5113 2094 
Q 5113 2597 4934 2840 
Q 4756 3084 4391 3084 
Q 3944 3084 3684 2787 
Q 3425 2491 3425 1978 
L 3425 0 
L 2847 0 
L 2847 2094 
Q 2847 2600 2669 2842 
Q 2491 3084 2119 3084 
Q 1678 3084 1418 2786 
Q 1159 2488 1159 1978 
L 1159 0 
L 581 0 
L 581 3500 
L 1159 3500 
L 1159 2956 
Q 1356 3278 1631 3431 
Q 1906 3584 2284 3584 
Q 2666 3584 2933 3390 
Q 3200 3197 3328 2828 
z
" transform="scale(0.015625)"/>
       <path id="DejaVuSans-6c" d="M 603 4863 
L 1178 4863 
L 1178 0 
L 603 0 
L 603 4863 
z
" transform="scale(0.015625)"/>
       <path id="DejaVuSans-61" d="M 2194 1759 
Q 1497 1759 1228 1600 
Q 959 1441 959 1056 
Q 959 750 1161 570 
Q 1363 391 1709 391 
Q 2188 391 2477 730 
Q 2766 1069 2766 1631 
L 2766 1759 
L 2194 1759 
z
M 3341 1997 
L 3341 0 
L 2766 0 
L 2766 531 
Q 2569 213 2275 61 
Q 1981 -91 1556 -91 
Q 1019 -91 701 211 
Q 384 513 384 1019 
Q 384 1609 779 1909 
Q 1175 2209 1959 2209 
L 2766 2209 
L 2766 2266 
Q 2766 2663 2505 2880 
Q 2244 3097 1772 3097 
Q 1472 3097 1187 3025 
Q 903 2953 641 2809 
L 641 3341 
Q 956 3463 1253 3523 
Q 1550 3584 1831 3584 
Q 2591 3584 2966 3190 
Q 3341 2797 3341 1997 
z
" transform="scale(0.015625)"/>
       <path id="DejaVuSans-72" d="M 2631 2963 
Q 2534 3019 2420 3045 
Q 2306 3072 2169 3072 
Q 1681 3072 1420 2755 
Q 1159 2438 1159 1844 
L 1159 0 
L 581 0 
L 581 3500 
L 1159 3500 
L 1159 2956 
Q 1341 3275 1631 3429 
Q 1922 3584 2338 3584 
Q 2397 3584 2469 3576 
Q 2541 3569 2628 3553 
L 2631 2963 
z
" transform="scale(0.015625)"/>
       <path id="DejaVuSans-74" d="M 1172 4494 
L 1172 3500 
L 2356 3500 
L 2356 3053 
L 1172 3053 
L 1172 1153 
Q 1172 725 1289 603 
Q 1406 481 1766 481 
L 2356 481 
L 2356 0 
L 1766 0 
Q 1100 0 847 248 
Q 594 497 594 1153 
L 594 3053 
L 172 3053 
L 172 3500 
L 594 3500 
L 594 4494 
L 1172 4494 
z
" transform="scale(0.015625)"/>
       <path id="DejaVuSans-79" d="M 2059 -325 
Q 1816 -950 1584 -1140 
Q 1353 -1331 966 -1331 
L 506 -1331 
L 506 -850 
L 844 -850 
Q 1081 -850 1212 -737 
Q 1344 -625 1503 -206 
L 1606 56 
L 191 3500 
L 800 3500 
L 1894 763 
L 2988 3500 
L 3597 3500 
L 2059 -325 
z
" transform="scale(0.015625)"/>
      </defs>
      <use xlink:href="#DejaVuSans-52"/>
      <use xlink:href="#DejaVuSans-43" x="64.482422"/>
      <use xlink:href="#DejaVuSans-4d" x="134.306641"/>
      <use xlink:href="#DejaVuSans-43" x="220.585938"/>
      <use xlink:href="#DejaVuSans-53" x="290.410156"/>
      <use xlink:href="#DejaVuSans-20" x="353.886719"/>
      <use xlink:href="#DejaVuSans-53" x="385.673828"/>
      <use xlink:href="#DejaVuSans-69" x="449.150391"/>
      <use xlink:href="#DejaVuSans-6d" x="476.933594"/>
      <use xlink:href="#DejaVuSans-69" x="574.345703"/>
      <use xlink:href="#DejaVuSans-6c" x="602.128906"/>
      <use xlink:href="#DejaVuSans-61" x="629.912109"/>
      <use xlink:href="#DejaVuSans-72" x="691.191406"/>
      <use xlink:href="#DejaVuSans-69" x="732.304688"/>
      <use xlink:href="#DejaVuSans-74" x="760.087891"/>
      <use xlink:href="#DejaVuSans-79" x="799.296875"/>
     </g>
    </g>
   </g>
   <g id="matplotlib.axis_2">
    <g id="ytick_1">
     <g id="line2d_7">
      <defs>
       <path id="m9da595beb1" d="M 0 0 
L -3.5 0 
" style="stroke: #000000; stroke-width: 0.8"/>
      </defs>
      <g>
       <use xlink:href="#m9da595beb1" x="57.6" y="293.63553" style="stroke: #000000; stroke-width: 0.8"/>
      </g>
     </g>
     <g id="text_8">
      <!-- $\mathdefault{10^{2}}$ -->
      <g transform="translate(33 297.434749) scale(0.1 -0.1)">
       <use xlink:href="#DejaVuSans-31" transform="translate(0 0.765625)"/>
       <use xlink:href="#DejaVuSans-30" transform="translate(63.623047 0.765625)"/>
       <use xlink:href="#DejaVuSans-32" transform="translate(128.203125 39.046875) scale(0.7)"/>
      </g>
     </g>
    </g>
    <g id="ytick_2">
     <g id="line2d_8">
      <g>
       <use xlink:href="#m9da595beb1" x="57.6" y="248.40768" style="stroke: #000000; stroke-width: 0.8"/>
      </g>
     </g>
     <g id="text_9">
      <!-- $\mathdefault{10^{3}}$ -->
      <g transform="translate(33 252.206899) scale(0.1 -0.1)">
       <defs>
        <path id="DejaVuSans-33" d="M 2597 2516 
Q 3050 2419 3304 2112 
Q 3559 1806 3559 1356 
Q 3559 666 3084 287 
Q 2609 -91 1734 -91 
Q 1441 -91 1130 -33 
Q 819 25 488 141 
L 488 750 
Q 750 597 1062 519 
Q 1375 441 1716 441 
Q 2309 441 2620 675 
Q 2931 909 2931 1356 
Q 2931 1769 2642 2001 
Q 2353 2234 1838 2234 
L 1294 2234 
L 1294 2753 
L 1863 2753 
Q 2328 2753 2575 2939 
Q 2822 3125 2822 3475 
Q 2822 3834 2567 4026 
Q 2313 4219 1838 4219 
Q 1578 4219 1281 4162 
Q 984 4106 628 3988 
L 628 4550 
Q 988 4650 1302 4700 
Q 1616 4750 1894 4750 
Q 2613 4750 3031 4423 
Q 3450 4097 3450 3541 
Q 3450 3153 3228 2886 
Q 3006 2619 2597 2516 
z
" transform="scale(0.015625)"/>
       </defs>
       <use xlink:href="#DejaVuSans-31" transform="translate(0 0.765625)"/>
       <use xlink:href="#DejaVuSans-30" transform="translate(63.623047 0.765625)"/>
       <use xlink:href="#DejaVuSans-33" transform="translate(128.203125 39.046875) scale(0.7)"/>
      </g>
     </g>
    </g>
    <g id="ytick_3">
     <g id="line2d_9">
      <g>
       <use xlink:href="#m9da595beb1" x="57.6" y="203.179831" style="stroke: #000000; stroke-width: 0.8"/>
      </g>
     </g>
     <g id="text_10">
      <!-- $\mathdefault{10^{4}}$ -->
      <g transform="translate(33 206.979049) scale(0.1 -0.1)">
       <use xlink:href="#DejaVuSans-31" transform="translate(0 0.684375)"/>
       <use xlink:href="#DejaVuSans-30" transform="translate(63.623047 0.684375)"/>
       <use xlink:href="#DejaVuSans-34" transform="translate(128.203125 38.965625) scale(0.7)"/>
      </g>
     </g>
    </g>
    <g id="ytick_4">
     <g id="line2d_10">
      <g>
       <use xlink:href="#m9da595beb1" x="57.6" y="157.951981" style="stroke: #000000; stroke-width: 0.8"/>
      </g>
     </g>
     <g id="text_11">
      <!-- $\mathdefault{10^{5}}$ -->
      <g transform="translate(33 161.7512) scale(0.1 -0.1)">
       <defs>
        <path id="DejaVuSans-35" d="M 691 4666 
L 3169 4666 
L 3169 4134 
L 1269 4134 
L 1269 2991 
Q 1406 3038 1543 3061 
Q 1681 3084 1819 3084 
Q 2600 3084 3056 2656 
Q 3513 2228 3513 1497 
Q 3513 744 3044 326 
Q 2575 -91 1722 -91 
Q 1428 -91 1123 -41 
Q 819 9 494 109 
L 494 744 
Q 775 591 1075 516 
Q 1375 441 1709 441 
Q 2250 441 2565 725 
Q 2881 1009 2881 1497 
Q 2881 1984 2565 2268 
Q 2250 2553 1709 2553 
Q 1456 2553 1204 2497 
Q 953 2441 691 2322 
L 691 4666 
z
" transform="scale(0.015625)"/>
       </defs>
       <use xlink:href="#DejaVuSans-31" transform="translate(0 0.684375)"/>
       <use xlink:href="#DejaVuSans-30" transform="translate(63.623047 0.684375)"/>
       <use xlink:href="#DejaVuSans-35" transform="translate(128.203125 38.965625) scale(0.7)"/>
      </g>
     </g>
    </g>
    <g id="ytick_5">
     <g id="line2d_11">
      <g>
       <use xlink:href="#m9da595beb1" x="57.6" y="112.724131" style="stroke: #000000; stroke-width: 0.8"/>
      </g>
     </g>
     <g id="text_12">
      <!-- $\mathdefault{10^{6}}$ -->
      <g transform="translate(33 116.52335) scale(0.1 -0.1)">
       <use xlink:href="#DejaVuSans-31" transform="translate(0 0.765625)"/>
       <use xlink:href="#DejaVuSans-30" transform="translate(63.623047 0.765625)"/>
       <use xlink:href="#DejaVuSans-36" transform="translate(128.203125 39.046875) scale(0.7)"/>
      </g>
     </g>
    </g>
    <g id="ytick_6">
     <g id="line2d_12">
      <g>
       <use xlink:href="#m9da595beb1" x="57.6" y="67.496281" style="stroke: #000000; stroke-width: 0.8"/>
      </g>
     </g>
     <g id="text_13">
      <!-- $\mathdefault{10^{7}}$ -->
      <g transform="translate(33 71.2955) scale(0.1 -0.1)">
       <defs>
        <path id="DejaVuSans-37" d="M 525 4666 
L 3525 4666 
L 3525 4397 
L 1831 0 
L 1172 0 
L 2766 4134 
L 525 4134 
L 525 4666 
z
" transform="scale(0.015625)"/>
       </defs>
       <use xlink:href="#DejaVuSans-31" transform="translate(0 0.684375)"/>
       <use xlink:href="#DejaVuSans-30" transform="translate(63.623047 0.684375)"/>
       <use xlink:href="#DejaVuSans-37" transform="translate(128.203125 38.965625) scale(0.7)"/>
      </g>
     </g>
    </g>
    <g id="ytick_7">
     <g id="line2d_13">
      <defs>
       <path id="m14c33780f0" d="M 0 0 
L -2 0 
" style="stroke: #000000; stroke-width: 0.6"/>
      </defs>
      <g>
       <use xlink:href="#m14c33780f0" x="57.6" y="307.25047" style="stroke: #000000; stroke-width: 0.6"/>
      </g>
     </g>
    </g>
    <g id="ytick_8">
     <g id="line2d_14">
      <g>
       <use xlink:href="#m14c33780f0" x="57.6" y="303.669272" style="stroke: #000000; stroke-width: 0.6"/>
      </g>
     </g>
    </g>
    <g id="ytick_9">
     <g id="line2d_15">
      <g>
       <use xlink:href="#m14c33780f0" x="57.6" y="300.641413" style="stroke: #000000; stroke-width: 0.6"/>
      </g>
     </g>
    </g>
    <g id="ytick_10">
     <g id="line2d_16">
      <g>
       <use xlink:href="#m14c33780f0" x="57.6" y="298.018562" style="stroke: #000000; stroke-width: 0.6"/>
      </g>
     </g>
    </g>
    <g id="ytick_11">
     <g id="line2d_17">
      <g>
       <use xlink:href="#m14c33780f0" x="57.6" y="295.705043" style="stroke: #000000; stroke-width: 0.6"/>
      </g>
     </g>
    </g>
    <g id="ytick_12">
     <g id="line2d_18">
      <g>
       <use xlink:href="#m14c33780f0" x="57.6" y="280.020591" style="stroke: #000000; stroke-width: 0.6"/>
      </g>
     </g>
    </g>
    <g id="ytick_13">
     <g id="line2d_19">
      <g>
       <use xlink:href="#m14c33780f0" x="57.6" y="272.056362" style="stroke: #000000; stroke-width: 0.6"/>
      </g>
     </g>
    </g>
    <g id="ytick_14">
     <g id="line2d_20">
      <g>
       <use xlink:href="#m14c33780f0" x="57.6" y="266.405651" style="stroke: #000000; stroke-width: 0.6"/>
      </g>
     </g>
    </g>
    <g id="ytick_15">
     <g id="line2d_21">
      <g>
       <use xlink:href="#m14c33780f0" x="57.6" y="262.02262" style="stroke: #000000; stroke-width: 0.6"/>
      </g>
     </g>
    </g>
    <g id="ytick_16">
     <g id="line2d_22">
      <g>
       <use xlink:href="#m14c33780f0" x="57.6" y="258.441422" style="stroke: #000000; stroke-width: 0.6"/>
      </g>
     </g>
    </g>
    <g id="ytick_17">
     <g id="line2d_23">
      <g>
       <use xlink:href="#m14c33780f0" x="57.6" y="255.413563" style="stroke: #000000; stroke-width: 0.6"/>
      </g>
     </g>
    </g>
    <g id="ytick_18">
     <g id="line2d_24">
      <g>
       <use xlink:href="#m14c33780f0" x="57.6" y="252.790712" style="stroke: #000000; stroke-width: 0.6"/>
      </g>
     </g>
    </g>
    <g id="ytick_19">
     <g id="line2d_25">
      <g>
       <use xlink:href="#m14c33780f0" x="57.6" y="250.477193" style="stroke: #000000; stroke-width: 0.6"/>
      </g>
     </g>
    </g>
    <g id="ytick_20">
     <g id="line2d_26">
      <g>
       <use xlink:href="#m14c33780f0" x="57.6" y="234.792741" style="stroke: #000000; stroke-width: 0.6"/>
      </g>
     </g>
    </g>
    <g id="ytick_21">
     <g id="line2d_27">
      <g>
       <use xlink:href="#m14c33780f0" x="57.6" y="226.828512" style="stroke: #000000; stroke-width: 0.6"/>
      </g>
     </g>
    </g>
    <g id="ytick_22">
     <g id="line2d_28">
      <g>
       <use xlink:href="#m14c33780f0" x="57.6" y="221.177802" style="stroke: #000000; stroke-width: 0.6"/>
      </g>
     </g>
    </g>
    <g id="ytick_23">
     <g id="line2d_29">
      <g>
       <use xlink:href="#m14c33780f0" x="57.6" y="216.79477" style="stroke: #000000; stroke-width: 0.6"/>
      </g>
     </g>
    </g>
    <g id="ytick_24">
     <g id="line2d_30">
      <g>
       <use xlink:href="#m14c33780f0" x="57.6" y="213.213573" style="stroke: #000000; stroke-width: 0.6"/>
      </g>
     </g>
    </g>
    <g id="ytick_25">
     <g id="line2d_31">
      <g>
       <use xlink:href="#m14c33780f0" x="57.6" y="210.185713" style="stroke: #000000; stroke-width: 0.6"/>
      </g>
     </g>
    </g>
    <g id="ytick_26">
     <g id="line2d_32">
      <g>
       <use xlink:href="#m14c33780f0" x="57.6" y="207.562862" style="stroke: #000000; stroke-width: 0.6"/>
      </g>
     </g>
    </g>
    <g id="ytick_27">
     <g id="line2d_33">
      <g>
       <use xlink:href="#m14c33780f0" x="57.6" y="205.249344" style="stroke: #000000; stroke-width: 0.6"/>
      </g>
     </g>
    </g>
    <g id="ytick_28">
     <g id="line2d_34">
      <g>
       <use xlink:href="#m14c33780f0" x="57.6" y="189.564891" style="stroke: #000000; stroke-width: 0.6"/>
      </g>
     </g>
    </g>
    <g id="ytick_29">
     <g id="line2d_35">
      <g>
       <use xlink:href="#m14c33780f0" x="57.6" y="181.600662" style="stroke: #000000; stroke-width: 0.6"/>
      </g>
     </g>
    </g>
    <g id="ytick_30">
     <g id="line2d_36">
      <g>
       <use xlink:href="#m14c33780f0" x="57.6" y="175.949952" style="stroke: #000000; stroke-width: 0.6"/>
      </g>
     </g>
    </g>
    <g id="ytick_31">
     <g id="line2d_37">
      <g>
       <use xlink:href="#m14c33780f0" x="57.6" y="171.56692" style="stroke: #000000; stroke-width: 0.6"/>
      </g>
     </g>
    </g>
    <g id="ytick_32">
     <g id="line2d_38">
      <g>
       <use xlink:href="#m14c33780f0" x="57.6" y="167.985723" style="stroke: #000000; stroke-width: 0.6"/>
      </g>
     </g>
    </g>
    <g id="ytick_33">
     <g id="line2d_39">
      <g>
       <use xlink:href="#m14c33780f0" x="57.6" y="164.957863" style="stroke: #000000; stroke-width: 0.6"/>
      </g>
     </g>
    </g>
    <g id="ytick_34">
     <g id="line2d_40">
      <g>
       <use xlink:href="#m14c33780f0" x="57.6" y="162.335012" style="stroke: #000000; stroke-width: 0.6"/>
      </g>
     </g>
    </g>
    <g id="ytick_35">
     <g id="line2d_41">
      <g>
       <use xlink:href="#m14c33780f0" x="57.6" y="160.021494" style="stroke: #000000; stroke-width: 0.6"/>
      </g>
     </g>
    </g>
    <g id="ytick_36">
     <g id="line2d_42">
      <g>
       <use xlink:href="#m14c33780f0" x="57.6" y="144.337041" style="stroke: #000000; stroke-width: 0.6"/>
      </g>
     </g>
    </g>
    <g id="ytick_37">
     <g id="line2d_43">
      <g>
       <use xlink:href="#m14c33780f0" x="57.6" y="136.372812" style="stroke: #000000; stroke-width: 0.6"/>
      </g>
     </g>
    </g>
    <g id="ytick_38">
     <g id="line2d_44">
      <g>
       <use xlink:href="#m14c33780f0" x="57.6" y="130.722102" style="stroke: #000000; stroke-width: 0.6"/>
      </g>
     </g>
    </g>
    <g id="ytick_39">
     <g id="line2d_45">
      <g>
       <use xlink:href="#m14c33780f0" x="57.6" y="126.339071" style="stroke: #000000; stroke-width: 0.6"/>
      </g>
     </g>
    </g>
    <g id="ytick_40">
     <g id="line2d_46">
      <g>
       <use xlink:href="#m14c33780f0" x="57.6" y="122.757873" style="stroke: #000000; stroke-width: 0.6"/>
      </g>
     </g>
    </g>
    <g id="ytick_41">
     <g id="line2d_47">
      <g>
       <use xlink:href="#m14c33780f0" x="57.6" y="119.730014" style="stroke: #000000; stroke-width: 0.6"/>
      </g>
     </g>
    </g>
    <g id="ytick_42">
     <g id="line2d_48">
      <g>
       <use xlink:href="#m14c33780f0" x="57.6" y="117.107163" style="stroke: #000000; stroke-width: 0.6"/>
      </g>
     </g>
    </g>
    <g id="ytick_43">
     <g id="line2d_49">
      <g>
       <use xlink:href="#m14c33780f0" x="57.6" y="114.793644" style="stroke: #000000; stroke-width: 0.6"/>
      </g>
     </g>
    </g>
    <g id="ytick_44">
     <g id="line2d_50">
      <g>
       <use xlink:href="#m14c33780f0" x="57.6" y="99.109192" style="stroke: #000000; stroke-width: 0.6"/>
      </g>
     </g>
    </g>
    <g id="ytick_45">
     <g id="line2d_51">
      <g>
       <use xlink:href="#m14c33780f0" x="57.6" y="91.144963" style="stroke: #000000; stroke-width: 0.6"/>
      </g>
     </g>
    </g>
    <g id="ytick_46">
     <g id="line2d_52">
      <g>
       <use xlink:href="#m14c33780f0" x="57.6" y="85.494252" style="stroke: #000000; stroke-width: 0.6"/>
      </g>
     </g>
    </g>
    <g id="ytick_47">
     <g id="line2d_53">
      <g>
       <use xlink:href="#m14c33780f0" x="57.6" y="81.111221" style="stroke: #000000; stroke-width: 0.6"/>
      </g>
     </g>
    </g>
    <g id="ytick_48">
     <g id="line2d_54">
      <g>
       <use xlink:href="#m14c33780f0" x="57.6" y="77.530023" style="stroke: #000000; stroke-width: 0.6"/>
      </g>
     </g>
    </g>
    <g id="ytick_49">
     <g id="line2d_55">
      <g>
       <use xlink:href="#m14c33780f0" x="57.6" y="74.502164" style="stroke: #000000; stroke-width: 0.6"/>
      </g>
     </g>
    </g>
    <g id="ytick_50">
     <g id="line2d_56">
      <g>
       <use xlink:href="#m14c33780f0" x="57.6" y="71.879313" style="stroke: #000000; stroke-width: 0.6"/>
      </g>
     </g>
    </g>
    <g id="ytick_51">
     <g id="line2d_57">
      <g>
       <use xlink:href="#m14c33780f0" x="57.6" y="69.565794" style="stroke: #000000; stroke-width: 0.6"/>
      </g>
     </g>
    </g>
    <g id="ytick_52">
     <g id="line2d_58">
      <g>
       <use xlink:href="#m14c33780f0" x="57.6" y="53.881342" style="stroke: #000000; stroke-width: 0.6"/>
      </g>
     </g>
    </g>
    <g id="ytick_53">
     <g id="line2d_59">
      <g>
       <use xlink:href="#m14c33780f0" x="57.6" y="45.917113" style="stroke: #000000; stroke-width: 0.6"/>
      </g>
     </g>
    </g>
    <g id="text_14">
     <!-- Frequency -->
     <g transform="translate(26.920312 200.357687) rotate(-90) scale(0.1 -0.1)">
      <defs>
       <path id="DejaVuSans-46" d="M 628 4666 
L 3309 4666 
L 3309 4134 
L 1259 4134 
L 1259 2759 
L 3109 2759 
L 3109 2228 
L 1259 2228 
L 1259 0 
L 628 0 
L 628 4666 
z
" transform="scale(0.015625)"/>
       <path id="DejaVuSans-65" d="M 3597 1894 
L 3597 1613 
L 953 1613 
Q 991 1019 1311 708 
Q 1631 397 2203 397 
Q 2534 397 2845 478 
Q 3156 559 3463 722 
L 3463 178 
Q 3153 47 2828 -22 
Q 2503 -91 2169 -91 
Q 1331 -91 842 396 
Q 353 884 353 1716 
Q 353 2575 817 3079 
Q 1281 3584 2069 3584 
Q 2775 3584 3186 3129 
Q 3597 2675 3597 1894 
z
M 3022 2063 
Q 3016 2534 2758 2815 
Q 2500 3097 2075 3097 
Q 1594 3097 1305 2825 
Q 1016 2553 972 2059 
L 3022 2063 
z
" transform="scale(0.015625)"/>
       <path id="DejaVuSans-71" d="M 947 1747 
Q 947 1113 1208 752 
Q 1469 391 1925 391 
Q 2381 391 2643 752 
Q 2906 1113 2906 1747 
Q 2906 2381 2643 2742 
Q 2381 3103 1925 3103 
Q 1469 3103 1208 2742 
Q 947 2381 947 1747 
z
M 2906 525 
Q 2725 213 2448 61 
Q 2172 -91 1784 -91 
Q 1150 -91 751 415 
Q 353 922 353 1747 
Q 353 2572 751 3078 
Q 1150 3584 1784 3584 
Q 2172 3584 2448 3432 
Q 2725 3281 2906 2969 
L 2906 3500 
L 3481 3500 
L 3481 -1331 
L 2906 -1331 
L 2906 525 
z
" transform="scale(0.015625)"/>
       <path id="DejaVuSans-75" d="M 544 1381 
L 544 3500 
L 1119 3500 
L 1119 1403 
Q 1119 906 1312 657 
Q 1506 409 1894 409 
Q 2359 409 2629 706 
Q 2900 1003 2900 1516 
L 2900 3500 
L 3475 3500 
L 3475 0 
L 2900 0 
L 2900 538 
Q 2691 219 2414 64 
Q 2138 -91 1772 -91 
Q 1169 -91 856 284 
Q 544 659 544 1381 
z
M 1991 3584 
L 1991 3584 
z
" transform="scale(0.015625)"/>
       <path id="DejaVuSans-6e" d="M 3513 2113 
L 3513 0 
L 2938 0 
L 2938 2094 
Q 2938 2591 2744 2837 
Q 2550 3084 2163 3084 
Q 1697 3084 1428 2787 
Q 1159 2491 1159 1978 
L 1159 0 
L 581 0 
L 581 3500 
L 1159 3500 
L 1159 2956 
Q 1366 3272 1645 3428 
Q 1925 3584 2291 3584 
Q 2894 3584 3203 3211 
Q 3513 2838 3513 2113 
z
" transform="scale(0.015625)"/>
       <path id="DejaVuSans-63" d="M 3122 3366 
L 3122 2828 
Q 2878 2963 2633 3030 
Q 2388 3097 2138 3097 
Q 1578 3097 1268 2742 
Q 959 2388 959 1747 
Q 959 1106 1268 751 
Q 1578 397 2138 397 
Q 2388 397 2633 464 
Q 2878 531 3122 666 
L 3122 134 
Q 2881 22 2623 -34 
Q 2366 -91 2075 -91 
Q 1284 -91 818 406 
Q 353 903 353 1747 
Q 353 2603 823 3093 
Q 1294 3584 2113 3584 
Q 2378 3584 2631 3529 
Q 2884 3475 3122 3366 
z
" transform="scale(0.015625)"/>
      </defs>
      <use xlink:href="#DejaVuSans-46"/>
      <use xlink:href="#DejaVuSans-72" x="50.269531"/>
      <use xlink:href="#DejaVuSans-65" x="89.132812"/>
      <use xlink:href="#DejaVuSans-71" x="150.65625"/>
      <use xlink:href="#DejaVuSans-75" x="214.132812"/>
      <use xlink:href="#DejaVuSans-65" x="277.511719"/>
      <use xlink:href="#DejaVuSans-6e" x="339.035156"/>
      <use xlink:href="#DejaVuSans-63" x="402.414062"/>
      <use xlink:href="#DejaVuSans-79" x="457.394531"/>
     </g>
    </g>
   </g>
   <g id="patch_103">
    <path d="M 57.6 307.584 
L 57.6 41.472 
" style="fill: none; stroke: #000000; stroke-width: 0.8; stroke-linejoin: miter; stroke-linecap: square"/>
   </g>
   <g id="patch_104">
    <path d="M 414.72 307.584 
L 414.72 41.472 
" style="fill: none; stroke: #000000; stroke-width: 0.8; stroke-linejoin: miter; stroke-linecap: square"/>
   </g>
   <g id="patch_105">
    <path d="M 57.6 307.584 
L 414.72 307.584 
" style="fill: none; stroke: #000000; stroke-width: 0.8; stroke-linejoin: miter; stroke-linecap: square"/>
   </g>
   <g id="patch_106">
    <path d="M 57.6 41.472 
L 414.72 41.472 
" style="fill: none; stroke: #000000; stroke-width: 0.8; stroke-linejoin: miter; stroke-linecap: square"/>
   </g>
  </g>
 </g>
 <defs>
  <clipPath id="pb87bb6a179">
   <rect x="57.6" y="41.472" width="357.12" height="266.112"/>
  </clipPath>
 </defs>
</svg>
