<?xml version="1.0" encoding="utf-8" standalone="no"?>
<!DOCTYPE svg PUBLIC "-//W3C//DTD SVG 1.1//EN"
  "http://www.w3.org/Graphics/SVG/1.1/DTD/svg11.dtd">
<svg xmlns:xlink="http://www.w3.org/1999/xlink" width="460.8pt" height="345.6pt" viewBox="0 0 460.8 345.6" xmlns="http://www.w3.org/2000/svg" version="1.1">
 <metadata>
  <rdf:RDF xmlns:dc="http://purl.org/dc/elements/1.1/" xmlns:cc="http://creativecommons.org/ns#" xmlns:rdf="http://www.w3.org/1999/02/22-rdf-syntax-ns#">
   <cc:Work>
    <dc:type rdf:resource="http://purl.org/dc/dcmitype/StillImage"/>
    <dc:date>2025-10-06T15:13:04.070613</dc:date>
    <dc:format>image/svg+xml</dc:format>
    <dc:creator>
     <cc:Agent>
      <dc:title>Matplotlib v3.8.4, https://matplotlib.org/</dc:title>
     </cc:Agent>
    </dc:creator>
   </cc:Work>
  </rdf:RDF>
 </metadata>
 <defs>
  <style type="text/css">*{stroke-linejoin: round; stroke-linecap: butt}</style>
 </defs>
 <g id="figure_1">
  <g id="patch_1">
   <path d="M 0 345.6 
L 460.8 345.6 
L 460.8 0 
L 0 0 
z
" style="fill: #ffffff"/>
  </g>
  <g id="axes_1">
   <g id="patch_2">
    <path d="M 57.6 307.584 
L 414.72 307.584 
L 414.72 41.472 
L 57.6 41.472 
z
" style="fill: #ffffff"/>
   </g>
   <g id="patch_3">
    <path d="M 73.832727 40142.9124 
L 77.079966 40142.9124 
L 77.079966 54.473975 
L 73.832727 54.473975 
z
" clip-path="url(#p8283855d59)" style="fill: #1f77b4"/>
   </g>
   <g id="patch_4">
    <path d="M 77.079966 40142.9124 
L 80.327205 40142.9124 
L 80.327205 53.568 
L 77.079966 53.568 
z
" clip-path="url(#p8283855d59)" style="fill: #1f77b4"/>
   </g>
   <g id="patch_5">
    <path d="M 80.327205 40142.9124 
L 83.571967 40142.9124 
L 83.571967 57.056084 
L 80.327205 57.056084 
z
" clip-path="url(#p8283855d59)" style="fill: #1f77b4"/>
   </g>
   <g id="patch_6">
    <path d="M 83.571967 40142.9124 
L 86.821683 40142.9124 
L 86.821683 68.45442 
L 83.571967 68.45442 
z
" clip-path="url(#p8283855d59)" style="fill: #1f77b4"/>
   </g>
   <g id="patch_7">
    <path d="M 86.821683 40142.9124 
L 90.061491 40142.9124 
L 90.061491 84.765799 
L 86.821683 84.765799 
z
" clip-path="url(#p8283855d59)" style="fill: #1f77b4"/>
   </g>
   <g id="patch_8">
    <path d="M 90.061491 40142.9124 
L 93.311207 40142.9124 
L 93.311207 103.719757 
L 90.061491 103.719757 
z
" clip-path="url(#p8283855d59)" style="fill: #1f77b4"/>
   </g>
   <g id="patch_9">
    <path d="M 93.311207 40142.9124 
L 96.560923 40142.9124 
L 96.560923 123.118435 
L 93.311207 123.118435 
z
" clip-path="url(#p8283855d59)" style="fill: #1f77b4"/>
   </g>
   <g id="patch_10">
    <path d="M 96.560923 40142.9124 
L 99.810639 40142.9124 
L 99.810639 138.910626 
L 96.560923 138.910626 
z
" clip-path="url(#p8283855d59)" style="fill: #1f77b4"/>
   </g>
   <g id="patch_11">
    <path d="M 99.810639 40142.9124 
L 103.060355 40142.9124 
L 103.060355 147.311321 
L 99.810639 147.311321 
z
" clip-path="url(#p8283855d59)" style="fill: #1f77b4"/>
   </g>
   <g id="patch_12">
    <path d="M 103.060355 40142.9124 
L 106.290256 40142.9124 
L 106.290256 150.926654 
L 103.060355 150.926654 
z
" clip-path="url(#p8283855d59)" style="fill: #1f77b4"/>
   </g>
   <g id="patch_13">
    <path d="M 106.290256 40142.9124 
L 109.539972 40142.9124 
L 109.539972 151.628422 
L 106.290256 151.628422 
z
" clip-path="url(#p8283855d59)" style="fill: #1f77b4"/>
   </g>
   <g id="patch_14">
    <path d="M 109.539972 40142.9124 
L 112.789688 40142.9124 
L 112.789688 155.852861 
L 109.539972 155.852861 
z
" clip-path="url(#p8283855d59)" style="fill: #1f77b4"/>
   </g>
   <g id="patch_15">
    <path d="M 112.789688 40142.9124 
L 116.039403 40142.9124 
L 116.039403 156.629321 
L 112.789688 156.629321 
z
" clip-path="url(#p8283855d59)" style="fill: #1f77b4"/>
   </g>
   <g id="patch_16">
    <path d="M 116.039403 40142.9124 
L 119.289119 40142.9124 
L 119.289119 152.987135 
L 116.039403 152.987135 
z
" clip-path="url(#p8283855d59)" style="fill: #1f77b4"/>
   </g>
   <g id="patch_17">
    <path d="M 119.289119 40142.9124 
L 122.538835 40142.9124 
L 122.538835 153.697803 
L 119.289119 153.697803 
z
" clip-path="url(#p8283855d59)" style="fill: #1f77b4"/>
   </g>
   <g id="patch_18">
    <path d="M 122.538835 40142.9124 
L 125.788551 40142.9124 
L 125.788551 153.968999 
L 122.538835 153.968999 
z
" clip-path="url(#p8283855d59)" style="fill: #1f77b4"/>
   </g>
   <g id="patch_19">
    <path d="M 125.788551 40142.9124 
L 129.038267 40142.9124 
L 129.038267 148.394102 
L 125.788551 148.394102 
z
" clip-path="url(#p8283855d59)" style="fill: #1f77b4"/>
   </g>
   <g id="patch_20">
    <path d="M 129.038267 40142.9124 
L 132.287983 40142.9124 
L 132.287983 148.646422 
L 129.038267 148.646422 
z
" clip-path="url(#p8283855d59)" style="fill: #1f77b4"/>
   </g>
   <g id="patch_21">
    <path d="M 132.287983 40142.9124 
L 135.498068 40142.9124 
L 135.498068 151.932234 
L 132.287983 151.932234 
z
" clip-path="url(#p8283855d59)" style="fill: #1f77b4"/>
   </g>
   <g id="patch_22">
    <path d="M 135.498068 40142.9124 
L 138.747784 40142.9124 
L 138.747784 157.17168 
L 135.498068 157.17168 
z
" clip-path="url(#p8283855d59)" style="fill: #1f77b4"/>
   </g>
   <g id="patch_23">
    <path d="M 138.747784 40142.9124 
L 141.9975 40142.9124 
L 141.9975 158.434852 
L 138.747784 158.434852 
z
" clip-path="url(#p8283855d59)" style="fill: #1f77b4"/>
   </g>
   <g id="patch_24">
    <path d="M 141.9975 40142.9124 
L 145.247216 40142.9124 
L 145.247216 162.951659 
L 141.9975 162.951659 
z
" clip-path="url(#p8283855d59)" style="fill: #1f77b4"/>
   </g>
   <g id="patch_25">
    <path d="M 145.247216 40142.9124 
L 148.496932 40142.9124 
L 148.496932 169.247136 
L 145.247216 169.247136 
z
" clip-path="url(#p8283855d59)" style="fill: #1f77b4"/>
   </g>
   <g id="patch_26">
    <path d="M 148.496932 40142.9124 
L 151.746648 40142.9124 
L 151.746648 171.089703 
L 148.496932 171.089703 
z
" clip-path="url(#p8283855d59)" style="fill: #1f77b4"/>
   </g>
   <g id="patch_27">
    <path d="M 151.746648 40142.9124 
L 154.996364 40142.9124 
L 154.996364 176.442243 
L 151.746648 176.442243 
z
" clip-path="url(#p8283855d59)" style="fill: #1f77b4"/>
   </g>
   <g id="patch_28">
    <path d="M 154.996364 40142.9124 
L 158.24608 40142.9124 
L 158.24608 173.961636 
L 154.996364 173.961636 
z
" clip-path="url(#p8283855d59)" style="fill: #1f77b4"/>
   </g>
   <g id="patch_29">
    <path d="M 158.24608 40142.9124 
L 161.495795 40142.9124 
L 161.495795 178.188883 
L 158.24608 178.188883 
z
" clip-path="url(#p8283855d59)" style="fill: #1f77b4"/>
   </g>
   <g id="patch_30">
    <path d="M 161.495795 40142.9124 
L 164.745511 40142.9124 
L 164.745511 177.437377 
L 161.495795 177.437377 
z
" clip-path="url(#p8283855d59)" style="fill: #1f77b4"/>
   </g>
   <g id="patch_31">
    <path d="M 164.745511 40142.9124 
L 167.995227 40142.9124 
L 167.995227 173.137627 
L 164.745511 173.137627 
z
" clip-path="url(#p8283855d59)" style="fill: #1f77b4"/>
   </g>
   <g id="patch_32">
    <path d="M 167.995227 40142.9124 
L 171.244943 40142.9124 
L 171.244943 173.391123 
L 167.995227 173.391123 
z
" clip-path="url(#p8283855d59)" style="fill: #1f77b4"/>
   </g>
   <g id="patch_33">
    <path d="M 171.244943 40142.9124 
L 174.494659 40142.9124 
L 174.494659 173.459553 
L 171.244943 173.459553 
z
" clip-path="url(#p8283855d59)" style="fill: #1f77b4"/>
   </g>
   <g id="patch_34">
    <path d="M 174.494659 40142.9124 
L 177.744375 40142.9124 
L 177.744375 175.929213 
L 174.494659 175.929213 
z
" clip-path="url(#p8283855d59)" style="fill: #1f77b4"/>
   </g>
   <g id="patch_35">
    <path d="M 177.744375 40142.9124 
L 180.994091 40142.9124 
L 180.994091 178.091191 
L 177.744375 178.091191 
z
" clip-path="url(#p8283855d59)" style="fill: #1f77b4"/>
   </g>
   <g id="patch_36">
    <path d="M 180.994091 40142.9124 
L 184.243807 40142.9124 
L 184.243807 183.178268 
L 180.994091 183.178268 
z
" clip-path="url(#p8283855d59)" style="fill: #1f77b4"/>
   </g>
   <g id="patch_37">
    <path d="M 184.243807 40142.9124 
L 187.493523 40142.9124 
L 187.493523 180.053215 
L 184.243807 180.053215 
z
" clip-path="url(#p8283855d59)" style="fill: #1f77b4"/>
   </g>
   <g id="patch_38">
    <path d="M 187.493523 40142.9124 
L 190.743239 40142.9124 
L 190.743239 186.087184 
L 187.493523 186.087184 
z
" clip-path="url(#p8283855d59)" style="fill: #1f77b4"/>
   </g>
   <g id="patch_39">
    <path d="M 190.743239 40142.9124 
L 193.992955 40142.9124 
L 193.992955 187.417856 
L 190.743239 187.417856 
z
" clip-path="url(#p8283855d59)" style="fill: #1f77b4"/>
   </g>
   <g id="patch_40">
    <path d="M 193.992955 40142.9124 
L 197.163409 40142.9124 
L 197.163409 182.62759 
L 193.992955 182.62759 
z
" clip-path="url(#p8283855d59)" style="fill: #1f77b4"/>
   </g>
   <g id="patch_41">
    <path d="M 197.163409 40142.9124 
L 200.413125 40142.9124 
L 200.413125 182.632656 
L 197.163409 182.632656 
z
" clip-path="url(#p8283855d59)" style="fill: #1f77b4"/>
   </g>
   <g id="patch_42">
    <path d="M 200.413125 40142.9124 
L 203.662841 40142.9124 
L 203.662841 180.05758 
L 200.413125 180.05758 
z
" clip-path="url(#p8283855d59)" style="fill: #1f77b4"/>
   </g>
   <g id="patch_43">
    <path d="M 203.662841 40142.9124 
L 206.912557 40142.9124 
L 206.912557 177.743999 
L 203.662841 177.743999 
z
" clip-path="url(#p8283855d59)" style="fill: #1f77b4"/>
   </g>
   <g id="patch_44">
    <path d="M 206.912557 40142.9124 
L 210.162273 40142.9124 
L 210.162273 179.630667 
L 206.912557 179.630667 
z
" clip-path="url(#p8283855d59)" style="fill: #1f77b4"/>
   </g>
   <g id="patch_45">
    <path d="M 210.162273 40142.9124 
L 213.411989 40142.9124 
L 213.411989 181.129197 
L 210.162273 181.129197 
z
" clip-path="url(#p8283855d59)" style="fill: #1f77b4"/>
   </g>
   <g id="patch_46">
    <path d="M 213.411989 40142.9124 
L 216.661705 40142.9124 
L 216.661705 180.468454 
L 213.411989 180.468454 
z
" clip-path="url(#p8283855d59)" style="fill: #1f77b4"/>
   </g>
   <g id="patch_47">
    <path d="M 216.661705 40142.9124 
L 219.91142 40142.9124 
L 219.91142 184.262664 
L 216.661705 184.262664 
z
" clip-path="url(#p8283855d59)" style="fill: #1f77b4"/>
   </g>
   <g id="patch_48">
    <path d="M 219.91142 40142.9124 
L 223.161136 40142.9124 
L 223.161136 181.278481 
L 219.91142 181.278481 
z
" clip-path="url(#p8283855d59)" style="fill: #1f77b4"/>
   </g>
   <g id="patch_49">
    <path d="M 223.161136 40142.9124 
L 226.410852 40142.9124 
L 226.410852 178.457433 
L 223.161136 178.457433 
z
" clip-path="url(#p8283855d59)" style="fill: #1f77b4"/>
   </g>
   <g id="patch_50">
    <path d="M 226.410852 40142.9124 
L 229.660568 40142.9124 
L 229.660568 176.634592 
L 226.410852 176.634592 
z
" clip-path="url(#p8283855d59)" style="fill: #1f77b4"/>
   </g>
   <g id="patch_51">
    <path d="M 229.660568 40142.9124 
L 232.910284 40142.9124 
L 232.910284 176.273044 
L 229.660568 176.273044 
z
" clip-path="url(#p8283855d59)" style="fill: #1f77b4"/>
   </g>
   <g id="patch_52">
    <path d="M 232.910284 40142.9124 
L 236.16 40142.9124 
L 236.16 179.222357 
L 232.910284 179.222357 
z
" clip-path="url(#p8283855d59)" style="fill: #1f77b4"/>
   </g>
   <g id="patch_53">
    <path d="M 236.16 40142.9124 
L 239.330455 40142.9124 
L 239.330455 173.678555 
L 236.16 173.678555 
z
" clip-path="url(#p8283855d59)" style="fill: #1f77b4"/>
   </g>
   <g id="patch_54">
    <path d="M 239.330455 40142.9124 
L 242.659432 40142.9124 
L 242.659432 177.882041 
L 239.330455 177.882041 
z
" clip-path="url(#p8283855d59)" style="fill: #1f77b4"/>
   </g>
   <g id="patch_55">
    <path d="M 242.659432 40142.9124 
L 245.829886 40142.9124 
L 245.829886 176.865367 
L 242.659432 176.865367 
z
" clip-path="url(#p8283855d59)" style="fill: #1f77b4"/>
   </g>
   <g id="patch_56">
    <path d="M 245.829886 40142.9124 
L 249.158864 40142.9124 
L 249.158864 177.23965 
L 245.829886 177.23965 
z
" clip-path="url(#p8283855d59)" style="fill: #1f77b4"/>
   </g>
   <g id="patch_57">
    <path d="M 249.158864 40142.9124 
L 252.329318 40142.9124 
L 252.329318 177.180401 
L 249.158864 177.180401 
z
" clip-path="url(#p8283855d59)" style="fill: #1f77b4"/>
   </g>
   <g id="patch_58">
    <path d="M 252.329318 40142.9124 
L 255.658295 40142.9124 
L 255.658295 178.541217 
L 252.329318 178.541217 
z
" clip-path="url(#p8283855d59)" style="fill: #1f77b4"/>
   </g>
   <g id="patch_59">
    <path d="M 255.658295 40142.9124 
L 258.82875 40142.9124 
L 258.82875 180.675348 
L 255.658295 180.675348 
z
" clip-path="url(#p8283855d59)" style="fill: #1f77b4"/>
   </g>
   <g id="patch_60">
    <path d="M 258.82875 40142.9124 
L 262.157727 40142.9124 
L 262.157727 183.351703 
L 258.82875 183.351703 
z
" clip-path="url(#p8283855d59)" style="fill: #1f77b4"/>
   </g>
   <g id="patch_61">
    <path d="M 262.157727 40142.9124 
L 265.328182 40142.9124 
L 265.328182 188.772582 
L 262.157727 188.772582 
z
" clip-path="url(#p8283855d59)" style="fill: #1f77b4"/>
   </g>
   <g id="patch_62">
    <path d="M 265.328182 40142.9124 
L 268.657159 40142.9124 
L 268.657159 195.243778 
L 265.328182 195.243778 
z
" clip-path="url(#p8283855d59)" style="fill: #1f77b4"/>
   </g>
   <g id="patch_63">
    <path d="M 268.657159 40142.9124 
L 271.827614 40142.9124 
L 271.827614 196.988947 
L 268.657159 196.988947 
z
" clip-path="url(#p8283855d59)" style="fill: #1f77b4"/>
   </g>
   <g id="patch_64">
    <path d="M 271.827614 40142.9124 
L 275.156591 40142.9124 
L 275.156591 201.932992 
L 271.827614 201.932992 
z
" clip-path="url(#p8283855d59)" style="fill: #1f77b4"/>
   </g>
   <g id="patch_65">
    <path d="M 275.156591 40142.9124 
L 278.327045 40142.9124 
L 278.327045 207.314925 
L 275.156591 207.314925 
z
" clip-path="url(#p8283855d59)" style="fill: #1f77b4"/>
   </g>
   <g id="patch_66">
    <path d="M 278.327045 40142.9124 
L 281.656023 40142.9124 
L 281.656023 212.017591 
L 278.327045 212.017591 
z
" clip-path="url(#p8283855d59)" style="fill: #1f77b4"/>
   </g>
   <g id="patch_67">
    <path d="M 281.656023 40142.9124 
L 284.826477 40142.9124 
L 284.826477 215.918129 
L 281.656023 215.918129 
z
" clip-path="url(#p8283855d59)" style="fill: #1f77b4"/>
   </g>
   <g id="patch_68">
    <path d="M 284.826477 40142.9124 
L 288.155455 40142.9124 
L 288.155455 218.659326 
L 284.826477 218.659326 
z
" clip-path="url(#p8283855d59)" style="fill: #1f77b4"/>
   </g>
   <g id="patch_69">
    <path d="M 288.155455 40142.9124 
L 291.325909 40142.9124 
L 291.325909 218.376813 
L 288.155455 218.376813 
z
" clip-path="url(#p8283855d59)" style="fill: #1f77b4"/>
   </g>
   <g id="patch_70">
    <path d="M 291.325909 40142.9124 
L 294.654886 40142.9124 
L 294.654886 225.209487 
L 291.325909 225.209487 
z
" clip-path="url(#p8283855d59)" style="fill: #1f77b4"/>
   </g>
   <g id="patch_71">
    <path d="M 294.654886 40142.9124 
L 297.825341 40142.9124 
L 297.825341 229.581063 
L 294.654886 229.581063 
z
" clip-path="url(#p8283855d59)" style="fill: #1f77b4"/>
   </g>
   <g id="patch_72">
    <path d="M 297.825341 40142.9124 
L 301.154318 40142.9124 
L 301.154318 226.762903 
L 297.825341 226.762903 
z
" clip-path="url(#p8283855d59)" style="fill: #1f77b4"/>
   </g>
   <g id="patch_73">
    <path d="M 301.154318 40142.9124 
L 304.324773 40142.9124 
L 304.324773 235.126522 
L 301.154318 235.126522 
z
" clip-path="url(#p8283855d59)" style="fill: #1f77b4"/>
   </g>
   <g id="patch_74">
    <path d="M 304.324773 40142.9124 
L 307.65375 40142.9124 
L 307.65375 241.721675 
L 304.324773 241.721675 
z
" clip-path="url(#p8283855d59)" style="fill: #1f77b4"/>
   </g>
   <g id="patch_75">
    <path d="M 307.65375 40142.9124 
L 310.824205 40142.9124 
L 310.824205 239.684803 
L 307.65375 239.684803 
z
" clip-path="url(#p8283855d59)" style="fill: #1f77b4"/>
   </g>
   <g id="patch_76">
    <path d="M 310.824205 40142.9124 
L 314.153182 40142.9124 
L 314.153182 243.003256 
L 310.824205 243.003256 
z
" clip-path="url(#p8283855d59)" style="fill: #1f77b4"/>
   </g>
   <g id="patch_77">
    <path d="M 314.153182 40142.9124 
L 317.323636 40142.9124 
L 317.323636 250.350943 
L 314.153182 250.350943 
z
" clip-path="url(#p8283855d59)" style="fill: #1f77b4"/>
   </g>
   <g id="patch_78">
    <path d="M 317.323636 40142.9124 
L 320.494091 40142.9124 
L 320.494091 250.607147 
L 317.323636 250.607147 
z
" clip-path="url(#p8283855d59)" style="fill: #1f77b4"/>
   </g>
   <g id="patch_79">
    <path d="M 320.494091 40142.9124 
L 323.823068 40142.9124 
L 323.823068 233.709895 
L 320.494091 233.709895 
z
" clip-path="url(#p8283855d59)" style="fill: #1f77b4"/>
   </g>
   <g id="patch_80">
    <path d="M 323.823068 40142.9124 
L 326.993523 40142.9124 
L 326.993523 250.607147 
L 323.823068 250.607147 
z
" clip-path="url(#p8283855d59)" style="fill: #1f77b4"/>
   </g>
   <g id="patch_81">
    <path d="M 326.993523 40142.9124 
L 330.3225 40142.9124 
L 330.3225 257.490453 
L 326.993523 257.490453 
z
" clip-path="url(#p8283855d59)" style="fill: #1f77b4"/>
   </g>
   <g id="patch_82">
    <path d="M 330.3225 40142.9124 
L 333.492955 40142.9124 
L 333.492955 267.6553 
L 330.3225 267.6553 
z
" clip-path="url(#p8283855d59)" style="fill: #1f77b4"/>
   </g>
   <g id="patch_83">
    <path d="M 333.492955 40142.9124 
L 336.821932 40142.9124 
L 336.821932 257.490453 
L 333.492955 257.490453 
z
" clip-path="url(#p8283855d59)" style="fill: #1f77b4"/>
   </g>
   <g id="patch_84">
    <path d="M 336.821932 40142.9124 
L 339.992386 40142.9124 
L 339.992386 238.364052 
L 336.821932 238.364052 
z
" clip-path="url(#p8283855d59)" style="fill: #1f77b4"/>
   </g>
   <g id="patch_85">
    <path d="M 339.992386 40142.9124 
L 343.321364 40142.9124 
L 343.321364 247.113414 
L 339.992386 247.113414 
z
" clip-path="url(#p8283855d59)" style="fill: #1f77b4"/>
   </g>
   <g id="patch_86">
    <path d="M 343.321364 40142.9124 
L 346.491818 40142.9124 
L 346.491818 253.40248 
L 343.321364 253.40248 
z
" clip-path="url(#p8283855d59)" style="fill: #1f77b4"/>
   </g>
   <g id="patch_87">
    <path d="M 346.491818 40142.9124 
L 349.820795 40142.9124 
L 349.820795 263.386243 
L 346.491818 263.386243 
z
" clip-path="url(#p8283855d59)" style="fill: #1f77b4"/>
   </g>
   <g id="patch_88">
    <path d="M 349.820795 40142.9124 
L 352.99125 40142.9124 
L 352.99125 250.350943 
L 349.820795 250.350943 
z
" clip-path="url(#p8283855d59)" style="fill: #1f77b4"/>
   </g>
   <g id="patch_89">
    <path d="M 352.99125 40142.9124 
L 356.320227 40142.9124 
L 356.320227 263.386243 
L 352.99125 263.386243 
z
" clip-path="url(#p8283855d59)" style="fill: #1f77b4"/>
   </g>
   <g id="patch_90">
    <path d="M 356.320227 40142.9124 
L 359.490682 40142.9124 
L 359.490682 225.448847 
L 356.320227 225.448847 
z
" clip-path="url(#p8283855d59)" style="fill: #1f77b4"/>
   </g>
   <g id="patch_91">
    <path d="M 359.490682 40142.9124 
L 362.819659 40142.9124 
L 362.819659 247.757964 
L 359.490682 247.757964 
z
" clip-path="url(#p8283855d59)" style="fill: #1f77b4"/>
   </g>
   <g id="patch_92">
    <path d="M 362.819659 40142.9124 
L 365.990114 40142.9124 
L 365.990114 257.879086 
L 362.819659 257.879086 
z
" clip-path="url(#p8283855d59)" style="fill: #1f77b4"/>
   </g>
   <g id="patch_93">
    <path d="M 365.990114 40142.9124 
L 369.319091 40142.9124 
L 369.319091 259.965157 
L 365.990114 259.965157 
z
" clip-path="url(#p8283855d59)" style="fill: #1f77b4"/>
   </g>
   <g id="patch_94">
    <path d="M 369.319091 40142.9124 
L 372.489545 40142.9124 
L 372.489545 266.32438 
L 369.319091 266.32438 
z
" clip-path="url(#p8283855d59)" style="fill: #1f77b4"/>
   </g>
   <g id="patch_95">
    <path d="M 372.489545 40142.9124 
L 375.818523 40142.9124 
L 375.818523 261.34937 
L 372.489545 261.34937 
z
" clip-path="url(#p8283855d59)" style="fill: #1f77b4"/>
   </g>
   <g id="patch_96">
    <path d="M 375.818523 40142.9124 
L 378.988977 40142.9124 
L 378.988977 241.264554 
L 375.818523 241.264554 
z
" clip-path="url(#p8283855d59)" style="fill: #1f77b4"/>
   </g>
   <g id="patch_97">
    <path d="M 378.988977 40142.9124 
L 382.317955 40142.9124 
L 382.317955 256.017782 
L 378.988977 256.017782 
z
" clip-path="url(#p8283855d59)" style="fill: #1f77b4"/>
   </g>
   <g id="patch_98">
    <path d="M 382.317955 40142.9124 
L 385.488409 40142.9124 
L 385.488409 277.68235 
L 382.317955 277.68235 
z
" clip-path="url(#p8283855d59)" style="fill: #1f77b4"/>
   </g>
   <g id="patch_99">
    <path d="M 385.488409 40142.9124 
L 388.817386 40142.9124 
L 388.817386 267.6553 
L 385.488409 267.6553 
z
" clip-path="url(#p8283855d59)" style="fill: #1f77b4"/>
   </g>
   <g id="patch_100">
    <path d="M 388.817386 40142.9124 
L 391.987841 40142.9124 
L 391.987841 295.488 
L 388.817386 295.488 
z
" clip-path="url(#p8283855d59)" style="fill: #1f77b4"/>
   </g>
   <g id="patch_101">
    <path d="M 391.987841 40142.9124 
L 395.316818 40142.9124 
L 395.316818 40142.9124 
L 391.987841 40142.9124 
z
" clip-path="url(#p8283855d59)" style="fill: #1f77b4"/>
   </g>
   <g id="patch_102">
    <path d="M 395.316818 40142.9124 
L 398.487273 40142.9124 
L 398.487273 200.086216 
L 395.316818 200.086216 
z
" clip-path="url(#p8283855d59)" style="fill: #1f77b4"/>
   </g>
   <g id="matplotlib.axis_1">
    <g id="xtick_1">
     <g id="line2d_1">
      <defs>
       <path id="mb3726a9209" d="M 0 0 
L 0 3.5 
" style="stroke: #000000; stroke-width: 0.8"/>
      </defs>
      <g>
       <use xlink:href="#mb3726a9209" x="73.832727" y="307.584" style="stroke: #000000; stroke-width: 0.8"/>
      </g>
     </g>
     <g id="text_1">
      <!-- 0.0 -->
      <g transform="translate(65.881165 322.182437) scale(0.1 -0.1)">
       <defs>
        <path id="DejaVuSans-30" d="M 2034 4250 
Q 1547 4250 1301 3770 
Q 1056 3291 1056 2328 
Q 1056 1369 1301 889 
Q 1547 409 2034 409 
Q 2525 409 2770 889 
Q 3016 1369 3016 2328 
Q 3016 3291 2770 3770 
Q 2525 4250 2034 4250 
z
M 2034 4750 
Q 2819 4750 3233 4129 
Q 3647 3509 3647 2328 
Q 3647 1150 3233 529 
Q 2819 -91 2034 -91 
Q 1250 -91 836 529 
Q 422 1150 422 2328 
Q 422 3509 836 4129 
Q 1250 4750 2034 4750 
z
" transform="scale(0.015625)"/>
        <path id="DejaVuSans-2e" d="M 684 794 
L 1344 794 
L 1344 0 
L 684 0 
L 684 794 
z
" transform="scale(0.015625)"/>
       </defs>
       <use xlink:href="#DejaVuSans-30"/>
       <use xlink:href="#DejaVuSans-2e" x="63.623047"/>
       <use xlink:href="#DejaVuSans-30" x="95.410156"/>
      </g>
     </g>
    </g>
    <g id="xtick_2">
     <g id="line2d_2">
      <g>
       <use xlink:href="#mb3726a9209" x="138.763636" y="307.584" style="stroke: #000000; stroke-width: 0.8"/>
      </g>
     </g>
     <g id="text_2">
      <!-- 0.2 -->
      <g transform="translate(130.812074 322.182437) scale(0.1 -0.1)">
       <defs>
        <path id="DejaVuSans-32" d="M 1228 531 
L 3431 531 
L 3431 0 
L 469 0 
L 469 531 
Q 828 903 1448 1529 
Q 2069 2156 2228 2338 
Q 2531 2678 2651 2914 
Q 2772 3150 2772 3378 
Q 2772 3750 2511 3984 
Q 2250 4219 1831 4219 
Q 1534 4219 1204 4116 
Q 875 4013 500 3803 
L 500 4441 
Q 881 4594 1212 4672 
Q 1544 4750 1819 4750 
Q 2544 4750 2975 4387 
Q 3406 4025 3406 3419 
Q 3406 3131 3298 2873 
Q 3191 2616 2906 2266 
Q 2828 2175 2409 1742 
Q 1991 1309 1228 531 
z
" transform="scale(0.015625)"/>
       </defs>
       <use xlink:href="#DejaVuSans-30"/>
       <use xlink:href="#DejaVuSans-2e" x="63.623047"/>
       <use xlink:href="#DejaVuSans-32" x="95.410156"/>
      </g>
     </g>
    </g>
    <g id="xtick_3">
     <g id="line2d_3">
      <g>
       <use xlink:href="#mb3726a9209" x="203.694545" y="307.584" style="stroke: #000000; stroke-width: 0.8"/>
      </g>
     </g>
     <g id="text_3">
      <!-- 0.4 -->
      <g transform="translate(195.742983 322.182437) scale(0.1 -0.1)">
       <defs>
        <path id="DejaVuSans-34" d="M 2419 4116 
L 825 1625 
L 2419 1625 
L 2419 4116 
z
M 2253 4666 
L 3047 4666 
L 3047 1625 
L 3713 1625 
L 3713 1100 
L 3047 1100 
L 3047 0 
L 2419 0 
L 2419 1100 
L 313 1100 
L 313 1709 
L 2253 4666 
z
" transform="scale(0.015625)"/>
       </defs>
       <use xlink:href="#DejaVuSans-30"/>
       <use xlink:href="#DejaVuSans-2e" x="63.623047"/>
       <use xlink:href="#DejaVuSans-34" x="95.410156"/>
      </g>
     </g>
    </g>
    <g id="xtick_4">
     <g id="line2d_4">
      <g>
       <use xlink:href="#mb3726a9209" x="268.625455" y="307.584" style="stroke: #000000; stroke-width: 0.8"/>
      </g>
     </g>
     <g id="text_4">
      <!-- 0.6 -->
      <g transform="translate(260.673892 322.182437) scale(0.1 -0.1)">
       <defs>
        <path id="DejaVuSans-36" d="M 2113 2584 
Q 1688 2584 1439 2293 
Q 1191 2003 1191 1497 
Q 1191 994 1439 701 
Q 1688 409 2113 409 
Q 2538 409 2786 701 
Q 3034 994 3034 1497 
Q 3034 2003 2786 2293 
Q 2538 2584 2113 2584 
z
M 3366 4563 
L 3366 3988 
Q 3128 4100 2886 4159 
Q 2644 4219 2406 4219 
Q 1781 4219 1451 3797 
Q 1122 3375 1075 2522 
Q 1259 2794 1537 2939 
Q 1816 3084 2150 3084 
Q 2853 3084 3261 2657 
Q 3669 2231 3669 1497 
Q 3669 778 3244 343 
Q 2819 -91 2113 -91 
Q 1303 -91 875 529 
Q 447 1150 447 2328 
Q 447 3434 972 4092 
Q 1497 4750 2381 4750 
Q 2619 4750 2861 4703 
Q 3103 4656 3366 4563 
z
" transform="scale(0.015625)"/>
       </defs>
       <use xlink:href="#DejaVuSans-30"/>
       <use xlink:href="#DejaVuSans-2e" x="63.623047"/>
       <use xlink:href="#DejaVuSans-36" x="95.410156"/>
      </g>
     </g>
    </g>
    <g id="xtick_5">
     <g id="line2d_5">
      <g>
       <use xlink:href="#mb3726a9209" x="333.556364" y="307.584" style="stroke: #000000; stroke-width: 0.8"/>
      </g>
     </g>
     <g id="text_5">
      <!-- 0.8 -->
      <g transform="translate(325.604801 322.182437) scale(0.1 -0.1)">
       <defs>
        <path id="DejaVuSans-38" d="M 2034 2216 
Q 1584 2216 1326 1975 
Q 1069 1734 1069 1313 
Q 1069 891 1326 650 
Q 1584 409 2034 409 
Q 2484 409 2743 651 
Q 3003 894 3003 1313 
Q 3003 1734 2745 1975 
Q 2488 2216 2034 2216 
z
M 1403 2484 
Q 997 2584 770 2862 
Q 544 3141 544 3541 
Q 544 4100 942 4425 
Q 1341 4750 2034 4750 
Q 2731 4750 3128 4425 
Q 3525 4100 3525 3541 
Q 3525 3141 3298 2862 
Q 3072 2584 2669 2484 
Q 3125 2378 3379 2068 
Q 3634 1759 3634 1313 
Q 3634 634 3220 271 
Q 2806 -91 2034 -91 
Q 1263 -91 848 271 
Q 434 634 434 1313 
Q 434 1759 690 2068 
Q 947 2378 1403 2484 
z
M 1172 3481 
Q 1172 3119 1398 2916 
Q 1625 2713 2034 2713 
Q 2441 2713 2670 2916 
Q 2900 3119 2900 3481 
Q 2900 3844 2670 4047 
Q 2441 4250 2034 4250 
Q 1625 4250 1398 4047 
Q 1172 3844 1172 3481 
z
" transform="scale(0.015625)"/>
       </defs>
       <use xlink:href="#DejaVuSans-30"/>
       <use xlink:href="#DejaVuSans-2e" x="63.623047"/>
       <use xlink:href="#DejaVuSans-38" x="95.410156"/>
      </g>
     </g>
    </g>
    <g id="xtick_6">
     <g id="line2d_6">
      <g>
       <use xlink:href="#mb3726a9209" x="398.487273" y="307.584" style="stroke: #000000; stroke-width: 0.8"/>
      </g>
     </g>
     <g id="text_6">
      <!-- 1.0 -->
      <g transform="translate(390.53571 322.182437) scale(0.1 -0.1)">
       <defs>
        <path id="DejaVuSans-31" d="M 794 531 
L 1825 531 
L 1825 4091 
L 703 3866 
L 703 4441 
L 1819 4666 
L 2450 4666 
L 2450 531 
L 3481 531 
L 3481 0 
L 794 0 
L 794 531 
z
" transform="scale(0.015625)"/>
       </defs>
       <use xlink:href="#DejaVuSans-31"/>
       <use xlink:href="#DejaVuSans-2e" x="63.623047"/>
       <use xlink:href="#DejaVuSans-30" x="95.410156"/>
      </g>
     </g>
    </g>
    <g id="text_7">
     <!-- DRFP Similarity -->
     <g transform="translate(197.71625 335.860562) scale(0.1 -0.1)">
      <defs>
       <path id="DejaVuSans-44" d="M 1259 4147 
L 1259 519 
L 2022 519 
Q 2988 519 3436 956 
Q 3884 1394 3884 2338 
Q 3884 3275 3436 3711 
Q 2988 4147 2022 4147 
L 1259 4147 
z
M 628 4666 
L 1925 4666 
Q 3281 4666 3915 4102 
Q 4550 3538 4550 2338 
Q 4550 1131 3912 565 
Q 3275 0 1925 0 
L 628 0 
L 628 4666 
z
" transform="scale(0.015625)"/>
       <path id="DejaVuSans-52" d="M 2841 2188 
Q 3044 2119 3236 1894 
Q 3428 1669 3622 1275 
L 4263 0 
L 3584 0 
L 2988 1197 
Q 2756 1666 2539 1819 
Q 2322 1972 1947 1972 
L 1259 1972 
L 1259 0 
L 628 0 
L 628 4666 
L 2053 4666 
Q 2853 4666 3247 4331 
Q 3641 3997 3641 3322 
Q 3641 2881 3436 2590 
Q 3231 2300 2841 2188 
z
M 1259 4147 
L 1259 2491 
L 2053 2491 
Q 2509 2491 2742 2702 
Q 2975 2913 2975 3322 
Q 2975 3731 2742 3939 
Q 2509 4147 2053 4147 
L 1259 4147 
z
" transform="scale(0.015625)"/>
       <path id="DejaVuSans-46" d="M 628 4666 
L 3309 4666 
L 3309 4134 
L 1259 4134 
L 1259 2759 
L 3109 2759 
L 3109 2228 
L 1259 2228 
L 1259 0 
L 628 0 
L 628 4666 
z
" transform="scale(0.015625)"/>
       <path id="DejaVuSans-50" d="M 1259 4147 
L 1259 2394 
L 2053 2394 
Q 2494 2394 2734 2622 
Q 2975 2850 2975 3272 
Q 2975 3691 2734 3919 
Q 2494 4147 2053 4147 
L 1259 4147 
z
M 628 4666 
L 2053 4666 
Q 2838 4666 3239 4311 
Q 3641 3956 3641 3272 
Q 3641 2581 3239 2228 
Q 2838 1875 2053 1875 
L 1259 1875 
L 1259 0 
L 628 0 
L 628 4666 
z
" transform="scale(0.015625)"/>
       <path id="DejaVuSans-20" transform="scale(0.015625)"/>
       <path id="DejaVuSans-53" d="M 3425 4513 
L 3425 3897 
Q 3066 4069 2747 4153 
Q 2428 4238 2131 4238 
Q 1616 4238 1336 4038 
Q 1056 3838 1056 3469 
Q 1056 3159 1242 3001 
Q 1428 2844 1947 2747 
L 2328 2669 
Q 3034 2534 3370 2195 
Q 3706 1856 3706 1288 
Q 3706 609 3251 259 
Q 2797 -91 1919 -91 
Q 1588 -91 1214 -16 
Q 841 59 441 206 
L 441 856 
Q 825 641 1194 531 
Q 1563 422 1919 422 
Q 2459 422 2753 634 
Q 3047 847 3047 1241 
Q 3047 1584 2836 1778 
Q 2625 1972 2144 2069 
L 1759 2144 
Q 1053 2284 737 2584 
Q 422 2884 422 3419 
Q 422 4038 858 4394 
Q 1294 4750 2059 4750 
Q 2388 4750 2728 4690 
Q 3069 4631 3425 4513 
z
" transform="scale(0.015625)"/>
       <path id="DejaVuSans-69" d="M 603 3500 
L 1178 3500 
L 1178 0 
L 603 0 
L 603 3500 
z
M 603 4863 
L 1178 4863 
L 1178 4134 
L 603 4134 
L 603 4863 
z
" transform="scale(0.015625)"/>
       <path id="DejaVuSans-6d" d="M 3328 2828 
Q 3544 3216 3844 3400 
Q 4144 3584 4550 3584 
Q 5097 3584 5394 3201 
Q 5691 2819 5691 2113 
L 5691 0 
L 5113 0 
L 5113 2094 
Q 5113 2597 4934 2840 
Q 4756 3084 4391 3084 
Q 3944 3084 3684 2787 
Q 3425 2491 3425 1978 
L 3425 0 
L 2847 0 
L 2847 2094 
Q 2847 2600 2669 2842 
Q 2491 3084 2119 3084 
Q 1678 3084 1418 2786 
Q 1159 2488 1159 1978 
L 1159 0 
L 581 0 
L 581 3500 
L 1159 3500 
L 1159 2956 
Q 1356 3278 1631 3431 
Q 1906 3584 2284 3584 
Q 2666 3584 2933 3390 
Q 3200 3197 3328 2828 
z
" transform="scale(0.015625)"/>
       <path id="DejaVuSans-6c" d="M 603 4863 
L 1178 4863 
L 1178 0 
L 603 0 
L 603 4863 
z
" transform="scale(0.015625)"/>
       <path id="DejaVuSans-61" d="M 2194 1759 
Q 1497 1759 1228 1600 
Q 959 1441 959 1056 
Q 959 750 1161 570 
Q 1363 391 1709 391 
Q 2188 391 2477 730 
Q 2766 1069 2766 1631 
L 2766 1759 
L 2194 1759 
z
M 3341 1997 
L 3341 0 
L 2766 0 
L 2766 531 
Q 2569 213 2275 61 
Q 1981 -91 1556 -91 
Q 1019 -91 701 211 
Q 384 513 384 1019 
Q 384 1609 779 1909 
Q 1175 2209 1959 2209 
L 2766 2209 
L 2766 2266 
Q 2766 2663 2505 2880 
Q 2244 3097 1772 3097 
Q 1472 3097 1187 3025 
Q 903 2953 641 2809 
L 641 3341 
Q 956 3463 1253 3523 
Q 1550 3584 1831 3584 
Q 2591 3584 2966 3190 
Q 3341 2797 3341 1997 
z
" transform="scale(0.015625)"/>
       <path id="DejaVuSans-72" d="M 2631 2963 
Q 2534 3019 2420 3045 
Q 2306 3072 2169 3072 
Q 1681 3072 1420 2755 
Q 1159 2438 1159 1844 
L 1159 0 
L 581 0 
L 581 3500 
L 1159 3500 
L 1159 2956 
Q 1341 3275 1631 3429 
Q 1922 3584 2338 3584 
Q 2397 3584 2469 3576 
Q 2541 3569 2628 3553 
L 2631 2963 
z
" transform="scale(0.015625)"/>
       <path id="DejaVuSans-74" d="M 1172 4494 
L 1172 3500 
L 2356 3500 
L 2356 3053 
L 1172 3053 
L 1172 1153 
Q 1172 725 1289 603 
Q 1406 481 1766 481 
L 2356 481 
L 2356 0 
L 1766 0 
Q 1100 0 847 248 
Q 594 497 594 1153 
L 594 3053 
L 172 3053 
L 172 3500 
L 594 3500 
L 594 4494 
L 1172 4494 
z
" transform="scale(0.015625)"/>
       <path id="DejaVuSans-79" d="M 2059 -325 
Q 1816 -950 1584 -1140 
Q 1353 -1331 966 -1331 
L 506 -1331 
L 506 -850 
L 844 -850 
Q 1081 -850 1212 -737 
Q 1344 -625 1503 -206 
L 1606 56 
L 191 3500 
L 800 3500 
L 1894 763 
L 2988 3500 
L 3597 3500 
L 2059 -325 
z
" transform="scale(0.015625)"/>
      </defs>
      <use xlink:href="#DejaVuSans-44"/>
      <use xlink:href="#DejaVuSans-52" x="77.001953"/>
      <use xlink:href="#DejaVuSans-46" x="146.484375"/>
      <use xlink:href="#DejaVuSans-50" x="204.003906"/>
      <use xlink:href="#DejaVuSans-20" x="264.306641"/>
      <use xlink:href="#DejaVuSans-53" x="296.09375"/>
      <use xlink:href="#DejaVuSans-69" x="359.570312"/>
      <use xlink:href="#DejaVuSans-6d" x="387.353516"/>
      <use xlink:href="#DejaVuSans-69" x="484.765625"/>
      <use xlink:href="#DejaVuSans-6c" x="512.548828"/>
      <use xlink:href="#DejaVuSans-61" x="540.332031"/>
      <use xlink:href="#DejaVuSans-72" x="601.611328"/>
      <use xlink:href="#DejaVuSans-69" x="642.724609"/>
      <use xlink:href="#DejaVuSans-74" x="670.507812"/>
      <use xlink:href="#DejaVuSans-79" x="709.716797"/>
     </g>
    </g>
   </g>
   <g id="matplotlib.axis_2">
    <g id="ytick_1">
     <g id="line2d_7">
      <defs>
       <path id="m0c5ea010d5" d="M 0 0 
L -3.5 0 
" style="stroke: #000000; stroke-width: 0.8"/>
      </defs>
      <g>
       <use xlink:href="#m0c5ea010d5" x="57.6" y="283.501108" style="stroke: #000000; stroke-width: 0.8"/>
      </g>
     </g>
     <g id="text_8">
      <!-- $\mathdefault{10^{1}}$ -->
      <g transform="translate(33 287.300327) scale(0.1 -0.1)">
       <use xlink:href="#DejaVuSans-31" transform="translate(0 0.684375)"/>
       <use xlink:href="#DejaVuSans-30" transform="translate(63.623047 0.684375)"/>
       <use xlink:href="#DejaVuSans-31" transform="translate(128.203125 38.965625) scale(0.7)"/>
      </g>
     </g>
    </g>
    <g id="ytick_2">
     <g id="line2d_8">
      <g>
       <use xlink:href="#m0c5ea010d5" x="57.6" y="243.681517" style="stroke: #000000; stroke-width: 0.8"/>
      </g>
     </g>
     <g id="text_9">
      <!-- $\mathdefault{10^{2}}$ -->
      <g transform="translate(33 247.480736) scale(0.1 -0.1)">
       <use xlink:href="#DejaVuSans-31" transform="translate(0 0.765625)"/>
       <use xlink:href="#DejaVuSans-30" transform="translate(63.623047 0.765625)"/>
       <use xlink:href="#DejaVuSans-32" transform="translate(128.203125 39.046875) scale(0.7)"/>
      </g>
     </g>
    </g>
    <g id="ytick_3">
     <g id="line2d_9">
      <g>
       <use xlink:href="#m0c5ea010d5" x="57.6" y="203.861925" style="stroke: #000000; stroke-width: 0.8"/>
      </g>
     </g>
     <g id="text_10">
      <!-- $\mathdefault{10^{3}}$ -->
      <g transform="translate(33 207.661144) scale(0.1 -0.1)">
       <defs>
        <path id="DejaVuSans-33" d="M 2597 2516 
Q 3050 2419 3304 2112 
Q 3559 1806 3559 1356 
Q 3559 666 3084 287 
Q 2609 -91 1734 -91 
Q 1441 -91 1130 -33 
Q 819 25 488 141 
L 488 750 
Q 750 597 1062 519 
Q 1375 441 1716 441 
Q 2309 441 2620 675 
Q 2931 909 2931 1356 
Q 2931 1769 2642 2001 
Q 2353 2234 1838 2234 
L 1294 2234 
L 1294 2753 
L 1863 2753 
Q 2328 2753 2575 2939 
Q 2822 3125 2822 3475 
Q 2822 3834 2567 4026 
Q 2313 4219 1838 4219 
Q 1578 4219 1281 4162 
Q 984 4106 628 3988 
L 628 4550 
Q 988 4650 1302 4700 
Q 1616 4750 1894 4750 
Q 2613 4750 3031 4423 
Q 3450 4097 3450 3541 
Q 3450 3153 3228 2886 
Q 3006 2619 2597 2516 
z
" transform="scale(0.015625)"/>
       </defs>
       <use xlink:href="#DejaVuSans-31" transform="translate(0 0.765625)"/>
       <use xlink:href="#DejaVuSans-30" transform="translate(63.623047 0.765625)"/>
       <use xlink:href="#DejaVuSans-33" transform="translate(128.203125 39.046875) scale(0.7)"/>
      </g>
     </g>
    </g>
    <g id="ytick_4">
     <g id="line2d_10">
      <g>
       <use xlink:href="#m0c5ea010d5" x="57.6" y="164.042333" style="stroke: #000000; stroke-width: 0.8"/>
      </g>
     </g>
     <g id="text_11">
      <!-- $\mathdefault{10^{4}}$ -->
      <g transform="translate(33 167.841552) scale(0.1 -0.1)">
       <use xlink:href="#DejaVuSans-31" transform="translate(0 0.684375)"/>
       <use xlink:href="#DejaVuSans-30" transform="translate(63.623047 0.684375)"/>
       <use xlink:href="#DejaVuSans-34" transform="translate(128.203125 38.965625) scale(0.7)"/>
      </g>
     </g>
    </g>
    <g id="ytick_5">
     <g id="line2d_11">
      <g>
       <use xlink:href="#m0c5ea010d5" x="57.6" y="124.222742" style="stroke: #000000; stroke-width: 0.8"/>
      </g>
     </g>
     <g id="text_12">
      <!-- $\mathdefault{10^{5}}$ -->
      <g transform="translate(33 128.02196) scale(0.1 -0.1)">
       <defs>
        <path id="DejaVuSans-35" d="M 691 4666 
L 3169 4666 
L 3169 4134 
L 1269 4134 
L 1269 2991 
Q 1406 3038 1543 3061 
Q 1681 3084 1819 3084 
Q 2600 3084 3056 2656 
Q 3513 2228 3513 1497 
Q 3513 744 3044 326 
Q 2575 -91 1722 -91 
Q 1428 -91 1123 -41 
Q 819 9 494 109 
L 494 744 
Q 775 591 1075 516 
Q 1375 441 1709 441 
Q 2250 441 2565 725 
Q 2881 1009 2881 1497 
Q 2881 1984 2565 2268 
Q 2250 2553 1709 2553 
Q 1456 2553 1204 2497 
Q 953 2441 691 2322 
L 691 4666 
z
" transform="scale(0.015625)"/>
       </defs>
       <use xlink:href="#DejaVuSans-31" transform="translate(0 0.684375)"/>
       <use xlink:href="#DejaVuSans-30" transform="translate(63.623047 0.684375)"/>
       <use xlink:href="#DejaVuSans-35" transform="translate(128.203125 38.965625) scale(0.7)"/>
      </g>
     </g>
    </g>
    <g id="ytick_6">
     <g id="line2d_12">
      <g>
       <use xlink:href="#m0c5ea010d5" x="57.6" y="84.40315" style="stroke: #000000; stroke-width: 0.8"/>
      </g>
     </g>
     <g id="text_13">
      <!-- $\mathdefault{10^{6}}$ -->
      <g transform="translate(33 88.202369) scale(0.1 -0.1)">
       <use xlink:href="#DejaVuSans-31" transform="translate(0 0.765625)"/>
       <use xlink:href="#DejaVuSans-30" transform="translate(63.623047 0.765625)"/>
       <use xlink:href="#DejaVuSans-36" transform="translate(128.203125 39.046875) scale(0.7)"/>
      </g>
     </g>
    </g>
    <g id="ytick_7">
     <g id="line2d_13">
      <g>
       <use xlink:href="#m0c5ea010d5" x="57.6" y="44.583558" style="stroke: #000000; stroke-width: 0.8"/>
      </g>
     </g>
     <g id="text_14">
      <!-- $\mathdefault{10^{7}}$ -->
      <g transform="translate(33 48.382777) scale(0.1 -0.1)">
       <defs>
        <path id="DejaVuSans-37" d="M 525 4666 
L 3525 4666 
L 3525 4397 
L 1831 0 
L 1172 0 
L 2766 4134 
L 525 4134 
L 525 4666 
z
" transform="scale(0.015625)"/>
       </defs>
       <use xlink:href="#DejaVuSans-31" transform="translate(0 0.684375)"/>
       <use xlink:href="#DejaVuSans-30" transform="translate(63.623047 0.684375)"/>
       <use xlink:href="#DejaVuSans-37" transform="translate(128.203125 38.965625) scale(0.7)"/>
      </g>
     </g>
    </g>
    <g id="ytick_8">
     <g id="line2d_14">
      <defs>
       <path id="m2ad23a748b" d="M 0 0 
L -2 0 
" style="stroke: #000000; stroke-width: 0.6"/>
      </defs>
      <g>
       <use xlink:href="#m2ad23a748b" x="57.6" y="304.321927" style="stroke: #000000; stroke-width: 0.6"/>
      </g>
     </g>
    </g>
    <g id="ytick_9">
     <g id="line2d_15">
      <g>
       <use xlink:href="#m2ad23a748b" x="57.6" y="299.346917" style="stroke: #000000; stroke-width: 0.6"/>
      </g>
     </g>
    </g>
    <g id="ytick_10">
     <g id="line2d_16">
      <g>
       <use xlink:href="#m2ad23a748b" x="57.6" y="295.488" style="stroke: #000000; stroke-width: 0.6"/>
      </g>
     </g>
    </g>
    <g id="ytick_11">
     <g id="line2d_17">
      <g>
       <use xlink:href="#m2ad23a748b" x="57.6" y="292.335035" style="stroke: #000000; stroke-width: 0.6"/>
      </g>
     </g>
    </g>
    <g id="ytick_12">
     <g id="line2d_18">
      <g>
       <use xlink:href="#m2ad23a748b" x="57.6" y="289.669241" style="stroke: #000000; stroke-width: 0.6"/>
      </g>
     </g>
    </g>
    <g id="ytick_13">
     <g id="line2d_19">
      <g>
       <use xlink:href="#m2ad23a748b" x="57.6" y="287.360026" style="stroke: #000000; stroke-width: 0.6"/>
      </g>
     </g>
    </g>
    <g id="ytick_14">
     <g id="line2d_20">
      <g>
       <use xlink:href="#m2ad23a748b" x="57.6" y="285.323153" style="stroke: #000000; stroke-width: 0.6"/>
      </g>
     </g>
    </g>
    <g id="ytick_15">
     <g id="line2d_21">
      <g>
       <use xlink:href="#m2ad23a748b" x="57.6" y="271.514217" style="stroke: #000000; stroke-width: 0.6"/>
      </g>
     </g>
    </g>
    <g id="ytick_16">
     <g id="line2d_22">
      <g>
       <use xlink:href="#m2ad23a748b" x="57.6" y="264.502335" style="stroke: #000000; stroke-width: 0.6"/>
      </g>
     </g>
    </g>
    <g id="ytick_17">
     <g id="line2d_23">
      <g>
       <use xlink:href="#m2ad23a748b" x="57.6" y="259.527325" style="stroke: #000000; stroke-width: 0.6"/>
      </g>
     </g>
    </g>
    <g id="ytick_18">
     <g id="line2d_24">
      <g>
       <use xlink:href="#m2ad23a748b" x="57.6" y="255.668408" style="stroke: #000000; stroke-width: 0.6"/>
      </g>
     </g>
    </g>
    <g id="ytick_19">
     <g id="line2d_25">
      <g>
       <use xlink:href="#m2ad23a748b" x="57.6" y="252.515443" style="stroke: #000000; stroke-width: 0.6"/>
      </g>
     </g>
    </g>
    <g id="ytick_20">
     <g id="line2d_26">
      <g>
       <use xlink:href="#m2ad23a748b" x="57.6" y="249.84965" style="stroke: #000000; stroke-width: 0.6"/>
      </g>
     </g>
    </g>
    <g id="ytick_21">
     <g id="line2d_27">
      <g>
       <use xlink:href="#m2ad23a748b" x="57.6" y="247.540434" style="stroke: #000000; stroke-width: 0.6"/>
      </g>
     </g>
    </g>
    <g id="ytick_22">
     <g id="line2d_28">
      <g>
       <use xlink:href="#m2ad23a748b" x="57.6" y="245.503561" style="stroke: #000000; stroke-width: 0.6"/>
      </g>
     </g>
    </g>
    <g id="ytick_23">
     <g id="line2d_29">
      <g>
       <use xlink:href="#m2ad23a748b" x="57.6" y="231.694625" style="stroke: #000000; stroke-width: 0.6"/>
      </g>
     </g>
    </g>
    <g id="ytick_24">
     <g id="line2d_30">
      <g>
       <use xlink:href="#m2ad23a748b" x="57.6" y="224.682743" style="stroke: #000000; stroke-width: 0.6"/>
      </g>
     </g>
    </g>
    <g id="ytick_25">
     <g id="line2d_31">
      <g>
       <use xlink:href="#m2ad23a748b" x="57.6" y="219.707734" style="stroke: #000000; stroke-width: 0.6"/>
      </g>
     </g>
    </g>
    <g id="ytick_26">
     <g id="line2d_32">
      <g>
       <use xlink:href="#m2ad23a748b" x="57.6" y="215.848817" style="stroke: #000000; stroke-width: 0.6"/>
      </g>
     </g>
    </g>
    <g id="ytick_27">
     <g id="line2d_33">
      <g>
       <use xlink:href="#m2ad23a748b" x="57.6" y="212.695852" style="stroke: #000000; stroke-width: 0.6"/>
      </g>
     </g>
    </g>
    <g id="ytick_28">
     <g id="line2d_34">
      <g>
       <use xlink:href="#m2ad23a748b" x="57.6" y="210.030058" style="stroke: #000000; stroke-width: 0.6"/>
      </g>
     </g>
    </g>
    <g id="ytick_29">
     <g id="line2d_35">
      <g>
       <use xlink:href="#m2ad23a748b" x="57.6" y="207.720842" style="stroke: #000000; stroke-width: 0.6"/>
      </g>
     </g>
    </g>
    <g id="ytick_30">
     <g id="line2d_36">
      <g>
       <use xlink:href="#m2ad23a748b" x="57.6" y="205.68397" style="stroke: #000000; stroke-width: 0.6"/>
      </g>
     </g>
    </g>
    <g id="ytick_31">
     <g id="line2d_37">
      <g>
       <use xlink:href="#m2ad23a748b" x="57.6" y="191.875034" style="stroke: #000000; stroke-width: 0.6"/>
      </g>
     </g>
    </g>
    <g id="ytick_32">
     <g id="line2d_38">
      <g>
       <use xlink:href="#m2ad23a748b" x="57.6" y="184.863152" style="stroke: #000000; stroke-width: 0.6"/>
      </g>
     </g>
    </g>
    <g id="ytick_33">
     <g id="line2d_39">
      <g>
       <use xlink:href="#m2ad23a748b" x="57.6" y="179.888142" style="stroke: #000000; stroke-width: 0.6"/>
      </g>
     </g>
    </g>
    <g id="ytick_34">
     <g id="line2d_40">
      <g>
       <use xlink:href="#m2ad23a748b" x="57.6" y="176.029225" style="stroke: #000000; stroke-width: 0.6"/>
      </g>
     </g>
    </g>
    <g id="ytick_35">
     <g id="line2d_41">
      <g>
       <use xlink:href="#m2ad23a748b" x="57.6" y="172.87626" style="stroke: #000000; stroke-width: 0.6"/>
      </g>
     </g>
    </g>
    <g id="ytick_36">
     <g id="line2d_42">
      <g>
       <use xlink:href="#m2ad23a748b" x="57.6" y="170.210466" style="stroke: #000000; stroke-width: 0.6"/>
      </g>
     </g>
    </g>
    <g id="ytick_37">
     <g id="line2d_43">
      <g>
       <use xlink:href="#m2ad23a748b" x="57.6" y="167.901251" style="stroke: #000000; stroke-width: 0.6"/>
      </g>
     </g>
    </g>
    <g id="ytick_38">
     <g id="line2d_44">
      <g>
       <use xlink:href="#m2ad23a748b" x="57.6" y="165.864378" style="stroke: #000000; stroke-width: 0.6"/>
      </g>
     </g>
    </g>
    <g id="ytick_39">
     <g id="line2d_45">
      <g>
       <use xlink:href="#m2ad23a748b" x="57.6" y="152.055442" style="stroke: #000000; stroke-width: 0.6"/>
      </g>
     </g>
    </g>
    <g id="ytick_40">
     <g id="line2d_46">
      <g>
       <use xlink:href="#m2ad23a748b" x="57.6" y="145.04356" style="stroke: #000000; stroke-width: 0.6"/>
      </g>
     </g>
    </g>
    <g id="ytick_41">
     <g id="line2d_47">
      <g>
       <use xlink:href="#m2ad23a748b" x="57.6" y="140.06855" style="stroke: #000000; stroke-width: 0.6"/>
      </g>
     </g>
    </g>
    <g id="ytick_42">
     <g id="line2d_48">
      <g>
       <use xlink:href="#m2ad23a748b" x="57.6" y="136.209633" style="stroke: #000000; stroke-width: 0.6"/>
      </g>
     </g>
    </g>
    <g id="ytick_43">
     <g id="line2d_49">
      <g>
       <use xlink:href="#m2ad23a748b" x="57.6" y="133.056668" style="stroke: #000000; stroke-width: 0.6"/>
      </g>
     </g>
    </g>
    <g id="ytick_44">
     <g id="line2d_50">
      <g>
       <use xlink:href="#m2ad23a748b" x="57.6" y="130.390874" style="stroke: #000000; stroke-width: 0.6"/>
      </g>
     </g>
    </g>
    <g id="ytick_45">
     <g id="line2d_51">
      <g>
       <use xlink:href="#m2ad23a748b" x="57.6" y="128.081659" style="stroke: #000000; stroke-width: 0.6"/>
      </g>
     </g>
    </g>
    <g id="ytick_46">
     <g id="line2d_52">
      <g>
       <use xlink:href="#m2ad23a748b" x="57.6" y="126.044786" style="stroke: #000000; stroke-width: 0.6"/>
      </g>
     </g>
    </g>
    <g id="ytick_47">
     <g id="line2d_53">
      <g>
       <use xlink:href="#m2ad23a748b" x="57.6" y="112.23585" style="stroke: #000000; stroke-width: 0.6"/>
      </g>
     </g>
    </g>
    <g id="ytick_48">
     <g id="line2d_54">
      <g>
       <use xlink:href="#m2ad23a748b" x="57.6" y="105.223968" style="stroke: #000000; stroke-width: 0.6"/>
      </g>
     </g>
    </g>
    <g id="ytick_49">
     <g id="line2d_55">
      <g>
       <use xlink:href="#m2ad23a748b" x="57.6" y="100.248959" style="stroke: #000000; stroke-width: 0.6"/>
      </g>
     </g>
    </g>
    <g id="ytick_50">
     <g id="line2d_56">
      <g>
       <use xlink:href="#m2ad23a748b" x="57.6" y="96.390041" style="stroke: #000000; stroke-width: 0.6"/>
      </g>
     </g>
    </g>
    <g id="ytick_51">
     <g id="line2d_57">
      <g>
       <use xlink:href="#m2ad23a748b" x="57.6" y="93.237077" style="stroke: #000000; stroke-width: 0.6"/>
      </g>
     </g>
    </g>
    <g id="ytick_52">
     <g id="line2d_58">
      <g>
       <use xlink:href="#m2ad23a748b" x="57.6" y="90.571283" style="stroke: #000000; stroke-width: 0.6"/>
      </g>
     </g>
    </g>
    <g id="ytick_53">
     <g id="line2d_59">
      <g>
       <use xlink:href="#m2ad23a748b" x="57.6" y="88.262067" style="stroke: #000000; stroke-width: 0.6"/>
      </g>
     </g>
    </g>
    <g id="ytick_54">
     <g id="line2d_60">
      <g>
       <use xlink:href="#m2ad23a748b" x="57.6" y="86.225195" style="stroke: #000000; stroke-width: 0.6"/>
      </g>
     </g>
    </g>
    <g id="ytick_55">
     <g id="line2d_61">
      <g>
       <use xlink:href="#m2ad23a748b" x="57.6" y="72.416258" style="stroke: #000000; stroke-width: 0.6"/>
      </g>
     </g>
    </g>
    <g id="ytick_56">
     <g id="line2d_62">
      <g>
       <use xlink:href="#m2ad23a748b" x="57.6" y="65.404376" style="stroke: #000000; stroke-width: 0.6"/>
      </g>
     </g>
    </g>
    <g id="ytick_57">
     <g id="line2d_63">
      <g>
       <use xlink:href="#m2ad23a748b" x="57.6" y="60.429367" style="stroke: #000000; stroke-width: 0.6"/>
      </g>
     </g>
    </g>
    <g id="ytick_58">
     <g id="line2d_64">
      <g>
       <use xlink:href="#m2ad23a748b" x="57.6" y="56.57045" style="stroke: #000000; stroke-width: 0.6"/>
      </g>
     </g>
    </g>
    <g id="ytick_59">
     <g id="line2d_65">
      <g>
       <use xlink:href="#m2ad23a748b" x="57.6" y="53.417485" style="stroke: #000000; stroke-width: 0.6"/>
      </g>
     </g>
    </g>
    <g id="ytick_60">
     <g id="line2d_66">
      <g>
       <use xlink:href="#m2ad23a748b" x="57.6" y="50.751691" style="stroke: #000000; stroke-width: 0.6"/>
      </g>
     </g>
    </g>
    <g id="ytick_61">
     <g id="line2d_67">
      <g>
       <use xlink:href="#m2ad23a748b" x="57.6" y="48.442475" style="stroke: #000000; stroke-width: 0.6"/>
      </g>
     </g>
    </g>
    <g id="ytick_62">
     <g id="line2d_68">
      <g>
       <use xlink:href="#m2ad23a748b" x="57.6" y="46.405603" style="stroke: #000000; stroke-width: 0.6"/>
      </g>
     </g>
    </g>
    <g id="text_15">
     <!-- Frequency -->
     <g transform="translate(26.920312 200.357687) rotate(-90) scale(0.1 -0.1)">
      <defs>
       <path id="DejaVuSans-65" d="M 3597 1894 
L 3597 1613 
L 953 1613 
Q 991 1019 1311 708 
Q 1631 397 2203 397 
Q 2534 397 2845 478 
Q 3156 559 3463 722 
L 3463 178 
Q 3153 47 2828 -22 
Q 2503 -91 2169 -91 
Q 1331 -91 842 396 
Q 353 884 353 1716 
Q 353 2575 817 3079 
Q 1281 3584 2069 3584 
Q 2775 3584 3186 3129 
Q 3597 2675 3597 1894 
z
M 3022 2063 
Q 3016 2534 2758 2815 
Q 2500 3097 2075 3097 
Q 1594 3097 1305 2825 
Q 1016 2553 972 2059 
L 3022 2063 
z
" transform="scale(0.015625)"/>
       <path id="DejaVuSans-71" d="M 947 1747 
Q 947 1113 1208 752 
Q 1469 391 1925 391 
Q 2381 391 2643 752 
Q 2906 1113 2906 1747 
Q 2906 2381 2643 2742 
Q 2381 3103 1925 3103 
Q 1469 3103 1208 2742 
Q 947 2381 947 1747 
z
M 2906 525 
Q 2725 213 2448 61 
Q 2172 -91 1784 -91 
Q 1150 -91 751 415 
Q 353 922 353 1747 
Q 353 2572 751 3078 
Q 1150 3584 1784 3584 
Q 2172 3584 2448 3432 
Q 2725 3281 2906 2969 
L 2906 3500 
L 3481 3500 
L 3481 -1331 
L 2906 -1331 
L 2906 525 
z
" transform="scale(0.015625)"/>
       <path id="DejaVuSans-75" d="M 544 1381 
L 544 3500 
L 1119 3500 
L 1119 1403 
Q 1119 906 1312 657 
Q 1506 409 1894 409 
Q 2359 409 2629 706 
Q 2900 1003 2900 1516 
L 2900 3500 
L 3475 3500 
L 3475 0 
L 2900 0 
L 2900 538 
Q 2691 219 2414 64 
Q 2138 -91 1772 -91 
Q 1169 -91 856 284 
Q 544 659 544 1381 
z
M 1991 3584 
L 1991 3584 
z
" transform="scale(0.015625)"/>
       <path id="DejaVuSans-6e" d="M 3513 2113 
L 3513 0 
L 2938 0 
L 2938 2094 
Q 2938 2591 2744 2837 
Q 2550 3084 2163 3084 
Q 1697 3084 1428 2787 
Q 1159 2491 1159 1978 
L 1159 0 
L 581 0 
L 581 3500 
L 1159 3500 
L 1159 2956 
Q 1366 3272 1645 3428 
Q 1925 3584 2291 3584 
Q 2894 3584 3203 3211 
Q 3513 2838 3513 2113 
z
" transform="scale(0.015625)"/>
       <path id="DejaVuSans-63" d="M 3122 3366 
L 3122 2828 
Q 2878 2963 2633 3030 
Q 2388 3097 2138 3097 
Q 1578 3097 1268 2742 
Q 959 2388 959 1747 
Q 959 1106 1268 751 
Q 1578 397 2138 397 
Q 2388 397 2633 464 
Q 2878 531 3122 666 
L 3122 134 
Q 2881 22 2623 -34 
Q 2366 -91 2075 -91 
Q 1284 -91 818 406 
Q 353 903 353 1747 
Q 353 2603 823 3093 
Q 1294 3584 2113 3584 
Q 2378 3584 2631 3529 
Q 2884 3475 3122 3366 
z
" transform="scale(0.015625)"/>
      </defs>
      <use xlink:href="#DejaVuSans-46"/>
      <use xlink:href="#DejaVuSans-72" x="50.269531"/>
      <use xlink:href="#DejaVuSans-65" x="89.132812"/>
      <use xlink:href="#DejaVuSans-71" x="150.65625"/>
      <use xlink:href="#DejaVuSans-75" x="214.132812"/>
      <use xlink:href="#DejaVuSans-65" x="277.511719"/>
      <use xlink:href="#DejaVuSans-6e" x="339.035156"/>
      <use xlink:href="#DejaVuSans-63" x="402.414062"/>
      <use xlink:href="#DejaVuSans-79" x="457.394531"/>
     </g>
    </g>
   </g>
   <g id="patch_103">
    <path d="M 57.6 307.584 
L 57.6 41.472 
" style="fill: none; stroke: #000000; stroke-width: 0.8; stroke-linejoin: miter; stroke-linecap: square"/>
   </g>
   <g id="patch_104">
    <path d="M 414.72 307.584 
L 414.72 41.472 
" style="fill: none; stroke: #000000; stroke-width: 0.8; stroke-linejoin: miter; stroke-linecap: square"/>
   </g>
   <g id="patch_105">
    <path d="M 57.6 307.584 
L 414.72 307.584 
" style="fill: none; stroke: #000000; stroke-width: 0.8; stroke-linejoin: miter; stroke-linecap: square"/>
   </g>
   <g id="patch_106">
    <path d="M 57.6 41.472 
L 414.72 41.472 
" style="fill: none; stroke: #000000; stroke-width: 0.8; stroke-linejoin: miter; stroke-linecap: square"/>
   </g>
  </g>
 </g>
 <defs>
  <clipPath id="p8283855d59">
   <rect x="57.6" y="41.472" width="357.12" height="266.112"/>
  </clipPath>
 </defs>
</svg>
