<?xml version="1.0" encoding="utf-8" standalone="no"?>
<!DOCTYPE svg PUBLIC "-//W3C//DTD SVG 1.1//EN"
  "http://www.w3.org/Graphics/SVG/1.1/DTD/svg11.dtd">
<svg xmlns:xlink="http://www.w3.org/1999/xlink" width="1008pt" height="288pt" viewBox="0 0 1008 288" xmlns="http://www.w3.org/2000/svg" version="1.1">
 <metadata>
  <rdf:RDF xmlns:dc="http://purl.org/dc/elements/1.1/" xmlns:cc="http://creativecommons.org/ns#" xmlns:rdf="http://www.w3.org/1999/02/22-rdf-syntax-ns#">
   <cc:Work>
    <dc:type rdf:resource="http://purl.org/dc/dcmitype/StillImage"/>
    <dc:date>2025-12-19T11:17:55.876737</dc:date>
    <dc:format>image/svg+xml</dc:format>
    <dc:creator>
     <cc:Agent>
      <dc:title>Matplotlib v3.8.4, https://matplotlib.org/</dc:title>
     </cc:Agent>
    </dc:creator>
   </cc:Work>
  </rdf:RDF>
 </metadata>
 <defs>
  <style type="text/css">*{stroke-linejoin: round; stroke-linecap: butt}</style>
 </defs>
 <g id="figure_1">
  <g id="patch_1">
   <path d="M 0 288 
L 1008 288 
L 1008 0 
L 0 0 
z
" style="fill: #ffffff"/>
  </g>
  <g id="axes_1">
   <g id="patch_2">
    <path d="M 62.03 216.443834 
L 832.908 216.443834 
L 832.908 15.12 
L 62.03 15.12 
z
" style="fill: #ffffff"/>
   </g>
   <g id="patch_3">
    <path d="M 97.069909 216.443834 
L 102.598889 216.443834 
L 102.598889 24.706849 
L 97.069909 24.706849 
z
" clip-path="url(#p658ef5c98d)" style="fill: #800080"/>
   </g>
   <g id="patch_4">
    <path d="M 117.803583 216.443834 
L 123.332563 216.443834 
L 123.332563 150.70544 
L 117.803583 150.70544 
z
" clip-path="url(#p658ef5c98d)" style="fill: #800080"/>
   </g>
   <g id="patch_5">
    <path d="M 138.537257 216.443834 
L 144.066237 216.443834 
L 144.066237 29.959917 
L 138.537257 29.959917 
z
" clip-path="url(#p658ef5c98d)" style="fill: #800080"/>
   </g>
   <g id="patch_6">
    <path d="M 159.270931 216.443834 
L 164.799911 216.443834 
L 164.799911 103.657373 
L 159.270931 103.657373 
z
" clip-path="url(#p658ef5c98d)" style="fill: #800080"/>
   </g>
   <g id="patch_7">
    <path d="M 180.004605 216.443834 
L 185.533585 216.443834 
L 185.533585 211.398124 
L 180.004605 211.398124 
z
" clip-path="url(#p658ef5c98d)" style="fill: #800080"/>
   </g>
   <g id="patch_8">
    <path d="M 200.738279 216.443834 
L 206.267259 216.443834 
L 206.267259 37.489315 
L 200.738279 37.489315 
z
" clip-path="url(#p658ef5c98d)" style="fill: #800080"/>
   </g>
   <g id="patch_9">
    <path d="M 221.471953 216.443834 
L 227.000933 216.443834 
L 227.000933 66.388803 
L 221.471953 66.388803 
z
" clip-path="url(#p658ef5c98d)" style="fill: #800080"/>
   </g>
   <g id="patch_10">
    <path d="M 242.205627 216.443834 
L 247.734607 216.443834 
L 247.734607 210.965635 
L 242.205627 210.965635 
z
" clip-path="url(#p658ef5c98d)" style="fill: #800080"/>
   </g>
   <g id="patch_11">
    <path d="M 262.939301 216.443834 
L 268.468281 216.443834 
L 268.468281 199.400547 
L 262.939301 199.400547 
z
" clip-path="url(#p658ef5c98d)" style="fill: #800080"/>
   </g>
   <g id="patch_12">
    <path d="M 283.672975 216.443834 
L 289.201955 216.443834 
L 289.201955 155.727122 
L 283.672975 155.727122 
z
" clip-path="url(#p658ef5c98d)" style="fill: #800080"/>
   </g>
   <g id="patch_13">
    <path d="M 304.406649 216.443834 
L 309.935629 216.443834 
L 309.935629 126.214665 
L 304.406649 126.214665 
z
" clip-path="url(#p658ef5c98d)" style="fill: #800080"/>
   </g>
   <g id="patch_14">
    <path d="M 325.140323 216.443834 
L 330.669303 216.443834 
L 330.669303 94.058525 
L 325.140323 94.058525 
z
" clip-path="url(#p658ef5c98d)" style="fill: #800080"/>
   </g>
   <g id="patch_15">
    <path d="M 345.873997 216.443834 
L 351.402977 216.443834 
L 351.402977 182.029504 
L 345.873997 182.029504 
z
" clip-path="url(#p658ef5c98d)" style="fill: #800080"/>
   </g>
   <g id="patch_16">
    <path d="M 366.607671 216.443834 
L 372.136651 216.443834 
L 372.136651 119.719373 
L 366.607671 119.719373 
z
" clip-path="url(#p658ef5c98d)" style="fill: #800080"/>
   </g>
   <g id="patch_17">
    <path d="M 387.341345 216.443834 
L 392.870325 216.443834 
L 392.870325 216.443834 
L 387.341345 216.443834 
z
" clip-path="url(#p658ef5c98d)" style="fill: #800080"/>
   </g>
   <g id="patch_18">
    <path d="M 408.075019 216.443834 
L 413.603999 216.443834 
L 413.603999 141.006332 
L 408.075019 141.006332 
z
" clip-path="url(#p658ef5c98d)" style="fill: #800080"/>
   </g>
   <g id="patch_19">
    <path d="M 428.808693 216.443834 
L 434.337673 216.443834 
L 434.337673 120.575342 
L 428.808693 120.575342 
z
" clip-path="url(#p658ef5c98d)" style="fill: #800080"/>
   </g>
   <g id="patch_20">
    <path d="M 449.542367 216.443834 
L 455.071347 216.443834 
L 455.071347 157.032374 
L 449.542367 157.032374 
z
" clip-path="url(#p658ef5c98d)" style="fill: #800080"/>
   </g>
   <g id="patch_21">
    <path d="M 470.276041 216.443834 
L 475.805021 216.443834 
L 475.805021 24.706849 
L 470.276041 24.706849 
z
" clip-path="url(#p658ef5c98d)" style="fill: #800080"/>
   </g>
   <g id="patch_22">
    <path d="M 491.009715 216.443834 
L 496.538695 216.443834 
L 496.538695 131.227397 
L 491.009715 131.227397 
z
" clip-path="url(#p658ef5c98d)" style="fill: #800080"/>
   </g>
   <g id="patch_23">
    <path d="M 511.743389 216.443834 
L 517.272369 216.443834 
L 517.272369 162.364172 
L 511.743389 162.364172 
z
" clip-path="url(#p658ef5c98d)" style="fill: #800080"/>
   </g>
   <g id="patch_24">
    <path d="M 532.477063 216.443834 
L 538.006043 216.443834 
L 538.006043 194.006528 
L 532.477063 194.006528 
z
" clip-path="url(#p658ef5c98d)" style="fill: #800080"/>
   </g>
   <g id="patch_25">
    <path d="M 553.210737 216.443834 
L 558.739717 216.443834 
L 558.739717 203.066835 
L 553.210737 203.066835 
z
" clip-path="url(#p658ef5c98d)" style="fill: #800080"/>
   </g>
   <g id="patch_26">
    <path d="M 573.944412 216.443834 
L 579.473391 216.443834 
L 579.473391 216.443834 
L 573.944412 216.443834 
z
" clip-path="url(#p658ef5c98d)" style="fill: #800080"/>
   </g>
   <g id="patch_27">
    <path d="M 594.678086 216.443834 
L 600.207065 216.443834 
L 600.207065 94.920393 
L 594.678086 94.920393 
z
" clip-path="url(#p658ef5c98d)" style="fill: #800080"/>
   </g>
   <g id="patch_28">
    <path d="M 615.41176 216.443834 
L 620.940739 216.443834 
L 620.940739 91.849404 
L 615.41176 91.849404 
z
" clip-path="url(#p658ef5c98d)" style="fill: #800080"/>
   </g>
   <g id="patch_29">
    <path d="M 636.145434 216.443834 
L 641.674413 216.443834 
L 641.674413 203.661369 
L 636.145434 203.661369 
z
" clip-path="url(#p658ef5c98d)" style="fill: #800080"/>
   </g>
   <g id="patch_30">
    <path d="M 656.879108 216.443834 
L 662.408087 216.443834 
L 662.408087 24.706849 
L 656.879108 24.706849 
z
" clip-path="url(#p658ef5c98d)" style="fill: #800080"/>
   </g>
   <g id="patch_31">
    <path d="M 677.612782 216.443834 
L 683.141761 216.443834 
L 683.141761 24.706849 
L 677.612782 24.706849 
z
" clip-path="url(#p658ef5c98d)" style="fill: #800080"/>
   </g>
   <g id="patch_32">
    <path d="M 698.346456 216.443834 
L 703.875435 216.443834 
L 703.875435 216.443834 
L 698.346456 216.443834 
z
" clip-path="url(#p658ef5c98d)" style="fill: #800080"/>
   </g>
   <g id="patch_33">
    <path d="M 719.08013 216.443834 
L 724.609109 216.443834 
L 724.609109 216.443834 
L 719.08013 216.443834 
z
" clip-path="url(#p658ef5c98d)" style="fill: #800080"/>
   </g>
   <g id="patch_34">
    <path d="M 739.813804 216.443834 
L 745.342783 216.443834 
L 745.342783 139.176691 
L 739.813804 139.176691 
z
" clip-path="url(#p658ef5c98d)" style="fill: #800080"/>
   </g>
   <g id="patch_35">
    <path d="M 760.547478 216.443834 
L 766.076457 216.443834 
L 766.076457 116.217683 
L 760.547478 116.217683 
z
" clip-path="url(#p658ef5c98d)" style="fill: #800080"/>
   </g>
   <g id="patch_36">
    <path d="M 781.281152 216.443834 
L 786.810131 216.443834 
L 786.810131 95.01041 
L 781.281152 95.01041 
z
" clip-path="url(#p658ef5c98d)" style="fill: #800080"/>
   </g>
   <g id="patch_37">
    <path d="M 102.598889 216.443834 
L 108.127869 216.443834 
L 108.127869 216.443834 
L 102.598889 216.443834 
z
" clip-path="url(#p658ef5c98d)" style="fill: #228b22"/>
   </g>
   <g id="patch_38">
    <path d="M 123.332563 216.443834 
L 128.861543 216.443834 
L 128.861543 128.792641 
L 123.332563 128.792641 
z
" clip-path="url(#p658ef5c98d)" style="fill: #228b22"/>
   </g>
   <g id="patch_39">
    <path d="M 144.066237 216.443834 
L 149.595217 216.443834 
L 149.595217 32.586451 
L 144.066237 32.586451 
z
" clip-path="url(#p658ef5c98d)" style="fill: #228b22"/>
   </g>
   <g id="patch_40">
    <path d="M 164.799911 216.443834 
L 170.328891 216.443834 
L 170.328891 98.018049 
L 164.799911 98.018049 
z
" clip-path="url(#p658ef5c98d)" style="fill: #228b22"/>
   </g>
   <g id="patch_41">
    <path d="M 185.533585 216.443834 
L 191.062565 216.443834 
L 191.062565 169.35054 
L 185.533585 169.35054 
z
" clip-path="url(#p658ef5c98d)" style="fill: #228b22"/>
   </g>
   <g id="patch_42">
    <path d="M 206.267259 216.443834 
L 211.796239 216.443834 
L 211.796239 120.575342 
L 206.267259 120.575342 
z
" clip-path="url(#p658ef5c98d)" style="fill: #228b22"/>
   </g>
   <g id="patch_43">
    <path d="M 227.000933 216.443834 
L 232.529913 216.443834 
L 232.529913 116.407147 
L 227.000933 116.407147 
z
" clip-path="url(#p658ef5c98d)" style="fill: #228b22"/>
   </g>
   <g id="patch_44">
    <path d="M 247.734607 216.443834 
L 253.263587 216.443834 
L 253.263587 150.70544 
L 247.734607 150.70544 
z
" clip-path="url(#p658ef5c98d)" style="fill: #228b22"/>
   </g>
   <g id="patch_45">
    <path d="M 268.468281 216.443834 
L 273.997261 216.443834 
L 273.997261 186.618081 
L 268.468281 186.618081 
z
" clip-path="url(#p658ef5c98d)" style="fill: #228b22"/>
   </g>
   <g id="patch_46">
    <path d="M 289.201955 216.443834 
L 294.730935 216.443834 
L 294.730935 109.390684 
L 289.201955 109.390684 
z
" clip-path="url(#p658ef5c98d)" style="fill: #228b22"/>
   </g>
   <g id="patch_47">
    <path d="M 309.935629 216.443834 
L 315.464609 216.443834 
L 315.464609 55.723126 
L 309.935629 55.723126 
z
" clip-path="url(#p658ef5c98d)" style="fill: #228b22"/>
   </g>
   <g id="patch_48">
    <path d="M 330.669303 216.443834 
L 336.198283 216.443834 
L 336.198283 138.933138 
L 330.669303 138.933138 
z
" clip-path="url(#p658ef5c98d)" style="fill: #228b22"/>
   </g>
   <g id="patch_49">
    <path d="M 351.402977 216.443834 
L 356.931957 216.443834 
L 356.931957 185.307059 
L 351.402977 185.307059 
z
" clip-path="url(#p658ef5c98d)" style="fill: #228b22"/>
   </g>
   <g id="patch_50">
    <path d="M 372.136651 216.443834 
L 377.665631 216.443834 
L 377.665631 102.599999 
L 372.136651 102.599999 
z
" clip-path="url(#p658ef5c98d)" style="fill: #228b22"/>
   </g>
   <g id="patch_51">
    <path d="M 392.870325 216.443834 
L 398.399305 216.443834 
L 398.399305 216.443834 
L 392.870325 216.443834 
z
" clip-path="url(#p658ef5c98d)" style="fill: #228b22"/>
   </g>
   <g id="patch_52">
    <path d="M 413.603999 216.443834 
L 419.132979 216.443834 
L 419.132979 149.388277 
L 413.603999 149.388277 
z
" clip-path="url(#p658ef5c98d)" style="fill: #228b22"/>
   </g>
   <g id="patch_53">
    <path d="M 434.337673 216.443834 
L 439.866653 216.443834 
L 439.866653 120.575342 
L 434.337673 120.575342 
z
" clip-path="url(#p658ef5c98d)" style="fill: #228b22"/>
   </g>
   <g id="patch_54">
    <path d="M 455.071347 216.443834 
L 460.600327 216.443834 
L 460.600327 96.270654 
L 455.071347 96.270654 
z
" clip-path="url(#p658ef5c98d)" style="fill: #228b22"/>
   </g>
   <g id="patch_55">
    <path d="M 475.805021 216.443834 
L 481.334001 216.443834 
L 481.334001 106.879843 
L 475.805021 106.879843 
z
" clip-path="url(#p658ef5c98d)" style="fill: #228b22"/>
   </g>
   <g id="patch_56">
    <path d="M 496.538695 216.443834 
L 502.067675 216.443834 
L 502.067675 208.454793 
L 496.538695 208.454793 
z
" clip-path="url(#p658ef5c98d)" style="fill: #228b22"/>
   </g>
   <g id="patch_57">
    <path d="M 517.272369 216.443834 
L 522.801349 216.443834 
L 522.801349 73.870179 
L 517.272369 73.870179 
z
" clip-path="url(#p658ef5c98d)" style="fill: #228b22"/>
   </g>
   <g id="patch_58">
    <path d="M 538.006043 216.443834 
L 543.535023 216.443834 
L 543.535023 189.927017 
L 538.006043 189.927017 
z
" clip-path="url(#p658ef5c98d)" style="fill: #228b22"/>
   </g>
   <g id="patch_59">
    <path d="M 558.739717 216.443834 
L 564.268697 216.443834 
L 564.268697 216.443834 
L 558.739717 216.443834 
z
" clip-path="url(#p658ef5c98d)" style="fill: #228b22"/>
   </g>
   <g id="patch_60">
    <path d="M 579.473391 216.443834 
L 585.002371 216.443834 
L 585.002371 216.443834 
L 579.473391 216.443834 
z
" clip-path="url(#p658ef5c98d)" style="fill: #228b22"/>
   </g>
   <g id="patch_61">
    <path d="M 600.207065 216.443834 
L 605.736045 216.443834 
L 605.736045 49.011538 
L 600.207065 49.011538 
z
" clip-path="url(#p658ef5c98d)" style="fill: #228b22"/>
   </g>
   <g id="patch_62">
    <path d="M 620.940739 216.443834 
L 626.469719 216.443834 
L 626.469719 106.385421 
L 620.940739 106.385421 
z
" clip-path="url(#p658ef5c98d)" style="fill: #228b22"/>
   </g>
   <g id="patch_63">
    <path d="M 641.674413 216.443834 
L 647.203393 216.443834 
L 647.203393 50.271781 
L 641.674413 50.271781 
z
" clip-path="url(#p658ef5c98d)" style="fill: #228b22"/>
   </g>
   <g id="patch_64">
    <path d="M 662.408087 216.443834 
L 667.937067 216.443834 
L 667.937067 24.706849 
L 662.408087 24.706849 
z
" clip-path="url(#p658ef5c98d)" style="fill: #228b22"/>
   </g>
   <g id="patch_65">
    <path d="M 683.141761 216.443834 
L 688.670741 216.443834 
L 688.670741 25.57542 
L 683.141761 25.57542 
z
" clip-path="url(#p658ef5c98d)" style="fill: #228b22"/>
   </g>
   <g id="patch_66">
    <path d="M 703.875435 216.443834 
L 709.404415 216.443834 
L 709.404415 24.706849 
L 703.875435 24.706849 
z
" clip-path="url(#p658ef5c98d)" style="fill: #228b22"/>
   </g>
   <g id="patch_67">
    <path d="M 724.609109 216.443834 
L 730.138089 216.443834 
L 730.138089 134.270841 
L 724.609109 134.270841 
z
" clip-path="url(#p658ef5c98d)" style="fill: #228b22"/>
   </g>
   <g id="patch_68">
    <path d="M 745.342783 216.443834 
L 750.871763 216.443834 
L 750.871763 187.826374 
L 745.342783 187.826374 
z
" clip-path="url(#p658ef5c98d)" style="fill: #228b22"/>
   </g>
   <g id="patch_69">
    <path d="M 766.076457 216.443834 
L 771.605437 216.443834 
L 771.605437 155.436612 
L 766.076457 155.436612 
z
" clip-path="url(#p658ef5c98d)" style="fill: #228b22"/>
   </g>
   <g id="patch_70">
    <path d="M 786.810131 216.443834 
L 792.339111 216.443834 
L 792.339111 197.270136 
L 786.810131 197.270136 
z
" clip-path="url(#p658ef5c98d)" style="fill: #228b22"/>
   </g>
   <g id="patch_71">
    <path d="M 108.127869 216.443834 
L 113.656848 216.443834 
L 113.656848 24.706849 
L 108.127869 24.706849 
z
" clip-path="url(#p658ef5c98d)" style="fill: #0000cd"/>
   </g>
   <g id="patch_72">
    <path d="M 128.861543 216.443834 
L 134.390522 216.443834 
L 134.390522 123.314442 
L 128.861543 123.314442 
z
" clip-path="url(#p658ef5c98d)" style="fill: #0000cd"/>
   </g>
   <g id="patch_73">
    <path d="M 149.595217 216.443834 
L 155.124196 216.443834 
L 155.124196 27.333383 
L 149.595217 27.333383 
z
" clip-path="url(#p658ef5c98d)" style="fill: #0000cd"/>
   </g>
   <g id="patch_74">
    <path d="M 170.328891 216.443834 
L 175.85787 216.443834 
L 175.85787 131.853988 
L 170.328891 131.853988 
z
" clip-path="url(#p658ef5c98d)" style="fill: #0000cd"/>
   </g>
   <g id="patch_75">
    <path d="M 191.062565 216.443834 
L 196.591544 216.443834 
L 196.591544 144.121989 
L 191.062565 144.121989 
z
" clip-path="url(#p658ef5c98d)" style="fill: #0000cd"/>
   </g>
   <g id="patch_76">
    <path d="M 211.796239 216.443834 
L 217.325218 216.443834 
L 217.325218 31.098082 
L 211.796239 31.098082 
z
" clip-path="url(#p658ef5c98d)" style="fill: #0000cd"/>
   </g>
   <g id="patch_77">
    <path d="M 232.529913 216.443834 
L 238.058892 216.443834 
L 238.058892 133.079928 
L 232.529913 133.079928 
z
" clip-path="url(#p658ef5c98d)" style="fill: #0000cd"/>
   </g>
   <g id="patch_78">
    <path d="M 253.263587 216.443834 
L 258.792566 216.443834 
L 258.792566 128.792641 
L 253.263587 128.792641 
z
" clip-path="url(#p658ef5c98d)" style="fill: #0000cd"/>
   </g>
   <g id="patch_79">
    <path d="M 273.997261 216.443834 
L 279.52624 216.443834 
L 279.52624 182.357259 
L 273.997261 182.357259 
z
" clip-path="url(#p658ef5c98d)" style="fill: #0000cd"/>
   </g>
   <g id="patch_80">
    <path d="M 294.730935 216.443834 
L 300.259914 216.443834 
L 300.259914 67.847671 
L 294.730935 67.847671 
z
" clip-path="url(#p658ef5c98d)" style="fill: #0000cd"/>
   </g>
   <g id="patch_81">
    <path d="M 315.464609 216.443834 
L 320.993588 216.443834 
L 320.993588 58.542788 
L 315.464609 58.542788 
z
" clip-path="url(#p658ef5c98d)" style="fill: #0000cd"/>
   </g>
   <g id="patch_82">
    <path d="M 336.198283 216.443834 
L 341.727263 216.443834 
L 341.727263 136.893383 
L 336.198283 136.893383 
z
" clip-path="url(#p658ef5c98d)" style="fill: #0000cd"/>
   </g>
   <g id="patch_83">
    <path d="M 356.931957 216.443834 
L 362.460937 216.443834 
L 362.460937 190.223392 
L 356.931957 190.223392 
z
" clip-path="url(#p658ef5c98d)" style="fill: #0000cd"/>
   </g>
   <g id="patch_84">
    <path d="M 377.665631 216.443834 
L 383.194611 216.443834 
L 383.194611 104.311937 
L 377.665631 104.311937 
z
" clip-path="url(#p658ef5c98d)" style="fill: #0000cd"/>
   </g>
   <g id="patch_85">
    <path d="M 398.399305 216.443834 
L 403.928285 216.443834 
L 403.928285 184.48767 
L 398.399305 184.48767 
z
" clip-path="url(#p658ef5c98d)" style="fill: #0000cd"/>
   </g>
   <g id="patch_86">
    <path d="M 419.132979 216.443834 
L 424.661959 216.443834 
L 424.661959 163.008937 
L 419.132979 163.008937 
z
" clip-path="url(#p658ef5c98d)" style="fill: #0000cd"/>
   </g>
   <g id="patch_87">
    <path d="M 439.866653 216.443834 
L 445.395633 216.443834 
L 445.395633 120.575342 
L 439.866653 120.575342 
z
" clip-path="url(#p658ef5c98d)" style="fill: #0000cd"/>
   </g>
   <g id="patch_88">
    <path d="M 460.600327 216.443834 
L 466.129307 216.443834 
L 466.129307 100.321435 
L 460.600327 100.321435 
z
" clip-path="url(#p658ef5c98d)" style="fill: #0000cd"/>
   </g>
   <g id="patch_89">
    <path d="M 481.334001 216.443834 
L 486.862981 216.443834 
L 486.862981 52.097847 
L 481.334001 52.097847 
z
" clip-path="url(#p658ef5c98d)" style="fill: #0000cd"/>
   </g>
   <g id="patch_90">
    <path d="M 502.067675 216.443834 
L 507.596655 216.443834 
L 507.596655 195.139725 
L 502.067675 195.139725 
z
" clip-path="url(#p658ef5c98d)" style="fill: #0000cd"/>
   </g>
   <g id="patch_91">
    <path d="M 522.801349 216.443834 
L 528.330329 216.443834 
L 528.330329 113.200842 
L 522.801349 113.200842 
z
" clip-path="url(#p658ef5c98d)" style="fill: #0000cd"/>
   </g>
   <g id="patch_92">
    <path d="M 543.535023 216.443834 
L 549.064003 216.443834 
L 549.064003 194.006528 
L 543.535023 194.006528 
z
" clip-path="url(#p658ef5c98d)" style="fill: #0000cd"/>
   </g>
   <g id="patch_93">
    <path d="M 564.268697 216.443834 
L 569.797677 216.443834 
L 569.797677 104.968843 
L 564.268697 104.968843 
z
" clip-path="url(#p658ef5c98d)" style="fill: #0000cd"/>
   </g>
   <g id="patch_94">
    <path d="M 585.002371 216.443834 
L 590.531351 216.443834 
L 590.531351 216.443834 
L 585.002371 216.443834 
z
" clip-path="url(#p658ef5c98d)" style="fill: #0000cd"/>
   </g>
   <g id="patch_95">
    <path d="M 605.736045 216.443834 
L 611.265025 216.443834 
L 611.265025 49.011538 
L 605.736045 49.011538 
z
" clip-path="url(#p658ef5c98d)" style="fill: #0000cd"/>
   </g>
   <g id="patch_96">
    <path d="M 626.469719 216.443834 
L 631.998699 216.443834 
L 631.998699 96.002551 
L 626.469719 96.002551 
z
" clip-path="url(#p658ef5c98d)" style="fill: #0000cd"/>
   </g>
   <g id="patch_97">
    <path d="M 647.203393 216.443834 
L 652.732373 216.443834 
L 652.732373 178.096437 
L 647.203393 178.096437 
z
" clip-path="url(#p658ef5c98d)" style="fill: #0000cd"/>
   </g>
   <g id="patch_98">
    <path d="M 667.937067 216.443834 
L 673.466047 216.443834 
L 673.466047 24.706849 
L 667.937067 24.706849 
z
" clip-path="url(#p658ef5c98d)" style="fill: #0000cd"/>
   </g>
   <g id="patch_99">
    <path d="M 688.670741 216.443834 
L 694.199721 216.443834 
L 694.199721 25.792563 
L 688.670741 25.792563 
z
" clip-path="url(#p658ef5c98d)" style="fill: #0000cd"/>
   </g>
   <g id="patch_100">
    <path d="M 709.404415 216.443834 
L 714.933395 216.443834 
L 714.933395 216.443834 
L 709.404415 216.443834 
z
" clip-path="url(#p658ef5c98d)" style="fill: #0000cd"/>
   </g>
   <g id="patch_101">
    <path d="M 730.138089 216.443834 
L 735.667069 216.443834 
L 735.667069 178.096437 
L 730.138089 178.096437 
z
" clip-path="url(#p658ef5c98d)" style="fill: #0000cd"/>
   </g>
   <g id="patch_102">
    <path d="M 750.871763 216.443834 
L 756.400743 216.443834 
L 756.400743 167.794152 
L 750.871763 167.794152 
z
" clip-path="url(#p658ef5c98d)" style="fill: #0000cd"/>
   </g>
   <g id="patch_103">
    <path d="M 771.605437 216.443834 
L 777.134417 216.443834 
L 777.134417 185.940223 
L 771.605437 185.940223 
z
" clip-path="url(#p658ef5c98d)" style="fill: #0000cd"/>
   </g>
   <g id="patch_104">
    <path d="M 792.339111 216.443834 
L 797.868091 216.443834 
L 797.868091 75.836712 
L 792.339111 75.836712 
z
" clip-path="url(#p658ef5c98d)" style="fill: #0000cd"/>
   </g>
   <g id="matplotlib.axis_1">
    <g id="xtick_1">
     <g id="line2d_1">
      <defs>
       <path id="mb688341afe" d="M 0 0 
L 0 3.5 
" style="stroke: #000000; stroke-width: 0.8"/>
      </defs>
      <g>
       <use xlink:href="#mb688341afe" x="105.363379" y="216.443834" style="stroke: #000000; stroke-width: 0.8"/>
      </g>
     </g>
     <g id="text_1">
      <!-- 1.- -->
      <g transform="translate(101.586876 243.982193) rotate(-45) scale(0.14 -0.14)">
       <defs>
        <path id="DejaVuSans-31" d="M 794 531 
L 1825 531 
L 1825 4091 
L 703 3866 
L 703 4441 
L 1819 4666 
L 2450 4666 
L 2450 531 
L 3481 531 
L 3481 0 
L 794 0 
L 794 531 
z
" transform="scale(0.015625)"/>
        <path id="DejaVuSans-2e" d="M 684 794 
L 1344 794 
L 1344 0 
L 684 0 
L 684 794 
z
" transform="scale(0.015625)"/>
        <path id="DejaVuSans-2d" d="M 313 2009 
L 1997 2009 
L 1997 1497 
L 313 1497 
L 313 2009 
z
" transform="scale(0.015625)"/>
       </defs>
       <use xlink:href="#DejaVuSans-31"/>
       <use xlink:href="#DejaVuSans-2e" x="63.623047"/>
       <use xlink:href="#DejaVuSans-2d" x="95.410156"/>
      </g>
     </g>
    </g>
    <g id="xtick_2">
     <g id="line2d_2">
      <g>
       <use xlink:href="#mb688341afe" x="126.097053" y="216.443834" style="stroke: #000000; stroke-width: 0.8"/>
      </g>
     </g>
     <g id="text_2">
      <!-- 1.1 -->
      <g transform="translate(120.957049 246.709194) rotate(-45) scale(0.14 -0.14)">
       <use xlink:href="#DejaVuSans-31"/>
       <use xlink:href="#DejaVuSans-2e" x="63.623047"/>
       <use xlink:href="#DejaVuSans-31" x="95.410156"/>
      </g>
     </g>
    </g>
    <g id="xtick_3">
     <g id="line2d_3">
      <g>
       <use xlink:href="#mb688341afe" x="146.830727" y="216.443834" style="stroke: #000000; stroke-width: 0.8"/>
      </g>
     </g>
     <g id="text_3">
      <!-- 1.11 -->
      <g transform="translate(138.541447 253.007748) rotate(-45) scale(0.14 -0.14)">
       <use xlink:href="#DejaVuSans-31"/>
       <use xlink:href="#DejaVuSans-2e" x="63.623047"/>
       <use xlink:href="#DejaVuSans-31" x="95.410156"/>
       <use xlink:href="#DejaVuSans-31" x="159.033203"/>
      </g>
     </g>
    </g>
    <g id="xtick_4">
     <g id="line2d_4">
      <g>
       <use xlink:href="#mb688341afe" x="167.564401" y="216.443834" style="stroke: #000000; stroke-width: 0.8"/>
      </g>
     </g>
     <g id="text_4">
      <!-- 1.13 -->
      <g transform="translate(159.275121 253.007748) rotate(-45) scale(0.14 -0.14)">
       <defs>
        <path id="DejaVuSans-33" d="M 2597 2516 
Q 3050 2419 3304 2112 
Q 3559 1806 3559 1356 
Q 3559 666 3084 287 
Q 2609 -91 1734 -91 
Q 1441 -91 1130 -33 
Q 819 25 488 141 
L 488 750 
Q 750 597 1062 519 
Q 1375 441 1716 441 
Q 2309 441 2620 675 
Q 2931 909 2931 1356 
Q 2931 1769 2642 2001 
Q 2353 2234 1838 2234 
L 1294 2234 
L 1294 2753 
L 1863 2753 
Q 2328 2753 2575 2939 
Q 2822 3125 2822 3475 
Q 2822 3834 2567 4026 
Q 2313 4219 1838 4219 
Q 1578 4219 1281 4162 
Q 984 4106 628 3988 
L 628 4550 
Q 988 4650 1302 4700 
Q 1616 4750 1894 4750 
Q 2613 4750 3031 4423 
Q 3450 4097 3450 3541 
Q 3450 3153 3228 2886 
Q 3006 2619 2597 2516 
z
" transform="scale(0.015625)"/>
       </defs>
       <use xlink:href="#DejaVuSans-31"/>
       <use xlink:href="#DejaVuSans-2e" x="63.623047"/>
       <use xlink:href="#DejaVuSans-31" x="95.410156"/>
       <use xlink:href="#DejaVuSans-33" x="159.033203"/>
      </g>
     </g>
    </g>
    <g id="xtick_5">
     <g id="line2d_5">
      <g>
       <use xlink:href="#mb688341afe" x="188.298075" y="216.443834" style="stroke: #000000; stroke-width: 0.8"/>
      </g>
     </g>
     <g id="text_5">
      <!-- 1.14 -->
      <g transform="translate(180.008795 253.007748) rotate(-45) scale(0.14 -0.14)">
       <defs>
        <path id="DejaVuSans-34" d="M 2419 4116 
L 825 1625 
L 2419 1625 
L 2419 4116 
z
M 2253 4666 
L 3047 4666 
L 3047 1625 
L 3713 1625 
L 3713 1100 
L 3047 1100 
L 3047 0 
L 2419 0 
L 2419 1100 
L 313 1100 
L 313 1709 
L 2253 4666 
z
" transform="scale(0.015625)"/>
       </defs>
       <use xlink:href="#DejaVuSans-31"/>
       <use xlink:href="#DejaVuSans-2e" x="63.623047"/>
       <use xlink:href="#DejaVuSans-31" x="95.410156"/>
       <use xlink:href="#DejaVuSans-34" x="159.033203"/>
      </g>
     </g>
    </g>
    <g id="xtick_6">
     <g id="line2d_6">
      <g>
       <use xlink:href="#mb688341afe" x="209.031749" y="216.443834" style="stroke: #000000; stroke-width: 0.8"/>
      </g>
     </g>
     <g id="text_6">
      <!-- 1.2 -->
      <g transform="translate(203.891745 246.709194) rotate(-45) scale(0.14 -0.14)">
       <defs>
        <path id="DejaVuSans-32" d="M 1228 531 
L 3431 531 
L 3431 0 
L 469 0 
L 469 531 
Q 828 903 1448 1529 
Q 2069 2156 2228 2338 
Q 2531 2678 2651 2914 
Q 2772 3150 2772 3378 
Q 2772 3750 2511 3984 
Q 2250 4219 1831 4219 
Q 1534 4219 1204 4116 
Q 875 4013 500 3803 
L 500 4441 
Q 881 4594 1212 4672 
Q 1544 4750 1819 4750 
Q 2544 4750 2975 4387 
Q 3406 4025 3406 3419 
Q 3406 3131 3298 2873 
Q 3191 2616 2906 2266 
Q 2828 2175 2409 1742 
Q 1991 1309 1228 531 
z
" transform="scale(0.015625)"/>
       </defs>
       <use xlink:href="#DejaVuSans-31"/>
       <use xlink:href="#DejaVuSans-2e" x="63.623047"/>
       <use xlink:href="#DejaVuSans-32" x="95.410156"/>
      </g>
     </g>
    </g>
    <g id="xtick_7">
     <g id="line2d_7">
      <g>
       <use xlink:href="#mb688341afe" x="229.765423" y="216.443834" style="stroke: #000000; stroke-width: 0.8"/>
      </g>
     </g>
     <g id="text_7">
      <!-- 1.3 -->
      <g transform="translate(224.625419 246.709194) rotate(-45) scale(0.14 -0.14)">
       <use xlink:href="#DejaVuSans-31"/>
       <use xlink:href="#DejaVuSans-2e" x="63.623047"/>
       <use xlink:href="#DejaVuSans-33" x="95.410156"/>
      </g>
     </g>
    </g>
    <g id="xtick_8">
     <g id="line2d_8">
      <g>
       <use xlink:href="#mb688341afe" x="250.499097" y="216.443834" style="stroke: #000000; stroke-width: 0.8"/>
      </g>
     </g>
     <g id="text_8">
      <!-- 1.4 -->
      <g transform="translate(245.359093 246.709194) rotate(-45) scale(0.14 -0.14)">
       <use xlink:href="#DejaVuSans-31"/>
       <use xlink:href="#DejaVuSans-2e" x="63.623047"/>
       <use xlink:href="#DejaVuSans-34" x="95.410156"/>
      </g>
     </g>
    </g>
    <g id="xtick_9">
     <g id="line2d_9">
      <g>
       <use xlink:href="#mb688341afe" x="271.232771" y="216.443834" style="stroke: #000000; stroke-width: 0.8"/>
      </g>
     </g>
     <g id="text_9">
      <!-- 1.5 -->
      <g transform="translate(266.092767 246.709194) rotate(-45) scale(0.14 -0.14)">
       <defs>
        <path id="DejaVuSans-35" d="M 691 4666 
L 3169 4666 
L 3169 4134 
L 1269 4134 
L 1269 2991 
Q 1406 3038 1543 3061 
Q 1681 3084 1819 3084 
Q 2600 3084 3056 2656 
Q 3513 2228 3513 1497 
Q 3513 744 3044 326 
Q 2575 -91 1722 -91 
Q 1428 -91 1123 -41 
Q 819 9 494 109 
L 494 744 
Q 775 591 1075 516 
Q 1375 441 1709 441 
Q 2250 441 2565 725 
Q 2881 1009 2881 1497 
Q 2881 1984 2565 2268 
Q 2250 2553 1709 2553 
Q 1456 2553 1204 2497 
Q 953 2441 691 2322 
L 691 4666 
z
" transform="scale(0.015625)"/>
       </defs>
       <use xlink:href="#DejaVuSans-31"/>
       <use xlink:href="#DejaVuSans-2e" x="63.623047"/>
       <use xlink:href="#DejaVuSans-35" x="95.410156"/>
      </g>
     </g>
    </g>
    <g id="xtick_10">
     <g id="line2d_10">
      <g>
       <use xlink:href="#mb688341afe" x="291.966445" y="216.443834" style="stroke: #000000; stroke-width: 0.8"/>
      </g>
     </g>
     <g id="text_10">
      <!-- 1.8 -->
      <g transform="translate(286.826441 246.709194) rotate(-45) scale(0.14 -0.14)">
       <defs>
        <path id="DejaVuSans-38" d="M 2034 2216 
Q 1584 2216 1326 1975 
Q 1069 1734 1069 1313 
Q 1069 891 1326 650 
Q 1584 409 2034 409 
Q 2484 409 2743 651 
Q 3003 894 3003 1313 
Q 3003 1734 2745 1975 
Q 2488 2216 2034 2216 
z
M 1403 2484 
Q 997 2584 770 2862 
Q 544 3141 544 3541 
Q 544 4100 942 4425 
Q 1341 4750 2034 4750 
Q 2731 4750 3128 4425 
Q 3525 4100 3525 3541 
Q 3525 3141 3298 2862 
Q 3072 2584 2669 2484 
Q 3125 2378 3379 2068 
Q 3634 1759 3634 1313 
Q 3634 634 3220 271 
Q 2806 -91 2034 -91 
Q 1263 -91 848 271 
Q 434 634 434 1313 
Q 434 1759 690 2068 
Q 947 2378 1403 2484 
z
M 1172 3481 
Q 1172 3119 1398 2916 
Q 1625 2713 2034 2713 
Q 2441 2713 2670 2916 
Q 2900 3119 2900 3481 
Q 2900 3844 2670 4047 
Q 2441 4250 2034 4250 
Q 1625 4250 1398 4047 
Q 1172 3844 1172 3481 
z
" transform="scale(0.015625)"/>
       </defs>
       <use xlink:href="#DejaVuSans-31"/>
       <use xlink:href="#DejaVuSans-2e" x="63.623047"/>
       <use xlink:href="#DejaVuSans-38" x="95.410156"/>
      </g>
     </g>
    </g>
    <g id="xtick_11">
     <g id="line2d_11">
      <g>
       <use xlink:href="#mb688341afe" x="312.700119" y="216.443834" style="stroke: #000000; stroke-width: 0.8"/>
      </g>
     </g>
     <g id="text_11">
      <!-- 2.1 -->
      <g transform="translate(307.560115 246.709194) rotate(-45) scale(0.14 -0.14)">
       <use xlink:href="#DejaVuSans-32"/>
       <use xlink:href="#DejaVuSans-2e" x="63.623047"/>
       <use xlink:href="#DejaVuSans-31" x="95.410156"/>
      </g>
     </g>
    </g>
    <g id="xtick_12">
     <g id="line2d_12">
      <g>
       <use xlink:href="#mb688341afe" x="333.433793" y="216.443834" style="stroke: #000000; stroke-width: 0.8"/>
      </g>
     </g>
     <g id="text_12">
      <!-- 2.3 -->
      <g transform="translate(328.29379 246.709194) rotate(-45) scale(0.14 -0.14)">
       <use xlink:href="#DejaVuSans-32"/>
       <use xlink:href="#DejaVuSans-2e" x="63.623047"/>
       <use xlink:href="#DejaVuSans-33" x="95.410156"/>
      </g>
     </g>
    </g>
    <g id="xtick_13">
     <g id="line2d_13">
      <g>
       <use xlink:href="#mb688341afe" x="354.167467" y="216.443834" style="stroke: #000000; stroke-width: 0.8"/>
      </g>
     </g>
     <g id="text_13">
      <!-- 2.4 -->
      <g transform="translate(349.027464 246.709194) rotate(-45) scale(0.14 -0.14)">
       <use xlink:href="#DejaVuSans-32"/>
       <use xlink:href="#DejaVuSans-2e" x="63.623047"/>
       <use xlink:href="#DejaVuSans-34" x="95.410156"/>
      </g>
     </g>
    </g>
    <g id="xtick_14">
     <g id="line2d_14">
      <g>
       <use xlink:href="#mb688341afe" x="374.901141" y="216.443834" style="stroke: #000000; stroke-width: 0.8"/>
      </g>
     </g>
     <g id="text_14">
      <!-- 2.5 -->
      <g transform="translate(369.761138 246.709194) rotate(-45) scale(0.14 -0.14)">
       <use xlink:href="#DejaVuSans-32"/>
       <use xlink:href="#DejaVuSans-2e" x="63.623047"/>
       <use xlink:href="#DejaVuSans-35" x="95.410156"/>
      </g>
     </g>
    </g>
    <g id="xtick_15">
     <g id="line2d_15">
      <g>
       <use xlink:href="#mb688341afe" x="395.634815" y="216.443834" style="stroke: #000000; stroke-width: 0.8"/>
      </g>
     </g>
     <g id="text_15">
      <!-- 2.6 -->
      <g transform="translate(390.494812 246.709194) rotate(-45) scale(0.14 -0.14)">
       <defs>
        <path id="DejaVuSans-36" d="M 2113 2584 
Q 1688 2584 1439 2293 
Q 1191 2003 1191 1497 
Q 1191 994 1439 701 
Q 1688 409 2113 409 
Q 2538 409 2786 701 
Q 3034 994 3034 1497 
Q 3034 2003 2786 2293 
Q 2538 2584 2113 2584 
z
M 3366 4563 
L 3366 3988 
Q 3128 4100 2886 4159 
Q 2644 4219 2406 4219 
Q 1781 4219 1451 3797 
Q 1122 3375 1075 2522 
Q 1259 2794 1537 2939 
Q 1816 3084 2150 3084 
Q 2853 3084 3261 2657 
Q 3669 2231 3669 1497 
Q 3669 778 3244 343 
Q 2819 -91 2113 -91 
Q 1303 -91 875 529 
Q 447 1150 447 2328 
Q 447 3434 972 4092 
Q 1497 4750 2381 4750 
Q 2619 4750 2861 4703 
Q 3103 4656 3366 4563 
z
" transform="scale(0.015625)"/>
       </defs>
       <use xlink:href="#DejaVuSans-32"/>
       <use xlink:href="#DejaVuSans-2e" x="63.623047"/>
       <use xlink:href="#DejaVuSans-36" x="95.410156"/>
      </g>
     </g>
    </g>
    <g id="xtick_16">
     <g id="line2d_16">
      <g>
       <use xlink:href="#mb688341afe" x="416.368489" y="216.443834" style="stroke: #000000; stroke-width: 0.8"/>
      </g>
     </g>
     <g id="text_16">
      <!-- 2.7 -->
      <g transform="translate(411.228486 246.709194) rotate(-45) scale(0.14 -0.14)">
       <defs>
        <path id="DejaVuSans-37" d="M 525 4666 
L 3525 4666 
L 3525 4397 
L 1831 0 
L 1172 0 
L 2766 4134 
L 525 4134 
L 525 4666 
z
" transform="scale(0.015625)"/>
       </defs>
       <use xlink:href="#DejaVuSans-32"/>
       <use xlink:href="#DejaVuSans-2e" x="63.623047"/>
       <use xlink:href="#DejaVuSans-37" x="95.410156"/>
      </g>
     </g>
    </g>
    <g id="xtick_17">
     <g id="line2d_17">
      <g>
       <use xlink:href="#mb688341afe" x="437.102163" y="216.443834" style="stroke: #000000; stroke-width: 0.8"/>
      </g>
     </g>
     <g id="text_17">
      <!-- 2.8 -->
      <g transform="translate(431.96216 246.709194) rotate(-45) scale(0.14 -0.14)">
       <use xlink:href="#DejaVuSans-32"/>
       <use xlink:href="#DejaVuSans-2e" x="63.623047"/>
       <use xlink:href="#DejaVuSans-38" x="95.410156"/>
      </g>
     </g>
    </g>
    <g id="xtick_18">
     <g id="line2d_18">
      <g>
       <use xlink:href="#mb688341afe" x="457.835837" y="216.443834" style="stroke: #000000; stroke-width: 0.8"/>
      </g>
     </g>
     <g id="text_18">
      <!-- 3.1 -->
      <g transform="translate(452.695834 246.709194) rotate(-45) scale(0.14 -0.14)">
       <use xlink:href="#DejaVuSans-33"/>
       <use xlink:href="#DejaVuSans-2e" x="63.623047"/>
       <use xlink:href="#DejaVuSans-31" x="95.410156"/>
      </g>
     </g>
    </g>
    <g id="xtick_19">
     <g id="line2d_19">
      <g>
       <use xlink:href="#mb688341afe" x="478.569511" y="216.443834" style="stroke: #000000; stroke-width: 0.8"/>
      </g>
     </g>
     <g id="text_19">
      <!-- 3.13 -->
      <g transform="translate(470.280231 253.007748) rotate(-45) scale(0.14 -0.14)">
       <use xlink:href="#DejaVuSans-33"/>
       <use xlink:href="#DejaVuSans-2e" x="63.623047"/>
       <use xlink:href="#DejaVuSans-31" x="95.410156"/>
       <use xlink:href="#DejaVuSans-33" x="159.033203"/>
      </g>
     </g>
    </g>
    <g id="xtick_20">
     <g id="line2d_20">
      <g>
       <use xlink:href="#mb688341afe" x="499.303185" y="216.443834" style="stroke: #000000; stroke-width: 0.8"/>
      </g>
     </g>
     <g id="text_20">
      <!-- 3.2 -->
      <g transform="translate(494.163182 246.709194) rotate(-45) scale(0.14 -0.14)">
       <use xlink:href="#DejaVuSans-33"/>
       <use xlink:href="#DejaVuSans-2e" x="63.623047"/>
       <use xlink:href="#DejaVuSans-32" x="95.410156"/>
      </g>
     </g>
    </g>
    <g id="xtick_21">
     <g id="line2d_21">
      <g>
       <use xlink:href="#mb688341afe" x="520.036859" y="216.443834" style="stroke: #000000; stroke-width: 0.8"/>
      </g>
     </g>
     <g id="text_21">
      <!-- 3.4 -->
      <g transform="translate(514.896856 246.709194) rotate(-45) scale(0.14 -0.14)">
       <use xlink:href="#DejaVuSans-33"/>
       <use xlink:href="#DejaVuSans-2e" x="63.623047"/>
       <use xlink:href="#DejaVuSans-34" x="95.410156"/>
      </g>
     </g>
    </g>
    <g id="xtick_22">
     <g id="line2d_22">
      <g>
       <use xlink:href="#mb688341afe" x="540.770533" y="216.443834" style="stroke: #000000; stroke-width: 0.8"/>
      </g>
     </g>
     <g id="text_22">
      <!-- 3.5 -->
      <g transform="translate(535.63053 246.709194) rotate(-45) scale(0.14 -0.14)">
       <use xlink:href="#DejaVuSans-33"/>
       <use xlink:href="#DejaVuSans-2e" x="63.623047"/>
       <use xlink:href="#DejaVuSans-35" x="95.410156"/>
      </g>
     </g>
    </g>
    <g id="xtick_23">
     <g id="line2d_23">
      <g>
       <use xlink:href="#mb688341afe" x="561.504207" y="216.443834" style="stroke: #000000; stroke-width: 0.8"/>
      </g>
     </g>
     <g id="text_23">
      <!-- 3.6 -->
      <g transform="translate(556.364204 246.709194) rotate(-45) scale(0.14 -0.14)">
       <use xlink:href="#DejaVuSans-33"/>
       <use xlink:href="#DejaVuSans-2e" x="63.623047"/>
       <use xlink:href="#DejaVuSans-36" x="95.410156"/>
      </g>
     </g>
    </g>
    <g id="xtick_24">
     <g id="line2d_24">
      <g>
       <use xlink:href="#mb688341afe" x="582.237881" y="216.443834" style="stroke: #000000; stroke-width: 0.8"/>
      </g>
     </g>
     <g id="text_24">
      <!-- 3.7 -->
      <g transform="translate(577.097878 246.709194) rotate(-45) scale(0.14 -0.14)">
       <use xlink:href="#DejaVuSans-33"/>
       <use xlink:href="#DejaVuSans-2e" x="63.623047"/>
       <use xlink:href="#DejaVuSans-37" x="95.410156"/>
      </g>
     </g>
    </g>
    <g id="xtick_25">
     <g id="line2d_25">
      <g>
       <use xlink:href="#mb688341afe" x="602.971555" y="216.443834" style="stroke: #000000; stroke-width: 0.8"/>
      </g>
     </g>
     <g id="text_25">
      <!-- 4.1 -->
      <g transform="translate(597.831552 246.709194) rotate(-45) scale(0.14 -0.14)">
       <use xlink:href="#DejaVuSans-34"/>
       <use xlink:href="#DejaVuSans-2e" x="63.623047"/>
       <use xlink:href="#DejaVuSans-31" x="95.410156"/>
      </g>
     </g>
    </g>
    <g id="xtick_26">
     <g id="line2d_26">
      <g>
       <use xlink:href="#mb688341afe" x="623.705229" y="216.443834" style="stroke: #000000; stroke-width: 0.8"/>
      </g>
     </g>
     <g id="text_26">
      <!-- 4.2 -->
      <g transform="translate(618.565226 246.709194) rotate(-45) scale(0.14 -0.14)">
       <use xlink:href="#DejaVuSans-34"/>
       <use xlink:href="#DejaVuSans-2e" x="63.623047"/>
       <use xlink:href="#DejaVuSans-32" x="95.410156"/>
      </g>
     </g>
    </g>
    <g id="xtick_27">
     <g id="line2d_27">
      <g>
       <use xlink:href="#mb688341afe" x="644.438903" y="216.443834" style="stroke: #000000; stroke-width: 0.8"/>
      </g>
     </g>
     <g id="text_27">
      <!-- 4.3 -->
      <g transform="translate(639.2989 246.709194) rotate(-45) scale(0.14 -0.14)">
       <use xlink:href="#DejaVuSans-34"/>
       <use xlink:href="#DejaVuSans-2e" x="63.623047"/>
       <use xlink:href="#DejaVuSans-33" x="95.410156"/>
      </g>
     </g>
    </g>
    <g id="xtick_28">
     <g id="line2d_28">
      <g>
       <use xlink:href="#mb688341afe" x="665.172577" y="216.443834" style="stroke: #000000; stroke-width: 0.8"/>
      </g>
     </g>
     <g id="text_28">
      <!-- 4.4 -->
      <g transform="translate(660.032574 246.709194) rotate(-45) scale(0.14 -0.14)">
       <use xlink:href="#DejaVuSans-34"/>
       <use xlink:href="#DejaVuSans-2e" x="63.623047"/>
       <use xlink:href="#DejaVuSans-34" x="95.410156"/>
      </g>
     </g>
    </g>
    <g id="xtick_29">
     <g id="line2d_29">
      <g>
       <use xlink:href="#mb688341afe" x="685.906251" y="216.443834" style="stroke: #000000; stroke-width: 0.8"/>
      </g>
     </g>
     <g id="text_29">
      <!-- 4.6 -->
      <g transform="translate(680.766248 246.709194) rotate(-45) scale(0.14 -0.14)">
       <use xlink:href="#DejaVuSans-34"/>
       <use xlink:href="#DejaVuSans-2e" x="63.623047"/>
       <use xlink:href="#DejaVuSans-36" x="95.410156"/>
      </g>
     </g>
    </g>
    <g id="xtick_30">
     <g id="line2d_30">
      <g>
       <use xlink:href="#mb688341afe" x="706.639925" y="216.443834" style="stroke: #000000; stroke-width: 0.8"/>
      </g>
     </g>
     <g id="text_30">
      <!-- 4.8 -->
      <g transform="translate(701.499922 246.709194) rotate(-45) scale(0.14 -0.14)">
       <use xlink:href="#DejaVuSans-34"/>
       <use xlink:href="#DejaVuSans-2e" x="63.623047"/>
       <use xlink:href="#DejaVuSans-38" x="95.410156"/>
      </g>
     </g>
    </g>
    <g id="xtick_31">
     <g id="line2d_31">
      <g>
       <use xlink:href="#mb688341afe" x="727.373599" y="216.443834" style="stroke: #000000; stroke-width: 0.8"/>
      </g>
     </g>
     <g id="text_31">
      <!-- 5.3 -->
      <g transform="translate(722.233596 246.709194) rotate(-45) scale(0.14 -0.14)">
       <use xlink:href="#DejaVuSans-35"/>
       <use xlink:href="#DejaVuSans-2e" x="63.623047"/>
       <use xlink:href="#DejaVuSans-33" x="95.410156"/>
      </g>
     </g>
    </g>
    <g id="xtick_32">
     <g id="line2d_32">
      <g>
       <use xlink:href="#mb688341afe" x="748.107273" y="216.443834" style="stroke: #000000; stroke-width: 0.8"/>
      </g>
     </g>
     <g id="text_32">
      <!-- 5.4 -->
      <g transform="translate(742.96727 246.709194) rotate(-45) scale(0.14 -0.14)">
       <use xlink:href="#DejaVuSans-35"/>
       <use xlink:href="#DejaVuSans-2e" x="63.623047"/>
       <use xlink:href="#DejaVuSans-34" x="95.410156"/>
      </g>
     </g>
    </g>
    <g id="xtick_33">
     <g id="line2d_33">
      <g>
       <use xlink:href="#mb688341afe" x="768.840947" y="216.443834" style="stroke: #000000; stroke-width: 0.8"/>
      </g>
     </g>
     <g id="text_33">
      <!-- 5.5 -->
      <g transform="translate(763.700944 246.709194) rotate(-45) scale(0.14 -0.14)">
       <use xlink:href="#DejaVuSans-35"/>
       <use xlink:href="#DejaVuSans-2e" x="63.623047"/>
       <use xlink:href="#DejaVuSans-35" x="95.410156"/>
      </g>
     </g>
    </g>
    <g id="xtick_34">
     <g id="line2d_34">
      <g>
       <use xlink:href="#mb688341afe" x="789.574621" y="216.443834" style="stroke: #000000; stroke-width: 0.8"/>
      </g>
     </g>
     <g id="text_34">
      <!-- 6.3 -->
      <g transform="translate(784.434618 246.709194) rotate(-45) scale(0.14 -0.14)">
       <use xlink:href="#DejaVuSans-36"/>
       <use xlink:href="#DejaVuSans-2e" x="63.623047"/>
       <use xlink:href="#DejaVuSans-33" x="95.410156"/>
      </g>
     </g>
    </g>
    <g id="text_35">
     <!-- EC level 2 -->
     <g transform="translate(412.607906 269.704346) scale(0.14 -0.14)">
      <defs>
       <path id="DejaVuSans-45" d="M 628 4666 
L 3578 4666 
L 3578 4134 
L 1259 4134 
L 1259 2753 
L 3481 2753 
L 3481 2222 
L 1259 2222 
L 1259 531 
L 3634 531 
L 3634 0 
L 628 0 
L 628 4666 
z
" transform="scale(0.015625)"/>
       <path id="DejaVuSans-43" d="M 4122 4306 
L 4122 3641 
Q 3803 3938 3442 4084 
Q 3081 4231 2675 4231 
Q 1875 4231 1450 3742 
Q 1025 3253 1025 2328 
Q 1025 1406 1450 917 
Q 1875 428 2675 428 
Q 3081 428 3442 575 
Q 3803 722 4122 1019 
L 4122 359 
Q 3791 134 3420 21 
Q 3050 -91 2638 -91 
Q 1578 -91 968 557 
Q 359 1206 359 2328 
Q 359 3453 968 4101 
Q 1578 4750 2638 4750 
Q 3056 4750 3426 4639 
Q 3797 4528 4122 4306 
z
" transform="scale(0.015625)"/>
       <path id="DejaVuSans-20" transform="scale(0.015625)"/>
       <path id="DejaVuSans-6c" d="M 603 4863 
L 1178 4863 
L 1178 0 
L 603 0 
L 603 4863 
z
" transform="scale(0.015625)"/>
       <path id="DejaVuSans-65" d="M 3597 1894 
L 3597 1613 
L 953 1613 
Q 991 1019 1311 708 
Q 1631 397 2203 397 
Q 2534 397 2845 478 
Q 3156 559 3463 722 
L 3463 178 
Q 3153 47 2828 -22 
Q 2503 -91 2169 -91 
Q 1331 -91 842 396 
Q 353 884 353 1716 
Q 353 2575 817 3079 
Q 1281 3584 2069 3584 
Q 2775 3584 3186 3129 
Q 3597 2675 3597 1894 
z
M 3022 2063 
Q 3016 2534 2758 2815 
Q 2500 3097 2075 3097 
Q 1594 3097 1305 2825 
Q 1016 2553 972 2059 
L 3022 2063 
z
" transform="scale(0.015625)"/>
       <path id="DejaVuSans-76" d="M 191 3500 
L 800 3500 
L 1894 563 
L 2988 3500 
L 3597 3500 
L 2284 0 
L 1503 0 
L 191 3500 
z
" transform="scale(0.015625)"/>
      </defs>
      <use xlink:href="#DejaVuSans-45"/>
      <use xlink:href="#DejaVuSans-43" x="63.183594"/>
      <use xlink:href="#DejaVuSans-20" x="133.007812"/>
      <use xlink:href="#DejaVuSans-6c" x="164.794922"/>
      <use xlink:href="#DejaVuSans-65" x="192.578125"/>
      <use xlink:href="#DejaVuSans-76" x="254.101562"/>
      <use xlink:href="#DejaVuSans-65" x="313.28125"/>
      <use xlink:href="#DejaVuSans-6c" x="374.804688"/>
      <use xlink:href="#DejaVuSans-20" x="402.587891"/>
      <use xlink:href="#DejaVuSans-32" x="434.375"/>
     </g>
    </g>
   </g>
   <g id="matplotlib.axis_2">
    <g id="ytick_1">
     <g id="line2d_35">
      <defs>
       <path id="mb408c16fe5" d="M 0 0 
L -3.5 0 
" style="stroke: #000000; stroke-width: 0.8"/>
      </defs>
      <g>
       <use xlink:href="#mb408c16fe5" x="62.03" y="216.443834" style="stroke: #000000; stroke-width: 0.8"/>
      </g>
     </g>
     <g id="text_36">
      <!-- 0.0 -->
      <g transform="translate(32.765625 221.762741) scale(0.14 -0.14)">
       <defs>
        <path id="DejaVuSans-30" d="M 2034 4250 
Q 1547 4250 1301 3770 
Q 1056 3291 1056 2328 
Q 1056 1369 1301 889 
Q 1547 409 2034 409 
Q 2525 409 2770 889 
Q 3016 1369 3016 2328 
Q 3016 3291 2770 3770 
Q 2525 4250 2034 4250 
z
M 2034 4750 
Q 2819 4750 3233 4129 
Q 3647 3509 3647 2328 
Q 3647 1150 3233 529 
Q 2819 -91 2034 -91 
Q 1250 -91 836 529 
Q 422 1150 422 2328 
Q 422 3509 836 4129 
Q 1250 4750 2034 4750 
z
" transform="scale(0.015625)"/>
       </defs>
       <use xlink:href="#DejaVuSans-30"/>
       <use xlink:href="#DejaVuSans-2e" x="63.623047"/>
       <use xlink:href="#DejaVuSans-30" x="95.410156"/>
      </g>
     </g>
    </g>
    <g id="ytick_2">
     <g id="line2d_36">
      <g>
       <use xlink:href="#mb408c16fe5" x="62.03" y="178.096437" style="stroke: #000000; stroke-width: 0.8"/>
      </g>
     </g>
     <g id="text_37">
      <!-- 0.2 -->
      <g transform="translate(32.765625 183.415344) scale(0.14 -0.14)">
       <use xlink:href="#DejaVuSans-30"/>
       <use xlink:href="#DejaVuSans-2e" x="63.623047"/>
       <use xlink:href="#DejaVuSans-32" x="95.410156"/>
      </g>
     </g>
    </g>
    <g id="ytick_3">
     <g id="line2d_37">
      <g>
       <use xlink:href="#mb408c16fe5" x="62.03" y="139.74904" style="stroke: #000000; stroke-width: 0.8"/>
      </g>
     </g>
     <g id="text_38">
      <!-- 0.4 -->
      <g transform="translate(32.765625 145.067947) scale(0.14 -0.14)">
       <use xlink:href="#DejaVuSans-30"/>
       <use xlink:href="#DejaVuSans-2e" x="63.623047"/>
       <use xlink:href="#DejaVuSans-34" x="95.410156"/>
      </g>
     </g>
    </g>
    <g id="ytick_4">
     <g id="line2d_38">
      <g>
       <use xlink:href="#mb408c16fe5" x="62.03" y="101.401643" style="stroke: #000000; stroke-width: 0.8"/>
      </g>
     </g>
     <g id="text_39">
      <!-- 0.6 -->
      <g transform="translate(32.765625 106.72055) scale(0.14 -0.14)">
       <use xlink:href="#DejaVuSans-30"/>
       <use xlink:href="#DejaVuSans-2e" x="63.623047"/>
       <use xlink:href="#DejaVuSans-36" x="95.410156"/>
      </g>
     </g>
    </g>
    <g id="ytick_5">
     <g id="line2d_39">
      <g>
       <use xlink:href="#mb408c16fe5" x="62.03" y="63.054246" style="stroke: #000000; stroke-width: 0.8"/>
      </g>
     </g>
     <g id="text_40">
      <!-- 0.8 -->
      <g transform="translate(32.765625 68.373153) scale(0.14 -0.14)">
       <use xlink:href="#DejaVuSans-30"/>
       <use xlink:href="#DejaVuSans-2e" x="63.623047"/>
       <use xlink:href="#DejaVuSans-38" x="95.410156"/>
      </g>
     </g>
    </g>
    <g id="ytick_6">
     <g id="line2d_40">
      <g>
       <use xlink:href="#mb408c16fe5" x="62.03" y="24.706849" style="stroke: #000000; stroke-width: 0.8"/>
      </g>
     </g>
     <g id="text_41">
      <!-- 1.0 -->
      <g transform="translate(32.765625 30.025756) scale(0.14 -0.14)">
       <use xlink:href="#DejaVuSans-31"/>
       <use xlink:href="#DejaVuSans-2e" x="63.623047"/>
       <use xlink:href="#DejaVuSans-30" x="95.410156"/>
      </g>
     </g>
    </g>
    <g id="text_42">
     <!-- FNR -->
     <g transform="translate(25.854062 129.908792) rotate(-90) scale(0.14 -0.14)">
      <defs>
       <path id="DejaVuSans-46" d="M 628 4666 
L 3309 4666 
L 3309 4134 
L 1259 4134 
L 1259 2759 
L 3109 2759 
L 3109 2228 
L 1259 2228 
L 1259 0 
L 628 0 
L 628 4666 
z
" transform="scale(0.015625)"/>
       <path id="DejaVuSans-4e" d="M 628 4666 
L 1478 4666 
L 3547 763 
L 3547 4666 
L 4159 4666 
L 4159 0 
L 3309 0 
L 1241 3903 
L 1241 0 
L 628 0 
L 628 4666 
z
" transform="scale(0.015625)"/>
       <path id="DejaVuSans-52" d="M 2841 2188 
Q 3044 2119 3236 1894 
Q 3428 1669 3622 1275 
L 4263 0 
L 3584 0 
L 2988 1197 
Q 2756 1666 2539 1819 
Q 2322 1972 1947 1972 
L 1259 1972 
L 1259 0 
L 628 0 
L 628 4666 
L 2053 4666 
Q 2853 4666 3247 4331 
Q 3641 3997 3641 3322 
Q 3641 2881 3436 2590 
Q 3231 2300 2841 2188 
z
M 1259 4147 
L 1259 2491 
L 2053 2491 
Q 2509 2491 2742 2702 
Q 2975 2913 2975 3322 
Q 2975 3731 2742 3939 
Q 2509 4147 2053 4147 
L 1259 4147 
z
" transform="scale(0.015625)"/>
      </defs>
      <use xlink:href="#DejaVuSans-46"/>
      <use xlink:href="#DejaVuSans-4e" x="57.519531"/>
      <use xlink:href="#DejaVuSans-52" x="132.324219"/>
     </g>
    </g>
   </g>
   <g id="patch_105">
    <path d="M 62.03 216.443834 
L 62.03 15.12 
" style="fill: none; stroke: #000000; stroke-width: 0.8; stroke-linejoin: miter; stroke-linecap: square"/>
   </g>
   <g id="patch_106">
    <path d="M 832.908 216.443834 
L 832.908 15.12 
" style="fill: none; stroke: #000000; stroke-width: 0.8; stroke-linejoin: miter; stroke-linecap: square"/>
   </g>
   <g id="patch_107">
    <path d="M 62.03 216.443834 
L 832.908 216.443834 
" style="fill: none; stroke: #000000; stroke-width: 0.8; stroke-linejoin: miter; stroke-linecap: square"/>
   </g>
   <g id="patch_108">
    <path d="M 62.03 15.12 
L 832.908 15.12 
" style="fill: none; stroke: #000000; stroke-width: 0.8; stroke-linejoin: miter; stroke-linecap: square"/>
   </g>
   <g id="legend_1">
    <g id="patch_109">
     <path d="M 849.01678 77.56125 
L 990.73678 77.56125 
Q 993.13678 77.56125 993.13678 75.16125 
L 993.13678 23.52 
Q 993.13678 21.12 990.73678 21.12 
L 849.01678 21.12 
Q 846.61678 21.12 846.61678 23.52 
L 846.61678 75.16125 
Q 846.61678 77.56125 849.01678 77.56125 
z
" style="fill: #ffffff; opacity: 0.8; stroke: #cccccc; stroke-linejoin: miter"/>
    </g>
    <g id="patch_110">
     <path d="M 851.41678 35.038125 
L 875.41678 35.038125 
L 875.41678 26.638125 
L 851.41678 26.638125 
z
" style="fill: #800080"/>
    </g>
    <g id="text_43">
     <!-- RC aggregated -->
     <g transform="translate(885.01678 35.038125) scale(0.12 -0.12)">
      <defs>
       <path id="DejaVuSans-61" d="M 2194 1759 
Q 1497 1759 1228 1600 
Q 959 1441 959 1056 
Q 959 750 1161 570 
Q 1363 391 1709 391 
Q 2188 391 2477 730 
Q 2766 1069 2766 1631 
L 2766 1759 
L 2194 1759 
z
M 3341 1997 
L 3341 0 
L 2766 0 
L 2766 531 
Q 2569 213 2275 61 
Q 1981 -91 1556 -91 
Q 1019 -91 701 211 
Q 384 513 384 1019 
Q 384 1609 779 1909 
Q 1175 2209 1959 2209 
L 2766 2209 
L 2766 2266 
Q 2766 2663 2505 2880 
Q 2244 3097 1772 3097 
Q 1472 3097 1187 3025 
Q 903 2953 641 2809 
L 641 3341 
Q 956 3463 1253 3523 
Q 1550 3584 1831 3584 
Q 2591 3584 2966 3190 
Q 3341 2797 3341 1997 
z
" transform="scale(0.015625)"/>
       <path id="DejaVuSans-67" d="M 2906 1791 
Q 2906 2416 2648 2759 
Q 2391 3103 1925 3103 
Q 1463 3103 1205 2759 
Q 947 2416 947 1791 
Q 947 1169 1205 825 
Q 1463 481 1925 481 
Q 2391 481 2648 825 
Q 2906 1169 2906 1791 
z
M 3481 434 
Q 3481 -459 3084 -895 
Q 2688 -1331 1869 -1331 
Q 1566 -1331 1297 -1286 
Q 1028 -1241 775 -1147 
L 775 -588 
Q 1028 -725 1275 -790 
Q 1522 -856 1778 -856 
Q 2344 -856 2625 -561 
Q 2906 -266 2906 331 
L 2906 616 
Q 2728 306 2450 153 
Q 2172 0 1784 0 
Q 1141 0 747 490 
Q 353 981 353 1791 
Q 353 2603 747 3093 
Q 1141 3584 1784 3584 
Q 2172 3584 2450 3431 
Q 2728 3278 2906 2969 
L 2906 3500 
L 3481 3500 
L 3481 434 
z
" transform="scale(0.015625)"/>
       <path id="DejaVuSans-72" d="M 2631 2963 
Q 2534 3019 2420 3045 
Q 2306 3072 2169 3072 
Q 1681 3072 1420 2755 
Q 1159 2438 1159 1844 
L 1159 0 
L 581 0 
L 581 3500 
L 1159 3500 
L 1159 2956 
Q 1341 3275 1631 3429 
Q 1922 3584 2338 3584 
Q 2397 3584 2469 3576 
Q 2541 3569 2628 3553 
L 2631 2963 
z
" transform="scale(0.015625)"/>
       <path id="DejaVuSans-74" d="M 1172 4494 
L 1172 3500 
L 2356 3500 
L 2356 3053 
L 1172 3053 
L 1172 1153 
Q 1172 725 1289 603 
Q 1406 481 1766 481 
L 2356 481 
L 2356 0 
L 1766 0 
Q 1100 0 847 248 
Q 594 497 594 1153 
L 594 3053 
L 172 3053 
L 172 3500 
L 594 3500 
L 594 4494 
L 1172 4494 
z
" transform="scale(0.015625)"/>
       <path id="DejaVuSans-64" d="M 2906 2969 
L 2906 4863 
L 3481 4863 
L 3481 0 
L 2906 0 
L 2906 525 
Q 2725 213 2448 61 
Q 2172 -91 1784 -91 
Q 1150 -91 751 415 
Q 353 922 353 1747 
Q 353 2572 751 3078 
Q 1150 3584 1784 3584 
Q 2172 3584 2448 3432 
Q 2725 3281 2906 2969 
z
M 947 1747 
Q 947 1113 1208 752 
Q 1469 391 1925 391 
Q 2381 391 2643 752 
Q 2906 1113 2906 1747 
Q 2906 2381 2643 2742 
Q 2381 3103 1925 3103 
Q 1469 3103 1208 2742 
Q 947 2381 947 1747 
z
" transform="scale(0.015625)"/>
      </defs>
      <use xlink:href="#DejaVuSans-52"/>
      <use xlink:href="#DejaVuSans-43" x="64.482422"/>
      <use xlink:href="#DejaVuSans-20" x="134.306641"/>
      <use xlink:href="#DejaVuSans-61" x="166.09375"/>
      <use xlink:href="#DejaVuSans-67" x="227.373047"/>
      <use xlink:href="#DejaVuSans-67" x="290.849609"/>
      <use xlink:href="#DejaVuSans-72" x="354.326172"/>
      <use xlink:href="#DejaVuSans-65" x="393.189453"/>
      <use xlink:href="#DejaVuSans-67" x="454.712891"/>
      <use xlink:href="#DejaVuSans-61" x="518.189453"/>
      <use xlink:href="#DejaVuSans-74" x="579.46875"/>
      <use xlink:href="#DejaVuSans-65" x="618.677734"/>
      <use xlink:href="#DejaVuSans-64" x="680.201172"/>
     </g>
    </g>
    <g id="patch_111">
     <path d="M 851.41678 52.651875 
L 875.41678 52.651875 
L 875.41678 44.251875 
L 851.41678 44.251875 
z
" style="fill: #228b22"/>
    </g>
    <g id="text_44">
     <!-- RC connected -->
     <g transform="translate(885.01678 52.651875) scale(0.12 -0.12)">
      <defs>
       <path id="DejaVuSans-63" d="M 3122 3366 
L 3122 2828 
Q 2878 2963 2633 3030 
Q 2388 3097 2138 3097 
Q 1578 3097 1268 2742 
Q 959 2388 959 1747 
Q 959 1106 1268 751 
Q 1578 397 2138 397 
Q 2388 397 2633 464 
Q 2878 531 3122 666 
L 3122 134 
Q 2881 22 2623 -34 
Q 2366 -91 2075 -91 
Q 1284 -91 818 406 
Q 353 903 353 1747 
Q 353 2603 823 3093 
Q 1294 3584 2113 3584 
Q 2378 3584 2631 3529 
Q 2884 3475 3122 3366 
z
" transform="scale(0.015625)"/>
       <path id="DejaVuSans-6f" d="M 1959 3097 
Q 1497 3097 1228 2736 
Q 959 2375 959 1747 
Q 959 1119 1226 758 
Q 1494 397 1959 397 
Q 2419 397 2687 759 
Q 2956 1122 2956 1747 
Q 2956 2369 2687 2733 
Q 2419 3097 1959 3097 
z
M 1959 3584 
Q 2709 3584 3137 3096 
Q 3566 2609 3566 1747 
Q 3566 888 3137 398 
Q 2709 -91 1959 -91 
Q 1206 -91 779 398 
Q 353 888 353 1747 
Q 353 2609 779 3096 
Q 1206 3584 1959 3584 
z
" transform="scale(0.015625)"/>
       <path id="DejaVuSans-6e" d="M 3513 2113 
L 3513 0 
L 2938 0 
L 2938 2094 
Q 2938 2591 2744 2837 
Q 2550 3084 2163 3084 
Q 1697 3084 1428 2787 
Q 1159 2491 1159 1978 
L 1159 0 
L 581 0 
L 581 3500 
L 1159 3500 
L 1159 2956 
Q 1366 3272 1645 3428 
Q 1925 3584 2291 3584 
Q 2894 3584 3203 3211 
Q 3513 2838 3513 2113 
z
" transform="scale(0.015625)"/>
      </defs>
      <use xlink:href="#DejaVuSans-52"/>
      <use xlink:href="#DejaVuSans-43" x="64.482422"/>
      <use xlink:href="#DejaVuSans-20" x="134.306641"/>
      <use xlink:href="#DejaVuSans-63" x="166.09375"/>
      <use xlink:href="#DejaVuSans-6f" x="221.074219"/>
      <use xlink:href="#DejaVuSans-6e" x="282.255859"/>
      <use xlink:href="#DejaVuSans-6e" x="345.634766"/>
      <use xlink:href="#DejaVuSans-65" x="409.013672"/>
      <use xlink:href="#DejaVuSans-63" x="470.537109"/>
      <use xlink:href="#DejaVuSans-74" x="525.517578"/>
      <use xlink:href="#DejaVuSans-65" x="564.726562"/>
      <use xlink:href="#DejaVuSans-64" x="626.25"/>
     </g>
    </g>
    <g id="patch_112">
     <path d="M 851.41678 70.265625 
L 875.41678 70.265625 
L 875.41678 61.865625 
L 851.41678 61.865625 
z
" style="fill: #0000cd"/>
    </g>
    <g id="text_45">
     <!-- Bag of molecules -->
     <g transform="translate(885.01678 70.265625) scale(0.12 -0.12)">
      <defs>
       <path id="DejaVuSans-42" d="M 1259 2228 
L 1259 519 
L 2272 519 
Q 2781 519 3026 730 
Q 3272 941 3272 1375 
Q 3272 1813 3026 2020 
Q 2781 2228 2272 2228 
L 1259 2228 
z
M 1259 4147 
L 1259 2741 
L 2194 2741 
Q 2656 2741 2882 2914 
Q 3109 3088 3109 3444 
Q 3109 3797 2882 3972 
Q 2656 4147 2194 4147 
L 1259 4147 
z
M 628 4666 
L 2241 4666 
Q 2963 4666 3353 4366 
Q 3744 4066 3744 3513 
Q 3744 3084 3544 2831 
Q 3344 2578 2956 2516 
Q 3422 2416 3680 2098 
Q 3938 1781 3938 1306 
Q 3938 681 3513 340 
Q 3088 0 2303 0 
L 628 0 
L 628 4666 
z
" transform="scale(0.015625)"/>
       <path id="DejaVuSans-66" d="M 2375 4863 
L 2375 4384 
L 1825 4384 
Q 1516 4384 1395 4259 
Q 1275 4134 1275 3809 
L 1275 3500 
L 2222 3500 
L 2222 3053 
L 1275 3053 
L 1275 0 
L 697 0 
L 697 3053 
L 147 3053 
L 147 3500 
L 697 3500 
L 697 3744 
Q 697 4328 969 4595 
Q 1241 4863 1831 4863 
L 2375 4863 
z
" transform="scale(0.015625)"/>
       <path id="DejaVuSans-6d" d="M 3328 2828 
Q 3544 3216 3844 3400 
Q 4144 3584 4550 3584 
Q 5097 3584 5394 3201 
Q 5691 2819 5691 2113 
L 5691 0 
L 5113 0 
L 5113 2094 
Q 5113 2597 4934 2840 
Q 4756 3084 4391 3084 
Q 3944 3084 3684 2787 
Q 3425 2491 3425 1978 
L 3425 0 
L 2847 0 
L 2847 2094 
Q 2847 2600 2669 2842 
Q 2491 3084 2119 3084 
Q 1678 3084 1418 2786 
Q 1159 2488 1159 1978 
L 1159 0 
L 581 0 
L 581 3500 
L 1159 3500 
L 1159 2956 
Q 1356 3278 1631 3431 
Q 1906 3584 2284 3584 
Q 2666 3584 2933 3390 
Q 3200 3197 3328 2828 
z
" transform="scale(0.015625)"/>
       <path id="DejaVuSans-75" d="M 544 1381 
L 544 3500 
L 1119 3500 
L 1119 1403 
Q 1119 906 1312 657 
Q 1506 409 1894 409 
Q 2359 409 2629 706 
Q 2900 1003 2900 1516 
L 2900 3500 
L 3475 3500 
L 3475 0 
L 2900 0 
L 2900 538 
Q 2691 219 2414 64 
Q 2138 -91 1772 -91 
Q 1169 -91 856 284 
Q 544 659 544 1381 
z
M 1991 3584 
L 1991 3584 
z
" transform="scale(0.015625)"/>
       <path id="DejaVuSans-73" d="M 2834 3397 
L 2834 2853 
Q 2591 2978 2328 3040 
Q 2066 3103 1784 3103 
Q 1356 3103 1142 2972 
Q 928 2841 928 2578 
Q 928 2378 1081 2264 
Q 1234 2150 1697 2047 
L 1894 2003 
Q 2506 1872 2764 1633 
Q 3022 1394 3022 966 
Q 3022 478 2636 193 
Q 2250 -91 1575 -91 
Q 1294 -91 989 -36 
Q 684 19 347 128 
L 347 722 
Q 666 556 975 473 
Q 1284 391 1588 391 
Q 1994 391 2212 530 
Q 2431 669 2431 922 
Q 2431 1156 2273 1281 
Q 2116 1406 1581 1522 
L 1381 1569 
Q 847 1681 609 1914 
Q 372 2147 372 2553 
Q 372 3047 722 3315 
Q 1072 3584 1716 3584 
Q 2034 3584 2315 3537 
Q 2597 3491 2834 3397 
z
" transform="scale(0.015625)"/>
      </defs>
      <use xlink:href="#DejaVuSans-42"/>
      <use xlink:href="#DejaVuSans-61" x="68.603516"/>
      <use xlink:href="#DejaVuSans-67" x="129.882812"/>
      <use xlink:href="#DejaVuSans-20" x="193.359375"/>
      <use xlink:href="#DejaVuSans-6f" x="225.146484"/>
      <use xlink:href="#DejaVuSans-66" x="286.328125"/>
      <use xlink:href="#DejaVuSans-20" x="321.533203"/>
      <use xlink:href="#DejaVuSans-6d" x="353.320312"/>
      <use xlink:href="#DejaVuSans-6f" x="450.732422"/>
      <use xlink:href="#DejaVuSans-6c" x="511.914062"/>
      <use xlink:href="#DejaVuSans-65" x="539.697266"/>
      <use xlink:href="#DejaVuSans-63" x="601.220703"/>
      <use xlink:href="#DejaVuSans-75" x="656.201172"/>
      <use xlink:href="#DejaVuSans-6c" x="719.580078"/>
      <use xlink:href="#DejaVuSans-65" x="747.363281"/>
      <use xlink:href="#DejaVuSans-73" x="808.886719"/>
     </g>
    </g>
   </g>
  </g>
 </g>
 <defs>
  <clipPath id="p658ef5c98d">
   <rect x="62.03" y="15.12" width="770.878" height="201.323834"/>
  </clipPath>
 </defs>
</svg>
