<?xml version="1.0" encoding="utf-8" standalone="no"?>
<!DOCTYPE svg PUBLIC "-//W3C//DTD SVG 1.1//EN"
  "http://www.w3.org/Graphics/SVG/1.1/DTD/svg11.dtd">
<svg xmlns:xlink="http://www.w3.org/1999/xlink" width="1008pt" height="288pt" viewBox="0 0 1008 288" xmlns="http://www.w3.org/2000/svg" version="1.1">
 <metadata>
  <rdf:RDF xmlns:dc="http://purl.org/dc/elements/1.1/" xmlns:cc="http://creativecommons.org/ns#" xmlns:rdf="http://www.w3.org/1999/02/22-rdf-syntax-ns#">
   <cc:Work>
    <dc:type rdf:resource="http://purl.org/dc/dcmitype/StillImage"/>
    <dc:date>2025-12-18T08:53:29.446893</dc:date>
    <dc:format>image/svg+xml</dc:format>
    <dc:creator>
     <cc:Agent>
      <dc:title>Matplotlib v3.8.4, https://matplotlib.org/</dc:title>
     </cc:Agent>
    </dc:creator>
   </cc:Work>
  </rdf:RDF>
 </metadata>
 <defs>
  <style type="text/css">*{stroke-linejoin: round; stroke-linecap: butt}</style>
 </defs>
 <g id="figure_1">
  <g id="patch_1">
   <path d="M 0 288 
L 1008 288 
L 1008 0 
L 0 0 
z
" style="fill: #ffffff"/>
  </g>
  <g id="axes_1">
   <g id="patch_2">
    <path d="M 62.12 216.443834 
L 832.908 216.443834 
L 832.908 15.12 
L 62.12 15.12 
z
" style="fill: #ffffff"/>
   </g>
   <g id="patch_3">
    <path d="M 97.155818 367.43671 
L 102.852699 367.43671 
L 102.852699 45.262779 
L 97.155818 45.262779 
z
" clip-path="url(#pd21eec3bec)" style="fill: #800080"/>
   </g>
   <g id="patch_4">
    <path d="M 118.519122 367.43671 
L 124.216003 367.43671 
L 124.216003 82.231712 
L 118.519122 82.231712 
z
" clip-path="url(#pd21eec3bec)" style="fill: #800080"/>
   </g>
   <g id="patch_5">
    <path d="M 139.882426 367.43671 
L 145.579307 367.43671 
L 145.579307 50.003015 
L 139.882426 50.003015 
z
" clip-path="url(#pd21eec3bec)" style="fill: #800080"/>
   </g>
   <g id="patch_6">
    <path d="M 161.245729 367.43671 
L 166.94261 367.43671 
L 166.94261 32.611698 
L 161.245729 32.611698 
z
" clip-path="url(#pd21eec3bec)" style="fill: #800080"/>
   </g>
   <g id="patch_7">
    <path d="M 182.609033 367.43671 
L 188.305914 367.43671 
L 188.305914 53.192069 
L 182.609033 53.192069 
z
" clip-path="url(#pd21eec3bec)" style="fill: #800080"/>
   </g>
   <g id="patch_8">
    <path d="M 203.972337 367.43671 
L 209.669218 367.43671 
L 209.669218 55.975396 
L 203.972337 55.975396 
z
" clip-path="url(#pd21eec3bec)" style="fill: #800080"/>
   </g>
   <g id="patch_9">
    <path d="M 225.335641 367.43671 
L 231.032522 367.43671 
L 231.032522 35.679298 
L 225.335641 35.679298 
z
" clip-path="url(#pd21eec3bec)" style="fill: #800080"/>
   </g>
   <g id="patch_10">
    <path d="M 246.698945 367.43671 
L 252.395826 367.43671 
L 252.395826 35.429962 
L 246.698945 35.429962 
z
" clip-path="url(#pd21eec3bec)" style="fill: #800080"/>
   </g>
   <g id="patch_11">
    <path d="M 268.062248 367.43671 
L 273.759129 367.43671 
L 273.759129 54.161567 
L 268.062248 54.161567 
z
" clip-path="url(#pd21eec3bec)" style="fill: #800080"/>
   </g>
   <g id="patch_12">
    <path d="M 289.425552 367.43671 
L 295.122433 367.43671 
L 295.122433 104.362828 
L 289.425552 104.362828 
z
" clip-path="url(#pd21eec3bec)" style="fill: #800080"/>
   </g>
   <g id="patch_13">
    <path d="M 310.788856 367.43671 
L 316.485737 367.43671 
L 316.485737 76.605439 
L 310.788856 76.605439 
z
" clip-path="url(#pd21eec3bec)" style="fill: #800080"/>
   </g>
   <g id="patch_14">
    <path d="M 332.15216 367.43671 
L 337.849041 367.43671 
L 337.849041 42.922583 
L 332.15216 42.922583 
z
" clip-path="url(#pd21eec3bec)" style="fill: #800080"/>
   </g>
   <g id="patch_15">
    <path d="M 353.515463 367.43671 
L 359.212344 367.43671 
L 359.212344 101.25757 
L 353.515463 101.25757 
z
" clip-path="url(#pd21eec3bec)" style="fill: #800080"/>
   </g>
   <g id="patch_16">
    <path d="M 374.878767 367.43671 
L 380.575648 367.43671 
L 380.575648 35.133704 
L 374.878767 35.133704 
z
" clip-path="url(#pd21eec3bec)" style="fill: #800080"/>
   </g>
   <g id="patch_17">
    <path d="M 396.242071 367.43671 
L 401.938952 367.43671 
L 401.938952 68.932755 
L 396.242071 68.932755 
z
" clip-path="url(#pd21eec3bec)" style="fill: #800080"/>
   </g>
   <g id="patch_18">
    <path d="M 417.605375 367.43671 
L 423.302256 367.43671 
L 423.302256 38.385323 
L 417.605375 38.385323 
z
" clip-path="url(#pd21eec3bec)" style="fill: #800080"/>
   </g>
   <g id="patch_19">
    <path d="M 438.968678 367.43671 
L 444.665559 367.43671 
L 444.665559 52.554645 
L 438.968678 52.554645 
z
" clip-path="url(#pd21eec3bec)" style="fill: #800080"/>
   </g>
   <g id="patch_20">
    <path d="M 460.331982 367.43671 
L 466.028863 367.43671 
L 466.028863 48.006036 
L 460.331982 48.006036 
z
" clip-path="url(#pd21eec3bec)" style="fill: #800080"/>
   </g>
   <g id="patch_21">
    <path d="M 481.695286 367.43671 
L 487.392167 367.43671 
L 487.392167 40.722383 
L 481.695286 40.722383 
z
" clip-path="url(#pd21eec3bec)" style="fill: #800080"/>
   </g>
   <g id="patch_22">
    <path d="M 503.05859 367.43671 
L 508.755471 367.43671 
L 508.755471 47.850134 
L 503.05859 47.850134 
z
" clip-path="url(#pd21eec3bec)" style="fill: #800080"/>
   </g>
   <g id="patch_23">
    <path d="M 524.421894 367.43671 
L 530.118775 367.43671 
L 530.118775 37.878675 
L 524.421894 37.878675 
z
" clip-path="url(#pd21eec3bec)" style="fill: #800080"/>
   </g>
   <g id="patch_24">
    <path d="M 545.785197 367.43671 
L 551.482078 367.43671 
L 551.482078 41.151035 
L 545.785197 41.151035 
z
" clip-path="url(#pd21eec3bec)" style="fill: #800080"/>
   </g>
   <g id="patch_25">
    <path d="M 567.148501 367.43671 
L 572.845382 367.43671 
L 572.845382 42.458039 
L 567.148501 42.458039 
z
" clip-path="url(#pd21eec3bec)" style="fill: #800080"/>
   </g>
   <g id="patch_26">
    <path d="M 588.511805 367.43671 
L 594.208686 367.43671 
L 594.208686 104.625566 
L 588.511805 104.625566 
z
" clip-path="url(#pd21eec3bec)" style="fill: #800080"/>
   </g>
   <g id="patch_27">
    <path d="M 609.875109 367.43671 
L 615.57199 367.43671 
L 615.57199 87.346389 
L 609.875109 87.346389 
z
" clip-path="url(#pd21eec3bec)" style="fill: #800080"/>
   </g>
   <g id="patch_28">
    <path d="M 631.238412 367.43671 
L 636.935293 367.43671 
L 636.935293 35.128109 
L 631.238412 35.128109 
z
" clip-path="url(#pd21eec3bec)" style="fill: #800080"/>
   </g>
   <g id="patch_29">
    <path d="M 652.601716 367.43671 
L 658.298597 367.43671 
L 658.298597 217.734372 
L 652.601716 217.734372 
z
" clip-path="url(#pd21eec3bec)" style="fill: #800080"/>
   </g>
   <g id="patch_30">
    <path d="M 673.96502 367.43671 
L 679.661901 367.43671 
L 679.661901 85.326068 
L 673.96502 85.326068 
z
" clip-path="url(#pd21eec3bec)" style="fill: #800080"/>
   </g>
   <g id="patch_31">
    <path d="M 695.328324 367.43671 
L 701.025205 367.43671 
L 701.025205 41.508801 
L 695.328324 41.508801 
z
" clip-path="url(#pd21eec3bec)" style="fill: #800080"/>
   </g>
   <g id="patch_32">
    <path d="M 716.691627 367.43671 
L 722.388508 367.43671 
L 722.388508 41.963178 
L 716.691627 41.963178 
z
" clip-path="url(#pd21eec3bec)" style="fill: #800080"/>
   </g>
   <g id="patch_33">
    <path d="M 738.054931 367.43671 
L 743.751812 367.43671 
L 743.751812 41.539919 
L 738.054931 41.539919 
z
" clip-path="url(#pd21eec3bec)" style="fill: #800080"/>
   </g>
   <g id="patch_34">
    <path d="M 759.418235 367.43671 
L 765.115116 367.43671 
L 765.115116 54.130252 
L 759.418235 54.130252 
z
" clip-path="url(#pd21eec3bec)" style="fill: #800080"/>
   </g>
   <g id="patch_35">
    <path d="M 780.781539 367.43671 
L 786.47842 367.43671 
L 786.47842 77.927147 
L 780.781539 77.927147 
z
" clip-path="url(#pd21eec3bec)" style="fill: #800080"/>
   </g>
   <g id="patch_36">
    <path d="M 102.852699 367.43671 
L 108.54958 367.43671 
L 108.54958 42.610634 
L 102.852699 42.610634 
z
" clip-path="url(#pd21eec3bec)" style="fill: #228b22"/>
   </g>
   <g id="patch_37">
    <path d="M 124.216003 367.43671 
L 129.912884 367.43671 
L 129.912884 92.215771 
L 124.216003 92.215771 
z
" clip-path="url(#pd21eec3bec)" style="fill: #228b22"/>
   </g>
   <g id="patch_38">
    <path d="M 145.579307 367.43671 
L 151.276188 367.43671 
L 151.276188 76.298735 
L 145.579307 76.298735 
z
" clip-path="url(#pd21eec3bec)" style="fill: #228b22"/>
   </g>
   <g id="patch_39">
    <path d="M 166.94261 367.43671 
L 172.639492 367.43671 
L 172.639492 34.281067 
L 166.94261 34.281067 
z
" clip-path="url(#pd21eec3bec)" style="fill: #228b22"/>
   </g>
   <g id="patch_40">
    <path d="M 188.305914 367.43671 
L 194.002795 367.43671 
L 194.002795 41.817841 
L 188.305914 41.817841 
z
" clip-path="url(#pd21eec3bec)" style="fill: #228b22"/>
   </g>
   <g id="patch_41">
    <path d="M 209.669218 367.43671 
L 215.366099 367.43671 
L 215.366099 41.046782 
L 209.669218 41.046782 
z
" clip-path="url(#pd21eec3bec)" style="fill: #228b22"/>
   </g>
   <g id="patch_42">
    <path d="M 231.032522 367.43671 
L 236.729403 367.43671 
L 236.729403 39.873544 
L 231.032522 39.873544 
z
" clip-path="url(#pd21eec3bec)" style="fill: #228b22"/>
   </g>
   <g id="patch_43">
    <path d="M 252.395826 367.43671 
L 258.092707 367.43671 
L 258.092707 34.723367 
L 252.395826 34.723367 
z
" clip-path="url(#pd21eec3bec)" style="fill: #228b22"/>
   </g>
   <g id="patch_44">
    <path d="M 273.759129 367.43671 
L 279.45601 367.43671 
L 279.45601 56.107678 
L 273.759129 56.107678 
z
" clip-path="url(#pd21eec3bec)" style="fill: #228b22"/>
   </g>
   <g id="patch_45">
    <path d="M 295.122433 367.43671 
L 300.819314 367.43671 
L 300.819314 78.569047 
L 295.122433 78.569047 
z
" clip-path="url(#pd21eec3bec)" style="fill: #228b22"/>
   </g>
   <g id="patch_46">
    <path d="M 316.485737 367.43671 
L 322.182618 367.43671 
L 322.182618 55.341219 
L 316.485737 55.341219 
z
" clip-path="url(#pd21eec3bec)" style="fill: #228b22"/>
   </g>
   <g id="patch_47">
    <path d="M 337.849041 367.43671 
L 343.545922 367.43671 
L 343.545922 44.966361 
L 337.849041 44.966361 
z
" clip-path="url(#pd21eec3bec)" style="fill: #228b22"/>
   </g>
   <g id="patch_48">
    <path d="M 359.212344 367.43671 
L 364.909225 367.43671 
L 364.909225 61.528215 
L 359.212344 61.528215 
z
" clip-path="url(#pd21eec3bec)" style="fill: #228b22"/>
   </g>
   <g id="patch_49">
    <path d="M 380.575648 367.43671 
L 386.272529 367.43671 
L 386.272529 33.15571 
L 380.575648 33.15571 
z
" clip-path="url(#pd21eec3bec)" style="fill: #228b22"/>
   </g>
   <g id="patch_50">
    <path d="M 401.938952 367.43671 
L 407.635833 367.43671 
L 407.635833 48.167294 
L 401.938952 48.167294 
z
" clip-path="url(#pd21eec3bec)" style="fill: #228b22"/>
   </g>
   <g id="patch_51">
    <path d="M 423.302256 367.43671 
L 428.999137 367.43671 
L 428.999137 164.444446 
L 423.302256 164.444446 
z
" clip-path="url(#pd21eec3bec)" style="fill: #228b22"/>
   </g>
   <g id="patch_52">
    <path d="M 444.665559 367.43671 
L 450.362441 367.43671 
L 450.362441 92.719384 
L 444.665559 92.719384 
z
" clip-path="url(#pd21eec3bec)" style="fill: #228b22"/>
   </g>
   <g id="patch_53">
    <path d="M 466.028863 367.43671 
L 471.725744 367.43671 
L 471.725744 38.183445 
L 466.028863 38.183445 
z
" clip-path="url(#pd21eec3bec)" style="fill: #228b22"/>
   </g>
   <g id="patch_54">
    <path d="M 487.392167 367.43671 
L 493.089048 367.43671 
L 493.089048 35.895355 
L 487.392167 35.895355 
z
" clip-path="url(#pd21eec3bec)" style="fill: #228b22"/>
   </g>
   <g id="patch_55">
    <path d="M 508.755471 367.43671 
L 514.452352 367.43671 
L 514.452352 76.754305 
L 508.755471 76.754305 
z
" clip-path="url(#pd21eec3bec)" style="fill: #228b22"/>
   </g>
   <g id="patch_56">
    <path d="M 530.118775 367.43671 
L 535.815656 367.43671 
L 535.815656 36.085977 
L 530.118775 36.085977 
z
" clip-path="url(#pd21eec3bec)" style="fill: #228b22"/>
   </g>
   <g id="patch_57">
    <path d="M 551.482078 367.43671 
L 557.178959 367.43671 
L 557.178959 39.040237 
L 551.482078 39.040237 
z
" clip-path="url(#pd21eec3bec)" style="fill: #228b22"/>
   </g>
   <g id="patch_58">
    <path d="M 572.845382 367.43671 
L 578.542263 367.43671 
L 578.542263 33.405708 
L 572.845382 33.405708 
z
" clip-path="url(#pd21eec3bec)" style="fill: #228b22"/>
   </g>
   <g id="patch_59">
    <path d="M 594.208686 367.43671 
L 599.905567 367.43671 
L 599.905567 91.795454 
L 594.208686 91.795454 
z
" clip-path="url(#pd21eec3bec)" style="fill: #228b22"/>
   </g>
   <g id="patch_60">
    <path d="M 615.57199 367.43671 
L 621.268871 367.43671 
L 621.268871 59.167831 
L 615.57199 59.167831 
z
" clip-path="url(#pd21eec3bec)" style="fill: #228b22"/>
   </g>
   <g id="patch_61">
    <path d="M 636.935293 367.43671 
L 642.632174 367.43671 
L 642.632174 37.613589 
L 636.935293 37.613589 
z
" clip-path="url(#pd21eec3bec)" style="fill: #228b22"/>
   </g>
   <g id="patch_62">
    <path d="M 658.298597 367.43671 
L 663.995478 367.43671 
L 663.995478 129.977829 
L 658.298597 129.977829 
z
" clip-path="url(#pd21eec3bec)" style="fill: #228b22"/>
   </g>
   <g id="patch_63">
    <path d="M 679.661901 367.43671 
L 685.358782 367.43671 
L 685.358782 62.429345 
L 679.661901 62.429345 
z
" clip-path="url(#pd21eec3bec)" style="fill: #228b22"/>
   </g>
   <g id="patch_64">
    <path d="M 701.025205 367.43671 
L 706.722086 367.43671 
L 706.722086 58.984829 
L 701.025205 58.984829 
z
" clip-path="url(#pd21eec3bec)" style="fill: #228b22"/>
   </g>
   <g id="patch_65">
    <path d="M 722.388508 367.43671 
L 728.08539 367.43671 
L 728.08539 40.045808 
L 722.388508 40.045808 
z
" clip-path="url(#pd21eec3bec)" style="fill: #228b22"/>
   </g>
   <g id="patch_66">
    <path d="M 743.751812 367.43671 
L 749.448693 367.43671 
L 749.448693 40.166622 
L 743.751812 40.166622 
z
" clip-path="url(#pd21eec3bec)" style="fill: #228b22"/>
   </g>
   <g id="patch_67">
    <path d="M 765.115116 367.43671 
L 770.811997 367.43671 
L 770.811997 50.585818 
L 765.115116 50.585818 
z
" clip-path="url(#pd21eec3bec)" style="fill: #228b22"/>
   </g>
   <g id="patch_68">
    <path d="M 786.47842 367.43671 
L 792.175301 367.43671 
L 792.175301 38.587116 
L 786.47842 38.587116 
z
" clip-path="url(#pd21eec3bec)" style="fill: #228b22"/>
   </g>
   <g id="patch_69">
    <path d="M 108.54958 367.43671 
L 114.246461 367.43671 
L 114.246461 93.186156 
L 108.54958 93.186156 
z
" clip-path="url(#pd21eec3bec)" style="fill: #0000cd"/>
   </g>
   <g id="patch_70">
    <path d="M 129.912884 367.43671 
L 135.609765 367.43671 
L 135.609765 147.184608 
L 129.912884 147.184608 
z
" clip-path="url(#pd21eec3bec)" style="fill: #0000cd"/>
   </g>
   <g id="patch_71">
    <path d="M 151.276188 367.43671 
L 156.973069 367.43671 
L 156.973069 46.739811 
L 151.276188 46.739811 
z
" clip-path="url(#pd21eec3bec)" style="fill: #0000cd"/>
   </g>
   <g id="patch_72">
    <path d="M 172.639492 367.43671 
L 178.336373 367.43671 
L 178.336373 34.965039 
L 172.639492 34.965039 
z
" clip-path="url(#pd21eec3bec)" style="fill: #0000cd"/>
   </g>
   <g id="patch_73">
    <path d="M 194.002795 367.43671 
L 199.699676 367.43671 
L 199.699676 119.984063 
L 194.002795 119.984063 
z
" clip-path="url(#pd21eec3bec)" style="fill: #0000cd"/>
   </g>
   <g id="patch_74">
    <path d="M 215.366099 367.43671 
L 221.06298 367.43671 
L 221.06298 41.953263 
L 215.366099 41.953263 
z
" clip-path="url(#pd21eec3bec)" style="fill: #0000cd"/>
   </g>
   <g id="patch_75">
    <path d="M 236.729403 367.43671 
L 242.426284 367.43671 
L 242.426284 43.431164 
L 236.729403 43.431164 
z
" clip-path="url(#pd21eec3bec)" style="fill: #0000cd"/>
   </g>
   <g id="patch_76">
    <path d="M 258.092707 367.43671 
L 263.789588 367.43671 
L 263.789588 36.303909 
L 258.092707 36.303909 
z
" clip-path="url(#pd21eec3bec)" style="fill: #0000cd"/>
   </g>
   <g id="patch_77">
    <path d="M 279.45601 367.43671 
L 285.152891 367.43671 
L 285.152891 64.199017 
L 279.45601 64.199017 
z
" clip-path="url(#pd21eec3bec)" style="fill: #0000cd"/>
   </g>
   <g id="patch_78">
    <path d="M 300.819314 367.43671 
L 306.516195 367.43671 
L 306.516195 89.099564 
L 300.819314 89.099564 
z
" clip-path="url(#pd21eec3bec)" style="fill: #0000cd"/>
   </g>
   <g id="patch_79">
    <path d="M 322.182618 367.43671 
L 327.879499 367.43671 
L 327.879499 45.156557 
L 322.182618 45.156557 
z
" clip-path="url(#pd21eec3bec)" style="fill: #0000cd"/>
   </g>
   <g id="patch_80">
    <path d="M 343.545922 367.43671 
L 349.242803 367.43671 
L 349.242803 45.77667 
L 343.545922 45.77667 
z
" clip-path="url(#pd21eec3bec)" style="fill: #0000cd"/>
   </g>
   <g id="patch_81">
    <path d="M 364.909225 367.43671 
L 370.606106 367.43671 
L 370.606106 94.550625 
L 364.909225 94.550625 
z
" clip-path="url(#pd21eec3bec)" style="fill: #0000cd"/>
   </g>
   <g id="patch_82">
    <path d="M 386.272529 367.43671 
L 391.96941 367.43671 
L 391.96941 36.392427 
L 386.272529 36.392427 
z
" clip-path="url(#pd21eec3bec)" style="fill: #0000cd"/>
   </g>
   <g id="patch_83">
    <path d="M 407.635833 367.43671 
L 413.332714 367.43671 
L 413.332714 57.911524 
L 407.635833 57.911524 
z
" clip-path="url(#pd21eec3bec)" style="fill: #0000cd"/>
   </g>
   <g id="patch_84">
    <path d="M 428.999137 367.43671 
L 434.696018 367.43671 
L 434.696018 115.550191 
L 428.999137 115.550191 
z
" clip-path="url(#pd21eec3bec)" style="fill: #0000cd"/>
   </g>
   <g id="patch_85">
    <path d="M 450.362441 367.43671 
L 456.059322 367.43671 
L 456.059322 86.330242 
L 450.362441 86.330242 
z
" clip-path="url(#pd21eec3bec)" style="fill: #0000cd"/>
   </g>
   <g id="patch_86">
    <path d="M 471.725744 367.43671 
L 477.422625 367.43671 
L 477.422625 42.898289 
L 471.725744 42.898289 
z
" clip-path="url(#pd21eec3bec)" style="fill: #0000cd"/>
   </g>
   <g id="patch_87">
    <path d="M 493.089048 367.43671 
L 498.785929 367.43671 
L 498.785929 36.467613 
L 493.089048 36.467613 
z
" clip-path="url(#pd21eec3bec)" style="fill: #0000cd"/>
   </g>
   <g id="patch_88">
    <path d="M 514.452352 367.43671 
L 520.149233 367.43671 
L 520.149233 59.177916 
L 514.452352 59.177916 
z
" clip-path="url(#pd21eec3bec)" style="fill: #0000cd"/>
   </g>
   <g id="patch_89">
    <path d="M 535.815656 367.43671 
L 541.512537 367.43671 
L 541.512537 39.483739 
L 535.815656 39.483739 
z
" clip-path="url(#pd21eec3bec)" style="fill: #0000cd"/>
   </g>
   <g id="patch_90">
    <path d="M 557.178959 367.43671 
L 562.87584 367.43671 
L 562.87584 55.244476 
L 557.178959 55.244476 
z
" clip-path="url(#pd21eec3bec)" style="fill: #0000cd"/>
   </g>
   <g id="patch_91">
    <path d="M 578.542263 367.43671 
L 584.239144 367.43671 
L 584.239144 35.517918 
L 578.542263 35.517918 
z
" clip-path="url(#pd21eec3bec)" style="fill: #0000cd"/>
   </g>
   <g id="patch_92">
    <path d="M 599.905567 367.43671 
L 605.602448 367.43671 
L 605.602448 81.475983 
L 599.905567 81.475983 
z
" clip-path="url(#pd21eec3bec)" style="fill: #0000cd"/>
   </g>
   <g id="patch_93">
    <path d="M 621.268871 367.43671 
L 626.965752 367.43671 
L 626.965752 74.807864 
L 621.268871 74.807864 
z
" clip-path="url(#pd21eec3bec)" style="fill: #0000cd"/>
   </g>
   <g id="patch_94">
    <path d="M 642.632174 367.43671 
L 648.329055 367.43671 
L 648.329055 39.104877 
L 642.632174 39.104877 
z
" clip-path="url(#pd21eec3bec)" style="fill: #0000cd"/>
   </g>
   <g id="patch_95">
    <path d="M 663.995478 367.43671 
L 669.692359 367.43671 
L 669.692359 135.139978 
L 663.995478 135.139978 
z
" clip-path="url(#pd21eec3bec)" style="fill: #0000cd"/>
   </g>
   <g id="patch_96">
    <path d="M 685.358782 367.43671 
L 691.055663 367.43671 
L 691.055663 79.57596 
L 685.358782 79.57596 
z
" clip-path="url(#pd21eec3bec)" style="fill: #0000cd"/>
   </g>
   <g id="patch_97">
    <path d="M 706.722086 367.43671 
L 712.418967 367.43671 
L 712.418967 36.265993 
L 706.722086 36.265993 
z
" clip-path="url(#pd21eec3bec)" style="fill: #0000cd"/>
   </g>
   <g id="patch_98">
    <path d="M 728.08539 367.43671 
L 733.782271 367.43671 
L 733.782271 39.566466 
L 728.08539 39.566466 
z
" clip-path="url(#pd21eec3bec)" style="fill: #0000cd"/>
   </g>
   <g id="patch_99">
    <path d="M 749.448693 367.43671 
L 755.145574 367.43671 
L 755.145574 45.980743 
L 749.448693 45.980743 
z
" clip-path="url(#pd21eec3bec)" style="fill: #0000cd"/>
   </g>
   <g id="patch_100">
    <path d="M 770.811997 367.43671 
L 776.508878 367.43671 
L 776.508878 52.411739 
L 770.811997 52.411739 
z
" clip-path="url(#pd21eec3bec)" style="fill: #0000cd"/>
   </g>
   <g id="patch_101">
    <path d="M 792.175301 367.43671 
L 797.872182 367.43671 
L 797.872182 57.830926 
L 792.175301 57.830926 
z
" clip-path="url(#pd21eec3bec)" style="fill: #0000cd"/>
   </g>
   <g id="matplotlib.axis_1">
    <g id="xtick_1">
     <g id="line2d_1">
      <defs>
       <path id="mf049e14958" d="M 0 0 
L 0 3.5 
" style="stroke: #000000; stroke-width: 0.8"/>
      </defs>
      <g>
       <use xlink:href="#mf049e14958" x="105.70114" y="216.443834" style="stroke: #000000; stroke-width: 0.8"/>
      </g>
     </g>
     <g id="text_1">
      <!-- 1.1 -->
      <g transform="translate(100.561136 246.709194) rotate(-45) scale(0.14 -0.14)">
       <defs>
        <path id="DejaVuSans-31" d="M 794 531 
L 1825 531 
L 1825 4091 
L 703 3866 
L 703 4441 
L 1819 4666 
L 2450 4666 
L 2450 531 
L 3481 531 
L 3481 0 
L 794 0 
L 794 531 
z
" transform="scale(0.015625)"/>
        <path id="DejaVuSans-2e" d="M 684 794 
L 1344 794 
L 1344 0 
L 684 0 
L 684 794 
z
" transform="scale(0.015625)"/>
       </defs>
       <use xlink:href="#DejaVuSans-31"/>
       <use xlink:href="#DejaVuSans-2e" x="63.623047"/>
       <use xlink:href="#DejaVuSans-31" x="95.410156"/>
      </g>
     </g>
    </g>
    <g id="xtick_2">
     <g id="line2d_2">
      <g>
       <use xlink:href="#mf049e14958" x="127.064443" y="216.443834" style="stroke: #000000; stroke-width: 0.8"/>
      </g>
     </g>
     <g id="text_2">
      <!-- 1.11 -->
      <g transform="translate(118.775163 253.007748) rotate(-45) scale(0.14 -0.14)">
       <use xlink:href="#DejaVuSans-31"/>
       <use xlink:href="#DejaVuSans-2e" x="63.623047"/>
       <use xlink:href="#DejaVuSans-31" x="95.410156"/>
       <use xlink:href="#DejaVuSans-31" x="159.033203"/>
      </g>
     </g>
    </g>
    <g id="xtick_3">
     <g id="line2d_3">
      <g>
       <use xlink:href="#mf049e14958" x="148.427747" y="216.443834" style="stroke: #000000; stroke-width: 0.8"/>
      </g>
     </g>
     <g id="text_3">
      <!-- 1.13 -->
      <g transform="translate(140.138467 253.007748) rotate(-45) scale(0.14 -0.14)">
       <defs>
        <path id="DejaVuSans-33" d="M 2597 2516 
Q 3050 2419 3304 2112 
Q 3559 1806 3559 1356 
Q 3559 666 3084 287 
Q 2609 -91 1734 -91 
Q 1441 -91 1130 -33 
Q 819 25 488 141 
L 488 750 
Q 750 597 1062 519 
Q 1375 441 1716 441 
Q 2309 441 2620 675 
Q 2931 909 2931 1356 
Q 2931 1769 2642 2001 
Q 2353 2234 1838 2234 
L 1294 2234 
L 1294 2753 
L 1863 2753 
Q 2328 2753 2575 2939 
Q 2822 3125 2822 3475 
Q 2822 3834 2567 4026 
Q 2313 4219 1838 4219 
Q 1578 4219 1281 4162 
Q 984 4106 628 3988 
L 628 4550 
Q 988 4650 1302 4700 
Q 1616 4750 1894 4750 
Q 2613 4750 3031 4423 
Q 3450 4097 3450 3541 
Q 3450 3153 3228 2886 
Q 3006 2619 2597 2516 
z
" transform="scale(0.015625)"/>
       </defs>
       <use xlink:href="#DejaVuSans-31"/>
       <use xlink:href="#DejaVuSans-2e" x="63.623047"/>
       <use xlink:href="#DejaVuSans-31" x="95.410156"/>
       <use xlink:href="#DejaVuSans-33" x="159.033203"/>
      </g>
     </g>
    </g>
    <g id="xtick_4">
     <g id="line2d_4">
      <g>
       <use xlink:href="#mf049e14958" x="169.791051" y="216.443834" style="stroke: #000000; stroke-width: 0.8"/>
      </g>
     </g>
     <g id="text_4">
      <!-- 1.14 -->
      <g transform="translate(161.501771 253.007748) rotate(-45) scale(0.14 -0.14)">
       <defs>
        <path id="DejaVuSans-34" d="M 2419 4116 
L 825 1625 
L 2419 1625 
L 2419 4116 
z
M 2253 4666 
L 3047 4666 
L 3047 1625 
L 3713 1625 
L 3713 1100 
L 3047 1100 
L 3047 0 
L 2419 0 
L 2419 1100 
L 313 1100 
L 313 1709 
L 2253 4666 
z
" transform="scale(0.015625)"/>
       </defs>
       <use xlink:href="#DejaVuSans-31"/>
       <use xlink:href="#DejaVuSans-2e" x="63.623047"/>
       <use xlink:href="#DejaVuSans-31" x="95.410156"/>
       <use xlink:href="#DejaVuSans-34" x="159.033203"/>
      </g>
     </g>
    </g>
    <g id="xtick_5">
     <g id="line2d_5">
      <g>
       <use xlink:href="#mf049e14958" x="191.154355" y="216.443834" style="stroke: #000000; stroke-width: 0.8"/>
      </g>
     </g>
     <g id="text_5">
      <!-- 1.2 -->
      <g transform="translate(186.014351 246.709194) rotate(-45) scale(0.14 -0.14)">
       <defs>
        <path id="DejaVuSans-32" d="M 1228 531 
L 3431 531 
L 3431 0 
L 469 0 
L 469 531 
Q 828 903 1448 1529 
Q 2069 2156 2228 2338 
Q 2531 2678 2651 2914 
Q 2772 3150 2772 3378 
Q 2772 3750 2511 3984 
Q 2250 4219 1831 4219 
Q 1534 4219 1204 4116 
Q 875 4013 500 3803 
L 500 4441 
Q 881 4594 1212 4672 
Q 1544 4750 1819 4750 
Q 2544 4750 2975 4387 
Q 3406 4025 3406 3419 
Q 3406 3131 3298 2873 
Q 3191 2616 2906 2266 
Q 2828 2175 2409 1742 
Q 1991 1309 1228 531 
z
" transform="scale(0.015625)"/>
       </defs>
       <use xlink:href="#DejaVuSans-31"/>
       <use xlink:href="#DejaVuSans-2e" x="63.623047"/>
       <use xlink:href="#DejaVuSans-32" x="95.410156"/>
      </g>
     </g>
    </g>
    <g id="xtick_6">
     <g id="line2d_6">
      <g>
       <use xlink:href="#mf049e14958" x="212.517659" y="216.443834" style="stroke: #000000; stroke-width: 0.8"/>
      </g>
     </g>
     <g id="text_6">
      <!-- 1.3 -->
      <g transform="translate(207.377655 246.709194) rotate(-45) scale(0.14 -0.14)">
       <use xlink:href="#DejaVuSans-31"/>
       <use xlink:href="#DejaVuSans-2e" x="63.623047"/>
       <use xlink:href="#DejaVuSans-33" x="95.410156"/>
      </g>
     </g>
    </g>
    <g id="xtick_7">
     <g id="line2d_7">
      <g>
       <use xlink:href="#mf049e14958" x="233.880962" y="216.443834" style="stroke: #000000; stroke-width: 0.8"/>
      </g>
     </g>
     <g id="text_7">
      <!-- 1.4 -->
      <g transform="translate(228.740959 246.709194) rotate(-45) scale(0.14 -0.14)">
       <use xlink:href="#DejaVuSans-31"/>
       <use xlink:href="#DejaVuSans-2e" x="63.623047"/>
       <use xlink:href="#DejaVuSans-34" x="95.410156"/>
      </g>
     </g>
    </g>
    <g id="xtick_8">
     <g id="line2d_8">
      <g>
       <use xlink:href="#mf049e14958" x="255.244266" y="216.443834" style="stroke: #000000; stroke-width: 0.8"/>
      </g>
     </g>
     <g id="text_8">
      <!-- 1.5 -->
      <g transform="translate(250.104263 246.709194) rotate(-45) scale(0.14 -0.14)">
       <defs>
        <path id="DejaVuSans-35" d="M 691 4666 
L 3169 4666 
L 3169 4134 
L 1269 4134 
L 1269 2991 
Q 1406 3038 1543 3061 
Q 1681 3084 1819 3084 
Q 2600 3084 3056 2656 
Q 3513 2228 3513 1497 
Q 3513 744 3044 326 
Q 2575 -91 1722 -91 
Q 1428 -91 1123 -41 
Q 819 9 494 109 
L 494 744 
Q 775 591 1075 516 
Q 1375 441 1709 441 
Q 2250 441 2565 725 
Q 2881 1009 2881 1497 
Q 2881 1984 2565 2268 
Q 2250 2553 1709 2553 
Q 1456 2553 1204 2497 
Q 953 2441 691 2322 
L 691 4666 
z
" transform="scale(0.015625)"/>
       </defs>
       <use xlink:href="#DejaVuSans-31"/>
       <use xlink:href="#DejaVuSans-2e" x="63.623047"/>
       <use xlink:href="#DejaVuSans-35" x="95.410156"/>
      </g>
     </g>
    </g>
    <g id="xtick_9">
     <g id="line2d_9">
      <g>
       <use xlink:href="#mf049e14958" x="276.60757" y="216.443834" style="stroke: #000000; stroke-width: 0.8"/>
      </g>
     </g>
     <g id="text_9">
      <!-- 1.8 -->
      <g transform="translate(271.467566 246.709194) rotate(-45) scale(0.14 -0.14)">
       <defs>
        <path id="DejaVuSans-38" d="M 2034 2216 
Q 1584 2216 1326 1975 
Q 1069 1734 1069 1313 
Q 1069 891 1326 650 
Q 1584 409 2034 409 
Q 2484 409 2743 651 
Q 3003 894 3003 1313 
Q 3003 1734 2745 1975 
Q 2488 2216 2034 2216 
z
M 1403 2484 
Q 997 2584 770 2862 
Q 544 3141 544 3541 
Q 544 4100 942 4425 
Q 1341 4750 2034 4750 
Q 2731 4750 3128 4425 
Q 3525 4100 3525 3541 
Q 3525 3141 3298 2862 
Q 3072 2584 2669 2484 
Q 3125 2378 3379 2068 
Q 3634 1759 3634 1313 
Q 3634 634 3220 271 
Q 2806 -91 2034 -91 
Q 1263 -91 848 271 
Q 434 634 434 1313 
Q 434 1759 690 2068 
Q 947 2378 1403 2484 
z
M 1172 3481 
Q 1172 3119 1398 2916 
Q 1625 2713 2034 2713 
Q 2441 2713 2670 2916 
Q 2900 3119 2900 3481 
Q 2900 3844 2670 4047 
Q 2441 4250 2034 4250 
Q 1625 4250 1398 4047 
Q 1172 3844 1172 3481 
z
" transform="scale(0.015625)"/>
       </defs>
       <use xlink:href="#DejaVuSans-31"/>
       <use xlink:href="#DejaVuSans-2e" x="63.623047"/>
       <use xlink:href="#DejaVuSans-38" x="95.410156"/>
      </g>
     </g>
    </g>
    <g id="xtick_10">
     <g id="line2d_10">
      <g>
       <use xlink:href="#mf049e14958" x="297.970874" y="216.443834" style="stroke: #000000; stroke-width: 0.8"/>
      </g>
     </g>
     <g id="text_10">
      <!-- 2.1 -->
      <g transform="translate(292.83087 246.709194) rotate(-45) scale(0.14 -0.14)">
       <use xlink:href="#DejaVuSans-32"/>
       <use xlink:href="#DejaVuSans-2e" x="63.623047"/>
       <use xlink:href="#DejaVuSans-31" x="95.410156"/>
      </g>
     </g>
    </g>
    <g id="xtick_11">
     <g id="line2d_11">
      <g>
       <use xlink:href="#mf049e14958" x="319.334177" y="216.443834" style="stroke: #000000; stroke-width: 0.8"/>
      </g>
     </g>
     <g id="text_11">
      <!-- 2.3 -->
      <g transform="translate(314.194174 246.709194) rotate(-45) scale(0.14 -0.14)">
       <use xlink:href="#DejaVuSans-32"/>
       <use xlink:href="#DejaVuSans-2e" x="63.623047"/>
       <use xlink:href="#DejaVuSans-33" x="95.410156"/>
      </g>
     </g>
    </g>
    <g id="xtick_12">
     <g id="line2d_12">
      <g>
       <use xlink:href="#mf049e14958" x="340.697481" y="216.443834" style="stroke: #000000; stroke-width: 0.8"/>
      </g>
     </g>
     <g id="text_12">
      <!-- 2.4 -->
      <g transform="translate(335.557478 246.709194) rotate(-45) scale(0.14 -0.14)">
       <use xlink:href="#DejaVuSans-32"/>
       <use xlink:href="#DejaVuSans-2e" x="63.623047"/>
       <use xlink:href="#DejaVuSans-34" x="95.410156"/>
      </g>
     </g>
    </g>
    <g id="xtick_13">
     <g id="line2d_13">
      <g>
       <use xlink:href="#mf049e14958" x="362.060785" y="216.443834" style="stroke: #000000; stroke-width: 0.8"/>
      </g>
     </g>
     <g id="text_13">
      <!-- 2.5 -->
      <g transform="translate(356.920782 246.709194) rotate(-45) scale(0.14 -0.14)">
       <use xlink:href="#DejaVuSans-32"/>
       <use xlink:href="#DejaVuSans-2e" x="63.623047"/>
       <use xlink:href="#DejaVuSans-35" x="95.410156"/>
      </g>
     </g>
    </g>
    <g id="xtick_14">
     <g id="line2d_14">
      <g>
       <use xlink:href="#mf049e14958" x="383.424089" y="216.443834" style="stroke: #000000; stroke-width: 0.8"/>
      </g>
     </g>
     <g id="text_14">
      <!-- 2.6 -->
      <g transform="translate(378.284085 246.709194) rotate(-45) scale(0.14 -0.14)">
       <defs>
        <path id="DejaVuSans-36" d="M 2113 2584 
Q 1688 2584 1439 2293 
Q 1191 2003 1191 1497 
Q 1191 994 1439 701 
Q 1688 409 2113 409 
Q 2538 409 2786 701 
Q 3034 994 3034 1497 
Q 3034 2003 2786 2293 
Q 2538 2584 2113 2584 
z
M 3366 4563 
L 3366 3988 
Q 3128 4100 2886 4159 
Q 2644 4219 2406 4219 
Q 1781 4219 1451 3797 
Q 1122 3375 1075 2522 
Q 1259 2794 1537 2939 
Q 1816 3084 2150 3084 
Q 2853 3084 3261 2657 
Q 3669 2231 3669 1497 
Q 3669 778 3244 343 
Q 2819 -91 2113 -91 
Q 1303 -91 875 529 
Q 447 1150 447 2328 
Q 447 3434 972 4092 
Q 1497 4750 2381 4750 
Q 2619 4750 2861 4703 
Q 3103 4656 3366 4563 
z
" transform="scale(0.015625)"/>
       </defs>
       <use xlink:href="#DejaVuSans-32"/>
       <use xlink:href="#DejaVuSans-2e" x="63.623047"/>
       <use xlink:href="#DejaVuSans-36" x="95.410156"/>
      </g>
     </g>
    </g>
    <g id="xtick_15">
     <g id="line2d_15">
      <g>
       <use xlink:href="#mf049e14958" x="404.787392" y="216.443834" style="stroke: #000000; stroke-width: 0.8"/>
      </g>
     </g>
     <g id="text_15">
      <!-- 2.7 -->
      <g transform="translate(399.647389 246.709194) rotate(-45) scale(0.14 -0.14)">
       <defs>
        <path id="DejaVuSans-37" d="M 525 4666 
L 3525 4666 
L 3525 4397 
L 1831 0 
L 1172 0 
L 2766 4134 
L 525 4134 
L 525 4666 
z
" transform="scale(0.015625)"/>
       </defs>
       <use xlink:href="#DejaVuSans-32"/>
       <use xlink:href="#DejaVuSans-2e" x="63.623047"/>
       <use xlink:href="#DejaVuSans-37" x="95.410156"/>
      </g>
     </g>
    </g>
    <g id="xtick_16">
     <g id="line2d_16">
      <g>
       <use xlink:href="#mf049e14958" x="426.150696" y="216.443834" style="stroke: #000000; stroke-width: 0.8"/>
      </g>
     </g>
     <g id="text_16">
      <!-- 2.8 -->
      <g transform="translate(421.010693 246.709194) rotate(-45) scale(0.14 -0.14)">
       <use xlink:href="#DejaVuSans-32"/>
       <use xlink:href="#DejaVuSans-2e" x="63.623047"/>
       <use xlink:href="#DejaVuSans-38" x="95.410156"/>
      </g>
     </g>
    </g>
    <g id="xtick_17">
     <g id="line2d_17">
      <g>
       <use xlink:href="#mf049e14958" x="447.514" y="216.443834" style="stroke: #000000; stroke-width: 0.8"/>
      </g>
     </g>
     <g id="text_17">
      <!-- 3.1 -->
      <g transform="translate(442.373997 246.709194) rotate(-45) scale(0.14 -0.14)">
       <use xlink:href="#DejaVuSans-33"/>
       <use xlink:href="#DejaVuSans-2e" x="63.623047"/>
       <use xlink:href="#DejaVuSans-31" x="95.410156"/>
      </g>
     </g>
    </g>
    <g id="xtick_18">
     <g id="line2d_18">
      <g>
       <use xlink:href="#mf049e14958" x="468.877304" y="216.443834" style="stroke: #000000; stroke-width: 0.8"/>
      </g>
     </g>
     <g id="text_18">
      <!-- 3.13 -->
      <g transform="translate(460.588024 253.007748) rotate(-45) scale(0.14 -0.14)">
       <use xlink:href="#DejaVuSans-33"/>
       <use xlink:href="#DejaVuSans-2e" x="63.623047"/>
       <use xlink:href="#DejaVuSans-31" x="95.410156"/>
       <use xlink:href="#DejaVuSans-33" x="159.033203"/>
      </g>
     </g>
    </g>
    <g id="xtick_19">
     <g id="line2d_19">
      <g>
       <use xlink:href="#mf049e14958" x="490.240608" y="216.443834" style="stroke: #000000; stroke-width: 0.8"/>
      </g>
     </g>
     <g id="text_19">
      <!-- 3.2 -->
      <g transform="translate(485.100604 246.709194) rotate(-45) scale(0.14 -0.14)">
       <use xlink:href="#DejaVuSans-33"/>
       <use xlink:href="#DejaVuSans-2e" x="63.623047"/>
       <use xlink:href="#DejaVuSans-32" x="95.410156"/>
      </g>
     </g>
    </g>
    <g id="xtick_20">
     <g id="line2d_20">
      <g>
       <use xlink:href="#mf049e14958" x="511.603911" y="216.443834" style="stroke: #000000; stroke-width: 0.8"/>
      </g>
     </g>
     <g id="text_20">
      <!-- 3.4 -->
      <g transform="translate(506.463908 246.709194) rotate(-45) scale(0.14 -0.14)">
       <use xlink:href="#DejaVuSans-33"/>
       <use xlink:href="#DejaVuSans-2e" x="63.623047"/>
       <use xlink:href="#DejaVuSans-34" x="95.410156"/>
      </g>
     </g>
    </g>
    <g id="xtick_21">
     <g id="line2d_21">
      <g>
       <use xlink:href="#mf049e14958" x="532.967215" y="216.443834" style="stroke: #000000; stroke-width: 0.8"/>
      </g>
     </g>
     <g id="text_21">
      <!-- 3.5 -->
      <g transform="translate(527.827212 246.709194) rotate(-45) scale(0.14 -0.14)">
       <use xlink:href="#DejaVuSans-33"/>
       <use xlink:href="#DejaVuSans-2e" x="63.623047"/>
       <use xlink:href="#DejaVuSans-35" x="95.410156"/>
      </g>
     </g>
    </g>
    <g id="xtick_22">
     <g id="line2d_22">
      <g>
       <use xlink:href="#mf049e14958" x="554.330519" y="216.443834" style="stroke: #000000; stroke-width: 0.8"/>
      </g>
     </g>
     <g id="text_22">
      <!-- 3.6 -->
      <g transform="translate(549.190515 246.709194) rotate(-45) scale(0.14 -0.14)">
       <use xlink:href="#DejaVuSans-33"/>
       <use xlink:href="#DejaVuSans-2e" x="63.623047"/>
       <use xlink:href="#DejaVuSans-36" x="95.410156"/>
      </g>
     </g>
    </g>
    <g id="xtick_23">
     <g id="line2d_23">
      <g>
       <use xlink:href="#mf049e14958" x="575.693823" y="216.443834" style="stroke: #000000; stroke-width: 0.8"/>
      </g>
     </g>
     <g id="text_23">
      <!-- 3.7 -->
      <g transform="translate(570.553819 246.709194) rotate(-45) scale(0.14 -0.14)">
       <use xlink:href="#DejaVuSans-33"/>
       <use xlink:href="#DejaVuSans-2e" x="63.623047"/>
       <use xlink:href="#DejaVuSans-37" x="95.410156"/>
      </g>
     </g>
    </g>
    <g id="xtick_24">
     <g id="line2d_24">
      <g>
       <use xlink:href="#mf049e14958" x="597.057126" y="216.443834" style="stroke: #000000; stroke-width: 0.8"/>
      </g>
     </g>
     <g id="text_24">
      <!-- 4.1 -->
      <g transform="translate(591.917123 246.709194) rotate(-45) scale(0.14 -0.14)">
       <use xlink:href="#DejaVuSans-34"/>
       <use xlink:href="#DejaVuSans-2e" x="63.623047"/>
       <use xlink:href="#DejaVuSans-31" x="95.410156"/>
      </g>
     </g>
    </g>
    <g id="xtick_25">
     <g id="line2d_25">
      <g>
       <use xlink:href="#mf049e14958" x="618.42043" y="216.443834" style="stroke: #000000; stroke-width: 0.8"/>
      </g>
     </g>
     <g id="text_25">
      <!-- 4.2 -->
      <g transform="translate(613.280427 246.709194) rotate(-45) scale(0.14 -0.14)">
       <use xlink:href="#DejaVuSans-34"/>
       <use xlink:href="#DejaVuSans-2e" x="63.623047"/>
       <use xlink:href="#DejaVuSans-32" x="95.410156"/>
      </g>
     </g>
    </g>
    <g id="xtick_26">
     <g id="line2d_26">
      <g>
       <use xlink:href="#mf049e14958" x="639.783734" y="216.443834" style="stroke: #000000; stroke-width: 0.8"/>
      </g>
     </g>
     <g id="text_26">
      <!-- 4.3 -->
      <g transform="translate(634.643731 246.709194) rotate(-45) scale(0.14 -0.14)">
       <use xlink:href="#DejaVuSans-34"/>
       <use xlink:href="#DejaVuSans-2e" x="63.623047"/>
       <use xlink:href="#DejaVuSans-33" x="95.410156"/>
      </g>
     </g>
    </g>
    <g id="xtick_27">
     <g id="line2d_27">
      <g>
       <use xlink:href="#mf049e14958" x="661.147038" y="216.443834" style="stroke: #000000; stroke-width: 0.8"/>
      </g>
     </g>
     <g id="text_27">
      <!-- 4.4 -->
      <g transform="translate(656.007034 246.709194) rotate(-45) scale(0.14 -0.14)">
       <use xlink:href="#DejaVuSans-34"/>
       <use xlink:href="#DejaVuSans-2e" x="63.623047"/>
       <use xlink:href="#DejaVuSans-34" x="95.410156"/>
      </g>
     </g>
    </g>
    <g id="xtick_28">
     <g id="line2d_28">
      <g>
       <use xlink:href="#mf049e14958" x="682.510341" y="216.443834" style="stroke: #000000; stroke-width: 0.8"/>
      </g>
     </g>
     <g id="text_28">
      <!-- 4.6 -->
      <g transform="translate(677.370338 246.709194) rotate(-45) scale(0.14 -0.14)">
       <use xlink:href="#DejaVuSans-34"/>
       <use xlink:href="#DejaVuSans-2e" x="63.623047"/>
       <use xlink:href="#DejaVuSans-36" x="95.410156"/>
      </g>
     </g>
    </g>
    <g id="xtick_29">
     <g id="line2d_29">
      <g>
       <use xlink:href="#mf049e14958" x="703.873645" y="216.443834" style="stroke: #000000; stroke-width: 0.8"/>
      </g>
     </g>
     <g id="text_29">
      <!-- 4.8 -->
      <g transform="translate(698.733642 246.709194) rotate(-45) scale(0.14 -0.14)">
       <use xlink:href="#DejaVuSans-34"/>
       <use xlink:href="#DejaVuSans-2e" x="63.623047"/>
       <use xlink:href="#DejaVuSans-38" x="95.410156"/>
      </g>
     </g>
    </g>
    <g id="xtick_30">
     <g id="line2d_30">
      <g>
       <use xlink:href="#mf049e14958" x="725.236949" y="216.443834" style="stroke: #000000; stroke-width: 0.8"/>
      </g>
     </g>
     <g id="text_30">
      <!-- 5.3 -->
      <g transform="translate(720.096946 246.709194) rotate(-45) scale(0.14 -0.14)">
       <use xlink:href="#DejaVuSans-35"/>
       <use xlink:href="#DejaVuSans-2e" x="63.623047"/>
       <use xlink:href="#DejaVuSans-33" x="95.410156"/>
      </g>
     </g>
    </g>
    <g id="xtick_31">
     <g id="line2d_31">
      <g>
       <use xlink:href="#mf049e14958" x="746.600253" y="216.443834" style="stroke: #000000; stroke-width: 0.8"/>
      </g>
     </g>
     <g id="text_31">
      <!-- 5.4 -->
      <g transform="translate(741.460249 246.709194) rotate(-45) scale(0.14 -0.14)">
       <use xlink:href="#DejaVuSans-35"/>
       <use xlink:href="#DejaVuSans-2e" x="63.623047"/>
       <use xlink:href="#DejaVuSans-34" x="95.410156"/>
      </g>
     </g>
    </g>
    <g id="xtick_32">
     <g id="line2d_32">
      <g>
       <use xlink:href="#mf049e14958" x="767.963557" y="216.443834" style="stroke: #000000; stroke-width: 0.8"/>
      </g>
     </g>
     <g id="text_32">
      <!-- 5.5 -->
      <g transform="translate(762.823553 246.709194) rotate(-45) scale(0.14 -0.14)">
       <use xlink:href="#DejaVuSans-35"/>
       <use xlink:href="#DejaVuSans-2e" x="63.623047"/>
       <use xlink:href="#DejaVuSans-35" x="95.410156"/>
      </g>
     </g>
    </g>
    <g id="xtick_33">
     <g id="line2d_33">
      <g>
       <use xlink:href="#mf049e14958" x="789.32686" y="216.443834" style="stroke: #000000; stroke-width: 0.8"/>
      </g>
     </g>
     <g id="text_33">
      <!-- 6.3 -->
      <g transform="translate(784.186857 246.709194) rotate(-45) scale(0.14 -0.14)">
       <use xlink:href="#DejaVuSans-36"/>
       <use xlink:href="#DejaVuSans-2e" x="63.623047"/>
       <use xlink:href="#DejaVuSans-33" x="95.410156"/>
      </g>
     </g>
    </g>
    <g id="text_34">
     <!-- EC level 2 -->
     <g transform="translate(412.652906 269.704346) scale(0.14 -0.14)">
      <defs>
       <path id="DejaVuSans-45" d="M 628 4666 
L 3578 4666 
L 3578 4134 
L 1259 4134 
L 1259 2753 
L 3481 2753 
L 3481 2222 
L 1259 2222 
L 1259 531 
L 3634 531 
L 3634 0 
L 628 0 
L 628 4666 
z
" transform="scale(0.015625)"/>
       <path id="DejaVuSans-43" d="M 4122 4306 
L 4122 3641 
Q 3803 3938 3442 4084 
Q 3081 4231 2675 4231 
Q 1875 4231 1450 3742 
Q 1025 3253 1025 2328 
Q 1025 1406 1450 917 
Q 1875 428 2675 428 
Q 3081 428 3442 575 
Q 3803 722 4122 1019 
L 4122 359 
Q 3791 134 3420 21 
Q 3050 -91 2638 -91 
Q 1578 -91 968 557 
Q 359 1206 359 2328 
Q 359 3453 968 4101 
Q 1578 4750 2638 4750 
Q 3056 4750 3426 4639 
Q 3797 4528 4122 4306 
z
" transform="scale(0.015625)"/>
       <path id="DejaVuSans-20" transform="scale(0.015625)"/>
       <path id="DejaVuSans-6c" d="M 603 4863 
L 1178 4863 
L 1178 0 
L 603 0 
L 603 4863 
z
" transform="scale(0.015625)"/>
       <path id="DejaVuSans-65" d="M 3597 1894 
L 3597 1613 
L 953 1613 
Q 991 1019 1311 708 
Q 1631 397 2203 397 
Q 2534 397 2845 478 
Q 3156 559 3463 722 
L 3463 178 
Q 3153 47 2828 -22 
Q 2503 -91 2169 -91 
Q 1331 -91 842 396 
Q 353 884 353 1716 
Q 353 2575 817 3079 
Q 1281 3584 2069 3584 
Q 2775 3584 3186 3129 
Q 3597 2675 3597 1894 
z
M 3022 2063 
Q 3016 2534 2758 2815 
Q 2500 3097 2075 3097 
Q 1594 3097 1305 2825 
Q 1016 2553 972 2059 
L 3022 2063 
z
" transform="scale(0.015625)"/>
       <path id="DejaVuSans-76" d="M 191 3500 
L 800 3500 
L 1894 563 
L 2988 3500 
L 3597 3500 
L 2284 0 
L 1503 0 
L 191 3500 
z
" transform="scale(0.015625)"/>
      </defs>
      <use xlink:href="#DejaVuSans-45"/>
      <use xlink:href="#DejaVuSans-43" x="63.183594"/>
      <use xlink:href="#DejaVuSans-20" x="133.007812"/>
      <use xlink:href="#DejaVuSans-6c" x="164.794922"/>
      <use xlink:href="#DejaVuSans-65" x="192.578125"/>
      <use xlink:href="#DejaVuSans-76" x="254.101562"/>
      <use xlink:href="#DejaVuSans-65" x="313.28125"/>
      <use xlink:href="#DejaVuSans-6c" x="374.804688"/>
      <use xlink:href="#DejaVuSans-20" x="402.587891"/>
      <use xlink:href="#DejaVuSans-32" x="434.375"/>
     </g>
    </g>
   </g>
   <g id="matplotlib.axis_2">
    <g id="ytick_1">
     <g id="line2d_34">
      <defs>
       <path id="md46e4139fc" d="M 0 0 
L -3.5 0 
" style="stroke: #000000; stroke-width: 0.8"/>
      </defs>
      <g>
       <use xlink:href="#md46e4139fc" x="62.12" y="199.666848" style="stroke: #000000; stroke-width: 0.8"/>
      </g>
     </g>
     <g id="text_35">
      <!-- 0.5 -->
      <g transform="translate(32.855625 204.985755) scale(0.14 -0.14)">
       <defs>
        <path id="DejaVuSans-30" d="M 2034 4250 
Q 1547 4250 1301 3770 
Q 1056 3291 1056 2328 
Q 1056 1369 1301 889 
Q 1547 409 2034 409 
Q 2525 409 2770 889 
Q 3016 1369 3016 2328 
Q 3016 3291 2770 3770 
Q 2525 4250 2034 4250 
z
M 2034 4750 
Q 2819 4750 3233 4129 
Q 3647 3509 3647 2328 
Q 3647 1150 3233 529 
Q 2819 -91 2034 -91 
Q 1250 -91 836 529 
Q 422 1150 422 2328 
Q 422 3509 836 4129 
Q 1250 4750 2034 4750 
z
" transform="scale(0.015625)"/>
       </defs>
       <use xlink:href="#DejaVuSans-30"/>
       <use xlink:href="#DejaVuSans-2e" x="63.623047"/>
       <use xlink:href="#DejaVuSans-35" x="95.410156"/>
      </g>
     </g>
    </g>
    <g id="ytick_2">
     <g id="line2d_35">
      <g>
       <use xlink:href="#md46e4139fc" x="62.12" y="166.112876" style="stroke: #000000; stroke-width: 0.8"/>
      </g>
     </g>
     <g id="text_36">
      <!-- 0.6 -->
      <g transform="translate(32.855625 171.431782) scale(0.14 -0.14)">
       <use xlink:href="#DejaVuSans-30"/>
       <use xlink:href="#DejaVuSans-2e" x="63.623047"/>
       <use xlink:href="#DejaVuSans-36" x="95.410156"/>
      </g>
     </g>
    </g>
    <g id="ytick_3">
     <g id="line2d_36">
      <g>
       <use xlink:href="#md46e4139fc" x="62.12" y="132.558903" style="stroke: #000000; stroke-width: 0.8"/>
      </g>
     </g>
     <g id="text_37">
      <!-- 0.7 -->
      <g transform="translate(32.855625 137.87781) scale(0.14 -0.14)">
       <use xlink:href="#DejaVuSans-30"/>
       <use xlink:href="#DejaVuSans-2e" x="63.623047"/>
       <use xlink:href="#DejaVuSans-37" x="95.410156"/>
      </g>
     </g>
    </g>
    <g id="ytick_4">
     <g id="line2d_37">
      <g>
       <use xlink:href="#md46e4139fc" x="62.12" y="99.004931" style="stroke: #000000; stroke-width: 0.8"/>
      </g>
     </g>
     <g id="text_38">
      <!-- 0.8 -->
      <g transform="translate(32.855625 104.323837) scale(0.14 -0.14)">
       <use xlink:href="#DejaVuSans-30"/>
       <use xlink:href="#DejaVuSans-2e" x="63.623047"/>
       <use xlink:href="#DejaVuSans-38" x="95.410156"/>
      </g>
     </g>
    </g>
    <g id="ytick_5">
     <g id="line2d_38">
      <g>
       <use xlink:href="#md46e4139fc" x="62.12" y="65.450959" style="stroke: #000000; stroke-width: 0.8"/>
      </g>
     </g>
     <g id="text_39">
      <!-- 0.9 -->
      <g transform="translate(32.855625 70.769865) scale(0.14 -0.14)">
       <defs>
        <path id="DejaVuSans-39" d="M 703 97 
L 703 672 
Q 941 559 1184 500 
Q 1428 441 1663 441 
Q 2288 441 2617 861 
Q 2947 1281 2994 2138 
Q 2813 1869 2534 1725 
Q 2256 1581 1919 1581 
Q 1219 1581 811 2004 
Q 403 2428 403 3163 
Q 403 3881 828 4315 
Q 1253 4750 1959 4750 
Q 2769 4750 3195 4129 
Q 3622 3509 3622 2328 
Q 3622 1225 3098 567 
Q 2575 -91 1691 -91 
Q 1453 -91 1209 -44 
Q 966 3 703 97 
z
M 1959 2075 
Q 2384 2075 2632 2365 
Q 2881 2656 2881 3163 
Q 2881 3666 2632 3958 
Q 2384 4250 1959 4250 
Q 1534 4250 1286 3958 
Q 1038 3666 1038 3163 
Q 1038 2656 1286 2365 
Q 1534 2075 1959 2075 
z
" transform="scale(0.015625)"/>
       </defs>
       <use xlink:href="#DejaVuSans-30"/>
       <use xlink:href="#DejaVuSans-2e" x="63.623047"/>
       <use xlink:href="#DejaVuSans-39" x="95.410156"/>
      </g>
     </g>
    </g>
    <g id="ytick_6">
     <g id="line2d_39">
      <g>
       <use xlink:href="#md46e4139fc" x="62.12" y="31.896986" style="stroke: #000000; stroke-width: 0.8"/>
      </g>
     </g>
     <g id="text_40">
      <!-- 1.0 -->
      <g transform="translate(32.855625 37.215892) scale(0.14 -0.14)">
       <use xlink:href="#DejaVuSans-31"/>
       <use xlink:href="#DejaVuSans-2e" x="63.623047"/>
       <use xlink:href="#DejaVuSans-30" x="95.410156"/>
      </g>
     </g>
    </g>
    <g id="text_41">
     <!-- ROC-AUC -->
     <g transform="translate(25.944062 148.211605) rotate(-90) scale(0.14 -0.14)">
      <defs>
       <path id="DejaVuSans-52" d="M 2841 2188 
Q 3044 2119 3236 1894 
Q 3428 1669 3622 1275 
L 4263 0 
L 3584 0 
L 2988 1197 
Q 2756 1666 2539 1819 
Q 2322 1972 1947 1972 
L 1259 1972 
L 1259 0 
L 628 0 
L 628 4666 
L 2053 4666 
Q 2853 4666 3247 4331 
Q 3641 3997 3641 3322 
Q 3641 2881 3436 2590 
Q 3231 2300 2841 2188 
z
M 1259 4147 
L 1259 2491 
L 2053 2491 
Q 2509 2491 2742 2702 
Q 2975 2913 2975 3322 
Q 2975 3731 2742 3939 
Q 2509 4147 2053 4147 
L 1259 4147 
z
" transform="scale(0.015625)"/>
       <path id="DejaVuSans-4f" d="M 2522 4238 
Q 1834 4238 1429 3725 
Q 1025 3213 1025 2328 
Q 1025 1447 1429 934 
Q 1834 422 2522 422 
Q 3209 422 3611 934 
Q 4013 1447 4013 2328 
Q 4013 3213 3611 3725 
Q 3209 4238 2522 4238 
z
M 2522 4750 
Q 3503 4750 4090 4092 
Q 4678 3434 4678 2328 
Q 4678 1225 4090 567 
Q 3503 -91 2522 -91 
Q 1538 -91 948 565 
Q 359 1222 359 2328 
Q 359 3434 948 4092 
Q 1538 4750 2522 4750 
z
" transform="scale(0.015625)"/>
       <path id="DejaVuSans-2d" d="M 313 2009 
L 1997 2009 
L 1997 1497 
L 313 1497 
L 313 2009 
z
" transform="scale(0.015625)"/>
       <path id="DejaVuSans-41" d="M 2188 4044 
L 1331 1722 
L 3047 1722 
L 2188 4044 
z
M 1831 4666 
L 2547 4666 
L 4325 0 
L 3669 0 
L 3244 1197 
L 1141 1197 
L 716 0 
L 50 0 
L 1831 4666 
z
" transform="scale(0.015625)"/>
       <path id="DejaVuSans-55" d="M 556 4666 
L 1191 4666 
L 1191 1831 
Q 1191 1081 1462 751 
Q 1734 422 2344 422 
Q 2950 422 3222 751 
Q 3494 1081 3494 1831 
L 3494 4666 
L 4128 4666 
L 4128 1753 
Q 4128 841 3676 375 
Q 3225 -91 2344 -91 
Q 1459 -91 1007 375 
Q 556 841 556 1753 
L 556 4666 
z
" transform="scale(0.015625)"/>
      </defs>
      <use xlink:href="#DejaVuSans-52"/>
      <use xlink:href="#DejaVuSans-4f" x="69.482422"/>
      <use xlink:href="#DejaVuSans-43" x="148.193359"/>
      <use xlink:href="#DejaVuSans-2d" x="218.017578"/>
      <use xlink:href="#DejaVuSans-41" x="251.851562"/>
      <use xlink:href="#DejaVuSans-55" x="320.259766"/>
      <use xlink:href="#DejaVuSans-43" x="393.453125"/>
     </g>
    </g>
   </g>
   <g id="patch_102">
    <path d="M 62.12 216.443834 
L 62.12 15.12 
" style="fill: none; stroke: #000000; stroke-width: 0.8; stroke-linejoin: miter; stroke-linecap: square"/>
   </g>
   <g id="patch_103">
    <path d="M 832.908 216.443834 
L 832.908 15.12 
" style="fill: none; stroke: #000000; stroke-width: 0.8; stroke-linejoin: miter; stroke-linecap: square"/>
   </g>
   <g id="patch_104">
    <path d="M 62.12 216.443834 
L 832.908 216.443834 
" style="fill: none; stroke: #000000; stroke-width: 0.8; stroke-linejoin: miter; stroke-linecap: square"/>
   </g>
   <g id="patch_105">
    <path d="M 62.12 15.12 
L 832.908 15.12 
" style="fill: none; stroke: #000000; stroke-width: 0.8; stroke-linejoin: miter; stroke-linecap: square"/>
   </g>
   <g id="legend_1">
    <g id="patch_106">
     <path d="M 849.01588 77.56125 
L 990.73588 77.56125 
Q 993.13588 77.56125 993.13588 75.16125 
L 993.13588 23.52 
Q 993.13588 21.12 990.73588 21.12 
L 849.01588 21.12 
Q 846.61588 21.12 846.61588 23.52 
L 846.61588 75.16125 
Q 846.61588 77.56125 849.01588 77.56125 
z
" style="fill: #ffffff; opacity: 0.8; stroke: #cccccc; stroke-linejoin: miter"/>
    </g>
    <g id="patch_107">
     <path d="M 851.41588 35.038125 
L 875.41588 35.038125 
L 875.41588 26.638125 
L 851.41588 26.638125 
z
" style="fill: #800080"/>
    </g>
    <g id="text_42">
     <!-- RC aggregated -->
     <g transform="translate(885.01588 35.038125) scale(0.12 -0.12)">
      <defs>
       <path id="DejaVuSans-61" d="M 2194 1759 
Q 1497 1759 1228 1600 
Q 959 1441 959 1056 
Q 959 750 1161 570 
Q 1363 391 1709 391 
Q 2188 391 2477 730 
Q 2766 1069 2766 1631 
L 2766 1759 
L 2194 1759 
z
M 3341 1997 
L 3341 0 
L 2766 0 
L 2766 531 
Q 2569 213 2275 61 
Q 1981 -91 1556 -91 
Q 1019 -91 701 211 
Q 384 513 384 1019 
Q 384 1609 779 1909 
Q 1175 2209 1959 2209 
L 2766 2209 
L 2766 2266 
Q 2766 2663 2505 2880 
Q 2244 3097 1772 3097 
Q 1472 3097 1187 3025 
Q 903 2953 641 2809 
L 641 3341 
Q 956 3463 1253 3523 
Q 1550 3584 1831 3584 
Q 2591 3584 2966 3190 
Q 3341 2797 3341 1997 
z
" transform="scale(0.015625)"/>
       <path id="DejaVuSans-67" d="M 2906 1791 
Q 2906 2416 2648 2759 
Q 2391 3103 1925 3103 
Q 1463 3103 1205 2759 
Q 947 2416 947 1791 
Q 947 1169 1205 825 
Q 1463 481 1925 481 
Q 2391 481 2648 825 
Q 2906 1169 2906 1791 
z
M 3481 434 
Q 3481 -459 3084 -895 
Q 2688 -1331 1869 -1331 
Q 1566 -1331 1297 -1286 
Q 1028 -1241 775 -1147 
L 775 -588 
Q 1028 -725 1275 -790 
Q 1522 -856 1778 -856 
Q 2344 -856 2625 -561 
Q 2906 -266 2906 331 
L 2906 616 
Q 2728 306 2450 153 
Q 2172 0 1784 0 
Q 1141 0 747 490 
Q 353 981 353 1791 
Q 353 2603 747 3093 
Q 1141 3584 1784 3584 
Q 2172 3584 2450 3431 
Q 2728 3278 2906 2969 
L 2906 3500 
L 3481 3500 
L 3481 434 
z
" transform="scale(0.015625)"/>
       <path id="DejaVuSans-72" d="M 2631 2963 
Q 2534 3019 2420 3045 
Q 2306 3072 2169 3072 
Q 1681 3072 1420 2755 
Q 1159 2438 1159 1844 
L 1159 0 
L 581 0 
L 581 3500 
L 1159 3500 
L 1159 2956 
Q 1341 3275 1631 3429 
Q 1922 3584 2338 3584 
Q 2397 3584 2469 3576 
Q 2541 3569 2628 3553 
L 2631 2963 
z
" transform="scale(0.015625)"/>
       <path id="DejaVuSans-74" d="M 1172 4494 
L 1172 3500 
L 2356 3500 
L 2356 3053 
L 1172 3053 
L 1172 1153 
Q 1172 725 1289 603 
Q 1406 481 1766 481 
L 2356 481 
L 2356 0 
L 1766 0 
Q 1100 0 847 248 
Q 594 497 594 1153 
L 594 3053 
L 172 3053 
L 172 3500 
L 594 3500 
L 594 4494 
L 1172 4494 
z
" transform="scale(0.015625)"/>
       <path id="DejaVuSans-64" d="M 2906 2969 
L 2906 4863 
L 3481 4863 
L 3481 0 
L 2906 0 
L 2906 525 
Q 2725 213 2448 61 
Q 2172 -91 1784 -91 
Q 1150 -91 751 415 
Q 353 922 353 1747 
Q 353 2572 751 3078 
Q 1150 3584 1784 3584 
Q 2172 3584 2448 3432 
Q 2725 3281 2906 2969 
z
M 947 1747 
Q 947 1113 1208 752 
Q 1469 391 1925 391 
Q 2381 391 2643 752 
Q 2906 1113 2906 1747 
Q 2906 2381 2643 2742 
Q 2381 3103 1925 3103 
Q 1469 3103 1208 2742 
Q 947 2381 947 1747 
z
" transform="scale(0.015625)"/>
      </defs>
      <use xlink:href="#DejaVuSans-52"/>
      <use xlink:href="#DejaVuSans-43" x="64.482422"/>
      <use xlink:href="#DejaVuSans-20" x="134.306641"/>
      <use xlink:href="#DejaVuSans-61" x="166.09375"/>
      <use xlink:href="#DejaVuSans-67" x="227.373047"/>
      <use xlink:href="#DejaVuSans-67" x="290.849609"/>
      <use xlink:href="#DejaVuSans-72" x="354.326172"/>
      <use xlink:href="#DejaVuSans-65" x="393.189453"/>
      <use xlink:href="#DejaVuSans-67" x="454.712891"/>
      <use xlink:href="#DejaVuSans-61" x="518.189453"/>
      <use xlink:href="#DejaVuSans-74" x="579.46875"/>
      <use xlink:href="#DejaVuSans-65" x="618.677734"/>
      <use xlink:href="#DejaVuSans-64" x="680.201172"/>
     </g>
    </g>
    <g id="patch_108">
     <path d="M 851.41588 52.651875 
L 875.41588 52.651875 
L 875.41588 44.251875 
L 851.41588 44.251875 
z
" style="fill: #228b22"/>
    </g>
    <g id="text_43">
     <!-- RC connected -->
     <g transform="translate(885.01588 52.651875) scale(0.12 -0.12)">
      <defs>
       <path id="DejaVuSans-63" d="M 3122 3366 
L 3122 2828 
Q 2878 2963 2633 3030 
Q 2388 3097 2138 3097 
Q 1578 3097 1268 2742 
Q 959 2388 959 1747 
Q 959 1106 1268 751 
Q 1578 397 2138 397 
Q 2388 397 2633 464 
Q 2878 531 3122 666 
L 3122 134 
Q 2881 22 2623 -34 
Q 2366 -91 2075 -91 
Q 1284 -91 818 406 
Q 353 903 353 1747 
Q 353 2603 823 3093 
Q 1294 3584 2113 3584 
Q 2378 3584 2631 3529 
Q 2884 3475 3122 3366 
z
" transform="scale(0.015625)"/>
       <path id="DejaVuSans-6f" d="M 1959 3097 
Q 1497 3097 1228 2736 
Q 959 2375 959 1747 
Q 959 1119 1226 758 
Q 1494 397 1959 397 
Q 2419 397 2687 759 
Q 2956 1122 2956 1747 
Q 2956 2369 2687 2733 
Q 2419 3097 1959 3097 
z
M 1959 3584 
Q 2709 3584 3137 3096 
Q 3566 2609 3566 1747 
Q 3566 888 3137 398 
Q 2709 -91 1959 -91 
Q 1206 -91 779 398 
Q 353 888 353 1747 
Q 353 2609 779 3096 
Q 1206 3584 1959 3584 
z
" transform="scale(0.015625)"/>
       <path id="DejaVuSans-6e" d="M 3513 2113 
L 3513 0 
L 2938 0 
L 2938 2094 
Q 2938 2591 2744 2837 
Q 2550 3084 2163 3084 
Q 1697 3084 1428 2787 
Q 1159 2491 1159 1978 
L 1159 0 
L 581 0 
L 581 3500 
L 1159 3500 
L 1159 2956 
Q 1366 3272 1645 3428 
Q 1925 3584 2291 3584 
Q 2894 3584 3203 3211 
Q 3513 2838 3513 2113 
z
" transform="scale(0.015625)"/>
      </defs>
      <use xlink:href="#DejaVuSans-52"/>
      <use xlink:href="#DejaVuSans-43" x="64.482422"/>
      <use xlink:href="#DejaVuSans-20" x="134.306641"/>
      <use xlink:href="#DejaVuSans-63" x="166.09375"/>
      <use xlink:href="#DejaVuSans-6f" x="221.074219"/>
      <use xlink:href="#DejaVuSans-6e" x="282.255859"/>
      <use xlink:href="#DejaVuSans-6e" x="345.634766"/>
      <use xlink:href="#DejaVuSans-65" x="409.013672"/>
      <use xlink:href="#DejaVuSans-63" x="470.537109"/>
      <use xlink:href="#DejaVuSans-74" x="525.517578"/>
      <use xlink:href="#DejaVuSans-65" x="564.726562"/>
      <use xlink:href="#DejaVuSans-64" x="626.25"/>
     </g>
    </g>
    <g id="patch_109">
     <path d="M 851.41588 70.265625 
L 875.41588 70.265625 
L 875.41588 61.865625 
L 851.41588 61.865625 
z
" style="fill: #0000cd"/>
    </g>
    <g id="text_44">
     <!-- Bag of molecules -->
     <g transform="translate(885.01588 70.265625) scale(0.12 -0.12)">
      <defs>
       <path id="DejaVuSans-42" d="M 1259 2228 
L 1259 519 
L 2272 519 
Q 2781 519 3026 730 
Q 3272 941 3272 1375 
Q 3272 1813 3026 2020 
Q 2781 2228 2272 2228 
L 1259 2228 
z
M 1259 4147 
L 1259 2741 
L 2194 2741 
Q 2656 2741 2882 2914 
Q 3109 3088 3109 3444 
Q 3109 3797 2882 3972 
Q 2656 4147 2194 4147 
L 1259 4147 
z
M 628 4666 
L 2241 4666 
Q 2963 4666 3353 4366 
Q 3744 4066 3744 3513 
Q 3744 3084 3544 2831 
Q 3344 2578 2956 2516 
Q 3422 2416 3680 2098 
Q 3938 1781 3938 1306 
Q 3938 681 3513 340 
Q 3088 0 2303 0 
L 628 0 
L 628 4666 
z
" transform="scale(0.015625)"/>
       <path id="DejaVuSans-66" d="M 2375 4863 
L 2375 4384 
L 1825 4384 
Q 1516 4384 1395 4259 
Q 1275 4134 1275 3809 
L 1275 3500 
L 2222 3500 
L 2222 3053 
L 1275 3053 
L 1275 0 
L 697 0 
L 697 3053 
L 147 3053 
L 147 3500 
L 697 3500 
L 697 3744 
Q 697 4328 969 4595 
Q 1241 4863 1831 4863 
L 2375 4863 
z
" transform="scale(0.015625)"/>
       <path id="DejaVuSans-6d" d="M 3328 2828 
Q 3544 3216 3844 3400 
Q 4144 3584 4550 3584 
Q 5097 3584 5394 3201 
Q 5691 2819 5691 2113 
L 5691 0 
L 5113 0 
L 5113 2094 
Q 5113 2597 4934 2840 
Q 4756 3084 4391 3084 
Q 3944 3084 3684 2787 
Q 3425 2491 3425 1978 
L 3425 0 
L 2847 0 
L 2847 2094 
Q 2847 2600 2669 2842 
Q 2491 3084 2119 3084 
Q 1678 3084 1418 2786 
Q 1159 2488 1159 1978 
L 1159 0 
L 581 0 
L 581 3500 
L 1159 3500 
L 1159 2956 
Q 1356 3278 1631 3431 
Q 1906 3584 2284 3584 
Q 2666 3584 2933 3390 
Q 3200 3197 3328 2828 
z
" transform="scale(0.015625)"/>
       <path id="DejaVuSans-75" d="M 544 1381 
L 544 3500 
L 1119 3500 
L 1119 1403 
Q 1119 906 1312 657 
Q 1506 409 1894 409 
Q 2359 409 2629 706 
Q 2900 1003 2900 1516 
L 2900 3500 
L 3475 3500 
L 3475 0 
L 2900 0 
L 2900 538 
Q 2691 219 2414 64 
Q 2138 -91 1772 -91 
Q 1169 -91 856 284 
Q 544 659 544 1381 
z
M 1991 3584 
L 1991 3584 
z
" transform="scale(0.015625)"/>
       <path id="DejaVuSans-73" d="M 2834 3397 
L 2834 2853 
Q 2591 2978 2328 3040 
Q 2066 3103 1784 3103 
Q 1356 3103 1142 2972 
Q 928 2841 928 2578 
Q 928 2378 1081 2264 
Q 1234 2150 1697 2047 
L 1894 2003 
Q 2506 1872 2764 1633 
Q 3022 1394 3022 966 
Q 3022 478 2636 193 
Q 2250 -91 1575 -91 
Q 1294 -91 989 -36 
Q 684 19 347 128 
L 347 722 
Q 666 556 975 473 
Q 1284 391 1588 391 
Q 1994 391 2212 530 
Q 2431 669 2431 922 
Q 2431 1156 2273 1281 
Q 2116 1406 1581 1522 
L 1381 1569 
Q 847 1681 609 1914 
Q 372 2147 372 2553 
Q 372 3047 722 3315 
Q 1072 3584 1716 3584 
Q 2034 3584 2315 3537 
Q 2597 3491 2834 3397 
z
" transform="scale(0.015625)"/>
      </defs>
      <use xlink:href="#DejaVuSans-42"/>
      <use xlink:href="#DejaVuSans-61" x="68.603516"/>
      <use xlink:href="#DejaVuSans-67" x="129.882812"/>
      <use xlink:href="#DejaVuSans-20" x="193.359375"/>
      <use xlink:href="#DejaVuSans-6f" x="225.146484"/>
      <use xlink:href="#DejaVuSans-66" x="286.328125"/>
      <use xlink:href="#DejaVuSans-20" x="321.533203"/>
      <use xlink:href="#DejaVuSans-6d" x="353.320312"/>
      <use xlink:href="#DejaVuSans-6f" x="450.732422"/>
      <use xlink:href="#DejaVuSans-6c" x="511.914062"/>
      <use xlink:href="#DejaVuSans-65" x="539.697266"/>
      <use xlink:href="#DejaVuSans-63" x="601.220703"/>
      <use xlink:href="#DejaVuSans-75" x="656.201172"/>
      <use xlink:href="#DejaVuSans-6c" x="719.580078"/>
      <use xlink:href="#DejaVuSans-65" x="747.363281"/>
      <use xlink:href="#DejaVuSans-73" x="808.886719"/>
     </g>
    </g>
   </g>
  </g>
 </g>
 <defs>
  <clipPath id="pd21eec3bec">
   <rect x="62.12" y="15.12" width="770.788" height="201.323834"/>
  </clipPath>
 </defs>
</svg>
