<?xml version="1.0" encoding="utf-8" standalone="no"?>
<!DOCTYPE svg PUBLIC "-//W3C//DTD SVG 1.1//EN"
  "http://www.w3.org/Graphics/SVG/1.1/DTD/svg11.dtd">
<svg xmlns:xlink="http://www.w3.org/1999/xlink" width="1008pt" height="288pt" viewBox="0 0 1008 288" xmlns="http://www.w3.org/2000/svg" version="1.1">
 <metadata>
  <rdf:RDF xmlns:dc="http://purl.org/dc/elements/1.1/" xmlns:cc="http://creativecommons.org/ns#" xmlns:rdf="http://www.w3.org/1999/02/22-rdf-syntax-ns#">
   <cc:Work>
    <dc:type rdf:resource="http://purl.org/dc/dcmitype/StillImage"/>
    <dc:date>2025-12-18T14:40:34.271473</dc:date>
    <dc:format>image/svg+xml</dc:format>
    <dc:creator>
     <cc:Agent>
      <dc:title>Matplotlib v3.8.4, https://matplotlib.org/</dc:title>
     </cc:Agent>
    </dc:creator>
   </cc:Work>
  </rdf:RDF>
 </metadata>
 <defs>
  <style type="text/css">*{stroke-linejoin: round; stroke-linecap: butt}</style>
 </defs>
 <g id="figure_1">
  <g id="patch_1">
   <path d="M 0 288 
L 1008 288 
L 1008 0 
L 0 0 
z
" style="fill: #ffffff"/>
  </g>
  <g id="axes_1">
   <g id="patch_2">
    <path d="M 70.85 216.443834 
L 832.908 216.443834 
L 832.908 15.12 
L 70.85 15.12 
z
" style="fill: #ffffff"/>
   </g>
   <g id="patch_3">
    <path d="M 105.489 216.443834 
L 111.121358 216.443834 
L 111.121358 158.458213 
L 105.489 158.458213 
z
" clip-path="url(#p105d7b5d8f)" style="fill: #800080"/>
   </g>
   <g id="patch_4">
    <path d="M 126.610341 216.443834 
L 132.242699 216.443834 
L 132.242699 111.641953 
L 126.610341 111.641953 
z
" clip-path="url(#p105d7b5d8f)" style="fill: #800080"/>
   </g>
   <g id="patch_5">
    <path d="M 147.731683 216.443834 
L 153.364041 216.443834 
L 153.364041 201.784548 
L 147.731683 201.784548 
z
" clip-path="url(#p105d7b5d8f)" style="fill: #800080"/>
   </g>
   <g id="patch_6">
    <path d="M 168.853024 216.443834 
L 174.485382 216.443834 
L 174.485382 194.742285 
L 168.853024 194.742285 
z
" clip-path="url(#p105d7b5d8f)" style="fill: #800080"/>
   </g>
   <g id="patch_7">
    <path d="M 189.974366 216.443834 
L 195.606724 216.443834 
L 195.606724 206.124359 
L 189.974366 206.124359 
z
" clip-path="url(#p105d7b5d8f)" style="fill: #800080"/>
   </g>
   <g id="patch_8">
    <path d="M 211.095707 216.443834 
L 216.728065 216.443834 
L 216.728065 170.336821 
L 211.095707 170.336821 
z
" clip-path="url(#p105d7b5d8f)" style="fill: #800080"/>
   </g>
   <g id="patch_9">
    <path d="M 232.217049 216.443834 
L 237.849407 216.443834 
L 237.849407 145.09434 
L 232.217049 145.09434 
z
" clip-path="url(#p105d7b5d8f)" style="fill: #800080"/>
   </g>
   <g id="patch_10">
    <path d="M 253.33839 216.443834 
L 258.970748 216.443834 
L 258.970748 161.784072 
L 253.33839 161.784072 
z
" clip-path="url(#p105d7b5d8f)" style="fill: #800080"/>
   </g>
   <g id="patch_11">
    <path d="M 274.459732 216.443834 
L 280.092089 216.443834 
L 280.092089 127.343977 
L 274.459732 127.343977 
z
" clip-path="url(#p105d7b5d8f)" style="fill: #800080"/>
   </g>
   <g id="patch_12">
    <path d="M 295.581073 216.443834 
L 301.213431 216.443834 
L 301.213431 179.119756 
L 295.581073 179.119756 
z
" clip-path="url(#p105d7b5d8f)" style="fill: #800080"/>
   </g>
   <g id="patch_13">
    <path d="M 316.702415 216.443834 
L 322.334772 216.443834 
L 322.334772 155.139759 
L 316.702415 155.139759 
z
" clip-path="url(#p105d7b5d8f)" style="fill: #800080"/>
   </g>
   <g id="patch_14">
    <path d="M 337.823756 216.443834 
L 343.456114 216.443834 
L 343.456114 170.079298 
L 337.823756 170.079298 
z
" clip-path="url(#p105d7b5d8f)" style="fill: #800080"/>
   </g>
   <g id="patch_15">
    <path d="M 358.945098 216.443834 
L 364.577455 216.443834 
L 364.577455 121.311175 
L 358.945098 121.311175 
z
" clip-path="url(#p105d7b5d8f)" style="fill: #800080"/>
   </g>
   <g id="patch_16">
    <path d="M 380.066439 216.443834 
L 385.698797 216.443834 
L 385.698797 163.585559 
L 380.066439 163.585559 
z
" clip-path="url(#p105d7b5d8f)" style="fill: #800080"/>
   </g>
   <g id="patch_17">
    <path d="M 401.18778 216.443834 
L 406.820138 216.443834 
L 406.820138 149.961953 
L 401.18778 149.961953 
z
" clip-path="url(#p105d7b5d8f)" style="fill: #800080"/>
   </g>
   <g id="patch_18">
    <path d="M 422.309122 216.443834 
L 427.94148 216.443834 
L 427.94148 196.260994 
L 422.309122 196.260994 
z
" clip-path="url(#p105d7b5d8f)" style="fill: #800080"/>
   </g>
   <g id="patch_19">
    <path d="M 443.430463 216.443834 
L 449.062821 216.443834 
L 449.062821 136.707081 
L 443.430463 136.707081 
z
" clip-path="url(#p105d7b5d8f)" style="fill: #800080"/>
   </g>
   <g id="patch_20">
    <path d="M 464.551805 216.443834 
L 470.184163 216.443834 
L 470.184163 201.472137 
L 464.551805 201.472137 
z
" clip-path="url(#p105d7b5d8f)" style="fill: #800080"/>
   </g>
   <g id="patch_21">
    <path d="M 485.673146 216.443834 
L 491.305504 216.443834 
L 491.305504 200.463545 
L 485.673146 200.463545 
z
" clip-path="url(#p105d7b5d8f)" style="fill: #800080"/>
   </g>
   <g id="patch_22">
    <path d="M 506.794488 216.443834 
L 512.426846 216.443834 
L 512.426846 168.556833 
L 506.794488 168.556833 
z
" clip-path="url(#p105d7b5d8f)" style="fill: #800080"/>
   </g>
   <g id="patch_23">
    <path d="M 527.915829 216.443834 
L 533.548187 216.443834 
L 533.548187 175.956724 
L 527.915829 175.956724 
z
" clip-path="url(#p105d7b5d8f)" style="fill: #800080"/>
   </g>
   <g id="patch_24">
    <path d="M 549.037171 216.443834 
L 554.669528 216.443834 
L 554.669528 123.343134 
L 549.037171 123.343134 
z
" clip-path="url(#p105d7b5d8f)" style="fill: #800080"/>
   </g>
   <g id="patch_25">
    <path d="M 570.158512 216.443834 
L 575.79087 216.443834 
L 575.79087 32.475065 
L 570.158512 32.475065 
z
" clip-path="url(#p105d7b5d8f)" style="fill: #800080"/>
   </g>
   <g id="patch_26">
    <path d="M 591.279854 216.443834 
L 596.912211 216.443834 
L 596.912211 137.95939 
L 591.279854 137.95939 
z
" clip-path="url(#p105d7b5d8f)" style="fill: #800080"/>
   </g>
   <g id="patch_27">
    <path d="M 612.401195 216.443834 
L 618.033553 216.443834 
L 618.033553 157.403929 
L 612.401195 157.403929 
z
" clip-path="url(#p105d7b5d8f)" style="fill: #800080"/>
   </g>
   <g id="patch_28">
    <path d="M 633.522537 216.443834 
L 639.154894 216.443834 
L 639.154894 155.558932 
L 633.522537 155.558932 
z
" clip-path="url(#p105d7b5d8f)" style="fill: #800080"/>
   </g>
   <g id="patch_29">
    <path d="M 654.643878 216.443834 
L 660.276236 216.443834 
L 660.276236 47.83949 
L 654.643878 47.83949 
z
" clip-path="url(#p105d7b5d8f)" style="fill: #800080"/>
   </g>
   <g id="patch_30">
    <path d="M 675.76522 216.443834 
L 681.397577 216.443834 
L 681.397577 182.952844 
L 675.76522 182.952844 
z
" clip-path="url(#p105d7b5d8f)" style="fill: #800080"/>
   </g>
   <g id="patch_31">
    <path d="M 696.886561 216.443834 
L 702.518919 216.443834 
L 702.518919 159.364239 
L 696.886561 159.364239 
z
" clip-path="url(#p105d7b5d8f)" style="fill: #800080"/>
   </g>
   <g id="patch_32">
    <path d="M 718.007902 216.443834 
L 723.64026 216.443834 
L 723.64026 149.291369 
L 718.007902 149.291369 
z
" clip-path="url(#p105d7b5d8f)" style="fill: #800080"/>
   </g>
   <g id="patch_33">
    <path d="M 739.129244 216.443834 
L 744.761602 216.443834 
L 744.761602 170.171309 
L 739.129244 170.171309 
z
" clip-path="url(#p105d7b5d8f)" style="fill: #800080"/>
   </g>
   <g id="patch_34">
    <path d="M 760.250585 216.443834 
L 765.882943 216.443834 
L 765.882943 62.087744 
L 760.250585 62.087744 
z
" clip-path="url(#p105d7b5d8f)" style="fill: #800080"/>
   </g>
   <g id="patch_35">
    <path d="M 781.371927 216.443834 
L 787.004285 216.443834 
L 787.004285 174.260299 
L 781.371927 174.260299 
z
" clip-path="url(#p105d7b5d8f)" style="fill: #800080"/>
   </g>
   <g id="patch_36">
    <path d="M 111.121358 216.443834 
L 116.753715 216.443834 
L 116.753715 173.644924 
L 111.121358 173.644924 
z
" clip-path="url(#p105d7b5d8f)" style="fill: #228b22"/>
   </g>
   <g id="patch_37">
    <path d="M 132.242699 216.443834 
L 137.875057 216.443834 
L 137.875057 126.613651 
L 132.242699 126.613651 
z
" clip-path="url(#p105d7b5d8f)" style="fill: #228b22"/>
   </g>
   <g id="patch_38">
    <path d="M 153.364041 216.443834 
L 158.996398 216.443834 
L 158.996398 192.988976 
L 153.364041 192.988976 
z
" clip-path="url(#p105d7b5d8f)" style="fill: #228b22"/>
   </g>
   <g id="patch_39">
    <path d="M 174.485382 216.443834 
L 180.11774 216.443834 
L 180.11774 201.071904 
L 174.485382 201.071904 
z
" clip-path="url(#p105d7b5d8f)" style="fill: #228b22"/>
   </g>
   <g id="patch_40">
    <path d="M 195.606724 216.443834 
L 201.239081 216.443834 
L 201.239081 206.124359 
L 195.606724 206.124359 
z
" clip-path="url(#p105d7b5d8f)" style="fill: #228b22"/>
   </g>
   <g id="patch_41">
    <path d="M 216.728065 216.443834 
L 222.360423 216.443834 
L 222.360423 180.976901 
L 216.728065 180.976901 
z
" clip-path="url(#p105d7b5d8f)" style="fill: #228b22"/>
   </g>
   <g id="patch_42">
    <path d="M 237.849407 216.443834 
L 243.481764 216.443834 
L 243.481764 173.634138 
L 237.849407 173.634138 
z
" clip-path="url(#p105d7b5d8f)" style="fill: #228b22"/>
   </g>
   <g id="patch_43">
    <path d="M 258.970748 216.443834 
L 264.603106 216.443834 
L 264.603106 180.003993 
L 258.970748 180.003993 
z
" clip-path="url(#p105d7b5d8f)" style="fill: #228b22"/>
   </g>
   <g id="patch_44">
    <path d="M 280.092089 216.443834 
L 285.724447 216.443834 
L 285.724447 140.072528 
L 280.092089 140.072528 
z
" clip-path="url(#p105d7b5d8f)" style="fill: #228b22"/>
   </g>
   <g id="patch_45">
    <path d="M 301.213431 216.443834 
L 306.845789 216.443834 
L 306.845789 200.11455 
L 301.213431 200.11455 
z
" clip-path="url(#p105d7b5d8f)" style="fill: #228b22"/>
   </g>
   <g id="patch_46">
    <path d="M 322.334772 216.443834 
L 327.96713 216.443834 
L 327.96713 180.290149 
L 322.334772 180.290149 
z
" clip-path="url(#p105d7b5d8f)" style="fill: #228b22"/>
   </g>
   <g id="patch_47">
    <path d="M 343.456114 216.443834 
L 349.088472 216.443834 
L 349.088472 175.470524 
L 343.456114 175.470524 
z
" clip-path="url(#p105d7b5d8f)" style="fill: #228b22"/>
   </g>
   <g id="patch_48">
    <path d="M 364.577455 216.443834 
L 370.209813 216.443834 
L 370.209813 149.850973 
L 364.577455 149.850973 
z
" clip-path="url(#p105d7b5d8f)" style="fill: #228b22"/>
   </g>
   <g id="patch_49">
    <path d="M 385.698797 216.443834 
L 391.331154 216.443834 
L 391.331154 198.824409 
L 385.698797 198.824409 
z
" clip-path="url(#p105d7b5d8f)" style="fill: #228b22"/>
   </g>
   <g id="patch_50">
    <path d="M 406.820138 216.443834 
L 412.452496 216.443834 
L 412.452496 190.021548 
L 406.820138 190.021548 
z
" clip-path="url(#p105d7b5d8f)" style="fill: #228b22"/>
   </g>
   <g id="patch_51">
    <path d="M 427.94148 216.443834 
L 433.573837 216.443834 
L 433.573837 85.255371 
L 427.94148 85.255371 
z
" clip-path="url(#p105d7b5d8f)" style="fill: #228b22"/>
   </g>
   <g id="patch_52">
    <path d="M 449.062821 216.443834 
L 454.695179 216.443834 
L 454.695179 157.257791 
L 449.062821 157.257791 
z
" clip-path="url(#p105d7b5d8f)" style="fill: #228b22"/>
   </g>
   <g id="patch_53">
    <path d="M 470.184163 216.443834 
L 475.81652 216.443834 
L 475.81652 186.50044 
L 470.184163 186.50044 
z
" clip-path="url(#p105d7b5d8f)" style="fill: #228b22"/>
   </g>
   <g id="patch_54">
    <path d="M 491.305504 216.443834 
L 496.937862 216.443834 
L 496.937862 166.904938 
L 491.305504 166.904938 
z
" clip-path="url(#p105d7b5d8f)" style="fill: #228b22"/>
   </g>
   <g id="patch_55">
    <path d="M 512.426846 216.443834 
L 518.059203 216.443834 
L 518.059203 209.602834 
L 512.426846 209.602834 
z
" clip-path="url(#p105d7b5d8f)" style="fill: #228b22"/>
   </g>
   <g id="patch_56">
    <path d="M 533.548187 216.443834 
L 539.180545 216.443834 
L 539.180545 184.054146 
L 533.548187 184.054146 
z
" clip-path="url(#p105d7b5d8f)" style="fill: #228b22"/>
   </g>
   <g id="patch_57">
    <path d="M 554.669528 216.443834 
L 560.301886 216.443834 
L 560.301886 123.343134 
L 554.669528 123.343134 
z
" clip-path="url(#p105d7b5d8f)" style="fill: #228b22"/>
   </g>
   <g id="patch_58">
    <path d="M 575.79087 216.443834 
L 581.423228 216.443834 
L 581.423228 163.881329 
L 575.79087 163.881329 
z
" clip-path="url(#p105d7b5d8f)" style="fill: #228b22"/>
   </g>
   <g id="patch_59">
    <path d="M 596.912211 216.443834 
L 602.544569 216.443834 
L 602.544569 168.877505 
L 596.912211 168.877505 
z
" clip-path="url(#p105d7b5d8f)" style="fill: #228b22"/>
   </g>
   <g id="patch_60">
    <path d="M 618.033553 216.443834 
L 623.665911 216.443834 
L 623.665911 162.93892 
L 618.033553 162.93892 
z
" clip-path="url(#p105d7b5d8f)" style="fill: #228b22"/>
   </g>
   <g id="patch_61">
    <path d="M 639.154894 216.443834 
L 644.787252 216.443834 
L 644.787252 196.148867 
L 639.154894 196.148867 
z
" clip-path="url(#p105d7b5d8f)" style="fill: #228b22"/>
   </g>
   <g id="patch_62">
    <path d="M 660.276236 216.443834 
L 665.908593 216.443834 
L 665.908593 160.242386 
L 660.276236 160.242386 
z
" clip-path="url(#p105d7b5d8f)" style="fill: #228b22"/>
   </g>
   <g id="patch_63">
    <path d="M 681.397577 216.443834 
L 687.029935 216.443834 
L 687.029935 193.257764 
L 681.397577 193.257764 
z
" clip-path="url(#p105d7b5d8f)" style="fill: #228b22"/>
   </g>
   <g id="patch_64">
    <path d="M 702.518919 216.443834 
L 708.151276 216.443834 
L 708.151276 216.443834 
L 702.518919 216.443834 
z
" clip-path="url(#p105d7b5d8f)" style="fill: #228b22"/>
   </g>
   <g id="patch_65">
    <path d="M 723.64026 216.443834 
L 729.272618 216.443834 
L 729.272618 162.721862 
L 723.64026 162.721862 
z
" clip-path="url(#p105d7b5d8f)" style="fill: #228b22"/>
   </g>
   <g id="patch_66">
    <path d="M 744.761602 216.443834 
L 750.393959 216.443834 
L 750.393959 160.429724 
L 744.761602 160.429724 
z
" clip-path="url(#p105d7b5d8f)" style="fill: #228b22"/>
   </g>
   <g id="patch_67">
    <path d="M 765.882943 216.443834 
L 771.515301 216.443834 
L 771.515301 87.813759 
L 765.882943 87.813759 
z
" clip-path="url(#p105d7b5d8f)" style="fill: #228b22"/>
   </g>
   <g id="patch_68">
    <path d="M 787.004285 216.443834 
L 792.636642 216.443834 
L 792.636642 208.007127 
L 787.004285 208.007127 
z
" clip-path="url(#p105d7b5d8f)" style="fill: #228b22"/>
   </g>
   <g id="patch_69">
    <path d="M 116.753715 216.443834 
L 122.386073 216.443834 
L 122.386073 169.503093 
L 116.753715 169.503093 
z
" clip-path="url(#p105d7b5d8f)" style="fill: #0000cd"/>
   </g>
   <g id="patch_70">
    <path d="M 137.875057 216.443834 
L 143.507415 216.443834 
L 143.507415 141.585348 
L 137.875057 141.585348 
z
" clip-path="url(#p105d7b5d8f)" style="fill: #0000cd"/>
   </g>
   <g id="patch_71">
    <path d="M 158.996398 216.443834 
L 164.628756 216.443834 
L 164.628756 169.534118 
L 158.996398 169.534118 
z
" clip-path="url(#p105d7b5d8f)" style="fill: #0000cd"/>
   </g>
   <g id="patch_72">
    <path d="M 180.11774 216.443834 
L 185.750098 216.443834 
L 185.750098 201.071904 
L 180.11774 201.071904 
z
" clip-path="url(#p105d7b5d8f)" style="fill: #0000cd"/>
   </g>
   <g id="patch_73">
    <path d="M 201.239081 216.443834 
L 206.871439 216.443834 
L 206.871439 61.65171 
L 201.239081 61.65171 
z
" clip-path="url(#p105d7b5d8f)" style="fill: #0000cd"/>
   </g>
   <g id="patch_74">
    <path d="M 222.360423 216.443834 
L 227.99278 216.443834 
L 227.99278 163.243434 
L 222.360423 163.243434 
z
" clip-path="url(#p105d7b5d8f)" style="fill: #0000cd"/>
   </g>
   <g id="patch_75">
    <path d="M 243.481764 216.443834 
L 249.114122 216.443834 
L 249.114122 187.904036 
L 243.481764 187.904036 
z
" clip-path="url(#p105d7b5d8f)" style="fill: #0000cd"/>
   </g>
   <g id="patch_76">
    <path d="M 264.603106 216.443834 
L 270.235463 216.443834 
L 270.235463 161.784072 
L 264.603106 161.784072 
z
" clip-path="url(#p105d7b5d8f)" style="fill: #0000cd"/>
   </g>
   <g id="patch_77">
    <path d="M 285.724447 216.443834 
L 291.356805 216.443834 
L 291.356805 133.708253 
L 285.724447 133.708253 
z
" clip-path="url(#p105d7b5d8f)" style="fill: #0000cd"/>
   </g>
   <g id="patch_78">
    <path d="M 306.845789 216.443834 
L 312.478146 216.443834 
L 312.478146 158.124963 
L 306.845789 158.124963 
z
" clip-path="url(#p105d7b5d8f)" style="fill: #0000cd"/>
   </g>
   <g id="patch_79">
    <path d="M 327.96713 216.443834 
L 333.599488 216.443834 
L 333.599488 139.420765 
L 327.96713 139.420765 
z
" clip-path="url(#p105d7b5d8f)" style="fill: #0000cd"/>
   </g>
   <g id="patch_80">
    <path d="M 349.088472 216.443834 
L 354.720829 216.443834 
L 354.720829 175.470524 
L 349.088472 175.470524 
z
" clip-path="url(#p105d7b5d8f)" style="fill: #0000cd"/>
   </g>
   <g id="patch_81">
    <path d="M 370.209813 216.443834 
L 375.842171 216.443834 
L 375.842171 140.337707 
L 370.209813 140.337707 
z
" clip-path="url(#p105d7b5d8f)" style="fill: #0000cd"/>
   </g>
   <g id="patch_82">
    <path d="M 391.331154 216.443834 
L 396.963512 216.443834 
L 396.963512 169.458701 
L 391.331154 169.458701 
z
" clip-path="url(#p105d7b5d8f)" style="fill: #0000cd"/>
   </g>
   <g id="patch_83">
    <path d="M 412.452496 216.443834 
L 418.084854 216.443834 
L 418.084854 162.74693 
L 412.452496 162.74693 
z
" clip-path="url(#p105d7b5d8f)" style="fill: #0000cd"/>
   </g>
   <g id="patch_84">
    <path d="M 433.573837 216.443834 
L 439.206195 216.443834 
L 439.206195 24.706849 
L 433.573837 24.706849 
z
" clip-path="url(#p105d7b5d8f)" style="fill: #0000cd"/>
   </g>
   <g id="patch_85">
    <path d="M 454.695179 216.443834 
L 460.327537 216.443834 
L 460.327537 138.351138 
L 454.695179 138.351138 
z
" clip-path="url(#p105d7b5d8f)" style="fill: #0000cd"/>
   </g>
   <g id="patch_86">
    <path d="M 475.81652 216.443834 
L 481.448878 216.443834 
L 481.448878 171.528743 
L 475.81652 171.528743 
z
" clip-path="url(#p105d7b5d8f)" style="fill: #0000cd"/>
   </g>
   <g id="patch_87">
    <path d="M 496.937862 216.443834 
L 502.57022 216.443834 
L 502.57022 158.914793 
L 496.937862 158.914793 
z
" clip-path="url(#p105d7b5d8f)" style="fill: #0000cd"/>
   </g>
   <g id="patch_88">
    <path d="M 518.059203 216.443834 
L 523.691561 216.443834 
L 523.691561 195.920834 
L 518.059203 195.920834 
z
" clip-path="url(#p105d7b5d8f)" style="fill: #0000cd"/>
   </g>
   <g id="patch_89">
    <path d="M 539.180545 216.443834 
L 544.812902 216.443834 
L 544.812902 159.76188 
L 539.180545 159.76188 
z
" clip-path="url(#p105d7b5d8f)" style="fill: #0000cd"/>
   </g>
   <g id="patch_90">
    <path d="M 560.301886 216.443834 
L 565.934244 216.443834 
L 565.934244 83.442834 
L 560.301886 83.442834 
z
" clip-path="url(#p105d7b5d8f)" style="fill: #0000cd"/>
   </g>
   <g id="patch_91">
    <path d="M 581.423228 216.443834 
L 587.055585 216.443834 
L 587.055585 98.178197 
L 581.423228 98.178197 
z
" clip-path="url(#p105d7b5d8f)" style="fill: #0000cd"/>
   </g>
   <g id="patch_92">
    <path d="M 602.544569 216.443834 
L 608.176927 216.443834 
L 608.176927 140.337707 
L 602.544569 140.337707 
z
" clip-path="url(#p105d7b5d8f)" style="fill: #0000cd"/>
   </g>
   <g id="patch_93">
    <path d="M 623.665911 216.443834 
L 629.298268 216.443834 
L 629.298268 153.713935 
L 623.665911 153.713935 
z
" clip-path="url(#p105d7b5d8f)" style="fill: #0000cd"/>
   </g>
   <g id="patch_94">
    <path d="M 644.787252 216.443834 
L 650.41961 216.443834 
L 650.41961 125.116481 
L 644.787252 125.116481 
z
" clip-path="url(#p105d7b5d8f)" style="fill: #0000cd"/>
   </g>
   <g id="patch_95">
    <path d="M 665.908593 216.443834 
L 671.540951 216.443834 
L 671.540951 75.940214 
L 665.908593 75.940214 
z
" clip-path="url(#p105d7b5d8f)" style="fill: #0000cd"/>
   </g>
   <g id="patch_96">
    <path d="M 687.029935 216.443834 
L 692.662293 216.443834 
L 692.662293 200.986454 
L 687.029935 200.986454 
z
" clip-path="url(#p105d7b5d8f)" style="fill: #0000cd"/>
   </g>
   <g id="patch_97">
    <path d="M 708.151276 216.443834 
L 713.783634 216.443834 
L 713.783634 145.09434 
L 708.151276 145.09434 
z
" clip-path="url(#p105d7b5d8f)" style="fill: #0000cd"/>
   </g>
   <g id="patch_98">
    <path d="M 729.272618 216.443834 
L 734.904976 216.443834 
L 734.904976 156.006615 
L 729.272618 156.006615 
z
" clip-path="url(#p105d7b5d8f)" style="fill: #0000cd"/>
   </g>
   <g id="patch_99">
    <path d="M 750.393959 216.443834 
L 756.026317 216.443834 
L 756.026317 150.68814 
L 750.393959 150.68814 
z
" clip-path="url(#p105d7b5d8f)" style="fill: #0000cd"/>
   </g>
   <g id="patch_100">
    <path d="M 771.515301 216.443834 
L 777.147659 216.443834 
L 777.147659 87.813759 
L 771.515301 87.813759 
z
" clip-path="url(#p105d7b5d8f)" style="fill: #0000cd"/>
   </g>
   <g id="patch_101">
    <path d="M 792.636642 216.443834 
L 798.269 216.443834 
L 798.269 157.386885 
L 792.636642 157.386885 
z
" clip-path="url(#p105d7b5d8f)" style="fill: #0000cd"/>
   </g>
   <g id="matplotlib.axis_1">
    <g id="xtick_1">
     <g id="line2d_1">
      <defs>
       <path id="m80e8cbb8d8" d="M 0 0 
L 0 3.5 
" style="stroke: #000000; stroke-width: 0.8"/>
      </defs>
      <g>
       <use xlink:href="#m80e8cbb8d8" x="113.937537" y="216.443834" style="stroke: #000000; stroke-width: 0.8"/>
      </g>
     </g>
     <g id="text_1">
      <!-- 1.1 -->
      <g transform="translate(108.797533 246.709194) rotate(-45) scale(0.14 -0.14)">
       <defs>
        <path id="DejaVuSans-31" d="M 794 531 
L 1825 531 
L 1825 4091 
L 703 3866 
L 703 4441 
L 1819 4666 
L 2450 4666 
L 2450 531 
L 3481 531 
L 3481 0 
L 794 0 
L 794 531 
z
" transform="scale(0.015625)"/>
        <path id="DejaVuSans-2e" d="M 684 794 
L 1344 794 
L 1344 0 
L 684 0 
L 684 794 
z
" transform="scale(0.015625)"/>
       </defs>
       <use xlink:href="#DejaVuSans-31"/>
       <use xlink:href="#DejaVuSans-2e" x="63.623047"/>
       <use xlink:href="#DejaVuSans-31" x="95.410156"/>
      </g>
     </g>
    </g>
    <g id="xtick_2">
     <g id="line2d_2">
      <g>
       <use xlink:href="#m80e8cbb8d8" x="135.058878" y="216.443834" style="stroke: #000000; stroke-width: 0.8"/>
      </g>
     </g>
     <g id="text_2">
      <!-- 1.11 -->
      <g transform="translate(126.769598 253.007748) rotate(-45) scale(0.14 -0.14)">
       <use xlink:href="#DejaVuSans-31"/>
       <use xlink:href="#DejaVuSans-2e" x="63.623047"/>
       <use xlink:href="#DejaVuSans-31" x="95.410156"/>
       <use xlink:href="#DejaVuSans-31" x="159.033203"/>
      </g>
     </g>
    </g>
    <g id="xtick_3">
     <g id="line2d_3">
      <g>
       <use xlink:href="#m80e8cbb8d8" x="156.18022" y="216.443834" style="stroke: #000000; stroke-width: 0.8"/>
      </g>
     </g>
     <g id="text_3">
      <!-- 1.13 -->
      <g transform="translate(147.890939 253.007748) rotate(-45) scale(0.14 -0.14)">
       <defs>
        <path id="DejaVuSans-33" d="M 2597 2516 
Q 3050 2419 3304 2112 
Q 3559 1806 3559 1356 
Q 3559 666 3084 287 
Q 2609 -91 1734 -91 
Q 1441 -91 1130 -33 
Q 819 25 488 141 
L 488 750 
Q 750 597 1062 519 
Q 1375 441 1716 441 
Q 2309 441 2620 675 
Q 2931 909 2931 1356 
Q 2931 1769 2642 2001 
Q 2353 2234 1838 2234 
L 1294 2234 
L 1294 2753 
L 1863 2753 
Q 2328 2753 2575 2939 
Q 2822 3125 2822 3475 
Q 2822 3834 2567 4026 
Q 2313 4219 1838 4219 
Q 1578 4219 1281 4162 
Q 984 4106 628 3988 
L 628 4550 
Q 988 4650 1302 4700 
Q 1616 4750 1894 4750 
Q 2613 4750 3031 4423 
Q 3450 4097 3450 3541 
Q 3450 3153 3228 2886 
Q 3006 2619 2597 2516 
z
" transform="scale(0.015625)"/>
       </defs>
       <use xlink:href="#DejaVuSans-31"/>
       <use xlink:href="#DejaVuSans-2e" x="63.623047"/>
       <use xlink:href="#DejaVuSans-31" x="95.410156"/>
       <use xlink:href="#DejaVuSans-33" x="159.033203"/>
      </g>
     </g>
    </g>
    <g id="xtick_4">
     <g id="line2d_4">
      <g>
       <use xlink:href="#m80e8cbb8d8" x="177.301561" y="216.443834" style="stroke: #000000; stroke-width: 0.8"/>
      </g>
     </g>
     <g id="text_4">
      <!-- 1.14 -->
      <g transform="translate(169.012281 253.007748) rotate(-45) scale(0.14 -0.14)">
       <defs>
        <path id="DejaVuSans-34" d="M 2419 4116 
L 825 1625 
L 2419 1625 
L 2419 4116 
z
M 2253 4666 
L 3047 4666 
L 3047 1625 
L 3713 1625 
L 3713 1100 
L 3047 1100 
L 3047 0 
L 2419 0 
L 2419 1100 
L 313 1100 
L 313 1709 
L 2253 4666 
z
" transform="scale(0.015625)"/>
       </defs>
       <use xlink:href="#DejaVuSans-31"/>
       <use xlink:href="#DejaVuSans-2e" x="63.623047"/>
       <use xlink:href="#DejaVuSans-31" x="95.410156"/>
       <use xlink:href="#DejaVuSans-34" x="159.033203"/>
      </g>
     </g>
    </g>
    <g id="xtick_5">
     <g id="line2d_5">
      <g>
       <use xlink:href="#m80e8cbb8d8" x="198.422902" y="216.443834" style="stroke: #000000; stroke-width: 0.8"/>
      </g>
     </g>
     <g id="text_5">
      <!-- 1.2 -->
      <g transform="translate(193.282899 246.709194) rotate(-45) scale(0.14 -0.14)">
       <defs>
        <path id="DejaVuSans-32" d="M 1228 531 
L 3431 531 
L 3431 0 
L 469 0 
L 469 531 
Q 828 903 1448 1529 
Q 2069 2156 2228 2338 
Q 2531 2678 2651 2914 
Q 2772 3150 2772 3378 
Q 2772 3750 2511 3984 
Q 2250 4219 1831 4219 
Q 1534 4219 1204 4116 
Q 875 4013 500 3803 
L 500 4441 
Q 881 4594 1212 4672 
Q 1544 4750 1819 4750 
Q 2544 4750 2975 4387 
Q 3406 4025 3406 3419 
Q 3406 3131 3298 2873 
Q 3191 2616 2906 2266 
Q 2828 2175 2409 1742 
Q 1991 1309 1228 531 
z
" transform="scale(0.015625)"/>
       </defs>
       <use xlink:href="#DejaVuSans-31"/>
       <use xlink:href="#DejaVuSans-2e" x="63.623047"/>
       <use xlink:href="#DejaVuSans-32" x="95.410156"/>
      </g>
     </g>
    </g>
    <g id="xtick_6">
     <g id="line2d_6">
      <g>
       <use xlink:href="#m80e8cbb8d8" x="219.544244" y="216.443834" style="stroke: #000000; stroke-width: 0.8"/>
      </g>
     </g>
     <g id="text_6">
      <!-- 1.3 -->
      <g transform="translate(214.404241 246.709194) rotate(-45) scale(0.14 -0.14)">
       <use xlink:href="#DejaVuSans-31"/>
       <use xlink:href="#DejaVuSans-2e" x="63.623047"/>
       <use xlink:href="#DejaVuSans-33" x="95.410156"/>
      </g>
     </g>
    </g>
    <g id="xtick_7">
     <g id="line2d_7">
      <g>
       <use xlink:href="#m80e8cbb8d8" x="240.665585" y="216.443834" style="stroke: #000000; stroke-width: 0.8"/>
      </g>
     </g>
     <g id="text_7">
      <!-- 1.4 -->
      <g transform="translate(235.525582 246.709194) rotate(-45) scale(0.14 -0.14)">
       <use xlink:href="#DejaVuSans-31"/>
       <use xlink:href="#DejaVuSans-2e" x="63.623047"/>
       <use xlink:href="#DejaVuSans-34" x="95.410156"/>
      </g>
     </g>
    </g>
    <g id="xtick_8">
     <g id="line2d_8">
      <g>
       <use xlink:href="#m80e8cbb8d8" x="261.786927" y="216.443834" style="stroke: #000000; stroke-width: 0.8"/>
      </g>
     </g>
     <g id="text_8">
      <!-- 1.5 -->
      <g transform="translate(256.646923 246.709194) rotate(-45) scale(0.14 -0.14)">
       <defs>
        <path id="DejaVuSans-35" d="M 691 4666 
L 3169 4666 
L 3169 4134 
L 1269 4134 
L 1269 2991 
Q 1406 3038 1543 3061 
Q 1681 3084 1819 3084 
Q 2600 3084 3056 2656 
Q 3513 2228 3513 1497 
Q 3513 744 3044 326 
Q 2575 -91 1722 -91 
Q 1428 -91 1123 -41 
Q 819 9 494 109 
L 494 744 
Q 775 591 1075 516 
Q 1375 441 1709 441 
Q 2250 441 2565 725 
Q 2881 1009 2881 1497 
Q 2881 1984 2565 2268 
Q 2250 2553 1709 2553 
Q 1456 2553 1204 2497 
Q 953 2441 691 2322 
L 691 4666 
z
" transform="scale(0.015625)"/>
       </defs>
       <use xlink:href="#DejaVuSans-31"/>
       <use xlink:href="#DejaVuSans-2e" x="63.623047"/>
       <use xlink:href="#DejaVuSans-35" x="95.410156"/>
      </g>
     </g>
    </g>
    <g id="xtick_9">
     <g id="line2d_9">
      <g>
       <use xlink:href="#m80e8cbb8d8" x="282.908268" y="216.443834" style="stroke: #000000; stroke-width: 0.8"/>
      </g>
     </g>
     <g id="text_9">
      <!-- 1.8 -->
      <g transform="translate(277.768265 246.709194) rotate(-45) scale(0.14 -0.14)">
       <defs>
        <path id="DejaVuSans-38" d="M 2034 2216 
Q 1584 2216 1326 1975 
Q 1069 1734 1069 1313 
Q 1069 891 1326 650 
Q 1584 409 2034 409 
Q 2484 409 2743 651 
Q 3003 894 3003 1313 
Q 3003 1734 2745 1975 
Q 2488 2216 2034 2216 
z
M 1403 2484 
Q 997 2584 770 2862 
Q 544 3141 544 3541 
Q 544 4100 942 4425 
Q 1341 4750 2034 4750 
Q 2731 4750 3128 4425 
Q 3525 4100 3525 3541 
Q 3525 3141 3298 2862 
Q 3072 2584 2669 2484 
Q 3125 2378 3379 2068 
Q 3634 1759 3634 1313 
Q 3634 634 3220 271 
Q 2806 -91 2034 -91 
Q 1263 -91 848 271 
Q 434 634 434 1313 
Q 434 1759 690 2068 
Q 947 2378 1403 2484 
z
M 1172 3481 
Q 1172 3119 1398 2916 
Q 1625 2713 2034 2713 
Q 2441 2713 2670 2916 
Q 2900 3119 2900 3481 
Q 2900 3844 2670 4047 
Q 2441 4250 2034 4250 
Q 1625 4250 1398 4047 
Q 1172 3844 1172 3481 
z
" transform="scale(0.015625)"/>
       </defs>
       <use xlink:href="#DejaVuSans-31"/>
       <use xlink:href="#DejaVuSans-2e" x="63.623047"/>
       <use xlink:href="#DejaVuSans-38" x="95.410156"/>
      </g>
     </g>
    </g>
    <g id="xtick_10">
     <g id="line2d_10">
      <g>
       <use xlink:href="#m80e8cbb8d8" x="304.02961" y="216.443834" style="stroke: #000000; stroke-width: 0.8"/>
      </g>
     </g>
     <g id="text_10">
      <!-- 2.1 -->
      <g transform="translate(298.889606 246.709194) rotate(-45) scale(0.14 -0.14)">
       <use xlink:href="#DejaVuSans-32"/>
       <use xlink:href="#DejaVuSans-2e" x="63.623047"/>
       <use xlink:href="#DejaVuSans-31" x="95.410156"/>
      </g>
     </g>
    </g>
    <g id="xtick_11">
     <g id="line2d_11">
      <g>
       <use xlink:href="#m80e8cbb8d8" x="325.150951" y="216.443834" style="stroke: #000000; stroke-width: 0.8"/>
      </g>
     </g>
     <g id="text_11">
      <!-- 2.3 -->
      <g transform="translate(320.010948 246.709194) rotate(-45) scale(0.14 -0.14)">
       <use xlink:href="#DejaVuSans-32"/>
       <use xlink:href="#DejaVuSans-2e" x="63.623047"/>
       <use xlink:href="#DejaVuSans-33" x="95.410156"/>
      </g>
     </g>
    </g>
    <g id="xtick_12">
     <g id="line2d_12">
      <g>
       <use xlink:href="#m80e8cbb8d8" x="346.272293" y="216.443834" style="stroke: #000000; stroke-width: 0.8"/>
      </g>
     </g>
     <g id="text_12">
      <!-- 2.4 -->
      <g transform="translate(341.132289 246.709194) rotate(-45) scale(0.14 -0.14)">
       <use xlink:href="#DejaVuSans-32"/>
       <use xlink:href="#DejaVuSans-2e" x="63.623047"/>
       <use xlink:href="#DejaVuSans-34" x="95.410156"/>
      </g>
     </g>
    </g>
    <g id="xtick_13">
     <g id="line2d_13">
      <g>
       <use xlink:href="#m80e8cbb8d8" x="367.393634" y="216.443834" style="stroke: #000000; stroke-width: 0.8"/>
      </g>
     </g>
     <g id="text_13">
      <!-- 2.5 -->
      <g transform="translate(362.253631 246.709194) rotate(-45) scale(0.14 -0.14)">
       <use xlink:href="#DejaVuSans-32"/>
       <use xlink:href="#DejaVuSans-2e" x="63.623047"/>
       <use xlink:href="#DejaVuSans-35" x="95.410156"/>
      </g>
     </g>
    </g>
    <g id="xtick_14">
     <g id="line2d_14">
      <g>
       <use xlink:href="#m80e8cbb8d8" x="388.514976" y="216.443834" style="stroke: #000000; stroke-width: 0.8"/>
      </g>
     </g>
     <g id="text_14">
      <!-- 2.6 -->
      <g transform="translate(383.374972 246.709194) rotate(-45) scale(0.14 -0.14)">
       <defs>
        <path id="DejaVuSans-36" d="M 2113 2584 
Q 1688 2584 1439 2293 
Q 1191 2003 1191 1497 
Q 1191 994 1439 701 
Q 1688 409 2113 409 
Q 2538 409 2786 701 
Q 3034 994 3034 1497 
Q 3034 2003 2786 2293 
Q 2538 2584 2113 2584 
z
M 3366 4563 
L 3366 3988 
Q 3128 4100 2886 4159 
Q 2644 4219 2406 4219 
Q 1781 4219 1451 3797 
Q 1122 3375 1075 2522 
Q 1259 2794 1537 2939 
Q 1816 3084 2150 3084 
Q 2853 3084 3261 2657 
Q 3669 2231 3669 1497 
Q 3669 778 3244 343 
Q 2819 -91 2113 -91 
Q 1303 -91 875 529 
Q 447 1150 447 2328 
Q 447 3434 972 4092 
Q 1497 4750 2381 4750 
Q 2619 4750 2861 4703 
Q 3103 4656 3366 4563 
z
" transform="scale(0.015625)"/>
       </defs>
       <use xlink:href="#DejaVuSans-32"/>
       <use xlink:href="#DejaVuSans-2e" x="63.623047"/>
       <use xlink:href="#DejaVuSans-36" x="95.410156"/>
      </g>
     </g>
    </g>
    <g id="xtick_15">
     <g id="line2d_15">
      <g>
       <use xlink:href="#m80e8cbb8d8" x="409.636317" y="216.443834" style="stroke: #000000; stroke-width: 0.8"/>
      </g>
     </g>
     <g id="text_15">
      <!-- 2.7 -->
      <g transform="translate(404.496314 246.709194) rotate(-45) scale(0.14 -0.14)">
       <defs>
        <path id="DejaVuSans-37" d="M 525 4666 
L 3525 4666 
L 3525 4397 
L 1831 0 
L 1172 0 
L 2766 4134 
L 525 4134 
L 525 4666 
z
" transform="scale(0.015625)"/>
       </defs>
       <use xlink:href="#DejaVuSans-32"/>
       <use xlink:href="#DejaVuSans-2e" x="63.623047"/>
       <use xlink:href="#DejaVuSans-37" x="95.410156"/>
      </g>
     </g>
    </g>
    <g id="xtick_16">
     <g id="line2d_16">
      <g>
       <use xlink:href="#m80e8cbb8d8" x="430.757659" y="216.443834" style="stroke: #000000; stroke-width: 0.8"/>
      </g>
     </g>
     <g id="text_16">
      <!-- 2.8 -->
      <g transform="translate(425.617655 246.709194) rotate(-45) scale(0.14 -0.14)">
       <use xlink:href="#DejaVuSans-32"/>
       <use xlink:href="#DejaVuSans-2e" x="63.623047"/>
       <use xlink:href="#DejaVuSans-38" x="95.410156"/>
      </g>
     </g>
    </g>
    <g id="xtick_17">
     <g id="line2d_17">
      <g>
       <use xlink:href="#m80e8cbb8d8" x="451.879" y="216.443834" style="stroke: #000000; stroke-width: 0.8"/>
      </g>
     </g>
     <g id="text_17">
      <!-- 3.1 -->
      <g transform="translate(446.738997 246.709194) rotate(-45) scale(0.14 -0.14)">
       <use xlink:href="#DejaVuSans-33"/>
       <use xlink:href="#DejaVuSans-2e" x="63.623047"/>
       <use xlink:href="#DejaVuSans-31" x="95.410156"/>
      </g>
     </g>
    </g>
    <g id="xtick_18">
     <g id="line2d_18">
      <g>
       <use xlink:href="#m80e8cbb8d8" x="473.000341" y="216.443834" style="stroke: #000000; stroke-width: 0.8"/>
      </g>
     </g>
     <g id="text_18">
      <!-- 3.13 -->
      <g transform="translate(464.711061 253.007748) rotate(-45) scale(0.14 -0.14)">
       <use xlink:href="#DejaVuSans-33"/>
       <use xlink:href="#DejaVuSans-2e" x="63.623047"/>
       <use xlink:href="#DejaVuSans-31" x="95.410156"/>
       <use xlink:href="#DejaVuSans-33" x="159.033203"/>
      </g>
     </g>
    </g>
    <g id="xtick_19">
     <g id="line2d_19">
      <g>
       <use xlink:href="#m80e8cbb8d8" x="494.121683" y="216.443834" style="stroke: #000000; stroke-width: 0.8"/>
      </g>
     </g>
     <g id="text_19">
      <!-- 3.2 -->
      <g transform="translate(488.98168 246.709194) rotate(-45) scale(0.14 -0.14)">
       <use xlink:href="#DejaVuSans-33"/>
       <use xlink:href="#DejaVuSans-2e" x="63.623047"/>
       <use xlink:href="#DejaVuSans-32" x="95.410156"/>
      </g>
     </g>
    </g>
    <g id="xtick_20">
     <g id="line2d_20">
      <g>
       <use xlink:href="#m80e8cbb8d8" x="515.243024" y="216.443834" style="stroke: #000000; stroke-width: 0.8"/>
      </g>
     </g>
     <g id="text_20">
      <!-- 3.4 -->
      <g transform="translate(510.103021 246.709194) rotate(-45) scale(0.14 -0.14)">
       <use xlink:href="#DejaVuSans-33"/>
       <use xlink:href="#DejaVuSans-2e" x="63.623047"/>
       <use xlink:href="#DejaVuSans-34" x="95.410156"/>
      </g>
     </g>
    </g>
    <g id="xtick_21">
     <g id="line2d_21">
      <g>
       <use xlink:href="#m80e8cbb8d8" x="536.364366" y="216.443834" style="stroke: #000000; stroke-width: 0.8"/>
      </g>
     </g>
     <g id="text_21">
      <!-- 3.5 -->
      <g transform="translate(531.224362 246.709194) rotate(-45) scale(0.14 -0.14)">
       <use xlink:href="#DejaVuSans-33"/>
       <use xlink:href="#DejaVuSans-2e" x="63.623047"/>
       <use xlink:href="#DejaVuSans-35" x="95.410156"/>
      </g>
     </g>
    </g>
    <g id="xtick_22">
     <g id="line2d_22">
      <g>
       <use xlink:href="#m80e8cbb8d8" x="557.485707" y="216.443834" style="stroke: #000000; stroke-width: 0.8"/>
      </g>
     </g>
     <g id="text_22">
      <!-- 3.6 -->
      <g transform="translate(552.345704 246.709194) rotate(-45) scale(0.14 -0.14)">
       <use xlink:href="#DejaVuSans-33"/>
       <use xlink:href="#DejaVuSans-2e" x="63.623047"/>
       <use xlink:href="#DejaVuSans-36" x="95.410156"/>
      </g>
     </g>
    </g>
    <g id="xtick_23">
     <g id="line2d_23">
      <g>
       <use xlink:href="#m80e8cbb8d8" x="578.607049" y="216.443834" style="stroke: #000000; stroke-width: 0.8"/>
      </g>
     </g>
     <g id="text_23">
      <!-- 3.7 -->
      <g transform="translate(573.467045 246.709194) rotate(-45) scale(0.14 -0.14)">
       <use xlink:href="#DejaVuSans-33"/>
       <use xlink:href="#DejaVuSans-2e" x="63.623047"/>
       <use xlink:href="#DejaVuSans-37" x="95.410156"/>
      </g>
     </g>
    </g>
    <g id="xtick_24">
     <g id="line2d_24">
      <g>
       <use xlink:href="#m80e8cbb8d8" x="599.72839" y="216.443834" style="stroke: #000000; stroke-width: 0.8"/>
      </g>
     </g>
     <g id="text_24">
      <!-- 4.1 -->
      <g transform="translate(594.588387 246.709194) rotate(-45) scale(0.14 -0.14)">
       <use xlink:href="#DejaVuSans-34"/>
       <use xlink:href="#DejaVuSans-2e" x="63.623047"/>
       <use xlink:href="#DejaVuSans-31" x="95.410156"/>
      </g>
     </g>
    </g>
    <g id="xtick_25">
     <g id="line2d_25">
      <g>
       <use xlink:href="#m80e8cbb8d8" x="620.849732" y="216.443834" style="stroke: #000000; stroke-width: 0.8"/>
      </g>
     </g>
     <g id="text_25">
      <!-- 4.2 -->
      <g transform="translate(615.709728 246.709194) rotate(-45) scale(0.14 -0.14)">
       <use xlink:href="#DejaVuSans-34"/>
       <use xlink:href="#DejaVuSans-2e" x="63.623047"/>
       <use xlink:href="#DejaVuSans-32" x="95.410156"/>
      </g>
     </g>
    </g>
    <g id="xtick_26">
     <g id="line2d_26">
      <g>
       <use xlink:href="#m80e8cbb8d8" x="641.971073" y="216.443834" style="stroke: #000000; stroke-width: 0.8"/>
      </g>
     </g>
     <g id="text_26">
      <!-- 4.3 -->
      <g transform="translate(636.83107 246.709194) rotate(-45) scale(0.14 -0.14)">
       <use xlink:href="#DejaVuSans-34"/>
       <use xlink:href="#DejaVuSans-2e" x="63.623047"/>
       <use xlink:href="#DejaVuSans-33" x="95.410156"/>
      </g>
     </g>
    </g>
    <g id="xtick_27">
     <g id="line2d_27">
      <g>
       <use xlink:href="#m80e8cbb8d8" x="663.092415" y="216.443834" style="stroke: #000000; stroke-width: 0.8"/>
      </g>
     </g>
     <g id="text_27">
      <!-- 4.4 -->
      <g transform="translate(657.952411 246.709194) rotate(-45) scale(0.14 -0.14)">
       <use xlink:href="#DejaVuSans-34"/>
       <use xlink:href="#DejaVuSans-2e" x="63.623047"/>
       <use xlink:href="#DejaVuSans-34" x="95.410156"/>
      </g>
     </g>
    </g>
    <g id="xtick_28">
     <g id="line2d_28">
      <g>
       <use xlink:href="#m80e8cbb8d8" x="684.213756" y="216.443834" style="stroke: #000000; stroke-width: 0.8"/>
      </g>
     </g>
     <g id="text_28">
      <!-- 4.6 -->
      <g transform="translate(679.073753 246.709194) rotate(-45) scale(0.14 -0.14)">
       <use xlink:href="#DejaVuSans-34"/>
       <use xlink:href="#DejaVuSans-2e" x="63.623047"/>
       <use xlink:href="#DejaVuSans-36" x="95.410156"/>
      </g>
     </g>
    </g>
    <g id="xtick_29">
     <g id="line2d_29">
      <g>
       <use xlink:href="#m80e8cbb8d8" x="705.335098" y="216.443834" style="stroke: #000000; stroke-width: 0.8"/>
      </g>
     </g>
     <g id="text_29">
      <!-- 4.8 -->
      <g transform="translate(700.195094 246.709194) rotate(-45) scale(0.14 -0.14)">
       <use xlink:href="#DejaVuSans-34"/>
       <use xlink:href="#DejaVuSans-2e" x="63.623047"/>
       <use xlink:href="#DejaVuSans-38" x="95.410156"/>
      </g>
     </g>
    </g>
    <g id="xtick_30">
     <g id="line2d_30">
      <g>
       <use xlink:href="#m80e8cbb8d8" x="726.456439" y="216.443834" style="stroke: #000000; stroke-width: 0.8"/>
      </g>
     </g>
     <g id="text_30">
      <!-- 5.3 -->
      <g transform="translate(721.316436 246.709194) rotate(-45) scale(0.14 -0.14)">
       <use xlink:href="#DejaVuSans-35"/>
       <use xlink:href="#DejaVuSans-2e" x="63.623047"/>
       <use xlink:href="#DejaVuSans-33" x="95.410156"/>
      </g>
     </g>
    </g>
    <g id="xtick_31">
     <g id="line2d_31">
      <g>
       <use xlink:href="#m80e8cbb8d8" x="747.57778" y="216.443834" style="stroke: #000000; stroke-width: 0.8"/>
      </g>
     </g>
     <g id="text_31">
      <!-- 5.4 -->
      <g transform="translate(742.437777 246.709194) rotate(-45) scale(0.14 -0.14)">
       <use xlink:href="#DejaVuSans-35"/>
       <use xlink:href="#DejaVuSans-2e" x="63.623047"/>
       <use xlink:href="#DejaVuSans-34" x="95.410156"/>
      </g>
     </g>
    </g>
    <g id="xtick_32">
     <g id="line2d_32">
      <g>
       <use xlink:href="#m80e8cbb8d8" x="768.699122" y="216.443834" style="stroke: #000000; stroke-width: 0.8"/>
      </g>
     </g>
     <g id="text_32">
      <!-- 5.5 -->
      <g transform="translate(763.559119 246.709194) rotate(-45) scale(0.14 -0.14)">
       <use xlink:href="#DejaVuSans-35"/>
       <use xlink:href="#DejaVuSans-2e" x="63.623047"/>
       <use xlink:href="#DejaVuSans-35" x="95.410156"/>
      </g>
     </g>
    </g>
    <g id="xtick_33">
     <g id="line2d_33">
      <g>
       <use xlink:href="#m80e8cbb8d8" x="789.820463" y="216.443834" style="stroke: #000000; stroke-width: 0.8"/>
      </g>
     </g>
     <g id="text_33">
      <!-- 6.3 -->
      <g transform="translate(784.68046 246.709194) rotate(-45) scale(0.14 -0.14)">
       <use xlink:href="#DejaVuSans-36"/>
       <use xlink:href="#DejaVuSans-2e" x="63.623047"/>
       <use xlink:href="#DejaVuSans-33" x="95.410156"/>
      </g>
     </g>
    </g>
    <g id="text_34">
     <!-- EC level 2 -->
     <g transform="translate(417.017906 269.704346) scale(0.14 -0.14)">
      <defs>
       <path id="DejaVuSans-45" d="M 628 4666 
L 3578 4666 
L 3578 4134 
L 1259 4134 
L 1259 2753 
L 3481 2753 
L 3481 2222 
L 1259 2222 
L 1259 531 
L 3634 531 
L 3634 0 
L 628 0 
L 628 4666 
z
" transform="scale(0.015625)"/>
       <path id="DejaVuSans-43" d="M 4122 4306 
L 4122 3641 
Q 3803 3938 3442 4084 
Q 3081 4231 2675 4231 
Q 1875 4231 1450 3742 
Q 1025 3253 1025 2328 
Q 1025 1406 1450 917 
Q 1875 428 2675 428 
Q 3081 428 3442 575 
Q 3803 722 4122 1019 
L 4122 359 
Q 3791 134 3420 21 
Q 3050 -91 2638 -91 
Q 1578 -91 968 557 
Q 359 1206 359 2328 
Q 359 3453 968 4101 
Q 1578 4750 2638 4750 
Q 3056 4750 3426 4639 
Q 3797 4528 4122 4306 
z
" transform="scale(0.015625)"/>
       <path id="DejaVuSans-20" transform="scale(0.015625)"/>
       <path id="DejaVuSans-6c" d="M 603 4863 
L 1178 4863 
L 1178 0 
L 603 0 
L 603 4863 
z
" transform="scale(0.015625)"/>
       <path id="DejaVuSans-65" d="M 3597 1894 
L 3597 1613 
L 953 1613 
Q 991 1019 1311 708 
Q 1631 397 2203 397 
Q 2534 397 2845 478 
Q 3156 559 3463 722 
L 3463 178 
Q 3153 47 2828 -22 
Q 2503 -91 2169 -91 
Q 1331 -91 842 396 
Q 353 884 353 1716 
Q 353 2575 817 3079 
Q 1281 3584 2069 3584 
Q 2775 3584 3186 3129 
Q 3597 2675 3597 1894 
z
M 3022 2063 
Q 3016 2534 2758 2815 
Q 2500 3097 2075 3097 
Q 1594 3097 1305 2825 
Q 1016 2553 972 2059 
L 3022 2063 
z
" transform="scale(0.015625)"/>
       <path id="DejaVuSans-76" d="M 191 3500 
L 800 3500 
L 1894 563 
L 2988 3500 
L 3597 3500 
L 2284 0 
L 1503 0 
L 191 3500 
z
" transform="scale(0.015625)"/>
      </defs>
      <use xlink:href="#DejaVuSans-45"/>
      <use xlink:href="#DejaVuSans-43" x="63.183594"/>
      <use xlink:href="#DejaVuSans-20" x="133.007812"/>
      <use xlink:href="#DejaVuSans-6c" x="164.794922"/>
      <use xlink:href="#DejaVuSans-65" x="192.578125"/>
      <use xlink:href="#DejaVuSans-76" x="254.101562"/>
      <use xlink:href="#DejaVuSans-65" x="313.28125"/>
      <use xlink:href="#DejaVuSans-6c" x="374.804688"/>
      <use xlink:href="#DejaVuSans-20" x="402.587891"/>
      <use xlink:href="#DejaVuSans-32" x="434.375"/>
     </g>
    </g>
   </g>
   <g id="matplotlib.axis_2">
    <g id="ytick_1">
     <g id="line2d_34">
      <defs>
       <path id="m25fa22d0ff" d="M 0 0 
L -3.5 0 
" style="stroke: #000000; stroke-width: 0.8"/>
      </defs>
      <g>
       <use xlink:href="#m25fa22d0ff" x="70.85" y="216.443834" style="stroke: #000000; stroke-width: 0.8"/>
      </g>
     </g>
     <g id="text_35">
      <!-- 0.00 -->
      <g transform="translate(32.678125 221.762741) scale(0.14 -0.14)">
       <defs>
        <path id="DejaVuSans-30" d="M 2034 4250 
Q 1547 4250 1301 3770 
Q 1056 3291 1056 2328 
Q 1056 1369 1301 889 
Q 1547 409 2034 409 
Q 2525 409 2770 889 
Q 3016 1369 3016 2328 
Q 3016 3291 2770 3770 
Q 2525 4250 2034 4250 
z
M 2034 4750 
Q 2819 4750 3233 4129 
Q 3647 3509 3647 2328 
Q 3647 1150 3233 529 
Q 2819 -91 2034 -91 
Q 1250 -91 836 529 
Q 422 1150 422 2328 
Q 422 3509 836 4129 
Q 1250 4750 2034 4750 
z
" transform="scale(0.015625)"/>
       </defs>
       <use xlink:href="#DejaVuSans-30"/>
       <use xlink:href="#DejaVuSans-2e" x="63.623047"/>
       <use xlink:href="#DejaVuSans-30" x="95.410156"/>
       <use xlink:href="#DejaVuSans-30" x="159.033203"/>
      </g>
     </g>
    </g>
    <g id="ytick_2">
     <g id="line2d_35">
      <g>
       <use xlink:href="#m25fa22d0ff" x="70.85" y="179.912893" style="stroke: #000000; stroke-width: 0.8"/>
      </g>
     </g>
     <g id="text_36">
      <!-- 0.02 -->
      <g transform="translate(32.678125 185.231799) scale(0.14 -0.14)">
       <use xlink:href="#DejaVuSans-30"/>
       <use xlink:href="#DejaVuSans-2e" x="63.623047"/>
       <use xlink:href="#DejaVuSans-30" x="95.410156"/>
       <use xlink:href="#DejaVuSans-32" x="159.033203"/>
      </g>
     </g>
    </g>
    <g id="ytick_3">
     <g id="line2d_36">
      <g>
       <use xlink:href="#m25fa22d0ff" x="70.85" y="143.381952" style="stroke: #000000; stroke-width: 0.8"/>
      </g>
     </g>
     <g id="text_37">
      <!-- 0.04 -->
      <g transform="translate(32.678125 148.700858) scale(0.14 -0.14)">
       <use xlink:href="#DejaVuSans-30"/>
       <use xlink:href="#DejaVuSans-2e" x="63.623047"/>
       <use xlink:href="#DejaVuSans-30" x="95.410156"/>
       <use xlink:href="#DejaVuSans-34" x="159.033203"/>
      </g>
     </g>
    </g>
    <g id="ytick_4">
     <g id="line2d_37">
      <g>
       <use xlink:href="#m25fa22d0ff" x="70.85" y="106.85101" style="stroke: #000000; stroke-width: 0.8"/>
      </g>
     </g>
     <g id="text_38">
      <!-- 0.06 -->
      <g transform="translate(32.678125 112.169917) scale(0.14 -0.14)">
       <use xlink:href="#DejaVuSans-30"/>
       <use xlink:href="#DejaVuSans-2e" x="63.623047"/>
       <use xlink:href="#DejaVuSans-30" x="95.410156"/>
       <use xlink:href="#DejaVuSans-36" x="159.033203"/>
      </g>
     </g>
    </g>
    <g id="ytick_5">
     <g id="line2d_38">
      <g>
       <use xlink:href="#m25fa22d0ff" x="70.85" y="70.320069" style="stroke: #000000; stroke-width: 0.8"/>
      </g>
     </g>
     <g id="text_39">
      <!-- 0.08 -->
      <g transform="translate(32.678125 75.638975) scale(0.14 -0.14)">
       <use xlink:href="#DejaVuSans-30"/>
       <use xlink:href="#DejaVuSans-2e" x="63.623047"/>
       <use xlink:href="#DejaVuSans-30" x="95.410156"/>
       <use xlink:href="#DejaVuSans-38" x="159.033203"/>
      </g>
     </g>
    </g>
    <g id="ytick_6">
     <g id="line2d_39">
      <g>
       <use xlink:href="#m25fa22d0ff" x="70.85" y="33.789128" style="stroke: #000000; stroke-width: 0.8"/>
      </g>
     </g>
     <g id="text_40">
      <!-- 0.10 -->
      <g transform="translate(32.678125 39.108034) scale(0.14 -0.14)">
       <use xlink:href="#DejaVuSans-30"/>
       <use xlink:href="#DejaVuSans-2e" x="63.623047"/>
       <use xlink:href="#DejaVuSans-31" x="95.410156"/>
       <use xlink:href="#DejaVuSans-30" x="159.033203"/>
      </g>
     </g>
    </g>
    <g id="text_41">
     <!-- FPR -->
     <g transform="translate(25.766562 128.892698) rotate(-90) scale(0.14 -0.14)">
      <defs>
       <path id="DejaVuSans-46" d="M 628 4666 
L 3309 4666 
L 3309 4134 
L 1259 4134 
L 1259 2759 
L 3109 2759 
L 3109 2228 
L 1259 2228 
L 1259 0 
L 628 0 
L 628 4666 
z
" transform="scale(0.015625)"/>
       <path id="DejaVuSans-50" d="M 1259 4147 
L 1259 2394 
L 2053 2394 
Q 2494 2394 2734 2622 
Q 2975 2850 2975 3272 
Q 2975 3691 2734 3919 
Q 2494 4147 2053 4147 
L 1259 4147 
z
M 628 4666 
L 2053 4666 
Q 2838 4666 3239 4311 
Q 3641 3956 3641 3272 
Q 3641 2581 3239 2228 
Q 2838 1875 2053 1875 
L 1259 1875 
L 1259 0 
L 628 0 
L 628 4666 
z
" transform="scale(0.015625)"/>
       <path id="DejaVuSans-52" d="M 2841 2188 
Q 3044 2119 3236 1894 
Q 3428 1669 3622 1275 
L 4263 0 
L 3584 0 
L 2988 1197 
Q 2756 1666 2539 1819 
Q 2322 1972 1947 1972 
L 1259 1972 
L 1259 0 
L 628 0 
L 628 4666 
L 2053 4666 
Q 2853 4666 3247 4331 
Q 3641 3997 3641 3322 
Q 3641 2881 3436 2590 
Q 3231 2300 2841 2188 
z
M 1259 4147 
L 1259 2491 
L 2053 2491 
Q 2509 2491 2742 2702 
Q 2975 2913 2975 3322 
Q 2975 3731 2742 3939 
Q 2509 4147 2053 4147 
L 1259 4147 
z
" transform="scale(0.015625)"/>
      </defs>
      <use xlink:href="#DejaVuSans-46"/>
      <use xlink:href="#DejaVuSans-50" x="57.519531"/>
      <use xlink:href="#DejaVuSans-52" x="117.822266"/>
     </g>
    </g>
   </g>
   <g id="patch_102">
    <path d="M 70.85 216.443834 
L 70.85 15.12 
" style="fill: none; stroke: #000000; stroke-width: 0.8; stroke-linejoin: miter; stroke-linecap: square"/>
   </g>
   <g id="patch_103">
    <path d="M 832.908 216.443834 
L 832.908 15.12 
" style="fill: none; stroke: #000000; stroke-width: 0.8; stroke-linejoin: miter; stroke-linecap: square"/>
   </g>
   <g id="patch_104">
    <path d="M 70.85 216.443834 
L 832.908 216.443834 
" style="fill: none; stroke: #000000; stroke-width: 0.8; stroke-linejoin: miter; stroke-linecap: square"/>
   </g>
   <g id="patch_105">
    <path d="M 70.85 15.12 
L 832.908 15.12 
" style="fill: none; stroke: #000000; stroke-width: 0.8; stroke-linejoin: miter; stroke-linecap: square"/>
   </g>
   <g id="legend_1">
    <g id="patch_106">
     <path d="M 848.92858 77.56125 
L 990.64858 77.56125 
Q 993.04858 77.56125 993.04858 75.16125 
L 993.04858 23.52 
Q 993.04858 21.12 990.64858 21.12 
L 848.92858 21.12 
Q 846.52858 21.12 846.52858 23.52 
L 846.52858 75.16125 
Q 846.52858 77.56125 848.92858 77.56125 
z
" style="fill: #ffffff; opacity: 0.8; stroke: #cccccc; stroke-linejoin: miter"/>
    </g>
    <g id="patch_107">
     <path d="M 851.32858 35.038125 
L 875.32858 35.038125 
L 875.32858 26.638125 
L 851.32858 26.638125 
z
" style="fill: #800080"/>
    </g>
    <g id="text_42">
     <!-- RC aggregated -->
     <g transform="translate(884.92858 35.038125) scale(0.12 -0.12)">
      <defs>
       <path id="DejaVuSans-61" d="M 2194 1759 
Q 1497 1759 1228 1600 
Q 959 1441 959 1056 
Q 959 750 1161 570 
Q 1363 391 1709 391 
Q 2188 391 2477 730 
Q 2766 1069 2766 1631 
L 2766 1759 
L 2194 1759 
z
M 3341 1997 
L 3341 0 
L 2766 0 
L 2766 531 
Q 2569 213 2275 61 
Q 1981 -91 1556 -91 
Q 1019 -91 701 211 
Q 384 513 384 1019 
Q 384 1609 779 1909 
Q 1175 2209 1959 2209 
L 2766 2209 
L 2766 2266 
Q 2766 2663 2505 2880 
Q 2244 3097 1772 3097 
Q 1472 3097 1187 3025 
Q 903 2953 641 2809 
L 641 3341 
Q 956 3463 1253 3523 
Q 1550 3584 1831 3584 
Q 2591 3584 2966 3190 
Q 3341 2797 3341 1997 
z
" transform="scale(0.015625)"/>
       <path id="DejaVuSans-67" d="M 2906 1791 
Q 2906 2416 2648 2759 
Q 2391 3103 1925 3103 
Q 1463 3103 1205 2759 
Q 947 2416 947 1791 
Q 947 1169 1205 825 
Q 1463 481 1925 481 
Q 2391 481 2648 825 
Q 2906 1169 2906 1791 
z
M 3481 434 
Q 3481 -459 3084 -895 
Q 2688 -1331 1869 -1331 
Q 1566 -1331 1297 -1286 
Q 1028 -1241 775 -1147 
L 775 -588 
Q 1028 -725 1275 -790 
Q 1522 -856 1778 -856 
Q 2344 -856 2625 -561 
Q 2906 -266 2906 331 
L 2906 616 
Q 2728 306 2450 153 
Q 2172 0 1784 0 
Q 1141 0 747 490 
Q 353 981 353 1791 
Q 353 2603 747 3093 
Q 1141 3584 1784 3584 
Q 2172 3584 2450 3431 
Q 2728 3278 2906 2969 
L 2906 3500 
L 3481 3500 
L 3481 434 
z
" transform="scale(0.015625)"/>
       <path id="DejaVuSans-72" d="M 2631 2963 
Q 2534 3019 2420 3045 
Q 2306 3072 2169 3072 
Q 1681 3072 1420 2755 
Q 1159 2438 1159 1844 
L 1159 0 
L 581 0 
L 581 3500 
L 1159 3500 
L 1159 2956 
Q 1341 3275 1631 3429 
Q 1922 3584 2338 3584 
Q 2397 3584 2469 3576 
Q 2541 3569 2628 3553 
L 2631 2963 
z
" transform="scale(0.015625)"/>
       <path id="DejaVuSans-74" d="M 1172 4494 
L 1172 3500 
L 2356 3500 
L 2356 3053 
L 1172 3053 
L 1172 1153 
Q 1172 725 1289 603 
Q 1406 481 1766 481 
L 2356 481 
L 2356 0 
L 1766 0 
Q 1100 0 847 248 
Q 594 497 594 1153 
L 594 3053 
L 172 3053 
L 172 3500 
L 594 3500 
L 594 4494 
L 1172 4494 
z
" transform="scale(0.015625)"/>
       <path id="DejaVuSans-64" d="M 2906 2969 
L 2906 4863 
L 3481 4863 
L 3481 0 
L 2906 0 
L 2906 525 
Q 2725 213 2448 61 
Q 2172 -91 1784 -91 
Q 1150 -91 751 415 
Q 353 922 353 1747 
Q 353 2572 751 3078 
Q 1150 3584 1784 3584 
Q 2172 3584 2448 3432 
Q 2725 3281 2906 2969 
z
M 947 1747 
Q 947 1113 1208 752 
Q 1469 391 1925 391 
Q 2381 391 2643 752 
Q 2906 1113 2906 1747 
Q 2906 2381 2643 2742 
Q 2381 3103 1925 3103 
Q 1469 3103 1208 2742 
Q 947 2381 947 1747 
z
" transform="scale(0.015625)"/>
      </defs>
      <use xlink:href="#DejaVuSans-52"/>
      <use xlink:href="#DejaVuSans-43" x="64.482422"/>
      <use xlink:href="#DejaVuSans-20" x="134.306641"/>
      <use xlink:href="#DejaVuSans-61" x="166.09375"/>
      <use xlink:href="#DejaVuSans-67" x="227.373047"/>
      <use xlink:href="#DejaVuSans-67" x="290.849609"/>
      <use xlink:href="#DejaVuSans-72" x="354.326172"/>
      <use xlink:href="#DejaVuSans-65" x="393.189453"/>
      <use xlink:href="#DejaVuSans-67" x="454.712891"/>
      <use xlink:href="#DejaVuSans-61" x="518.189453"/>
      <use xlink:href="#DejaVuSans-74" x="579.46875"/>
      <use xlink:href="#DejaVuSans-65" x="618.677734"/>
      <use xlink:href="#DejaVuSans-64" x="680.201172"/>
     </g>
    </g>
    <g id="patch_108">
     <path d="M 851.32858 52.651875 
L 875.32858 52.651875 
L 875.32858 44.251875 
L 851.32858 44.251875 
z
" style="fill: #228b22"/>
    </g>
    <g id="text_43">
     <!-- RC connected -->
     <g transform="translate(884.92858 52.651875) scale(0.12 -0.12)">
      <defs>
       <path id="DejaVuSans-63" d="M 3122 3366 
L 3122 2828 
Q 2878 2963 2633 3030 
Q 2388 3097 2138 3097 
Q 1578 3097 1268 2742 
Q 959 2388 959 1747 
Q 959 1106 1268 751 
Q 1578 397 2138 397 
Q 2388 397 2633 464 
Q 2878 531 3122 666 
L 3122 134 
Q 2881 22 2623 -34 
Q 2366 -91 2075 -91 
Q 1284 -91 818 406 
Q 353 903 353 1747 
Q 353 2603 823 3093 
Q 1294 3584 2113 3584 
Q 2378 3584 2631 3529 
Q 2884 3475 3122 3366 
z
" transform="scale(0.015625)"/>
       <path id="DejaVuSans-6f" d="M 1959 3097 
Q 1497 3097 1228 2736 
Q 959 2375 959 1747 
Q 959 1119 1226 758 
Q 1494 397 1959 397 
Q 2419 397 2687 759 
Q 2956 1122 2956 1747 
Q 2956 2369 2687 2733 
Q 2419 3097 1959 3097 
z
M 1959 3584 
Q 2709 3584 3137 3096 
Q 3566 2609 3566 1747 
Q 3566 888 3137 398 
Q 2709 -91 1959 -91 
Q 1206 -91 779 398 
Q 353 888 353 1747 
Q 353 2609 779 3096 
Q 1206 3584 1959 3584 
z
" transform="scale(0.015625)"/>
       <path id="DejaVuSans-6e" d="M 3513 2113 
L 3513 0 
L 2938 0 
L 2938 2094 
Q 2938 2591 2744 2837 
Q 2550 3084 2163 3084 
Q 1697 3084 1428 2787 
Q 1159 2491 1159 1978 
L 1159 0 
L 581 0 
L 581 3500 
L 1159 3500 
L 1159 2956 
Q 1366 3272 1645 3428 
Q 1925 3584 2291 3584 
Q 2894 3584 3203 3211 
Q 3513 2838 3513 2113 
z
" transform="scale(0.015625)"/>
      </defs>
      <use xlink:href="#DejaVuSans-52"/>
      <use xlink:href="#DejaVuSans-43" x="64.482422"/>
      <use xlink:href="#DejaVuSans-20" x="134.306641"/>
      <use xlink:href="#DejaVuSans-63" x="166.09375"/>
      <use xlink:href="#DejaVuSans-6f" x="221.074219"/>
      <use xlink:href="#DejaVuSans-6e" x="282.255859"/>
      <use xlink:href="#DejaVuSans-6e" x="345.634766"/>
      <use xlink:href="#DejaVuSans-65" x="409.013672"/>
      <use xlink:href="#DejaVuSans-63" x="470.537109"/>
      <use xlink:href="#DejaVuSans-74" x="525.517578"/>
      <use xlink:href="#DejaVuSans-65" x="564.726562"/>
      <use xlink:href="#DejaVuSans-64" x="626.25"/>
     </g>
    </g>
    <g id="patch_109">
     <path d="M 851.32858 70.265625 
L 875.32858 70.265625 
L 875.32858 61.865625 
L 851.32858 61.865625 
z
" style="fill: #0000cd"/>
    </g>
    <g id="text_44">
     <!-- Bag of molecules -->
     <g transform="translate(884.92858 70.265625) scale(0.12 -0.12)">
      <defs>
       <path id="DejaVuSans-42" d="M 1259 2228 
L 1259 519 
L 2272 519 
Q 2781 519 3026 730 
Q 3272 941 3272 1375 
Q 3272 1813 3026 2020 
Q 2781 2228 2272 2228 
L 1259 2228 
z
M 1259 4147 
L 1259 2741 
L 2194 2741 
Q 2656 2741 2882 2914 
Q 3109 3088 3109 3444 
Q 3109 3797 2882 3972 
Q 2656 4147 2194 4147 
L 1259 4147 
z
M 628 4666 
L 2241 4666 
Q 2963 4666 3353 4366 
Q 3744 4066 3744 3513 
Q 3744 3084 3544 2831 
Q 3344 2578 2956 2516 
Q 3422 2416 3680 2098 
Q 3938 1781 3938 1306 
Q 3938 681 3513 340 
Q 3088 0 2303 0 
L 628 0 
L 628 4666 
z
" transform="scale(0.015625)"/>
       <path id="DejaVuSans-66" d="M 2375 4863 
L 2375 4384 
L 1825 4384 
Q 1516 4384 1395 4259 
Q 1275 4134 1275 3809 
L 1275 3500 
L 2222 3500 
L 2222 3053 
L 1275 3053 
L 1275 0 
L 697 0 
L 697 3053 
L 147 3053 
L 147 3500 
L 697 3500 
L 697 3744 
Q 697 4328 969 4595 
Q 1241 4863 1831 4863 
L 2375 4863 
z
" transform="scale(0.015625)"/>
       <path id="DejaVuSans-6d" d="M 3328 2828 
Q 3544 3216 3844 3400 
Q 4144 3584 4550 3584 
Q 5097 3584 5394 3201 
Q 5691 2819 5691 2113 
L 5691 0 
L 5113 0 
L 5113 2094 
Q 5113 2597 4934 2840 
Q 4756 3084 4391 3084 
Q 3944 3084 3684 2787 
Q 3425 2491 3425 1978 
L 3425 0 
L 2847 0 
L 2847 2094 
Q 2847 2600 2669 2842 
Q 2491 3084 2119 3084 
Q 1678 3084 1418 2786 
Q 1159 2488 1159 1978 
L 1159 0 
L 581 0 
L 581 3500 
L 1159 3500 
L 1159 2956 
Q 1356 3278 1631 3431 
Q 1906 3584 2284 3584 
Q 2666 3584 2933 3390 
Q 3200 3197 3328 2828 
z
" transform="scale(0.015625)"/>
       <path id="DejaVuSans-75" d="M 544 1381 
L 544 3500 
L 1119 3500 
L 1119 1403 
Q 1119 906 1312 657 
Q 1506 409 1894 409 
Q 2359 409 2629 706 
Q 2900 1003 2900 1516 
L 2900 3500 
L 3475 3500 
L 3475 0 
L 2900 0 
L 2900 538 
Q 2691 219 2414 64 
Q 2138 -91 1772 -91 
Q 1169 -91 856 284 
Q 544 659 544 1381 
z
M 1991 3584 
L 1991 3584 
z
" transform="scale(0.015625)"/>
       <path id="DejaVuSans-73" d="M 2834 3397 
L 2834 2853 
Q 2591 2978 2328 3040 
Q 2066 3103 1784 3103 
Q 1356 3103 1142 2972 
Q 928 2841 928 2578 
Q 928 2378 1081 2264 
Q 1234 2150 1697 2047 
L 1894 2003 
Q 2506 1872 2764 1633 
Q 3022 1394 3022 966 
Q 3022 478 2636 193 
Q 2250 -91 1575 -91 
Q 1294 -91 989 -36 
Q 684 19 347 128 
L 347 722 
Q 666 556 975 473 
Q 1284 391 1588 391 
Q 1994 391 2212 530 
Q 2431 669 2431 922 
Q 2431 1156 2273 1281 
Q 2116 1406 1581 1522 
L 1381 1569 
Q 847 1681 609 1914 
Q 372 2147 372 2553 
Q 372 3047 722 3315 
Q 1072 3584 1716 3584 
Q 2034 3584 2315 3537 
Q 2597 3491 2834 3397 
z
" transform="scale(0.015625)"/>
      </defs>
      <use xlink:href="#DejaVuSans-42"/>
      <use xlink:href="#DejaVuSans-61" x="68.603516"/>
      <use xlink:href="#DejaVuSans-67" x="129.882812"/>
      <use xlink:href="#DejaVuSans-20" x="193.359375"/>
      <use xlink:href="#DejaVuSans-6f" x="225.146484"/>
      <use xlink:href="#DejaVuSans-66" x="286.328125"/>
      <use xlink:href="#DejaVuSans-20" x="321.533203"/>
      <use xlink:href="#DejaVuSans-6d" x="353.320312"/>
      <use xlink:href="#DejaVuSans-6f" x="450.732422"/>
      <use xlink:href="#DejaVuSans-6c" x="511.914062"/>
      <use xlink:href="#DejaVuSans-65" x="539.697266"/>
      <use xlink:href="#DejaVuSans-63" x="601.220703"/>
      <use xlink:href="#DejaVuSans-75" x="656.201172"/>
      <use xlink:href="#DejaVuSans-6c" x="719.580078"/>
      <use xlink:href="#DejaVuSans-65" x="747.363281"/>
      <use xlink:href="#DejaVuSans-73" x="808.886719"/>
     </g>
    </g>
   </g>
  </g>
 </g>
 <defs>
  <clipPath id="p105d7b5d8f">
   <rect x="70.85" y="15.12" width="762.058" height="201.323834"/>
  </clipPath>
 </defs>
</svg>
