<?xml version="1.0" encoding="utf-8" standalone="no"?>
<!DOCTYPE svg PUBLIC "-//W3C//DTD SVG 1.1//EN"
  "http://www.w3.org/Graphics/SVG/1.1/DTD/svg11.dtd">
<svg xmlns:xlink="http://www.w3.org/1999/xlink" width="576pt" height="432pt" viewBox="0 0 576 432" xmlns="http://www.w3.org/2000/svg" version="1.1">
 <metadata>
  <rdf:RDF xmlns:dc="http://purl.org/dc/elements/1.1/" xmlns:cc="http://creativecommons.org/ns#" xmlns:rdf="http://www.w3.org/1999/02/22-rdf-syntax-ns#">
   <cc:Work>
    <dc:type rdf:resource="http://purl.org/dc/dcmitype/StillImage"/>
    <dc:date>2025-12-24T09:22:26.521057</dc:date>
    <dc:format>image/svg+xml</dc:format>
    <dc:creator>
     <cc:Agent>
      <dc:title>Matplotlib v3.8.4, https://matplotlib.org/</dc:title>
     </cc:Agent>
    </dc:creator>
   </cc:Work>
  </rdf:RDF>
 </metadata>
 <defs>
  <style type="text/css">*{stroke-linejoin: round; stroke-linecap: butt}</style>
 </defs>
 <g id="figure_1">
  <g id="patch_1">
   <path d="M 0 432 
L 576 432 
L 576 0 
L 0 0 
z
" style="fill: #ffffff"/>
  </g>
  <g id="axes_1">
   <g id="patch_2">
    <path d="M 79.94 362.68 
L 560.88 362.68 
L 560.88 15.12 
L 79.94 15.12 
z
" style="fill: #ffffff"/>
   </g>
   <g id="matplotlib.axis_1">
    <g id="xtick_1">
     <g id="line2d_1">
      <defs>
       <path id="m3ffbdfe9d4" d="M 0 0 
L 0 3.5 
" style="stroke: #000000; stroke-width: 0.8"/>
      </defs>
      <g>
       <use xlink:href="#m3ffbdfe9d4" x="98.648367" y="362.68" style="stroke: #000000; stroke-width: 0.8"/>
      </g>
     </g>
     <g id="text_1">
      <!-- 0.0 -->
      <g transform="translate(87.516179 380.317813) scale(0.14 -0.14)">
       <defs>
        <path id="DejaVuSans-30" d="M 2034 4250 
Q 1547 4250 1301 3770 
Q 1056 3291 1056 2328 
Q 1056 1369 1301 889 
Q 1547 409 2034 409 
Q 2525 409 2770 889 
Q 3016 1369 3016 2328 
Q 3016 3291 2770 3770 
Q 2525 4250 2034 4250 
z
M 2034 4750 
Q 2819 4750 3233 4129 
Q 3647 3509 3647 2328 
Q 3647 1150 3233 529 
Q 2819 -91 2034 -91 
Q 1250 -91 836 529 
Q 422 1150 422 2328 
Q 422 3509 836 4129 
Q 1250 4750 2034 4750 
z
" transform="scale(0.015625)"/>
        <path id="DejaVuSans-2e" d="M 684 794 
L 1344 794 
L 1344 0 
L 684 0 
L 684 794 
z
" transform="scale(0.015625)"/>
       </defs>
       <use xlink:href="#DejaVuSans-30"/>
       <use xlink:href="#DejaVuSans-2e" x="63.623047"/>
       <use xlink:href="#DejaVuSans-30" x="95.410156"/>
      </g>
     </g>
    </g>
    <g id="xtick_2">
     <g id="line2d_2">
      <g>
       <use xlink:href="#m3ffbdfe9d4" x="192.594121" y="362.68" style="stroke: #000000; stroke-width: 0.8"/>
      </g>
     </g>
     <g id="text_2">
      <!-- 0.2 -->
      <g transform="translate(181.461934 380.317813) scale(0.14 -0.14)">
       <defs>
        <path id="DejaVuSans-32" d="M 1228 531 
L 3431 531 
L 3431 0 
L 469 0 
L 469 531 
Q 828 903 1448 1529 
Q 2069 2156 2228 2338 
Q 2531 2678 2651 2914 
Q 2772 3150 2772 3378 
Q 2772 3750 2511 3984 
Q 2250 4219 1831 4219 
Q 1534 4219 1204 4116 
Q 875 4013 500 3803 
L 500 4441 
Q 881 4594 1212 4672 
Q 1544 4750 1819 4750 
Q 2544 4750 2975 4387 
Q 3406 4025 3406 3419 
Q 3406 3131 3298 2873 
Q 3191 2616 2906 2266 
Q 2828 2175 2409 1742 
Q 1991 1309 1228 531 
z
" transform="scale(0.015625)"/>
       </defs>
       <use xlink:href="#DejaVuSans-30"/>
       <use xlink:href="#DejaVuSans-2e" x="63.623047"/>
       <use xlink:href="#DejaVuSans-32" x="95.410156"/>
      </g>
     </g>
    </g>
    <g id="xtick_3">
     <g id="line2d_3">
      <g>
       <use xlink:href="#m3ffbdfe9d4" x="286.539876" y="362.68" style="stroke: #000000; stroke-width: 0.8"/>
      </g>
     </g>
     <g id="text_3">
      <!-- 0.4 -->
      <g transform="translate(275.407688 380.317813) scale(0.14 -0.14)">
       <defs>
        <path id="DejaVuSans-34" d="M 2419 4116 
L 825 1625 
L 2419 1625 
L 2419 4116 
z
M 2253 4666 
L 3047 4666 
L 3047 1625 
L 3713 1625 
L 3713 1100 
L 3047 1100 
L 3047 0 
L 2419 0 
L 2419 1100 
L 313 1100 
L 313 1709 
L 2253 4666 
z
" transform="scale(0.015625)"/>
       </defs>
       <use xlink:href="#DejaVuSans-30"/>
       <use xlink:href="#DejaVuSans-2e" x="63.623047"/>
       <use xlink:href="#DejaVuSans-34" x="95.410156"/>
      </g>
     </g>
    </g>
    <g id="xtick_4">
     <g id="line2d_4">
      <g>
       <use xlink:href="#m3ffbdfe9d4" x="380.48563" y="362.68" style="stroke: #000000; stroke-width: 0.8"/>
      </g>
     </g>
     <g id="text_4">
      <!-- 0.6 -->
      <g transform="translate(369.353443 380.317813) scale(0.14 -0.14)">
       <defs>
        <path id="DejaVuSans-36" d="M 2113 2584 
Q 1688 2584 1439 2293 
Q 1191 2003 1191 1497 
Q 1191 994 1439 701 
Q 1688 409 2113 409 
Q 2538 409 2786 701 
Q 3034 994 3034 1497 
Q 3034 2003 2786 2293 
Q 2538 2584 2113 2584 
z
M 3366 4563 
L 3366 3988 
Q 3128 4100 2886 4159 
Q 2644 4219 2406 4219 
Q 1781 4219 1451 3797 
Q 1122 3375 1075 2522 
Q 1259 2794 1537 2939 
Q 1816 3084 2150 3084 
Q 2853 3084 3261 2657 
Q 3669 2231 3669 1497 
Q 3669 778 3244 343 
Q 2819 -91 2113 -91 
Q 1303 -91 875 529 
Q 447 1150 447 2328 
Q 447 3434 972 4092 
Q 1497 4750 2381 4750 
Q 2619 4750 2861 4703 
Q 3103 4656 3366 4563 
z
" transform="scale(0.015625)"/>
       </defs>
       <use xlink:href="#DejaVuSans-30"/>
       <use xlink:href="#DejaVuSans-2e" x="63.623047"/>
       <use xlink:href="#DejaVuSans-36" x="95.410156"/>
      </g>
     </g>
    </g>
    <g id="xtick_5">
     <g id="line2d_5">
      <g>
       <use xlink:href="#m3ffbdfe9d4" x="474.431385" y="362.68" style="stroke: #000000; stroke-width: 0.8"/>
      </g>
     </g>
     <g id="text_5">
      <!-- 0.8 -->
      <g transform="translate(463.299197 380.317813) scale(0.14 -0.14)">
       <defs>
        <path id="DejaVuSans-38" d="M 2034 2216 
Q 1584 2216 1326 1975 
Q 1069 1734 1069 1313 
Q 1069 891 1326 650 
Q 1584 409 2034 409 
Q 2484 409 2743 651 
Q 3003 894 3003 1313 
Q 3003 1734 2745 1975 
Q 2488 2216 2034 2216 
z
M 1403 2484 
Q 997 2584 770 2862 
Q 544 3141 544 3541 
Q 544 4100 942 4425 
Q 1341 4750 2034 4750 
Q 2731 4750 3128 4425 
Q 3525 4100 3525 3541 
Q 3525 3141 3298 2862 
Q 3072 2584 2669 2484 
Q 3125 2378 3379 2068 
Q 3634 1759 3634 1313 
Q 3634 634 3220 271 
Q 2806 -91 2034 -91 
Q 1263 -91 848 271 
Q 434 634 434 1313 
Q 434 1759 690 2068 
Q 947 2378 1403 2484 
z
M 1172 3481 
Q 1172 3119 1398 2916 
Q 1625 2713 2034 2713 
Q 2441 2713 2670 2916 
Q 2900 3119 2900 3481 
Q 2900 3844 2670 4047 
Q 2441 4250 2034 4250 
Q 1625 4250 1398 4047 
Q 1172 3844 1172 3481 
z
" transform="scale(0.015625)"/>
       </defs>
       <use xlink:href="#DejaVuSans-30"/>
       <use xlink:href="#DejaVuSans-2e" x="63.623047"/>
       <use xlink:href="#DejaVuSans-38" x="95.410156"/>
      </g>
     </g>
    </g>
    <g id="text_6">
     <!-- Max RCMCS similarity between incorrect -->
     <g transform="translate(178.807656 397.867188) scale(0.14 -0.14)">
      <defs>
       <path id="DejaVuSans-4d" d="M 628 4666 
L 1569 4666 
L 2759 1491 
L 3956 4666 
L 4897 4666 
L 4897 0 
L 4281 0 
L 4281 4097 
L 3078 897 
L 2444 897 
L 1241 4097 
L 1241 0 
L 628 0 
L 628 4666 
z
" transform="scale(0.015625)"/>
       <path id="DejaVuSans-61" d="M 2194 1759 
Q 1497 1759 1228 1600 
Q 959 1441 959 1056 
Q 959 750 1161 570 
Q 1363 391 1709 391 
Q 2188 391 2477 730 
Q 2766 1069 2766 1631 
L 2766 1759 
L 2194 1759 
z
M 3341 1997 
L 3341 0 
L 2766 0 
L 2766 531 
Q 2569 213 2275 61 
Q 1981 -91 1556 -91 
Q 1019 -91 701 211 
Q 384 513 384 1019 
Q 384 1609 779 1909 
Q 1175 2209 1959 2209 
L 2766 2209 
L 2766 2266 
Q 2766 2663 2505 2880 
Q 2244 3097 1772 3097 
Q 1472 3097 1187 3025 
Q 903 2953 641 2809 
L 641 3341 
Q 956 3463 1253 3523 
Q 1550 3584 1831 3584 
Q 2591 3584 2966 3190 
Q 3341 2797 3341 1997 
z
" transform="scale(0.015625)"/>
       <path id="DejaVuSans-78" d="M 3513 3500 
L 2247 1797 
L 3578 0 
L 2900 0 
L 1881 1375 
L 863 0 
L 184 0 
L 1544 1831 
L 300 3500 
L 978 3500 
L 1906 2253 
L 2834 3500 
L 3513 3500 
z
" transform="scale(0.015625)"/>
       <path id="DejaVuSans-20" transform="scale(0.015625)"/>
       <path id="DejaVuSans-52" d="M 2841 2188 
Q 3044 2119 3236 1894 
Q 3428 1669 3622 1275 
L 4263 0 
L 3584 0 
L 2988 1197 
Q 2756 1666 2539 1819 
Q 2322 1972 1947 1972 
L 1259 1972 
L 1259 0 
L 628 0 
L 628 4666 
L 2053 4666 
Q 2853 4666 3247 4331 
Q 3641 3997 3641 3322 
Q 3641 2881 3436 2590 
Q 3231 2300 2841 2188 
z
M 1259 4147 
L 1259 2491 
L 2053 2491 
Q 2509 2491 2742 2702 
Q 2975 2913 2975 3322 
Q 2975 3731 2742 3939 
Q 2509 4147 2053 4147 
L 1259 4147 
z
" transform="scale(0.015625)"/>
       <path id="DejaVuSans-43" d="M 4122 4306 
L 4122 3641 
Q 3803 3938 3442 4084 
Q 3081 4231 2675 4231 
Q 1875 4231 1450 3742 
Q 1025 3253 1025 2328 
Q 1025 1406 1450 917 
Q 1875 428 2675 428 
Q 3081 428 3442 575 
Q 3803 722 4122 1019 
L 4122 359 
Q 3791 134 3420 21 
Q 3050 -91 2638 -91 
Q 1578 -91 968 557 
Q 359 1206 359 2328 
Q 359 3453 968 4101 
Q 1578 4750 2638 4750 
Q 3056 4750 3426 4639 
Q 3797 4528 4122 4306 
z
" transform="scale(0.015625)"/>
       <path id="DejaVuSans-53" d="M 3425 4513 
L 3425 3897 
Q 3066 4069 2747 4153 
Q 2428 4238 2131 4238 
Q 1616 4238 1336 4038 
Q 1056 3838 1056 3469 
Q 1056 3159 1242 3001 
Q 1428 2844 1947 2747 
L 2328 2669 
Q 3034 2534 3370 2195 
Q 3706 1856 3706 1288 
Q 3706 609 3251 259 
Q 2797 -91 1919 -91 
Q 1588 -91 1214 -16 
Q 841 59 441 206 
L 441 856 
Q 825 641 1194 531 
Q 1563 422 1919 422 
Q 2459 422 2753 634 
Q 3047 847 3047 1241 
Q 3047 1584 2836 1778 
Q 2625 1972 2144 2069 
L 1759 2144 
Q 1053 2284 737 2584 
Q 422 2884 422 3419 
Q 422 4038 858 4394 
Q 1294 4750 2059 4750 
Q 2388 4750 2728 4690 
Q 3069 4631 3425 4513 
z
" transform="scale(0.015625)"/>
       <path id="DejaVuSans-73" d="M 2834 3397 
L 2834 2853 
Q 2591 2978 2328 3040 
Q 2066 3103 1784 3103 
Q 1356 3103 1142 2972 
Q 928 2841 928 2578 
Q 928 2378 1081 2264 
Q 1234 2150 1697 2047 
L 1894 2003 
Q 2506 1872 2764 1633 
Q 3022 1394 3022 966 
Q 3022 478 2636 193 
Q 2250 -91 1575 -91 
Q 1294 -91 989 -36 
Q 684 19 347 128 
L 347 722 
Q 666 556 975 473 
Q 1284 391 1588 391 
Q 1994 391 2212 530 
Q 2431 669 2431 922 
Q 2431 1156 2273 1281 
Q 2116 1406 1581 1522 
L 1381 1569 
Q 847 1681 609 1914 
Q 372 2147 372 2553 
Q 372 3047 722 3315 
Q 1072 3584 1716 3584 
Q 2034 3584 2315 3537 
Q 2597 3491 2834 3397 
z
" transform="scale(0.015625)"/>
       <path id="DejaVuSans-69" d="M 603 3500 
L 1178 3500 
L 1178 0 
L 603 0 
L 603 3500 
z
M 603 4863 
L 1178 4863 
L 1178 4134 
L 603 4134 
L 603 4863 
z
" transform="scale(0.015625)"/>
       <path id="DejaVuSans-6d" d="M 3328 2828 
Q 3544 3216 3844 3400 
Q 4144 3584 4550 3584 
Q 5097 3584 5394 3201 
Q 5691 2819 5691 2113 
L 5691 0 
L 5113 0 
L 5113 2094 
Q 5113 2597 4934 2840 
Q 4756 3084 4391 3084 
Q 3944 3084 3684 2787 
Q 3425 2491 3425 1978 
L 3425 0 
L 2847 0 
L 2847 2094 
Q 2847 2600 2669 2842 
Q 2491 3084 2119 3084 
Q 1678 3084 1418 2786 
Q 1159 2488 1159 1978 
L 1159 0 
L 581 0 
L 581 3500 
L 1159 3500 
L 1159 2956 
Q 1356 3278 1631 3431 
Q 1906 3584 2284 3584 
Q 2666 3584 2933 3390 
Q 3200 3197 3328 2828 
z
" transform="scale(0.015625)"/>
       <path id="DejaVuSans-6c" d="M 603 4863 
L 1178 4863 
L 1178 0 
L 603 0 
L 603 4863 
z
" transform="scale(0.015625)"/>
       <path id="DejaVuSans-72" d="M 2631 2963 
Q 2534 3019 2420 3045 
Q 2306 3072 2169 3072 
Q 1681 3072 1420 2755 
Q 1159 2438 1159 1844 
L 1159 0 
L 581 0 
L 581 3500 
L 1159 3500 
L 1159 2956 
Q 1341 3275 1631 3429 
Q 1922 3584 2338 3584 
Q 2397 3584 2469 3576 
Q 2541 3569 2628 3553 
L 2631 2963 
z
" transform="scale(0.015625)"/>
       <path id="DejaVuSans-74" d="M 1172 4494 
L 1172 3500 
L 2356 3500 
L 2356 3053 
L 1172 3053 
L 1172 1153 
Q 1172 725 1289 603 
Q 1406 481 1766 481 
L 2356 481 
L 2356 0 
L 1766 0 
Q 1100 0 847 248 
Q 594 497 594 1153 
L 594 3053 
L 172 3053 
L 172 3500 
L 594 3500 
L 594 4494 
L 1172 4494 
z
" transform="scale(0.015625)"/>
       <path id="DejaVuSans-79" d="M 2059 -325 
Q 1816 -950 1584 -1140 
Q 1353 -1331 966 -1331 
L 506 -1331 
L 506 -850 
L 844 -850 
Q 1081 -850 1212 -737 
Q 1344 -625 1503 -206 
L 1606 56 
L 191 3500 
L 800 3500 
L 1894 763 
L 2988 3500 
L 3597 3500 
L 2059 -325 
z
" transform="scale(0.015625)"/>
       <path id="DejaVuSans-62" d="M 3116 1747 
Q 3116 2381 2855 2742 
Q 2594 3103 2138 3103 
Q 1681 3103 1420 2742 
Q 1159 2381 1159 1747 
Q 1159 1113 1420 752 
Q 1681 391 2138 391 
Q 2594 391 2855 752 
Q 3116 1113 3116 1747 
z
M 1159 2969 
Q 1341 3281 1617 3432 
Q 1894 3584 2278 3584 
Q 2916 3584 3314 3078 
Q 3713 2572 3713 1747 
Q 3713 922 3314 415 
Q 2916 -91 2278 -91 
Q 1894 -91 1617 61 
Q 1341 213 1159 525 
L 1159 0 
L 581 0 
L 581 4863 
L 1159 4863 
L 1159 2969 
z
" transform="scale(0.015625)"/>
       <path id="DejaVuSans-65" d="M 3597 1894 
L 3597 1613 
L 953 1613 
Q 991 1019 1311 708 
Q 1631 397 2203 397 
Q 2534 397 2845 478 
Q 3156 559 3463 722 
L 3463 178 
Q 3153 47 2828 -22 
Q 2503 -91 2169 -91 
Q 1331 -91 842 396 
Q 353 884 353 1716 
Q 353 2575 817 3079 
Q 1281 3584 2069 3584 
Q 2775 3584 3186 3129 
Q 3597 2675 3597 1894 
z
M 3022 2063 
Q 3016 2534 2758 2815 
Q 2500 3097 2075 3097 
Q 1594 3097 1305 2825 
Q 1016 2553 972 2059 
L 3022 2063 
z
" transform="scale(0.015625)"/>
       <path id="DejaVuSans-77" d="M 269 3500 
L 844 3500 
L 1563 769 
L 2278 3500 
L 2956 3500 
L 3675 769 
L 4391 3500 
L 4966 3500 
L 4050 0 
L 3372 0 
L 2619 2869 
L 1863 0 
L 1184 0 
L 269 3500 
z
" transform="scale(0.015625)"/>
       <path id="DejaVuSans-6e" d="M 3513 2113 
L 3513 0 
L 2938 0 
L 2938 2094 
Q 2938 2591 2744 2837 
Q 2550 3084 2163 3084 
Q 1697 3084 1428 2787 
Q 1159 2491 1159 1978 
L 1159 0 
L 581 0 
L 581 3500 
L 1159 3500 
L 1159 2956 
Q 1366 3272 1645 3428 
Q 1925 3584 2291 3584 
Q 2894 3584 3203 3211 
Q 3513 2838 3513 2113 
z
" transform="scale(0.015625)"/>
       <path id="DejaVuSans-63" d="M 3122 3366 
L 3122 2828 
Q 2878 2963 2633 3030 
Q 2388 3097 2138 3097 
Q 1578 3097 1268 2742 
Q 959 2388 959 1747 
Q 959 1106 1268 751 
Q 1578 397 2138 397 
Q 2388 397 2633 464 
Q 2878 531 3122 666 
L 3122 134 
Q 2881 22 2623 -34 
Q 2366 -91 2075 -91 
Q 1284 -91 818 406 
Q 353 903 353 1747 
Q 353 2603 823 3093 
Q 1294 3584 2113 3584 
Q 2378 3584 2631 3529 
Q 2884 3475 3122 3366 
z
" transform="scale(0.015625)"/>
       <path id="DejaVuSans-6f" d="M 1959 3097 
Q 1497 3097 1228 2736 
Q 959 2375 959 1747 
Q 959 1119 1226 758 
Q 1494 397 1959 397 
Q 2419 397 2687 759 
Q 2956 1122 2956 1747 
Q 2956 2369 2687 2733 
Q 2419 3097 1959 3097 
z
M 1959 3584 
Q 2709 3584 3137 3096 
Q 3566 2609 3566 1747 
Q 3566 888 3137 398 
Q 2709 -91 1959 -91 
Q 1206 -91 779 398 
Q 353 888 353 1747 
Q 353 2609 779 3096 
Q 1206 3584 1959 3584 
z
" transform="scale(0.015625)"/>
      </defs>
      <use xlink:href="#DejaVuSans-4d"/>
      <use xlink:href="#DejaVuSans-61" x="86.279297"/>
      <use xlink:href="#DejaVuSans-78" x="147.558594"/>
      <use xlink:href="#DejaVuSans-20" x="206.738281"/>
      <use xlink:href="#DejaVuSans-52" x="238.525391"/>
      <use xlink:href="#DejaVuSans-43" x="303.007812"/>
      <use xlink:href="#DejaVuSans-4d" x="372.832031"/>
      <use xlink:href="#DejaVuSans-43" x="459.111328"/>
      <use xlink:href="#DejaVuSans-53" x="528.935547"/>
      <use xlink:href="#DejaVuSans-20" x="592.412109"/>
      <use xlink:href="#DejaVuSans-73" x="624.199219"/>
      <use xlink:href="#DejaVuSans-69" x="676.298828"/>
      <use xlink:href="#DejaVuSans-6d" x="704.082031"/>
      <use xlink:href="#DejaVuSans-69" x="801.494141"/>
      <use xlink:href="#DejaVuSans-6c" x="829.277344"/>
      <use xlink:href="#DejaVuSans-61" x="857.060547"/>
      <use xlink:href="#DejaVuSans-72" x="918.339844"/>
      <use xlink:href="#DejaVuSans-69" x="959.453125"/>
      <use xlink:href="#DejaVuSans-74" x="987.236328"/>
      <use xlink:href="#DejaVuSans-79" x="1026.445312"/>
      <use xlink:href="#DejaVuSans-20" x="1085.625"/>
      <use xlink:href="#DejaVuSans-62" x="1117.412109"/>
      <use xlink:href="#DejaVuSans-65" x="1180.888672"/>
      <use xlink:href="#DejaVuSans-74" x="1242.412109"/>
      <use xlink:href="#DejaVuSans-77" x="1281.621094"/>
      <use xlink:href="#DejaVuSans-65" x="1363.408203"/>
      <use xlink:href="#DejaVuSans-65" x="1424.931641"/>
      <use xlink:href="#DejaVuSans-6e" x="1486.455078"/>
      <use xlink:href="#DejaVuSans-20" x="1549.833984"/>
      <use xlink:href="#DejaVuSans-69" x="1581.621094"/>
      <use xlink:href="#DejaVuSans-6e" x="1609.404297"/>
      <use xlink:href="#DejaVuSans-63" x="1672.783203"/>
      <use xlink:href="#DejaVuSans-6f" x="1727.763672"/>
      <use xlink:href="#DejaVuSans-72" x="1788.945312"/>
      <use xlink:href="#DejaVuSans-72" x="1828.308594"/>
      <use xlink:href="#DejaVuSans-65" x="1867.171875"/>
      <use xlink:href="#DejaVuSans-63" x="1928.695312"/>
      <use xlink:href="#DejaVuSans-74" x="1983.675781"/>
     </g>
     <!--  predicted reaction and true positive reactions -->
     <g transform="translate(158.070156 413.544125) scale(0.14 -0.14)">
      <defs>
       <path id="DejaVuSans-70" d="M 1159 525 
L 1159 -1331 
L 581 -1331 
L 581 3500 
L 1159 3500 
L 1159 2969 
Q 1341 3281 1617 3432 
Q 1894 3584 2278 3584 
Q 2916 3584 3314 3078 
Q 3713 2572 3713 1747 
Q 3713 922 3314 415 
Q 2916 -91 2278 -91 
Q 1894 -91 1617 61 
Q 1341 213 1159 525 
z
M 3116 1747 
Q 3116 2381 2855 2742 
Q 2594 3103 2138 3103 
Q 1681 3103 1420 2742 
Q 1159 2381 1159 1747 
Q 1159 1113 1420 752 
Q 1681 391 2138 391 
Q 2594 391 2855 752 
Q 3116 1113 3116 1747 
z
" transform="scale(0.015625)"/>
       <path id="DejaVuSans-64" d="M 2906 2969 
L 2906 4863 
L 3481 4863 
L 3481 0 
L 2906 0 
L 2906 525 
Q 2725 213 2448 61 
Q 2172 -91 1784 -91 
Q 1150 -91 751 415 
Q 353 922 353 1747 
Q 353 2572 751 3078 
Q 1150 3584 1784 3584 
Q 2172 3584 2448 3432 
Q 2725 3281 2906 2969 
z
M 947 1747 
Q 947 1113 1208 752 
Q 1469 391 1925 391 
Q 2381 391 2643 752 
Q 2906 1113 2906 1747 
Q 2906 2381 2643 2742 
Q 2381 3103 1925 3103 
Q 1469 3103 1208 2742 
Q 947 2381 947 1747 
z
" transform="scale(0.015625)"/>
       <path id="DejaVuSans-75" d="M 544 1381 
L 544 3500 
L 1119 3500 
L 1119 1403 
Q 1119 906 1312 657 
Q 1506 409 1894 409 
Q 2359 409 2629 706 
Q 2900 1003 2900 1516 
L 2900 3500 
L 3475 3500 
L 3475 0 
L 2900 0 
L 2900 538 
Q 2691 219 2414 64 
Q 2138 -91 1772 -91 
Q 1169 -91 856 284 
Q 544 659 544 1381 
z
M 1991 3584 
L 1991 3584 
z
" transform="scale(0.015625)"/>
       <path id="DejaVuSans-76" d="M 191 3500 
L 800 3500 
L 1894 563 
L 2988 3500 
L 3597 3500 
L 2284 0 
L 1503 0 
L 191 3500 
z
" transform="scale(0.015625)"/>
      </defs>
      <use xlink:href="#DejaVuSans-20"/>
      <use xlink:href="#DejaVuSans-70" x="31.787109"/>
      <use xlink:href="#DejaVuSans-72" x="95.263672"/>
      <use xlink:href="#DejaVuSans-65" x="134.126953"/>
      <use xlink:href="#DejaVuSans-64" x="195.650391"/>
      <use xlink:href="#DejaVuSans-69" x="259.126953"/>
      <use xlink:href="#DejaVuSans-63" x="286.910156"/>
      <use xlink:href="#DejaVuSans-74" x="341.890625"/>
      <use xlink:href="#DejaVuSans-65" x="381.099609"/>
      <use xlink:href="#DejaVuSans-64" x="442.623047"/>
      <use xlink:href="#DejaVuSans-20" x="506.099609"/>
      <use xlink:href="#DejaVuSans-72" x="537.886719"/>
      <use xlink:href="#DejaVuSans-65" x="576.75"/>
      <use xlink:href="#DejaVuSans-61" x="638.273438"/>
      <use xlink:href="#DejaVuSans-63" x="699.552734"/>
      <use xlink:href="#DejaVuSans-74" x="754.533203"/>
      <use xlink:href="#DejaVuSans-69" x="793.742188"/>
      <use xlink:href="#DejaVuSans-6f" x="821.525391"/>
      <use xlink:href="#DejaVuSans-6e" x="882.707031"/>
      <use xlink:href="#DejaVuSans-20" x="946.085938"/>
      <use xlink:href="#DejaVuSans-61" x="977.873047"/>
      <use xlink:href="#DejaVuSans-6e" x="1039.152344"/>
      <use xlink:href="#DejaVuSans-64" x="1102.53125"/>
      <use xlink:href="#DejaVuSans-20" x="1166.007812"/>
      <use xlink:href="#DejaVuSans-74" x="1197.794922"/>
      <use xlink:href="#DejaVuSans-72" x="1237.003906"/>
      <use xlink:href="#DejaVuSans-75" x="1278.117188"/>
      <use xlink:href="#DejaVuSans-65" x="1341.496094"/>
      <use xlink:href="#DejaVuSans-20" x="1403.019531"/>
      <use xlink:href="#DejaVuSans-70" x="1434.806641"/>
      <use xlink:href="#DejaVuSans-6f" x="1498.283203"/>
      <use xlink:href="#DejaVuSans-73" x="1559.464844"/>
      <use xlink:href="#DejaVuSans-69" x="1611.564453"/>
      <use xlink:href="#DejaVuSans-74" x="1639.347656"/>
      <use xlink:href="#DejaVuSans-69" x="1678.556641"/>
      <use xlink:href="#DejaVuSans-76" x="1706.339844"/>
      <use xlink:href="#DejaVuSans-65" x="1765.519531"/>
      <use xlink:href="#DejaVuSans-20" x="1827.042969"/>
      <use xlink:href="#DejaVuSans-72" x="1858.830078"/>
      <use xlink:href="#DejaVuSans-65" x="1897.693359"/>
      <use xlink:href="#DejaVuSans-61" x="1959.216797"/>
      <use xlink:href="#DejaVuSans-63" x="2020.496094"/>
      <use xlink:href="#DejaVuSans-74" x="2075.476562"/>
      <use xlink:href="#DejaVuSans-69" x="2114.685547"/>
      <use xlink:href="#DejaVuSans-6f" x="2142.46875"/>
      <use xlink:href="#DejaVuSans-6e" x="2203.650391"/>
      <use xlink:href="#DejaVuSans-73" x="2267.029297"/>
     </g>
    </g>
   </g>
   <g id="matplotlib.axis_2">
    <g id="ytick_1">
     <g id="line2d_6">
      <defs>
       <path id="m799c2dc68f" d="M 0 0 
L -3.5 0 
" style="stroke: #000000; stroke-width: 0.8"/>
      </defs>
      <g>
       <use xlink:href="#m799c2dc68f" x="79.94" y="343.419203" style="stroke: #000000; stroke-width: 0.8"/>
      </g>
     </g>
     <g id="text_7">
      <!-- 0.800 -->
      <g transform="translate(32.860625 348.738109) scale(0.14 -0.14)">
       <use xlink:href="#DejaVuSans-30"/>
       <use xlink:href="#DejaVuSans-2e" x="63.623047"/>
       <use xlink:href="#DejaVuSans-38" x="95.410156"/>
       <use xlink:href="#DejaVuSans-30" x="159.033203"/>
       <use xlink:href="#DejaVuSans-30" x="222.65625"/>
      </g>
     </g>
    </g>
    <g id="ytick_2">
     <g id="line2d_7">
      <g>
       <use xlink:href="#m799c2dc68f" x="79.94" y="304.356575" style="stroke: #000000; stroke-width: 0.8"/>
      </g>
     </g>
     <g id="text_8">
      <!-- 0.825 -->
      <g transform="translate(32.860625 309.675482) scale(0.14 -0.14)">
       <defs>
        <path id="DejaVuSans-35" d="M 691 4666 
L 3169 4666 
L 3169 4134 
L 1269 4134 
L 1269 2991 
Q 1406 3038 1543 3061 
Q 1681 3084 1819 3084 
Q 2600 3084 3056 2656 
Q 3513 2228 3513 1497 
Q 3513 744 3044 326 
Q 2575 -91 1722 -91 
Q 1428 -91 1123 -41 
Q 819 9 494 109 
L 494 744 
Q 775 591 1075 516 
Q 1375 441 1709 441 
Q 2250 441 2565 725 
Q 2881 1009 2881 1497 
Q 2881 1984 2565 2268 
Q 2250 2553 1709 2553 
Q 1456 2553 1204 2497 
Q 953 2441 691 2322 
L 691 4666 
z
" transform="scale(0.015625)"/>
       </defs>
       <use xlink:href="#DejaVuSans-30"/>
       <use xlink:href="#DejaVuSans-2e" x="63.623047"/>
       <use xlink:href="#DejaVuSans-38" x="95.410156"/>
       <use xlink:href="#DejaVuSans-32" x="159.033203"/>
       <use xlink:href="#DejaVuSans-35" x="222.65625"/>
      </g>
     </g>
    </g>
    <g id="ytick_3">
     <g id="line2d_8">
      <g>
       <use xlink:href="#m799c2dc68f" x="79.94" y="265.293948" style="stroke: #000000; stroke-width: 0.8"/>
      </g>
     </g>
     <g id="text_9">
      <!-- 0.850 -->
      <g transform="translate(32.860625 270.612854) scale(0.14 -0.14)">
       <use xlink:href="#DejaVuSans-30"/>
       <use xlink:href="#DejaVuSans-2e" x="63.623047"/>
       <use xlink:href="#DejaVuSans-38" x="95.410156"/>
       <use xlink:href="#DejaVuSans-35" x="159.033203"/>
       <use xlink:href="#DejaVuSans-30" x="222.65625"/>
      </g>
     </g>
    </g>
    <g id="ytick_4">
     <g id="line2d_9">
      <g>
       <use xlink:href="#m799c2dc68f" x="79.94" y="226.23132" style="stroke: #000000; stroke-width: 0.8"/>
      </g>
     </g>
     <g id="text_10">
      <!-- 0.875 -->
      <g transform="translate(32.860625 231.550226) scale(0.14 -0.14)">
       <defs>
        <path id="DejaVuSans-37" d="M 525 4666 
L 3525 4666 
L 3525 4397 
L 1831 0 
L 1172 0 
L 2766 4134 
L 525 4134 
L 525 4666 
z
" transform="scale(0.015625)"/>
       </defs>
       <use xlink:href="#DejaVuSans-30"/>
       <use xlink:href="#DejaVuSans-2e" x="63.623047"/>
       <use xlink:href="#DejaVuSans-38" x="95.410156"/>
       <use xlink:href="#DejaVuSans-37" x="159.033203"/>
       <use xlink:href="#DejaVuSans-35" x="222.65625"/>
      </g>
     </g>
    </g>
    <g id="ytick_5">
     <g id="line2d_10">
      <g>
       <use xlink:href="#m799c2dc68f" x="79.94" y="187.168692" style="stroke: #000000; stroke-width: 0.8"/>
      </g>
     </g>
     <g id="text_11">
      <!-- 0.900 -->
      <g transform="translate(32.860625 192.487599) scale(0.14 -0.14)">
       <defs>
        <path id="DejaVuSans-39" d="M 703 97 
L 703 672 
Q 941 559 1184 500 
Q 1428 441 1663 441 
Q 2288 441 2617 861 
Q 2947 1281 2994 2138 
Q 2813 1869 2534 1725 
Q 2256 1581 1919 1581 
Q 1219 1581 811 2004 
Q 403 2428 403 3163 
Q 403 3881 828 4315 
Q 1253 4750 1959 4750 
Q 2769 4750 3195 4129 
Q 3622 3509 3622 2328 
Q 3622 1225 3098 567 
Q 2575 -91 1691 -91 
Q 1453 -91 1209 -44 
Q 966 3 703 97 
z
M 1959 2075 
Q 2384 2075 2632 2365 
Q 2881 2656 2881 3163 
Q 2881 3666 2632 3958 
Q 2384 4250 1959 4250 
Q 1534 4250 1286 3958 
Q 1038 3666 1038 3163 
Q 1038 2656 1286 2365 
Q 1534 2075 1959 2075 
z
" transform="scale(0.015625)"/>
       </defs>
       <use xlink:href="#DejaVuSans-30"/>
       <use xlink:href="#DejaVuSans-2e" x="63.623047"/>
       <use xlink:href="#DejaVuSans-39" x="95.410156"/>
       <use xlink:href="#DejaVuSans-30" x="159.033203"/>
       <use xlink:href="#DejaVuSans-30" x="222.65625"/>
      </g>
     </g>
    </g>
    <g id="ytick_6">
     <g id="line2d_11">
      <g>
       <use xlink:href="#m799c2dc68f" x="79.94" y="148.106065" style="stroke: #000000; stroke-width: 0.8"/>
      </g>
     </g>
     <g id="text_12">
      <!-- 0.925 -->
      <g transform="translate(32.860625 153.424971) scale(0.14 -0.14)">
       <use xlink:href="#DejaVuSans-30"/>
       <use xlink:href="#DejaVuSans-2e" x="63.623047"/>
       <use xlink:href="#DejaVuSans-39" x="95.410156"/>
       <use xlink:href="#DejaVuSans-32" x="159.033203"/>
       <use xlink:href="#DejaVuSans-35" x="222.65625"/>
      </g>
     </g>
    </g>
    <g id="ytick_7">
     <g id="line2d_12">
      <g>
       <use xlink:href="#m799c2dc68f" x="79.94" y="109.043437" style="stroke: #000000; stroke-width: 0.8"/>
      </g>
     </g>
     <g id="text_13">
      <!-- 0.950 -->
      <g transform="translate(32.860625 114.362343) scale(0.14 -0.14)">
       <use xlink:href="#DejaVuSans-30"/>
       <use xlink:href="#DejaVuSans-2e" x="63.623047"/>
       <use xlink:href="#DejaVuSans-39" x="95.410156"/>
       <use xlink:href="#DejaVuSans-35" x="159.033203"/>
       <use xlink:href="#DejaVuSans-30" x="222.65625"/>
      </g>
     </g>
    </g>
    <g id="ytick_8">
     <g id="line2d_13">
      <g>
       <use xlink:href="#m799c2dc68f" x="79.94" y="69.980809" style="stroke: #000000; stroke-width: 0.8"/>
      </g>
     </g>
     <g id="text_14">
      <!-- 0.975 -->
      <g transform="translate(32.860625 75.299716) scale(0.14 -0.14)">
       <use xlink:href="#DejaVuSans-30"/>
       <use xlink:href="#DejaVuSans-2e" x="63.623047"/>
       <use xlink:href="#DejaVuSans-39" x="95.410156"/>
       <use xlink:href="#DejaVuSans-37" x="159.033203"/>
       <use xlink:href="#DejaVuSans-35" x="222.65625"/>
      </g>
     </g>
    </g>
    <g id="ytick_9">
     <g id="line2d_14">
      <g>
       <use xlink:href="#m799c2dc68f" x="79.94" y="30.918182" style="stroke: #000000; stroke-width: 0.8"/>
      </g>
     </g>
     <g id="text_15">
      <!-- 1.000 -->
      <g transform="translate(32.860625 36.237088) scale(0.14 -0.14)">
       <defs>
        <path id="DejaVuSans-31" d="M 794 531 
L 1825 531 
L 1825 4091 
L 703 3866 
L 703 4441 
L 1819 4666 
L 2450 4666 
L 2450 531 
L 3481 531 
L 3481 0 
L 794 0 
L 794 531 
z
" transform="scale(0.015625)"/>
       </defs>
       <use xlink:href="#DejaVuSans-31"/>
       <use xlink:href="#DejaVuSans-2e" x="63.623047"/>
       <use xlink:href="#DejaVuSans-30" x="95.410156"/>
       <use xlink:href="#DejaVuSans-30" x="159.033203"/>
       <use xlink:href="#DejaVuSans-30" x="222.65625"/>
      </g>
     </g>
    </g>
    <g id="text_16">
     <!-- Cumulative fraction -->
     <g transform="translate(25.949063 257.965938) rotate(-90) scale(0.14 -0.14)">
      <defs>
       <path id="DejaVuSans-66" d="M 2375 4863 
L 2375 4384 
L 1825 4384 
Q 1516 4384 1395 4259 
Q 1275 4134 1275 3809 
L 1275 3500 
L 2222 3500 
L 2222 3053 
L 1275 3053 
L 1275 0 
L 697 0 
L 697 3053 
L 147 3053 
L 147 3500 
L 697 3500 
L 697 3744 
Q 697 4328 969 4595 
Q 1241 4863 1831 4863 
L 2375 4863 
z
" transform="scale(0.015625)"/>
      </defs>
      <use xlink:href="#DejaVuSans-43"/>
      <use xlink:href="#DejaVuSans-75" x="69.824219"/>
      <use xlink:href="#DejaVuSans-6d" x="133.203125"/>
      <use xlink:href="#DejaVuSans-75" x="230.615234"/>
      <use xlink:href="#DejaVuSans-6c" x="293.994141"/>
      <use xlink:href="#DejaVuSans-61" x="321.777344"/>
      <use xlink:href="#DejaVuSans-74" x="383.056641"/>
      <use xlink:href="#DejaVuSans-69" x="422.265625"/>
      <use xlink:href="#DejaVuSans-76" x="450.048828"/>
      <use xlink:href="#DejaVuSans-65" x="509.228516"/>
      <use xlink:href="#DejaVuSans-20" x="570.751953"/>
      <use xlink:href="#DejaVuSans-66" x="602.539062"/>
      <use xlink:href="#DejaVuSans-72" x="637.744141"/>
      <use xlink:href="#DejaVuSans-61" x="678.857422"/>
      <use xlink:href="#DejaVuSans-63" x="740.136719"/>
      <use xlink:href="#DejaVuSans-74" x="795.117188"/>
      <use xlink:href="#DejaVuSans-69" x="834.326172"/>
      <use xlink:href="#DejaVuSans-6f" x="862.109375"/>
      <use xlink:href="#DejaVuSans-6e" x="923.291016"/>
     </g>
    </g>
   </g>
   <g id="line2d_15">
    <path d="M 104.670531 346.881818 
L 119.071357 344.717684 
L 119.139891 342.553549 
L 137.446024 340.389415 
L 140.095024 338.22528 
L 144.105989 336.061146 
L 144.105989 333.897011 
L 145.621245 331.732877 
L 148.093501 329.568742 
L 148.093501 327.404608 
L 150.125492 325.240473 
L 150.840453 323.076339 
L 151.82521 320.912204 
L 155.015818 318.74807 
L 155.58519 316.583935 
L 158.546666 314.419801 
L 158.980502 312.255666 
L 161.278873 310.091532 
L 161.88109 307.927397 
L 164.96302 305.763263 
L 165.75248 303.599128 
L 165.75248 301.434994 
L 167.38916 299.270859 
L 168.040114 297.106725 
L 169.672651 294.94259 
L 171.852849 292.778456 
L 172.646733 290.614321 
L 172.646733 288.450187 
L 173.804969 286.286052 
L 174.820597 284.121918 
L 175.027026 281.957783 
L 175.481329 279.793649 
L 176.936498 277.629514 
L 176.936498 275.46538 
L 179.636088 273.301245 
L 180.340329 271.137111 
L 180.850901 268.972976 
L 183.353552 266.808842 
L 184.053601 264.644707 
L 185.17735 262.480573 
L 185.635174 260.316438 
L 189.984519 258.152304 
L 191.270944 253.824035 
L 193.863658 249.495766 
L 198.287806 247.331631 
L 198.590661 245.167497 
L 201.401536 243.003362 
L 208.251748 240.839228 
L 208.251748 238.675093 
L 211.11864 236.510959 
L 211.38327 234.346824 
L 214.799483 232.18269 
L 216.08056 230.018555 
L 219.435772 227.854421 
L 221.186306 225.690286 
L 221.186306 223.526152 
L 221.855907 221.362017 
L 225.602084 219.197883 
L 225.866581 217.033748 
L 226.756218 214.869614 
L 226.756218 212.705479 
L 233.930248 210.541345 
L 236.923502 208.37721 
L 239.082737 206.213076 
L 239.567004 204.048941 
L 239.907376 201.884807 
L 240.659389 199.720672 
L 240.990423 197.556538 
L 241.609292 195.392403 
L 241.609292 193.228269 
L 248.107519 191.064134 
L 248.107519 188.9 
L 248.807568 186.735866 
L 248.807568 184.571731 
L 249.82545 182.407597 
L 251.820798 180.243462 
L 253.382556 178.079328 
L 255.224629 175.915193 
L 255.224629 173.751059 
L 256.730166 171.586924 
L 259.698236 169.42279 
L 260.052971 167.258655 
L 269.458835 165.094521 
L 269.903653 162.930386 
L 273.834099 160.766252 
L 274.013776 158.602117 
L 276.383584 156.437983 
L 276.821347 154.273848 
L 279.313283 152.109714 
L 280.478854 149.945579 
L 282.731266 147.781445 
L 283.184666 145.61731 
L 283.184666 141.289041 
L 284.355095 139.124907 
L 285.207313 136.960772 
L 286.539879 134.796638 
L 286.539879 128.304234 
L 287.309922 126.1401 
L 289.078949 123.975965 
L 294.368684 121.811831 
L 294.368684 119.647696 
L 295.010399 117.483562 
L 295.080394 115.319427 
L 295.631395 113.155293 
L 310.526031 110.991158 
L 314.615618 108.827024 
L 322.672859 106.662889 
L 323.726732 104.498755 
L 323.726732 102.33462 
L 324.814077 100.170486 
L 325.413977 98.006351 
L 333.512753 95.842217 
L 333.512753 93.678082 
L 336.275877 91.513948 
L 341.089016 89.349813 
L 341.089016 87.185679 
L 341.611515 85.021544 
L 342.211429 80.693275 
L 346.560781 78.529141 
L 346.560781 76.365006 
L 347.010709 74.200872 
L 349.710306 72.036737 
L 350.910105 67.708468 
L 351.579257 65.544334 
L 357.809068 63.380199 
L 357.809068 61.216065 
L 359.608808 59.05193 
L 371.394098 56.887796 
L 373.61154 54.723661 
L 376.215356 52.559527 
L 377.208446 50.395392 
L 378.970389 48.231258 
L 382.258196 46.067123 
L 396.888867 43.902989 
L 398.302935 39.57472 
L 408.242343 37.410585 
L 421.586898 35.246451 
L 504.323221 33.082316 
L 539.019091 30.918182 
L 539.019091 30.918182 
" clip-path="url(#p5aa0cd8218)" style="fill: none; stroke: #800080; stroke-width: 2.5; stroke-linecap: square"/>
   </g>
   <g id="line2d_16">
    <path d="M 119.071357 278.703506 
L 119.139891 275.788385 
L 131.962465 272.873264 
L 133.443091 269.958142 
L 133.443091 267.043021 
L 133.443091 264.127899 
L 144.105989 261.212778 
L 144.105989 258.297656 
L 144.475563 255.382535 
L 145.621245 252.467413 
L 148.093501 249.552292 
L 148.619514 246.63717 
L 150.125492 243.722049 
L 151.82521 240.806927 
L 152.331656 237.891806 
L 155.015818 234.976684 
L 158.546666 232.061563 
L 158.980502 229.146442 
L 161.278873 226.23132 
L 161.88109 223.316199 
L 163.289943 220.401077 
L 165.75248 217.485956 
L 171.852849 214.570834 
L 173.804969 211.655713 
L 175.027026 208.740591 
L 179.636088 205.82547 
L 179.636088 202.910348 
L 184.995566 199.995227 
L 185.635174 197.080105 
L 191.31595 194.164984 
L 193.863658 191.249862 
L 201.401536 188.334741 
L 206.454968 185.41962 
L 214.799483 182.504498 
L 221.186306 179.589377 
L 225.602084 176.674255 
L 225.866581 173.759134 
L 226.756218 170.844012 
L 233.930248 167.928891 
L 236.923502 165.013769 
L 239.567004 162.098648 
L 239.907376 159.183526 
L 240.659389 156.268405 
L 241.609292 153.353283 
L 241.609292 150.438162 
L 243.925301 147.52304 
L 251.820798 144.607919 
L 255.224629 141.692798 
L 269.903653 138.777676 
L 273.834099 135.862555 
L 276.383584 132.947433 
L 279.313283 130.032312 
L 280.478854 127.11719 
L 282.731266 124.202069 
L 284.355095 121.286947 
L 286.539879 118.371826 
L 286.539879 115.456704 
L 289.078949 112.541583 
L 295.010399 109.626461 
L 295.080394 106.71134 
L 295.631395 103.796218 
L 314.615618 100.881097 
L 322.672859 97.965976 
L 323.726732 95.050854 
L 323.726732 92.135733 
L 324.118173 89.220611 
L 325.413977 86.30549 
L 328.050788 83.390368 
L 333.512753 80.475247 
L 336.275877 77.560125 
L 341.089016 74.645004 
L 346.560781 71.729882 
L 346.560781 68.814761 
L 347.010709 65.899639 
L 349.710306 62.984518 
L 350.910105 60.069396 
L 357.809068 57.154275 
L 359.608808 54.239154 
L 371.394098 51.324032 
L 376.215356 48.408911 
L 408.242343 45.493789 
L 421.586898 42.578668 
L 504.323221 39.663546 
L 526.930471 36.748425 
L 539.019091 33.833303 
L 539.019091 30.918182 
" clip-path="url(#p5aa0cd8218)" style="fill: none; stroke: #228b22; stroke-width: 2.5; stroke-linecap: square"/>
   </g>
   <g id="line2d_17">
    <path d="M 101.800909 189.578726 
L 104.670531 187.570365 
L 119.071357 185.562003 
L 131.962465 183.553642 
L 133.443091 181.545281 
L 133.443091 179.536919 
L 133.443091 177.528558 
L 144.105989 175.520197 
L 144.105989 173.511835 
L 145.621245 171.503474 
L 148.093501 169.495113 
L 150.125492 167.486751 
L 152.331656 165.47839 
L 155.58519 163.470029 
L 158.546666 161.461668 
L 158.980502 159.453306 
L 161.278873 157.444945 
L 161.88109 155.436584 
L 163.289943 153.428222 
L 165.75248 151.419861 
L 169.819395 149.4115 
L 171.852849 147.403138 
L 173.804969 145.394777 
L 174.820597 143.386416 
L 179.636088 141.378054 
L 179.636088 139.369693 
L 185.635174 137.361332 
L 191.31595 135.35297 
L 193.863658 133.344609 
L 201.759561 131.336248 
L 206.454968 129.327886 
L 214.799483 127.319525 
L 221.186306 125.311164 
L 225.866581 123.302802 
L 226.756218 121.294441 
L 233.930248 119.28608 
L 236.923502 117.277719 
L 239.907376 115.269357 
L 240.659389 113.260996 
L 241.609292 111.252635 
L 241.609292 109.244273 
L 242.330114 107.235912 
L 243.925301 105.227551 
L 244.426256 103.219189 
L 251.820798 101.210828 
L 255.224629 99.202467 
L 269.903653 97.194105 
L 276.383584 95.185744 
L 280.478854 93.177383 
L 282.731266 91.169021 
L 283.184666 89.16066 
L 283.184666 87.152299 
L 284.355095 85.143937 
L 285.207313 83.135576 
L 286.539879 81.127215 
L 286.539879 79.118853 
L 289.078949 77.110492 
L 295.010399 75.102131 
L 295.080394 73.09377 
L 295.631395 71.085408 
L 314.615618 69.077047 
L 322.672859 67.068686 
L 323.726732 65.060324 
L 323.726732 63.051963 
L 328.050788 61.043602 
L 336.275877 59.03524 
L 341.089016 57.026879 
L 346.560781 55.018518 
L 346.560781 53.010156 
L 347.010709 51.001795 
L 350.910105 48.993434 
L 359.608808 46.985072 
L 371.394098 44.976711 
L 373.61154 42.96835 
L 408.242343 40.959988 
L 411.800891 38.951627 
L 421.586898 36.943266 
L 504.323221 34.934904 
L 539.019091 32.926543 
L 539.019091 30.918182 
" clip-path="url(#p5aa0cd8218)" style="fill: none; stroke: #0000cd; stroke-width: 2.5; stroke-linecap: square"/>
   </g>
   <g id="line2d_18">
    <path d="M 104.670531 285.146618 
L 113.639711 282.290118 
L 119.071357 279.433619 
L 119.139891 276.57712 
L 131.962465 273.720621 
L 144.105989 270.864121 
L 144.105989 268.007622 
L 145.621245 265.151123 
L 150.125492 262.294623 
L 158.980502 259.438124 
L 161.278873 256.581625 
L 161.88109 253.725126 
L 163.289943 250.868626 
L 165.75248 248.012127 
L 171.852849 245.155628 
L 173.804969 242.299128 
L 175.481329 239.442629 
L 176.936498 236.58613 
L 179.636088 233.729631 
L 179.636088 230.873131 
L 183.353552 228.016632 
L 184.995566 225.160133 
L 185.635174 222.303634 
L 191.31595 219.447134 
L 192.594123 216.590635 
L 193.863658 213.734136 
L 201.401536 210.877636 
L 201.759561 208.021137 
L 206.454968 205.164638 
L 214.799483 202.308139 
L 221.186306 199.451639 
L 226.756218 196.59514 
L 233.930248 193.738641 
L 236.923502 190.882141 
L 239.567004 188.025642 
L 239.907376 185.169143 
L 240.659389 182.312644 
L 240.990423 179.456144 
L 241.609292 176.599645 
L 241.609292 173.743146 
L 242.330114 170.886647 
L 243.925301 168.030147 
L 251.820798 165.173648 
L 255.224629 162.317149 
L 270.882254 159.460649 
L 273.834099 156.60415 
L 276.383584 153.747651 
L 279.313283 150.891152 
L 280.478854 148.034652 
L 282.731266 145.178153 
L 284.355095 142.321654 
L 285.207313 139.465154 
L 286.539879 136.608655 
L 286.539879 133.752156 
L 286.539879 130.895657 
L 289.078949 128.039157 
L 295.010399 125.182658 
L 295.080394 122.326159 
L 295.631395 119.469659 
L 314.615618 116.61316 
L 322.672859 113.756661 
L 323.726732 110.900162 
L 323.726732 108.043662 
L 325.413977 105.187163 
L 333.512753 102.330664 
L 333.512753 99.474165 
L 336.275877 96.617665 
L 341.089016 93.761166 
L 341.089016 90.904667 
L 341.089016 88.048167 
L 341.611515 85.191668 
L 346.560781 82.335169 
L 346.560781 79.47867 
L 347.010709 76.62217 
L 349.710306 73.765671 
L 350.910105 70.909172 
L 351.579257 68.052672 
L 357.809068 65.196173 
L 357.809068 62.339674 
L 371.394098 59.483175 
L 373.61154 56.626675 
L 376.215356 53.770176 
L 382.258196 50.913677 
L 397.566671 48.057177 
L 408.242343 45.200678 
L 421.586898 42.344179 
L 504.323221 39.48768 
L 526.930471 36.63118 
L 539.019091 33.774681 
L 539.019091 30.918182 
" clip-path="url(#p5aa0cd8218)" style="fill: none; stroke: #8b4513; stroke-width: 2.5; stroke-linecap: square"/>
   </g>
   <g id="line2d_19">
    <path d="M 101.800909 232.484283 
L 104.670531 231.012998 
L 126.832093 229.541712 
L 130.82157 228.070427 
L 131.118097 226.599141 
L 131.962465 225.127856 
L 134.323968 223.656571 
L 136.090517 222.185285 
L 140.095024 220.714 
L 140.269903 219.242714 
L 144.105989 217.771429 
L 144.105989 216.300144 
L 148.093501 213.357573 
L 148.619514 211.886287 
L 150.125492 210.415002 
L 152.331656 208.943716 
L 158.546666 207.472431 
L 158.980502 206.001146 
L 161.88109 204.52986 
L 163.289943 203.058575 
L 165.75248 201.587289 
L 171.852849 200.116004 
L 172.646733 198.644719 
L 173.804969 197.173433 
L 174.820597 195.702148 
L 175.027026 194.230862 
L 175.481329 192.759577 
L 176.936498 191.288292 
L 179.636088 189.817006 
L 179.636088 188.345721 
L 180.340329 186.874435 
L 184.995566 185.40315 
L 185.635174 183.931865 
L 186.722512 182.460579 
L 189.984519 180.989294 
L 189.984519 179.518008 
L 193.863658 175.104152 
L 197.845746 173.632867 
L 198.590661 172.161581 
L 201.401536 170.690296 
L 201.759561 169.21901 
L 204.337338 167.747725 
L 206.454968 166.27644 
L 207.047315 164.805154 
L 211.11864 163.333869 
L 211.38327 161.862583 
L 211.38327 158.920013 
L 214.799483 157.448727 
L 216.08056 155.977442 
L 219.435772 154.506156 
L 220.429898 153.034871 
L 221.186306 151.563585 
L 221.186306 150.0923 
L 225.113812 148.621015 
L 225.602084 147.149729 
L 225.866581 145.678444 
L 226.756218 144.207158 
L 226.756218 142.735873 
L 230.172424 141.264588 
L 230.172424 139.793302 
L 230.759584 138.322017 
L 236.923502 135.379446 
L 239.907376 133.908161 
L 240.659389 132.436875 
L 241.609292 130.96559 
L 241.609292 129.494304 
L 243.925301 128.023019 
L 246.983763 126.551733 
L 246.983763 125.080448 
L 248.107519 123.609163 
L 248.107519 122.137877 
L 251.820798 120.666592 
L 266.408647 119.195306 
L 266.408647 117.724021 
L 269.458835 116.252736 
L 269.903653 114.78145 
L 270.882254 113.310165 
L 273.834099 111.838879 
L 274.013776 110.367594 
L 276.383584 108.896309 
L 276.821347 107.425023 
L 279.313283 105.953738 
L 280.478854 104.482452 
L 281.957149 103.011167 
L 282.731266 101.539882 
L 283.184666 100.068596 
L 284.355095 98.597311 
L 285.207313 97.126025 
L 286.539879 95.65474 
L 286.539879 91.240884 
L 287.309922 89.769598 
L 289.078949 88.298313 
L 294.368684 86.827027 
L 294.368684 85.355742 
L 295.010399 83.884457 
L 295.080394 82.413171 
L 295.631395 80.941886 
L 310.526031 79.4706 
L 314.615618 77.999315 
L 318.360212 76.52803 
L 322.672859 75.056744 
L 323.726732 73.585459 
L 323.726732 72.114173 
L 325.413977 70.642888 
L 328.050788 69.171602 
L 333.512753 67.700317 
L 333.512753 66.229032 
L 336.275877 64.757746 
L 341.089016 63.286461 
L 341.611515 61.815175 
L 346.560781 60.34389 
L 346.560781 58.872605 
L 347.010709 57.401319 
L 349.710306 55.930034 
L 350.910105 54.458748 
L 351.579257 52.987463 
L 357.809068 51.516178 
L 357.809068 50.044892 
L 359.608808 48.573607 
L 371.394098 47.102321 
L 373.61154 45.631036 
L 377.208446 44.159751 
L 397.566671 42.688465 
L 398.302935 41.21718 
L 411.800891 39.745894 
L 421.586898 38.274609 
L 504.323221 36.803323 
L 526.930471 35.332038 
L 539.019091 33.860753 
L 539.019091 30.918182 
L 539.019091 30.918182 
" clip-path="url(#p5aa0cd8218)" style="fill: none; stroke: #800000; stroke-width: 2.5; stroke-linecap: square"/>
   </g>
   <g id="line2d_20">
    <path d="M 101.800909 88.811797 
L 101.843801 87.878029 
L 102.957805 87.566773 
L 103.466098 87.255517 
L 103.541375 86.944261 
L 104.748741 86.633005 
L 105.556143 86.010493 
L 106.348838 85.387981 
L 108.234668 85.076725 
L 108.234668 84.765469 
L 108.972077 84.454213 
L 109.572292 83.831701 
L 112.069189 83.520445 
L 113.10156 83.209189 
L 113.560392 82.897933 
L 113.639711 82.586677 
L 113.965609 82.275421 
L 115.130078 81.964165 
L 119.071357 81.341653 
L 119.139891 81.030397 
L 124.039112 80.719141 
L 124.74441 80.407885 
L 130.82157 80.096629 
L 131.962465 79.785373 
L 134.323968 79.474117 
L 137.446024 78.851605 
L 140.269903 78.540349 
L 141.912859 78.229093 
L 142.14177 77.917837 
L 144.105989 77.606581 
L 144.475563 77.295325 
L 148.093501 76.984069 
L 149.429857 76.672813 
L 150.125492 76.361557 
L 155.015818 75.739045 
L 158.432028 75.427789 
L 158.546666 75.116533 
L 158.980502 74.805277 
L 159.917337 74.494021 
L 162.257474 73.871509 
L 163.289943 73.560253 
L 164.96302 73.248997 
L 165.75248 72.937741 
L 171.852849 72.003973 
L 173.804969 71.692717 
L 174.820597 71.381461 
L 174.820597 71.070205 
L 179.636088 70.447693 
L 179.636088 70.136437 
L 180.850901 69.513925 
L 182.705097 69.202669 
L 183.353552 68.891413 
L 184.995566 68.580157 
L 185.17735 68.268901 
L 189.984519 67.335133 
L 191.31595 66.712621 
L 193.863658 66.401365 
L 194.79168 66.090109 
L 197.845746 65.778854 
L 198.590661 65.156342 
L 199.729242 64.845086 
L 201.401536 64.53383 
L 201.988696 64.222574 
L 206.454968 63.911318 
L 208.251748 63.600062 
L 211.38327 63.288806 
L 211.38327 62.97755 
L 214.378645 62.666294 
L 214.799483 62.355038 
L 221.855907 62.043782 
L 225.602084 61.732526 
L 226.756218 61.42127 
L 233.930248 61.110014 
L 239.082737 60.487502 
L 241.609292 59.553734 
L 241.609292 59.242478 
L 242.330114 58.931222 
L 243.925301 58.619966 
L 248.107519 58.30871 
L 248.807568 57.997454 
L 248.807568 57.686198 
L 251.820798 57.374942 
L 255.224629 56.75243 
L 255.224629 56.441174 
L 256.730166 56.129918 
L 258.908776 55.818662 
L 260.052971 55.507406 
L 269.458835 55.19615 
L 269.903653 54.884894 
L 270.882254 54.573638 
L 270.882254 53.63987 
L 273.834099 53.328614 
L 275.487438 53.017358 
L 276.383584 52.706102 
L 276.821347 52.394846 
L 279.313283 52.08359 
L 280.27682 51.772334 
L 280.478854 51.461078 
L 283.184666 50.838566 
L 283.184666 49.904798 
L 286.539879 49.593542 
L 286.539879 48.97103 
L 287.309922 48.659774 
L 289.078949 48.348518 
L 294.368684 48.037262 
L 294.368684 47.726006 
L 295.010399 47.41475 
L 295.080394 47.103494 
L 295.631395 46.792238 
L 301.666731 46.480982 
L 317.031049 45.85847 
L 318.360212 45.547214 
L 322.672859 45.235958 
L 323.726732 44.924702 
L 323.726732 44.613446 
L 324.118173 44.30219 
L 327.784359 43.368422 
L 328.050788 43.057166 
L 333.512753 42.74591 
L 336.275877 42.434654 
L 337.240773 42.123398 
L 341.089016 41.812142 
L 341.089016 39.63335 
L 341.900763 39.322094 
L 341.900763 39.010838 
L 342.211429 38.699582 
L 346.560781 38.388326 
L 346.560781 38.07707 
L 347.010709 37.765814 
L 349.710306 37.454558 
L 351.579257 36.52079 
L 357.809068 36.209534 
L 357.809068 35.898278 
L 374.00662 35.587022 
L 376.215356 35.275766 
L 377.208446 34.96451 
L 378.970389 34.653254 
L 382.258196 34.341998 
L 396.888867 34.030742 
L 398.302935 33.40823 
L 408.242343 33.096974 
L 411.800891 32.785718 
L 421.586898 32.474462 
L 480.302994 32.163206 
L 504.323221 31.85195 
L 539.019091 31.540694 
L 539.019091 30.918182 
L 539.019091 30.918182 
" clip-path="url(#p5aa0cd8218)" style="fill: none; stroke: #696969; stroke-width: 2.5; stroke-linecap: square"/>
   </g>
   <g id="patch_3">
    <path d="M 79.94 362.68 
L 79.94 15.12 
" style="fill: none; stroke: #000000; stroke-width: 0.8; stroke-linejoin: miter; stroke-linecap: square"/>
   </g>
   <g id="patch_4">
    <path d="M 560.88 362.68 
L 560.88 15.12 
" style="fill: none; stroke: #000000; stroke-width: 0.8; stroke-linejoin: miter; stroke-linecap: square"/>
   </g>
   <g id="patch_5">
    <path d="M 79.94 362.68 
L 560.88 362.68 
" style="fill: none; stroke: #000000; stroke-width: 0.8; stroke-linejoin: miter; stroke-linecap: square"/>
   </g>
   <g id="patch_6">
    <path d="M 79.94 15.12 
L 560.88 15.12 
" style="fill: none; stroke: #000000; stroke-width: 0.8; stroke-linejoin: miter; stroke-linecap: square"/>
   </g>
   <g id="legend_1">
    <g id="patch_7">
     <path d="M 410.76 356.68 
L 552.48 356.68 
Q 554.88 356.68 554.88 354.28 
L 554.88 249.7975 
Q 554.88 247.3975 552.48 247.3975 
L 410.76 247.3975 
Q 408.36 247.3975 408.36 249.7975 
L 408.36 354.28 
Q 408.36 356.68 410.76 356.68 
z
" style="fill: #ffffff; opacity: 0.8; stroke: #cccccc; stroke-linejoin: miter"/>
    </g>
    <g id="line2d_21">
     <path d="M 413.16 257.115625 
L 425.16 257.115625 
L 437.16 257.115625 
" style="fill: none; stroke: #800080; stroke-width: 2.5; stroke-linecap: square"/>
    </g>
    <g id="text_17">
     <!-- RC aggregated -->
     <g transform="translate(446.76 261.315625) scale(0.12 -0.12)">
      <defs>
       <path id="DejaVuSans-67" d="M 2906 1791 
Q 2906 2416 2648 2759 
Q 2391 3103 1925 3103 
Q 1463 3103 1205 2759 
Q 947 2416 947 1791 
Q 947 1169 1205 825 
Q 1463 481 1925 481 
Q 2391 481 2648 825 
Q 2906 1169 2906 1791 
z
M 3481 434 
Q 3481 -459 3084 -895 
Q 2688 -1331 1869 -1331 
Q 1566 -1331 1297 -1286 
Q 1028 -1241 775 -1147 
L 775 -588 
Q 1028 -725 1275 -790 
Q 1522 -856 1778 -856 
Q 2344 -856 2625 -561 
Q 2906 -266 2906 331 
L 2906 616 
Q 2728 306 2450 153 
Q 2172 0 1784 0 
Q 1141 0 747 490 
Q 353 981 353 1791 
Q 353 2603 747 3093 
Q 1141 3584 1784 3584 
Q 2172 3584 2450 3431 
Q 2728 3278 2906 2969 
L 2906 3500 
L 3481 3500 
L 3481 434 
z
" transform="scale(0.015625)"/>
      </defs>
      <use xlink:href="#DejaVuSans-52"/>
      <use xlink:href="#DejaVuSans-43" x="64.482422"/>
      <use xlink:href="#DejaVuSans-20" x="134.306641"/>
      <use xlink:href="#DejaVuSans-61" x="166.09375"/>
      <use xlink:href="#DejaVuSans-67" x="227.373047"/>
      <use xlink:href="#DejaVuSans-67" x="290.849609"/>
      <use xlink:href="#DejaVuSans-72" x="354.326172"/>
      <use xlink:href="#DejaVuSans-65" x="393.189453"/>
      <use xlink:href="#DejaVuSans-67" x="454.712891"/>
      <use xlink:href="#DejaVuSans-61" x="518.189453"/>
      <use xlink:href="#DejaVuSans-74" x="579.46875"/>
      <use xlink:href="#DejaVuSans-65" x="618.677734"/>
      <use xlink:href="#DejaVuSans-64" x="680.201172"/>
     </g>
    </g>
    <g id="line2d_22">
     <path d="M 413.16 274.729375 
L 425.16 274.729375 
L 437.16 274.729375 
" style="fill: none; stroke: #228b22; stroke-width: 2.5; stroke-linecap: square"/>
    </g>
    <g id="text_18">
     <!-- RC connected -->
     <g transform="translate(446.76 278.929375) scale(0.12 -0.12)">
      <use xlink:href="#DejaVuSans-52"/>
      <use xlink:href="#DejaVuSans-43" x="64.482422"/>
      <use xlink:href="#DejaVuSans-20" x="134.306641"/>
      <use xlink:href="#DejaVuSans-63" x="166.09375"/>
      <use xlink:href="#DejaVuSans-6f" x="221.074219"/>
      <use xlink:href="#DejaVuSans-6e" x="282.255859"/>
      <use xlink:href="#DejaVuSans-6e" x="345.634766"/>
      <use xlink:href="#DejaVuSans-65" x="409.013672"/>
      <use xlink:href="#DejaVuSans-63" x="470.537109"/>
      <use xlink:href="#DejaVuSans-74" x="525.517578"/>
      <use xlink:href="#DejaVuSans-65" x="564.726562"/>
      <use xlink:href="#DejaVuSans-64" x="626.25"/>
     </g>
    </g>
    <g id="line2d_23">
     <path d="M 413.16 292.343125 
L 425.16 292.343125 
L 437.16 292.343125 
" style="fill: none; stroke: #0000cd; stroke-width: 2.5; stroke-linecap: square"/>
    </g>
    <g id="text_19">
     <!-- Bag of molecules -->
     <g transform="translate(446.76 296.543125) scale(0.12 -0.12)">
      <defs>
       <path id="DejaVuSans-42" d="M 1259 2228 
L 1259 519 
L 2272 519 
Q 2781 519 3026 730 
Q 3272 941 3272 1375 
Q 3272 1813 3026 2020 
Q 2781 2228 2272 2228 
L 1259 2228 
z
M 1259 4147 
L 1259 2741 
L 2194 2741 
Q 2656 2741 2882 2914 
Q 3109 3088 3109 3444 
Q 3109 3797 2882 3972 
Q 2656 4147 2194 4147 
L 1259 4147 
z
M 628 4666 
L 2241 4666 
Q 2963 4666 3353 4366 
Q 3744 4066 3744 3513 
Q 3744 3084 3544 2831 
Q 3344 2578 2956 2516 
Q 3422 2416 3680 2098 
Q 3938 1781 3938 1306 
Q 3938 681 3513 340 
Q 3088 0 2303 0 
L 628 0 
L 628 4666 
z
" transform="scale(0.015625)"/>
      </defs>
      <use xlink:href="#DejaVuSans-42"/>
      <use xlink:href="#DejaVuSans-61" x="68.603516"/>
      <use xlink:href="#DejaVuSans-67" x="129.882812"/>
      <use xlink:href="#DejaVuSans-20" x="193.359375"/>
      <use xlink:href="#DejaVuSans-6f" x="225.146484"/>
      <use xlink:href="#DejaVuSans-66" x="286.328125"/>
      <use xlink:href="#DejaVuSans-20" x="321.533203"/>
      <use xlink:href="#DejaVuSans-6d" x="353.320312"/>
      <use xlink:href="#DejaVuSans-6f" x="450.732422"/>
      <use xlink:href="#DejaVuSans-6c" x="511.914062"/>
      <use xlink:href="#DejaVuSans-65" x="539.697266"/>
      <use xlink:href="#DejaVuSans-63" x="601.220703"/>
      <use xlink:href="#DejaVuSans-75" x="656.201172"/>
      <use xlink:href="#DejaVuSans-6c" x="719.580078"/>
      <use xlink:href="#DejaVuSans-65" x="747.363281"/>
      <use xlink:href="#DejaVuSans-73" x="808.886719"/>
     </g>
    </g>
    <g id="line2d_24">
     <path d="M 413.16 309.956875 
L 425.16 309.956875 
L 437.16 309.956875 
" style="fill: none; stroke: #8b4513; stroke-width: 2.5; stroke-linecap: square"/>
    </g>
    <g id="text_20">
     <!-- CGR -->
     <g transform="translate(446.76 314.156875) scale(0.12 -0.12)">
      <defs>
       <path id="DejaVuSans-47" d="M 3809 666 
L 3809 1919 
L 2778 1919 
L 2778 2438 
L 4434 2438 
L 4434 434 
Q 4069 175 3628 42 
Q 3188 -91 2688 -91 
Q 1594 -91 976 548 
Q 359 1188 359 2328 
Q 359 3472 976 4111 
Q 1594 4750 2688 4750 
Q 3144 4750 3555 4637 
Q 3966 4525 4313 4306 
L 4313 3634 
Q 3963 3931 3569 4081 
Q 3175 4231 2741 4231 
Q 1884 4231 1454 3753 
Q 1025 3275 1025 2328 
Q 1025 1384 1454 906 
Q 1884 428 2741 428 
Q 3075 428 3337 486 
Q 3600 544 3809 666 
z
" transform="scale(0.015625)"/>
      </defs>
      <use xlink:href="#DejaVuSans-43"/>
      <use xlink:href="#DejaVuSans-47" x="69.824219"/>
      <use xlink:href="#DejaVuSans-52" x="147.314453"/>
     </g>
    </g>
    <g id="line2d_25">
     <path d="M 413.16 327.570625 
L 425.16 327.570625 
L 437.16 327.570625 
" style="fill: none; stroke: #800000; stroke-width: 2.5; stroke-linecap: square"/>
    </g>
    <g id="text_21">
     <!-- CLIPZyme -->
     <g transform="translate(446.76 331.770625) scale(0.12 -0.12)">
      <defs>
       <path id="DejaVuSans-4c" d="M 628 4666 
L 1259 4666 
L 1259 531 
L 3531 531 
L 3531 0 
L 628 0 
L 628 4666 
z
" transform="scale(0.015625)"/>
       <path id="DejaVuSans-49" d="M 628 4666 
L 1259 4666 
L 1259 0 
L 628 0 
L 628 4666 
z
" transform="scale(0.015625)"/>
       <path id="DejaVuSans-50" d="M 1259 4147 
L 1259 2394 
L 2053 2394 
Q 2494 2394 2734 2622 
Q 2975 2850 2975 3272 
Q 2975 3691 2734 3919 
Q 2494 4147 2053 4147 
L 1259 4147 
z
M 628 4666 
L 2053 4666 
Q 2838 4666 3239 4311 
Q 3641 3956 3641 3272 
Q 3641 2581 3239 2228 
Q 2838 1875 2053 1875 
L 1259 1875 
L 1259 0 
L 628 0 
L 628 4666 
z
" transform="scale(0.015625)"/>
       <path id="DejaVuSans-5a" d="M 359 4666 
L 4025 4666 
L 4025 4184 
L 1075 531 
L 4097 531 
L 4097 0 
L 288 0 
L 288 481 
L 3238 4134 
L 359 4134 
L 359 4666 
z
" transform="scale(0.015625)"/>
      </defs>
      <use xlink:href="#DejaVuSans-43"/>
      <use xlink:href="#DejaVuSans-4c" x="69.824219"/>
      <use xlink:href="#DejaVuSans-49" x="125.537109"/>
      <use xlink:href="#DejaVuSans-50" x="155.029297"/>
      <use xlink:href="#DejaVuSans-5a" x="215.332031"/>
      <use xlink:href="#DejaVuSans-79" x="283.837891"/>
      <use xlink:href="#DejaVuSans-6d" x="343.017578"/>
      <use xlink:href="#DejaVuSans-65" x="440.429688"/>
     </g>
    </g>
    <g id="line2d_26">
     <path d="M 413.16 345.184375 
L 425.16 345.184375 
L 437.16 345.184375 
" style="fill: none; stroke: #696969; stroke-width: 2.5; stroke-linecap: square"/>
    </g>
    <g id="text_22">
     <!-- DRFP -->
     <g transform="translate(446.76 349.384375) scale(0.12 -0.12)">
      <defs>
       <path id="DejaVuSans-44" d="M 1259 4147 
L 1259 519 
L 2022 519 
Q 2988 519 3436 956 
Q 3884 1394 3884 2338 
Q 3884 3275 3436 3711 
Q 2988 4147 2022 4147 
L 1259 4147 
z
M 628 4666 
L 1925 4666 
Q 3281 4666 3915 4102 
Q 4550 3538 4550 2338 
Q 4550 1131 3912 565 
Q 3275 0 1925 0 
L 628 0 
L 628 4666 
z
" transform="scale(0.015625)"/>
       <path id="DejaVuSans-46" d="M 628 4666 
L 3309 4666 
L 3309 4134 
L 1259 4134 
L 1259 2759 
L 3109 2759 
L 3109 2228 
L 1259 2228 
L 1259 0 
L 628 0 
L 628 4666 
z
" transform="scale(0.015625)"/>
      </defs>
      <use xlink:href="#DejaVuSans-44"/>
      <use xlink:href="#DejaVuSans-52" x="77.001953"/>
      <use xlink:href="#DejaVuSans-46" x="146.484375"/>
      <use xlink:href="#DejaVuSans-50" x="204.003906"/>
     </g>
    </g>
   </g>
  </g>
 </g>
 <defs>
  <clipPath id="p5aa0cd8218">
   <rect x="79.94" y="15.12" width="480.94" height="347.56"/>
  </clipPath>
 </defs>
</svg>
