<?xml version="1.0" encoding="utf-8" standalone="no"?>
<!DOCTYPE svg PUBLIC "-//W3C//DTD SVG 1.1//EN"
  "http://www.w3.org/Graphics/SVG/1.1/DTD/svg11.dtd">
<svg xmlns:xlink="http://www.w3.org/1999/xlink" width="576pt" height="432pt" viewBox="0 0 576 432" xmlns="http://www.w3.org/2000/svg" version="1.1">
 <metadata>
  <rdf:RDF xmlns:dc="http://purl.org/dc/elements/1.1/" xmlns:cc="http://creativecommons.org/ns#" xmlns:rdf="http://www.w3.org/1999/02/22-rdf-syntax-ns#">
   <cc:Work>
    <dc:type rdf:resource="http://purl.org/dc/dcmitype/StillImage"/>
    <dc:date>2025-12-18T08:53:36.816274</dc:date>
    <dc:format>image/svg+xml</dc:format>
    <dc:creator>
     <cc:Agent>
      <dc:title>Matplotlib v3.8.4, https://matplotlib.org/</dc:title>
     </cc:Agent>
    </dc:creator>
   </cc:Work>
  </rdf:RDF>
 </metadata>
 <defs>
  <style type="text/css">*{stroke-linejoin: round; stroke-linecap: butt}</style>
 </defs>
 <g id="figure_1">
  <g id="patch_1">
   <path d="M 0 432 
L 576 432 
L 576 0 
L 0 0 
z
" style="fill: #ffffff"/>
  </g>
  <g id="axes_1">
   <g id="patch_2">
    <path d="M 62.03 362.68 
L 560.88 362.68 
L 560.88 15.12 
L 62.03 15.12 
z
" style="fill: #ffffff"/>
   </g>
   <g id="matplotlib.axis_1">
    <g id="xtick_1">
     <g id="line2d_1">
      <defs>
       <path id="mc832da53f5" d="M 0 0 
L 0 3.5 
" style="stroke: #000000; stroke-width: 0.8"/>
      </defs>
      <g>
       <use xlink:href="#mc832da53f5" x="84.705" y="362.68" style="stroke: #000000; stroke-width: 0.8"/>
      </g>
     </g>
     <g id="text_1">
      <!-- 0.0 -->
      <g transform="translate(73.572813 380.317813) scale(0.14 -0.14)">
       <defs>
        <path id="DejaVuSans-30" d="M 2034 4250 
Q 1547 4250 1301 3770 
Q 1056 3291 1056 2328 
Q 1056 1369 1301 889 
Q 1547 409 2034 409 
Q 2525 409 2770 889 
Q 3016 1369 3016 2328 
Q 3016 3291 2770 3770 
Q 2525 4250 2034 4250 
z
M 2034 4750 
Q 2819 4750 3233 4129 
Q 3647 3509 3647 2328 
Q 3647 1150 3233 529 
Q 2819 -91 2034 -91 
Q 1250 -91 836 529 
Q 422 1150 422 2328 
Q 422 3509 836 4129 
Q 1250 4750 2034 4750 
z
" transform="scale(0.015625)"/>
        <path id="DejaVuSans-2e" d="M 684 794 
L 1344 794 
L 1344 0 
L 684 0 
L 684 794 
z
" transform="scale(0.015625)"/>
       </defs>
       <use xlink:href="#DejaVuSans-30"/>
       <use xlink:href="#DejaVuSans-2e" x="63.623047"/>
       <use xlink:href="#DejaVuSans-30" x="95.410156"/>
      </g>
     </g>
    </g>
    <g id="xtick_2">
     <g id="line2d_2">
      <g>
       <use xlink:href="#mc832da53f5" x="181.451667" y="362.68" style="stroke: #000000; stroke-width: 0.8"/>
      </g>
     </g>
     <g id="text_2">
      <!-- 0.2 -->
      <g transform="translate(170.319479 380.317813) scale(0.14 -0.14)">
       <defs>
        <path id="DejaVuSans-32" d="M 1228 531 
L 3431 531 
L 3431 0 
L 469 0 
L 469 531 
Q 828 903 1448 1529 
Q 2069 2156 2228 2338 
Q 2531 2678 2651 2914 
Q 2772 3150 2772 3378 
Q 2772 3750 2511 3984 
Q 2250 4219 1831 4219 
Q 1534 4219 1204 4116 
Q 875 4013 500 3803 
L 500 4441 
Q 881 4594 1212 4672 
Q 1544 4750 1819 4750 
Q 2544 4750 2975 4387 
Q 3406 4025 3406 3419 
Q 3406 3131 3298 2873 
Q 3191 2616 2906 2266 
Q 2828 2175 2409 1742 
Q 1991 1309 1228 531 
z
" transform="scale(0.015625)"/>
       </defs>
       <use xlink:href="#DejaVuSans-30"/>
       <use xlink:href="#DejaVuSans-2e" x="63.623047"/>
       <use xlink:href="#DejaVuSans-32" x="95.410156"/>
      </g>
     </g>
    </g>
    <g id="xtick_3">
     <g id="line2d_3">
      <g>
       <use xlink:href="#mc832da53f5" x="278.198333" y="362.68" style="stroke: #000000; stroke-width: 0.8"/>
      </g>
     </g>
     <g id="text_3">
      <!-- 0.4 -->
      <g transform="translate(267.066146 380.317813) scale(0.14 -0.14)">
       <defs>
        <path id="DejaVuSans-34" d="M 2419 4116 
L 825 1625 
L 2419 1625 
L 2419 4116 
z
M 2253 4666 
L 3047 4666 
L 3047 1625 
L 3713 1625 
L 3713 1100 
L 3047 1100 
L 3047 0 
L 2419 0 
L 2419 1100 
L 313 1100 
L 313 1709 
L 2253 4666 
z
" transform="scale(0.015625)"/>
       </defs>
       <use xlink:href="#DejaVuSans-30"/>
       <use xlink:href="#DejaVuSans-2e" x="63.623047"/>
       <use xlink:href="#DejaVuSans-34" x="95.410156"/>
      </g>
     </g>
    </g>
    <g id="xtick_4">
     <g id="line2d_4">
      <g>
       <use xlink:href="#mc832da53f5" x="374.945" y="362.68" style="stroke: #000000; stroke-width: 0.8"/>
      </g>
     </g>
     <g id="text_4">
      <!-- 0.6 -->
      <g transform="translate(363.812813 380.317813) scale(0.14 -0.14)">
       <defs>
        <path id="DejaVuSans-36" d="M 2113 2584 
Q 1688 2584 1439 2293 
Q 1191 2003 1191 1497 
Q 1191 994 1439 701 
Q 1688 409 2113 409 
Q 2538 409 2786 701 
Q 3034 994 3034 1497 
Q 3034 2003 2786 2293 
Q 2538 2584 2113 2584 
z
M 3366 4563 
L 3366 3988 
Q 3128 4100 2886 4159 
Q 2644 4219 2406 4219 
Q 1781 4219 1451 3797 
Q 1122 3375 1075 2522 
Q 1259 2794 1537 2939 
Q 1816 3084 2150 3084 
Q 2853 3084 3261 2657 
Q 3669 2231 3669 1497 
Q 3669 778 3244 343 
Q 2819 -91 2113 -91 
Q 1303 -91 875 529 
Q 447 1150 447 2328 
Q 447 3434 972 4092 
Q 1497 4750 2381 4750 
Q 2619 4750 2861 4703 
Q 3103 4656 3366 4563 
z
" transform="scale(0.015625)"/>
       </defs>
       <use xlink:href="#DejaVuSans-30"/>
       <use xlink:href="#DejaVuSans-2e" x="63.623047"/>
       <use xlink:href="#DejaVuSans-36" x="95.410156"/>
      </g>
     </g>
    </g>
    <g id="xtick_5">
     <g id="line2d_5">
      <g>
       <use xlink:href="#mc832da53f5" x="471.691667" y="362.68" style="stroke: #000000; stroke-width: 0.8"/>
      </g>
     </g>
     <g id="text_5">
      <!-- 0.8 -->
      <g transform="translate(460.559479 380.317813) scale(0.14 -0.14)">
       <defs>
        <path id="DejaVuSans-38" d="M 2034 2216 
Q 1584 2216 1326 1975 
Q 1069 1734 1069 1313 
Q 1069 891 1326 650 
Q 1584 409 2034 409 
Q 2484 409 2743 651 
Q 3003 894 3003 1313 
Q 3003 1734 2745 1975 
Q 2488 2216 2034 2216 
z
M 1403 2484 
Q 997 2584 770 2862 
Q 544 3141 544 3541 
Q 544 4100 942 4425 
Q 1341 4750 2034 4750 
Q 2731 4750 3128 4425 
Q 3525 4100 3525 3541 
Q 3525 3141 3298 2862 
Q 3072 2584 2669 2484 
Q 3125 2378 3379 2068 
Q 3634 1759 3634 1313 
Q 3634 634 3220 271 
Q 2806 -91 2034 -91 
Q 1263 -91 848 271 
Q 434 634 434 1313 
Q 434 1759 690 2068 
Q 947 2378 1403 2484 
z
M 1172 3481 
Q 1172 3119 1398 2916 
Q 1625 2713 2034 2713 
Q 2441 2713 2670 2916 
Q 2900 3119 2900 3481 
Q 2900 3844 2670 4047 
Q 2441 4250 2034 4250 
Q 1625 4250 1398 4047 
Q 1172 3844 1172 3481 
z
" transform="scale(0.015625)"/>
       </defs>
       <use xlink:href="#DejaVuSans-30"/>
       <use xlink:href="#DejaVuSans-2e" x="63.623047"/>
       <use xlink:href="#DejaVuSans-38" x="95.410156"/>
      </g>
     </g>
    </g>
    <g id="text_6">
     <!-- Max RCMCS similarity between incorrect -->
     <g transform="translate(169.852656 397.867188) scale(0.14 -0.14)">
      <defs>
       <path id="DejaVuSans-4d" d="M 628 4666 
L 1569 4666 
L 2759 1491 
L 3956 4666 
L 4897 4666 
L 4897 0 
L 4281 0 
L 4281 4097 
L 3078 897 
L 2444 897 
L 1241 4097 
L 1241 0 
L 628 0 
L 628 4666 
z
" transform="scale(0.015625)"/>
       <path id="DejaVuSans-61" d="M 2194 1759 
Q 1497 1759 1228 1600 
Q 959 1441 959 1056 
Q 959 750 1161 570 
Q 1363 391 1709 391 
Q 2188 391 2477 730 
Q 2766 1069 2766 1631 
L 2766 1759 
L 2194 1759 
z
M 3341 1997 
L 3341 0 
L 2766 0 
L 2766 531 
Q 2569 213 2275 61 
Q 1981 -91 1556 -91 
Q 1019 -91 701 211 
Q 384 513 384 1019 
Q 384 1609 779 1909 
Q 1175 2209 1959 2209 
L 2766 2209 
L 2766 2266 
Q 2766 2663 2505 2880 
Q 2244 3097 1772 3097 
Q 1472 3097 1187 3025 
Q 903 2953 641 2809 
L 641 3341 
Q 956 3463 1253 3523 
Q 1550 3584 1831 3584 
Q 2591 3584 2966 3190 
Q 3341 2797 3341 1997 
z
" transform="scale(0.015625)"/>
       <path id="DejaVuSans-78" d="M 3513 3500 
L 2247 1797 
L 3578 0 
L 2900 0 
L 1881 1375 
L 863 0 
L 184 0 
L 1544 1831 
L 300 3500 
L 978 3500 
L 1906 2253 
L 2834 3500 
L 3513 3500 
z
" transform="scale(0.015625)"/>
       <path id="DejaVuSans-20" transform="scale(0.015625)"/>
       <path id="DejaVuSans-52" d="M 2841 2188 
Q 3044 2119 3236 1894 
Q 3428 1669 3622 1275 
L 4263 0 
L 3584 0 
L 2988 1197 
Q 2756 1666 2539 1819 
Q 2322 1972 1947 1972 
L 1259 1972 
L 1259 0 
L 628 0 
L 628 4666 
L 2053 4666 
Q 2853 4666 3247 4331 
Q 3641 3997 3641 3322 
Q 3641 2881 3436 2590 
Q 3231 2300 2841 2188 
z
M 1259 4147 
L 1259 2491 
L 2053 2491 
Q 2509 2491 2742 2702 
Q 2975 2913 2975 3322 
Q 2975 3731 2742 3939 
Q 2509 4147 2053 4147 
L 1259 4147 
z
" transform="scale(0.015625)"/>
       <path id="DejaVuSans-43" d="M 4122 4306 
L 4122 3641 
Q 3803 3938 3442 4084 
Q 3081 4231 2675 4231 
Q 1875 4231 1450 3742 
Q 1025 3253 1025 2328 
Q 1025 1406 1450 917 
Q 1875 428 2675 428 
Q 3081 428 3442 575 
Q 3803 722 4122 1019 
L 4122 359 
Q 3791 134 3420 21 
Q 3050 -91 2638 -91 
Q 1578 -91 968 557 
Q 359 1206 359 2328 
Q 359 3453 968 4101 
Q 1578 4750 2638 4750 
Q 3056 4750 3426 4639 
Q 3797 4528 4122 4306 
z
" transform="scale(0.015625)"/>
       <path id="DejaVuSans-53" d="M 3425 4513 
L 3425 3897 
Q 3066 4069 2747 4153 
Q 2428 4238 2131 4238 
Q 1616 4238 1336 4038 
Q 1056 3838 1056 3469 
Q 1056 3159 1242 3001 
Q 1428 2844 1947 2747 
L 2328 2669 
Q 3034 2534 3370 2195 
Q 3706 1856 3706 1288 
Q 3706 609 3251 259 
Q 2797 -91 1919 -91 
Q 1588 -91 1214 -16 
Q 841 59 441 206 
L 441 856 
Q 825 641 1194 531 
Q 1563 422 1919 422 
Q 2459 422 2753 634 
Q 3047 847 3047 1241 
Q 3047 1584 2836 1778 
Q 2625 1972 2144 2069 
L 1759 2144 
Q 1053 2284 737 2584 
Q 422 2884 422 3419 
Q 422 4038 858 4394 
Q 1294 4750 2059 4750 
Q 2388 4750 2728 4690 
Q 3069 4631 3425 4513 
z
" transform="scale(0.015625)"/>
       <path id="DejaVuSans-73" d="M 2834 3397 
L 2834 2853 
Q 2591 2978 2328 3040 
Q 2066 3103 1784 3103 
Q 1356 3103 1142 2972 
Q 928 2841 928 2578 
Q 928 2378 1081 2264 
Q 1234 2150 1697 2047 
L 1894 2003 
Q 2506 1872 2764 1633 
Q 3022 1394 3022 966 
Q 3022 478 2636 193 
Q 2250 -91 1575 -91 
Q 1294 -91 989 -36 
Q 684 19 347 128 
L 347 722 
Q 666 556 975 473 
Q 1284 391 1588 391 
Q 1994 391 2212 530 
Q 2431 669 2431 922 
Q 2431 1156 2273 1281 
Q 2116 1406 1581 1522 
L 1381 1569 
Q 847 1681 609 1914 
Q 372 2147 372 2553 
Q 372 3047 722 3315 
Q 1072 3584 1716 3584 
Q 2034 3584 2315 3537 
Q 2597 3491 2834 3397 
z
" transform="scale(0.015625)"/>
       <path id="DejaVuSans-69" d="M 603 3500 
L 1178 3500 
L 1178 0 
L 603 0 
L 603 3500 
z
M 603 4863 
L 1178 4863 
L 1178 4134 
L 603 4134 
L 603 4863 
z
" transform="scale(0.015625)"/>
       <path id="DejaVuSans-6d" d="M 3328 2828 
Q 3544 3216 3844 3400 
Q 4144 3584 4550 3584 
Q 5097 3584 5394 3201 
Q 5691 2819 5691 2113 
L 5691 0 
L 5113 0 
L 5113 2094 
Q 5113 2597 4934 2840 
Q 4756 3084 4391 3084 
Q 3944 3084 3684 2787 
Q 3425 2491 3425 1978 
L 3425 0 
L 2847 0 
L 2847 2094 
Q 2847 2600 2669 2842 
Q 2491 3084 2119 3084 
Q 1678 3084 1418 2786 
Q 1159 2488 1159 1978 
L 1159 0 
L 581 0 
L 581 3500 
L 1159 3500 
L 1159 2956 
Q 1356 3278 1631 3431 
Q 1906 3584 2284 3584 
Q 2666 3584 2933 3390 
Q 3200 3197 3328 2828 
z
" transform="scale(0.015625)"/>
       <path id="DejaVuSans-6c" d="M 603 4863 
L 1178 4863 
L 1178 0 
L 603 0 
L 603 4863 
z
" transform="scale(0.015625)"/>
       <path id="DejaVuSans-72" d="M 2631 2963 
Q 2534 3019 2420 3045 
Q 2306 3072 2169 3072 
Q 1681 3072 1420 2755 
Q 1159 2438 1159 1844 
L 1159 0 
L 581 0 
L 581 3500 
L 1159 3500 
L 1159 2956 
Q 1341 3275 1631 3429 
Q 1922 3584 2338 3584 
Q 2397 3584 2469 3576 
Q 2541 3569 2628 3553 
L 2631 2963 
z
" transform="scale(0.015625)"/>
       <path id="DejaVuSans-74" d="M 1172 4494 
L 1172 3500 
L 2356 3500 
L 2356 3053 
L 1172 3053 
L 1172 1153 
Q 1172 725 1289 603 
Q 1406 481 1766 481 
L 2356 481 
L 2356 0 
L 1766 0 
Q 1100 0 847 248 
Q 594 497 594 1153 
L 594 3053 
L 172 3053 
L 172 3500 
L 594 3500 
L 594 4494 
L 1172 4494 
z
" transform="scale(0.015625)"/>
       <path id="DejaVuSans-79" d="M 2059 -325 
Q 1816 -950 1584 -1140 
Q 1353 -1331 966 -1331 
L 506 -1331 
L 506 -850 
L 844 -850 
Q 1081 -850 1212 -737 
Q 1344 -625 1503 -206 
L 1606 56 
L 191 3500 
L 800 3500 
L 1894 763 
L 2988 3500 
L 3597 3500 
L 2059 -325 
z
" transform="scale(0.015625)"/>
       <path id="DejaVuSans-62" d="M 3116 1747 
Q 3116 2381 2855 2742 
Q 2594 3103 2138 3103 
Q 1681 3103 1420 2742 
Q 1159 2381 1159 1747 
Q 1159 1113 1420 752 
Q 1681 391 2138 391 
Q 2594 391 2855 752 
Q 3116 1113 3116 1747 
z
M 1159 2969 
Q 1341 3281 1617 3432 
Q 1894 3584 2278 3584 
Q 2916 3584 3314 3078 
Q 3713 2572 3713 1747 
Q 3713 922 3314 415 
Q 2916 -91 2278 -91 
Q 1894 -91 1617 61 
Q 1341 213 1159 525 
L 1159 0 
L 581 0 
L 581 4863 
L 1159 4863 
L 1159 2969 
z
" transform="scale(0.015625)"/>
       <path id="DejaVuSans-65" d="M 3597 1894 
L 3597 1613 
L 953 1613 
Q 991 1019 1311 708 
Q 1631 397 2203 397 
Q 2534 397 2845 478 
Q 3156 559 3463 722 
L 3463 178 
Q 3153 47 2828 -22 
Q 2503 -91 2169 -91 
Q 1331 -91 842 396 
Q 353 884 353 1716 
Q 353 2575 817 3079 
Q 1281 3584 2069 3584 
Q 2775 3584 3186 3129 
Q 3597 2675 3597 1894 
z
M 3022 2063 
Q 3016 2534 2758 2815 
Q 2500 3097 2075 3097 
Q 1594 3097 1305 2825 
Q 1016 2553 972 2059 
L 3022 2063 
z
" transform="scale(0.015625)"/>
       <path id="DejaVuSans-77" d="M 269 3500 
L 844 3500 
L 1563 769 
L 2278 3500 
L 2956 3500 
L 3675 769 
L 4391 3500 
L 4966 3500 
L 4050 0 
L 3372 0 
L 2619 2869 
L 1863 0 
L 1184 0 
L 269 3500 
z
" transform="scale(0.015625)"/>
       <path id="DejaVuSans-6e" d="M 3513 2113 
L 3513 0 
L 2938 0 
L 2938 2094 
Q 2938 2591 2744 2837 
Q 2550 3084 2163 3084 
Q 1697 3084 1428 2787 
Q 1159 2491 1159 1978 
L 1159 0 
L 581 0 
L 581 3500 
L 1159 3500 
L 1159 2956 
Q 1366 3272 1645 3428 
Q 1925 3584 2291 3584 
Q 2894 3584 3203 3211 
Q 3513 2838 3513 2113 
z
" transform="scale(0.015625)"/>
       <path id="DejaVuSans-63" d="M 3122 3366 
L 3122 2828 
Q 2878 2963 2633 3030 
Q 2388 3097 2138 3097 
Q 1578 3097 1268 2742 
Q 959 2388 959 1747 
Q 959 1106 1268 751 
Q 1578 397 2138 397 
Q 2388 397 2633 464 
Q 2878 531 3122 666 
L 3122 134 
Q 2881 22 2623 -34 
Q 2366 -91 2075 -91 
Q 1284 -91 818 406 
Q 353 903 353 1747 
Q 353 2603 823 3093 
Q 1294 3584 2113 3584 
Q 2378 3584 2631 3529 
Q 2884 3475 3122 3366 
z
" transform="scale(0.015625)"/>
       <path id="DejaVuSans-6f" d="M 1959 3097 
Q 1497 3097 1228 2736 
Q 959 2375 959 1747 
Q 959 1119 1226 758 
Q 1494 397 1959 397 
Q 2419 397 2687 759 
Q 2956 1122 2956 1747 
Q 2956 2369 2687 2733 
Q 2419 3097 1959 3097 
z
M 1959 3584 
Q 2709 3584 3137 3096 
Q 3566 2609 3566 1747 
Q 3566 888 3137 398 
Q 2709 -91 1959 -91 
Q 1206 -91 779 398 
Q 353 888 353 1747 
Q 353 2609 779 3096 
Q 1206 3584 1959 3584 
z
" transform="scale(0.015625)"/>
      </defs>
      <use xlink:href="#DejaVuSans-4d"/>
      <use xlink:href="#DejaVuSans-61" x="86.279297"/>
      <use xlink:href="#DejaVuSans-78" x="147.558594"/>
      <use xlink:href="#DejaVuSans-20" x="206.738281"/>
      <use xlink:href="#DejaVuSans-52" x="238.525391"/>
      <use xlink:href="#DejaVuSans-43" x="303.007812"/>
      <use xlink:href="#DejaVuSans-4d" x="372.832031"/>
      <use xlink:href="#DejaVuSans-43" x="459.111328"/>
      <use xlink:href="#DejaVuSans-53" x="528.935547"/>
      <use xlink:href="#DejaVuSans-20" x="592.412109"/>
      <use xlink:href="#DejaVuSans-73" x="624.199219"/>
      <use xlink:href="#DejaVuSans-69" x="676.298828"/>
      <use xlink:href="#DejaVuSans-6d" x="704.082031"/>
      <use xlink:href="#DejaVuSans-69" x="801.494141"/>
      <use xlink:href="#DejaVuSans-6c" x="829.277344"/>
      <use xlink:href="#DejaVuSans-61" x="857.060547"/>
      <use xlink:href="#DejaVuSans-72" x="918.339844"/>
      <use xlink:href="#DejaVuSans-69" x="959.453125"/>
      <use xlink:href="#DejaVuSans-74" x="987.236328"/>
      <use xlink:href="#DejaVuSans-79" x="1026.445312"/>
      <use xlink:href="#DejaVuSans-20" x="1085.625"/>
      <use xlink:href="#DejaVuSans-62" x="1117.412109"/>
      <use xlink:href="#DejaVuSans-65" x="1180.888672"/>
      <use xlink:href="#DejaVuSans-74" x="1242.412109"/>
      <use xlink:href="#DejaVuSans-77" x="1281.621094"/>
      <use xlink:href="#DejaVuSans-65" x="1363.408203"/>
      <use xlink:href="#DejaVuSans-65" x="1424.931641"/>
      <use xlink:href="#DejaVuSans-6e" x="1486.455078"/>
      <use xlink:href="#DejaVuSans-20" x="1549.833984"/>
      <use xlink:href="#DejaVuSans-69" x="1581.621094"/>
      <use xlink:href="#DejaVuSans-6e" x="1609.404297"/>
      <use xlink:href="#DejaVuSans-63" x="1672.783203"/>
      <use xlink:href="#DejaVuSans-6f" x="1727.763672"/>
      <use xlink:href="#DejaVuSans-72" x="1788.945312"/>
      <use xlink:href="#DejaVuSans-72" x="1828.308594"/>
      <use xlink:href="#DejaVuSans-65" x="1867.171875"/>
      <use xlink:href="#DejaVuSans-63" x="1928.695312"/>
      <use xlink:href="#DejaVuSans-74" x="1983.675781"/>
     </g>
     <!--  predicted reaction and true positive reactions -->
     <g transform="translate(149.115156 413.544125) scale(0.14 -0.14)">
      <defs>
       <path id="DejaVuSans-70" d="M 1159 525 
L 1159 -1331 
L 581 -1331 
L 581 3500 
L 1159 3500 
L 1159 2969 
Q 1341 3281 1617 3432 
Q 1894 3584 2278 3584 
Q 2916 3584 3314 3078 
Q 3713 2572 3713 1747 
Q 3713 922 3314 415 
Q 2916 -91 2278 -91 
Q 1894 -91 1617 61 
Q 1341 213 1159 525 
z
M 3116 1747 
Q 3116 2381 2855 2742 
Q 2594 3103 2138 3103 
Q 1681 3103 1420 2742 
Q 1159 2381 1159 1747 
Q 1159 1113 1420 752 
Q 1681 391 2138 391 
Q 2594 391 2855 752 
Q 3116 1113 3116 1747 
z
" transform="scale(0.015625)"/>
       <path id="DejaVuSans-64" d="M 2906 2969 
L 2906 4863 
L 3481 4863 
L 3481 0 
L 2906 0 
L 2906 525 
Q 2725 213 2448 61 
Q 2172 -91 1784 -91 
Q 1150 -91 751 415 
Q 353 922 353 1747 
Q 353 2572 751 3078 
Q 1150 3584 1784 3584 
Q 2172 3584 2448 3432 
Q 2725 3281 2906 2969 
z
M 947 1747 
Q 947 1113 1208 752 
Q 1469 391 1925 391 
Q 2381 391 2643 752 
Q 2906 1113 2906 1747 
Q 2906 2381 2643 2742 
Q 2381 3103 1925 3103 
Q 1469 3103 1208 2742 
Q 947 2381 947 1747 
z
" transform="scale(0.015625)"/>
       <path id="DejaVuSans-75" d="M 544 1381 
L 544 3500 
L 1119 3500 
L 1119 1403 
Q 1119 906 1312 657 
Q 1506 409 1894 409 
Q 2359 409 2629 706 
Q 2900 1003 2900 1516 
L 2900 3500 
L 3475 3500 
L 3475 0 
L 2900 0 
L 2900 538 
Q 2691 219 2414 64 
Q 2138 -91 1772 -91 
Q 1169 -91 856 284 
Q 544 659 544 1381 
z
M 1991 3584 
L 1991 3584 
z
" transform="scale(0.015625)"/>
       <path id="DejaVuSans-76" d="M 191 3500 
L 800 3500 
L 1894 563 
L 2988 3500 
L 3597 3500 
L 2284 0 
L 1503 0 
L 191 3500 
z
" transform="scale(0.015625)"/>
      </defs>
      <use xlink:href="#DejaVuSans-20"/>
      <use xlink:href="#DejaVuSans-70" x="31.787109"/>
      <use xlink:href="#DejaVuSans-72" x="95.263672"/>
      <use xlink:href="#DejaVuSans-65" x="134.126953"/>
      <use xlink:href="#DejaVuSans-64" x="195.650391"/>
      <use xlink:href="#DejaVuSans-69" x="259.126953"/>
      <use xlink:href="#DejaVuSans-63" x="286.910156"/>
      <use xlink:href="#DejaVuSans-74" x="341.890625"/>
      <use xlink:href="#DejaVuSans-65" x="381.099609"/>
      <use xlink:href="#DejaVuSans-64" x="442.623047"/>
      <use xlink:href="#DejaVuSans-20" x="506.099609"/>
      <use xlink:href="#DejaVuSans-72" x="537.886719"/>
      <use xlink:href="#DejaVuSans-65" x="576.75"/>
      <use xlink:href="#DejaVuSans-61" x="638.273438"/>
      <use xlink:href="#DejaVuSans-63" x="699.552734"/>
      <use xlink:href="#DejaVuSans-74" x="754.533203"/>
      <use xlink:href="#DejaVuSans-69" x="793.742188"/>
      <use xlink:href="#DejaVuSans-6f" x="821.525391"/>
      <use xlink:href="#DejaVuSans-6e" x="882.707031"/>
      <use xlink:href="#DejaVuSans-20" x="946.085938"/>
      <use xlink:href="#DejaVuSans-61" x="977.873047"/>
      <use xlink:href="#DejaVuSans-6e" x="1039.152344"/>
      <use xlink:href="#DejaVuSans-64" x="1102.53125"/>
      <use xlink:href="#DejaVuSans-20" x="1166.007812"/>
      <use xlink:href="#DejaVuSans-74" x="1197.794922"/>
      <use xlink:href="#DejaVuSans-72" x="1237.003906"/>
      <use xlink:href="#DejaVuSans-75" x="1278.117188"/>
      <use xlink:href="#DejaVuSans-65" x="1341.496094"/>
      <use xlink:href="#DejaVuSans-20" x="1403.019531"/>
      <use xlink:href="#DejaVuSans-70" x="1434.806641"/>
      <use xlink:href="#DejaVuSans-6f" x="1498.283203"/>
      <use xlink:href="#DejaVuSans-73" x="1559.464844"/>
      <use xlink:href="#DejaVuSans-69" x="1611.564453"/>
      <use xlink:href="#DejaVuSans-74" x="1639.347656"/>
      <use xlink:href="#DejaVuSans-69" x="1678.556641"/>
      <use xlink:href="#DejaVuSans-76" x="1706.339844"/>
      <use xlink:href="#DejaVuSans-65" x="1765.519531"/>
      <use xlink:href="#DejaVuSans-20" x="1827.042969"/>
      <use xlink:href="#DejaVuSans-72" x="1858.830078"/>
      <use xlink:href="#DejaVuSans-65" x="1897.693359"/>
      <use xlink:href="#DejaVuSans-61" x="1959.216797"/>
      <use xlink:href="#DejaVuSans-63" x="2020.496094"/>
      <use xlink:href="#DejaVuSans-74" x="2075.476562"/>
      <use xlink:href="#DejaVuSans-69" x="2114.685547"/>
      <use xlink:href="#DejaVuSans-6f" x="2142.46875"/>
      <use xlink:href="#DejaVuSans-6e" x="2203.650391"/>
      <use xlink:href="#DejaVuSans-73" x="2267.029297"/>
     </g>
    </g>
   </g>
   <g id="matplotlib.axis_2">
    <g id="ytick_1">
     <g id="line2d_6">
      <defs>
       <path id="m5c39a640e4" d="M 0 0 
L -3.5 0 
" style="stroke: #000000; stroke-width: 0.8"/>
      </defs>
      <g>
       <use xlink:href="#m5c39a640e4" x="62.03" y="346.944772" style="stroke: #000000; stroke-width: 0.8"/>
      </g>
     </g>
     <g id="text_7">
      <!-- 0.0 -->
      <g transform="translate(32.765625 352.263678) scale(0.14 -0.14)">
       <use xlink:href="#DejaVuSans-30"/>
       <use xlink:href="#DejaVuSans-2e" x="63.623047"/>
       <use xlink:href="#DejaVuSans-30" x="95.410156"/>
      </g>
     </g>
    </g>
    <g id="ytick_2">
     <g id="line2d_7">
      <g>
       <use xlink:href="#m5c39a640e4" x="62.03" y="283.739454" style="stroke: #000000; stroke-width: 0.8"/>
      </g>
     </g>
     <g id="text_8">
      <!-- 0.2 -->
      <g transform="translate(32.765625 289.05836) scale(0.14 -0.14)">
       <use xlink:href="#DejaVuSans-30"/>
       <use xlink:href="#DejaVuSans-2e" x="63.623047"/>
       <use xlink:href="#DejaVuSans-32" x="95.410156"/>
      </g>
     </g>
    </g>
    <g id="ytick_3">
     <g id="line2d_8">
      <g>
       <use xlink:href="#m5c39a640e4" x="62.03" y="220.534136" style="stroke: #000000; stroke-width: 0.8"/>
      </g>
     </g>
     <g id="text_9">
      <!-- 0.4 -->
      <g transform="translate(32.765625 225.853042) scale(0.14 -0.14)">
       <use xlink:href="#DejaVuSans-30"/>
       <use xlink:href="#DejaVuSans-2e" x="63.623047"/>
       <use xlink:href="#DejaVuSans-34" x="95.410156"/>
      </g>
     </g>
    </g>
    <g id="ytick_4">
     <g id="line2d_9">
      <g>
       <use xlink:href="#m5c39a640e4" x="62.03" y="157.328818" style="stroke: #000000; stroke-width: 0.8"/>
      </g>
     </g>
     <g id="text_10">
      <!-- 0.6 -->
      <g transform="translate(32.765625 162.647724) scale(0.14 -0.14)">
       <use xlink:href="#DejaVuSans-30"/>
       <use xlink:href="#DejaVuSans-2e" x="63.623047"/>
       <use xlink:href="#DejaVuSans-36" x="95.410156"/>
      </g>
     </g>
    </g>
    <g id="ytick_5">
     <g id="line2d_10">
      <g>
       <use xlink:href="#m5c39a640e4" x="62.03" y="94.1235" style="stroke: #000000; stroke-width: 0.8"/>
      </g>
     </g>
     <g id="text_11">
      <!-- 0.8 -->
      <g transform="translate(32.765625 99.442406) scale(0.14 -0.14)">
       <use xlink:href="#DejaVuSans-30"/>
       <use xlink:href="#DejaVuSans-2e" x="63.623047"/>
       <use xlink:href="#DejaVuSans-38" x="95.410156"/>
      </g>
     </g>
    </g>
    <g id="ytick_6">
     <g id="line2d_11">
      <g>
       <use xlink:href="#m5c39a640e4" x="62.03" y="30.918182" style="stroke: #000000; stroke-width: 0.8"/>
      </g>
     </g>
     <g id="text_12">
      <!-- 1.0 -->
      <g transform="translate(32.765625 36.237088) scale(0.14 -0.14)">
       <defs>
        <path id="DejaVuSans-31" d="M 794 531 
L 1825 531 
L 1825 4091 
L 703 3866 
L 703 4441 
L 1819 4666 
L 2450 4666 
L 2450 531 
L 3481 531 
L 3481 0 
L 794 0 
L 794 531 
z
" transform="scale(0.015625)"/>
       </defs>
       <use xlink:href="#DejaVuSans-31"/>
       <use xlink:href="#DejaVuSans-2e" x="63.623047"/>
       <use xlink:href="#DejaVuSans-30" x="95.410156"/>
      </g>
     </g>
    </g>
    <g id="text_13">
     <!-- Cumulative fraction -->
     <g transform="translate(25.854063 257.965938) rotate(-90) scale(0.14 -0.14)">
      <defs>
       <path id="DejaVuSans-66" d="M 2375 4863 
L 2375 4384 
L 1825 4384 
Q 1516 4384 1395 4259 
Q 1275 4134 1275 3809 
L 1275 3500 
L 2222 3500 
L 2222 3053 
L 1275 3053 
L 1275 0 
L 697 0 
L 697 3053 
L 147 3053 
L 147 3500 
L 697 3500 
L 697 3744 
Q 697 4328 969 4595 
Q 1241 4863 1831 4863 
L 2375 4863 
z
" transform="scale(0.015625)"/>
      </defs>
      <use xlink:href="#DejaVuSans-43"/>
      <use xlink:href="#DejaVuSans-75" x="69.824219"/>
      <use xlink:href="#DejaVuSans-6d" x="133.203125"/>
      <use xlink:href="#DejaVuSans-75" x="230.615234"/>
      <use xlink:href="#DejaVuSans-6c" x="293.994141"/>
      <use xlink:href="#DejaVuSans-61" x="321.777344"/>
      <use xlink:href="#DejaVuSans-74" x="383.056641"/>
      <use xlink:href="#DejaVuSans-69" x="422.265625"/>
      <use xlink:href="#DejaVuSans-76" x="450.048828"/>
      <use xlink:href="#DejaVuSans-65" x="509.228516"/>
      <use xlink:href="#DejaVuSans-20" x="570.751953"/>
      <use xlink:href="#DejaVuSans-66" x="602.539062"/>
      <use xlink:href="#DejaVuSans-72" x="637.744141"/>
      <use xlink:href="#DejaVuSans-61" x="678.857422"/>
      <use xlink:href="#DejaVuSans-63" x="740.136719"/>
      <use xlink:href="#DejaVuSans-74" x="795.117188"/>
      <use xlink:href="#DejaVuSans-69" x="834.326172"/>
      <use xlink:href="#DejaVuSans-6f" x="862.109375"/>
      <use xlink:href="#DejaVuSans-6e" x="923.291016"/>
     </g>
    </g>
   </g>
   <g id="line2d_12">
    <path d="M 84.705 346.507062 
L 84.705 95.261546 
L 90.906709 94.823836 
L 105.736884 94.386126 
L 105.807462 93.948416 
L 124.659375 93.510706 
L 127.387354 93.072996 
L 131.517902 92.635286 
L 131.517902 92.197576 
L 133.078334 91.759866 
L 135.624299 91.322156 
L 135.624299 90.884446 
L 137.716872 90.446736 
L 138.453149 90.009026 
L 139.467265 89.571316 
L 142.752999 89.133606 
L 143.339345 88.695896 
L 146.389115 88.258186 
L 146.835886 87.820476 
L 149.202781 87.382766 
L 149.822952 86.945056 
L 152.996768 86.507347 
L 153.809765 86.069637 
L 153.809765 85.631927 
L 155.495241 85.194217 
L 156.165603 84.756507 
L 157.846812 84.318797 
L 160.092011 83.881087 
L 160.909564 83.443377 
L 160.909564 83.005667 
L 163.14824 82.130247 
L 163.360824 81.692537 
L 163.828671 81.254827 
L 165.327225 80.817117 
L 165.327225 80.379407 
L 168.1073 79.941697 
L 169.358332 79.066277 
L 171.935598 78.628567 
L 172.656518 78.190857 
L 173.813771 77.753147 
L 174.285244 77.315437 
L 178.764261 76.877727 
L 180.089039 76.002308 
L 182.759053 75.126888 
L 187.315104 74.689178 
L 187.626988 74.251468 
L 190.521667 73.813758 
L 197.576112 73.376048 
L 197.576112 72.938338 
L 200.528477 72.500628 
L 200.800997 72.062918 
L 204.319062 71.625208 
L 205.638333 71.187498 
L 209.093578 70.749788 
L 210.896303 70.312078 
L 210.896303 69.874368 
L 211.585867 69.436658 
L 215.443733 68.998948 
L 215.716116 68.561238 
L 216.632277 68.123528 
L 216.632277 67.685818 
L 224.020194 67.248108 
L 227.102689 66.810398 
L 229.3263 66.372688 
L 231.928182 64.184139 
L 231.928182 63.746429 
L 238.620149 63.308719 
L 238.620149 62.871009 
L 239.341069 62.433299 
L 239.341069 61.995589 
L 240.389298 61.557879 
L 244.052456 60.682459 
L 245.949449 60.244749 
L 245.949449 59.807039 
L 247.499873 59.369329 
L 250.556433 58.931619 
L 250.921744 58.493909 
L 260.608036 58.056199 
L 261.066116 57.618489 
L 265.113744 57.180779 
L 265.298779 56.743069 
L 267.73924 56.305359 
L 268.190055 55.867649 
L 270.756285 55.429939 
L 271.956607 54.99223 
L 274.276174 54.55452 
L 274.743091 54.11681 
L 274.743091 53.24139 
L 275.948416 52.80368 
L 276.826041 52.36597 
L 278.198336 51.92826 
L 278.198336 50.61513 
L 278.991338 50.17742 
L 280.813107 49.73971 
L 286.260551 49.302 
L 286.260551 48.86429 
L 286.921397 48.42658 
L 286.993479 47.98887 
L 287.560908 47.55116 
L 302.899616 47.11345 
L 307.111129 46.67574 
L 315.40859 46.23803 
L 316.493884 45.80032 
L 316.493884 45.36261 
L 317.613647 44.9249 
L 318.231432 44.487191 
L 326.571667 44.049481 
L 326.571667 43.611771 
L 329.417171 43.174061 
L 334.37381 42.736351 
L 334.37381 42.298641 
L 334.911887 41.860931 
L 335.529686 40.985511 
L 340.00871 40.547801 
L 340.00871 40.110091 
L 340.472052 39.672381 
L 343.252135 39.234671 
L 345.176808 37.921541 
L 351.592355 37.483831 
L 351.592355 37.046121 
L 353.445754 36.608411 
L 365.582411 36.170701 
L 370.547411 35.295281 
L 371.570109 34.857571 
L 373.384583 34.419861 
L 376.770413 33.982152 
L 391.837286 33.544442 
L 393.293513 32.669022 
L 403.529256 32.231312 
L 417.271667 31.793602 
L 502.474702 31.355892 
L 538.205 30.918182 
L 538.205 30.918182 
" clip-path="url(#p35e217aeb2)" style="fill: none; stroke: #800080; stroke-width: 1.5; stroke-linecap: square"/>
   </g>
   <g id="line2d_13">
    <path d="M 84.705 346.35517 
L 84.705 81.623941 
L 105.736884 81.034339 
L 105.807462 80.444737 
L 119.012329 79.855135 
L 120.537099 79.265533 
L 120.537099 78.08633 
L 131.517902 77.496728 
L 131.517902 76.907126 
L 131.898494 76.317524 
L 133.078334 75.727922 
L 135.624299 75.13832 
L 136.165994 74.548718 
L 139.467265 73.369515 
L 139.98881 72.779913 
L 142.752999 72.190311 
L 146.389115 71.600709 
L 146.835886 71.011107 
L 149.202781 70.421506 
L 149.822952 69.831904 
L 151.273809 69.242302 
L 153.809765 68.6527 
L 160.092011 68.063098 
L 162.102332 67.473496 
L 163.360824 66.883894 
L 168.1073 66.294293 
L 168.1073 65.704691 
L 173.626567 65.115089 
L 174.285244 64.525487 
L 180.135388 63.935885 
L 182.759053 63.346283 
L 190.521667 62.756682 
L 195.725762 62.16708 
L 204.319062 61.577478 
L 210.896303 60.987876 
L 215.443733 60.398274 
L 215.716116 59.808672 
L 216.632277 59.21907 
L 224.020194 58.629469 
L 229.825006 57.450265 
L 230.175526 56.860663 
L 230.949959 56.271061 
L 231.928182 55.681459 
L 231.928182 55.091858 
L 234.313242 54.502256 
L 242.444136 53.912654 
L 245.949449 53.323052 
L 261.066116 52.73345 
L 265.113744 52.143848 
L 270.756285 50.964645 
L 271.956607 50.375043 
L 274.276174 49.785441 
L 275.948416 49.195839 
L 278.198336 48.606237 
L 278.198336 48.016635 
L 280.813107 47.427034 
L 286.921397 46.837432 
L 286.993479 46.24783 
L 287.560908 45.658228 
L 307.111129 45.068626 
L 315.40859 44.479024 
L 316.493884 43.889422 
L 316.493884 43.299821 
L 316.896995 42.710219 
L 318.231432 42.120617 
L 320.946858 41.531015 
L 326.571667 40.941413 
L 329.417171 40.351811 
L 340.00871 39.172608 
L 340.00871 38.583006 
L 340.472052 37.993404 
L 343.252135 37.403802 
L 344.487705 36.8142 
L 351.592355 36.224598 
L 353.445754 35.634997 
L 365.582411 35.045395 
L 370.547411 34.455793 
L 403.529256 33.866191 
L 417.271667 33.276589 
L 502.474702 32.686987 
L 525.755969 32.097386 
L 538.205 31.507784 
L 538.205 30.918182 
L 538.205 30.918182 
" clip-path="url(#p35e217aeb2)" style="fill: none; stroke: #228b22; stroke-width: 1.5; stroke-linecap: square"/>
   </g>
   <g id="line2d_14">
    <path d="M 84.705 346.538568 
L 84.705 63.414489 
L 90.906709 62.602082 
L 119.012329 61.789674 
L 120.537099 61.38347 
L 120.537099 60.571062 
L 131.517902 60.164859 
L 131.517902 59.758655 
L 133.078334 59.352451 
L 137.716872 58.540043 
L 139.98881 58.133839 
L 146.389115 57.321432 
L 146.835886 56.915228 
L 149.202781 56.509024 
L 149.822952 56.10282 
L 151.273809 55.696616 
L 153.809765 55.290412 
L 157.997931 54.884209 
L 162.102332 54.071801 
L 163.14824 53.665597 
L 168.1073 53.259393 
L 168.1073 52.853189 
L 180.135388 52.040782 
L 182.759053 51.634578 
L 190.890366 51.228374 
L 195.725762 50.82217 
L 210.896303 50.009762 
L 215.716116 49.603559 
L 216.632277 49.197355 
L 224.020194 48.791151 
L 230.175526 47.978743 
L 231.928182 47.166336 
L 231.928182 46.760132 
L 232.670496 46.353928 
L 234.313242 45.947724 
L 234.829132 45.54152 
L 242.444136 45.135316 
L 245.949449 44.729112 
L 261.066116 44.322909 
L 267.73924 43.916705 
L 271.956607 43.510501 
L 274.276174 43.104297 
L 274.743091 42.698093 
L 274.743091 42.291889 
L 278.198336 41.073278 
L 278.198336 40.667074 
L 280.813107 40.26087 
L 286.921397 39.854666 
L 286.993479 39.448463 
L 287.560908 39.042259 
L 307.111129 38.636055 
L 315.40859 38.229851 
L 316.493884 37.823647 
L 316.493884 37.417443 
L 320.946858 37.011239 
L 329.417171 36.605036 
L 340.00871 35.792628 
L 340.00871 35.386424 
L 340.472052 34.98022 
L 344.487705 34.574016 
L 353.445754 34.167813 
L 365.582411 33.761609 
L 367.865965 33.355405 
L 403.529256 32.949201 
L 407.193898 32.542997 
L 417.271667 32.136793 
L 502.474702 31.73059 
L 538.205 31.324386 
L 538.205 30.918182 
L 538.205 30.918182 
" clip-path="url(#p35e217aeb2)" style="fill: none; stroke: #0000cd; stroke-width: 1.5; stroke-linecap: square"/>
   </g>
   <g id="line2d_15">
    <path d="M 84.705 346.367027 
L 84.705 82.915244 
L 90.906709 82.337499 
L 100.143298 81.759754 
L 105.736884 81.182009 
L 105.807462 80.604264 
L 131.517902 79.448773 
L 131.517902 78.871028 
L 133.078334 78.293283 
L 137.716872 77.715538 
L 146.835886 77.137793 
L 149.202781 76.560048 
L 149.822952 75.982302 
L 151.273809 75.404557 
L 153.809765 74.826812 
L 160.092011 74.249067 
L 163.828671 73.093577 
L 165.327225 72.515832 
L 168.1073 71.938087 
L 168.1073 71.360341 
L 171.935598 70.782596 
L 173.626567 70.204851 
L 174.285244 69.627106 
L 180.135388 69.049361 
L 182.759053 67.893871 
L 190.521667 67.316125 
L 190.890366 66.73838 
L 195.725762 66.160635 
L 204.319062 65.58289 
L 224.020194 63.849655 
L 229.825006 62.694164 
L 230.175526 62.116419 
L 230.949959 61.538674 
L 231.290863 60.960929 
L 231.928182 60.383184 
L 231.928182 59.805439 
L 232.670496 59.227694 
L 234.313242 58.649948 
L 242.444136 58.072203 
L 245.949449 57.494458 
L 262.073893 56.916713 
L 270.756285 55.183478 
L 271.956607 54.605732 
L 274.276174 54.027987 
L 275.948416 53.450242 
L 276.826041 52.872497 
L 278.198336 52.294752 
L 278.198336 51.139262 
L 280.813107 50.561516 
L 286.921397 49.983771 
L 286.993479 49.406026 
L 287.560908 48.828281 
L 307.111129 48.250536 
L 315.40859 47.672791 
L 316.493884 47.095046 
L 316.493884 46.517301 
L 318.231432 45.939555 
L 326.571667 45.36181 
L 326.571667 44.784065 
L 329.417171 44.20632 
L 334.37381 43.628575 
L 334.37381 42.473085 
L 334.911887 41.895339 
L 340.00871 41.317594 
L 340.00871 40.739849 
L 340.472052 40.162104 
L 343.252135 39.584359 
L 344.487705 39.006614 
L 345.176808 38.428869 
L 351.592355 37.851123 
L 351.592355 37.273378 
L 365.582411 36.695633 
L 370.547411 35.540143 
L 376.770413 34.962398 
L 392.535298 34.384653 
L 403.529256 33.806908 
L 417.271667 33.229162 
L 502.474702 32.651417 
L 525.755969 32.073672 
L 538.205 31.495927 
L 538.205 30.918182 
L 538.205 30.918182 
" clip-path="url(#p35e217aeb2)" style="fill: none; stroke: #8b4513; stroke-width: 1.5; stroke-linecap: square"/>
   </g>
   <g id="line2d_16">
    <path d="M 84.705 346.647195 
L 84.705 71.983784 
L 90.906709 71.38863 
L 113.728999 71.091053 
L 117.83742 70.793477 
L 118.142788 70.4959 
L 119.012329 70.198323 
L 123.263456 69.603169 
L 127.387354 69.305592 
L 127.567447 69.008016 
L 131.517902 68.710439 
L 131.517902 68.412862 
L 135.624299 67.817708 
L 136.165994 67.520131 
L 137.716872 67.222555 
L 139.98881 66.924978 
L 146.389115 66.627401 
L 146.835886 66.329824 
L 149.822952 66.032247 
L 151.273809 65.734671 
L 153.809765 65.437094 
L 160.092011 65.139517 
L 160.909564 64.84194 
L 163.14824 64.246786 
L 163.360824 63.94921 
L 163.828671 63.651633 
L 165.327225 63.354056 
L 168.1073 63.056479 
L 168.1073 62.758902 
L 168.832538 62.461325 
L 173.626567 62.163749 
L 174.285244 61.866172 
L 175.405 61.568595 
L 178.764261 61.271018 
L 178.764261 60.973441 
L 182.759053 60.080711 
L 186.859864 59.783134 
L 187.626988 59.485557 
L 190.521667 59.18798 
L 190.890366 58.890404 
L 195.725762 58.29525 
L 196.33577 57.997673 
L 200.528477 57.700096 
L 200.800997 57.402519 
L 200.800997 56.807366 
L 204.319062 56.509789 
L 205.638333 56.212212 
L 209.093578 55.914635 
L 210.896303 55.319482 
L 210.896303 55.021905 
L 214.940904 54.724328 
L 215.443733 54.426751 
L 215.716116 54.129174 
L 216.632277 53.831597 
L 216.632277 53.534021 
L 220.150334 53.236444 
L 220.150334 52.938867 
L 220.755 52.64129 
L 230.175526 51.74856 
L 231.928182 51.153406 
L 231.928182 50.855829 
L 237.462889 50.260676 
L 237.462889 49.963099 
L 238.620149 49.665522 
L 238.620149 49.367945 
L 242.444136 49.070368 
L 257.466909 48.772791 
L 257.466909 48.475215 
L 260.608036 48.177638 
L 261.066116 47.880061 
L 262.073893 47.582484 
L 265.113744 47.284907 
L 265.298779 46.98733 
L 267.73924 46.689754 
L 268.190055 46.392177 
L 270.756285 46.0946 
L 274.276174 45.201869 
L 274.743091 44.904293 
L 278.198336 44.011562 
L 278.198336 43.118832 
L 278.991338 42.821255 
L 280.813107 42.523678 
L 286.260551 42.226101 
L 286.260551 41.928524 
L 286.921397 41.630948 
L 286.993479 41.333371 
L 287.560908 41.035794 
L 302.899616 40.738217 
L 315.40859 39.845487 
L 316.493884 39.54791 
L 316.493884 39.250333 
L 318.231432 38.952756 
L 320.946858 38.655179 
L 326.571667 38.357602 
L 326.571667 38.060026 
L 329.417171 37.762449 
L 334.37381 37.464872 
L 334.911887 37.167295 
L 340.00871 36.869718 
L 340.00871 36.572142 
L 340.472052 36.274565 
L 343.252135 35.976988 
L 344.487705 35.679411 
L 345.176808 35.381834 
L 351.592355 35.084257 
L 351.592355 34.786681 
L 353.445754 34.489104 
L 365.582411 34.191527 
L 367.865965 33.89395 
L 371.570109 33.596373 
L 392.535298 33.298796 
L 393.293513 33.00122 
L 417.271667 32.406066 
L 502.474702 32.108489 
L 525.755969 31.810912 
L 538.205 31.513335 
L 538.205 30.918182 
L 538.205 30.918182 
" clip-path="url(#p35e217aeb2)" style="fill: none; stroke: #800000; stroke-width: 1.5; stroke-linecap: square"/>
   </g>
   <g id="line2d_17">
    <path d="M 84.705 346.881818 
L 84.705 42.690487 
L 87.951532 42.56458 
L 87.995703 42.438673 
L 90.987251 42.186859 
L 92.635054 41.935045 
L 95.336502 41.746184 
L 95.954612 41.620277 
L 100.061615 41.431417 
L 100.143298 41.368463 
L 100.478913 41.30551 
L 105.807462 41.053696 
L 119.012329 40.801882 
L 129.495122 40.424161 
L 146.835886 39.794626 
L 153.809765 39.416905 
L 163.14824 39.102137 
L 163.14824 39.039184 
L 168.832538 38.78737 
L 169.358332 38.724416 
L 173.813771 38.472602 
L 190.521667 37.71716 
L 191.126333 37.654207 
L 200.800997 37.465346 
L 200.800997 37.402393 
L 231.928182 36.709904 
L 231.928182 36.646951 
L 234.313242 36.521044 
L 239.341069 36.395137 
L 239.341069 36.332183 
L 245.949449 36.143323 
L 245.949449 36.080369 
L 250.921744 35.891509 
L 261.066116 35.765602 
L 262.073893 35.639695 
L 262.073893 35.513788 
L 267.73924 35.324927 
L 268.190055 35.261974 
L 271.956607 35.073113 
L 274.743091 34.884253 
L 274.743091 34.758346 
L 278.198336 34.632439 
L 278.198336 34.569485 
L 280.813107 34.443578 
L 286.260551 34.317671 
L 287.560908 34.128811 
L 316.493884 33.751089 
L 316.493884 33.688136 
L 316.896995 33.625182 
L 320.946858 33.373368 
L 334.37381 33.121554 
L 334.37381 32.68088 
L 335.529686 32.492019 
L 340.00871 32.366112 
L 340.472052 32.303159 
L 344.487705 32.114298 
L 345.176808 32.051345 
L 373.384583 31.673624 
L 376.770413 31.61067 
L 392.535298 31.484763 
L 393.293513 31.42181 
L 417.271667 31.232949 
L 538.205 31.044089 
L 538.205 30.918182 
L 538.205 30.918182 
" clip-path="url(#p35e217aeb2)" style="fill: none; stroke: #696969; stroke-width: 1.5; stroke-linecap: square"/>
   </g>
   <g id="patch_3">
    <path d="M 62.03 362.68 
L 62.03 15.12 
" style="fill: none; stroke: #000000; stroke-width: 0.8; stroke-linejoin: miter; stroke-linecap: square"/>
   </g>
   <g id="patch_4">
    <path d="M 560.88 362.68 
L 560.88 15.12 
" style="fill: none; stroke: #000000; stroke-width: 0.8; stroke-linejoin: miter; stroke-linecap: square"/>
   </g>
   <g id="patch_5">
    <path d="M 62.03 362.68 
L 560.88 362.68 
" style="fill: none; stroke: #000000; stroke-width: 0.8; stroke-linejoin: miter; stroke-linecap: square"/>
   </g>
   <g id="patch_6">
    <path d="M 62.03 15.12 
L 560.88 15.12 
" style="fill: none; stroke: #000000; stroke-width: 0.8; stroke-linejoin: miter; stroke-linecap: square"/>
   </g>
   <g id="legend_1">
    <g id="patch_7">
     <path d="M 410.76 356.68 
L 552.48 356.68 
Q 554.88 356.68 554.88 354.28 
L 554.88 249.7975 
Q 554.88 247.3975 552.48 247.3975 
L 410.76 247.3975 
Q 408.36 247.3975 408.36 249.7975 
L 408.36 354.28 
Q 408.36 356.68 410.76 356.68 
z
" style="fill: #ffffff; opacity: 0.8; stroke: #cccccc; stroke-linejoin: miter"/>
    </g>
    <g id="line2d_18">
     <path d="M 413.16 257.115625 
L 425.16 257.115625 
L 437.16 257.115625 
" style="fill: none; stroke: #800080; stroke-width: 1.5; stroke-linecap: square"/>
    </g>
    <g id="text_14">
     <!-- RC aggregated -->
     <g transform="translate(446.76 261.315625) scale(0.12 -0.12)">
      <defs>
       <path id="DejaVuSans-67" d="M 2906 1791 
Q 2906 2416 2648 2759 
Q 2391 3103 1925 3103 
Q 1463 3103 1205 2759 
Q 947 2416 947 1791 
Q 947 1169 1205 825 
Q 1463 481 1925 481 
Q 2391 481 2648 825 
Q 2906 1169 2906 1791 
z
M 3481 434 
Q 3481 -459 3084 -895 
Q 2688 -1331 1869 -1331 
Q 1566 -1331 1297 -1286 
Q 1028 -1241 775 -1147 
L 775 -588 
Q 1028 -725 1275 -790 
Q 1522 -856 1778 -856 
Q 2344 -856 2625 -561 
Q 2906 -266 2906 331 
L 2906 616 
Q 2728 306 2450 153 
Q 2172 0 1784 0 
Q 1141 0 747 490 
Q 353 981 353 1791 
Q 353 2603 747 3093 
Q 1141 3584 1784 3584 
Q 2172 3584 2450 3431 
Q 2728 3278 2906 2969 
L 2906 3500 
L 3481 3500 
L 3481 434 
z
" transform="scale(0.015625)"/>
      </defs>
      <use xlink:href="#DejaVuSans-52"/>
      <use xlink:href="#DejaVuSans-43" x="64.482422"/>
      <use xlink:href="#DejaVuSans-20" x="134.306641"/>
      <use xlink:href="#DejaVuSans-61" x="166.09375"/>
      <use xlink:href="#DejaVuSans-67" x="227.373047"/>
      <use xlink:href="#DejaVuSans-67" x="290.849609"/>
      <use xlink:href="#DejaVuSans-72" x="354.326172"/>
      <use xlink:href="#DejaVuSans-65" x="393.189453"/>
      <use xlink:href="#DejaVuSans-67" x="454.712891"/>
      <use xlink:href="#DejaVuSans-61" x="518.189453"/>
      <use xlink:href="#DejaVuSans-74" x="579.46875"/>
      <use xlink:href="#DejaVuSans-65" x="618.677734"/>
      <use xlink:href="#DejaVuSans-64" x="680.201172"/>
     </g>
    </g>
    <g id="line2d_19">
     <path d="M 413.16 274.729375 
L 425.16 274.729375 
L 437.16 274.729375 
" style="fill: none; stroke: #228b22; stroke-width: 1.5; stroke-linecap: square"/>
    </g>
    <g id="text_15">
     <!-- RC connected -->
     <g transform="translate(446.76 278.929375) scale(0.12 -0.12)">
      <use xlink:href="#DejaVuSans-52"/>
      <use xlink:href="#DejaVuSans-43" x="64.482422"/>
      <use xlink:href="#DejaVuSans-20" x="134.306641"/>
      <use xlink:href="#DejaVuSans-63" x="166.09375"/>
      <use xlink:href="#DejaVuSans-6f" x="221.074219"/>
      <use xlink:href="#DejaVuSans-6e" x="282.255859"/>
      <use xlink:href="#DejaVuSans-6e" x="345.634766"/>
      <use xlink:href="#DejaVuSans-65" x="409.013672"/>
      <use xlink:href="#DejaVuSans-63" x="470.537109"/>
      <use xlink:href="#DejaVuSans-74" x="525.517578"/>
      <use xlink:href="#DejaVuSans-65" x="564.726562"/>
      <use xlink:href="#DejaVuSans-64" x="626.25"/>
     </g>
    </g>
    <g id="line2d_20">
     <path d="M 413.16 292.343125 
L 425.16 292.343125 
L 437.16 292.343125 
" style="fill: none; stroke: #0000cd; stroke-width: 1.5; stroke-linecap: square"/>
    </g>
    <g id="text_16">
     <!-- Bag of molecules -->
     <g transform="translate(446.76 296.543125) scale(0.12 -0.12)">
      <defs>
       <path id="DejaVuSans-42" d="M 1259 2228 
L 1259 519 
L 2272 519 
Q 2781 519 3026 730 
Q 3272 941 3272 1375 
Q 3272 1813 3026 2020 
Q 2781 2228 2272 2228 
L 1259 2228 
z
M 1259 4147 
L 1259 2741 
L 2194 2741 
Q 2656 2741 2882 2914 
Q 3109 3088 3109 3444 
Q 3109 3797 2882 3972 
Q 2656 4147 2194 4147 
L 1259 4147 
z
M 628 4666 
L 2241 4666 
Q 2963 4666 3353 4366 
Q 3744 4066 3744 3513 
Q 3744 3084 3544 2831 
Q 3344 2578 2956 2516 
Q 3422 2416 3680 2098 
Q 3938 1781 3938 1306 
Q 3938 681 3513 340 
Q 3088 0 2303 0 
L 628 0 
L 628 4666 
z
" transform="scale(0.015625)"/>
      </defs>
      <use xlink:href="#DejaVuSans-42"/>
      <use xlink:href="#DejaVuSans-61" x="68.603516"/>
      <use xlink:href="#DejaVuSans-67" x="129.882812"/>
      <use xlink:href="#DejaVuSans-20" x="193.359375"/>
      <use xlink:href="#DejaVuSans-6f" x="225.146484"/>
      <use xlink:href="#DejaVuSans-66" x="286.328125"/>
      <use xlink:href="#DejaVuSans-20" x="321.533203"/>
      <use xlink:href="#DejaVuSans-6d" x="353.320312"/>
      <use xlink:href="#DejaVuSans-6f" x="450.732422"/>
      <use xlink:href="#DejaVuSans-6c" x="511.914062"/>
      <use xlink:href="#DejaVuSans-65" x="539.697266"/>
      <use xlink:href="#DejaVuSans-63" x="601.220703"/>
      <use xlink:href="#DejaVuSans-75" x="656.201172"/>
      <use xlink:href="#DejaVuSans-6c" x="719.580078"/>
      <use xlink:href="#DejaVuSans-65" x="747.363281"/>
      <use xlink:href="#DejaVuSans-73" x="808.886719"/>
     </g>
    </g>
    <g id="line2d_21">
     <path d="M 413.16 309.956875 
L 425.16 309.956875 
L 437.16 309.956875 
" style="fill: none; stroke: #8b4513; stroke-width: 1.5; stroke-linecap: square"/>
    </g>
    <g id="text_17">
     <!-- CGR -->
     <g transform="translate(446.76 314.156875) scale(0.12 -0.12)">
      <defs>
       <path id="DejaVuSans-47" d="M 3809 666 
L 3809 1919 
L 2778 1919 
L 2778 2438 
L 4434 2438 
L 4434 434 
Q 4069 175 3628 42 
Q 3188 -91 2688 -91 
Q 1594 -91 976 548 
Q 359 1188 359 2328 
Q 359 3472 976 4111 
Q 1594 4750 2688 4750 
Q 3144 4750 3555 4637 
Q 3966 4525 4313 4306 
L 4313 3634 
Q 3963 3931 3569 4081 
Q 3175 4231 2741 4231 
Q 1884 4231 1454 3753 
Q 1025 3275 1025 2328 
Q 1025 1384 1454 906 
Q 1884 428 2741 428 
Q 3075 428 3337 486 
Q 3600 544 3809 666 
z
" transform="scale(0.015625)"/>
      </defs>
      <use xlink:href="#DejaVuSans-43"/>
      <use xlink:href="#DejaVuSans-47" x="69.824219"/>
      <use xlink:href="#DejaVuSans-52" x="147.314453"/>
     </g>
    </g>
    <g id="line2d_22">
     <path d="M 413.16 327.570625 
L 425.16 327.570625 
L 437.16 327.570625 
" style="fill: none; stroke: #800000; stroke-width: 1.5; stroke-linecap: square"/>
    </g>
    <g id="text_18">
     <!-- CLIPZyme -->
     <g transform="translate(446.76 331.770625) scale(0.12 -0.12)">
      <defs>
       <path id="DejaVuSans-4c" d="M 628 4666 
L 1259 4666 
L 1259 531 
L 3531 531 
L 3531 0 
L 628 0 
L 628 4666 
z
" transform="scale(0.015625)"/>
       <path id="DejaVuSans-49" d="M 628 4666 
L 1259 4666 
L 1259 0 
L 628 0 
L 628 4666 
z
" transform="scale(0.015625)"/>
       <path id="DejaVuSans-50" d="M 1259 4147 
L 1259 2394 
L 2053 2394 
Q 2494 2394 2734 2622 
Q 2975 2850 2975 3272 
Q 2975 3691 2734 3919 
Q 2494 4147 2053 4147 
L 1259 4147 
z
M 628 4666 
L 2053 4666 
Q 2838 4666 3239 4311 
Q 3641 3956 3641 3272 
Q 3641 2581 3239 2228 
Q 2838 1875 2053 1875 
L 1259 1875 
L 1259 0 
L 628 0 
L 628 4666 
z
" transform="scale(0.015625)"/>
       <path id="DejaVuSans-5a" d="M 359 4666 
L 4025 4666 
L 4025 4184 
L 1075 531 
L 4097 531 
L 4097 0 
L 288 0 
L 288 481 
L 3238 4134 
L 359 4134 
L 359 4666 
z
" transform="scale(0.015625)"/>
      </defs>
      <use xlink:href="#DejaVuSans-43"/>
      <use xlink:href="#DejaVuSans-4c" x="69.824219"/>
      <use xlink:href="#DejaVuSans-49" x="125.537109"/>
      <use xlink:href="#DejaVuSans-50" x="155.029297"/>
      <use xlink:href="#DejaVuSans-5a" x="215.332031"/>
      <use xlink:href="#DejaVuSans-79" x="283.837891"/>
      <use xlink:href="#DejaVuSans-6d" x="343.017578"/>
      <use xlink:href="#DejaVuSans-65" x="440.429688"/>
     </g>
    </g>
    <g id="line2d_23">
     <path d="M 413.16 345.184375 
L 425.16 345.184375 
L 437.16 345.184375 
" style="fill: none; stroke: #696969; stroke-width: 1.5; stroke-linecap: square"/>
    </g>
    <g id="text_19">
     <!-- DRFP -->
     <g transform="translate(446.76 349.384375) scale(0.12 -0.12)">
      <defs>
       <path id="DejaVuSans-44" d="M 1259 4147 
L 1259 519 
L 2022 519 
Q 2988 519 3436 956 
Q 3884 1394 3884 2338 
Q 3884 3275 3436 3711 
Q 2988 4147 2022 4147 
L 1259 4147 
z
M 628 4666 
L 1925 4666 
Q 3281 4666 3915 4102 
Q 4550 3538 4550 2338 
Q 4550 1131 3912 565 
Q 3275 0 1925 0 
L 628 0 
L 628 4666 
z
" transform="scale(0.015625)"/>
       <path id="DejaVuSans-46" d="M 628 4666 
L 3309 4666 
L 3309 4134 
L 1259 4134 
L 1259 2759 
L 3109 2759 
L 3109 2228 
L 1259 2228 
L 1259 0 
L 628 0 
L 628 4666 
z
" transform="scale(0.015625)"/>
      </defs>
      <use xlink:href="#DejaVuSans-44"/>
      <use xlink:href="#DejaVuSans-52" x="77.001953"/>
      <use xlink:href="#DejaVuSans-46" x="146.484375"/>
      <use xlink:href="#DejaVuSans-50" x="204.003906"/>
     </g>
    </g>
   </g>
  </g>
 </g>
 <defs>
  <clipPath id="p35e217aeb2">
   <rect x="62.03" y="15.12" width="498.85" height="347.56"/>
  </clipPath>
 </defs>
</svg>
